<?xml version="1.0" encoding="UTF-8"?>
<svg width="12px" height="10px" viewBox="0 0 12 10" version="1.1" xmlns="http://www.w3.org/2000/svg" xmlns:xlink="http://www.w3.org/1999/xlink">
    <!-- Generator: Sketch 52.6 (67491) - http://www.bohemiancoding.com/sketch -->
    <title>Path</title>
    <desc>Created with Sketch.</desc>
    <g id="UGC-Updates-2019" stroke="none" stroke-width="1" fill="none" fill-rule="evenodd">
        <g id="1-App-Editor---User-Publishing-List-type-Copy-2" transform="translate(-225.000000, -1019.000000)" fill="#5D9D17">
            <path d="M236.8,1022 L231.1,1027.7 L230,1028.8 C229.9,1028.9 229.7,1029 229.5,1029 C229.3,1029 229.1,1028.9 229,1028.8 L228,1027.6 L225.2,1024.8 C225.1,1024.7 225,1024.5 225,1024.3 C225,1024.1 225.1,1023.9 225.2,1023.8 L226.3,1022.7 C226.4,1022.6 226.6,1022.5 226.8,1022.5 C227,1022.5 227.2,1022.6 227.3,1022.7 L229.6,1025 L234.7,1019.9 C234.8,1019.8 235,1019.7 235.2,1019.7 C235.4,1019.7 235.6,1019.8 235.7,1019.9 L236.8,1021 C236.9,1021.1 237,1021.3 237,1021.5 C237,1021.7 237,1021.8 236.8,1022 Z" id="Path"></path>
        </g>
    </g>
</svg>