<?xml version="1.0" encoding="UTF-8"?>
<svg width="14px" height="9px" viewBox="0 0 14 9" version="1.1" xmlns="http://www.w3.org/2000/svg" xmlns:xlink="http://www.w3.org/1999/xlink">
    <!-- Generator: Sketch 53.2 (72643) - https://sketchapp.com -->
    <title>Icons/Audience</title>
    <desc>Created with Sketch.</desc>
    <g id="Icons" stroke="none" stroke-width="1" fill="none" fill-rule="evenodd">
        <g transform="translate(-89.000000, -832.000000)" fill="#067BBE" id="Icons/Audience">
            <g transform="translate(89.500000, 832.000000)">
                <g id="eye-icon">
                    <g id="Group" fill-rule="nonzero">
                        <path d="M6.5,0.109617918 C2.16666667,0.109617918 0.0677083333,4.52173913 0.0677083333,4.52173913 C0.0677083333,4.52173913 2.153125,8.93386034 6.5,8.93386034 C10.846875,8.93386034 12.9322917,4.52173913 12.9322917,4.52173913 C12.9322917,4.52173913 10.8333333,0.109617918 6.5,0.109617918 Z M6.5,7.93359684 C4.63125,7.93359684 3.128125,6.39894598 3.128125,4.52173913 C3.128125,2.63083004 4.64479167,1.10988142 6.5,1.10988142 C8.35520833,1.10988142 9.871875,2.64453228 9.871875,4.52173913 C9.871875,6.41264822 8.36875,7.93359684 6.5,7.93359684 Z" id="Shape"></path>
                        <path d="M8.084375,3.8914361 C7.55625,3.8914361 7.12291667,3.45296443 7.12291667,2.91857708 C7.12291667,2.7541502 7.16354167,2.58972332 7.24479167,2.45270092 C7.01458333,2.37048748 6.75729167,2.31567852 6.5,2.31567852 C5.29479167,2.31567852 4.30625,3.30223979 4.30625,4.52173913 C4.30625,5.74123847 5.28125,6.74150198 6.5,6.74150198 C7.70520833,6.74150198 8.68020833,5.75494071 8.68020833,4.52173913 C8.68020833,4.26139657 8.63958333,4.00105402 8.54479167,3.76811594 C8.42291667,3.85032938 8.26041667,3.8914361 8.084375,3.8914361 Z" id="Shape"></path>
                    </g>
                </g>
            </g>
        </g>
    </g>
</svg>