<?xml version="1.0" encoding="UTF-8"?>
<svg width="147px" height="105px" viewBox="0 0 147 105" version="1.1" xmlns="http://www.w3.org/2000/svg" xmlns:xlink="http://www.w3.org/1999/xlink">
    <!-- Generator: Sketch 55 (78076) - https://sketchapp.com -->
    <title>Group</title>
    <desc>Created with Sketch.</desc>
    <g id="Tooltips-" stroke="none" stroke-width="1" fill="none" fill-rule="evenodd">
        <g id="CMS-Tooltips---Audience-Tab-Copy" transform="translate(-375.000000, -192.000000)">
            <g id="Group" transform="translate(374.500000, 191.500000)">
                <g id="Group-5-Copy" transform="translate(0.499512, 0.934570)">
                    <g id="Group-4" transform="translate(62.500000, 81.302246)">
                        <g id="Group-3" fill="#D2D9E1">
                            <circle id="Oval" fill-opacity="0.3984375" cx="11.5" cy="11.5" r="11.5"></circle>
                            <circle id="Oval" fill-opacity="0.501420455" cx="11.5" cy="11.5" r="9"></circle>
                        </g>
                        <g id="Group-2" transform="translate(4.500000, 4.500000)">
                            <circle id="Oval" fill="#D2D9E1" cx="6.79999959" cy="6.79999959" r="6.79999959"></circle>
                            <text id="?" font-family="Lato-Bold, Lato" font-size="11.1999993" font-weight="bold" fill="#FFFFFF">
                                <tspan x="4.22399975" y="11.2999996">?</tspan>
                            </text>
                        </g>
                    </g>
                    <g id="Group-3-Copy-3">
                        <path d="M3.89159644,7.85306463 L66.8911742,8.00593406 L72.6614323,1.59857634 C73.4006076,0.777787943 74.6652081,0.711627493 75.4859965,1.45080284 C75.5220883,1.48330596 75.5569841,1.51711303 75.5906146,1.55215681 L81.7841029,8.00593406 L143.989597,8.2502805 C145.641838,8.25677059 146.977813,9.59800321 146.977813,11.2502574 L146.977813,86.1408682 C146.977813,87.7977224 145.634667,89.1408682 143.977813,89.1408682 L3.88431691,89.1408682 C2.22746266,89.1408682 0.884316912,87.7977224 0.884316912,86.1408682 L0.884316912,10.8530558 C0.884316912,9.19620155 2.22746266,7.8530558 3.88431691,7.8530558 C3.88674342,7.8530558 3.88916993,7.85305875 3.89159644,7.85306463 Z" id="Rectangle-Copy" fill="#6A6F75" transform="translate(73.931065, 44.570434) rotate(-180.000000) translate(-73.931065, -44.570434) "></path>
                        <text id="By-default,-any-cont" font-family="Lato-Regular, Lato" font-size="11" font-weight="normal" fill="#FFFFFF">
                            <tspan x="17.7183149" y="18.0704341">By default, any content </tspan>
                            <tspan x="18.9695649" y="31.0704341">added will be visible to </tspan>
                            <tspan x="23.7408149" y="44.0704341">everyone in your org</tspan>
                        </text>
                    </g>
                </g>
                <g id="Group-2" transform="translate(39.655273, 53.434570)">
                    <rect id="Rectangle" fill="#657D98" x="0.0453124992" y="1.1916416" width="68.8171863" height="20" rx="2.79999995"></rect>
                    <path d="M12.7554559,13.5362712 L12.7554559,14.3862705 L8.51588858,14.3862705 L8.51588858,6.91357681 L9.52232953,6.91357681 L9.52232953,13.5362712 L12.7554559,13.5362712 Z M17.1879679,11.1687883 C17.1879679,10.9532455 17.157549,10.7559572 17.0967103,10.5769176 C17.0358716,10.397878 16.9472222,10.2431762 16.8307596,10.1128075 C16.7142969,9.98243885 16.5726317,9.88162194 16.4057599,9.81035375 C16.238888,9.73908555 16.0494217,9.70345199 15.8373554,9.70345199 C15.3923637,9.70345199 15.0403737,9.83294957 14.7813746,10.0919486 C14.5223756,10.3509477 14.36159,10.7098906 14.299013,11.1687883 L17.1879679,11.1687883 Z M17.9388875,13.6457803 C17.8241631,13.7848402 17.6868435,13.9056466 17.5269247,14.0082033 C17.3670058,14.11076 17.1957909,14.1950638 17.0132748,14.2611172 C16.8307586,14.3271707 16.6421615,14.37671 16.4474776,14.4097368 C16.2527938,14.4427635 16.0598511,14.4592766 15.8686437,14.4592766 C15.5036115,14.4592766 15.1672654,14.3975697 14.8595954,14.274154 C14.5519254,14.1507384 14.2859773,13.9699632 14.0617433,13.7318232 C13.8375092,13.4936831 13.6628178,13.1990544 13.5376639,12.8479281 C13.41251,12.4968019 13.349934,12.0935342 13.349934,11.6381131 C13.349934,11.2696044 13.4064262,10.9254363 13.5194124,10.6055985 C13.6323985,10.2857608 13.7949224,10.0085143 14.0069887,9.77385071 C14.219055,9.53918713 14.4780502,9.35493554 14.783982,9.22109039 C15.0899137,9.08724524 15.4340818,9.02032367 15.8164965,9.02032367 C16.1328578,9.02032367 16.4257483,9.07333946 16.6951768,9.17937263 C16.9646054,9.2854058 17.1975272,9.43836939 17.3939493,9.63826799 C17.5903714,9.83816658 17.7442041,10.0849942 17.855452,10.3787582 C17.9666999,10.6725222 18.0223231,11.0071301 18.0223231,11.3825918 C18.0223231,11.5286047 18.0066791,11.6259452 17.9753906,11.6746161 C17.9441021,11.7232871 17.8850025,11.7476222 17.7980901,11.7476222 L14.2677247,11.7476222 C14.2781542,12.081366 14.3242171,12.3716491 14.4059148,12.6184804 C14.4876125,12.8653118 14.601466,13.0712911 14.7474789,13.2364248 C14.8934918,13.4015584 15.0673141,13.5249722 15.2689509,13.6066699 C15.4705878,13.6883676 15.6965567,13.7292158 15.9468645,13.7292158 C16.1797898,13.7292158 16.3805546,13.7022733 16.5491647,13.6483876 C16.7177748,13.5945019 16.8629164,13.5362715 16.9845938,13.4736945 C17.1062712,13.4111176 17.2079572,13.3528871 17.2896549,13.2990014 C17.3713526,13.2451157 17.4417506,13.2181732 17.5008511,13.2181732 C17.577334,13.2181732 17.6364336,13.247723 17.6781515,13.3068235 L17.9388875,13.6457803 Z M22.0220133,12.0083582 C21.5944041,12.0222642 21.2302465,12.0561595 20.9295294,12.1100452 C20.6288124,12.163931 20.383723,12.234329 20.1942539,12.3212414 C20.0047848,12.4081538 19.8674652,12.510709 19.7822911,12.6289099 C19.6971169,12.7471108 19.6545304,12.8792157 19.6545304,13.0252286 C19.6545304,13.1642885 19.6771273,13.2842259 19.7223218,13.3850443 C19.7675162,13.4858627 19.8292231,13.5684283 19.9074443,13.6327435 C19.9856655,13.6970587 20.0777913,13.7439907 20.1838245,13.7735409 C20.2898577,13.8030911 20.4037112,13.817866 20.5253886,13.817866 C20.688784,13.817866 20.8382712,13.8013529 20.9738546,13.7683262 C21.109438,13.7352995 21.2371973,13.6874983 21.3571365,13.6249214 C21.4770756,13.5623444 21.5917983,13.4876009 21.701308,13.4006884 C21.8108177,13.313776 21.9177184,13.2146973 22.0220133,13.1034494 L22.0220133,12.0083582 Z M19.0235493,9.84946415 C19.3155751,9.56786786 19.6301934,9.35754292 19.9674136,9.21848303 C20.3046339,9.07942314 20.6783517,9.00989423 21.0885784,9.00989423 C21.3840807,9.00989423 21.6465523,9.05856446 21.8760011,9.15590639 C22.1054499,9.25324832 22.2983927,9.38882968 22.454835,9.56265455 C22.6112774,9.73647942 22.7294766,9.94680435 22.809436,10.1936357 C22.8893954,10.440467 22.9293745,10.7116297 22.9293745,11.007132 L22.9293745,14.3862705 L22.5174117,14.3862705 C22.4270227,14.3862705 22.3574938,14.3714956 22.3088229,14.3419454 C22.2601519,14.3123952 22.221911,14.2541647 22.194099,14.1672523 L22.0898046,13.6666392 C21.9507447,13.7952696 21.8151634,13.9091231 21.6830565,14.0082033 C21.5509496,14.1072835 21.4118918,14.1907182 21.2658789,14.2585099 C21.119866,14.3263016 20.9642951,14.3784482 20.7991614,14.4149515 C20.6340278,14.4514547 20.4506453,14.469706 20.2490085,14.469706 C20.0438951,14.469706 19.8509524,14.4410254 19.6701746,14.3836632 C19.4893967,14.3263009 19.3320876,14.2402589 19.1982424,14.1255345 C19.0643973,14.0108101 18.9583657,13.8656685 18.8801445,13.6901054 C18.8019233,13.5145423 18.7628133,13.3068247 18.7628133,13.0669464 C18.7628133,12.8583565 18.8201746,12.6575918 18.9348991,12.4646462 C19.0496235,12.2717006 19.2356133,12.1004857 19.4928741,11.9509963 C19.7501349,11.8015069 20.0856119,11.6789622 20.499315,11.5833585 C20.9130182,11.4877549 21.4205792,11.4330008 22.0220133,11.4190949 L22.0220133,11.007132 C22.0220133,10.5969053 21.9333639,10.2866326 21.7560626,10.0763045 C21.5787612,9.86597637 21.319766,9.76081391 20.9790693,9.76081391 C20.7496205,9.76081391 20.5575469,9.78949458 20.4028427,9.84685679 C20.2481386,9.90421899 20.1142955,9.96853323 20.0013093,10.0398014 C19.8883231,10.1110696 19.7909827,10.1753839 19.709285,10.2327461 C19.6275873,10.2901083 19.5467599,10.3187889 19.4668005,10.3187889 C19.4042235,10.3187889 19.3503386,10.3022758 19.3051442,10.2692491 C19.2599497,10.2362224 19.2217088,10.1953741 19.1904203,10.1467032 L19.0235493,9.84946415 Z M25.2238513,10.1623473 C25.3907232,9.80079162 25.5958335,9.51833044 25.8391883,9.31495535 C26.0825431,9.11158025 26.3797792,9.00989423 26.7309054,9.00989423 C26.8421533,9.00989423 26.949054,9.02206179 27.0516107,9.04639727 C27.1541674,9.07073275 27.245424,9.10897365 27.3253835,9.16112111 L27.2575921,9.85467887 C27.2367331,9.9415913 27.1845865,9.98504686 27.1011505,9.98504686 C27.0524796,9.98504686 26.9812124,9.97461753 26.887347,9.95375854 C26.7934816,9.93289956 26.68745,9.92247022 26.5692491,9.92247022 C26.4023772,9.92247022 26.2537592,9.94680534 26.1233905,9.9954763 C25.9930219,10.0441473 25.876561,10.1162835 25.7740043,10.2118872 C25.6714476,10.3074909 25.5793218,10.42569 25.4976241,10.5664881 C25.4159264,10.7072863 25.342052,10.8680719 25.2759985,11.0488497 L25.2759985,14.3862705 L24.3425637,14.3862705 L24.3425637,9.10375919 L24.8744651,9.10375919 C24.9752835,9.10375919 25.0448124,9.12287964 25.0830539,9.16112111 C25.1212954,9.19936258 25.1473687,9.26541504 25.1612747,9.35928047 L25.2238513,10.1623473 Z M29.0149527,9.87032303 C29.1296772,9.74169262 29.2513527,9.62523171 29.3799831,9.52093679 C29.5086135,9.41664187 29.645064,9.3271234 29.7893387,9.25237871 C29.9336133,9.17763402 30.0865769,9.12027267 30.248234,9.08029295 C30.4098911,9.04031323 30.5845825,9.02032367 30.7723134,9.02032367 C31.0608627,9.02032367 31.3155123,9.06812479 31.5362698,9.16372847 C31.7570274,9.25933215 31.941279,9.39491351 32.0890302,9.57047663 C32.2367813,9.74603974 32.3488967,9.95723379 32.4253796,10.2040651 C32.5018625,10.4508964 32.5401034,10.7237974 32.5401034,11.0227761 L32.5401034,14.3862705 L31.6066686,14.3862705 L31.6066686,11.0227761 C31.6066686,10.6229789 31.5154119,10.3127062 31.3328958,10.0919486 C31.1503797,9.87119104 30.8731331,9.76081391 30.5011479,9.76081391 C30.2265046,9.76081391 29.9701168,9.82686636 29.7319767,9.95897326 C29.4938367,10.0910802 29.2739515,10.2701171 29.0723147,10.4960894 L29.0723147,14.3862705 L28.1388798,14.3862705 L28.1388798,9.10375919 L28.6968548,9.10375919 C28.8289617,9.10375919 28.9106582,9.16807343 28.9419467,9.29670383 L29.0149527,9.87032303 Z M44.6226096,6.91357681 L44.6226096,14.3862705 L43.7361072,14.3862705 L43.7361072,8.89517039 C43.7361072,8.82216395 43.7387145,8.74394393 43.7439293,8.66050799 C43.749144,8.57707206 43.7552278,8.49189915 43.7621808,8.40498672 L41.1965386,13.0773758 C41.1165791,13.2338182 40.9949036,13.3120382 40.8315082,13.3120382 L40.685496,13.3120382 C40.5221006,13.3120382 40.4004251,13.2338182 40.3204656,13.0773758 L37.7026762,8.38412784 C37.7235352,8.5683822 37.7339645,8.73872801 37.7339645,8.89517039 L37.7339645,14.3862705 L36.8474621,14.3862705 L36.8474621,6.91357681 L37.5931671,6.91357681 C37.683556,6.91357681 37.7530849,6.92226792 37.8017559,6.93965041 C37.8504268,6.95703289 37.8973589,7.00570313 37.9425533,7.08566257 L40.5238397,11.6850456 C40.5655577,11.7684815 40.6064059,11.8553926 40.6463856,11.9457816 C40.6863653,12.0361705 40.7237371,12.1282963 40.7585021,12.2221617 C40.7932671,12.1282963 40.8297697,12.0353014 40.8680112,11.9431742 C40.9062527,11.851047 40.94797,11.7632668 40.9931645,11.6798309 L43.5275184,7.08566257 C43.5692364,7.00570313 43.6152993,6.95703289 43.6657085,6.93965041 C43.7161177,6.92226792 43.7865157,6.91357681 43.8769046,6.91357681 L44.6226096,6.91357681 Z M48.5388643,9.02032367 C48.9247555,9.02032367 49.2724,9.08463791 49.5818083,9.21326831 C49.8912165,9.34189871 50.1554264,9.52441209 50.3744457,9.76081391 C50.593465,9.99721573 50.7612035,10.2831533 50.8776662,10.6186353 C50.9941288,10.9541173 51.0523593,11.3287043 51.0523593,11.7424075 C51.0523593,12.1595872 50.9941288,12.5350433 50.8776662,12.868787 C50.7612035,13.2025307 50.593465,13.4875993 50.3744457,13.7240011 C50.1554264,13.9604029 49.8912165,14.1420472 49.5818083,14.2689393 C49.2724,14.3958315 48.9247555,14.4592766 48.5388643,14.4592766 C48.1494966,14.4592766 47.7992447,14.3958315 47.4880982,14.2689393 C47.1769517,14.1420472 46.9118727,13.9604029 46.6928534,13.7240011 C46.4738341,13.4875993 46.3060956,13.2025307 46.1896329,12.868787 C46.0731703,12.5350433 46.0149398,12.1595872 46.0149398,11.7424075 C46.0149398,11.3287043 46.0731703,10.9541173 46.1896329,10.6186353 C46.3060956,10.2831533 46.4738341,9.99721573 46.6928534,9.76081391 C46.9118727,9.52441209 47.1769517,9.34189871 47.4880982,9.21326831 C47.7992447,9.08463791 48.1494966,9.02032367 48.5388643,9.02032367 Z M48.5388643,13.7344305 C49.0603389,13.7344305 49.4497007,13.5597391 49.7069616,13.2103512 C49.9642224,12.8609632 50.0928508,12.3733917 50.0928508,11.7476222 C50.0928508,11.1183762 49.9642224,10.6281974 49.7069616,10.2770712 C49.4497007,9.92594495 49.0603389,9.75038447 48.5388643,9.75038447 C48.2746505,9.75038447 48.044336,9.79557825 47.8479139,9.88596718 C47.6514918,9.97635612 47.4880989,10.1067228 47.3577302,10.2770712 C47.2273616,10.4474196 47.1300211,10.6568754 47.0657059,10.9054449 C47.0013907,11.1540145 46.9692336,11.4347374 46.9692336,11.7476222 C46.9692336,12.3733917 47.0987312,12.8609632 47.3577302,13.2103512 C47.6167293,13.5597391 48.0104367,13.7344305 48.5388643,13.7344305 Z M53.106959,10.1623473 C53.2738308,9.80079162 53.4789411,9.51833044 53.7222959,9.31495535 C53.9656507,9.11158025 54.2628868,9.00989423 54.614013,9.00989423 C54.7252609,9.00989423 54.8321616,9.02206179 54.9347183,9.04639727 C55.037275,9.07073275 55.1285317,9.10897365 55.2084911,9.16112111 L55.1406998,9.85467887 C55.1198408,9.9415913 55.0676941,9.98504686 54.9842582,9.98504686 C54.9355872,9.98504686 54.8643201,9.97461753 54.7704546,9.95375854 C54.6765892,9.93289956 54.5705576,9.92247022 54.4523567,9.92247022 C54.2854848,9.92247022 54.1368668,9.94680534 54.0064982,9.9954763 C53.8761295,10.0441473 53.7596686,10.1162835 53.6571119,10.2118872 C53.5545552,10.3074909 53.4624295,10.42569 53.3807318,10.5664881 C53.2990341,10.7072863 53.2251596,10.8680719 53.1591062,11.0488497 L53.1591062,14.3862705 L52.2256713,14.3862705 L52.2256713,9.10375919 L52.7575727,9.10375919 C52.8583912,9.10375919 52.9279201,9.12287964 52.9661615,9.16112111 C53.004403,9.19936258 53.0304763,9.26541504 53.0443823,9.35928047 L53.106959,10.1623473 Z M59.5575676,11.1687883 C59.5575676,10.9532455 59.5271487,10.7559572 59.46631,10.5769176 C59.4054713,10.397878 59.3168219,10.2431762 59.2003592,10.1128075 C59.0838966,9.98243885 58.9422314,9.88162194 58.7753596,9.81035375 C58.6084877,9.73908555 58.4190214,9.70345199 58.2069551,9.70345199 C57.7619634,9.70345199 57.4099733,9.83294957 57.1509743,10.0919486 C56.8919752,10.3509477 56.7311897,10.7098906 56.6686127,11.1687883 L59.5575676,11.1687883 Z M60.3084872,13.6457803 C60.1937628,13.7848402 60.0564432,13.9056466 59.8965244,14.0082033 C59.7366055,14.11076 59.5653905,14.1950638 59.3828744,14.2611172 C59.2003583,14.3271707 59.0117612,14.37671 58.8170773,14.4097368 C58.6223935,14.4427635 58.4294508,14.4592766 58.2382434,14.4592766 C57.8732112,14.4592766 57.5368651,14.3975697 57.2291951,14.274154 C56.9215251,14.1507384 56.655577,13.9699632 56.4313429,13.7318232 C56.2071089,13.4936831 56.0324175,13.1990544 55.9072636,12.8479281 C55.7821097,12.4968019 55.7195337,12.0935342 55.7195337,11.6381131 C55.7195337,11.2696044 55.7760259,10.9254363 55.8890121,10.6055985 C56.0019982,10.2857608 56.164522,10.0085143 56.3765884,9.77385071 C56.5886547,9.53918713 56.8476499,9.35493554 57.1535817,9.22109039 C57.4595134,9.08724524 57.8036815,9.02032367 58.1860962,9.02032367 C58.5024575,9.02032367 58.795348,9.07333946 59.0647765,9.17937263 C59.3342051,9.2854058 59.5671269,9.43836939 59.763549,9.63826799 C59.9599711,9.83816658 60.1138038,10.0849942 60.2250517,10.3787582 C60.3362996,10.6725222 60.3919228,11.0071301 60.3919228,11.3825918 C60.3919228,11.5286047 60.3762787,11.6259452 60.3449903,11.6746161 C60.3137018,11.7232871 60.2546022,11.7476222 60.1676898,11.7476222 L56.6373244,11.7476222 C56.6477539,12.081366 56.6938168,12.3716491 56.7755145,12.6184804 C56.8572121,12.8653118 56.9710657,13.0712911 57.1170786,13.2364248 C57.2630915,13.4015584 57.4369138,13.5249722 57.6385506,13.6066699 C57.8401875,13.6883676 58.0661564,13.7292158 58.3164642,13.7292158 C58.5493895,13.7292158 58.7501542,13.7022733 58.9187644,13.6483876 C59.0873745,13.5945019 59.2325161,13.5362715 59.3541935,13.4736945 C59.4758709,13.4111176 59.5775569,13.3528871 59.6592546,13.2990014 C59.7409523,13.2451157 59.8113503,13.2181732 59.8704508,13.2181732 C59.9469337,13.2181732 60.0060333,13.247723 60.0477512,13.3068235 L60.3084872,13.6457803 Z" id="LearnMore" fill="#FFFFFF" fill-rule="nonzero"></path>
                </g>
            </g>
        </g>
    </g>
</svg>