<?xml version="1.0" encoding="UTF-8"?>
<svg width="515px" height="91px" viewBox="0 0 515 91" version="1.1" xmlns="http://www.w3.org/2000/svg" xmlns:xlink="http://www.w3.org/1999/xlink">
    <!-- Generator: Sketch 52.6 (67491) - http://www.bohemiancoding.com/sketch -->
    <title>contact no featured img</title>
    <desc>Created with Sketch.</desc>
    <defs>
        <rect id="path-1" x="0" y="0" width="515" height="91" rx="4"></rect>
        <polygon id="path-3" points="0 0 131 0 131 99 0 99"></polygon>
        <polygon id="path-5" points="0 0.000379354829 62.9347523 0.000379354829 62.9347523 48.683871 0 48.683871"></polygon>
    </defs>
    <g id="CMS-UI-Updates" stroke="none" stroke-width="1" fill="none" fill-rule="evenodd">
        <g id="Plan" transform="translate(-666.000000, -2418.000000)">
            <g id="contact-no-featured-img" transform="translate(666.000000, 2418.000000)">
                <g id="webpage-no-featured-imag">
                    <g id="LIST-ITEM-Copy">
                        <mask id="mask-2" fill="white">
                            <use xlink:href="#path-1"></use>
                        </mask>
                        <rect stroke="#E3E3E3" x="0.5" y="0.5" width="514" height="90" rx="4"></rect>
                        <g id="Group-3" mask="url(#mask-2)" fill="#6A6F75" fill-opacity="0.45482337">
                            <g transform="translate(501.000000, 44.000000) rotate(-270.000000) translate(-501.000000, -44.000000) translate(486.000000, 29.000000)" id="Combined-Shape">
                                <path d="M7.9047619,16.8095238 C6.85279095,16.8095238 6,15.9567329 6,14.9047619 C6,13.852791 6.85279095,13 7.9047619,13 C8.95673286,13 9.80952381,13.852791 9.80952381,14.9047619 C9.80952381,15.9567329 8.95673286,16.8095238 7.9047619,16.8095238 Z M15,16.8095238 C13.948029,16.8095238 13.0952381,15.9567329 13.0952381,14.9047619 C13.0952381,13.852791 13.948029,13 15,13 C16.051971,13 16.9047619,13.852791 16.9047619,14.9047619 C16.9047619,15.9567329 16.051971,16.8095238 15,16.8095238 Z M22.0952381,16.8095238 C21.0432671,16.8095238 20.1904762,15.9567329 20.1904762,14.9047619 C20.1904762,13.852791 21.0432671,13 22.0952381,13 C23.147209,13 24,13.852791 24,14.9047619 C24,15.9567329 23.147209,16.8095238 22.0952381,16.8095238 Z"></path>
                            </g>
                        </g>
                        <g id="Group-2" mask="url(#mask-2)">
                            <g transform="translate(-9.000000, -3.000000)">
                                <mask id="mask-4" fill="white">
                                    <use xlink:href="#path-3"></use>
                                </mask>
                                <g id="Rectangle-5" stroke="none" fill="none"></g>
                            </g>
                        </g>
                        <text id="Childish-Gambino" mask="url(#mask-2)" font-family="Lato-Semibold, Lato" font-size="15" font-weight="500" letter-spacing="-0.3" fill="#484848">
                            <tspan x="138" y="34">Childish Gambino</tspan>
                        </text>
                        <text id="Published" mask="url(#mask-2)" font-family="Lato-Regular, Lato" font-size="13" font-weight="normal" letter-spacing="-0.2785714" fill="#6A6F75">
                            <tspan x="154" y="75">Published</tspan>
                        </text>
                        <text id="Contact" mask="url(#mask-2)" font-family="Lato-Regular, Lato" font-size="13" font-weight="normal" letter-spacing="-0.2785714" fill="#6A6F75">
                            <tspan x="139" y="54">Contact</tspan>
                        </text>
                        <circle id="Oval" fill="#6EB81D" mask="url(#mask-2)" cx="143.5" cy="70.5" r="5.5"></circle>
                        <g id="stats" mask="url(#mask-2)">
                            <g transform="translate(365.000000, 8.000000)">
                                <g id="Group" stroke-width="1" fill="none" fill-rule="evenodd" transform="translate(15.000000, 15.000000)"></g>
                                <rect id="Rectangle-6" fill="none" x="0" y="0" width="96" height="77" rx="3"></rect>
                                <text id="Everyone" fill="none" font-family="Lato-Regular, Lato" font-size="13" font-weight="normal" letter-spacing="-0.26">
                                    <tspan x="29" y="22" fill="#067BBE">Everyone</tspan>
                                </text>
                                <path d="M17.5,13.1096179 C13.1666667,13.1096179 11.0677083,17.5217391 11.0677083,17.5217391 C11.0677083,17.5217391 13.153125,21.9338603 17.5,21.9338603 C21.846875,21.9338603 23.9322917,17.5217391 23.9322917,17.5217391 C23.9322917,17.5217391 21.8333333,13.1096179 17.5,13.1096179 Z M17.5,20.9335968 C15.63125,20.9335968 14.128125,19.398946 14.128125,17.5217391 C14.128125,15.63083 15.6447917,14.1098814 17.5,14.1098814 C19.3552083,14.1098814 20.871875,15.6445323 20.871875,17.5217391 C20.871875,19.4126482 19.36875,20.9335968 17.5,20.9335968 Z" id="Shape" fill="#067BBE" fill-rule="nonzero"></path>
                                <path d="M19.084375,16.8914361 C18.55625,16.8914361 18.1229167,16.4529644 18.1229167,15.9185771 C18.1229167,15.7541502 18.1635417,15.5897233 18.2447917,15.4527009 C18.0145833,15.3704875 17.7572917,15.3156785 17.5,15.3156785 C16.2947917,15.3156785 15.30625,16.3022398 15.30625,17.5217391 C15.30625,18.7412385 16.28125,19.741502 17.5,19.741502 C18.7052083,19.741502 19.6802083,18.7549407 19.6802083,17.5217391 C19.6802083,17.2613966 19.6395833,17.001054 19.5447917,16.7681159 C19.4229167,16.8503294 19.2604167,16.8914361 19.084375,16.8914361 Z" id="Shape" fill="#067BBE" fill-rule="nonzero"></path>
                            </g>
                        </g>
                    </g>
                </g>
                <g id="Group-26" opacity="0.746023996" transform="translate(31.000000, 21.000000)">
                    <path d="M5.44962663,37.6725277 L2.00172211,37.6725277 L2.00172211,13.0957084 C2.00172211,12.3755665 2.58771709,11.7904116 3.30920955,11.7904116 L5.3964407,11.7904116 L5.3964407,37.3813729 C5.3964407,37.484431 5.41416935,37.5814826 5.44962663,37.6725277" id="Fill-1" fill="#EDF0F3"></path>
                    <path d="M18.9832296,22.7558213 C19.5397824,22.3767826 19.9193653,21.7388342 19.9193653,21.0066794 C19.9193653,19.8423761 18.965501,18.8873503 17.7966769,18.8873503 C16.6281693,18.8873503 15.6828528,19.8423761 15.6828528,21.0066794 C15.6828528,21.7388342 16.0538879,22.3767826 16.6189884,22.7558213 C14.9233704,23.2644729 13.6928126,24.8372148 13.6928126,26.6894148 L21.9094055,26.6894148 C21.9094055,24.8372148 20.6699834,23.2644729 18.9832296,22.7558213 Z M18.9832296,22.7558213 C19.5397824,22.3767826 19.9193653,21.7388342 19.9193653,21.0066794 C19.9193653,19.8423761 18.965501,18.8873503 17.7966769,18.8873503 C16.6281693,18.8873503 15.6828528,19.8423761 15.6828528,21.0066794 C15.6828528,21.7388342 16.0538879,22.3767826 16.6189884,22.7558213 C14.9233704,23.2644729 13.6928126,24.8372148 13.6928126,26.6894148 L21.9094055,26.6894148 C21.9094055,24.8372148 20.6699834,23.2644729 18.9832296,22.7558213 Z M18.9832296,22.7558213 C19.5397824,22.3767826 19.9193653,21.7388342 19.9193653,21.0066794 C19.9193653,19.8423761 18.965501,18.8873503 17.7966769,18.8873503 C16.6281693,18.8873503 15.6828528,19.8423761 15.6828528,21.0066794 C15.6828528,21.7388342 16.0538879,22.3767826 16.6189884,22.7558213 C14.9233704,23.2644729 13.6928126,24.8372148 13.6928126,26.6894148 L21.9094055,26.6894148 C21.9094055,24.8372148 20.6699834,23.2644729 18.9832296,22.7558213 Z M18.9832296,22.7558213 C19.5397824,22.3767826 19.9193653,21.7388342 19.9193653,21.0066794 C19.9193653,19.8423761 18.965501,18.8873503 17.7966769,18.8873503 C16.6281693,18.8873503 15.6828528,19.8423761 15.6828528,21.0066794 C15.6828528,21.7388342 16.0538879,22.3767826 16.6189884,22.7558213 C14.9233704,23.2644729 13.6928126,24.8372148 13.6928126,26.6894148 L21.9094055,26.6894148 C21.9094055,24.8372148 20.6699834,23.2644729 18.9832296,22.7558213 Z M18.9832296,22.7558213 C19.5397824,22.3767826 19.9193653,21.7388342 19.9193653,21.0066794 C19.9193653,19.8423761 18.965501,18.8873503 17.7966769,18.8873503 C16.6281693,18.8873503 15.6828528,19.8423761 15.6828528,21.0066794 C15.6828528,21.7388342 16.0538879,22.3767826 16.6189884,22.7558213 C14.9233704,23.2644729 13.6928126,24.8372148 13.6928126,26.6894148 L21.9094055,26.6894148 C21.9094055,24.8372148 20.6699834,23.2644729 18.9832296,22.7558213 Z M24.7007171,27.7712084 C24.7007171,29.3145503 23.4404005,30.57306 21.8919935,30.57306 L13.7013603,30.57306 C12.1532698,30.57306 10.8929533,29.3145503 10.8929533,27.7712084 L10.8929533,17.8052406 C10.8929533,16.2618987 12.1532698,15.00086 13.7013603,15.00086 L21.8919935,15.00086 C23.4404005,15.00086 24.7007171,16.2618987 24.7007171,17.8052406 L24.7007171,27.7712084 Z M31.3628879,27.5568729 L38.4138226,27.5568729 C38.9228879,27.5568729 39.3382447,27.9741632 39.3382447,28.4824987 C39.3382447,28.9914665 38.9228879,29.4087568 38.4138226,29.4087568 L31.3628879,29.4087568 C30.853506,29.4087568 30.4356166,28.9914665 30.4356166,28.4824987 C30.4356166,27.9741632 30.853506,27.5568729 31.3628879,27.5568729 Z M31.3628879,23.7642729 L44.5757925,23.7642729 C45.0848578,23.7642729 45.5002146,24.1818794 45.5002146,24.6902148 C45.5002146,25.1991826 45.0848578,25.6133116 44.5757925,25.6133116 L31.3628879,25.6133116 C30.853506,25.6133116 30.4356166,25.1991826 30.4356166,24.6902148 C30.4356166,24.1818794 30.853506,23.7642729 31.3628879,23.7642729 Z M31.3628879,19.9716729 L44.5757925,19.9716729 C45.0848578,19.9716729 45.5002146,20.3775826 45.5002146,20.8947697 C45.5002146,21.4037374 45.0848578,21.8210277 44.5757925,21.8210277 L31.3628879,21.8210277 C30.853506,21.8210277 30.4356166,21.4037374 30.4356166,20.8947697 C30.4356166,20.3775826 30.853506,19.9716729 31.3628879,19.9716729 Z M31.2596819,13.4278019 L46.6658729,13.4278019 L46.6658729,13.0955503 C46.6658729,12.3754084 46.0801945,11.7902535 45.358702,11.7902535 L7.16297337,11.7902535 L7.16297337,37.381531 C7.16297337,37.484589 7.14492814,37.5813245 7.10978744,37.6726858 L46.6658729,37.6726858 L46.6658729,15.2800019 L31.2596819,15.2800019 C30.7417523,15.2800019 30.3327271,14.8623955 30.3327271,14.35406 C30.3327271,13.8365568 30.7417523,13.4278019 31.2596819,13.4278019 Z M18.9832296,22.7558213 C19.5397824,22.3767826 19.9193653,21.7388342 19.9193653,21.0066794 C19.9193653,19.8423761 18.965501,18.8873503 17.7966769,18.8873503 C16.6281693,18.8873503 15.6828528,19.8423761 15.6828528,21.0066794 C15.6828528,21.7388342 16.0538879,22.3767826 16.6189884,22.7558213 C14.9233704,23.2644729 13.6928126,24.8372148 13.6928126,26.6894148 L21.9094055,26.6894148 C21.9094055,24.8372148 20.6699834,23.2644729 18.9832296,22.7558213 Z M18.9832296,22.7558213 C19.5397824,22.3767826 19.9193653,21.7388342 19.9193653,21.0066794 C19.9193653,19.8423761 18.965501,18.8873503 17.7966769,18.8873503 C16.6281693,18.8873503 15.6828528,19.8423761 15.6828528,21.0066794 C15.6828528,21.7388342 16.0538879,22.3767826 16.6189884,22.7558213 C14.9233704,23.2644729 13.6928126,24.8372148 13.6928126,26.6894148 L21.9094055,26.6894148 C21.9094055,24.8372148 20.6699834,23.2644729 18.9832296,22.7558213 Z M18.9832296,22.7558213 C19.5397824,22.3767826 19.9193653,21.7388342 19.9193653,21.0066794 C19.9193653,19.8423761 18.965501,18.8873503 17.7966769,18.8873503 C16.6281693,18.8873503 15.6828528,19.8423761 15.6828528,21.0066794 C15.6828528,21.7388342 16.0538879,22.3767826 16.6189884,22.7558213 C14.9233704,23.2644729 13.6928126,24.8372148 13.6928126,26.6894148 L21.9094055,26.6894148 C21.9094055,24.8372148 20.6699834,23.2644729 18.9832296,22.7558213 Z M18.9832296,22.7558213 C19.5397824,22.3767826 19.9193653,21.7388342 19.9193653,21.0066794 C19.9193653,19.8423761 18.965501,18.8873503 17.7966769,18.8873503 C16.6281693,18.8873503 15.6828528,19.8423761 15.6828528,21.0066794 C15.6828528,21.7388342 16.0538879,22.3767826 16.6189884,22.7558213 C14.9233704,23.2644729 13.6928126,24.8372148 13.6928126,26.6894148 L21.9094055,26.6894148 C21.9094055,24.8372148 20.6699834,23.2644729 18.9832296,22.7558213 Z M18.9832296,22.7558213 C19.5397824,22.3767826 19.9193653,21.7388342 19.9193653,21.0066794 C19.9193653,19.8423761 18.965501,18.8873503 17.7966769,18.8873503 C16.6281693,18.8873503 15.6828528,19.8423761 15.6828528,21.0066794 C15.6828528,21.7388342 16.0538879,22.3767826 16.6189884,22.7558213 C14.9233704,23.2644729 13.6928126,24.8372148 13.6928126,26.6894148 L21.9094055,26.6894148 C21.9094055,24.8372148 20.6699834,23.2644729 18.9832296,22.7558213 Z M18.9832296,22.7558213 C19.5397824,22.3767826 19.9193653,21.7388342 19.9193653,21.0066794 C19.9193653,19.8423761 18.965501,18.8873503 17.7966769,18.8873503 C16.6281693,18.8873503 15.6828528,19.8423761 15.6828528,21.0066794 C15.6828528,21.7388342 16.0538879,22.3767826 16.6189884,22.7558213 C14.9233704,23.2644729 13.6928126,24.8372148 13.6928126,26.6894148 L21.9094055,26.6894148 C21.9094055,24.8372148 20.6699834,23.2644729 18.9832296,22.7558213 Z" id="Fill-3" fill="#EDF0F3"></path>
                    <path d="M46.6659995,39.4365594 L46.6659995,45.9244755 C46.6659995,46.5067852 46.2832508,47.0005787 45.7561402,47.1681271 L4.79885879,47.1681271 C3.48852211,47.1681271 2.37858241,46.3243787 2.01989397,45.1720884 C2.0081804,45.0778819 2.00184874,44.9779852 2.00184874,44.8812497 L2.00184874,39.4365594 L46.6659995,39.4365594 Z" id="Fill-5" fill="#EDF0F3"></path>
                    <path d="M56.6581477,38.789791 L56.6581477,38.7983265 C56.6666955,38.789791 56.6666955,38.789791 56.6844241,38.789791 L56.6581477,38.789791 Z" id="Fill-7" fill="#EDF0F3"></path>
                    <path d="M21.9094688,26.6895097 L13.6928759,26.6895097 C13.6928759,24.8373097 14.9234337,23.2645677 16.6190518,22.7559161 C16.0539513,22.3765613 15.6829161,21.738929 15.6829161,21.0064581 C15.6829161,19.842471 16.6279161,18.887129 17.7967402,18.887129 C18.9655643,18.887129 19.9194286,19.842471 19.9194286,21.0064581 C19.9194286,21.738929 19.5398457,22.3765613 18.983293,22.7559161 C20.6700467,23.2645677 21.9094688,24.8373097 21.9094688,26.6895097" id="Fill-9" fill="#FFFFFF"></path>
                    <path d="M61.2600286,39.8542606 C61.2407171,39.8542606 61.2407171,39.8542606 61.2315362,39.8637445 L61.2315362,39.8542606 L61.2600286,39.8542606 Z" id="Fill-11" fill="#6D7C98"></path>
                    <g id="Group-15" transform="translate(0.000000, 0.315813)">
                        <mask id="mask-6" fill="white">
                            <use xlink:href="#path-5"></use>
                        </mask>
                        <g id="Clip-14"></g>
                        <path d="M61.0358879,37.3567148 L57.6326216,37.3567148 C57.6471844,37.2950697 57.6528829,37.2305794 57.6528829,37.1657729 L57.6528829,7.91751484 C57.6528829,6.48292129 56.4520839,5.31292774 54.9799734,5.31292774 L8.06966683,5.31292774 C6.59755628,5.31292774 5.3964407,6.48292129 5.3964407,7.91751484 L5.3964407,37.06556 C5.3964407,37.1686181 5.41416935,37.2656697 5.44962663,37.3567148 L1.89883266,37.3567148 L1.89883266,6.67986968 C1.89883266,4.00763097 4.15701859,1.83203097 6.93028492,1.83203097 L58.1359884,1.83203097 C59.7347322,1.83203097 61.0358879,3.08737935 61.0358879,4.62787613 L61.0358879,37.3567148 Z M55.9072447,37.3567148 L7.10978744,37.3567148 C7.14492814,37.2656697 7.16297337,37.1686181 7.16297337,37.06556 L7.16297337,7.91751484 C7.16297337,7.45280516 7.56914925,7.07661161 8.06966683,7.07661161 L54.9799734,7.07661161 C55.480491,7.07661161 55.8866668,7.45280516 55.8866668,7.91751484 L55.8866668,37.1657729 C55.8866668,37.2305794 55.8926819,37.2950697 55.9072447,37.3567148 Z M61.0358879,44.0564374 C61.0358879,45.5969342 59.7347322,46.8522826 58.1359884,46.8522826 L4.79873216,46.8522826 C3.48871206,46.8522826 2.37877236,46.0085342 2.01976734,44.8562439 C1.93998844,44.6033406 1.89883266,44.3358955 1.89883266,44.0564374 L1.89883266,39.1207148 L61.0358879,39.1207148 L61.0358879,44.0564374 Z M58.1359884,0.000379354829 L6.93028492,0.000379354829 C3.10881256,0.000379354829 -3.16582906e-05,2.99633419 -3.16582906e-05,6.67986968 L-3.16582906e-05,44.0564374 C-3.16582906e-05,46.6085471 2.15209899,48.6839342 4.79873216,48.6839342 L58.1359884,48.6839342 C60.7826216,48.6839342 62.9347523,46.6085471 62.9347523,44.0564374 L62.9347523,4.62787613 C62.9347523,2.07576645 60.7826216,0.000379354829 58.1359884,0.000379354829 Z" id="Fill-13" fill="#6D7C98" mask="url(#mask-6)"></path>
                    </g>
                    <path d="M13.6928442,26.6895097 C13.6928442,24.8373097 14.923402,23.2645677 16.6190201,22.7559161 C16.0539196,22.3765613 15.6828844,21.738929 15.6828844,21.0064581 C15.6828844,19.842471 16.6278844,18.887129 17.7967085,18.887129 C18.9655327,18.887129 19.919397,19.842471 19.919397,21.0064581 C19.919397,21.738929 19.5398141,22.3765613 18.9832613,22.7559161 C20.6700151,23.2645677 21.9094372,24.8373097 21.9094372,26.6895097 L13.6928442,26.6895097 Z M21.8917085,15.0006387 L13.701392,15.0006387 C12.1533015,15.0006387 10.8929849,16.2619935 10.8929849,17.8050194 L10.8929849,27.7713032 C10.8929849,29.3146452 12.1533015,30.5728387 13.701392,30.5728387 L21.8917085,30.5728387 C23.4404322,30.5728387 24.7007487,29.3146452 24.7007487,27.7713032 L24.7007487,17.8050194 C24.7007487,16.2619935 23.4404322,15.0006387 21.8917085,15.0006387 Z" id="Fill-16" fill="#6D7C98"></path>
                    <path d="M39.3382131,28.4825619 C39.3382131,28.9912135 38.9228563,29.40882 38.413791,29.40882 L31.3631729,29.40882 C30.8534744,29.40882 30.4355849,28.9912135 30.4355849,28.4825619 C30.4355849,27.9742265 30.8534744,27.55662 31.3631729,27.55662 L38.413791,27.55662 C38.9228563,27.55662 39.3382131,27.9742265 39.3382131,28.4825619" id="Fill-18" fill="#6D7C98"></path>
                    <path d="M45.5001513,24.6902465 C45.5001513,25.1988981 45.0847945,25.6133432 44.5757291,25.6133432 L31.3631412,25.6133432 C30.8534427,25.6133432 30.4355533,25.1988981 30.4355533,24.6902465 C30.4355533,24.181911 30.8534427,23.7643045 31.3631412,23.7643045 L44.5757291,23.7643045 C45.0847945,23.7643045 45.5001513,24.181911 45.5001513,24.6902465" id="Fill-20" fill="#6D7C98"></path>
                    <path d="M45.5001513,20.8948329 C45.5001513,21.4034845 45.0847945,21.821091 44.5757291,21.821091 L31.3631412,21.821091 C30.8534427,21.821091 30.4355533,21.4034845 30.4355533,20.8948329 C30.4355533,20.3773297 30.8534427,19.9717361 31.3631412,19.9717361 L44.5757291,19.9717361 C45.0847945,19.9717361 45.5001513,20.3773297 45.5001513,20.8948329" id="Fill-22" fill="#6D7C98"></path>
                    <path d="M49.6070548,14.3539968 C49.6070548,14.8623323 49.1891653,15.2799387 48.6794668,15.2799387 L31.2598085,15.2799387 C30.7415623,15.2799387 30.3325372,14.8623323 30.3325372,14.3539968 C30.3325372,13.8364935 30.7415623,13.4277387 31.2598085,13.4277387 L48.6794668,13.4277387 C49.1891653,13.4277387 49.6070548,13.8364935 49.6070548,14.3539968" id="Fill-24" fill="#6D7C98"></path>
                </g>
            </g>
        </g>
    </g>
</svg>