<?xml version="1.0" encoding="UTF-8"?>
<svg width="446px" height="275px" viewBox="0 0 446 275" version="1.1" xmlns="http://www.w3.org/2000/svg" xmlns:xlink="http://www.w3.org/1999/xlink">
    <!-- Generator: Sketch 53.2 (72643) - https://sketchapp.com -->
    <title>Group 3</title>
    <desc>Created with Sketch.</desc>
    <defs>
        <polygon id="path-1" points="0.000122648164 0.131176991 80.5935778 0.131176991 80.5935778 19.4258879 0.000122648164 19.4258879"></polygon>
    </defs>
    <g id="UI-Updates-2019-Modular-page-" stroke="none" stroke-width="1" fill="none" fill-rule="evenodd">
        <g id="delete_modal" transform="translate(-252.000000, -365.000000)">
            <g id="Group-3" transform="translate(252.000000, 365.000000)">
                <rect id="Rectangle" stroke="#979797" fill="#FFFFFF" fill-rule="nonzero" x="0.5" y="0.5" width="445" height="274" rx="12"></rect>
                <g id="Group-4" transform="translate(187.000000, 70.000000)">
                    <path d="M50.613109,95.7351348 C50.4470985,97.5081017 49.4161323,97.0644148 48.2153426,97.0644148 L12.6037454,97.0644148 C11.403249,97.0644148 10.3725761,95.7274185 10.205979,93.9544517 L1.42003499,27.1114647 C1.32295111,26.0762942 1.53119749,25.0301429 1.99109935,24.241597 C2.45129452,23.453348 3.11680301,23.0007577 3.81780138,23.0007577 L54.6548486,23.0007577 C55.355847,23.0007577 56.0216488,23.453348 56.4818439,24.2418938 C56.9417458,25.0304397 57.1496989,26.076591 57.052615,27.1114647 L50.613109,95.7351348 Z" id="Fill-3" fill="#FAFBFC"></path>
                    <g id="Group-7" transform="translate(0.000000, 0.165604)">
                        <mask id="mask-2" fill="white">
                            <use xlink:href="#path-1"></use>
                        </mask>
                        <g id="Clip-6"></g>
                        <path d="M52.382646,2.8026172 C52.3424632,2.8026172 52.3025738,2.8041011 52.2618044,2.80647534 L28.7956639,4.26040313 C28.3052584,4.29097152 27.8556222,4.50079535 27.5297606,4.85129315 C27.2006726,5.20505553 27.0417015,5.63954222 27.070152,6.10756511 L27.2373357,8.86821754 C27.258747,9.22197992 27.1399586,9.5698067 26.9082478,9.8348317 C26.676537,10.1001535 26.3497955,10.2616021 26.0004696,10.2829703 L4.36191104,11.6241215 C3.87414523,11.6543931 3.42656217,11.8757914 3.10128719,12.2476574 C2.77630552,12.6198201 2.61352138,13.0964497 2.64343846,13.5896989 L2.72937676,15.0121679 C2.75929384,15.5071978 2.97809919,15.9603817 3.34502344,16.288621 C3.70989456,16.6156731 4.18710141,16.782167 4.67252078,16.7513018 L76.2318425,12.317104 C76.7207815,12.2865356 77.1686579,12.0654341 77.4933462,11.6941617 C77.8177413,11.3228892 77.9799388,10.8459629 77.9500217,10.350933 L77.8640834,8.92876076 C77.8341663,8.43373085 77.6156543,7.98054699 77.2487301,7.65230773 C76.8815125,7.32347491 76.4098784,7.16024562 75.9218193,7.1896269 L55.7623967,8.43847934 C55.0379339,8.48240286 54.4093818,7.92356513 54.3647995,7.18725265 L54.1973225,4.426897 C54.1418879,3.50925162 53.3396994,2.8026172 52.382646,2.8026172 M4.55607879,19.4258879 C3.46615831,19.4258879 2.41495406,19.0222664 1.59634048,18.289812 C0.70088105,17.4882078 0.167653,16.3824036 0.0949134197,15.1751004 L0.00868182084,13.7529282 C-0.0643510639,12.5474057 0.331903664,11.3843228 1.12411982,10.4779551 C1.91633597,9.57188416 3.0091895,9.03174361 4.20059342,8.95814204 L24.521627,7.69860549 L24.4351021,6.27109118 C24.3623625,5.06556869 24.7788553,3.91138923 25.6074412,3.0204541 C26.3955511,2.17314571 27.470513,1.66683813 28.6343463,1.59472047 L52.1004868,0.1404959 C54.5668865,-0.0182816803 56.6854268,1.83778371 56.8323724,4.26337093 L56.918604,5.69088525 L75.7599151,4.52394423 C76.9527856,4.44529739 78.1016603,4.84980925 78.9977063,5.65141344 C79.8925791,6.45242408 80.4258072,7.55822831 80.4988401,8.76553148 L80.5850717,10.1877037 C80.6578113,11.3947101 80.2621431,12.5580898 79.4705136,13.4638639 C78.6788841,14.3693413 77.5863238,14.9088883 76.3928668,14.9827867 L4.83354509,19.4169845 C4.74056748,19.4229201 4.64846979,19.4258879 4.55607879,19.4258879" id="Fill-5" fill="#B9C1CF" mask="url(#mask-2)"></path>
                    </g>
                    <path d="M4.85240459,24.3549672 C4.23411816,24.3549672 3.64662873,24.625631 3.24098825,25.0978089 C2.83534777,25.5696899 2.65144568,26.1956 2.73738398,26.814981 L11.9277953,93.273934 C12.0744476,94.3352211 12.9839857,95.1353414 14.0428159,95.1353414 L68.2170846,95.1353414 C69.2759148,95.1353414 70.1854529,94.3352211 70.3321052,93.2742307 L79.5225165,26.814981 C79.6084548,26.1956 79.4245527,25.5696899 79.0189123,25.0975121 C78.6132718,24.625631 78.0260757,24.3549672 77.4074959,24.3549672 L4.85240459,24.3549672 Z M14.0428159,97.8063661 C11.6749666,97.8063661 9.64148468,96.0170763 9.31356996,93.644316 L0.122865363,27.1853631 C-0.0683693391,25.7996948 0.341670713,24.3997811 1.24915563,23.3447263 C2.15664056,22.289078 3.47005926,21.6839425 4.85240459,21.6839425 L77.4074959,21.6839425 C78.7904279,21.6839425 80.10326,22.289078 81.0107449,23.3447263 C81.9182298,24.3997811 82.3282698,25.7996948 82.1370351,27.1853631 L72.9460372,93.644316 C72.6184158,96.0170763 70.5852272,97.8063661 68.2170846,97.8063661 L14.0428159,97.8063661 Z" id="Fill-8" fill="#B9C1CF"></path>
                    <path d="M32.0584154,59.7283565 C29.8680154,59.7455698 28.0759234,57.9598414 28.0589117,55.7393295 C28.0421933,53.5185209 29.8067148,51.7051919 31.9971147,51.6879786 C34.1916209,51.6710621 35.9840063,53.4564937 36.0007246,55.6773024 C36.0177363,57.898111 34.2529216,59.7111433 32.0584154,59.7283565" id="Fill-10" fill="#B9C1CF"></path>
                    <path d="M50.4369209,51.5442775 C48.2424147,51.5614907 46.4775999,53.3748197 46.4946116,55.5953316 C46.51133,57.8161403 48.3037154,59.6015719 50.4982216,59.5846554 C52.6886215,59.5674421 54.4531429,57.7544099 54.4364245,55.5336013 C54.4194129,53.3127926 52.6273208,51.527361 50.4369209,51.5442775" id="Fill-12" fill="#B9C1CF"></path>
                    <path d="M41.570758,59.7924018 C45.2605318,59.7633173 48.4904038,62.5922292 49.0382971,66.4290078 C49.1330346,67.0926091 48.6784122,67.7078351 48.022876,67.8036952 C47.3670466,67.898665 46.7587325,67.4398423 46.6642884,66.776241 C46.2785926,64.0740544 43.8553087,62.0384368 41.2622014,62.2331248 C38.88174,62.4135673 36.9318499,64.3548088 36.6262264,66.8486555 C36.5443943,67.5140374 35.9460526,67.9856217 35.2881701,67.9037103 C34.6311674,67.8212053 34.1642262,67.2151794 34.2454716,66.5500943 C34.6915882,62.9133458 37.567148,60.0799821 41.0829922,59.8125828 C41.2463629,59.8004148 41.4088537,59.7935889 41.570758,59.7924018" id="Fill-14" fill="#B9C1CF"></path>
                    <path d="M10.6672007,55.6470308 C10.0134244,55.6470308 9.44558643,55.1552654 9.35964814,54.4812769 L6.3119184,30.4821198 C6.21894079,29.7505558 6.72958437,29.0813158 7.4525806,28.9875331 C8.17675005,28.8934537 8.83727236,29.4104454 8.92995667,30.1420094 L11.978273,54.1411664 C12.0709573,54.8727304 11.5600204,55.5419705 10.8370242,55.6357531 C10.7801231,55.6431726 10.723222,55.6470308 10.6672007,55.6470308" id="Fill-16" fill="#B9C1CF"></path>
                    <path d="M65.6357974,92.4840526 C65.5624713,92.4840526 65.4885585,92.4778202 65.4137657,92.4650586 C64.6951691,92.3418947 64.2112162,91.6521768 64.333231,90.9250645 L69.459025,60.3243215 C69.5810397,59.5966157 70.2629733,59.1072246 70.9812767,59.2306853 C71.69958,59.3538492 72.1835329,60.0432703 72.0615181,60.7706794 L66.9357241,91.3714224 C66.8266148,92.0231524 66.2678692,92.4840526 65.6357974,92.4840526" id="Fill-18" fill="#B9C1CF"></path>
                </g>
                <g id="Group-2" transform="translate(108.500000, 221.000000)">
                    <rect id="Rectangle-7" fill="#D0021B" x="0" y="0" width="114" height="34" rx="4"></rect>
                    <text id="Yes,-Remove" font-family="Lato-Semibold, Lato" font-size="14" font-weight="500" fill="#FFFFFF">
                        <tspan x="19" y="22">Yes, Remove</tspan>
                    </text>
                    <g id="cancel-btn" transform="translate(122.000000, 1.000000)">
                        <path d="M-0.5,4.0042577 C-0.5,1.5193603 1.51890691,-0.5 3.99793926,-0.5 L86.0020607,-0.5 C88.487599,-0.5 90.5,1.5142812 90.5,4.0042577 L90.5,27.9957423 C90.5,30.4806397 88.4810931,32.5 86.0020607,32.5 L3.99793926,32.5 C1.51240103,32.5 -0.5,30.4857188 -0.5,27.9957423 L-0.5,4.0042577 Z" id="Rectangle-7" stroke="#AFBCCA"></path>
                        <text id="No,-Cancel" font-family="Lato-Bold, Lato" font-size="13" font-weight="bold" fill="#657D98">
                            <tspan x="13" y="21">No, Cancel</tspan>
                        </text>
                    </g>
                </g>
                <path d="M422.114075,21.6140748 L422.114075,17.3149712 L424.693537,17.3149712 L424.693537,21.6140748 L428.992641,21.6140748 L428.992641,24.193537 L424.693537,24.193537 L424.693537,28.4926407 L422.114075,28.4926407 L422.114075,24.193537 L417.814971,24.193537 L417.814971,21.6140748 L422.114075,21.6140748 Z" id="Combined-Shape" fill="#C2C2C2" transform="translate(423.403806, 22.903806) rotate(-45.000000) translate(-423.403806, -22.903806) "></path>
                <text id="Remove-Widget" font-family="Lato-Bold, Lato" font-size="18" font-weight="bold" letter-spacing="-0.36" fill="#707070">
                    <tspan x="22.5" y="39.5">Remove Widget</tspan>
                </text>
                <text id="Are-you-sure-you-wan" font-family="Lato-Regular, Lato" font-size="15" font-weight="normal" line-spacing="20" letter-spacing="-0.3" fill="#707070">
                    <tspan x="38.11375" y="199">Are you sure you want to permanently remove this widget?</tspan>
                </text>
                <path d="M2,55.5 L445,55.5" id="Line" stroke="#ECECEC" stroke-linecap="square"></path>
            </g>
        </g>
    </g>
</svg>