<?xml version="1.0" encoding="UTF-8"?>
<svg width="515px" height="91px" viewBox="0 0 515 91" version="1.1" xmlns="http://www.w3.org/2000/svg" xmlns:xlink="http://www.w3.org/1999/xlink">
    <!-- Generator: Sketch 53.2 (72643) - https://sketchapp.com -->
    <title>file no featured image</title>
    <desc>Created with Sketch.</desc>
    <defs>
        <rect id="path-1" x="0" y="0" width="515" height="91" rx="4"></rect>
        <polygon id="path-3" points="0 0 131 0 131 99 0 99"></polygon>
    </defs>
    <g id="UI-Updates-2019-List" stroke="none" stroke-width="1" fill="none" fill-rule="evenodd">
        <g id="7---CMS-List---All-List-items-(no-featured-img)" transform="translate(-207.000000, -1035.000000)">
            <g id="file-no-featured-image" transform="translate(207.000000, 1035.000000)">
                <g id="LIST-ITEM-Copy">
                    <mask id="mask-2" fill="white">
                        <use xlink:href="#path-1"></use>
                    </mask>
                    <rect stroke="#E3E3E3" x="0.5" y="0.5" width="514" height="90" rx="4"></rect>
                    <g id="Group-3" mask="url(#mask-2)" fill="#6A6F75" fill-opacity="0.45482337">
                        <g transform="translate(501.000000, 44.000000) rotate(-270.000000) translate(-501.000000, -44.000000) translate(486.000000, 29.000000)" id="Combined-Shape">
                            <path d="M7.9047619,16.8095238 C6.85279095,16.8095238 6,15.9567329 6,14.9047619 C6,13.852791 6.85279095,13 7.9047619,13 C8.95673286,13 9.80952381,13.852791 9.80952381,14.9047619 C9.80952381,15.9567329 8.95673286,16.8095238 7.9047619,16.8095238 Z M15,16.8095238 C13.948029,16.8095238 13.0952381,15.9567329 13.0952381,14.9047619 C13.0952381,13.852791 13.948029,13 15,13 C16.051971,13 16.9047619,13.852791 16.9047619,14.9047619 C16.9047619,15.9567329 16.051971,16.8095238 15,16.8095238 Z M22.0952381,16.8095238 C21.0432671,16.8095238 20.1904762,15.9567329 20.1904762,14.9047619 C20.1904762,13.852791 21.0432671,13 22.0952381,13 C23.147209,13 24,13.852791 24,14.9047619 C24,15.9567329 23.147209,16.8095238 22.0952381,16.8095238 Z"></path>
                        </g>
                    </g>
                    <g id="Group-2" mask="url(#mask-2)">
                        <g transform="translate(-9.000000, -3.000000)">
                            <mask id="mask-4" fill="white">
                                <use xlink:href="#path-3"></use>
                            </mask>
                            <g id="Rectangle-5" stroke="none" fill="none"></g>
                        </g>
                    </g>
                    <text id="downloadtitle.pdf" mask="url(#mask-2)" font-family="Lato-Semibold, Lato" font-size="15" font-weight="500" letter-spacing="-0.3" fill="#484848">
                        <tspan x="138" y="34">downloadtitle.pdf </tspan>
                    </text>
                    <text id="Published" mask="url(#mask-2)" font-family="Lato-Regular, Lato" font-size="13" font-weight="normal" letter-spacing="-0.2785714" fill="#6A6F75">
                        <tspan x="154" y="75">Published</tspan>
                    </text>
                    <text id="Download" mask="url(#mask-2)" font-family="Lato-Regular, Lato" font-size="13" font-weight="normal" letter-spacing="-0.2785714" fill="#6A6F75">
                        <tspan x="139" y="54">Download</tspan>
                    </text>
                    <circle id="Oval" fill="#6EB81D" mask="url(#mask-2)" cx="143.5" cy="70.5" r="5.5"></circle>
                    <g id="stats" mask="url(#mask-2)">
                        <g transform="translate(365.000000, 8.000000)">
                            <g id="Group" stroke-width="1" fill="none" fill-rule="evenodd" transform="translate(15.000000, 15.000000)"></g>
                            <rect id="Rectangle-6" fill="none" x="0" y="0" width="96" height="77" rx="3"></rect>
                            <text id="Everyone" fill="none" font-family="Lato-Regular, Lato" font-size="13" font-weight="normal" letter-spacing="-0.26">
                                <tspan x="29" y="22" fill="#067BBE">Everyone</tspan>
                            </text>
                            <path d="M17.5,13.1096179 C13.1666667,13.1096179 11.0677083,17.5217391 11.0677083,17.5217391 C11.0677083,17.5217391 13.153125,21.9338603 17.5,21.9338603 C21.846875,21.9338603 23.9322917,17.5217391 23.9322917,17.5217391 C23.9322917,17.5217391 21.8333333,13.1096179 17.5,13.1096179 Z M17.5,20.9335968 C15.63125,20.9335968 14.128125,19.398946 14.128125,17.5217391 C14.128125,15.63083 15.6447917,14.1098814 17.5,14.1098814 C19.3552083,14.1098814 20.871875,15.6445323 20.871875,17.5217391 C20.871875,19.4126482 19.36875,20.9335968 17.5,20.9335968 Z" id="Shape" fill="#067BBE" fill-rule="nonzero"></path>
                            <path d="M19.084375,16.8914361 C18.55625,16.8914361 18.1229167,16.4529644 18.1229167,15.9185771 C18.1229167,15.7541502 18.1635417,15.5897233 18.2447917,15.4527009 C18.0145833,15.3704875 17.7572917,15.3156785 17.5,15.3156785 C16.2947917,15.3156785 15.30625,16.3022398 15.30625,17.5217391 C15.30625,18.7412385 16.28125,19.741502 17.5,19.741502 C18.7052083,19.741502 19.6802083,18.7549407 19.6802083,17.5217391 C19.6802083,17.2613966 19.6395833,17.001054 19.5447917,16.7681159 C19.4229167,16.8503294 19.2604167,16.8914361 19.084375,16.8914361 Z" id="Shape" fill="#067BBE" fill-rule="nonzero"></path>
                        </g>
                    </g>
                </g>
                <g id="file-1" opacity="0.75" transform="translate(37.000000, 12.000000)">
                    <path d="M38.2414865,14.1802941 L38.2414865,14.9729412 L34.5386486,14.9729412 C33.8908536,14.9799538 33.2676285,14.7206608 32.8098413,14.2536705 C32.3520541,13.7866802 32.0983526,13.1514172 32.1060811,12.4914706 L32.1060811,11.2717647 L35.3865541,11.2717647 C36.9625642,11.2735477 38.2397363,12.5746968 38.2414865,14.1802941 L38.2414865,14.1802941 Z" id="Path" fill="#EDF0F3"></path>
                    <path d="M34.5386486,16.9464706 C33.3773568,16.9525404 32.261951,16.4850207 31.4410812,15.6481325 C30.6202114,14.8112444 30.1621173,13.6745592 30.1689189,12.4914706 L30.1689189,11.2717647 L4.15060811,11.2717647 C3.28844813,11.2663298 2.47057765,11.6603261 1.92763514,12.3426471 L1.92763514,57.4070588 C1.92076731,58.0664477 2.17484896,58.70087 2.63254111,59.1671546 C3.09023326,59.6334392 3.71296469,59.8922909 4.3602027,59.8852941 L37.1554054,59.8852941 C37.8456769,59.3344257 38.2495493,58.4912421 38.2510135,57.5979412 L38.2510135,16.9464706 L34.5386486,16.9464706 Z M8.49810811,23.1420588 L15.4433108,23.1420588 C15.7724237,23.0870181 16.1023884,23.2351773 16.2845596,23.5197925 C16.4667307,23.8044077 16.4667307,24.1717688 16.2845596,24.456384 C16.1023884,24.7409991 15.7724237,24.8891584 15.4433108,24.8341176 L8.49493243,24.8341176 C8.17082995,24.8798838 7.85020678,24.7293748 7.67377405,24.448644 C7.49734132,24.1679133 7.49734132,23.8082632 7.67377405,23.5275324 C7.85020678,23.2468017 8.17082995,23.0962926 8.49493243,23.1420588 L8.49810811,23.1420588 Z M15.4464865,34.9897059 L8.49493243,34.9897059 C8.16762234,35.0403118 7.84159716,34.890712 7.66188897,34.6074558 C7.48218078,34.3241995 7.48218078,33.9599181 7.66188897,33.6766619 C7.84159716,33.3934056 8.16762234,33.2438058 8.49493243,33.2944118 L15.4433108,33.2944118 C15.7706209,33.2438058 16.0966461,33.3934056 16.2763543,33.6766619 C16.4560625,33.9599181 16.4560625,34.3241995 16.2763543,34.6074558 C16.0966461,34.890712 15.7706209,35.0403118 15.4433108,34.9897059 L15.4464865,34.9897059 Z M16.9962162,31.6864706 L8.49493243,31.6864706 C8.16762234,31.7370765 7.84159716,31.5874767 7.66188897,31.3042205 C7.48218078,31.0209642 7.48218078,30.6566828 7.66188897,30.3734266 C7.84159716,30.0901703 8.16762234,29.9405705 8.49493243,29.9911765 L16.9930405,29.9911765 C17.3203506,29.9405705 17.6463758,30.0901703 17.826084,30.3734266 C18.0057922,30.6566828 18.0057922,31.0209642 17.826084,31.3042205 C17.6463758,31.5874767 17.3203506,31.7370765 16.9930405,31.6864706 L16.9962162,31.6864706 Z M19.1239189,28.3864706 L8.49493243,28.3864706 C8.16762234,28.4370765 7.84159716,28.2874767 7.66188897,28.0042205 C7.48218078,27.7209642 7.48218078,27.3566828 7.66188897,27.0734266 C7.84159716,26.7901703 8.16762234,26.6405705 8.49493243,26.6911765 L19.1207432,26.6911765 C19.4480533,26.6405705 19.7740785,26.7901703 19.9537867,27.0734266 C20.1334949,27.3566828 20.1334949,27.7209642 19.9537867,28.0042205 C19.7740785,28.2874767 19.4480533,28.4370765 19.1207432,28.3864706 L19.1239189,28.3864706 Z M19.1239189,18.2308824 L8.49493243,18.2308824 C8.17082995,18.2766485 7.85020678,18.1261395 7.67377405,17.8454087 C7.49734132,17.564678 7.49734132,17.2050279 7.67377405,16.9242971 C7.85020678,16.6435664 8.17082995,16.4930574 8.49493243,16.5388235 L19.1207432,16.5388235 C19.4498561,16.4837828 19.7798208,16.6319421 19.961992,16.9165572 C20.1441632,17.2011724 20.1441632,17.5685335 19.961992,17.8531487 C19.7798208,18.1377638 19.4498561,18.2859231 19.1207432,18.2308824 L19.1239189,18.2308824 Z" id="Shape" fill="#EDF0F3" fill-rule="nonzero"></path>
                    <path d="M45.5106081,13.3035294 L33.5160811,1.33294118 C32.7029808,0.492640011 31.5969865,0.0135645453 30.4388514,-1.16106533e-15 L4.37290541,-1.16106533e-15 C3.21210385,-0.00345033227 2.09786939,0.464806326 1.27705525,1.30103 C0.456241099,2.13725368 -0.00338675121,3.27240617 -1.04820327e-15,4.455 L-1.04820327e-15,61.2408824 C-0.00338675121,62.4234762 0.456241099,63.5586287 1.27705525,64.3948524 C2.09786939,65.231076 3.21210385,65.6993327 4.37290541,65.6958824 L42.427027,65.6958824 C43.5883477,65.7010716 44.7035752,65.2333734 45.5247608,64.3967713 C46.3459464,63.5601692 46.805026,62.424005 46.7999324,61.2408824 L46.7999324,16.5 C46.7679511,15.3098081 46.3093045,14.1727392 45.5106081,13.3035294 Z M32.1060811,2.67882353 L32.1759459,2.72735294 L44.1450676,14.6979412 C44.2289068,14.789379 44.3063704,14.8866749 44.3768919,14.9891176 L34.5322973,14.9891176 C33.8845023,14.9961302 33.2612771,14.7368373 32.8034899,14.269847 C32.3457028,13.8028567 32.0920012,13.1675937 32.0997297,12.5076471 L32.1060811,2.67882353 Z M44.8595946,61.2376471 C44.8716489,61.9003768 44.6198595,62.5398535 44.1615936,63.0103796 C43.7033277,63.4809056 43.0776186,63.7424036 42.427027,63.7352941 L4.37290541,63.7352941 C3.7259292,63.7414015 3.10370688,63.4822642 2.64620598,63.0161744 C2.18870508,62.5500846 1.93434297,61.916181 1.94033784,61.2570588 L1.94023422,61.1341176 C2.66041326,61.6233088 3.5074221,61.8824071 4.37290541,61.8782353 L42.427027,61.8782353 C43.2925103,61.8824071 44.1395192,61.6233088 44.8600083,61.1341176 L44.8595946,61.2376471 Z M44.8595946,57.4038235 C44.8673396,58.0634797 44.6135398,58.6984234 44.1556552,59.1649041 C43.6977706,59.6313847 43.0745273,59.8899492 42.427027,59.8820588 L4.37290541,59.8820588 C3.7256674,59.8890556 3.10293596,59.6302039 2.64524381,59.1639193 C2.18755166,58.6976347 1.93347001,58.0632124 1.94033784,57.4038235 L1.94033784,4.455 C1.93347001,3.79561109 2.18755166,3.16118882 2.64524381,2.69490421 C3.10293596,2.22861959 3.7256674,1.96976794 4.37290541,1.97676471 L30.1689189,1.97676471 L30.1689189,12.4914706 C30.1621094,13.6751231 30.6206379,14.812305 31.4421975,15.6492881 C32.2637571,16.4862713 33.3799836,16.9534079 34.5418243,16.9464706 L44.8627703,16.9464706 L44.8595946,57.4038235 Z" id="Shape" fill="#6D7C98" fill-rule="nonzero"></path>
                    <path d="M8.49493243,17.3864706 L19.1207432,17.3864706" id="Path"></path>
                    <path d="M20.0893243,17.3864706 C20.0487934,17.88443 19.6263114,18.2588898 19.1366216,18.2308824 L8.49493243,18.2308824 C8.17082995,18.2766485 7.85020678,18.1261395 7.67377405,17.8454087 C7.49734132,17.564678 7.49734132,17.2050279 7.67377405,16.9242971 C7.85020678,16.6435664 8.17082995,16.4930574 8.49493243,16.5388235 L19.1207432,16.5388235 C19.6175626,16.501662 20.0504595,16.8805088 20.0893243,17.3864706 L20.0893243,17.3864706 Z" id="Path" fill="#6D7C98"></path>
                    <path d="M8.49493243,20.6864706 L16.9930405,20.6864706" id="Path"></path>
                    <path d="M16.4118919,23.9864706 C16.3729845,24.4857218 15.9500174,24.8620478 15.4591892,24.8341176 L8.49493243,24.8341176 C8.17082995,24.8798838 7.85020678,24.7293748 7.67377405,24.448644 C7.49734132,24.1679133 7.49734132,23.8082632 7.67377405,23.5275324 C7.85020678,23.2468017 8.17082995,23.0962926 8.49493243,23.1420588 L15.4433108,23.1420588 C15.9389865,23.1048407 16.371382,23.4818043 16.4118919,23.9864706 L16.4118919,23.9864706 Z" id="Path" fill="#6D7C98"></path>
                    <path d="M16.9930405,21.5341176 L8.49493243,21.5341176 C8.16762234,21.5847236 7.84159716,21.4351238 7.66188897,21.1518675 C7.48218078,20.8686113 7.48218078,20.5043299 7.66188897,20.2210736 C7.84159716,19.9378174 8.16762234,19.7882176 8.49493243,19.8388235 L16.9930405,19.8388235 C17.3203506,19.7882176 17.6463758,19.9378174 17.826084,20.2210736 C18.0057922,20.5043299 18.0057922,20.8686113 17.826084,21.1518675 C17.6463758,21.4351238 17.3203506,21.5847236 16.9930405,21.5341176 L16.9930405,21.5341176 Z" id="Path" fill="#6D7C98"></path>
                    <path d="M8.49493243,23.9864706 L15.4433108,23.9864706" id="Path"></path>
                    <path d="M8.49493243,27.5388235 L19.1207432,27.5388235" id="Path"></path>
                    <path d="M20.0893243,27.5388235 C20.0488024,28.0372455 19.6268607,28.4126591 19.1366216,28.3864706 L8.49493243,28.3864706 C8.16762234,28.4370765 7.84159716,28.2874767 7.66188897,28.0042205 C7.48218078,27.7209642 7.48218078,27.3566828 7.66188897,27.0734266 C7.84159716,26.7901703 8.16762234,26.6405705 8.49493243,26.6911765 L19.1207432,26.6911765 C19.6175626,26.6540149 20.0504595,27.0328617 20.0893243,27.5388235 L20.0893243,27.5388235 Z" id="Path" fill="#6D7C98"></path>
                    <path d="M8.49493243,30.8388235 L16.9930405,30.8388235" id="Path"></path>
                    <path d="M17.9616216,30.8388235 C17.9210898,31.3439217 17.4892732,31.7218231 16.9930405,31.6864706 L8.49493243,31.6864706 C8.16762234,31.7370765 7.84159716,31.5874767 7.66188897,31.3042205 C7.48218078,31.0209642 7.48218078,30.6566828 7.66188897,30.3734266 C7.84159716,30.0901703 8.16762234,29.9405705 8.49493243,29.9911765 L16.9930405,29.9911765 C17.4886909,29.9576095 17.9194451,30.3345811 17.9616216,30.8388235 Z" id="Path" fill="#6D7C98"></path>
                    <path d="M8.49493243,34.1420588 L15.4433108,34.1420588" id="Path"></path>
                    <path d="M16.4118919,34.1420588 C16.3713699,34.6404808 15.9494283,35.0158944 15.4591892,34.9897059 L8.49493243,34.9897059 C8.16762234,35.0403118 7.84159716,34.890712 7.66188897,34.6074558 C7.48218078,34.3241995 7.48218078,33.9599181 7.66188897,33.6766619 C7.84159716,33.3934056 8.16762234,33.2438058 8.49493243,33.2944118 L15.4433108,33.2944118 C15.9401301,33.2572502 16.3730271,33.636097 16.4118919,34.1420588 L16.4118919,34.1420588 Z" id="Path" fill="#6D7C98"></path>
                </g>
            </g>
        </g>
    </g>
</svg>