<?xml version="1.0" encoding="UTF-8"?>
<svg width="499px" height="154px" viewBox="0 0 499 154" version="1.1" xmlns="http://www.w3.org/2000/svg" xmlns:xlink="http://www.w3.org/1999/xlink">
    <!-- Generator: Sketch 52.6 (67491) - http://www.bohemiancoding.com/sketch -->
    <title>HTML - modular page - empty</title>
    <desc>Created with Sketch.</desc>
    <g id="UI-Updates-2019-Modular-page-" stroke="none" stroke-width="1" fill="none" fill-rule="evenodd">
        <g id="1---Modular-page-empty-items" transform="translate(-213.000000, -1377.000000)">
            <g id="HTML---modular-page---empty" transform="translate(213.000000, 1377.000000)">
                <g id="Group-2" transform="translate(0.000000, 2.000000)">
                    <rect id="Rectangle-8" stroke="#E4E4E4" fill="#FFFFFF" x="0.5" y="0.5" width="455" height="151"></rect>
                    <text id="Insert-HTML-here…" font-family="Lato-Regular, Lato" font-size="11" font-weight="normal" line-spacing="15" letter-spacing="-0.033" fill="#484848">
                        <tspan x="13" y="20">Insert HTML here…</tspan>
                    </text>
                </g>
                <g id="Group-6" transform="translate(470.000000, 0.000000)">
                    <g id="Group-3">
                        <g id="IMAGE-+-CAPTION">
                            <g id="arrow-btn">
                                <path d="M0.5,4.00187852 L0.5,24.9981215 C0.5,26.9318426 2.06802409,28.5 4.00187852,28.5 L24.9981215,28.5 C26.9318426,28.5 28.5,26.9319759 28.5,24.9981215 L28.5,4.00187852 C28.5,2.06815743 26.9319759,0.5 24.9981215,0.5 L4.00187852,0.5 C2.06815743,0.5 0.5,2.06802409 0.5,4.00187852 Z" id="Rectangle-7" stroke="#D2D9E1" fill="#FFFFFF"></path>
                                <path d="M19.9805691,16.1669568 L14.6537572,10.0581362 C14.581163,9.97488472 14.454825,9.96624529 14.3715735,10.0388395 C14.3647146,10.0448204 14.3582719,10.0512625 14.3522903,10.0581208 L9.02530902,16.1658721 C8.95270625,16.2491161 8.96133274,16.375455 9.04457681,16.4480577 C9.08100294,16.4798274 9.12770175,16.497331 9.17603575,16.497331 L12.4676435,16.497331 L12.4676435,19.7559341 C12.4676435,19.866391 12.5571866,19.9559341 12.6676435,19.9559341 L16.3382859,19.9559341 C16.4487429,19.9559341 16.5382859,19.866391 16.5382859,19.7559341 L16.5382859,16.497331 L19.8297639,16.4984003 C19.9402209,16.4984362 20.029793,16.4089222 20.0298289,16.2984653 C20.0298446,16.250116 20.0123451,16.2033977 19.9805691,16.1669568 Z" id="Shape" fill="#067BBE" fill-rule="nonzero"></path>
                            </g>
                            <g id="delete-btn" transform="translate(0.000000, 81.000000)">
                                <path d="M0.5,4.00187852 L0.5,24.9981215 C0.5,26.9318426 2.06802409,28.5 4.00187852,28.5 L24.9981215,28.5 C26.9318426,28.5 28.5,26.9319759 28.5,24.9981215 L28.5,4.00187852 C28.5,2.06815743 26.9319759,0.5 24.9981215,0.5 L4.00187852,0.5 C2.06815743,0.5 0.5,2.06802409 0.5,4.00187852 Z" id="Rectangle-7" stroke="#D2D9E1" fill="#FFFFFF"></path>
                                <g id="bin-copy-6" transform="translate(8.812500, 8.812500)" fill="#D72B36" fill-rule="nonzero" stroke="#D72B36" stroke-width="0.3">
                                    <path d="M10.787718,1.46208141 L7.80030132,1.46208141 L7.80030132,0.622375106 C7.80030132,0.347855736 7.52578195,0.121780961 7.17052158,0.121780961 L4.07006752,0.121780961 C3.71480716,0.121780961 3.44028779,0.347855736 3.44028779,0.622375106 L3.44028779,1.46208141 L0.452871122,1.46208141 C0.323685536,1.46208141 0.210648148,1.5751188 0.210648148,1.70430439 C0.210648148,1.83348997 0.323685536,1.94652736 0.452871122,1.94652736 L1.26028103,1.94652736 L1.89006076,9.68151431 C1.89006076,10.4404796 2.5036923,11.037963 3.26265761,11.037963 L7.9617833,11.037963 C8.72074861,11.037963 9.33438015,10.4243314 9.33438015,9.68151431 L9.98030808,1.94652736 L10.787718,1.94652736 C10.9169036,1.94652736 11.029941,1.83348997 11.029941,1.70430439 C11.029941,1.5751188 10.9169036,1.46208141 10.787718,1.46208141 Z M3.92473374,0.654671502 C3.94088194,0.638523304 3.98932653,0.622375106 4.07006752,0.622375106 L7.17052158,0.622375106 C7.25126258,0.622375106 7.29970717,0.654671502 7.31585537,0.654671502 L7.31585537,1.47822961 L3.92473374,1.47822961 L3.92473374,0.654671502 L3.92473374,0.654671502 Z M8.8660824,9.66536611 L8.8660824,9.68151431 C8.8660824,10.1659603 8.46237744,10.5696652 7.9779315,10.5696652 L3.26265761,10.5696652 C2.77821167,10.5696652 2.37450671,10.1659603 2.37450671,9.68151431 L1.74472698,1.94652736 L9.47971393,1.94652736 L8.8660824,9.66536611 Z" id="Shape"></path>
                                    <path d="M4.34458689,8.47039944 L4.34458689,8.47039944 C4.48992068,8.47039944 4.58680987,8.35736206 4.58680987,8.21202827 L4.40917969,4.27186791 C4.40917969,4.14268232 4.2961423,4.02964493 4.15080852,4.04579313 C4.02162293,4.04579313 3.90858554,4.15883052 3.92473374,4.3041643 L4.10236392,8.24432467 C4.10236392,8.37351026 4.21540131,8.47039944 4.34458689,8.47039944 Z" id="Shape"></path>
                                    <path d="M6.89600221,8.47039944 L6.89600221,8.47039944 C7.041336,8.47039944 7.13822519,8.37351026 7.15437339,8.24432467 L7.33200357,4.3041643 C7.33200357,4.17497872 7.23511438,4.06194133 7.10592879,4.04579313 C6.97674321,4.04579313 6.86370582,4.14268232 6.84755762,4.27186791 L6.66992744,8.21202827 C6.65377924,8.35736206 6.75066843,8.47039944 6.89600221,8.47039944 Z" id="Shape"></path>
                                </g>
                            </g>
                            <g id="arrow-btn" transform="translate(14.500000, 47.500000) scale(-1, -1) translate(-14.500000, -47.500000) translate(0.000000, 33.000000)">
                                <path d="M0.5,4.00187852 L0.5,24.9981215 C0.5,26.9318426 2.06802409,28.5 4.00187852,28.5 L24.9981215,28.5 C26.9318426,28.5 28.5,26.9319759 28.5,24.9981215 L28.5,4.00187852 C28.5,2.06815743 26.9319759,0.5 24.9981215,0.5 L4.00187852,0.5 C2.06815743,0.5 0.5,2.06802409 0.5,4.00187852 Z" id="Rectangle-7" stroke="#D2D9E1" fill="#FFFFFF"></path>
                                <path d="M19.9805691,15.1669568 L14.6537572,9.05813624 C14.581163,8.97488472 14.454825,8.96624529 14.3715735,9.03883953 C14.3647146,9.04482042 14.3582719,9.05126248 14.3522903,9.05812079 L9.02530902,15.1658721 C8.95270625,15.2491161 8.96133274,15.375455 9.04457681,15.4480577 C9.08100294,15.4798274 9.12770175,15.497331 9.17603575,15.497331 L12.4676435,15.497331 L12.4676435,18.7559341 C12.4676435,18.866391 12.5571866,18.9559341 12.6676435,18.9559341 L16.3382859,18.9559341 C16.4487429,18.9559341 16.5382859,18.866391 16.5382859,18.7559341 L16.5382859,15.497331 L19.8297639,15.4984003 C19.9402209,15.4984362 20.029793,15.4089222 20.0298289,15.2984653 C20.0298446,15.250116 20.0123451,15.2033977 19.9805691,15.1669568 Z" id="Shape" fill="#067BBE" fill-rule="nonzero"></path>
                            </g>
                        </g>
                    </g>
                </g>
            </g>
        </g>
    </g>
</svg>