<?xml version="1.0" encoding="UTF-8"?>
<svg width="515px" height="91px" viewBox="0 0 515 91" version="1.1" xmlns="http://www.w3.org/2000/svg" xmlns:xlink="http://www.w3.org/1999/xlink">
    <!-- Generator: Sketch 52.6 (67491) - http://www.bohemiancoding.com/sketch -->
    <title>Page no featured image</title>
    <desc>Created with Sketch.</desc>
    <defs>
        <rect id="path-1" x="0" y="0" width="515" height="91" rx="4"></rect>
        <polygon id="path-3" points="0 0 131 0 131 99 0 99"></polygon>
        <polygon id="path-5" points="0 0.0806562842 45.7018464 0.0806562842 45.7018464 66.6338798 0 66.6338798"></polygon>
    </defs>
    <g id="UI-Updates-2019-List" stroke="none" stroke-width="1" fill="none" fill-rule="evenodd">
        <g id="7---CMS-List---All-List-items-(no-featured-img)" transform="translate(-205.000000, -623.000000)">
            <g id="Page-no-featured-image" transform="translate(205.000000, 623.000000)">
                <g id="LIST-ITEM-Copy">
                    <mask id="mask-2" fill="white">
                        <use xlink:href="#path-1"></use>
                    </mask>
                    <rect stroke="#E3E3E3" x="0.5" y="0.5" width="514" height="90" rx="4"></rect>
                    <g id="Group-3" mask="url(#mask-2)" fill="#6A6F75" fill-opacity="0.45482337">
                        <g transform="translate(501.000000, 44.000000) rotate(-270.000000) translate(-501.000000, -44.000000) translate(486.000000, 29.000000)" id="Combined-Shape">
                            <path d="M7.9047619,16.8095238 C6.85279095,16.8095238 6,15.9567329 6,14.9047619 C6,13.852791 6.85279095,13 7.9047619,13 C8.95673286,13 9.80952381,13.852791 9.80952381,14.9047619 C9.80952381,15.9567329 8.95673286,16.8095238 7.9047619,16.8095238 Z M15,16.8095238 C13.948029,16.8095238 13.0952381,15.9567329 13.0952381,14.9047619 C13.0952381,13.852791 13.948029,13 15,13 C16.051971,13 16.9047619,13.852791 16.9047619,14.9047619 C16.9047619,15.9567329 16.051971,16.8095238 15,16.8095238 Z M22.0952381,16.8095238 C21.0432671,16.8095238 20.1904762,15.9567329 20.1904762,14.9047619 C20.1904762,13.852791 21.0432671,13 22.0952381,13 C23.147209,13 24,13.852791 24,14.9047619 C24,15.9567329 23.147209,16.8095238 22.0952381,16.8095238 Z"></path>
                        </g>
                    </g>
                    <g id="Group-2" mask="url(#mask-2)">
                        <g transform="translate(-9.000000, -3.000000)">
                            <mask id="mask-4" fill="white">
                                <use xlink:href="#path-3"></use>
                            </mask>
                            <g id="Rectangle-5" stroke="none" fill="none"></g>
                        </g>
                    </g>
                    <text id="This-is-a-page-title" mask="url(#mask-2)" font-family="Lato-Semibold, Lato" font-size="15" font-weight="500" letter-spacing="-0.3" fill="#484848">
                        <tspan x="138" y="34">This is a page title</tspan>
                    </text>
                    <text id="Published" mask="url(#mask-2)" font-family="Lato-Regular, Lato" font-size="13" font-weight="normal" letter-spacing="-0.2785714" fill="#6A6F75">
                        <tspan x="154" y="75">Published</tspan>
                    </text>
                    <text id="Page" mask="url(#mask-2)" font-family="Lato-Regular, Lato" font-size="13" font-weight="normal" letter-spacing="-0.2785714" fill="#6A6F75">
                        <tspan x="139" y="54">Page</tspan>
                    </text>
                    <circle id="Oval" fill="#6EB81D" mask="url(#mask-2)" cx="143.5" cy="70.5" r="5.5"></circle>
                    <g id="stats" mask="url(#mask-2)">
                        <g transform="translate(365.000000, 8.000000)">
                            <g id="Group" stroke="none" stroke-width="1" fill="none" fill-rule="evenodd" transform="translate(15.000000, 15.000000)"></g>
                            <rect id="Rectangle-6" stroke="none" fill="none" x="0" y="0" width="96" height="77" rx="3"></rect>
                            <text id="23" stroke="none" fill="none" font-family="Lato-Regular, Lato" font-size="13" font-weight="normal" letter-spacing="-0.2785714">
                                <tspan x="30" y="43" fill="#6A6F75">23</tspan>
                            </text>
                            <text id="5-Groups" stroke="none" fill="none" font-family="Lato-Regular, Lato" font-size="13" font-weight="normal" letter-spacing="-0.26">
                                <tspan x="29" y="22" fill="#067BBE">5 Groups</tspan>
                            </text>
                            <path d="M17.5,13.1096179 C13.1666667,13.1096179 11.0677083,17.5217391 11.0677083,17.5217391 C11.0677083,17.5217391 13.153125,21.9338603 17.5,21.9338603 C21.846875,21.9338603 23.9322917,17.5217391 23.9322917,17.5217391 C23.9322917,17.5217391 21.8333333,13.1096179 17.5,13.1096179 Z M17.5,20.9335968 C15.63125,20.9335968 14.128125,19.398946 14.128125,17.5217391 C14.128125,15.63083 15.6447917,14.1098814 17.5,14.1098814 C19.3552083,14.1098814 20.871875,15.6445323 20.871875,17.5217391 C20.871875,19.4126482 19.36875,20.9335968 17.5,20.9335968 Z" id="Shape" stroke="none" fill="#067BBE" fill-rule="nonzero"></path>
                            <path d="M19.084375,16.8914361 C18.55625,16.8914361 18.1229167,16.4529644 18.1229167,15.9185771 C18.1229167,15.7541502 18.1635417,15.5897233 18.2447917,15.4527009 C18.0145833,15.3704875 17.7572917,15.3156785 17.5,15.3156785 C16.2947917,15.3156785 15.30625,16.3022398 15.30625,17.5217391 C15.30625,18.7412385 16.28125,19.741502 17.5,19.741502 C18.7052083,19.741502 19.6802083,18.7549407 19.6802083,17.5217391 C19.6802083,17.2613966 19.6395833,17.001054 19.5447917,16.7681159 C19.4229167,16.8503294 19.2604167,16.8914361 19.084375,16.8914361 Z" id="Shape" stroke="none" fill="#067BBE" fill-rule="nonzero"></path>
                            <path d="M17.9889918,43.7327572 C17.9538355,43.7069447 17.9001637,43.6671323 17.8343043,43.6216323 C17.6763356,43.5100698 17.5558669,43.4308823 17.5211794,43.4072573 C17.2917263,43.2506324 17.0543045,43.0885387 16.8222733,42.9236012 C15.571883,42.0354764 14.6271176,41.2258829 13.8489928,40.3760394 C13.070868,39.5261958 12.5704775,38.7546648 12.2831339,37.9577587 C11.8319621,36.7062903 11.9203214,35.5429781 12.5458682,34.4999784 C13.0120399,33.7225411 13.7064929,33.2312287 14.5546958,33.0781037 C15.9002423,32.8374788 16.9994608,33.1533537 17.8216481,34.0187285 C17.8790699,34.0791035 17.9364918,34.1386035 17.9957886,34.1996347 C18.0829761,34.1121347 18.168523,34.0246347 18.2536011,33.9371348 C18.9607103,33.2266349 19.8942256,32.9181975 21.0262566,33.0203537 C22.3884438,33.14526 23.3163341,33.8839785 23.7848496,35.2181344 C24.1312558,36.2038217 24.0590683,37.2450714 23.5703966,38.3127899 C23.2033654,39.1149459 22.6544593,39.872477 21.8428189,40.6971643 C20.7600067,41.7974765 19.4571164,42.7179763 18.1692261,43.6089448 C18.0925855,43.6618823 18.0295386,43.704976 17.9889918,43.7327572 Z" id="Shape" stroke-opacity="0.963230299" stroke="#D1232F" stroke-width="0.2" fill-opacity="0.963230299" fill="#D1232F" fill-rule="nonzero"></path>
                            <text id="160" stroke="none" fill="none" font-family="Lato-Regular, Lato" font-size="13" font-weight="normal" letter-spacing="-0.2785714">
                                <tspan x="30" y="64" fill="#6A6F75">160</tspan>
                            </text>
                            <path d="M23.5683926,64.1918439 C23.52634,64.1918439 23.4772786,64.1852641 23.435226,64.1721046 L23.435226,64.1721046 L21.2064379,63.4483298 C21.0592538,63.4022714 20.9050609,63.4088512 20.7789031,63.4812286 C19.6995529,64.0273496 18.4800273,64.2510618 17.2605018,64.1260462 C14.5060561,63.8365363 12.3053031,61.7441691 12.0319612,59.164899 C11.8497332,57.4936372 12.4524872,55.8552742 13.6930391,54.6709155 C14.933591,53.4865567 16.6577478,52.8812178 18.430966,53.019393 C21.1223327,53.2299456 23.3791559,55.1907174 23.7996819,57.6910303 C23.9889186,58.8030116 23.8207082,59.9347322 23.3090682,60.9545966 C23.2459893,61.0796123 23.2319717,61.2046279 23.2670156,61.316484 L23.2670156,61.3230638 L23.9889186,63.6983611 C24.0239625,63.843116 23.9749011,63.9944508 23.855752,64.0931473 C23.7786556,64.1523653 23.6735241,64.1918439 23.5683926,64.1918439 Z" id="Shape" stroke="none" fill="#738BB2" fill-rule="nonzero"></path>
                        </g>
                    </g>
                </g>
                <g id="Group-20" opacity="0.749418713" transform="translate(39.000000, 12.000000)">
                    <path d="M33.1627907,3.77855638 L33.1627907,60.6190476 L2.13953488,60.6190476 L2.13953488,3.19047619 L32.5699427,3.19047619 C32.8976661,3.19047619 33.1627907,3.45184516 33.1627907,3.77855638" id="Fill-1" fill="#F2F4F7"></path>
                    <path d="M2.13953488,62.7460317 L33.1627907,62.7460317 L33.1627907,64.2863746 C33.1627907,64.6108298 32.8976661,64.8730159 32.5699427,64.8730159 L3.82602167,64.8730159 C2.89808571,64.8730159 2.13953488,64.126514 2.13953488,63.2052214 L2.13953488,62.7460317 Z" id="Fill-3" fill="#D2D9E1"></path>
                    <path d="M24.6046512,10.6347349 C24.6046512,11.230662 24.1340027,11.6984127 23.5584815,11.6984127 L5.3252394,11.6984127 C4.75008362,11.6984127 4.27906977,11.230662 4.27906977,10.6347349 C4.27906977,10.0499536 4.75008362,9.57142857 5.3252394,9.57142857 L23.5584815,9.57142857 C24.1340027,9.57142857 24.6046512,10.0499536 24.6046512,10.6347349" id="Fill-5" fill="#6D7C99"></path>
                    <path d="M36.372093,18.0791793 C36.372093,18.6643322 35.9020688,19.1428571 35.3273108,19.1428571 L5.32348704,19.1428571 C4.74909403,19.1428571 4.27906977,18.6643322 4.27906977,18.0791793 C4.27906977,17.494398 4.74909403,17.015873 5.32348704,17.015873 L35.3273108,17.015873 C35.9020688,17.015873 36.372093,17.494398 36.372093,18.0791793" id="Fill-7" fill="#6D7C99"></path>
                    <path d="M36.372093,24.4601317 C36.372093,25.0560588 35.9020688,25.5238095 35.3273108,25.5238095 L5.32348704,25.5238095 C4.74909403,25.5238095 4.27906977,25.0560588 4.27906977,24.4601317 C4.27906977,23.8753504 4.74909403,23.3968254 5.32348704,23.3968254 L35.3273108,23.3968254 C35.9020688,23.3968254 36.372093,23.8753504 36.372093,24.4601317" id="Fill-9" fill="#6D7C99"></path>
                    <path d="M23.5348837,29.7779635 C23.5348837,30.3627449 23.0711051,30.8412698 22.5039845,30.8412698 L5.30996895,30.8412698 C4.74320845,30.8412698 4.27906977,30.3627449 4.27906977,29.7779635 C4.27906977,29.1931822 4.74320845,28.7142857 5.30996895,28.7142857 L22.5039845,28.7142857 C23.0711051,28.7142857 23.5348837,29.1931822 23.5348837,29.7779635" id="Fill-11" fill="#6D7C99"></path>
                    <path d="M34.2325581,35.0954239 C34.2325581,35.6802052 33.7631568,36.1587302 33.1891607,36.1587302 L5.32246723,36.1587302 C4.74847107,36.1587302 4.27906977,35.6802052 4.27906977,35.0954239 C4.27906977,34.510271 4.74847107,34.031746 5.32246723,34.031746 L33.1891607,34.031746 C33.7631568,34.031746 34.2325581,34.510271 34.2325581,35.0954239" id="Fill-13" fill="#6D7C99"></path>
                    <path d="M17.1162791,44.3142227 L17.1162791,49.2842794 C17.1162791,50.2568603 16.3430995,51.047619 15.3815533,51.047619 L7.08356293,51.047619 C6.12238178,51.047619 5.34883721,50.2568603 5.34883721,49.2842794 L5.34883721,44.3142227 C5.34883721,43.3308146 6.12238178,42.5396825 7.08356293,42.5396825 L15.3815533,42.5396825 C16.3430995,42.5396825 17.1162791,43.3308146 17.1162791,44.3142227" id="Fill-15" fill="#6D7C99"></path>
                    <g id="Group-19">
                        <mask id="mask-6" fill="white">
                            <use xlink:href="#path-5"></use>
                        </mask>
                        <g id="Clip-18"></g>
                        <path d="M43.5269664,60.1646454 L2.1784864,60.1646454 L2.1784864,2.24442678 L33.1898464,2.24442678 L33.1898464,12.5287437 C33.1898464,13.1255197 33.6756064,13.6124596 34.2791264,13.6124596 L43.5269664,13.6124596 L43.5269664,60.1646454 Z M43.5269664,62.7897273 C43.5269664,63.7160115 42.7688864,64.4665579 41.8415264,64.4665579 L3.8639264,64.4665579 C2.9365664,64.4665579 2.1784864,63.7160115 2.1784864,62.7897273 L2.1784864,62.3280497 L43.5269664,62.3280497 L43.5269664,62.7897273 Z M35.3647264,3.72355246 L42.6695264,11.4450279 L35.3647264,11.4450279 L35.3647264,3.72355246 Z M45.1535264,10.9068311 L35.5045664,0.714044262 C35.3352864,0.534645355 35.1365664,0.387831148 34.9161344,0.285683607 C34.6839264,0.172186339 34.4300064,0.102623497 34.1687264,0.0876125683 C34.1208864,0.0806562842 34.0767264,0.0806562842 34.0288864,0.0806562842 L2.0312864,0.0806562842 C0.9125664,0.0806562842 -7.36e-05,0.984607104 -7.36e-05,2.09761257 L-7.36e-05,62.7897273 C-7.36e-05,64.9095634 1.7332064,66.6339896 3.8639264,66.6339896 L41.8415264,66.6339896 C43.9685664,66.6339896 45.7018464,64.9095634 45.7018464,62.7897273 L45.7018464,12.2903995 C45.7018464,11.7745361 45.5068064,11.2799077 45.1535264,10.9068311 Z" id="Fill-17" fill="#6D7C99" mask="url(#mask-6)"></path>
                    </g>
                </g>
            </g>
        </g>
    </g>
</svg>