<?xml version="1.0" encoding="UTF-8"?>
<svg width="498px" height="110px" viewBox="0 0 498 110" version="1.1" xmlns="http://www.w3.org/2000/svg" xmlns:xlink="http://www.w3.org/1999/xlink">
    <!-- Generator: Sketch 52.6 (67491) - http://www.bohemiancoding.com/sketch -->
    <title>existing list - Modular page (no featured img)</title>
    <desc>Created with Sketch.</desc>
    <defs>
        <rect id="path-1" x="0" y="0" width="455" height="80" rx="3"></rect>
        <polygon id="path-3" points="3.65671642e-05 0.0945032967 48.8098507 0.0945032967 48.8098507 61.6483516 3.65671642e-05 61.6483516"></polygon>
    </defs>
    <g id="UI-Updates-2019-Modular-page-" stroke="none" stroke-width="1" fill="none" fill-rule="evenodd">
        <g id="7---Modular-page----all-items-(no-featured-imgs-on-existing)" transform="translate(-213.000000, -1884.000000)">
            <g id="existing-list---Modular-page-(no-featured-img)" transform="translate(214.000000, 1884.000000)">
                <g id="Group-5">
                    <g id="Group-2">
                        <g id="Group-4">
                            <g id="DOWNLOAD" transform="translate(0.000000, 1.000000)">
                                <mask id="mask-2" fill="white">
                                    <use xlink:href="#path-1"></use>
                                </mask>
                                <rect stroke="#E4E4E4" x="-0.5" y="-0.5" width="456" height="81" rx="3"></rect>
                                <rect id="Rectangle-9" mask="url(#mask-2)" x="0" y="0" width="81" height="81"></rect>
                                <text id="Existing-List" mask="url(#mask-2)" font-family="Lato-Bold, Lato" font-size="15" font-weight="bold" line-spacing="21" letter-spacing="-0.33" fill="#484848">
                                    <tspan x="92" y="33">Rotas</tspan>
                                </text>
                                <text id="Set-featured-image" mask="url(#mask-2)" font-family="Lato-Regular, Lato" font-size="15" font-weight="normal" letter-spacing="-0.3" fill="#067BBE">
                                    <tspan x="91" y="56">Set featured image</tspan>
                                </text>
                            </g>
                            <g id="DOWNLOAD" transform="translate(468.000000, 0.000000)">
                                <g id="arrow-btn">
                                    <path d="M0.5,4.00187852 L0.5,24.9981215 C0.5,26.9318426 2.06802409,28.5 4.00187852,28.5 L24.9981215,28.5 C26.9318426,28.5 28.5,26.9319759 28.5,24.9981215 L28.5,4.00187852 C28.5,2.06815743 26.9319759,0.5 24.9981215,0.5 L4.00187852,0.5 C2.06815743,0.5 0.5,2.06802409 0.5,4.00187852 Z" id="Rectangle-7" stroke="#D2D9E1" fill="#FFFFFF"></path>
                                    <path d="M19.9805691,16.1669568 L14.6537572,10.0581362 C14.581163,9.97488472 14.454825,9.96624529 14.3715735,10.0388395 C14.3647146,10.0448204 14.3582719,10.0512625 14.3522903,10.0581208 L9.02530902,16.1658721 C8.95270625,16.2491161 8.96133274,16.375455 9.04457681,16.4480577 C9.08100294,16.4798274 9.12770175,16.497331 9.17603575,16.497331 L12.4676435,16.497331 L12.4676435,19.7559341 C12.4676435,19.866391 12.5571866,19.9559341 12.6676435,19.9559341 L16.3382859,19.9559341 C16.4487429,19.9559341 16.5382859,19.866391 16.5382859,19.7559341 L16.5382859,16.497331 L19.8297639,16.4984003 C19.9402209,16.4984362 20.029793,16.4089222 20.0298289,16.2984653 C20.0298446,16.250116 20.0123451,16.2033977 19.9805691,16.1669568 Z" id="Shape" fill="#067BBE" fill-rule="nonzero"></path>
                                </g>
                                <g id="delete-btn" transform="translate(0.000000, 81.000000)">
                                    <path d="M0.5,4.00187852 L0.5,24.9981215 C0.5,26.9318426 2.06802409,28.5 4.00187852,28.5 L24.9981215,28.5 C26.9318426,28.5 28.5,26.9319759 28.5,24.9981215 L28.5,4.00187852 C28.5,2.06815743 26.9319759,0.5 24.9981215,0.5 L4.00187852,0.5 C2.06815743,0.5 0.5,2.06802409 0.5,4.00187852 Z" id="Rectangle-7" stroke="#D2D9E1" fill="#FFFFFF"></path>
                                    <g id="bin-copy-5" transform="translate(8.812500, 8.812500)" fill="#D72B36" fill-rule="nonzero" stroke="#D72B36" stroke-width="0.3">
                                        <path d="M10.787718,1.46208141 L7.80030132,1.46208141 L7.80030132,0.622375106 C7.80030132,0.347855736 7.52578195,0.121780961 7.17052158,0.121780961 L4.07006752,0.121780961 C3.71480716,0.121780961 3.44028779,0.347855736 3.44028779,0.622375106 L3.44028779,1.46208141 L0.452871122,1.46208141 C0.323685536,1.46208141 0.210648148,1.5751188 0.210648148,1.70430439 C0.210648148,1.83348997 0.323685536,1.94652736 0.452871122,1.94652736 L1.26028103,1.94652736 L1.89006076,9.68151431 C1.89006076,10.4404796 2.5036923,11.037963 3.26265761,11.037963 L7.9617833,11.037963 C8.72074861,11.037963 9.33438015,10.4243314 9.33438015,9.68151431 L9.98030808,1.94652736 L10.787718,1.94652736 C10.9169036,1.94652736 11.029941,1.83348997 11.029941,1.70430439 C11.029941,1.5751188 10.9169036,1.46208141 10.787718,1.46208141 Z M3.92473374,0.654671502 C3.94088194,0.638523304 3.98932653,0.622375106 4.07006752,0.622375106 L7.17052158,0.622375106 C7.25126258,0.622375106 7.29970717,0.654671502 7.31585537,0.654671502 L7.31585537,1.47822961 L3.92473374,1.47822961 L3.92473374,0.654671502 L3.92473374,0.654671502 Z M8.8660824,9.66536611 L8.8660824,9.68151431 C8.8660824,10.1659603 8.46237744,10.5696652 7.9779315,10.5696652 L3.26265761,10.5696652 C2.77821167,10.5696652 2.37450671,10.1659603 2.37450671,9.68151431 L1.74472698,1.94652736 L9.47971393,1.94652736 L8.8660824,9.66536611 Z" id="Shape"></path>
                                        <path d="M4.34458689,8.47039944 L4.34458689,8.47039944 C4.48992068,8.47039944 4.58680987,8.35736206 4.58680987,8.21202827 L4.40917969,4.27186791 C4.40917969,4.14268232 4.2961423,4.02964493 4.15080852,4.04579313 C4.02162293,4.04579313 3.90858554,4.15883052 3.92473374,4.3041643 L4.10236392,8.24432467 C4.10236392,8.37351026 4.21540131,8.47039944 4.34458689,8.47039944 Z" id="Shape"></path>
                                        <path d="M6.89600221,8.47039944 L6.89600221,8.47039944 C7.041336,8.47039944 7.13822519,8.37351026 7.15437339,8.24432467 L7.33200357,4.3041643 C7.33200357,4.17497872 7.23511438,4.06194133 7.10592879,4.04579313 C6.97674321,4.04579313 6.86370582,4.14268232 6.84755762,4.27186791 L6.66992744,8.21202827 C6.65377924,8.35736206 6.75066843,8.47039944 6.89600221,8.47039944 Z" id="Shape"></path>
                                    </g>
                                </g>
                                <g id="arrow-btn" transform="translate(14.500000, 47.500000) scale(-1, -1) translate(-14.500000, -47.500000) translate(0.000000, 33.000000)">
                                    <path d="M0.5,4.00187852 L0.5,24.9981215 C0.5,26.9318426 2.06802409,28.5 4.00187852,28.5 L24.9981215,28.5 C26.9318426,28.5 28.5,26.9319759 28.5,24.9981215 L28.5,4.00187852 C28.5,2.06815743 26.9319759,0.5 24.9981215,0.5 L4.00187852,0.5 C2.06815743,0.5 0.5,2.06802409 0.5,4.00187852 Z" id="Rectangle-7" stroke="#D2D9E1" fill="#FFFFFF"></path>
                                    <path d="M19.9805691,15.1669568 L14.6537572,9.05813624 C14.581163,8.97488472 14.454825,8.96624529 14.3715735,9.03883953 C14.3647146,9.04482042 14.3582719,9.05126248 14.3522903,9.05812079 L9.02530902,15.1658721 C8.95270625,15.2491161 8.96133274,15.375455 9.04457681,15.4480577 C9.08100294,15.4798274 9.12770175,15.497331 9.17603575,15.497331 L12.4676435,15.497331 L12.4676435,18.7559341 C12.4676435,18.866391 12.5571866,18.9559341 12.6676435,18.9559341 L16.3382859,18.9559341 C16.4487429,18.9559341 16.5382859,18.866391 16.5382859,18.7559341 L16.5382859,15.497331 L19.8297639,15.4984003 C19.9402209,15.4984362 20.029793,15.4089222 20.0298289,15.2984653 C20.0298446,15.250116 20.0123451,15.2033977 19.9805691,15.1669568 Z" id="Shape" fill="#067BBE" fill-rule="nonzero"></path>
                                </g>
                            </g>
                        </g>
                    </g>
                    <g id="Group-20" opacity="0.746000744" transform="translate(19.000000, 7.000000)">
                        <polygon id="Fill-1" fill="#D2D9E1" points="27.8165687 13.8819758 27.8165687 14.3204044 20.6932851 14.3131516 20.6932851 13.8819758"></polygon>
                        <path d="M26.4892172,25.0110989 C26.4892172,25.3592308 26.774441,25.6420879 27.1218291,25.6420879 L34.1719784,25.6420879 L34.1719784,37.9173626 L26.7671276,37.9173626 C26.4160828,37.9173626 26.130859,38.1965934 26.130859,38.5447253 C26.130859,38.8928571 26.4160828,39.1760769 26.7671276,39.1760769 L34.1719784,39.1760769 L34.1719784,41.0759341 L26.7671276,41.0759341 C26.4160828,41.0759341 26.130859,41.3587912 26.130859,41.7069231 C26.130859,42.0550549 26.4160828,42.3342857 26.7671276,42.3342857 L34.1719784,42.3342857 L34.1719784,55.0628571 L6.27854552,55.0628571 L6.27854552,13.8821209 L18.5577993,13.8821209 L18.5577993,15.3721978 C18.5577993,15.956044 19.0331724,16.4310989 19.6255604,16.4310989 L28.8843664,16.441978 L28.8880231,16.441978 C29.1695903,16.441978 29.4401873,16.3299231 29.6413067,16.1301099 C29.8424261,15.9306593 29.9557843,15.6623077 29.9557843,15.3794505 L29.9557843,13.8821209 L33.4150381,13.8821209 C33.8319037,13.8821209 34.1719784,14.219011 34.1719784,14.6324176 L34.1719784,24.3801099 L27.1218291,24.3801099 C26.774441,24.3801099 26.4892172,24.662967 26.4892172,25.0110989" id="Fill-3" fill="#EDF0F3"></path>
                        <path d="M34.1719052,57.1841769 L34.1719052,59.1134077 L7.67533806,59.1134077 C6.78346493,59.1134077 6.05541269,58.3917593 6.05541269,57.5072868 L6.05541269,57.1841769 L34.1719052,57.1841769 Z" id="Fill-5" fill="#D2D9E1"></path>
                        <path d="M34.1719052,60.7924912 L34.1719052,63.7189747 C34.1719052,63.8313923 34.1463082,63.9365571 34.1027933,64.0308429 L1.69295,64.0308429 L1.69295,13.8820846 L4.14295,13.8820846 L4.14295,55.4109527 C4.14295,55.7050516 4.21974104,55.9839198 4.36235299,56.2305132 L4.36235299,57.5069967 C4.36235299,59.3165571 5.85063657,60.7924912 7.67533806,60.7924912 L34.1719052,60.7924912 Z" id="Fill-7" fill="#EDF0F3"></path>
                        <path d="M33.5357463,27.6512077 L27.1218657,27.6512077 C26.7744776,27.6512077 26.4892537,27.9304385 26.4892537,28.2782077 C26.4892537,28.6263396 26.7744776,28.9095593 27.1218657,28.9095593 L33.5357463,28.9095593 C33.886791,28.9095593 34.1720149,28.6263396 34.1720149,28.2782077 C34.1720149,27.9304385 33.886791,27.6512077 33.5357463,27.6512077 M33.5357463,27.6512077 L27.1218657,27.6512077 C26.7744776,27.6512077 26.4892537,27.9304385 26.4892537,28.2782077 C26.4892537,28.6263396 26.7744776,28.9095593 27.1218657,28.9095593 L33.5357463,28.9095593 C33.886791,28.9095593 34.1720149,28.6263396 34.1720149,28.2782077 C34.1720149,27.9304385 33.886791,27.6512077 33.5357463,27.6512077 M20.3240299,36.5829659 L12.005,36.5829659 C10.9884328,36.5829659 10.1656716,37.3989 10.1656716,38.4070319 L10.1656716,43.1720868 C10.1656716,44.1802187 10.9884328,44.9961527 12.005,44.9961527 L20.3240299,44.9961527 C21.340597,44.9961527 22.1633582,44.1802187 22.1633582,43.1720868 L22.1633582,38.4070319 C22.1633582,37.3989 21.340597,36.5829659 20.3240299,36.5829659 M20.309403,22.2551637 L12.0196269,22.2551637 C10.9957463,22.2551637 10.1656716,23.0783505 10.1656716,24.0933725 L10.1656716,28.8297791 C10.1656716,29.8451637 10.9957463,30.6679879 12.0196269,30.6679879 L20.309403,30.6679879 C21.3332836,30.6679879 22.1633582,29.8451637 22.1633582,28.8297791 L22.1633582,24.0933725 C22.1633582,23.0783505 21.3332836,22.2551637 20.309403,22.2551637 M33.5357463,27.6512077 L27.1218657,27.6512077 C26.7744776,27.6512077 26.4892537,27.9304385 26.4892537,28.2782077 C26.4892537,28.6263396 26.7744776,28.9095593 27.1218657,28.9095593 L33.5357463,28.9095593 C33.886791,28.9095593 34.1720149,28.6263396 34.1720149,28.2782077 C34.1720149,27.9304385 33.886791,27.6512077 33.5357463,27.6512077 M20.3240299,36.5829659 L12.005,36.5829659 C10.9884328,36.5829659 10.1656716,37.3989 10.1656716,38.4070319 L10.1656716,43.1720868 C10.1656716,44.1802187 10.9884328,44.9961527 12.005,44.9961527 L20.3240299,44.9961527 C21.340597,44.9961527 22.1633582,44.1802187 22.1633582,43.1720868 L22.1633582,38.4070319 C22.1633582,37.3989 21.340597,36.5829659 20.3240299,36.5829659 M20.309403,22.2551637 L12.0196269,22.2551637 C10.9957463,22.2551637 10.1656716,23.0783505 10.1656716,24.0933725 L10.1656716,28.8297791 C10.1656716,29.8451637 10.9957463,30.6679879 12.0196269,30.6679879 L20.309403,30.6679879 C21.3332836,30.6679879 22.1633582,29.8451637 22.1633582,28.8297791 L22.1633582,24.0933725 C22.1633582,23.0783505 21.3332836,22.2551637 20.309403,22.2551637 M24.5329104,0.000108791209 C21.998806,0.000108791209 19.8852239,1.78065824 19.3915672,4.15593297 L21.6038806,4.15593297 C22.0426866,2.96285604 23.198209,2.12153736 24.5329104,2.12153736 C25.8785821,2.12153736 27.0341045,2.96285604 27.4619403,4.15593297 L29.6852239,4.15593297 C29.180597,1.78065824 27.0670149,0.000108791209 24.5329104,0.000108791209 M20.3240299,36.5829659 L12.005,36.5829659 C10.9884328,36.5829659 10.1656716,37.3989 10.1656716,38.4070319 L10.1656716,43.1720868 C10.1656716,44.1802187 10.9884328,44.9961527 12.005,44.9961527 L20.3240299,44.9961527 C21.340597,44.9961527 22.1633582,44.1802187 22.1633582,43.1720868 L22.1633582,38.4070319 C22.1633582,37.3989 21.340597,36.5829659 20.3240299,36.5829659 M20.309403,22.2551637 L12.0196269,22.2551637 C10.9957463,22.2551637 10.1656716,23.0783505 10.1656716,24.0933725 L10.1656716,28.8297791 C10.1656716,29.8451637 10.9957463,30.6679879 12.0196269,30.6679879 L20.309403,30.6679879 C21.3332836,30.6679879 22.1633582,29.8451637 22.1633582,28.8297791 L22.1633582,24.0933725 C22.1633582,23.0783505 21.3332836,22.2551637 20.309403,22.2551637" id="Fill-9" fill="#6D7C99"></path>
                        <g id="Group-13" transform="translate(0.000000, 4.061538)">
                            <mask id="mask-4" fill="white">
                                <use xlink:href="#path-3"></use>
                            </mask>
                            <g id="Clip-12"></g>
                            <path d="M47.1168276,59.9691956 L1.69309627,59.9691956 L1.69309627,2.67249231 L14.2283201,2.67249231 L14.2283201,6.33549231 L6.04458881,6.28834945 C4.99511119,6.28834945 4.14309627,7.08216264 4.14309627,8.05439341 L4.14309627,51.3493055 C4.14309627,51.6434044 4.21988731,51.9226352 4.36249925,52.1688659 L4.36249925,53.4457121 C4.36249925,55.2549099 5.85078284,56.730844 7.67548433,56.730844 L41.4013799,56.730844 C43.2260813,56.730844 44.7143649,55.2549099 44.7143649,53.4457121 L44.7143649,52.1688659 C44.8569769,51.9226352 44.9337679,51.6434044 44.9337679,51.3493055 L44.9337679,8.47867912 C44.9337679,7.40164615 43.9866784,6.51318462 42.8165291,6.5091956 L34.848544,6.47655824 L34.848544,2.67249231 L47.1168276,2.67249231 L47.1168276,59.9691956 Z M43.0213052,53.1226022 L43.0213052,53.4457121 C43.0213052,54.3301846 42.2936187,55.051833 41.4013799,55.051833 L7.67548433,55.051833 C6.78324552,55.051833 6.05555896,54.3301846 6.05555896,53.4457121 L6.05555896,53.1226022 L43.0213052,53.1226022 Z M18.5578724,8.48556923 L18.5578724,11.3105143 C18.5578724,11.8947231 19.0332455,12.3694154 19.6256336,12.3694154 L28.8844396,12.3806571 L28.8880963,12.3806571 C29.1696634,12.3806571 29.4402604,12.2682396 29.6413799,12.0684264 C29.8424993,11.8689758 29.9558575,11.6006242 29.9558575,11.3181297 L29.9558575,8.57296484 L42.7982455,8.64186593 L42.7982455,51.0015363 L6.27861866,51.0015363 L6.27861866,8.40941538 L18.5578724,8.48556923 Z M16.1627231,2.00886593 L32.914141,2.00886593 L32.914141,6.46966813 L28.8880963,6.45117363 C28.6028724,6.45117363 28.3322754,6.56359121 28.131156,6.76304176 C27.9300366,6.96249231 27.8166784,7.23084396 27.8166784,7.51043736 L27.8166784,10.2588659 L20.6933948,10.2516132 L20.6933948,7.43029451 C20.6933948,6.85043736 20.2216784,6.37538242 19.632947,6.37139341 L16.1627231,6.3499978 L16.1627231,2.00886593 Z M47.9651858,0.993481319 L34.8448873,0.993481319 C34.8156336,0.489415385 34.3951112,0.0945032967 33.8795142,0.0945032967 L15.19735,0.0945032967 C14.681753,0.0945032967 14.2612306,0.489415385 14.2319769,0.993481319 L0.84473806,0.993481319 C0.376678358,0.993481319 3.65671642e-05,1.3669978 3.65671642e-05,1.83153626 L3.65671642e-05,60.8105143 C3.65671642e-05,61.2714264 0.376678358,61.6485692 0.84473806,61.6485692 L47.9651858,61.6485692 C48.4295888,61.6485692 48.8098873,61.2714264 48.8098873,60.8105143 L48.8098873,1.83153626 C48.8098873,1.3669978 48.4295888,0.993481319 47.9651858,0.993481319 Z" id="Fill-11" fill="#6D7C99" mask="url(#mask-4)"></path>
                        </g>
                        <path d="M37.821491,41.7069593 C37.821491,42.0550912 37.5395582,42.3339593 37.1888791,42.3339593 L26.7672373,42.3339593 C26.4161925,42.3339593 26.1309687,42.0550912 26.1309687,41.7069593 C26.1309687,41.3588275 26.4161925,41.0759703 26.7672373,41.0759703 L37.1888791,41.0759703 C37.5395582,41.0759703 37.821491,41.3588275 37.821491,41.7069593" id="Fill-14" fill="#6D7C99"></path>
                        <path d="M37.821491,38.5448341 C37.821491,38.8929659 37.5395582,39.1758231 37.1888791,39.1758231 L26.7672373,39.1758231 C26.4161925,39.1758231 26.1309687,38.8929659 26.1309687,38.5448341 C26.1309687,38.1967022 26.4161925,37.9174714 26.7672373,37.9174714 L37.1888791,37.9174714 C37.5395582,37.9174714 37.821491,38.1967022 37.821491,38.5448341" id="Fill-16" fill="#6D7C99"></path>
                        <path d="M38.1796664,25.0110989 C38.1796664,25.3592308 37.8944425,25.6420879 37.5433978,25.6420879 L27.121756,25.6420879 C26.7747336,25.6420879 26.489144,25.3592308 26.489144,25.0110989 C26.489144,24.662967 26.7747336,24.3801099 27.121756,24.3801099 L37.5433978,24.3801099 C37.8944425,24.3801099 38.1796664,24.662967 38.1796664,25.0110989" id="Fill-18" fill="#6D7C99"></path>
                    </g>
                </g>
            </g>
        </g>
    </g>
</svg>