<?xml version="1.0" encoding="UTF-8"?>
<svg width="515px" height="91px" viewBox="0 0 515 91" version="1.1" xmlns="http://www.w3.org/2000/svg" xmlns:xlink="http://www.w3.org/1999/xlink">
    <!-- Generator: Sketch 52.6 (67491) - http://www.bohemiancoding.com/sketch -->
    <title>rss no featured img copy</title>
    <desc>Created with Sketch.</desc>
    <defs>
        <rect id="path-1" x="0" y="0" width="515" height="91" rx="4"></rect>
        <polygon id="path-3" points="0 0 131 0 131 99 0 99"></polygon>
    </defs>
    <g id="rss-no-featured-img-copy" stroke="none" stroke-width="1" fill="none" fill-rule="evenodd">
        <g id="file-no-featured-image">
            <g id="LIST-ITEM-Copy">
                <mask id="mask-2" fill="white">
                    <use xlink:href="#path-1"></use>
                </mask>
                <rect stroke="#E3E3E3" x="0.5" y="0.5" width="514" height="90" rx="4"></rect>
                <g id="Group-3" mask="url(#mask-2)" fill="#6A6F75" fill-opacity="0.45482337">
                    <g transform="translate(501.000000, 44.000000) rotate(-270.000000) translate(-501.000000, -44.000000) translate(486.000000, 29.000000)" id="Combined-Shape">
                        <path d="M7.9047619,16.8095238 C6.85279095,16.8095238 6,15.9567329 6,14.9047619 C6,13.852791 6.85279095,13 7.9047619,13 C8.95673286,13 9.80952381,13.852791 9.80952381,14.9047619 C9.80952381,15.9567329 8.95673286,16.8095238 7.9047619,16.8095238 Z M15,16.8095238 C13.948029,16.8095238 13.0952381,15.9567329 13.0952381,14.9047619 C13.0952381,13.852791 13.948029,13 15,13 C16.051971,13 16.9047619,13.852791 16.9047619,14.9047619 C16.9047619,15.9567329 16.051971,16.8095238 15,16.8095238 Z M22.0952381,16.8095238 C21.0432671,16.8095238 20.1904762,15.9567329 20.1904762,14.9047619 C20.1904762,13.852791 21.0432671,13 22.0952381,13 C23.147209,13 24,13.852791 24,14.9047619 C24,15.9567329 23.147209,16.8095238 22.0952381,16.8095238 Z"></path>
                    </g>
                </g>
                <g id="Group-2" mask="url(#mask-2)">
                    <g transform="translate(-9.000000, -3.000000)">
                        <mask id="mask-4" fill="white">
                            <use xlink:href="#path-3"></use>
                        </mask>
                        <g id="Rectangle-5" stroke="none" fill="none"></g>
                    </g>
                </g>
                <text id="RSS-feed-title" mask="url(#mask-2)" font-family="Lato-Semibold, Lato" font-size="15" font-weight="500" letter-spacing="-0.3" fill="#484848">
                    <tspan x="138" y="34">RSS feed title </tspan>
                </text>
                <text id="Published" mask="url(#mask-2)" font-family="Lato-Regular, Lato" font-size="13" font-weight="normal" letter-spacing="-0.2785714" fill="#6A6F75">
                    <tspan x="154" y="75">Published</tspan>
                </text>
                <text id="RSS" mask="url(#mask-2)" font-family="Lato-Regular, Lato" font-size="13" font-weight="normal" letter-spacing="-0.2785714" fill="#6A6F75">
                    <tspan x="139" y="54">RSS</tspan>
                </text>
                <circle id="Oval" fill="#6EB81D" mask="url(#mask-2)" cx="143.5" cy="70.5" r="5.5"></circle>
                <g id="stats" mask="url(#mask-2)">
                    <g transform="translate(365.000000, 8.000000)">
                        <g id="Group" stroke-width="1" fill="none" fill-rule="evenodd" transform="translate(15.000000, 15.000000)"></g>
                        <rect id="Rectangle-6" fill="none" x="0" y="0" width="96" height="77" rx="3"></rect>
                        <text id="Everyone" fill="none" font-family="Lato-Regular, Lato" font-size="13" font-weight="normal" letter-spacing="-0.26">
                            <tspan x="29" y="22" fill="#067BBE">Everyone</tspan>
                        </text>
                        <path d="M17.5,13.1096179 C13.1666667,13.1096179 11.0677083,17.5217391 11.0677083,17.5217391 C11.0677083,17.5217391 13.153125,21.9338603 17.5,21.9338603 C21.846875,21.9338603 23.9322917,17.5217391 23.9322917,17.5217391 C23.9322917,17.5217391 21.8333333,13.1096179 17.5,13.1096179 Z M17.5,20.9335968 C15.63125,20.9335968 14.128125,19.398946 14.128125,17.5217391 C14.128125,15.63083 15.6447917,14.1098814 17.5,14.1098814 C19.3552083,14.1098814 20.871875,15.6445323 20.871875,17.5217391 C20.871875,19.4126482 19.36875,20.9335968 17.5,20.9335968 Z" id="Shape" fill="#067BBE" fill-rule="nonzero"></path>
                        <path d="M19.084375,16.8914361 C18.55625,16.8914361 18.1229167,16.4529644 18.1229167,15.9185771 C18.1229167,15.7541502 18.1635417,15.5897233 18.2447917,15.4527009 C18.0145833,15.3704875 17.7572917,15.3156785 17.5,15.3156785 C16.2947917,15.3156785 15.30625,16.3022398 15.30625,17.5217391 C15.30625,18.7412385 16.28125,19.741502 17.5,19.741502 C18.7052083,19.741502 19.6802083,18.7549407 19.6802083,17.5217391 C19.6802083,17.2613966 19.6395833,17.001054 19.5447917,16.7681159 C19.4229167,16.8503294 19.2604167,16.8914361 19.084375,16.8914361 Z" id="Shape" fill="#067BBE" fill-rule="nonzero"></path>
                    </g>
                </g>
            </g>
        </g>
        <g id="Group-17" opacity="0.845447359" transform="translate(32.000000, 21.000000)">
            <path d="M26.8836709,25.06206 C25.4278481,27.05406 24.0191139,28.90606 22.9105696,30.69206 L21.9687975,29.58406 L26.8836709,25.06206 Z" id="Fill-1" fill="#EDF0F3"></path>
            <path d="M43.4961196,46.13804 C43.5392842,46.46004 43.5196639,46.77604 43.4431449,47.07204 L36.1483348,46.26804 L30.4839677,39.60404 L43.9985943,41.42204 L43.4961196,46.13804 Z" id="Fill-3" fill="#EDF0F3"></path>
            <path d="M46.9825601,13.36802 L44.4986361,36.72002 C43.4234462,33.61402 42.3484525,30.50802 41.2730665,27.40202 C41.0103513,26.64002 39.7524968,26.44402 39.2602247,27.08802 C38.3378766,28.29202 37.4157247,29.49802 36.493769,30.70202 C35.9932563,31.35602 34.71225,31.14202 34.4707247,30.36402 C33.4879462,27.17402 32.5049715,23.98402 31.5218006,20.79402 L33.31725,19.14402 C33.5328766,18.98002 33.6702184,18.73402 33.6998449,18.46202 C33.7290791,18.19002 33.6449082,17.92002 33.470288,17.71202 L26.422693,9.50802 L44.3142057,11.31402 C45.6071804,11.13002 46.8020538,12.05002 46.9825601,13.36802" id="Fill-5" fill="#FAFBFC"></path>
            <path d="M25.8457595,18.54398 C25.8498797,18.52198 25.8498797,18.49998 25.8498797,18.47798 C25.8498797,18.46798 25.8498797,18.45998 25.8477215,18.44998 L25.8967722,18.49818 L25.8457595,18.54398 Z" id="Fill-7" fill="#EDF0F3"></path>
            <path d="M27.2917918,44.914 L4.35179177,44.914 C2.90165886,44.914 1.72267785,43.712 1.72267785,42.234 L1.72267785,11.134 C1.72267785,9.802 2.78020949,8.724 4.08691835,8.724 L13.6871082,8.724 C13.6890703,8.992 13.7989437,9.248 13.9912222,9.43 L23.4697665,18.478 L12.2940703,29.148 C12.0959057,29.334 11.9860323,29.598 11.9860323,29.872 C11.9860323,30.146 12.0959057,30.408 12.2940703,30.596 L14.9800829,33.16 C14.1638804,35.09 13.3476778,37.02 12.5314753,38.95 C12.2528677,39.61 12.8728677,40.294 13.749893,40.294 L22.4534373,40.294 L27.2917918,44.914 Z" id="Fill-9" fill="#FAFBFC"></path>
            <path d="M4.35181139,44.914 C2.90167848,44.914 1.72269747,43.712 1.72269747,42.234 L1.72269747,6.402 C1.72269747,3.84 3.76712785,1.756 6.2824443,1.756 L20.5149759,1.756 L15.0526975,6.97 L13.9912418,7.982 C13.7950392,8.168 13.6851658,8.432 13.6851658,8.706 C13.6851658,8.712 13.6851658,8.718 13.6871278,8.724 C13.6890899,8.992 13.7989633,9.248 13.9912418,9.43 L23.4695899,18.478 L12.2938937,29.148 C12.0959253,29.334 11.9860519,29.598 11.9860519,29.872 C11.9860519,30.146 12.0959253,30.408 12.2938937,30.596 L14.9801025,33.16 C14.1639,35.09 13.3476975,37.02 12.5312987,38.95 C12.2528873,39.61 12.8728873,40.294 13.7499127,40.294 L22.453457,40.294 L27.2918114,44.914 L4.35181139,44.914 Z M30.0600329,45.008 L14.3659886,29.872 L25.5416848,19.204 C25.7241532,19.032 25.8318684,18.796 25.8457987,18.544 C25.8497228,18.522 25.8497228,18.5 25.8497228,18.478 C25.8497228,18.468 25.8497228,18.46 25.8477608,18.45 C25.8416785,18.186 25.7337671,17.936 25.5416848,17.754 L16.0649063,8.706 L17.8839,6.97 L23.553957,1.556 L23.5049063,1.556 L25.1451595,0 L6.2824443,0 C2.81750759,0 3.92405063e-05,2.872 3.92405063e-05,6.402 L3.92405063e-05,42.234 C3.92405063e-05,44.68 1.95225443,46.67 4.35181139,46.67 L31.6259253,46.842 L32.0183304,46.842 L30.0600329,45.008 Z" id="Fill-11" fill="#6D7C98"></path>
            <path d="M43.8636266,21.69662 C43.6686013,23.20342 42.3122532,24.26362 40.8340633,24.06482 C39.3558734,23.86602 38.316,22.48322 38.5110253,20.97642 C38.7060506,19.46982 40.0623987,18.40942 41.5403924,18.60842 C43.0185823,18.80722 44.0586519,20.18982 43.8636266,21.69662" id="Fill-13" fill="#6D7C98"></path>
            <path d="M60.0831013,8.16802 L56.0982278,45.74802 C55.9412658,47.21802 54.6443671,48.28402 53.2022785,48.12402 L43.6393671,47.07202 L36.344557,46.26802 L30.6801899,39.60402 L44.1948165,41.42202 L44.8106962,41.50402 C45.5856962,41.60802 46.1958861,41.06002 45.9857532,40.45002 C45.5562658,39.20602 45.1246203,37.96202 44.6947405,36.72002 C43.6197468,33.61402 42.544557,30.50802 41.4693671,27.40202 C41.2064557,26.64002 39.9487975,26.44402 39.4563291,27.08802 C38.5341772,28.29202 37.6120253,29.49802 36.6900696,30.70202 C36.189557,31.35602 34.9083544,31.14202 34.6670253,30.36402 C33.6840506,27.17402 32.7010759,23.98402 31.7181013,20.79402 L33.5133544,19.14402 C33.7291772,18.98002 33.866519,18.73402 33.8959494,18.46202 C33.9253797,18.19002 33.8410127,17.92002 33.6663924,17.71202 L26.6187975,9.50802 L26.0694304,8.86802 L28.0608861,7.35202 L34.2648101,2.63002 L57.7522152,5.21802 C59.1943038,5.37602 60.2381013,6.69802 60.0831013,8.16802 M23.1067722,30.69202 L22.165,29.58402 L27.0798734,25.06202 C25.6240506,27.05402 24.2153165,28.90602 23.1067722,30.69202 M57.7188608,3.44802 L33.1501835,0.74002 L31.5982215,2.18602 L31.4493038,2.31802 L25.2453797,7.04202 L24.0858228,7.92602 C23.87,8.09002 23.732462,8.33802 23.7032278,8.60802 C23.6737975,8.88002 23.7581646,9.15202 23.9327848,9.35802 L31.5297468,18.20002 L20.1794304,28.64202 C19.9655696,28.80602 19.8260696,29.05202 19.7987975,29.32402 C19.7693671,29.59602 19.8517722,29.86602 20.0285506,30.07202 L33.6155759,46.07802 C33.791962,46.28402 34.2746203,46.96002 34.4296203,47.18402 C34.6650633,47.52602 34.4296203,47.18402 34.8867722,47.77602 L53.0178481,49.87002 C55.4034747,50.13402 57.5522848,48.37002 57.8110759,45.93802 L61.7957532,8.35602 C62.0529747,5.92602 60.3224684,3.73402 57.7188608,3.44802" id="Fill-15" fill="#6D7C98"></path>
        </g>
    </g>
</svg>