<?xml version="1.0" encoding="UTF-8"?>
<svg width="515px" height="91px" viewBox="0 0 515 91" version="1.1" xmlns="http://www.w3.org/2000/svg" xmlns:xlink="http://www.w3.org/1999/xlink">
    <!-- Generator: Sketch 52.6 (67491) - http://www.bohemiancoding.com/sketch -->
    <title>rss no featured img</title>
    <desc>Created with Sketch.</desc>
    <defs>
        <rect id="path-1" x="0" y="0" width="515" height="91" rx="4"></rect>
        <polygon id="path-3" points="0 0 131 0 131 99 0 99"></polygon>
        <polygon id="path-5" points="0 0.294801325 62.5575926 0.294801325 62.5575926 49.6688742 0 49.6688742"></polygon>
        <polygon id="path-7" points="0.543103448 0.499412515 0.817316379 0.499412515 0.817316379 1.03348643 0.543103448 1.03348643"></polygon>
        <polygon id="path-9" points="0.505086207 0.229598375 0.912413793 0.229598375 0.912413793 0.763672286 0.505086207 0.763672286"></polygon>
    </defs>
    <g id="CMS-UI-Updates" stroke="none" stroke-width="1" fill="none" fill-rule="evenodd">
        <g id="Plan" transform="translate(-668.000000, -2622.000000)">
            <g id="rss-no-featured-img" transform="translate(668.000000, 2622.000000)">
                <g id="file-no-featured-image">
                    <g id="LIST-ITEM-Copy">
                        <mask id="mask-2" fill="white">
                            <use xlink:href="#path-1"></use>
                        </mask>
                        <rect stroke="#E3E3E3" x="0.5" y="0.5" width="514" height="90" rx="4"></rect>
                        <g id="Group-3" mask="url(#mask-2)" fill="#6A6F75" fill-opacity="0.45482337">
                            <g transform="translate(501.000000, 44.000000) rotate(-270.000000) translate(-501.000000, -44.000000) translate(486.000000, 29.000000)" id="Combined-Shape">
                                <path d="M7.9047619,16.8095238 C6.85279095,16.8095238 6,15.9567329 6,14.9047619 C6,13.852791 6.85279095,13 7.9047619,13 C8.95673286,13 9.80952381,13.852791 9.80952381,14.9047619 C9.80952381,15.9567329 8.95673286,16.8095238 7.9047619,16.8095238 Z M15,16.8095238 C13.948029,16.8095238 13.0952381,15.9567329 13.0952381,14.9047619 C13.0952381,13.852791 13.948029,13 15,13 C16.051971,13 16.9047619,13.852791 16.9047619,14.9047619 C16.9047619,15.9567329 16.051971,16.8095238 15,16.8095238 Z M22.0952381,16.8095238 C21.0432671,16.8095238 20.1904762,15.9567329 20.1904762,14.9047619 C20.1904762,13.852791 21.0432671,13 22.0952381,13 C23.147209,13 24,13.852791 24,14.9047619 C24,15.9567329 23.147209,16.8095238 22.0952381,16.8095238 Z"></path>
                            </g>
                        </g>
                        <g id="Group-2" mask="url(#mask-2)">
                            <g transform="translate(-9.000000, -3.000000)">
                                <mask id="mask-4" fill="white">
                                    <use xlink:href="#path-3"></use>
                                </mask>
                                <g id="Rectangle-5" stroke="none" fill="none"></g>
                            </g>
                        </g>
                        <text id="RSS-feed-title" mask="url(#mask-2)" font-family="Lato-Semibold, Lato" font-size="15" font-weight="500" letter-spacing="-0.3" fill="#484848">
                            <tspan x="138" y="34">RSS feed title </tspan>
                        </text>
                        <text id="Published" mask="url(#mask-2)" font-family="Lato-Regular, Lato" font-size="13" font-weight="normal" letter-spacing="-0.2785714" fill="#6A6F75">
                            <tspan x="154" y="75">Published</tspan>
                        </text>
                        <text id="RSS" mask="url(#mask-2)" font-family="Lato-Regular, Lato" font-size="13" font-weight="normal" letter-spacing="-0.2785714" fill="#6A6F75">
                            <tspan x="139" y="54">RSS</tspan>
                        </text>
                        <circle id="Oval" fill="#6EB81D" mask="url(#mask-2)" cx="143.5" cy="70.5" r="5.5"></circle>
                        <g id="stats" mask="url(#mask-2)">
                            <g transform="translate(365.000000, 8.000000)">
                                <g id="Group" stroke-width="1" fill="none" fill-rule="evenodd" transform="translate(15.000000, 15.000000)"></g>
                                <rect id="Rectangle-6" fill="none" x="0" y="0" width="96" height="77" rx="3"></rect>
                                <text id="Everyone" fill="none" font-family="Lato-Regular, Lato" font-size="13" font-weight="normal" letter-spacing="-0.26">
                                    <tspan x="29" y="22" fill="#067BBE">Everyone</tspan>
                                </text>
                                <path d="M17.5,13.1096179 C13.1666667,13.1096179 11.0677083,17.5217391 11.0677083,17.5217391 C11.0677083,17.5217391 13.153125,21.9338603 17.5,21.9338603 C21.846875,21.9338603 23.9322917,17.5217391 23.9322917,17.5217391 C23.9322917,17.5217391 21.8333333,13.1096179 17.5,13.1096179 Z M17.5,20.9335968 C15.63125,20.9335968 14.128125,19.398946 14.128125,17.5217391 C14.128125,15.63083 15.6447917,14.1098814 17.5,14.1098814 C19.3552083,14.1098814 20.871875,15.6445323 20.871875,17.5217391 C20.871875,19.4126482 19.36875,20.9335968 17.5,20.9335968 Z" id="Shape" fill="#067BBE" fill-rule="nonzero"></path>
                                <path d="M19.084375,16.8914361 C18.55625,16.8914361 18.1229167,16.4529644 18.1229167,15.9185771 C18.1229167,15.7541502 18.1635417,15.5897233 18.2447917,15.4527009 C18.0145833,15.3704875 17.7572917,15.3156785 17.5,15.3156785 C16.2947917,15.3156785 15.30625,16.3022398 15.30625,17.5217391 C15.30625,18.7412385 16.28125,19.741502 17.5,19.741502 C18.7052083,19.741502 19.6802083,18.7549407 19.6802083,17.5217391 C19.6802083,17.2613966 19.6395833,17.001054 19.5447917,16.7681159 C19.4229167,16.8503294 19.2604167,16.8914361 19.084375,16.8914361 Z" id="Shape" fill="#067BBE" fill-rule="nonzero"></path>
                            </g>
                        </g>
                    </g>
                </g>
                <g id="Group-30" opacity="0.74781436" transform="translate(29.000000, 21.000000)">
                    <path d="M60.8820606,7.95023179 L60.8753585,10.6326821 L30.2834968,10.5661258 L30.3036032,2.36745033 L55.3159436,2.42407285 C57.6047202,2.42705298 59.5717947,3.80122517 60.4229649,5.75486755 L40.9231245,5.71182119 L40.9197734,5.71182119 C40.3668479,5.71182119 39.9144543,6.1555298 39.9144543,6.70188742 C39.9144543,7.25155629 40.3634968,7.69857616 40.9164223,7.69857616 L60.8787096,7.74162252 C60.8820606,7.81115894 60.8820606,7.88069536 60.8820606,7.95023179" id="Fill-1" fill="#EDF0F3"></path>
                    <path d="M60.8720745,12.6193046 L60.8050532,41.3706291 L30.2098404,41.3010927 L30.2265957,35.0696358 C30.2869149,35.1954636 30.3673404,35.3047351 30.4678723,35.4007616 C30.6957447,35.6358609 31.0241489,35.7679801 31.3860638,35.7381788 C32.0294681,35.6888411 32.5053191,35.1391722 32.4550532,34.4934768 C32.3545213,33.2580464 31.9859043,32.0825497 31.3357979,30.9967881 C31.0241489,30.4636755 30.6488298,29.9600331 30.24,29.5265894 L30.2467021,26.8143377 C30.7460106,27.162351 31.2419681,27.5726159 31.7245213,28.0527483 C32.5622872,28.8838742 34.5628723,31.1885099 34.9683511,34.5825497 C35.0387234,35.2484437 35.648617,35.7583775 36.3121277,35.7318874 C36.9856915,35.7116887 37.4615426,35.1487748 37.381117,34.4865232 C37.1465426,32.5825497 36.5098404,30.7613576 35.4576064,29.0530795 C34.8711702,28.1027483 34.1473404,27.1888411 33.3866489,26.4305629 C32.445,25.4967881 31.396117,24.7120199 30.2500532,24.0861921 L30.2567553,21.8146689 C31.9322872,22.5828808 33.4335638,23.6222848 34.7337766,24.9103642 C35.6419149,25.8146689 36.486383,26.9103642 37.1666489,28.0762583 C38.3830851,30.1325497 39.0935106,32.3643377 39.2845213,34.7050662 C39.3046277,34.9799007 39.425266,35.2351987 39.6129255,35.420298 C39.8508511,35.6553974 40.1792553,35.7911589 40.531117,35.7616887 C41.1745213,35.7116887 41.6604255,35.1587086 41.6101596,34.5166556 C41.3889894,31.8375166 40.5780319,29.2679801 39.1873404,26.9140066 C38.4031915,25.5858609 37.434734,24.3246026 36.3825,23.2911589 C34.6399468,21.559702 32.5790426,20.215 30.2634574,19.3077152 L30.2802128,12.5530795 L60.8720745,12.6193046 Z" id="Fill-3" fill="#EDF0F3"></path>
                    <path d="M60.6776793,43.3574172 C60.4431048,44.4435099 59.8834771,45.4137086 59.1026793,46.1587417 L31.6876261,46.0991391 C30.8666154,46.0961589 30.1997537,45.4368874 30.2031048,44.6256291 L30.2064559,43.2878808 L60.6776793,43.3574172 Z" id="Fill-5" fill="#EDF0F3"></path>
                    <g id="Group-9" transform="translate(0.335106, 0.036424)">
                        <mask id="mask-6" fill="white">
                            <use xlink:href="#path-5"></use>
                        </mask>
                        <g id="Clip-8"></g>
                        <path d="M60.5402521,10.5961258 L29.9483904,10.5299007 L2.08429468,10.4666556 L2.09099681,7.78155629 C2.09434787,6.30804636 2.67743298,4.92360927 3.73636915,3.88718543 C4.78860319,2.85076159 6.18599681,2.28155629 7.67051809,2.28155629 L7.68392234,2.28155629 L29.9684968,2.33089404 L54.9808372,2.38751656 C57.2696138,2.39082781 59.2366883,3.76466887 60.0878585,5.71864238 L40.5880181,5.67559603 L40.584667,5.67559603 C40.0317415,5.67559603 39.5793479,6.11897351 39.5793479,6.66566225 C39.5793479,7.215 40.0283904,7.66235099 40.581316,7.66235099 L60.5436032,7.70539735 C60.5469543,7.77460265 60.5469543,7.84413907 60.5469543,7.9136755 L60.5402521,10.5961258 Z M60.4698798,41.3342053 L29.874667,41.2646689 L2.01392234,41.2020861 L2.08094362,12.4534106 L29.9450394,12.5166556 L60.5369011,12.5828808 L60.4698798,41.3342053 Z M58.7675394,46.1222848 C57.7655713,47.0895033 56.3949862,47.6822185 54.8870074,47.6822185 L54.8736032,47.6822185 L7.58003936,47.572947 C4.8991883,47.5659934 2.6573266,45.6855298 2.12785851,43.1888411 L29.871316,43.2514238 L60.3425394,43.3209603 C60.1079649,44.407053 59.5483372,45.3772517 58.7675394,46.1222848 Z M62.4436564,6.62923841 C62.4403053,6.59943709 62.4369543,6.56963576 62.4302521,6.53983444 C62.4302521,6.5265894 62.4269011,6.51334437 62.42355,6.50009934 C61.7600394,3.03983444 58.6770606,0.410364238 54.9841883,0.400761589 L7.69062447,0.294801325 L7.67051809,0.294801325 C5.6498266,0.294801325 3.7497734,1.06930464 2.31551809,2.4765894 C0.881262766,3.89082781 0.0870606383,5.77460265 0.0803585106,7.77791391 L-6.70212766e-05,42.0431457 C-6.70212766e-05,42.0792384 -6.70212766e-05,42.1156623 0.00328404255,42.1524172 C-6.70212766e-05,42.1822185 0.00328404255,42.2116887 0.00328404255,42.2414901 C-6.70212766e-05,42.2547351 0.00328404255,42.2712914 0.00663510638,42.2881788 C0.00663510638,42.2881788 0.00328404255,42.2914901 0.00663510638,42.2944702 C0.0636031915,44.201755 0.84105,45.9901656 2.21163511,47.3510927 C3.64253936,48.7712914 5.54594362,49.5560596 7.5766883,49.559702 L54.8702521,49.6689735 L54.8870074,49.6689735 C58.9820074,49.6689735 62.3297202,46.4500993 62.4704649,42.433543 L62.4704649,42.4305629 C62.473816,42.3842053 62.473816,42.3375166 62.473816,42.2914901 C62.477167,42.2547351 62.477167,42.2219536 62.477167,42.1851987 L62.5575926,7.92062914 C62.5575926,7.48023179 62.5207309,7.04943709 62.4436564,6.62923841 Z" id="Fill-7" fill="#6D7C98" mask="url(#mask-6)"></path>
                    </g>
                    <g id="Group-12" transform="translate(0.000000, 41.758278)">
                        <mask id="mask-8" fill="white">
                            <use xlink:href="#path-7"></use>
                        </mask>
                        <g id="Clip-11"></g>
                        <path d="M0.548480172,0.694349493 C0.543049138,0.742416145 0.548480172,0.790482797 0.548480172,0.838549449 C0.543049138,0.811845753 0.543049138,0.785142058 0.543049138,0.758438362 C0.543049138,0.737075406 0.543049138,0.715712449 0.548480172,0.694349493" id="Fill-10" fill="#6D7C98" mask="url(#mask-8)"></path>
                    </g>
                    <g id="Group-15" transform="translate(62.329787, 42.089404)">
                        <mask id="mask-10" fill="white">
                            <use xlink:href="#path-9"></use>
                        </mask>
                        <g id="Clip-14"></g>
                        <path d="M0.782068966,0.453909418 C0.782068966,0.507316809 0.782068966,0.5607242 0.771206897,0.608790852 C0.776637931,0.534020504 0.776637931,0.459250157 0.776637931,0.384479809 C0.782068966,0.405842766 0.782068966,0.432546461 0.782068966,0.453909418" id="Fill-13" fill="#6D7C98" mask="url(#mask-10)"></path>
                    </g>
                    <path d="M41.6101596,34.5166225 C41.6604255,35.1586755 41.1745213,35.7116556 40.531117,35.7616556 C40.1792553,35.791457 39.8508511,35.6553642 39.6129255,35.4202649 C39.425266,35.2351656 39.3046277,34.9798675 39.2845213,34.7050331 C39.0935106,32.3643046 38.3830851,30.1325166 37.1666489,28.0762252 C36.486383,26.9103311 35.6419149,25.8146358 34.7337766,24.9103311 C33.4335638,23.6225828 31.9322872,22.5828477 30.2567553,21.8146358 C29.7742021,21.5927815 29.2815957,21.394106 28.772234,21.2186093 C27.4921277,20.7749007 26.1382979,20.4768874 24.8548404,20.370596 C24.201383,20.317947 23.728883,19.7646358 23.7825,19.1325166 C23.832766,18.496755 24.4057979,18.0298675 25.0458511,18.0828477 C26.5236702,18.1987417 28.0752128,18.5398013 29.5530319,19.0431126 C29.7943085,19.125894 30.028883,19.215298 30.2634574,19.3076821 C32.5790426,20.215298 34.6399468,21.5596689 36.3825,23.291457 C37.434734,24.3245695 38.4031915,25.5858278 39.1873404,26.9139735 C40.5780319,29.267947 41.3889894,31.8374834 41.6101596,34.5166225" id="Fill-16" fill="#6D7C98"></path>
                    <path d="M36.3121277,35.7318212 C35.648617,35.7583113 35.0387234,35.2483775 34.9683511,34.5824834 C34.5628723,31.1884437 32.5622872,28.8838079 31.7245213,28.0530132 C31.2419681,27.5725497 30.7460106,27.1622848 30.2467021,26.8142715 C28.1522872,25.344404 26.0645745,24.9367881 25.1430319,24.8275166 C24.8447872,24.7881126 24.5632979,24.652351 24.3689362,24.447053 C24.1109043,24.191755 23.9567553,23.8543377 23.9768617,23.4867881 C24.0103723,22.8311589 24.57,22.3642715 25.2435638,22.447053 C26.2857447,22.5728808 27.3915957,22.8510265 28.4471809,23.2516887 C29.0704787,23.4897682 29.6736702,23.768245 30.2500532,24.0861258 C31.396117,24.7119536 32.445,25.4967219 33.3866489,26.4304967 C34.1473404,27.1887748 34.8711702,28.1026821 35.4576064,29.0530132 C36.5098404,30.7612914 37.1465426,32.5824834 37.381117,34.486457 C37.4615426,35.1487086 36.9856915,35.7116225 36.3121277,35.7318212" id="Fill-18" fill="#6D7C98"></path>
                    <path d="M32.4549527,34.4933444 C32.5052186,35.1390397 32.0293676,35.6887086 31.3859633,35.7383775 C31.0240484,35.7681788 30.6956441,35.6357285 30.4677718,35.4006291 C30.3672399,35.3046026 30.2868144,35.1953311 30.2264952,35.0695033 L30.2264952,35.0658609 C30.1695271,34.9469868 30.1360165,34.8175166 30.1259633,34.6853974 C29.9785165,32.7118874 28.8626122,31.4204967 28.3968144,30.950298 C26.9826654,29.5562583 25.2870271,29.2748013 24.6268676,29.2218212 C23.9868144,29.1688411 23.5109633,28.6059272 23.5645803,27.9734768 C23.6181973,27.3410265 24.177825,26.8704967 24.8178782,26.9238079 C25.5014952,26.9767881 26.225325,27.1324172 26.8955378,27.3671854 C28.1052718,27.7880464 29.1608569,28.4469868 30.0455378,29.3277815 C30.109208,29.3906954 30.1762293,29.4569205 30.2398995,29.526457 C30.6487293,29.9602318 31.0240484,30.463543 31.3356973,30.9966556 C31.9858037,32.0827483 32.3544207,33.258245 32.4549527,34.4933444" id="Fill-20" fill="#6D7C98"></path>
                    <path d="M27.0129255,35.1258278 C26.1919149,35.9334437 24.8682447,35.9304636 24.0539362,35.1188742 C23.2396277,34.3112583 23.2429787,33.0033113 24.0606383,32.1854305 C24.8816489,31.3804636 26.2053191,31.384106 27.0196277,32.192053 C27.8339362,33.013245 27.8305851,34.3208609 27.0129255,35.1258278" id="Fill-22" fill="#6D7C98"></path>
                    <path d="M19.0770367,4.53387417 C18.1253346,4.53188742 17.3475527,5.29678808 17.345542,6.23718543 C17.3435314,7.17725166 18.117292,7.94612583 19.0689941,7.94844371 C20.0210314,7.95009934 20.7988133,7.1855298 20.8008239,6.24513245 C20.8031697,5.30440397 20.0290739,4.53619205 19.0770367,4.53387417" id="Fill-24" fill="#6D7C98"></path>
                    <path d="M13.5219447,4.52125828 C12.5702426,4.5189404 11.7924606,5.28417219 11.79045,6.22456954 C11.7884394,7.16463576 12.5622,7.93350993 13.5139021,7.93549669 C14.4656043,7.93748344 15.2433862,7.17291391 15.2457319,6.23218543 C15.2477426,5.29178808 14.4736468,4.52357616 13.5219447,4.52125828" id="Fill-26" fill="#6D7C98"></path>
                    <path d="M7.9666516,4.50864238 C7.01494947,4.5063245 6.23716755,5.27155629 6.23515691,6.21195364 C6.23281117,7.15201987 7.00690691,7.92056291 7.95860904,7.92288079 C8.91031117,7.92486755 9.68809309,7.16029801 9.69010372,6.21956954 C9.69211436,5.27917219 8.91835372,4.51096026 7.9666516,4.50864238" id="Fill-28" fill="#6D7C98"></path>
                </g>
            </g>
        </g>
    </g>
</svg>