<?xml version="1.0" encoding="UTF-8"?>
<svg width="502px" height="154px" viewBox="0 0 502 154" version="1.1" xmlns="http://www.w3.org/2000/svg" xmlns:xlink="http://www.w3.org/1999/xlink">
    <!-- Generator: Sketch 52.6 (67491) - http://www.bohemiancoding.com/sketch -->
    <title>upload file - Modular page</title>
    <desc>Created with Sketch.</desc>
    <defs>
        <polygon id="path-1" points="0 0.115205479 75.1595767 0.115205479 75.1595767 57.6027397 0 57.6027397"></polygon>
        <polygon id="path-3" points="0.0404529101 0.127119436 9.43928042 0.127119436 9.43928042 11.3767 0.0404529101 11.3767"></polygon>
        <polygon id="path-5" points="0 0.253691275 73.9084946 0.253691275 73.9084946 59.5972752 0 59.5972752"></polygon>
        <polygon id="path-7" points="0 0.253691275 73.9084946 0.253691275 73.9084946 59.5972752 0 59.5972752"></polygon>
        <polygon id="path-9" points="0.0002 0.1884 48.4882 0.1884 48.4882 67 0.0002 67"></polygon>
        <polygon id="path-11" points="0.8147 0.119905427 8.315 0.119905427 8.315 9.1205 0.8147 9.1205"></polygon>
    </defs>
    <g id="UI-Updates-2019-Modular-page-" stroke="none" stroke-width="1" fill="none" fill-rule="evenodd">
        <g id="1---Modular-page-empty-items" transform="translate(-211.000000, -1124.000000)">
            <g id="upload-file---Modular-page" transform="translate(211.000000, 1124.000000)">
                <g id="Group-5">
                    <g id="Group-4">
                        <g id="Group-6" transform="translate(473.000000, 0.000000)">
                            <g id="Group-3">
                                <g id="IMAGE-+-CAPTION">
                                    <g id="arrow-btn">
                                        <path d="M0.5,4.00187852 L0.5,24.9981215 C0.5,26.9318426 2.06802409,28.5 4.00187852,28.5 L24.9981215,28.5 C26.9318426,28.5 28.5,26.9319759 28.5,24.9981215 L28.5,4.00187852 C28.5,2.06815743 26.9319759,0.5 24.9981215,0.5 L4.00187852,0.5 C2.06815743,0.5 0.5,2.06802409 0.5,4.00187852 Z" id="Rectangle-7" stroke="#D2D9E1" fill="#FFFFFF"></path>
                                        <path d="M19.9805691,16.1669568 L14.6537572,10.0581362 C14.581163,9.97488472 14.454825,9.96624529 14.3715735,10.0388395 C14.3647146,10.0448204 14.3582719,10.0512625 14.3522903,10.0581208 L9.02530902,16.1658721 C8.95270625,16.2491161 8.96133274,16.375455 9.04457681,16.4480577 C9.08100294,16.4798274 9.12770175,16.497331 9.17603575,16.497331 L12.4676435,16.497331 L12.4676435,19.7559341 C12.4676435,19.866391 12.5571866,19.9559341 12.6676435,19.9559341 L16.3382859,19.9559341 C16.4487429,19.9559341 16.5382859,19.866391 16.5382859,19.7559341 L16.5382859,16.497331 L19.8297639,16.4984003 C19.9402209,16.4984362 20.029793,16.4089222 20.0298289,16.2984653 C20.0298446,16.250116 20.0123451,16.2033977 19.9805691,16.1669568 Z" id="Shape" fill="#067BBE" fill-rule="nonzero"></path>
                                    </g>
                                    <g id="delete-btn" transform="translate(0.000000, 81.000000)">
                                        <path d="M0.5,4.00187852 L0.5,24.9981215 C0.5,26.9318426 2.06802409,28.5 4.00187852,28.5 L24.9981215,28.5 C26.9318426,28.5 28.5,26.9319759 28.5,24.9981215 L28.5,4.00187852 C28.5,2.06815743 26.9319759,0.5 24.9981215,0.5 L4.00187852,0.5 C2.06815743,0.5 0.5,2.06802409 0.5,4.00187852 Z" id="Rectangle-7" stroke="#D2D9E1" fill="#FFFFFF"></path>
                                        <g id="bin-copy-6" transform="translate(8.812500, 8.812500)" fill="#D72B36" fill-rule="nonzero" stroke="#D72B36" stroke-width="0.3">
                                            <path d="M10.787718,1.46208141 L7.80030132,1.46208141 L7.80030132,0.622375106 C7.80030132,0.347855736 7.52578195,0.121780961 7.17052158,0.121780961 L4.07006752,0.121780961 C3.71480716,0.121780961 3.44028779,0.347855736 3.44028779,0.622375106 L3.44028779,1.46208141 L0.452871122,1.46208141 C0.323685536,1.46208141 0.210648148,1.5751188 0.210648148,1.70430439 C0.210648148,1.83348997 0.323685536,1.94652736 0.452871122,1.94652736 L1.26028103,1.94652736 L1.89006076,9.68151431 C1.89006076,10.4404796 2.5036923,11.037963 3.26265761,11.037963 L7.9617833,11.037963 C8.72074861,11.037963 9.33438015,10.4243314 9.33438015,9.68151431 L9.98030808,1.94652736 L10.787718,1.94652736 C10.9169036,1.94652736 11.029941,1.83348997 11.029941,1.70430439 C11.029941,1.5751188 10.9169036,1.46208141 10.787718,1.46208141 Z M3.92473374,0.654671502 C3.94088194,0.638523304 3.98932653,0.622375106 4.07006752,0.622375106 L7.17052158,0.622375106 C7.25126258,0.622375106 7.29970717,0.654671502 7.31585537,0.654671502 L7.31585537,1.47822961 L3.92473374,1.47822961 L3.92473374,0.654671502 L3.92473374,0.654671502 Z M8.8660824,9.66536611 L8.8660824,9.68151431 C8.8660824,10.1659603 8.46237744,10.5696652 7.9779315,10.5696652 L3.26265761,10.5696652 C2.77821167,10.5696652 2.37450671,10.1659603 2.37450671,9.68151431 L1.74472698,1.94652736 L9.47971393,1.94652736 L8.8660824,9.66536611 Z" id="Shape"></path>
                                            <path d="M4.34458689,8.47039944 L4.34458689,8.47039944 C4.48992068,8.47039944 4.58680987,8.35736206 4.58680987,8.21202827 L4.40917969,4.27186791 C4.40917969,4.14268232 4.2961423,4.02964493 4.15080852,4.04579313 C4.02162293,4.04579313 3.90858554,4.15883052 3.92473374,4.3041643 L4.10236392,8.24432467 C4.10236392,8.37351026 4.21540131,8.47039944 4.34458689,8.47039944 Z" id="Shape"></path>
                                            <path d="M6.89600221,8.47039944 L6.89600221,8.47039944 C7.041336,8.47039944 7.13822519,8.37351026 7.15437339,8.24432467 L7.33200357,4.3041643 C7.33200357,4.17497872 7.23511438,4.06194133 7.10592879,4.04579313 C6.97674321,4.04579313 6.86370582,4.14268232 6.84755762,4.27186791 L6.66992744,8.21202827 C6.65377924,8.35736206 6.75066843,8.47039944 6.89600221,8.47039944 Z" id="Shape"></path>
                                        </g>
                                    </g>
                                    <g id="arrow-btn" transform="translate(14.500000, 47.500000) scale(-1, -1) translate(-14.500000, -47.500000) translate(0.000000, 33.000000)">
                                        <path d="M0.5,4.00187852 L0.5,24.9981215 C0.5,26.9318426 2.06802409,28.5 4.00187852,28.5 L24.9981215,28.5 C26.9318426,28.5 28.5,26.9319759 28.5,24.9981215 L28.5,4.00187852 C28.5,2.06815743 26.9319759,0.5 24.9981215,0.5 L4.00187852,0.5 C2.06815743,0.5 0.5,2.06802409 0.5,4.00187852 Z" id="Rectangle-7" stroke="#D2D9E1" fill="#FFFFFF"></path>
                                        <path d="M19.9805691,15.1669568 L14.6537572,9.05813624 C14.581163,8.97488472 14.454825,8.96624529 14.3715735,9.03883953 C14.3647146,9.04482042 14.3582719,9.05126248 14.3522903,9.05812079 L9.02530902,15.1658721 C8.95270625,15.2491161 8.96133274,15.375455 9.04457681,15.4480577 C9.08100294,15.4798274 9.12770175,15.497331 9.17603575,15.497331 L12.4676435,15.497331 L12.4676435,18.7559341 C12.4676435,18.866391 12.5571866,18.9559341 12.6676435,18.9559341 L16.3382859,18.9559341 C16.4487429,18.9559341 16.5382859,18.866391 16.5382859,18.7559341 L16.5382859,15.497331 L19.8297639,15.4984003 C19.9402209,15.4984362 20.029793,15.4089222 20.0298289,15.2984653 C20.0298446,15.250116 20.0123451,15.2033977 19.9805691,15.1669568 Z" id="Shape" fill="#067BBE" fill-rule="nonzero"></path>
                                    </g>
                                </g>
                            </g>
                        </g>
                        <path d="M225.5,2.5 L225.5,153.5 L455.5,153.5 L455.5,2.5 L225.5,2.5 Z" id="Rectangle" stroke="#E4E4E4" fill="#FFFFFF" fill-rule="nonzero"></path>
                        <rect id="Rectangle" stroke="#E4E4E4" fill="#FFFFFF" fill-rule="nonzero" x="0.5" y="2.5" width="226" height="151"></rect>
                        <g id="Group-25" transform="translate(72.000000, 36.000000)">
                            <path d="M41.8925672,8.41782603 L41.8925672,12.1441274 L37.9075937,12.1441274 L29.7084402,7.11083973 C28.9323556,6.6420726 28.0513185,6.39577123 27.1465566,6.39577123 L4.8415619,6.39577123 C3.91669418,6.39577123 3.03605926,6.66630548 2.29616508,7.12275753 L2.29616508,5.1841274 C2.29616508,3.79768904 3.43817566,2.66946986 4.8415619,2.66946986 L27.1465566,2.66946986 C27.6254772,2.66946986 28.0879111,2.79699041 28.4940487,3.04289452 L36.9787048,8.25097671 C37.155636,8.35863425 37.3727788,8.41782603 37.5859005,8.41782603 L41.8925672,8.41782603 Z" id="Fill-1" fill="#EDF0F3"></path>
                            <path d="M43.1267831,32.8811534 L41.8926878,33.977989 L38.3777884,37.1000575 C37.9398836,37.4854 37.2317566,37.4854 36.7934497,37.1000575 L32.044455,32.8811534 C31.6065503,32.495811 31.6065503,31.8641671 32.044455,31.4788247 C32.4791429,31.0895096 33.1908889,31.0895096 33.6247725,31.4788247 L36.4641164,33.9974548 L36.4641164,24.475126 C36.4641164,23.9269068 36.9667619,23.4819753 37.5860212,23.4819753 C38.2048783,23.4819753 38.7035026,23.9269068 38.7035026,24.475126 L38.7035026,33.9974548 L41.5428466,31.4788247 C41.6469947,31.3874548 41.7636085,31.3159479 41.8926878,31.2682767 C42.3024444,31.1133452 42.7930265,31.1808795 43.1267831,31.4788247 C43.5650899,31.8641671 43.5650899,32.495811 43.1267831,32.8811534" id="Fill-3" fill="#FFFFFF"></path>
                            <path d="M26.4350116,30.4339904 C26.4350116,36.5200178 31.4252762,41.4500178 37.5856995,41.4500178 C39.1137418,41.4500178 40.5657841,41.1481 41.8923661,40.6002781 L41.8923661,46.1976753 L2.29636614,46.1976753 L2.29636614,11.1787849 C2.29636614,9.79234658 3.43837672,8.65260685 4.84176296,8.65260685 L27.1467577,8.65260685 C27.6252762,8.65260685 28.0877101,8.79522329 28.4938476,9.04152466 L36.9789058,14.237689 C37.107181,14.3211137 37.2640063,14.3691822 37.4172127,14.3926205 L41.8923661,14.3926205 L41.8923661,20.2681 C40.5657841,19.7198808 39.1137418,19.4183603 37.5856995,19.4183603 C31.4252762,19.4183603 26.4350116,24.3483603 26.4350116,30.4339904" id="Fill-5" fill="#EDF0F3"></path>
                            <path d="M41.8925672,48.6765397 L41.8925672,50.2338 C41.8925672,52.6408 40.713964,54.7144986 39.0254772,55.6162795 L4.6405037,55.6162795 C3.34568889,55.6162795 2.29616508,54.7462795 2.29616508,53.6617589 L2.29616508,48.6765397 L41.8925672,48.6765397 Z" id="Fill-7" fill="#EDF0F3"></path>
                            <path d="M43.1267831,32.8811534 L41.8926878,33.977989 L38.3777884,37.1000575 C37.9398836,37.4854 37.2317566,37.4854 36.7934497,37.1000575 L32.044455,32.8811534 C31.6065503,32.495811 31.6065503,31.8641671 32.044455,31.4788247 C32.4791429,31.0895096 33.1908889,31.0895096 33.6247725,31.4788247 L36.4641164,33.9974548 L36.4641164,24.475126 C36.4641164,23.9269068 36.9667619,23.4819753 37.5860212,23.4819753 C38.2048783,23.4819753 38.7035026,23.9269068 38.7035026,24.475126 L38.7035026,33.9974548 L41.5428466,31.4788247 C41.6469947,31.3874548 41.7636085,31.3159479 41.8926878,31.2682767 C42.3024444,31.1133452 42.7930265,31.1808795 43.1267831,31.4788247 C43.5650899,31.8641671 43.5650899,32.495811 43.1267831,32.8811534 M41.8926878,20.2681397 C40.5657037,19.7199205 39.1140635,19.4180027 37.5860212,19.4180027 C31.4251958,19.4180027 26.4349312,24.3484 26.4349312,30.4340301 C26.4349312,36.5200575 31.4251958,41.4500575 37.5860212,41.4500575 C39.1140635,41.4500575 40.5657037,41.1481397 41.8926878,40.6003178 C45.9138519,38.9354 48.7363069,35.0104685 48.7363069,30.4340301 C48.7363069,25.8575918 45.9138519,21.9326603 41.8926878,20.2681397" id="Fill-9" fill="#6D7C98"></path>
                            <path d="M71.0538476,46.3363986 L71.0538476,46.3483164 C71.0659111,46.3363986 71.0659111,46.3363986 71.0904402,46.3363986 L71.0538476,46.3363986 Z" id="Fill-11" fill="#7887A2"></path>
                            <g id="Group-15" transform="translate(0.000000, 0.282055)">
                                <mask id="mask-2" fill="white">
                                    <use xlink:href="#path-1"></use>
                                </mask>
                                <g id="Clip-14"></g>
                                <path d="M72.8755556,11.8620329 L37.9075132,11.8620329 L29.7083598,6.82874521 C28.9322751,6.35997808 28.0512381,6.11367671 27.1464762,6.11367671 L4.8418836,6.11367671 C3.91661376,6.11367671 3.03597884,6.38421096 2.29608466,6.84066301 L2.29608466,4.90203288 C2.29608466,3.51559452 3.43809524,2.38737534 4.8418836,2.38737534 L27.1464762,2.38737534 C27.6253968,2.38737534 28.0878307,2.51489589 28.4939683,2.7608 L36.9786243,7.96888219 C37.1555556,8.07653973 37.3726984,8.13573151 37.5858201,8.13573151 L70.5191534,8.13573151 C71.8135661,8.13573151 72.8755556,9.01764932 72.8755556,10.0985945 L72.8755556,11.8620329 Z M70.5191534,5.86737534 L37.9075132,5.86737534 L29.7083598,0.834087671 C28.9322751,0.361745205 28.0512381,0.115046575 27.1464762,0.115046575 L4.8418836,0.115046575 C3.02793651,0.115046575 1.43957672,1.11216986 0.611216931,2.58243014 C0.221164021,3.26929315 0,4.0638137 0,4.90203288 L0,53.3797041 C0,53.9283205 0.117015873,54.4527041 0.325714286,54.9329918 C1.00891005,56.4946219 2.68613757,57.6029781 4.6408254,57.6029781 L65.6977778,57.6029781 C65.5530159,57.4834027 65.411873,57.3685945 65.2791746,57.2374986 L65.2433862,57.2132658 C65.2232804,57.1775123 65.1991534,57.1536767 65.1750265,57.1417589 C65.162963,57.1298411 65.162963,57.1298411 65.162963,57.1099781 C65.042328,57.0031151 64.9257143,56.8601014 64.8171429,56.720663 C64.5678307,56.4390055 64.3422434,56.1450329 64.1496296,55.8268274 C64.0450794,55.6599781 63.9365079,55.5090192 63.8395979,55.3342247 L4.6408254,55.3342247 C3.34560847,55.3342247 2.29608466,54.4642247 2.29608466,53.3797041 L2.29608466,48.3944849 L63.4374815,48.3944849 C63.5665608,48.0762795 63.7233862,47.7707863 63.9003175,47.4644986 C63.912381,47.4569507 63.912381,47.4569507 63.9244444,47.4446356 C64.0088889,47.2897041 64.0893122,47.1391425 64.1978836,46.9957315 C64.3185185,46.7971014 64.4713228,46.5825808 64.6281481,46.4081836 C64.7572275,46.233389 64.9015873,46.0665397 65.0543915,45.9155808 L2.29608466,45.9155808 L2.29608466,10.8966904 C2.29608466,9.51025205 3.43809524,8.37051233 4.8418836,8.37051233 L27.1464762,8.37051233 C27.6253968,8.37051233 28.0878307,8.51312877 28.4939683,8.75943014 L36.9786243,13.9559918 C37.1073016,14.0390192 37.2637249,14.0870877 37.4169312,14.110526 L72.8755556,14.110526 L72.8755556,43.5157315 C73.0042328,43.5395671 73.1248677,43.5753205 73.2531429,43.611074 C73.4103704,43.6349096 73.5631746,43.690526 73.7079365,43.7266767 C73.8048466,43.7624301 73.8969312,43.7858685 73.9813757,43.8335397 C74.2668783,43.9292795 74.5403175,44.0440877 74.8016931,44.1751836 C74.922328,44.2347726 75.0389418,44.3023068 75.1595767,44.3738137 L75.1595767,10.0985945 C75.1595767,7.77025205 73.0766138,5.86737534 70.5191534,5.86737534 Z" id="Fill-13" fill="#6D7C98" mask="url(#mask-2)"></path>
                            </g>
                            <path d="M69.8757672,50.6196014 L69.9237672,50.6196014 L69.9237672,50.5236014 C69.9237672,50.5236014 69.8757672,50.5708014 69.8757672,50.6196014 M69.8757672,50.6196014 L69.9237672,50.6196014 L69.9237672,50.5236014 C69.9237672,50.5236014 69.8757672,50.5708014 69.8757672,50.6196014 M69.8757672,50.6196014 L69.9237672,50.6196014 L69.9237672,50.5236014 C69.9237672,50.5236014 69.8757672,50.5708014 69.8757672,50.6196014" id="Fill-16" fill="#7887A2"></path>
                            <path d="M71.0538476,46.3363986 L71.0538476,46.3483164 C71.0659111,46.3363986 71.0659111,46.3363986 71.0904402,46.3363986 L71.0538476,46.3363986 Z" id="Fill-18" fill="#7887A2"></path>
                            <path d="M71.0891937,46.3375904 C71.0654688,46.3375904 71.0654688,46.3375904 71.0534053,46.349111 L71.0534053,46.3375904 L71.0891937,46.3375904 Z" id="Fill-20" fill="#7887A2"></path>
                            <g id="Group-24" transform="translate(66.349206, 45.966986)">
                                <mask id="mask-4" fill="white">
                                    <use xlink:href="#path-3"></use>
                                </mask>
                                <g id="Clip-23"></g>
                                <path d="M4.72390265,11.3767 C4.16857989,11.3767 3.71861164,10.9321658 3.71861164,10.3835493 L3.71861164,3.41361781 L1.73336296,5.2537274 C1.32843175,5.62913836 0.691881481,5.60848082 0.312283598,5.20923425 C0.130124868,5.01696027 0.0404529101,4.77264521 0.0404529101,4.52912466 C0.0404529101,4.26454932 0.147013757,4.00076849 0.357722751,3.80491918 L4.03588148,0.395631507 L4.03708783,0.394439726 C4.2128127,0.232357534 4.43236825,0.144165753 4.65634709,0.129467123 C4.72148995,0.12509726 4.78944762,0.126686301 4.85539471,0.135426027 C5.0266963,0.157672603 5.19277037,0.223220548 5.33632593,0.332467123 C5.36125714,0.351535616 5.38538413,0.37139863 5.40790265,0.392453425 L9.11139471,3.73063151 C9.52195556,4.10048082 9.55090794,4.72854932 9.17653757,5.13335753 C8.80256931,5.53896027 8.16601905,5.56796027 7.75666455,5.1977137 L5.72919365,3.3707137 L5.72919365,10.3835493 C5.72919365,10.9321658 5.2792254,11.3767 4.72390265,11.3767" id="Fill-22" fill="#6D7C98" mask="url(#mask-4)"></path>
                            </g>
                        </g>
                    </g>
                    <g id="upload-file-modular-page" transform="translate(304.000000, 34.000000)">
                        <g id="Group-70">
                            <path d="M65.7208323,12.2135034 L65.7208323,49.5504161 L11.1040581,49.5504161 L11.1040581,10.2363221 C11.1040581,9.18128859 11.8555957,8.30343624 12.8502194,8.12625503 L61.8891441,8.12625503 C64.0021226,8.12625503 65.7208323,9.96249664 65.7208323,12.2135034" id="Fill-1" fill="#EDF0F3"></path>
                            <path d="M71.3424054,10.2362416 L71.3424054,49.5503356 L67.7100398,49.5503356 L67.7100398,12.2134228 C67.7100398,10.6268456 67.1291796,9.17718121 66.1743409,8.08993289 L69.2218677,8.08993289 C70.3915452,8.08993289 71.3424054,9.05275168 71.3424054,10.2362416" id="Fill-3" fill="#EDF0F3"></path>
                            <path d="M71.3424054,51.5637181 L71.3424054,52.6755302 C70.6859538,55.3449262 68.2948785,57.3301611 65.4582118,57.3301611 L11.1040183,57.3301611 L11.1040183,51.5637181 L71.3424054,51.5637181 Z" id="Fill-5" fill="#EDF0F3"></path>
                            <g id="Group-9" transform="translate(0.000000, 0.148993)">
                                <mask id="mask-6" fill="white">
                                    <use xlink:href="#path-5"></use>
                                </mask>
                                <g id="Clip-8"></g>
                                <path d="M71.5215172,49.401302 L67.7101194,49.401302 L67.7101194,12.0643893 C67.7101194,10.4778121 67.1292591,9.02814765 66.1744204,7.94089933 C65.1121624,6.72519463 63.5844204,5.96371812 61.8891839,5.96371812 L12.0187538,5.96371812 C8.8081086,5.96371812 6.19861398,8.70237584 6.19861398,12.0643893 L6.19861398,49.401302 L2.38681828,49.401302 L2.38681828,8.80304698 C2.38681828,5.42009396 5.10452796,2.66975839 8.44646344,2.66975839 L65.4582914,2.66975839 C68.8002269,2.66975839 71.5215172,5.42009396 71.5215172,8.80304698 L71.5215172,49.401302 Z M8.18786129,49.401302 L8.18786129,12.0643893 C8.18786129,9.81338255 9.90657097,7.97714094 12.0187538,7.97714094 L61.8891839,7.97714094 C64.0021624,7.97714094 65.720872,9.81338255 65.720872,12.0643893 L65.720872,49.401302 L8.18786129,49.401302 Z M71.3424849,52.5265369 C70.6856355,55.1959329 68.2949581,57.1811678 65.4582914,57.1811678 L8.44646344,57.1811678 C5.22746344,57.1811678 2.58574301,54.627745 2.39915161,51.4147248 L71.5095817,51.4147248 C71.4896892,51.7972752 71.4300118,52.167745 71.3424849,52.5265369 Z M65.4582914,0.253651007 L8.44646344,0.253651007 C3.79162473,0.253651007 -0.000278494624,4.08720805 -0.000278494624,8.80304698 L-0.000278494624,51.0482819 C-0.000278494624,55.7637181 3.79162473,59.5972752 8.44646344,59.5972752 L65.4582914,59.5972752 C67.7419473,59.5972752 69.8223022,58.6751275 71.3424849,57.1771409 C72.925528,55.6227785 73.908614,53.4482819 73.908614,51.0482819 L73.908614,8.80304698 C73.908614,4.08720805 70.1171086,0.253651007 65.4582914,0.253651007 Z" id="Fill-7" fill="#6D7C98" mask="url(#mask-6)"></path>
                            </g>
                            <path d="M25.6612108,23.8107383 C25.6612108,24.5395973 25.076372,25.1355705 24.3562645,25.1355705 L15.6911032,25.1355705 C14.9709957,25.1355705 14.386157,24.5395973 14.386157,23.8107383 L14.386157,15.0438926 C14.386157,14.3154362 14.9709957,13.7234899 15.6911032,13.7234899 L24.3562645,13.7234899 C25.076372,13.7234899 25.6612108,14.3154362 25.6612108,15.0438926 L25.6612108,23.8107383 Z M24.3562645,12.7530201 L15.6911032,12.7530201 C14.4458344,12.7530201 13.4317161,13.7798658 13.4317161,15.0438926 L13.4317161,23.8107383 C13.4317161,25.0751678 14.4458344,26.1020134 15.6911032,26.1020134 L24.3562645,26.1020134 C25.6019312,26.1020134 26.6160495,25.0751678 26.6160495,23.8107383 L26.6160495,15.0438926 C26.6160495,13.7798658 25.6019312,12.7530201 24.3562645,12.7530201 Z" id="Fill-10" fill="#6D7C98"></path>
                            <path d="M22.024986,15.559651 C21.5555237,15.559651 21.1775667,15.9462282 21.1775667,16.4173691 C21.1775667,16.8929396 21.5555237,17.2795168 22.024986,17.2795168 C22.4944484,17.2795168 22.8724054,16.8929396 22.8724054,16.4173691 C22.8724054,15.9462282 22.4944484,15.559651 22.024986,15.559651" id="Fill-12" fill="#FFFFFF"></path>
                            <path d="M24.1374075,23.2668725 L15.6238269,23.2668725 C15.3608484,23.2668725 15.1778376,23.0655302 15.261386,22.8726443 C16.1489882,20.7867383 17.0357946,18.7088859 17.9229989,16.6225772 C18.0387731,16.3527785 18.5197731,16.3487517 18.6431065,16.6185503 C19.0409559,17.480698 19.4388054,18.342443 19.8330742,19.2037852 C19.9480527,19.4538523 20.0594505,19.6994899 20.1748269,19.9491544 C20.2902032,20.2028456 20.7397731,20.2149262 20.8829989,19.9729128 C21.1455796,19.5223087 21.4041817,19.0668725 21.6667624,18.6162685 C21.8060097,18.3782819 22.2476226,18.3867383 22.3713538,18.6319732 C23.0795258,20.0413691 23.7833215,21.4467383 24.4914935,22.8561342 C24.5909559,23.0538523 24.408343,23.2668725 24.1374075,23.2668725 M22.0248269,15.5594899 C22.4942892,15.5594899 22.8722462,15.9460671 22.8722462,16.4172081 C22.8722462,16.8927785 22.4942892,17.2793557 22.0248269,17.2793557 C21.5557624,17.2793557 21.1778054,16.8927785 21.1778054,16.4172081 C21.1778054,15.9460671 21.5557624,15.5594899 22.0248269,15.5594899 M24.3562247,13.723651 L15.6914613,13.723651 C14.9709559,13.723651 14.3861172,14.3155973 14.3861172,15.0440537 L14.3861172,23.8108993 C14.3861172,24.5393557 14.9709559,25.1357315 15.6914613,25.1357315 L24.3562247,25.1357315 C25.0763323,25.1357315 25.661171,24.5393557 25.661171,23.8108993 L25.661171,15.0440537 C25.661171,14.3155973 25.0763323,13.723651 24.3562247,13.723651" id="Fill-14" fill="#FFFFFF"></path>
                            <path d="M24.1370097,23.268443 L15.6246226,23.268443 C15.3624398,23.268443 15.1786333,23.0675034 15.2609882,22.8722013 C16.1477946,20.7887114 17.0346011,18.7072349 17.9218054,16.623745 C18.0383753,16.3547517 18.5197731,16.3487114 18.6439022,16.6177047 C19.0393645,17.4806577 19.437214,18.3415973 19.8330742,19.2041477 C19.9476548,19.4517987 20.0602462,19.7014631 20.1748269,19.9491141 C20.2913968,20.2024027 20.7405688,20.216094 20.8822032,19.9720671 C21.1439882,19.5214631 21.4057731,19.0688456 21.6675581,18.6178389 C21.8072032,18.3778389 22.2468269,18.3858926 22.3713538,18.6335436 C23.0783323,20.0397181 23.7853108,21.447906 24.4926871,22.8564966 C24.5921495,23.0538121 24.4067516,23.268443 24.1370097,23.268443" id="Fill-16" fill="#6D7C98"></path>
                            <path d="M22.8735194,16.4184966 C22.8735194,16.8924564 22.4951645,17.2774228 22.0249065,17.2774228 C21.5566376,17.2774228 21.1762935,16.8924564 21.1762935,16.4184966 C21.1762935,15.9445369 21.5566376,15.5595705 22.0249065,15.5595705 C22.4951645,15.5595705 22.8735194,15.9445369 22.8735194,16.4184966" id="Fill-18" fill="#6D7C98"></path>
                            <path d="M42.3669892,23.8107383 C42.3669892,24.5395973 41.7785699,25.1355705 41.0580645,25.1355705 L32.3968817,25.1355705 C31.6767742,25.1355705 31.0875591,24.5395973 31.0875591,23.8107383 L31.0875591,15.0438926 C31.0875591,14.3154362 31.6767742,13.7234899 32.3968817,13.7234899 L41.0580645,13.7234899 C41.7785699,13.7234899 42.3669892,14.3154362 42.3669892,15.0438926 L42.3669892,23.8107383 Z M41.0580645,12.7530201 L32.3968817,12.7530201 C31.1476344,12.7530201 30.1331183,13.7798658 30.1331183,15.0438926 L30.1331183,23.8107383 C30.1331183,25.0751678 31.1476344,26.1020134 32.3968817,26.1020134 L41.0580645,26.1020134 C42.3077097,26.1020134 43.3214301,25.0751678 43.3214301,23.8107383 L43.3214301,15.0438926 C43.3214301,13.7798658 42.3077097,12.7530201 41.0580645,12.7530201 Z" id="Fill-20" fill="#6D7C98"></path>
                            <path d="M38.7307645,15.559651 C38.2609043,15.559651 37.8789688,15.9462282 37.8789688,16.4173691 C37.8789688,16.8929396 38.2609043,17.2795168 38.7307645,17.2795168 C39.2002269,17.2795168 39.5781839,16.8929396 39.5781839,16.4173691 C39.5781839,15.9462282 39.2002269,15.559651 38.7307645,15.559651" id="Fill-22" fill="#FFFFFF"></path>
                            <path d="M40.8392871,23.2668725 L32.3292871,23.2668725 C32.0667065,23.2668725 31.8832978,23.0655302 31.9632656,22.8726443 C32.8504699,20.7867383 33.7372763,18.7088859 34.6248785,16.6225772 C34.7402548,16.3527785 35.2256312,16.3487517 35.3489645,16.6185503 C35.7428355,17.480698 36.1406849,18.342443 36.5385344,19.2037852 C36.6499323,19.4538523 36.7653086,19.6994899 36.8806849,19.9491544 C36.9960613,20.2028456 37.4456312,20.2149262 37.5844806,19.9729128 C37.8470613,19.5223087 38.1100398,19.0668725 38.3726204,18.6162685 C38.5114699,18.3782819 38.9495022,18.3867383 39.0764161,18.6319732 C39.7810075,20.0413691 40.4891796,21.4467383 41.1969538,22.8561342 C41.2964161,23.0538523 41.1098247,23.2668725 40.8392871,23.2668725 M38.7306849,15.5594899 C39.2001473,15.5594899 39.5781043,15.9460671 39.5781043,16.4172081 C39.5781043,16.8927785 39.2001473,17.2793557 38.7306849,17.2793557 C38.2612226,17.2793557 37.8792871,16.8927785 37.8792871,16.4172081 C37.8792871,15.9460671 38.2612226,15.5594899 38.7306849,15.5594899 M41.0581043,13.723651 L32.3969215,13.723651 C31.676814,13.723651 31.0875989,14.3155973 31.0875989,15.0440537 L31.0875989,23.8108993 C31.0875989,24.5393557 31.676814,25.1357315 32.3969215,25.1357315 L41.0581043,25.1357315 C41.7782118,25.1357315 42.367029,24.5393557 42.367029,23.8108993 L42.367029,15.0440537 C42.367029,14.3155973 41.7782118,13.723651 41.0581043,13.723651" id="Fill-24" fill="#FFFFFF"></path>
                            <path d="M40.8408785,23.268443 L32.3284914,23.268443 C32.0663086,23.268443 31.8829,23.0675034 31.964857,22.8722013 C32.8520613,20.7887114 33.7384699,18.7072349 34.6256742,16.623745 C34.7422441,16.3547517 35.2240398,16.3487114 35.3481688,16.6177047 C35.7436312,17.4806577 36.1410828,18.3415973 36.536943,19.2041477 C36.6515237,19.4517987 36.7645129,19.7014631 36.8790935,19.9491141 C36.9956634,20.2024027 37.4448355,20.216094 37.586072,19.9720671 C37.8482548,19.5214631 38.1100398,19.0688456 38.3718247,18.6178389 C38.5114699,18.3778389 38.9506957,18.3858926 39.0752226,18.6335436 C39.7822011,20.0397181 40.4891796,21.447906 41.1965559,22.8564966 C41.2960183,23.0538121 41.1106204,23.268443 40.8408785,23.268443" id="Fill-26" fill="#6D7C98"></path>
                            <path d="M39.5777462,16.4184966 C39.5777462,16.8924564 39.1993914,17.2774228 38.7287355,17.2774228 C38.2604667,17.2774228 37.8805204,16.8924564 37.8805204,16.4184966 C37.8805204,15.9445369 38.2604667,15.5595705 38.7287355,15.5595705 C39.1993914,15.5595705 39.5777462,15.9445369 39.5777462,16.4184966" id="Fill-28" fill="#6D7C98"></path>
                            <path d="M59.0685108,23.8107383 C59.0685108,24.5395973 58.483672,25.1355705 57.7639624,25.1355705 L49.1023817,25.1355705 C48.382672,25.1355705 47.793457,24.5395973 47.793457,23.8107383 L47.793457,15.0438926 C47.793457,14.3154362 48.382672,13.7234899 49.1023817,13.7234899 L57.7639624,13.7234899 C58.483672,13.7234899 59.0685108,14.3154362 59.0685108,15.0438926 L59.0685108,23.8107383 Z M57.7639624,12.7530201 L49.1023817,12.7530201 C47.8535323,12.7530201 46.8390161,13.7798658 46.8390161,15.0438926 L46.8390161,23.8107383 C46.8390161,25.0751678 47.8535323,26.1020134 49.1023817,26.1020134 L57.7639624,26.1020134 C59.0092312,26.1020134 60.027328,25.0751678 60.027328,23.8107383 L60.027328,15.0438926 C60.027328,13.7798658 59.0092312,12.7530201 57.7639624,12.7530201 Z" id="Fill-30" fill="#6D7C98"></path>
                            <path d="M55.432286,15.559651 C54.9628237,15.559651 54.5848667,15.9462282 54.5848667,16.4173691 C54.5848667,16.8929396 54.9628237,17.2795168 55.432286,17.2795168 C55.9021462,17.2795168 56.2797054,16.8929396 56.2797054,16.4173691 C56.2797054,15.9462282 55.9021462,15.559651 55.432286,15.559651" id="Fill-32" fill="#FFFFFF"></path>
                            <path d="M57.5447075,23.2668725 L49.0311269,23.2668725 C48.7725247,23.2668725 48.5851376,23.0655302 48.668686,22.8726443 C49.5558903,20.7867383 50.4430946,18.7088859 51.3306968,16.6225772 C51.4456753,16.3527785 51.927471,16.3487517 52.0504065,16.6185503 C52.4482559,17.480698 52.8461054,18.342443 53.2403742,19.2037852 C53.3557505,19.4538523 53.4667505,19.6994899 53.5825247,19.9491544 C53.6975032,20.2028456 54.147471,20.2149262 54.2902989,19.9729128 C54.5528796,19.5223087 54.8158581,19.0668725 55.0744602,18.6162685 C55.2137075,18.3782819 55.6549226,18.3867383 55.7786538,18.6319732 C56.4868258,20.0413691 57.1949978,21.4467383 57.8991914,22.8561342 C57.9986538,23.0538523 57.815643,23.2668725 57.5447075,23.2668725 M55.4321269,15.5594899 C55.9019871,15.5594899 56.2795462,15.9460671 56.2795462,16.4172081 C56.2795462,16.8927785 55.9019871,17.2793557 55.4321269,17.2793557 C54.9630624,17.2793557 54.5851054,16.8927785 54.5851054,16.4172081 C54.5851054,15.9460671 54.9630624,15.5594899 55.4321269,15.5594899 M57.7639226,13.723651 L49.1023419,13.723651 C48.3826323,13.723651 47.7934172,14.3155973 47.7934172,15.0440537 L47.7934172,23.8108993 C47.7934172,24.5393557 48.3826323,25.1357315 49.1023419,25.1357315 L57.7639226,25.1357315 C58.4836323,25.1357315 59.068471,24.5393557 59.068471,23.8108993 L59.068471,15.0440537 C59.068471,14.3155973 58.4836323,13.723651 57.7639226,13.723651" id="Fill-34" fill="#FFFFFF"></path>
                            <path d="M57.5451054,23.268443 L49.0323204,23.268443 C48.7701376,23.268443 48.586729,23.0675034 48.6690839,22.8722013 C49.5558903,20.7887114 50.4426968,18.7072349 51.3295032,16.623745 C51.4460731,16.3547517 51.9278688,16.3487114 52.0519978,16.6177047 C52.4474602,17.4806577 52.8453097,18.3415973 53.2411699,19.2041477 C53.3557505,19.4517987 53.4683419,19.7014631 53.5829226,19.9491141 C53.6994925,20.2024027 54.1486645,20.216094 54.2899011,19.9720671 C54.5520839,19.5214631 54.8138688,19.0688456 55.0756538,18.6178389 C55.2152989,18.3778389 55.6545247,18.3858926 55.7790516,18.6335436 C56.4860301,20.0397181 57.1934065,21.447906 57.9007828,22.8564966 C57.9998473,23.0538121 57.8144495,23.268443 57.5451054,23.268443" id="Fill-36" fill="#6D7C98"></path>
                            <path d="M56.2816151,16.4184966 C56.2816151,16.8924564 55.9032602,17.2774228 55.4330022,17.2774228 C54.9647333,17.2774228 54.5843892,16.8924564 54.5843892,16.4184966 C54.5843892,15.9445369 54.9647333,15.5595705 55.4330022,15.5595705 C55.9032602,15.5595705 56.2816151,15.9445369 56.2816151,16.4184966" id="Fill-38" fill="#6D7C98"></path>
                            <path d="M25.5178258,41.3275168 C25.5178258,42.0563758 24.9329871,42.652349 24.2132774,42.652349 L15.5477183,42.652349 C14.8280086,42.652349 14.242772,42.0563758 14.242772,41.3275168 L14.242772,32.5606711 C14.242772,31.8322148 14.8280086,31.2402685 15.5477183,31.2402685 L24.2132774,31.2402685 C24.9329871,31.2402685 25.5178258,31.8322148 25.5178258,32.5606711 L25.5178258,41.3275168 Z M24.2132774,30.2697987 L15.5477183,30.2697987 C14.3028473,30.2697987 13.2883312,31.2966443 13.2883312,32.5606711 L13.2883312,41.3275168 C13.2883312,42.5919463 14.3028473,43.6187919 15.5477183,43.6187919 L24.2132774,43.6187919 C25.4585462,43.6187919 26.4726645,42.5919463 26.4726645,41.3275168 L26.4726645,32.5606711 C26.4726645,31.2966443 25.4585462,30.2697987 24.2132774,30.2697987 Z" id="Fill-40" fill="#6D7C98"></path>
                            <path d="M21.8816409,33.0764295 C21.4121785,33.0764295 21.0342215,33.4630067 21.0342215,33.9341477 C21.0342215,34.4097181 21.4121785,34.7962953 21.8816409,34.7962953 C22.3515011,34.7962953 22.7290602,34.4097181 22.7290602,33.9341477 C22.7290602,33.4630067 22.3515011,33.0764295 21.8816409,33.0764295" id="Fill-42" fill="#FFFFFF"></path>
                            <path d="M23.9940226,40.783651 L15.4804419,40.783651 C15.2174634,40.783651 15.0344527,40.5823087 15.1180011,40.3894228 C16.0056032,38.3035168 16.8924097,36.2256644 17.7800118,34.1393557 C17.8953882,33.869557 18.376786,33.8655302 18.4997215,34.1353289 C18.897571,34.9974765 19.2954204,35.8592215 19.6896892,36.7205638 C19.8050656,36.9706309 19.9160656,37.2162685 20.0318398,37.4659329 C20.1468183,37.7196242 20.596786,37.7317047 20.739614,37.4896913 C21.0021946,37.0390872 21.2611946,36.583651 21.5237753,36.133047 C21.6630226,35.8950604 22.1042376,35.9035168 22.2279688,36.1487517 C22.9361409,37.5581477 23.6399366,38.9635168 24.3485065,40.3729128 C24.4479688,40.5706309 24.2649581,40.783651 23.9940226,40.783651 M21.8814419,33.0762685 C22.3513022,33.0762685 22.7288613,33.4628456 22.7288613,33.9339866 C22.7288613,34.409557 22.3513022,34.7961342 21.8814419,34.7961342 C21.4123774,34.7961342 21.0344204,34.409557 21.0344204,33.9339866 C21.0344204,33.4628456 21.4123774,33.0762685 21.8814419,33.0762685 M24.2132376,31.2404295 L15.5480763,31.2404295 C14.8279688,31.2404295 14.2427323,31.8323758 14.2427323,32.5608322 L14.2427323,41.3276779 C14.2427323,42.0561342 14.8279688,42.6525101 15.5480763,42.6525101 L24.2132376,42.6525101 C24.9329473,42.6525101 25.517786,42.0561342 25.517786,41.3276779 L25.517786,32.5608322 C25.517786,31.8323758 24.9329473,31.2404295 24.2132376,31.2404295" id="Fill-44" fill="#FFFFFF"></path>
                            <path d="M23.9936247,40.7852215 L15.4808398,40.7852215 C15.218657,40.7852215 15.0352484,40.5842819 15.1176032,40.3889799 C16.0044097,38.3054899 16.8912161,36.2240134 17.7780226,34.1405235 C17.8945925,33.8715302 18.3763882,33.8654899 18.5005172,34.1344832 C18.8959796,34.9974362 19.293829,35.8583758 19.6896892,36.7209262 C19.8042699,36.9685772 19.9168613,37.2182416 20.0314419,37.4658926 C20.1480118,37.7191812 20.5971839,37.7328725 20.7384204,37.4888456 C21.0006032,37.0382416 21.2623882,36.5856242 21.5241731,36.1346174 C21.6638183,35.8946174 22.1030441,35.9026711 22.227571,36.1503221 C22.9345495,37.5564966 23.6419258,38.9646846 24.3493022,40.3732752 C24.4483667,40.5705906 24.2629688,40.7852215 23.9936247,40.7852215" id="Fill-46" fill="#6D7C98"></path>
                            <path d="M22.7301742,33.9352752 C22.7301742,34.4092349 22.3518194,34.7942013 21.8815613,34.7942013 C21.4132925,34.7942013 21.0329484,34.4092349 21.0329484,33.9352752 C21.0329484,33.4613154 21.4132925,33.076349 21.8815613,33.076349 C22.3518194,33.076349 22.7301742,33.4613154 22.7301742,33.9352752" id="Fill-48" fill="#6D7C98"></path>
                            <path d="M42.2236043,41.3275168 C42.2236043,42.0563758 41.6351849,42.652349 40.9150774,42.652349 L32.2534968,42.652349 C31.5337871,42.652349 30.944572,42.0563758 30.944572,41.3275168 L30.944572,32.5606711 C30.944572,31.8322148 31.5337871,31.2402685 32.2534968,31.2402685 L40.9150774,31.2402685 C41.6351849,31.2402685 42.2236043,31.8322148 42.2236043,32.5606711 L42.2236043,41.3275168 Z M40.9150774,30.2697987 L32.2534968,30.2697987 C31.0046473,30.2697987 29.9897333,31.2966443 29.9897333,32.5606711 L29.9897333,41.3275168 C29.9897333,42.5919463 31.0046473,43.6187919 32.2534968,43.6187919 L40.9150774,43.6187919 C42.1643247,43.6187919 43.178443,42.5919463 43.178443,41.3275168 L43.178443,32.5606711 C43.178443,31.2966443 42.1643247,30.2697987 40.9150774,30.2697987 Z" id="Fill-50" fill="#6D7C98"></path>
                            <path d="M38.5874194,33.0764295 C38.1175591,33.0764295 37.7360215,33.4630067 37.7360215,33.9341477 C37.7360215,34.4097181 38.1175591,34.7962953 38.5874194,34.7962953 C39.0568817,34.7962953 39.4348387,34.4097181 39.4348387,33.9341477 C39.4348387,33.4630067 39.0568817,33.0764295 38.5874194,33.0764295" id="Fill-52" fill="#FFFFFF"></path>
                            <path d="M40.6959419,40.783651 L32.1859419,40.783651 C31.9233613,40.783651 31.7403505,40.5823087 31.8199204,40.3894228 C32.7071247,38.3035168 33.594329,36.2256644 34.4815333,34.1393557 C34.5969097,33.869557 35.0783075,33.8655302 35.2056194,34.1353289 C35.5994903,34.9974765 35.9973398,35.8592215 36.3951892,36.7205638 C36.5069849,36.9706309 36.6219634,37.2162685 36.7377376,37.4659329 C36.8527161,37.7196242 37.3026839,37.7317047 37.4415333,37.4896913 C37.704114,37.0390872 37.9670925,36.583651 38.2296731,36.133047 C38.3685226,35.8950604 38.806157,35.9035168 38.9334688,36.1487517 C39.6376624,37.5581477 40.3458344,38.9635168 41.0540065,40.3729128 C41.1534688,40.5706309 40.9664796,40.783651 40.6959419,40.783651 M38.5873398,33.0762685 C39.0568022,33.0762685 39.4347591,33.4628456 39.4347591,33.9339866 C39.4347591,34.409557 39.0568022,34.7961342 38.5873398,34.7961342 C38.1178774,34.7961342 37.7363398,34.409557 37.7363398,33.9339866 C37.7363398,33.4628456 38.1178774,33.0762685 38.5873398,33.0762685 M40.915157,31.2404295 L32.2535763,31.2404295 C31.5338667,31.2404295 30.9446516,31.8323758 30.9446516,32.5608322 L30.9446516,41.3276779 C30.9446516,42.0561342 31.5338667,42.6525101 32.2535763,42.6525101 L40.915157,42.6525101 C41.6348667,42.6525101 42.2236839,42.0561342 42.2236839,41.3276779 L42.2236839,32.5608322 C42.2236839,31.8323758 41.6348667,31.2404295 40.915157,31.2404295" id="Fill-54" fill="#FFFFFF"></path>
                            <path d="M40.6974935,40.7852215 L32.1851065,40.7852215 C31.9229237,40.7852215 31.7391172,40.5842819 31.821472,40.3889799 C32.7082785,38.3054899 33.5950849,36.2240134 34.4822892,34.1405235 C34.5988591,33.8715302 35.080257,33.8654899 35.204386,34.1344832 C35.5998484,34.9974362 35.9976978,35.8583758 36.3935581,36.7209262 C36.5081387,36.9685772 36.6207301,37.2182416 36.7353108,37.4658926 C36.8518806,37.7191812 37.3014505,37.7328725 37.4426871,37.4888456 C37.704472,37.0382416 37.966257,36.5856242 38.2280419,36.1346174 C38.3676871,35.8946174 38.8073108,35.9026711 38.9318376,36.1503221 C39.6388161,37.5564966 40.3457946,38.9646846 41.053171,40.3732752 C41.1526333,40.5705906 40.9672355,40.7852215 40.6974935,40.7852215" id="Fill-56" fill="#6D7C98"></path>
                            <path d="M39.4340032,33.9352752 C39.4340032,34.4092349 39.0556484,34.7942013 38.5853903,34.7942013 C38.1171215,34.7942013 37.7367774,34.4092349 37.7367774,33.9352752 C37.7367774,33.4613154 38.1171215,33.076349 38.5853903,33.076349 C39.0556484,33.076349 39.4340032,33.4613154 39.4340032,33.9352752" id="Fill-58" fill="#6D7C98"></path>
                            <path d="M58.9255237,41.3275168 C58.9255237,42.0563758 58.3402871,42.652349 57.6205774,42.652349 L48.9589968,42.652349 C48.2353086,42.652349 47.6504699,42.0563758 47.6504699,41.3275168 L47.6504699,32.5606711 C47.6504699,31.8322148 48.2353086,31.2402685 48.9589968,31.2402685 L57.6205774,31.2402685 C58.3402871,31.2402685 58.9255237,31.8322148 58.9255237,32.5606711 L58.9255237,41.3275168 Z M57.6205774,30.2697987 L48.9589968,30.2697987 C47.7101473,30.2697987 46.6956312,31.2966443 46.6956312,32.5606711 L46.6956312,41.3275168 C46.6956312,42.5919463 47.7101473,43.6187919 48.9589968,43.6187919 L57.6205774,43.6187919 C58.8658462,43.6187919 59.8803624,42.5919463 59.8803624,41.3275168 L59.8803624,32.5606711 C59.8803624,31.2966443 58.8658462,30.2697987 57.6205774,30.2697987 Z" id="Fill-60" fill="#6D7C98"></path>
                            <path d="M55.2889409,33.0764295 C54.8194785,33.0764295 54.4419194,33.4630067 54.4419194,33.9341477 C54.4419194,34.4097181 54.8194785,34.7962953 55.2889409,34.7962953 C55.7588011,34.7962953 56.1367581,34.4097181 56.1367581,33.9341477 C56.1367581,33.4630067 55.7588011,33.0764295 55.2889409,33.0764295" id="Fill-62" fill="#FFFFFF"></path>
                            <path d="M57.4017204,40.783651 L48.8877419,40.783651 C48.6247634,40.783651 48.4421505,40.5823087 48.5253011,40.3894228 C49.4129032,38.3035168 50.3001075,36.2256644 51.1873118,34.1393557 C51.3026882,33.869557 51.784086,33.8655302 51.9070215,34.1353289 C52.304871,34.9974765 52.7027204,35.8592215 53.0969892,36.7205638 C53.2123656,36.9706309 53.3237634,37.2162685 53.4391398,37.4659329 C53.5545161,37.7196242 54.004086,37.7317047 54.1473118,37.4896913 C54.4098925,37.0390872 54.6684946,36.583651 54.9310753,36.133047 C55.0703226,35.8950604 55.5119355,35.9035168 55.6356667,36.1487517 C56.3434409,37.5581477 57.0516129,38.9635168 57.7558065,40.3729128 C57.8552688,40.5706309 57.6722581,40.783651 57.4017204,40.783651 M55.2887419,33.0762685 C55.7586022,33.0762685 56.1365591,33.4628456 56.1365591,33.9339866 C56.1365591,34.409557 55.7586022,34.7961342 55.2887419,34.7961342 C54.8196774,34.7961342 54.4421183,34.409557 54.4421183,33.9339866 C54.4421183,33.4628456 54.8196774,33.0762685 55.2887419,33.0762685 M57.6205376,31.2404295 L48.958957,31.2404295 C48.2352688,31.2404295 47.6504301,31.8323758 47.6504301,32.5608322 L47.6504301,41.3276779 C47.6504301,42.0561342 48.2352688,42.6525101 48.958957,42.6525101 L57.6205376,42.6525101 C58.3402473,42.6525101 58.9254839,42.0561342 58.9254839,41.3276779 L58.9254839,32.5608322 C58.9254839,31.8323758 58.3402473,31.2404295 57.6205376,31.2404295" id="Fill-64" fill="#FFFFFF"></path>
                            <path d="M57.4013624,40.7852215 L48.8889753,40.7852215 C48.6267925,40.7852215 48.4433839,40.5842819 48.5253409,40.3889799 C49.4125452,38.3054899 50.2989538,36.2240134 51.1861581,34.1405235 C51.302728,33.8715302 51.7845237,33.8654899 51.9086527,34.1344832 C52.3041151,34.9974362 52.7015667,35.8583758 53.0974269,36.7209262 C53.2120075,36.9685772 53.3249968,37.2182416 53.4395774,37.4658926 C53.5561473,37.7191812 54.0053194,37.7328725 54.1465559,37.4888456 C54.4087387,37.0382416 54.6705237,36.5856242 54.9323086,36.1346174 C55.0719538,35.8946174 55.5111796,35.9026711 55.6357065,36.1503221 C56.3426849,37.5564966 57.0496634,38.9646846 57.7570398,40.3732752 C57.8565022,40.5705906 57.6711043,40.7852215 57.4013624,40.7852215" id="Fill-66" fill="#6D7C98"></path>
                            <path d="M56.1382301,33.9352752 C56.1382301,34.4092349 55.7598753,34.7942013 55.2892194,34.7942013 C54.8209505,34.7942013 54.4410043,34.4092349 54.4410043,33.9352752 C54.4410043,33.4613154 54.8209505,33.076349 55.2892194,33.076349 C55.7598753,33.076349 56.1382301,33.4613154 56.1382301,33.9352752" id="Fill-68" fill="#6D7C98"></path>
                        </g>
                    </g>
                    <text id="Upload-a-file" font-family="Lato-Regular, Lato" font-size="11" font-weight="normal" letter-spacing="-0.22" fill="#0E75B8">
                        <tspan x="80" y="118">Upload a file </tspan>
                    </text>
                    <text id="Select-a-file-from-m" font-family="Lato-Regular, Lato" font-size="11" font-weight="normal" letter-spacing="-0.22" fill="#0E75B8">
                        <tspan x="271" y="118">Select a file from media library</tspan>
                    </text>
                </g>
                <g>
                    <g id="Group-5">
                        <g id="Group-4">
                            <g id="Group-6" transform="translate(473.000000, 0.000000)">
                                <g id="Group-3">
                                    <g id="IMAGE-+-CAPTION">
                                        <g id="arrow-btn">
                                            <path d="M0.5,4.00187852 L0.5,24.9981215 C0.5,26.9318426 2.06802409,28.5 4.00187852,28.5 L24.9981215,28.5 C26.9318426,28.5 28.5,26.9319759 28.5,24.9981215 L28.5,4.00187852 C28.5,2.06815743 26.9319759,0.5 24.9981215,0.5 L4.00187852,0.5 C2.06815743,0.5 0.5,2.06802409 0.5,4.00187852 Z" id="Rectangle-7" stroke="#D2D9E1" fill="#FFFFFF"></path>
                                            <path d="M19.9805691,16.1669568 L14.6537572,10.0581362 C14.581163,9.97488472 14.454825,9.96624529 14.3715735,10.0388395 C14.3647146,10.0448204 14.3582719,10.0512625 14.3522903,10.0581208 L9.02530902,16.1658721 C8.95270625,16.2491161 8.96133274,16.375455 9.04457681,16.4480577 C9.08100294,16.4798274 9.12770175,16.497331 9.17603575,16.497331 L12.4676435,16.497331 L12.4676435,19.7559341 C12.4676435,19.866391 12.5571866,19.9559341 12.6676435,19.9559341 L16.3382859,19.9559341 C16.4487429,19.9559341 16.5382859,19.866391 16.5382859,19.7559341 L16.5382859,16.497331 L19.8297639,16.4984003 C19.9402209,16.4984362 20.029793,16.4089222 20.0298289,16.2984653 C20.0298446,16.250116 20.0123451,16.2033977 19.9805691,16.1669568 Z" id="Shape" fill="#067BBE" fill-rule="nonzero"></path>
                                        </g>
                                        <g id="delete-btn" transform="translate(0.000000, 81.000000)">
                                            <path d="M0.5,4.00187852 L0.5,24.9981215 C0.5,26.9318426 2.06802409,28.5 4.00187852,28.5 L24.9981215,28.5 C26.9318426,28.5 28.5,26.9319759 28.5,24.9981215 L28.5,4.00187852 C28.5,2.06815743 26.9319759,0.5 24.9981215,0.5 L4.00187852,0.5 C2.06815743,0.5 0.5,2.06802409 0.5,4.00187852 Z" id="Rectangle-7" stroke="#D2D9E1" fill="#FFFFFF"></path>
                                            <g id="bin-copy-6" transform="translate(8.812500, 8.812500)" fill="#D72B36" fill-rule="nonzero" stroke="#D72B36" stroke-width="0.3">
                                                <path d="M10.787718,1.46208141 L7.80030132,1.46208141 L7.80030132,0.622375106 C7.80030132,0.347855736 7.52578195,0.121780961 7.17052158,0.121780961 L4.07006752,0.121780961 C3.71480716,0.121780961 3.44028779,0.347855736 3.44028779,0.622375106 L3.44028779,1.46208141 L0.452871122,1.46208141 C0.323685536,1.46208141 0.210648148,1.5751188 0.210648148,1.70430439 C0.210648148,1.83348997 0.323685536,1.94652736 0.452871122,1.94652736 L1.26028103,1.94652736 L1.89006076,9.68151431 C1.89006076,10.4404796 2.5036923,11.037963 3.26265761,11.037963 L7.9617833,11.037963 C8.72074861,11.037963 9.33438015,10.4243314 9.33438015,9.68151431 L9.98030808,1.94652736 L10.787718,1.94652736 C10.9169036,1.94652736 11.029941,1.83348997 11.029941,1.70430439 C11.029941,1.5751188 10.9169036,1.46208141 10.787718,1.46208141 Z M3.92473374,0.654671502 C3.94088194,0.638523304 3.98932653,0.622375106 4.07006752,0.622375106 L7.17052158,0.622375106 C7.25126258,0.622375106 7.29970717,0.654671502 7.31585537,0.654671502 L7.31585537,1.47822961 L3.92473374,1.47822961 L3.92473374,0.654671502 L3.92473374,0.654671502 Z M8.8660824,9.66536611 L8.8660824,9.68151431 C8.8660824,10.1659603 8.46237744,10.5696652 7.9779315,10.5696652 L3.26265761,10.5696652 C2.77821167,10.5696652 2.37450671,10.1659603 2.37450671,9.68151431 L1.74472698,1.94652736 L9.47971393,1.94652736 L8.8660824,9.66536611 Z" id="Shape"></path>
                                                <path d="M4.34458689,8.47039944 L4.34458689,8.47039944 C4.48992068,8.47039944 4.58680987,8.35736206 4.58680987,8.21202827 L4.40917969,4.27186791 C4.40917969,4.14268232 4.2961423,4.02964493 4.15080852,4.04579313 C4.02162293,4.04579313 3.90858554,4.15883052 3.92473374,4.3041643 L4.10236392,8.24432467 C4.10236392,8.37351026 4.21540131,8.47039944 4.34458689,8.47039944 Z" id="Shape"></path>
                                                <path d="M6.89600221,8.47039944 L6.89600221,8.47039944 C7.041336,8.47039944 7.13822519,8.37351026 7.15437339,8.24432467 L7.33200357,4.3041643 C7.33200357,4.17497872 7.23511438,4.06194133 7.10592879,4.04579313 C6.97674321,4.04579313 6.86370582,4.14268232 6.84755762,4.27186791 L6.66992744,8.21202827 C6.65377924,8.35736206 6.75066843,8.47039944 6.89600221,8.47039944 Z" id="Shape"></path>
                                            </g>
                                        </g>
                                        <g id="arrow-btn" transform="translate(14.500000, 47.500000) scale(-1, -1) translate(-14.500000, -47.500000) translate(0.000000, 33.000000)">
                                            <path d="M0.5,4.00187852 L0.5,24.9981215 C0.5,26.9318426 2.06802409,28.5 4.00187852,28.5 L24.9981215,28.5 C26.9318426,28.5 28.5,26.9319759 28.5,24.9981215 L28.5,4.00187852 C28.5,2.06815743 26.9319759,0.5 24.9981215,0.5 L4.00187852,0.5 C2.06815743,0.5 0.5,2.06802409 0.5,4.00187852 Z" id="Rectangle-7" stroke="#D2D9E1" fill="#FFFFFF"></path>
                                            <path d="M19.9805691,15.1669568 L14.6537572,9.05813624 C14.581163,8.97488472 14.454825,8.96624529 14.3715735,9.03883953 C14.3647146,9.04482042 14.3582719,9.05126248 14.3522903,9.05812079 L9.02530902,15.1658721 C8.95270625,15.2491161 8.96133274,15.375455 9.04457681,15.4480577 C9.08100294,15.4798274 9.12770175,15.497331 9.17603575,15.497331 L12.4676435,15.497331 L12.4676435,18.7559341 C12.4676435,18.866391 12.5571866,18.9559341 12.6676435,18.9559341 L16.3382859,18.9559341 C16.4487429,18.9559341 16.5382859,18.866391 16.5382859,18.7559341 L16.5382859,15.497331 L19.8297639,15.4984003 C19.9402209,15.4984362 20.029793,15.4089222 20.0298289,15.2984653 C20.0298446,15.250116 20.0123451,15.2033977 19.9805691,15.1669568 Z" id="Shape" fill="#067BBE" fill-rule="nonzero"></path>
                                        </g>
                                    </g>
                                </g>
                            </g>
                            <path d="M225.5,2.5 L225.5,153.5 L455.5,153.5 L455.5,2.5 L225.5,2.5 Z" id="Rectangle" stroke="#E4E4E4" fill="#FFFFFF" fill-rule="nonzero"></path>
                            <rect id="Rectangle" stroke="#E4E4E4" fill="#FFFFFF" fill-rule="nonzero" x="0.5" y="2.5" width="226" height="151"></rect>
                        </g>
                        <g id="upload-file-modular-page" transform="translate(304.000000, 34.000000)">
                            <g id="Group-70">
                                <path d="M65.7208323,12.2135034 L65.7208323,49.5504161 L11.1040581,49.5504161 L11.1040581,10.2363221 C11.1040581,9.18128859 11.8555957,8.30343624 12.8502194,8.12625503 L61.8891441,8.12625503 C64.0021226,8.12625503 65.7208323,9.96249664 65.7208323,12.2135034" id="Fill-1" fill="#EDF0F3"></path>
                                <path d="M71.3424054,10.2362416 L71.3424054,49.5503356 L67.7100398,49.5503356 L67.7100398,12.2134228 C67.7100398,10.6268456 67.1291796,9.17718121 66.1743409,8.08993289 L69.2218677,8.08993289 C70.3915452,8.08993289 71.3424054,9.05275168 71.3424054,10.2362416" id="Fill-3" fill="#EDF0F3"></path>
                                <path d="M71.3424054,51.5637181 L71.3424054,52.6755302 C70.6859538,55.3449262 68.2948785,57.3301611 65.4582118,57.3301611 L11.1040183,57.3301611 L11.1040183,51.5637181 L71.3424054,51.5637181 Z" id="Fill-5" fill="#EDF0F3"></path>
                                <g id="Group-9" transform="translate(0.000000, 0.148993)">
                                    <mask id="mask-8" fill="white">
                                        <use xlink:href="#path-7"></use>
                                    </mask>
                                    <g id="Clip-8"></g>
                                    <path d="M71.5215172,49.401302 L67.7101194,49.401302 L67.7101194,12.0643893 C67.7101194,10.4778121 67.1292591,9.02814765 66.1744204,7.94089933 C65.1121624,6.72519463 63.5844204,5.96371812 61.8891839,5.96371812 L12.0187538,5.96371812 C8.8081086,5.96371812 6.19861398,8.70237584 6.19861398,12.0643893 L6.19861398,49.401302 L2.38681828,49.401302 L2.38681828,8.80304698 C2.38681828,5.42009396 5.10452796,2.66975839 8.44646344,2.66975839 L65.4582914,2.66975839 C68.8002269,2.66975839 71.5215172,5.42009396 71.5215172,8.80304698 L71.5215172,49.401302 Z M8.18786129,49.401302 L8.18786129,12.0643893 C8.18786129,9.81338255 9.90657097,7.97714094 12.0187538,7.97714094 L61.8891839,7.97714094 C64.0021624,7.97714094 65.720872,9.81338255 65.720872,12.0643893 L65.720872,49.401302 L8.18786129,49.401302 Z M71.3424849,52.5265369 C70.6856355,55.1959329 68.2949581,57.1811678 65.4582914,57.1811678 L8.44646344,57.1811678 C5.22746344,57.1811678 2.58574301,54.627745 2.39915161,51.4147248 L71.5095817,51.4147248 C71.4896892,51.7972752 71.4300118,52.167745 71.3424849,52.5265369 Z M65.4582914,0.253651007 L8.44646344,0.253651007 C3.79162473,0.253651007 -0.000278494624,4.08720805 -0.000278494624,8.80304698 L-0.000278494624,51.0482819 C-0.000278494624,55.7637181 3.79162473,59.5972752 8.44646344,59.5972752 L65.4582914,59.5972752 C67.7419473,59.5972752 69.8223022,58.6751275 71.3424849,57.1771409 C72.925528,55.6227785 73.908614,53.4482819 73.908614,51.0482819 L73.908614,8.80304698 C73.908614,4.08720805 70.1171086,0.253651007 65.4582914,0.253651007 Z" id="Fill-7" fill="#6D7C98" mask="url(#mask-8)"></path>
                                </g>
                                <path d="M25.6612108,23.8107383 C25.6612108,24.5395973 25.076372,25.1355705 24.3562645,25.1355705 L15.6911032,25.1355705 C14.9709957,25.1355705 14.386157,24.5395973 14.386157,23.8107383 L14.386157,15.0438926 C14.386157,14.3154362 14.9709957,13.7234899 15.6911032,13.7234899 L24.3562645,13.7234899 C25.076372,13.7234899 25.6612108,14.3154362 25.6612108,15.0438926 L25.6612108,23.8107383 Z M24.3562645,12.7530201 L15.6911032,12.7530201 C14.4458344,12.7530201 13.4317161,13.7798658 13.4317161,15.0438926 L13.4317161,23.8107383 C13.4317161,25.0751678 14.4458344,26.1020134 15.6911032,26.1020134 L24.3562645,26.1020134 C25.6019312,26.1020134 26.6160495,25.0751678 26.6160495,23.8107383 L26.6160495,15.0438926 C26.6160495,13.7798658 25.6019312,12.7530201 24.3562645,12.7530201 Z" id="Fill-10" fill="#6D7C98"></path>
                                <path d="M22.024986,15.559651 C21.5555237,15.559651 21.1775667,15.9462282 21.1775667,16.4173691 C21.1775667,16.8929396 21.5555237,17.2795168 22.024986,17.2795168 C22.4944484,17.2795168 22.8724054,16.8929396 22.8724054,16.4173691 C22.8724054,15.9462282 22.4944484,15.559651 22.024986,15.559651" id="Fill-12" fill="#FFFFFF"></path>
                                <path d="M24.1374075,23.2668725 L15.6238269,23.2668725 C15.3608484,23.2668725 15.1778376,23.0655302 15.261386,22.8726443 C16.1489882,20.7867383 17.0357946,18.7088859 17.9229989,16.6225772 C18.0387731,16.3527785 18.5197731,16.3487517 18.6431065,16.6185503 C19.0409559,17.480698 19.4388054,18.342443 19.8330742,19.2037852 C19.9480527,19.4538523 20.0594505,19.6994899 20.1748269,19.9491544 C20.2902032,20.2028456 20.7397731,20.2149262 20.8829989,19.9729128 C21.1455796,19.5223087 21.4041817,19.0668725 21.6667624,18.6162685 C21.8060097,18.3782819 22.2476226,18.3867383 22.3713538,18.6319732 C23.0795258,20.0413691 23.7833215,21.4467383 24.4914935,22.8561342 C24.5909559,23.0538523 24.408343,23.2668725 24.1374075,23.2668725 M22.0248269,15.5594899 C22.4942892,15.5594899 22.8722462,15.9460671 22.8722462,16.4172081 C22.8722462,16.8927785 22.4942892,17.2793557 22.0248269,17.2793557 C21.5557624,17.2793557 21.1778054,16.8927785 21.1778054,16.4172081 C21.1778054,15.9460671 21.5557624,15.5594899 22.0248269,15.5594899 M24.3562247,13.723651 L15.6914613,13.723651 C14.9709559,13.723651 14.3861172,14.3155973 14.3861172,15.0440537 L14.3861172,23.8108993 C14.3861172,24.5393557 14.9709559,25.1357315 15.6914613,25.1357315 L24.3562247,25.1357315 C25.0763323,25.1357315 25.661171,24.5393557 25.661171,23.8108993 L25.661171,15.0440537 C25.661171,14.3155973 25.0763323,13.723651 24.3562247,13.723651" id="Fill-14" fill="#FFFFFF"></path>
                                <path d="M24.1370097,23.268443 L15.6246226,23.268443 C15.3624398,23.268443 15.1786333,23.0675034 15.2609882,22.8722013 C16.1477946,20.7887114 17.0346011,18.7072349 17.9218054,16.623745 C18.0383753,16.3547517 18.5197731,16.3487114 18.6439022,16.6177047 C19.0393645,17.4806577 19.437214,18.3415973 19.8330742,19.2041477 C19.9476548,19.4517987 20.0602462,19.7014631 20.1748269,19.9491141 C20.2913968,20.2024027 20.7405688,20.216094 20.8822032,19.9720671 C21.1439882,19.5214631 21.4057731,19.0688456 21.6675581,18.6178389 C21.8072032,18.3778389 22.2468269,18.3858926 22.3713538,18.6335436 C23.0783323,20.0397181 23.7853108,21.447906 24.4926871,22.8564966 C24.5921495,23.0538121 24.4067516,23.268443 24.1370097,23.268443" id="Fill-16" fill="#6D7C98"></path>
                                <path d="M22.8735194,16.4184966 C22.8735194,16.8924564 22.4951645,17.2774228 22.0249065,17.2774228 C21.5566376,17.2774228 21.1762935,16.8924564 21.1762935,16.4184966 C21.1762935,15.9445369 21.5566376,15.5595705 22.0249065,15.5595705 C22.4951645,15.5595705 22.8735194,15.9445369 22.8735194,16.4184966" id="Fill-18" fill="#6D7C98"></path>
                                <path d="M42.3669892,23.8107383 C42.3669892,24.5395973 41.7785699,25.1355705 41.0580645,25.1355705 L32.3968817,25.1355705 C31.6767742,25.1355705 31.0875591,24.5395973 31.0875591,23.8107383 L31.0875591,15.0438926 C31.0875591,14.3154362 31.6767742,13.7234899 32.3968817,13.7234899 L41.0580645,13.7234899 C41.7785699,13.7234899 42.3669892,14.3154362 42.3669892,15.0438926 L42.3669892,23.8107383 Z M41.0580645,12.7530201 L32.3968817,12.7530201 C31.1476344,12.7530201 30.1331183,13.7798658 30.1331183,15.0438926 L30.1331183,23.8107383 C30.1331183,25.0751678 31.1476344,26.1020134 32.3968817,26.1020134 L41.0580645,26.1020134 C42.3077097,26.1020134 43.3214301,25.0751678 43.3214301,23.8107383 L43.3214301,15.0438926 C43.3214301,13.7798658 42.3077097,12.7530201 41.0580645,12.7530201 Z" id="Fill-20" fill="#6D7C98"></path>
                                <path d="M38.7307645,15.559651 C38.2609043,15.559651 37.8789688,15.9462282 37.8789688,16.4173691 C37.8789688,16.8929396 38.2609043,17.2795168 38.7307645,17.2795168 C39.2002269,17.2795168 39.5781839,16.8929396 39.5781839,16.4173691 C39.5781839,15.9462282 39.2002269,15.559651 38.7307645,15.559651" id="Fill-22" fill="#FFFFFF"></path>
                                <path d="M40.8392871,23.2668725 L32.3292871,23.2668725 C32.0667065,23.2668725 31.8832978,23.0655302 31.9632656,22.8726443 C32.8504699,20.7867383 33.7372763,18.7088859 34.6248785,16.6225772 C34.7402548,16.3527785 35.2256312,16.3487517 35.3489645,16.6185503 C35.7428355,17.480698 36.1406849,18.342443 36.5385344,19.2037852 C36.6499323,19.4538523 36.7653086,19.6994899 36.8806849,19.9491544 C36.9960613,20.2028456 37.4456312,20.2149262 37.5844806,19.9729128 C37.8470613,19.5223087 38.1100398,19.0668725 38.3726204,18.6162685 C38.5114699,18.3782819 38.9495022,18.3867383 39.0764161,18.6319732 C39.7810075,20.0413691 40.4891796,21.4467383 41.1969538,22.8561342 C41.2964161,23.0538523 41.1098247,23.2668725 40.8392871,23.2668725 M38.7306849,15.5594899 C39.2001473,15.5594899 39.5781043,15.9460671 39.5781043,16.4172081 C39.5781043,16.8927785 39.2001473,17.2793557 38.7306849,17.2793557 C38.2612226,17.2793557 37.8792871,16.8927785 37.8792871,16.4172081 C37.8792871,15.9460671 38.2612226,15.5594899 38.7306849,15.5594899 M41.0581043,13.723651 L32.3969215,13.723651 C31.676814,13.723651 31.0875989,14.3155973 31.0875989,15.0440537 L31.0875989,23.8108993 C31.0875989,24.5393557 31.676814,25.1357315 32.3969215,25.1357315 L41.0581043,25.1357315 C41.7782118,25.1357315 42.367029,24.5393557 42.367029,23.8108993 L42.367029,15.0440537 C42.367029,14.3155973 41.7782118,13.723651 41.0581043,13.723651" id="Fill-24" fill="#FFFFFF"></path>
                                <path d="M40.8408785,23.268443 L32.3284914,23.268443 C32.0663086,23.268443 31.8829,23.0675034 31.964857,22.8722013 C32.8520613,20.7887114 33.7384699,18.7072349 34.6256742,16.623745 C34.7422441,16.3547517 35.2240398,16.3487114 35.3481688,16.6177047 C35.7436312,17.4806577 36.1410828,18.3415973 36.536943,19.2041477 C36.6515237,19.4517987 36.7645129,19.7014631 36.8790935,19.9491141 C36.9956634,20.2024027 37.4448355,20.216094 37.586072,19.9720671 C37.8482548,19.5214631 38.1100398,19.0688456 38.3718247,18.6178389 C38.5114699,18.3778389 38.9506957,18.3858926 39.0752226,18.6335436 C39.7822011,20.0397181 40.4891796,21.447906 41.1965559,22.8564966 C41.2960183,23.0538121 41.1106204,23.268443 40.8408785,23.268443" id="Fill-26" fill="#6D7C98"></path>
                                <path d="M39.5777462,16.4184966 C39.5777462,16.8924564 39.1993914,17.2774228 38.7287355,17.2774228 C38.2604667,17.2774228 37.8805204,16.8924564 37.8805204,16.4184966 C37.8805204,15.9445369 38.2604667,15.5595705 38.7287355,15.5595705 C39.1993914,15.5595705 39.5777462,15.9445369 39.5777462,16.4184966" id="Fill-28" fill="#6D7C98"></path>
                                <path d="M59.0685108,23.8107383 C59.0685108,24.5395973 58.483672,25.1355705 57.7639624,25.1355705 L49.1023817,25.1355705 C48.382672,25.1355705 47.793457,24.5395973 47.793457,23.8107383 L47.793457,15.0438926 C47.793457,14.3154362 48.382672,13.7234899 49.1023817,13.7234899 L57.7639624,13.7234899 C58.483672,13.7234899 59.0685108,14.3154362 59.0685108,15.0438926 L59.0685108,23.8107383 Z M57.7639624,12.7530201 L49.1023817,12.7530201 C47.8535323,12.7530201 46.8390161,13.7798658 46.8390161,15.0438926 L46.8390161,23.8107383 C46.8390161,25.0751678 47.8535323,26.1020134 49.1023817,26.1020134 L57.7639624,26.1020134 C59.0092312,26.1020134 60.027328,25.0751678 60.027328,23.8107383 L60.027328,15.0438926 C60.027328,13.7798658 59.0092312,12.7530201 57.7639624,12.7530201 Z" id="Fill-30" fill="#6D7C98"></path>
                                <path d="M55.432286,15.559651 C54.9628237,15.559651 54.5848667,15.9462282 54.5848667,16.4173691 C54.5848667,16.8929396 54.9628237,17.2795168 55.432286,17.2795168 C55.9021462,17.2795168 56.2797054,16.8929396 56.2797054,16.4173691 C56.2797054,15.9462282 55.9021462,15.559651 55.432286,15.559651" id="Fill-32" fill="#FFFFFF"></path>
                                <path d="M57.5447075,23.2668725 L49.0311269,23.2668725 C48.7725247,23.2668725 48.5851376,23.0655302 48.668686,22.8726443 C49.5558903,20.7867383 50.4430946,18.7088859 51.3306968,16.6225772 C51.4456753,16.3527785 51.927471,16.3487517 52.0504065,16.6185503 C52.4482559,17.480698 52.8461054,18.342443 53.2403742,19.2037852 C53.3557505,19.4538523 53.4667505,19.6994899 53.5825247,19.9491544 C53.6975032,20.2028456 54.147471,20.2149262 54.2902989,19.9729128 C54.5528796,19.5223087 54.8158581,19.0668725 55.0744602,18.6162685 C55.2137075,18.3782819 55.6549226,18.3867383 55.7786538,18.6319732 C56.4868258,20.0413691 57.1949978,21.4467383 57.8991914,22.8561342 C57.9986538,23.0538523 57.815643,23.2668725 57.5447075,23.2668725 M55.4321269,15.5594899 C55.9019871,15.5594899 56.2795462,15.9460671 56.2795462,16.4172081 C56.2795462,16.8927785 55.9019871,17.2793557 55.4321269,17.2793557 C54.9630624,17.2793557 54.5851054,16.8927785 54.5851054,16.4172081 C54.5851054,15.9460671 54.9630624,15.5594899 55.4321269,15.5594899 M57.7639226,13.723651 L49.1023419,13.723651 C48.3826323,13.723651 47.7934172,14.3155973 47.7934172,15.0440537 L47.7934172,23.8108993 C47.7934172,24.5393557 48.3826323,25.1357315 49.1023419,25.1357315 L57.7639226,25.1357315 C58.4836323,25.1357315 59.068471,24.5393557 59.068471,23.8108993 L59.068471,15.0440537 C59.068471,14.3155973 58.4836323,13.723651 57.7639226,13.723651" id="Fill-34" fill="#FFFFFF"></path>
                                <path d="M57.5451054,23.268443 L49.0323204,23.268443 C48.7701376,23.268443 48.586729,23.0675034 48.6690839,22.8722013 C49.5558903,20.7887114 50.4426968,18.7072349 51.3295032,16.623745 C51.4460731,16.3547517 51.9278688,16.3487114 52.0519978,16.6177047 C52.4474602,17.4806577 52.8453097,18.3415973 53.2411699,19.2041477 C53.3557505,19.4517987 53.4683419,19.7014631 53.5829226,19.9491141 C53.6994925,20.2024027 54.1486645,20.216094 54.2899011,19.9720671 C54.5520839,19.5214631 54.8138688,19.0688456 55.0756538,18.6178389 C55.2152989,18.3778389 55.6545247,18.3858926 55.7790516,18.6335436 C56.4860301,20.0397181 57.1934065,21.447906 57.9007828,22.8564966 C57.9998473,23.0538121 57.8144495,23.268443 57.5451054,23.268443" id="Fill-36" fill="#6D7C98"></path>
                                <path d="M56.2816151,16.4184966 C56.2816151,16.8924564 55.9032602,17.2774228 55.4330022,17.2774228 C54.9647333,17.2774228 54.5843892,16.8924564 54.5843892,16.4184966 C54.5843892,15.9445369 54.9647333,15.5595705 55.4330022,15.5595705 C55.9032602,15.5595705 56.2816151,15.9445369 56.2816151,16.4184966" id="Fill-38" fill="#6D7C98"></path>
                                <path d="M25.5178258,41.3275168 C25.5178258,42.0563758 24.9329871,42.652349 24.2132774,42.652349 L15.5477183,42.652349 C14.8280086,42.652349 14.242772,42.0563758 14.242772,41.3275168 L14.242772,32.5606711 C14.242772,31.8322148 14.8280086,31.2402685 15.5477183,31.2402685 L24.2132774,31.2402685 C24.9329871,31.2402685 25.5178258,31.8322148 25.5178258,32.5606711 L25.5178258,41.3275168 Z M24.2132774,30.2697987 L15.5477183,30.2697987 C14.3028473,30.2697987 13.2883312,31.2966443 13.2883312,32.5606711 L13.2883312,41.3275168 C13.2883312,42.5919463 14.3028473,43.6187919 15.5477183,43.6187919 L24.2132774,43.6187919 C25.4585462,43.6187919 26.4726645,42.5919463 26.4726645,41.3275168 L26.4726645,32.5606711 C26.4726645,31.2966443 25.4585462,30.2697987 24.2132774,30.2697987 Z" id="Fill-40" fill="#6D7C98"></path>
                                <path d="M21.8816409,33.0764295 C21.4121785,33.0764295 21.0342215,33.4630067 21.0342215,33.9341477 C21.0342215,34.4097181 21.4121785,34.7962953 21.8816409,34.7962953 C22.3515011,34.7962953 22.7290602,34.4097181 22.7290602,33.9341477 C22.7290602,33.4630067 22.3515011,33.0764295 21.8816409,33.0764295" id="Fill-42" fill="#FFFFFF"></path>
                                <path d="M23.9940226,40.783651 L15.4804419,40.783651 C15.2174634,40.783651 15.0344527,40.5823087 15.1180011,40.3894228 C16.0056032,38.3035168 16.8924097,36.2256644 17.7800118,34.1393557 C17.8953882,33.869557 18.376786,33.8655302 18.4997215,34.1353289 C18.897571,34.9974765 19.2954204,35.8592215 19.6896892,36.7205638 C19.8050656,36.9706309 19.9160656,37.2162685 20.0318398,37.4659329 C20.1468183,37.7196242 20.596786,37.7317047 20.739614,37.4896913 C21.0021946,37.0390872 21.2611946,36.583651 21.5237753,36.133047 C21.6630226,35.8950604 22.1042376,35.9035168 22.2279688,36.1487517 C22.9361409,37.5581477 23.6399366,38.9635168 24.3485065,40.3729128 C24.4479688,40.5706309 24.2649581,40.783651 23.9940226,40.783651 M21.8814419,33.0762685 C22.3513022,33.0762685 22.7288613,33.4628456 22.7288613,33.9339866 C22.7288613,34.409557 22.3513022,34.7961342 21.8814419,34.7961342 C21.4123774,34.7961342 21.0344204,34.409557 21.0344204,33.9339866 C21.0344204,33.4628456 21.4123774,33.0762685 21.8814419,33.0762685 M24.2132376,31.2404295 L15.5480763,31.2404295 C14.8279688,31.2404295 14.2427323,31.8323758 14.2427323,32.5608322 L14.2427323,41.3276779 C14.2427323,42.0561342 14.8279688,42.6525101 15.5480763,42.6525101 L24.2132376,42.6525101 C24.9329473,42.6525101 25.517786,42.0561342 25.517786,41.3276779 L25.517786,32.5608322 C25.517786,31.8323758 24.9329473,31.2404295 24.2132376,31.2404295" id="Fill-44" fill="#FFFFFF"></path>
                                <path d="M23.9936247,40.7852215 L15.4808398,40.7852215 C15.218657,40.7852215 15.0352484,40.5842819 15.1176032,40.3889799 C16.0044097,38.3054899 16.8912161,36.2240134 17.7780226,34.1405235 C17.8945925,33.8715302 18.3763882,33.8654899 18.5005172,34.1344832 C18.8959796,34.9974362 19.293829,35.8583758 19.6896892,36.7209262 C19.8042699,36.9685772 19.9168613,37.2182416 20.0314419,37.4658926 C20.1480118,37.7191812 20.5971839,37.7328725 20.7384204,37.4888456 C21.0006032,37.0382416 21.2623882,36.5856242 21.5241731,36.1346174 C21.6638183,35.8946174 22.1030441,35.9026711 22.227571,36.1503221 C22.9345495,37.5564966 23.6419258,38.9646846 24.3493022,40.3732752 C24.4483667,40.5705906 24.2629688,40.7852215 23.9936247,40.7852215" id="Fill-46" fill="#6D7C98"></path>
                                <path d="M22.7301742,33.9352752 C22.7301742,34.4092349 22.3518194,34.7942013 21.8815613,34.7942013 C21.4132925,34.7942013 21.0329484,34.4092349 21.0329484,33.9352752 C21.0329484,33.4613154 21.4132925,33.076349 21.8815613,33.076349 C22.3518194,33.076349 22.7301742,33.4613154 22.7301742,33.9352752" id="Fill-48" fill="#6D7C98"></path>
                                <path d="M42.2236043,41.3275168 C42.2236043,42.0563758 41.6351849,42.652349 40.9150774,42.652349 L32.2534968,42.652349 C31.5337871,42.652349 30.944572,42.0563758 30.944572,41.3275168 L30.944572,32.5606711 C30.944572,31.8322148 31.5337871,31.2402685 32.2534968,31.2402685 L40.9150774,31.2402685 C41.6351849,31.2402685 42.2236043,31.8322148 42.2236043,32.5606711 L42.2236043,41.3275168 Z M40.9150774,30.2697987 L32.2534968,30.2697987 C31.0046473,30.2697987 29.9897333,31.2966443 29.9897333,32.5606711 L29.9897333,41.3275168 C29.9897333,42.5919463 31.0046473,43.6187919 32.2534968,43.6187919 L40.9150774,43.6187919 C42.1643247,43.6187919 43.178443,42.5919463 43.178443,41.3275168 L43.178443,32.5606711 C43.178443,31.2966443 42.1643247,30.2697987 40.9150774,30.2697987 Z" id="Fill-50" fill="#6D7C98"></path>
                                <path d="M38.5874194,33.0764295 C38.1175591,33.0764295 37.7360215,33.4630067 37.7360215,33.9341477 C37.7360215,34.4097181 38.1175591,34.7962953 38.5874194,34.7962953 C39.0568817,34.7962953 39.4348387,34.4097181 39.4348387,33.9341477 C39.4348387,33.4630067 39.0568817,33.0764295 38.5874194,33.0764295" id="Fill-52" fill="#FFFFFF"></path>
                                <path d="M40.6959419,40.783651 L32.1859419,40.783651 C31.9233613,40.783651 31.7403505,40.5823087 31.8199204,40.3894228 C32.7071247,38.3035168 33.594329,36.2256644 34.4815333,34.1393557 C34.5969097,33.869557 35.0783075,33.8655302 35.2056194,34.1353289 C35.5994903,34.9974765 35.9973398,35.8592215 36.3951892,36.7205638 C36.5069849,36.9706309 36.6219634,37.2162685 36.7377376,37.4659329 C36.8527161,37.7196242 37.3026839,37.7317047 37.4415333,37.4896913 C37.704114,37.0390872 37.9670925,36.583651 38.2296731,36.133047 C38.3685226,35.8950604 38.806157,35.9035168 38.9334688,36.1487517 C39.6376624,37.5581477 40.3458344,38.9635168 41.0540065,40.3729128 C41.1534688,40.5706309 40.9664796,40.783651 40.6959419,40.783651 M38.5873398,33.0762685 C39.0568022,33.0762685 39.4347591,33.4628456 39.4347591,33.9339866 C39.4347591,34.409557 39.0568022,34.7961342 38.5873398,34.7961342 C38.1178774,34.7961342 37.7363398,34.409557 37.7363398,33.9339866 C37.7363398,33.4628456 38.1178774,33.0762685 38.5873398,33.0762685 M40.915157,31.2404295 L32.2535763,31.2404295 C31.5338667,31.2404295 30.9446516,31.8323758 30.9446516,32.5608322 L30.9446516,41.3276779 C30.9446516,42.0561342 31.5338667,42.6525101 32.2535763,42.6525101 L40.915157,42.6525101 C41.6348667,42.6525101 42.2236839,42.0561342 42.2236839,41.3276779 L42.2236839,32.5608322 C42.2236839,31.8323758 41.6348667,31.2404295 40.915157,31.2404295" id="Fill-54" fill="#FFFFFF"></path>
                                <path d="M40.6974935,40.7852215 L32.1851065,40.7852215 C31.9229237,40.7852215 31.7391172,40.5842819 31.821472,40.3889799 C32.7082785,38.3054899 33.5950849,36.2240134 34.4822892,34.1405235 C34.5988591,33.8715302 35.080257,33.8654899 35.204386,34.1344832 C35.5998484,34.9974362 35.9976978,35.8583758 36.3935581,36.7209262 C36.5081387,36.9685772 36.6207301,37.2182416 36.7353108,37.4658926 C36.8518806,37.7191812 37.3014505,37.7328725 37.4426871,37.4888456 C37.704472,37.0382416 37.966257,36.5856242 38.2280419,36.1346174 C38.3676871,35.8946174 38.8073108,35.9026711 38.9318376,36.1503221 C39.6388161,37.5564966 40.3457946,38.9646846 41.053171,40.3732752 C41.1526333,40.5705906 40.9672355,40.7852215 40.6974935,40.7852215" id="Fill-56" fill="#6D7C98"></path>
                                <path d="M39.4340032,33.9352752 C39.4340032,34.4092349 39.0556484,34.7942013 38.5853903,34.7942013 C38.1171215,34.7942013 37.7367774,34.4092349 37.7367774,33.9352752 C37.7367774,33.4613154 38.1171215,33.076349 38.5853903,33.076349 C39.0556484,33.076349 39.4340032,33.4613154 39.4340032,33.9352752" id="Fill-58" fill="#6D7C98"></path>
                                <path d="M58.9255237,41.3275168 C58.9255237,42.0563758 58.3402871,42.652349 57.6205774,42.652349 L48.9589968,42.652349 C48.2353086,42.652349 47.6504699,42.0563758 47.6504699,41.3275168 L47.6504699,32.5606711 C47.6504699,31.8322148 48.2353086,31.2402685 48.9589968,31.2402685 L57.6205774,31.2402685 C58.3402871,31.2402685 58.9255237,31.8322148 58.9255237,32.5606711 L58.9255237,41.3275168 Z M57.6205774,30.2697987 L48.9589968,30.2697987 C47.7101473,30.2697987 46.6956312,31.2966443 46.6956312,32.5606711 L46.6956312,41.3275168 C46.6956312,42.5919463 47.7101473,43.6187919 48.9589968,43.6187919 L57.6205774,43.6187919 C58.8658462,43.6187919 59.8803624,42.5919463 59.8803624,41.3275168 L59.8803624,32.5606711 C59.8803624,31.2966443 58.8658462,30.2697987 57.6205774,30.2697987 Z" id="Fill-60" fill="#6D7C98"></path>
                                <path d="M55.2889409,33.0764295 C54.8194785,33.0764295 54.4419194,33.4630067 54.4419194,33.9341477 C54.4419194,34.4097181 54.8194785,34.7962953 55.2889409,34.7962953 C55.7588011,34.7962953 56.1367581,34.4097181 56.1367581,33.9341477 C56.1367581,33.4630067 55.7588011,33.0764295 55.2889409,33.0764295" id="Fill-62" fill="#FFFFFF"></path>
                                <path d="M57.4017204,40.783651 L48.8877419,40.783651 C48.6247634,40.783651 48.4421505,40.5823087 48.5253011,40.3894228 C49.4129032,38.3035168 50.3001075,36.2256644 51.1873118,34.1393557 C51.3026882,33.869557 51.784086,33.8655302 51.9070215,34.1353289 C52.304871,34.9974765 52.7027204,35.8592215 53.0969892,36.7205638 C53.2123656,36.9706309 53.3237634,37.2162685 53.4391398,37.4659329 C53.5545161,37.7196242 54.004086,37.7317047 54.1473118,37.4896913 C54.4098925,37.0390872 54.6684946,36.583651 54.9310753,36.133047 C55.0703226,35.8950604 55.5119355,35.9035168 55.6356667,36.1487517 C56.3434409,37.5581477 57.0516129,38.9635168 57.7558065,40.3729128 C57.8552688,40.5706309 57.6722581,40.783651 57.4017204,40.783651 M55.2887419,33.0762685 C55.7586022,33.0762685 56.1365591,33.4628456 56.1365591,33.9339866 C56.1365591,34.409557 55.7586022,34.7961342 55.2887419,34.7961342 C54.8196774,34.7961342 54.4421183,34.409557 54.4421183,33.9339866 C54.4421183,33.4628456 54.8196774,33.0762685 55.2887419,33.0762685 M57.6205376,31.2404295 L48.958957,31.2404295 C48.2352688,31.2404295 47.6504301,31.8323758 47.6504301,32.5608322 L47.6504301,41.3276779 C47.6504301,42.0561342 48.2352688,42.6525101 48.958957,42.6525101 L57.6205376,42.6525101 C58.3402473,42.6525101 58.9254839,42.0561342 58.9254839,41.3276779 L58.9254839,32.5608322 C58.9254839,31.8323758 58.3402473,31.2404295 57.6205376,31.2404295" id="Fill-64" fill="#FFFFFF"></path>
                                <path d="M57.4013624,40.7852215 L48.8889753,40.7852215 C48.6267925,40.7852215 48.4433839,40.5842819 48.5253409,40.3889799 C49.4125452,38.3054899 50.2989538,36.2240134 51.1861581,34.1405235 C51.302728,33.8715302 51.7845237,33.8654899 51.9086527,34.1344832 C52.3041151,34.9974362 52.7015667,35.8583758 53.0974269,36.7209262 C53.2120075,36.9685772 53.3249968,37.2182416 53.4395774,37.4658926 C53.5561473,37.7191812 54.0053194,37.7328725 54.1465559,37.4888456 C54.4087387,37.0382416 54.6705237,36.5856242 54.9323086,36.1346174 C55.0719538,35.8946174 55.5111796,35.9026711 55.6357065,36.1503221 C56.3426849,37.5564966 57.0496634,38.9646846 57.7570398,40.3732752 C57.8565022,40.5705906 57.6711043,40.7852215 57.4013624,40.7852215" id="Fill-66" fill="#6D7C98"></path>
                                <path d="M56.1382301,33.9352752 C56.1382301,34.4092349 55.7598753,34.7942013 55.2892194,34.7942013 C54.8209505,34.7942013 54.4410043,34.4092349 54.4410043,33.9352752 C54.4410043,33.4613154 54.8209505,33.076349 55.2892194,33.076349 C55.7598753,33.076349 56.1382301,33.4613154 56.1382301,33.9352752" id="Fill-68" fill="#6D7C98"></path>
                            </g>
                        </g>
                        <text id="Upload-a-file" font-family="Lato-Regular, Lato" font-size="11" font-weight="normal" letter-spacing="-0.22" fill="#0E75B8">
                            <tspan x="80" y="118">Upload a file </tspan>
                        </text>
                        <text id="Select-a-file-from-m" font-family="Lato-Regular, Lato" font-size="11" font-weight="normal" letter-spacing="-0.22" fill="#0E75B8">
                            <tspan x="271" y="118">Select a file from media library</tspan>
                        </text>
                    </g>
                    <g id="Group-25" transform="translate(86.000000, 30.000000)">
                        <path d="M39.6201,15.4213 L39.6201,16.2263 L35.7841,16.2263 C34.3701,16.2263 33.2631,15.1183 33.2631,13.7053 L33.2631,12.4643 L36.6631,12.4643 C38.2961,12.4643 39.6201,13.7873 39.6201,15.4213" id="Fill-1" fill="#EDF0F3"></path>
                        <path d="M35.7842,18.2367 L39.6202,18.2367 L39.6202,59.5767 C39.6202,60.5217 39.1762,61.3637 38.4852,61.9047 L4.5312,61.9047 C3.1172,61.9047 2.0102,60.7977 2.0102,59.3827 L2.0102,13.5517 C2.5522,12.8877 3.3762,12.4647 4.3002,12.4647 L31.2532,12.4647 L31.2532,13.7057 C31.2532,14.9227 31.7222,16.0627 32.5752,16.9147 C33.4282,17.7667 34.5672,18.2367 35.7842,18.2367" id="Fill-3" fill="#EDF0F3"></path>
                        <g id="Group-7" transform="translate(0.000000, 0.811600)">
                            <mask id="mask-10" fill="white">
                                <use xlink:href="#path-9"></use>
                            </mask>
                            <g id="Clip-6"></g>
                            <path d="M35.7832,15.4154 C34.3702,15.4154 33.2612,14.3064 33.2612,12.8944 L33.2612,2.9144 C33.2872,2.9294 33.3092,2.9474 33.3392,2.9624 L45.7362,15.1224 C45.8142,15.2004 45.8952,15.3004 45.9772,15.4154 L35.7832,15.4154 Z M47.1532,13.7174 L34.7262,1.5304 C33.8732,0.6784 32.7122,0.1884 31.5372,0.1884 L4.5322,0.1884 C3.3152,0.1884 2.1732,0.6594 1.3202,1.5124 C0.4682,2.3614 0.0002,3.5044 0.0002,4.7204 L0.0002,62.4684 C0.0002,63.6854 0.4682,64.8264 1.3202,65.6764 C2.1732,66.5284 3.3152,67.0004 4.5322,67.0004 L41.9752,67.0004 C41.4092,66.4144 40.9372,65.7354 40.5852,64.9894 L4.5322,64.9894 C3.1192,64.9894 2.0102,63.8814 2.0102,62.4684 L2.0102,62.3464 C2.7482,62.8394 3.6162,63.1034 4.5322,63.1034 L39.9802,63.1034 C39.8952,62.6534 39.8512,62.1894 39.8512,61.7194 C39.8512,61.5084 39.8582,61.3004 39.8812,61.0924 L4.5322,61.0924 C3.1192,61.0924 2.0102,59.9834 2.0102,58.5704 L2.0102,4.7204 C2.0102,3.3074 3.1192,2.1984 4.5322,2.1984 L31.2512,2.1984 L31.2512,12.8944 C31.2512,14.1094 31.7222,15.2524 32.5752,16.1044 C33.4282,16.9544 34.5662,17.4254 35.7832,17.4254 L46.4782,17.4254 L46.4782,54.1574 C46.8042,54.1094 47.1412,54.0874 47.4832,54.0874 C47.8242,54.0874 48.1582,54.1094 48.4882,54.1574 L48.4882,16.9794 C48.4882,15.8424 48.0022,14.6514 47.1532,13.7174 Z" id="Fill-5" fill="#6D7C98" mask="url(#mask-10)"></path>
                        </g>
                        <path d="M19.8125,19.9164 L8.8025,19.9164 C8.2495,19.9164 7.7995,19.5304 7.7995,19.0554 C7.7995,18.5784 8.2495,18.1924 8.8025,18.1924 L19.8125,18.1924 C20.3665,18.1924 20.8145,18.5784 20.8145,19.0554 C20.8145,19.5304 20.3665,19.9164 19.8125,19.9164" id="Fill-8" fill="#6D7C98"></path>
                        <path d="M17.6055,22.8998 L8.8025,22.8998 C8.2495,22.8998 7.7995,22.5138 7.7995,22.0388 C7.7995,21.5618 8.2495,21.1758 8.8025,21.1758 L17.6055,21.1758 C18.1605,21.1758 18.6085,21.5618 18.6085,22.0388 C18.6085,22.5138 18.1605,22.8998 17.6055,22.8998" id="Fill-10" fill="#6D7C98"></path>
                        <path d="M16.0019,26.2582 L8.8029,26.2582 C8.2489,26.2582 7.7999,25.8712 7.7999,25.3962 C7.7999,24.9202 8.2489,24.5332 8.8029,24.5332 L16.0019,24.5332 C16.5559,24.5332 17.0039,24.9202 17.0039,25.3962 C17.0039,25.8712 16.5559,26.2582 16.0019,26.2582" id="Fill-12" fill="#6D7C98"></path>
                        <path d="M19.8125,29.8686 L8.8025,29.8686 C8.2495,29.8686 7.7995,29.4826 7.7995,29.0066 C7.7995,28.5306 8.2495,28.1436 8.8025,28.1436 L19.8125,28.1436 C20.3665,28.1436 20.8145,28.5306 20.8145,29.0066 C20.8145,29.4826 20.3665,29.8686 19.8125,29.8686" id="Fill-14" fill="#6D7C98"></path>
                        <path d="M17.6055,33.226 L8.8025,33.226 C8.2495,33.226 7.7995,32.84 7.7995,32.364 C7.7995,31.888 8.2495,31.502 8.8025,31.502 L17.6055,31.502 C18.1605,31.502 18.6085,31.888 18.6085,32.364 C18.6085,32.84 18.1605,33.226 17.6055,33.226" id="Fill-16" fill="#6D7C98"></path>
                        <path d="M16.0019,36.5834 L8.8029,36.5834 C8.2489,36.5834 7.7999,36.1974 7.7999,35.7224 C7.7999,35.2454 8.2489,34.8594 8.8029,34.8594 L16.0019,34.8594 C16.5559,34.8594 17.0039,35.2454 17.0039,35.7224 C17.0039,36.1974 16.5559,36.5834 16.0019,36.5834" id="Fill-18" fill="#6D7C98"></path>
                        <path d="M46.3154,61.5776 L46.3154,61.6106 L46.2934,61.6106 C46.3034,61.5996 46.3154,61.5886 46.3154,61.5776" id="Fill-20" fill="#FFFFFF"></path>
                        <g id="Group-24" transform="translate(42.000000, 57.811600)">
                            <mask id="mask-12" fill="white">
                                <use xlink:href="#path-11"></use>
                            </mask>
                            <g id="Clip-23"></g>
                            <path d="M4.5517,9.1205 C4.1097,9.1205 3.7497,8.7645 3.7497,8.3255 L3.7497,2.7495 L2.1657,4.2215 C1.8417,4.5215 1.3347,4.5055 1.0307,4.1855 C0.8867,4.0315 0.8147,3.8365 0.8147,3.6415 C0.8147,3.4305 0.8997,3.2195 1.0687,3.0615 L4.0037,0.3355 L4.0037,0.3345 C4.1447,0.2045 4.3197,0.1345 4.4967,0.1215 L4.4977,0.1215 C4.5517,0.1185 4.6037,0.1195 4.6567,0.1265 C4.7937,0.1445 4.9267,0.1965 5.0407,0.2845 C5.0607,0.3005 5.0797,0.3155 5.0977,0.3325 L8.0537,3.0035 C8.3807,3.2995 8.4047,3.8015 8.1057,4.1255 C7.8067,4.4495 7.2997,4.4735 6.9727,4.1775 L5.3547,2.7155 L5.3547,8.3255 C5.3547,8.7645 4.9947,9.1205 4.5517,9.1205" id="Fill-22" fill="#6D7C98" mask="url(#mask-12)"></path>
                        </g>
                    </g>
                </g>
            </g>
        </g>
    </g>
</svg>