<?xml version="1.0" encoding="UTF-8"?>
<svg width="502px" height="154px" viewBox="0 0 502 154" version="1.1" xmlns="http://www.w3.org/2000/svg" xmlns:xlink="http://www.w3.org/1999/xlink">
    <!-- Generator: Sketch 52.6 (67491) - http://www.bohemiancoding.com/sketch -->
    <title>upload-image-modular page</title>
    <desc>Created with Sketch.</desc>
    <defs>
        <polygon id="path-1" points="8.02197802e-05 0.0716260274 72.6911538 0.0716260274 72.6911538 57.6027397 8.02197802e-05 57.6027397"></polygon>
        <polygon id="path-3" points="0 0.253691275 73.9084946 0.253691275 73.9084946 59.5972752 0 59.5972752"></polygon>
    </defs>
    <g id="UI-Updates-2019-Modular-page-" stroke="none" stroke-width="1" fill="none" fill-rule="evenodd">
        <g id="1---Modular-page-empty-items" transform="translate(-211.000000, -618.000000)">
            <g id="upload-image-modular-page" transform="translate(211.000000, 618.000000)">
                <g id="Group-13">
                    <g id="Group-6" transform="translate(473.000000, 0.000000)">
                        <g id="Group-3">
                            <g id="IMAGE-+-CAPTION">
                                <g id="arrow-btn">
                                    <path d="M0.5,4.00187852 L0.5,24.9981215 C0.5,26.9318426 2.06802409,28.5 4.00187852,28.5 L24.9981215,28.5 C26.9318426,28.5 28.5,26.9319759 28.5,24.9981215 L28.5,4.00187852 C28.5,2.06815743 26.9319759,0.5 24.9981215,0.5 L4.00187852,0.5 C2.06815743,0.5 0.5,2.06802409 0.5,4.00187852 Z" id="Rectangle-7" stroke="#D2D9E1" fill="#FFFFFF"></path>
                                    <path d="M19.9805691,16.1669568 L14.6537572,10.0581362 C14.581163,9.97488472 14.454825,9.96624529 14.3715735,10.0388395 C14.3647146,10.0448204 14.3582719,10.0512625 14.3522903,10.0581208 L9.02530902,16.1658721 C8.95270625,16.2491161 8.96133274,16.375455 9.04457681,16.4480577 C9.08100294,16.4798274 9.12770175,16.497331 9.17603575,16.497331 L12.4676435,16.497331 L12.4676435,19.7559341 C12.4676435,19.866391 12.5571866,19.9559341 12.6676435,19.9559341 L16.3382859,19.9559341 C16.4487429,19.9559341 16.5382859,19.866391 16.5382859,19.7559341 L16.5382859,16.497331 L19.8297639,16.4984003 C19.9402209,16.4984362 20.029793,16.4089222 20.0298289,16.2984653 C20.0298446,16.250116 20.0123451,16.2033977 19.9805691,16.1669568 Z" id="Shape" fill="#067BBE" fill-rule="nonzero"></path>
                                </g>
                                <g id="delete-btn" transform="translate(0.000000, 81.000000)">
                                    <path d="M0.5,4.00187852 L0.5,24.9981215 C0.5,26.9318426 2.06802409,28.5 4.00187852,28.5 L24.9981215,28.5 C26.9318426,28.5 28.5,26.9319759 28.5,24.9981215 L28.5,4.00187852 C28.5,2.06815743 26.9319759,0.5 24.9981215,0.5 L4.00187852,0.5 C2.06815743,0.5 0.5,2.06802409 0.5,4.00187852 Z" id="Rectangle-7" stroke="#D2D9E1" fill="#FFFFFF"></path>
                                    <g id="bin-copy-6" transform="translate(8.812500, 8.812500)" fill="#D72B36" fill-rule="nonzero" stroke="#D72B36" stroke-width="0.3">
                                        <path d="M10.787718,1.46208141 L7.80030132,1.46208141 L7.80030132,0.622375106 C7.80030132,0.347855736 7.52578195,0.121780961 7.17052158,0.121780961 L4.07006752,0.121780961 C3.71480716,0.121780961 3.44028779,0.347855736 3.44028779,0.622375106 L3.44028779,1.46208141 L0.452871122,1.46208141 C0.323685536,1.46208141 0.210648148,1.5751188 0.210648148,1.70430439 C0.210648148,1.83348997 0.323685536,1.94652736 0.452871122,1.94652736 L1.26028103,1.94652736 L1.89006076,9.68151431 C1.89006076,10.4404796 2.5036923,11.037963 3.26265761,11.037963 L7.9617833,11.037963 C8.72074861,11.037963 9.33438015,10.4243314 9.33438015,9.68151431 L9.98030808,1.94652736 L10.787718,1.94652736 C10.9169036,1.94652736 11.029941,1.83348997 11.029941,1.70430439 C11.029941,1.5751188 10.9169036,1.46208141 10.787718,1.46208141 Z M3.92473374,0.654671502 C3.94088194,0.638523304 3.98932653,0.622375106 4.07006752,0.622375106 L7.17052158,0.622375106 C7.25126258,0.622375106 7.29970717,0.654671502 7.31585537,0.654671502 L7.31585537,1.47822961 L3.92473374,1.47822961 L3.92473374,0.654671502 L3.92473374,0.654671502 Z M8.8660824,9.66536611 L8.8660824,9.68151431 C8.8660824,10.1659603 8.46237744,10.5696652 7.9779315,10.5696652 L3.26265761,10.5696652 C2.77821167,10.5696652 2.37450671,10.1659603 2.37450671,9.68151431 L1.74472698,1.94652736 L9.47971393,1.94652736 L8.8660824,9.66536611 Z" id="Shape"></path>
                                        <path d="M4.34458689,8.47039944 L4.34458689,8.47039944 C4.48992068,8.47039944 4.58680987,8.35736206 4.58680987,8.21202827 L4.40917969,4.27186791 C4.40917969,4.14268232 4.2961423,4.02964493 4.15080852,4.04579313 C4.02162293,4.04579313 3.90858554,4.15883052 3.92473374,4.3041643 L4.10236392,8.24432467 C4.10236392,8.37351026 4.21540131,8.47039944 4.34458689,8.47039944 Z" id="Shape"></path>
                                        <path d="M6.89600221,8.47039944 L6.89600221,8.47039944 C7.041336,8.47039944 7.13822519,8.37351026 7.15437339,8.24432467 L7.33200357,4.3041643 C7.33200357,4.17497872 7.23511438,4.06194133 7.10592879,4.04579313 C6.97674321,4.04579313 6.86370582,4.14268232 6.84755762,4.27186791 L6.66992744,8.21202827 C6.65377924,8.35736206 6.75066843,8.47039944 6.89600221,8.47039944 Z" id="Shape"></path>
                                    </g>
                                </g>
                                <g id="arrow-btn" transform="translate(14.500000, 47.500000) scale(-1, -1) translate(-14.500000, -47.500000) translate(0.000000, 33.000000)">
                                    <path d="M0.5,4.00187852 L0.5,24.9981215 C0.5,26.9318426 2.06802409,28.5 4.00187852,28.5 L24.9981215,28.5 C26.9318426,28.5 28.5,26.9319759 28.5,24.9981215 L28.5,4.00187852 C28.5,2.06815743 26.9319759,0.5 24.9981215,0.5 L4.00187852,0.5 C2.06815743,0.5 0.5,2.06802409 0.5,4.00187852 Z" id="Rectangle-7" stroke="#D2D9E1" fill="#FFFFFF"></path>
                                    <path d="M19.9805691,15.1669568 L14.6537572,9.05813624 C14.581163,8.97488472 14.454825,8.96624529 14.3715735,9.03883953 C14.3647146,9.04482042 14.3582719,9.05126248 14.3522903,9.05812079 L9.02530902,15.1658721 C8.95270625,15.2491161 8.96133274,15.375455 9.04457681,15.4480577 C9.08100294,15.4798274 9.12770175,15.497331 9.17603575,15.497331 L12.4676435,15.497331 L12.4676435,18.7559341 C12.4676435,18.866391 12.5571866,18.9559341 12.6676435,18.9559341 L16.3382859,18.9559341 C16.4487429,18.9559341 16.5382859,18.866391 16.5382859,18.7559341 L16.5382859,15.497331 L19.8297639,15.4984003 C19.9402209,15.4984362 20.029793,15.4089222 20.0298289,15.2984653 C20.0298446,15.250116 20.0123451,15.2033977 19.9805691,15.1669568 Z" id="Shape" fill="#067BBE" fill-rule="nonzero"></path>
                                </g>
                            </g>
                        </g>
                    </g>
                    <path d="M225.5,2.5 L225.5,153.5 L455.5,153.5 L455.5,2.5 L225.5,2.5 Z" id="Rectangle" stroke="#E4E4E4" fill="#FFFFFF" fill-rule="nonzero"></path>
                    <rect id="Rectangle" stroke="#E4E4E4" fill="#FFFFFF" fill-rule="nonzero" x="0.5" y="2.5" width="226" height="151"></rect>
                    <g id="Group-20" transform="translate(77.000000, 36.000000)">
                        <path d="M17.4516126,42.5029562 C17.1106786,43.2815863 17.8647445,44.0880247 18.9316676,44.0880247 L44.0204038,44.0880247 L44.0204038,50.0266685 L11.7640302,50.0266685 C9.85520055,50.0266685 8.29893681,48.4896685 8.29893681,46.594737 L8.29893681,12.6726822 L42.2399258,12.6726822 C42.4320522,12.6726822 42.6205687,12.704463 42.7970522,12.7600795 C41.1649808,12.9503671 39.9015192,14.3407781 39.9015192,16.0215863 C39.9015192,17.8370658 41.3695412,19.3065315 43.1821071,19.3065315 C43.4712995,19.3065315 43.7516676,19.2711753 44.0204038,19.1996685 L44.0204038,25.0910384 C43.8764093,25.1903534 43.7556786,25.3174767 43.6638269,25.4724082 C42.5928929,27.2759699 41.5219588,29.0835041 40.4466126,30.8910384 C39.8654203,31.8722712 38.0323984,31.8126822 37.5591016,30.7996685 C35.4689753,26.3503534 33.3796511,21.905011 31.2895247,17.4552986 C30.7841401,16.3830932 28.8071236,16.4029562 28.3378379,17.4835041 C24.7074918,25.8219973 21.0779478,34.1604904 17.4516126,42.5029562" id="Fill-1" fill="#EDF0F3"></path>
                        <path d="M44.0205242,52.3785685 L44.0205242,55.576911 L8.38288681,55.576911 C5.07021099,55.576911 2.37442527,52.9069247 2.37442527,49.6295274 L2.37442527,12.6728014 L5.92455165,12.6728014 L5.92455165,46.5944589 C5.92455165,49.7924041 8.54773846,52.3785685 11.7641505,52.3785685 L44.0205242,52.3785685 Z" id="Fill-3" fill="#EDF0F3"></path>
                        <g id="Group-7" transform="translate(0.000000, 0.325753)">
                            <mask id="mask-2" fill="white">
                                <use xlink:href="#path-1"></use>
                            </mask>
                            <g id="Clip-6"></g>
                            <path d="M72.6912341,8.37436575 L72.6912341,45.5615027 C72.4662176,45.3628726 72.2179374,45.1884753 71.9688549,45.021626 C71.4558495,44.6799822 70.8979209,44.3856123 70.3167286,44.1869822 L70.3167286,8.37436575 C70.3167286,5.09299589 67.6209429,2.42340685 64.3118769,2.42340685 L8.38304725,2.42340685 C5.06997033,2.42340685 2.37418462,5.09299589 2.37418462,8.37436575 L2.37418462,49.3036945 C2.37418462,52.5810918 5.06997033,55.2510781 8.38304725,55.2510781 L59.9763989,55.2510781 C60.3690747,56.0889 60.8909044,56.8282014 61.5206297,57.4757356 C61.5326626,57.4876534 61.5326626,57.4876534 61.5446956,57.4995712 C61.5687615,57.5110918 61.5928275,57.5468452 61.6168934,57.5671055 L61.6525912,57.6028589 L8.38304725,57.6028589 C3.7663989,57.6028589 8.02197802e-05,53.8761603 8.02197802e-05,49.3036945 L8.02197802e-05,8.37436575 C8.02197802e-05,3.79753014 3.7663989,0.0716260274 8.38304725,0.0716260274 L64.3118769,0.0716260274 C68.9409593,0.0716260274 72.6912341,3.79753014 72.6912341,8.37436575" id="Fill-5" fill="#6D7C98" mask="url(#mask-2)"></path>
                        </g>
                        <path d="M67.4088016,11.7311753 L67.4088016,43.9966548 C67.1601203,43.9966548 66.9230709,44.0085726 66.6864225,44.0204904 C66.4942962,44.044326 66.3057797,44.0677644 66.1252852,44.0919973 C65.9728676,44.1237781 65.8160379,44.1476137 65.6636203,44.1710521 C65.6279225,44.1952849 65.6038566,44.1952849 65.5677577,44.2072027 C65.439406,44.2310384 65.2946093,44.2787096 65.1666588,44.314463 C65.1305599,44.314463 65.0940599,44.314463 65.0703951,44.3263808 C65.0583621,44.3263808 65.045928,44.3382986 65.0342962,44.3382986 L65.0342962,11.7311753 C65.0342962,9.83981918 63.4896643,8.29884658 61.5808346,8.29884658 L11.7643511,8.29884658 C9.85512033,8.29884658 8.29885659,9.83981918 8.29885659,11.7311753 L8.29885659,46.594737 C8.29885659,48.4896685 9.85512033,50.0266685 11.7643511,50.0266685 L59.5027412,50.0266685 C59.4786753,50.0985726 59.4550104,50.1819973 59.4429775,50.2535041 L59.4305434,50.2654219 C59.2905599,50.8613123 59.2063291,51.4730932 59.2063291,52.1087096 L59.2063291,52.1440658 C59.2063291,52.2278877 59.2063291,52.2993945 59.2183621,52.3784493 L11.7643511,52.3784493 C8.54753791,52.3784493 5.9243511,49.7926822 5.9243511,46.594737 L5.9243511,11.7311753 C5.9243511,8.54475068 8.54753791,5.94706575 11.7643511,5.94706575 L61.5808346,5.94706575 C64.7976478,5.94706575 67.4088016,8.54475068 67.4088016,11.7311753" id="Fill-8" fill="#6D7C98"></path>
                        <path d="M46.4631363,16.0215068 C46.4631363,17.5469863 45.4242901,18.830137 44.020444,19.199589 C43.7517077,19.2710959 43.4713396,19.3068493 43.1821473,19.3068493 C41.3695813,19.3068493 39.9015593,17.8369863 39.9015593,16.0215068 C39.9015593,14.3410959 41.1650209,12.9506849 42.7970923,12.76 C42.9258451,12.7480822 43.0537956,12.740137 43.1821473,12.740137 C44.9951143,12.740137 46.4631363,14.2096027 46.4631363,16.0215068" id="Fill-10" fill="#6D7C98"></path>
                        <path d="M53.7675082,44.0881041 L18.9316676,44.0881041 C17.8647445,44.0881041 17.1106786,43.2816658 17.4516126,42.5030356 C21.0779478,34.1605699 24.7074918,25.8220767 28.3378379,17.4831863 C28.8071236,16.4030356 30.7841401,16.3831726 31.2895247,17.4553781 C33.3796511,21.9050904 35.4689753,26.3504329 37.5591016,30.7997479 C38.0323984,31.8127616 39.8654203,31.8723507 40.4466126,30.8907205 C41.5219588,29.0831863 42.5928929,27.2760493 43.6638269,25.4724877 C43.7556786,25.3175562 43.8764093,25.1904329 44.0204038,25.0911178 C44.7748709,24.5428986 46.1101291,24.6974329 46.5393049,25.5277068 C49.431228,31.1652274 52.3231511,36.8023507 55.2190852,42.439474 C55.6241951,43.2300219 54.8705302,44.0881041 53.7675082,44.0881041" id="Fill-12" fill="#6D7C98"></path>
                        <path d="M67.3966484,47.1466904 L67.3966484,47.1550329 C67.4086813,47.1466904 67.4207143,47.1466904 67.4327473,47.1466904 L67.3966484,47.1466904 Z" id="Fill-14" fill="#6D7C99"></path>
                        <path d="M67.4327071,47.1451411 C67.4210753,47.1451411 67.4086412,47.1451411 67.3970093,47.1566616 L67.3970093,47.1451411 L67.4327071,47.1451411 Z" id="Fill-16" fill="#6D7C99"></path>
                        <path d="M67.4166231,57.8060178 C66.8627055,57.8060178 66.4138758,57.3614836 66.4138758,56.8128671 L66.4138758,49.8433329 L64.4336505,51.6830452 C64.0293429,52.0580589 63.3948044,52.0381959 63.016167,51.6381548 C62.8344692,51.4462781 62.7450242,51.201963 62.7450242,50.9584425 C62.7450242,50.6938671 62.8513154,50.429689 63.0618923,50.234237 L66.730744,46.8253466 C66.730744,46.8249493 66.7311451,46.8245521 66.7315462,46.8241548 C66.9064253,46.6624699 67.1250242,46.5742781 67.3480352,46.5587849 L67.3484363,46.5587849 L67.3488374,46.5587849 C67.4154198,46.5548123 67.4812,46.5564014 67.5477824,46.5651411 C67.7182495,46.5873877 67.8843044,46.6529356 68.0274967,46.7621822 C68.0523648,46.7812507 68.0764308,46.8011137 68.0988923,46.8221685 L71.7930132,50.1603466 C72.2025352,50.5301959 72.2314143,51.1582644 71.8579912,51.5630726 C71.4849692,51.9686753 70.8504308,51.9976753 70.441711,51.6274288 L68.4193703,49.8004288 L68.4193703,56.8128671 C68.4193703,57.3614836 67.9705407,57.8060178 67.4166231,57.8060178" id="Fill-18" fill="#6D7C98"></path>
                    </g>
                    <g id="Group-70" transform="translate(304.000000, 34.000000)">
                        <path d="M65.7208323,12.2135034 L65.7208323,49.5504161 L11.1040581,49.5504161 L11.1040581,10.2363221 C11.1040581,9.18128859 11.8555957,8.30343624 12.8502194,8.12625503 L61.8891441,8.12625503 C64.0021226,8.12625503 65.7208323,9.96249664 65.7208323,12.2135034" id="Fill-1" fill="#EDF0F3"></path>
                        <path d="M71.3424054,10.2362416 L71.3424054,49.5503356 L67.7100398,49.5503356 L67.7100398,12.2134228 C67.7100398,10.6268456 67.1291796,9.17718121 66.1743409,8.08993289 L69.2218677,8.08993289 C70.3915452,8.08993289 71.3424054,9.05275168 71.3424054,10.2362416" id="Fill-3" fill="#EDF0F3"></path>
                        <path d="M71.3424054,51.5637181 L71.3424054,52.6755302 C70.6859538,55.3449262 68.2948785,57.3301611 65.4582118,57.3301611 L11.1040183,57.3301611 L11.1040183,51.5637181 L71.3424054,51.5637181 Z" id="Fill-5" fill="#EDF0F3"></path>
                        <g id="Group-9" transform="translate(0.000000, 0.148993)">
                            <mask id="mask-4" fill="white">
                                <use xlink:href="#path-3"></use>
                            </mask>
                            <g id="Clip-8"></g>
                            <path d="M71.5215172,49.401302 L67.7101194,49.401302 L67.7101194,12.0643893 C67.7101194,10.4778121 67.1292591,9.02814765 66.1744204,7.94089933 C65.1121624,6.72519463 63.5844204,5.96371812 61.8891839,5.96371812 L12.0187538,5.96371812 C8.8081086,5.96371812 6.19861398,8.70237584 6.19861398,12.0643893 L6.19861398,49.401302 L2.38681828,49.401302 L2.38681828,8.80304698 C2.38681828,5.42009396 5.10452796,2.66975839 8.44646344,2.66975839 L65.4582914,2.66975839 C68.8002269,2.66975839 71.5215172,5.42009396 71.5215172,8.80304698 L71.5215172,49.401302 Z M8.18786129,49.401302 L8.18786129,12.0643893 C8.18786129,9.81338255 9.90657097,7.97714094 12.0187538,7.97714094 L61.8891839,7.97714094 C64.0021624,7.97714094 65.720872,9.81338255 65.720872,12.0643893 L65.720872,49.401302 L8.18786129,49.401302 Z M71.3424849,52.5265369 C70.6856355,55.1959329 68.2949581,57.1811678 65.4582914,57.1811678 L8.44646344,57.1811678 C5.22746344,57.1811678 2.58574301,54.627745 2.39915161,51.4147248 L71.5095817,51.4147248 C71.4896892,51.7972752 71.4300118,52.167745 71.3424849,52.5265369 Z M65.4582914,0.253651007 L8.44646344,0.253651007 C3.79162473,0.253651007 -0.000278494624,4.08720805 -0.000278494624,8.80304698 L-0.000278494624,51.0482819 C-0.000278494624,55.7637181 3.79162473,59.5972752 8.44646344,59.5972752 L65.4582914,59.5972752 C67.7419473,59.5972752 69.8223022,58.6751275 71.3424849,57.1771409 C72.925528,55.6227785 73.908614,53.4482819 73.908614,51.0482819 L73.908614,8.80304698 C73.908614,4.08720805 70.1171086,0.253651007 65.4582914,0.253651007 Z" id="Fill-7" fill="#6D7C98" mask="url(#mask-4)"></path>
                        </g>
                        <path d="M25.6612108,23.8107383 C25.6612108,24.5395973 25.076372,25.1355705 24.3562645,25.1355705 L15.6911032,25.1355705 C14.9709957,25.1355705 14.386157,24.5395973 14.386157,23.8107383 L14.386157,15.0438926 C14.386157,14.3154362 14.9709957,13.7234899 15.6911032,13.7234899 L24.3562645,13.7234899 C25.076372,13.7234899 25.6612108,14.3154362 25.6612108,15.0438926 L25.6612108,23.8107383 Z M24.3562645,12.7530201 L15.6911032,12.7530201 C14.4458344,12.7530201 13.4317161,13.7798658 13.4317161,15.0438926 L13.4317161,23.8107383 C13.4317161,25.0751678 14.4458344,26.1020134 15.6911032,26.1020134 L24.3562645,26.1020134 C25.6019312,26.1020134 26.6160495,25.0751678 26.6160495,23.8107383 L26.6160495,15.0438926 C26.6160495,13.7798658 25.6019312,12.7530201 24.3562645,12.7530201 Z" id="Fill-10" fill="#6D7C98"></path>
                        <path d="M22.024986,15.559651 C21.5555237,15.559651 21.1775667,15.9462282 21.1775667,16.4173691 C21.1775667,16.8929396 21.5555237,17.2795168 22.024986,17.2795168 C22.4944484,17.2795168 22.8724054,16.8929396 22.8724054,16.4173691 C22.8724054,15.9462282 22.4944484,15.559651 22.024986,15.559651" id="Fill-12" fill="#FFFFFF"></path>
                        <path d="M24.1374075,23.2668725 L15.6238269,23.2668725 C15.3608484,23.2668725 15.1778376,23.0655302 15.261386,22.8726443 C16.1489882,20.7867383 17.0357946,18.7088859 17.9229989,16.6225772 C18.0387731,16.3527785 18.5197731,16.3487517 18.6431065,16.6185503 C19.0409559,17.480698 19.4388054,18.342443 19.8330742,19.2037852 C19.9480527,19.4538523 20.0594505,19.6994899 20.1748269,19.9491544 C20.2902032,20.2028456 20.7397731,20.2149262 20.8829989,19.9729128 C21.1455796,19.5223087 21.4041817,19.0668725 21.6667624,18.6162685 C21.8060097,18.3782819 22.2476226,18.3867383 22.3713538,18.6319732 C23.0795258,20.0413691 23.7833215,21.4467383 24.4914935,22.8561342 C24.5909559,23.0538523 24.408343,23.2668725 24.1374075,23.2668725 M22.0248269,15.5594899 C22.4942892,15.5594899 22.8722462,15.9460671 22.8722462,16.4172081 C22.8722462,16.8927785 22.4942892,17.2793557 22.0248269,17.2793557 C21.5557624,17.2793557 21.1778054,16.8927785 21.1778054,16.4172081 C21.1778054,15.9460671 21.5557624,15.5594899 22.0248269,15.5594899 M24.3562247,13.723651 L15.6914613,13.723651 C14.9709559,13.723651 14.3861172,14.3155973 14.3861172,15.0440537 L14.3861172,23.8108993 C14.3861172,24.5393557 14.9709559,25.1357315 15.6914613,25.1357315 L24.3562247,25.1357315 C25.0763323,25.1357315 25.661171,24.5393557 25.661171,23.8108993 L25.661171,15.0440537 C25.661171,14.3155973 25.0763323,13.723651 24.3562247,13.723651" id="Fill-14" fill="#FFFFFF"></path>
                        <path d="M24.1370097,23.268443 L15.6246226,23.268443 C15.3624398,23.268443 15.1786333,23.0675034 15.2609882,22.8722013 C16.1477946,20.7887114 17.0346011,18.7072349 17.9218054,16.623745 C18.0383753,16.3547517 18.5197731,16.3487114 18.6439022,16.6177047 C19.0393645,17.4806577 19.437214,18.3415973 19.8330742,19.2041477 C19.9476548,19.4517987 20.0602462,19.7014631 20.1748269,19.9491141 C20.2913968,20.2024027 20.7405688,20.216094 20.8822032,19.9720671 C21.1439882,19.5214631 21.4057731,19.0688456 21.6675581,18.6178389 C21.8072032,18.3778389 22.2468269,18.3858926 22.3713538,18.6335436 C23.0783323,20.0397181 23.7853108,21.447906 24.4926871,22.8564966 C24.5921495,23.0538121 24.4067516,23.268443 24.1370097,23.268443" id="Fill-16" fill="#6D7C98"></path>
                        <path d="M22.8735194,16.4184966 C22.8735194,16.8924564 22.4951645,17.2774228 22.0249065,17.2774228 C21.5566376,17.2774228 21.1762935,16.8924564 21.1762935,16.4184966 C21.1762935,15.9445369 21.5566376,15.5595705 22.0249065,15.5595705 C22.4951645,15.5595705 22.8735194,15.9445369 22.8735194,16.4184966" id="Fill-18" fill="#6D7C98"></path>
                        <path d="M42.3669892,23.8107383 C42.3669892,24.5395973 41.7785699,25.1355705 41.0580645,25.1355705 L32.3968817,25.1355705 C31.6767742,25.1355705 31.0875591,24.5395973 31.0875591,23.8107383 L31.0875591,15.0438926 C31.0875591,14.3154362 31.6767742,13.7234899 32.3968817,13.7234899 L41.0580645,13.7234899 C41.7785699,13.7234899 42.3669892,14.3154362 42.3669892,15.0438926 L42.3669892,23.8107383 Z M41.0580645,12.7530201 L32.3968817,12.7530201 C31.1476344,12.7530201 30.1331183,13.7798658 30.1331183,15.0438926 L30.1331183,23.8107383 C30.1331183,25.0751678 31.1476344,26.1020134 32.3968817,26.1020134 L41.0580645,26.1020134 C42.3077097,26.1020134 43.3214301,25.0751678 43.3214301,23.8107383 L43.3214301,15.0438926 C43.3214301,13.7798658 42.3077097,12.7530201 41.0580645,12.7530201 Z" id="Fill-20" fill="#6D7C98"></path>
                        <path d="M38.7307645,15.559651 C38.2609043,15.559651 37.8789688,15.9462282 37.8789688,16.4173691 C37.8789688,16.8929396 38.2609043,17.2795168 38.7307645,17.2795168 C39.2002269,17.2795168 39.5781839,16.8929396 39.5781839,16.4173691 C39.5781839,15.9462282 39.2002269,15.559651 38.7307645,15.559651" id="Fill-22" fill="#FFFFFF"></path>
                        <path d="M40.8392871,23.2668725 L32.3292871,23.2668725 C32.0667065,23.2668725 31.8832978,23.0655302 31.9632656,22.8726443 C32.8504699,20.7867383 33.7372763,18.7088859 34.6248785,16.6225772 C34.7402548,16.3527785 35.2256312,16.3487517 35.3489645,16.6185503 C35.7428355,17.480698 36.1406849,18.342443 36.5385344,19.2037852 C36.6499323,19.4538523 36.7653086,19.6994899 36.8806849,19.9491544 C36.9960613,20.2028456 37.4456312,20.2149262 37.5844806,19.9729128 C37.8470613,19.5223087 38.1100398,19.0668725 38.3726204,18.6162685 C38.5114699,18.3782819 38.9495022,18.3867383 39.0764161,18.6319732 C39.7810075,20.0413691 40.4891796,21.4467383 41.1969538,22.8561342 C41.2964161,23.0538523 41.1098247,23.2668725 40.8392871,23.2668725 M38.7306849,15.5594899 C39.2001473,15.5594899 39.5781043,15.9460671 39.5781043,16.4172081 C39.5781043,16.8927785 39.2001473,17.2793557 38.7306849,17.2793557 C38.2612226,17.2793557 37.8792871,16.8927785 37.8792871,16.4172081 C37.8792871,15.9460671 38.2612226,15.5594899 38.7306849,15.5594899 M41.0581043,13.723651 L32.3969215,13.723651 C31.676814,13.723651 31.0875989,14.3155973 31.0875989,15.0440537 L31.0875989,23.8108993 C31.0875989,24.5393557 31.676814,25.1357315 32.3969215,25.1357315 L41.0581043,25.1357315 C41.7782118,25.1357315 42.367029,24.5393557 42.367029,23.8108993 L42.367029,15.0440537 C42.367029,14.3155973 41.7782118,13.723651 41.0581043,13.723651" id="Fill-24" fill="#FFFFFF"></path>
                        <path d="M40.8408785,23.268443 L32.3284914,23.268443 C32.0663086,23.268443 31.8829,23.0675034 31.964857,22.8722013 C32.8520613,20.7887114 33.7384699,18.7072349 34.6256742,16.623745 C34.7422441,16.3547517 35.2240398,16.3487114 35.3481688,16.6177047 C35.7436312,17.4806577 36.1410828,18.3415973 36.536943,19.2041477 C36.6515237,19.4517987 36.7645129,19.7014631 36.8790935,19.9491141 C36.9956634,20.2024027 37.4448355,20.216094 37.586072,19.9720671 C37.8482548,19.5214631 38.1100398,19.0688456 38.3718247,18.6178389 C38.5114699,18.3778389 38.9506957,18.3858926 39.0752226,18.6335436 C39.7822011,20.0397181 40.4891796,21.447906 41.1965559,22.8564966 C41.2960183,23.0538121 41.1106204,23.268443 40.8408785,23.268443" id="Fill-26" fill="#6D7C98"></path>
                        <path d="M39.5777462,16.4184966 C39.5777462,16.8924564 39.1993914,17.2774228 38.7287355,17.2774228 C38.2604667,17.2774228 37.8805204,16.8924564 37.8805204,16.4184966 C37.8805204,15.9445369 38.2604667,15.5595705 38.7287355,15.5595705 C39.1993914,15.5595705 39.5777462,15.9445369 39.5777462,16.4184966" id="Fill-28" fill="#6D7C98"></path>
                        <path d="M59.0685108,23.8107383 C59.0685108,24.5395973 58.483672,25.1355705 57.7639624,25.1355705 L49.1023817,25.1355705 C48.382672,25.1355705 47.793457,24.5395973 47.793457,23.8107383 L47.793457,15.0438926 C47.793457,14.3154362 48.382672,13.7234899 49.1023817,13.7234899 L57.7639624,13.7234899 C58.483672,13.7234899 59.0685108,14.3154362 59.0685108,15.0438926 L59.0685108,23.8107383 Z M57.7639624,12.7530201 L49.1023817,12.7530201 C47.8535323,12.7530201 46.8390161,13.7798658 46.8390161,15.0438926 L46.8390161,23.8107383 C46.8390161,25.0751678 47.8535323,26.1020134 49.1023817,26.1020134 L57.7639624,26.1020134 C59.0092312,26.1020134 60.027328,25.0751678 60.027328,23.8107383 L60.027328,15.0438926 C60.027328,13.7798658 59.0092312,12.7530201 57.7639624,12.7530201 Z" id="Fill-30" fill="#6D7C98"></path>
                        <path d="M55.432286,15.559651 C54.9628237,15.559651 54.5848667,15.9462282 54.5848667,16.4173691 C54.5848667,16.8929396 54.9628237,17.2795168 55.432286,17.2795168 C55.9021462,17.2795168 56.2797054,16.8929396 56.2797054,16.4173691 C56.2797054,15.9462282 55.9021462,15.559651 55.432286,15.559651" id="Fill-32" fill="#FFFFFF"></path>
                        <path d="M57.5447075,23.2668725 L49.0311269,23.2668725 C48.7725247,23.2668725 48.5851376,23.0655302 48.668686,22.8726443 C49.5558903,20.7867383 50.4430946,18.7088859 51.3306968,16.6225772 C51.4456753,16.3527785 51.927471,16.3487517 52.0504065,16.6185503 C52.4482559,17.480698 52.8461054,18.342443 53.2403742,19.2037852 C53.3557505,19.4538523 53.4667505,19.6994899 53.5825247,19.9491544 C53.6975032,20.2028456 54.147471,20.2149262 54.2902989,19.9729128 C54.5528796,19.5223087 54.8158581,19.0668725 55.0744602,18.6162685 C55.2137075,18.3782819 55.6549226,18.3867383 55.7786538,18.6319732 C56.4868258,20.0413691 57.1949978,21.4467383 57.8991914,22.8561342 C57.9986538,23.0538523 57.815643,23.2668725 57.5447075,23.2668725 M55.4321269,15.5594899 C55.9019871,15.5594899 56.2795462,15.9460671 56.2795462,16.4172081 C56.2795462,16.8927785 55.9019871,17.2793557 55.4321269,17.2793557 C54.9630624,17.2793557 54.5851054,16.8927785 54.5851054,16.4172081 C54.5851054,15.9460671 54.9630624,15.5594899 55.4321269,15.5594899 M57.7639226,13.723651 L49.1023419,13.723651 C48.3826323,13.723651 47.7934172,14.3155973 47.7934172,15.0440537 L47.7934172,23.8108993 C47.7934172,24.5393557 48.3826323,25.1357315 49.1023419,25.1357315 L57.7639226,25.1357315 C58.4836323,25.1357315 59.068471,24.5393557 59.068471,23.8108993 L59.068471,15.0440537 C59.068471,14.3155973 58.4836323,13.723651 57.7639226,13.723651" id="Fill-34" fill="#FFFFFF"></path>
                        <path d="M57.5451054,23.268443 L49.0323204,23.268443 C48.7701376,23.268443 48.586729,23.0675034 48.6690839,22.8722013 C49.5558903,20.7887114 50.4426968,18.7072349 51.3295032,16.623745 C51.4460731,16.3547517 51.9278688,16.3487114 52.0519978,16.6177047 C52.4474602,17.4806577 52.8453097,18.3415973 53.2411699,19.2041477 C53.3557505,19.4517987 53.4683419,19.7014631 53.5829226,19.9491141 C53.6994925,20.2024027 54.1486645,20.216094 54.2899011,19.9720671 C54.5520839,19.5214631 54.8138688,19.0688456 55.0756538,18.6178389 C55.2152989,18.3778389 55.6545247,18.3858926 55.7790516,18.6335436 C56.4860301,20.0397181 57.1934065,21.447906 57.9007828,22.8564966 C57.9998473,23.0538121 57.8144495,23.268443 57.5451054,23.268443" id="Fill-36" fill="#6D7C98"></path>
                        <path d="M56.2816151,16.4184966 C56.2816151,16.8924564 55.9032602,17.2774228 55.4330022,17.2774228 C54.9647333,17.2774228 54.5843892,16.8924564 54.5843892,16.4184966 C54.5843892,15.9445369 54.9647333,15.5595705 55.4330022,15.5595705 C55.9032602,15.5595705 56.2816151,15.9445369 56.2816151,16.4184966" id="Fill-38" fill="#6D7C98"></path>
                        <path d="M25.5178258,41.3275168 C25.5178258,42.0563758 24.9329871,42.652349 24.2132774,42.652349 L15.5477183,42.652349 C14.8280086,42.652349 14.242772,42.0563758 14.242772,41.3275168 L14.242772,32.5606711 C14.242772,31.8322148 14.8280086,31.2402685 15.5477183,31.2402685 L24.2132774,31.2402685 C24.9329871,31.2402685 25.5178258,31.8322148 25.5178258,32.5606711 L25.5178258,41.3275168 Z M24.2132774,30.2697987 L15.5477183,30.2697987 C14.3028473,30.2697987 13.2883312,31.2966443 13.2883312,32.5606711 L13.2883312,41.3275168 C13.2883312,42.5919463 14.3028473,43.6187919 15.5477183,43.6187919 L24.2132774,43.6187919 C25.4585462,43.6187919 26.4726645,42.5919463 26.4726645,41.3275168 L26.4726645,32.5606711 C26.4726645,31.2966443 25.4585462,30.2697987 24.2132774,30.2697987 Z" id="Fill-40" fill="#6D7C98"></path>
                        <path d="M21.8816409,33.0764295 C21.4121785,33.0764295 21.0342215,33.4630067 21.0342215,33.9341477 C21.0342215,34.4097181 21.4121785,34.7962953 21.8816409,34.7962953 C22.3515011,34.7962953 22.7290602,34.4097181 22.7290602,33.9341477 C22.7290602,33.4630067 22.3515011,33.0764295 21.8816409,33.0764295" id="Fill-42" fill="#FFFFFF"></path>
                        <path d="M23.9940226,40.783651 L15.4804419,40.783651 C15.2174634,40.783651 15.0344527,40.5823087 15.1180011,40.3894228 C16.0056032,38.3035168 16.8924097,36.2256644 17.7800118,34.1393557 C17.8953882,33.869557 18.376786,33.8655302 18.4997215,34.1353289 C18.897571,34.9974765 19.2954204,35.8592215 19.6896892,36.7205638 C19.8050656,36.9706309 19.9160656,37.2162685 20.0318398,37.4659329 C20.1468183,37.7196242 20.596786,37.7317047 20.739614,37.4896913 C21.0021946,37.0390872 21.2611946,36.583651 21.5237753,36.133047 C21.6630226,35.8950604 22.1042376,35.9035168 22.2279688,36.1487517 C22.9361409,37.5581477 23.6399366,38.9635168 24.3485065,40.3729128 C24.4479688,40.5706309 24.2649581,40.783651 23.9940226,40.783651 M21.8814419,33.0762685 C22.3513022,33.0762685 22.7288613,33.4628456 22.7288613,33.9339866 C22.7288613,34.409557 22.3513022,34.7961342 21.8814419,34.7961342 C21.4123774,34.7961342 21.0344204,34.409557 21.0344204,33.9339866 C21.0344204,33.4628456 21.4123774,33.0762685 21.8814419,33.0762685 M24.2132376,31.2404295 L15.5480763,31.2404295 C14.8279688,31.2404295 14.2427323,31.8323758 14.2427323,32.5608322 L14.2427323,41.3276779 C14.2427323,42.0561342 14.8279688,42.6525101 15.5480763,42.6525101 L24.2132376,42.6525101 C24.9329473,42.6525101 25.517786,42.0561342 25.517786,41.3276779 L25.517786,32.5608322 C25.517786,31.8323758 24.9329473,31.2404295 24.2132376,31.2404295" id="Fill-44" fill="#FFFFFF"></path>
                        <path d="M23.9936247,40.7852215 L15.4808398,40.7852215 C15.218657,40.7852215 15.0352484,40.5842819 15.1176032,40.3889799 C16.0044097,38.3054899 16.8912161,36.2240134 17.7780226,34.1405235 C17.8945925,33.8715302 18.3763882,33.8654899 18.5005172,34.1344832 C18.8959796,34.9974362 19.293829,35.8583758 19.6896892,36.7209262 C19.8042699,36.9685772 19.9168613,37.2182416 20.0314419,37.4658926 C20.1480118,37.7191812 20.5971839,37.7328725 20.7384204,37.4888456 C21.0006032,37.0382416 21.2623882,36.5856242 21.5241731,36.1346174 C21.6638183,35.8946174 22.1030441,35.9026711 22.227571,36.1503221 C22.9345495,37.5564966 23.6419258,38.9646846 24.3493022,40.3732752 C24.4483667,40.5705906 24.2629688,40.7852215 23.9936247,40.7852215" id="Fill-46" fill="#6D7C98"></path>
                        <path d="M22.7301742,33.9352752 C22.7301742,34.4092349 22.3518194,34.7942013 21.8815613,34.7942013 C21.4132925,34.7942013 21.0329484,34.4092349 21.0329484,33.9352752 C21.0329484,33.4613154 21.4132925,33.076349 21.8815613,33.076349 C22.3518194,33.076349 22.7301742,33.4613154 22.7301742,33.9352752" id="Fill-48" fill="#6D7C98"></path>
                        <path d="M42.2236043,41.3275168 C42.2236043,42.0563758 41.6351849,42.652349 40.9150774,42.652349 L32.2534968,42.652349 C31.5337871,42.652349 30.944572,42.0563758 30.944572,41.3275168 L30.944572,32.5606711 C30.944572,31.8322148 31.5337871,31.2402685 32.2534968,31.2402685 L40.9150774,31.2402685 C41.6351849,31.2402685 42.2236043,31.8322148 42.2236043,32.5606711 L42.2236043,41.3275168 Z M40.9150774,30.2697987 L32.2534968,30.2697987 C31.0046473,30.2697987 29.9897333,31.2966443 29.9897333,32.5606711 L29.9897333,41.3275168 C29.9897333,42.5919463 31.0046473,43.6187919 32.2534968,43.6187919 L40.9150774,43.6187919 C42.1643247,43.6187919 43.178443,42.5919463 43.178443,41.3275168 L43.178443,32.5606711 C43.178443,31.2966443 42.1643247,30.2697987 40.9150774,30.2697987 Z" id="Fill-50" fill="#6D7C98"></path>
                        <path d="M38.5874194,33.0764295 C38.1175591,33.0764295 37.7360215,33.4630067 37.7360215,33.9341477 C37.7360215,34.4097181 38.1175591,34.7962953 38.5874194,34.7962953 C39.0568817,34.7962953 39.4348387,34.4097181 39.4348387,33.9341477 C39.4348387,33.4630067 39.0568817,33.0764295 38.5874194,33.0764295" id="Fill-52" fill="#FFFFFF"></path>
                        <path d="M40.6959419,40.783651 L32.1859419,40.783651 C31.9233613,40.783651 31.7403505,40.5823087 31.8199204,40.3894228 C32.7071247,38.3035168 33.594329,36.2256644 34.4815333,34.1393557 C34.5969097,33.869557 35.0783075,33.8655302 35.2056194,34.1353289 C35.5994903,34.9974765 35.9973398,35.8592215 36.3951892,36.7205638 C36.5069849,36.9706309 36.6219634,37.2162685 36.7377376,37.4659329 C36.8527161,37.7196242 37.3026839,37.7317047 37.4415333,37.4896913 C37.704114,37.0390872 37.9670925,36.583651 38.2296731,36.133047 C38.3685226,35.8950604 38.806157,35.9035168 38.9334688,36.1487517 C39.6376624,37.5581477 40.3458344,38.9635168 41.0540065,40.3729128 C41.1534688,40.5706309 40.9664796,40.783651 40.6959419,40.783651 M38.5873398,33.0762685 C39.0568022,33.0762685 39.4347591,33.4628456 39.4347591,33.9339866 C39.4347591,34.409557 39.0568022,34.7961342 38.5873398,34.7961342 C38.1178774,34.7961342 37.7363398,34.409557 37.7363398,33.9339866 C37.7363398,33.4628456 38.1178774,33.0762685 38.5873398,33.0762685 M40.915157,31.2404295 L32.2535763,31.2404295 C31.5338667,31.2404295 30.9446516,31.8323758 30.9446516,32.5608322 L30.9446516,41.3276779 C30.9446516,42.0561342 31.5338667,42.6525101 32.2535763,42.6525101 L40.915157,42.6525101 C41.6348667,42.6525101 42.2236839,42.0561342 42.2236839,41.3276779 L42.2236839,32.5608322 C42.2236839,31.8323758 41.6348667,31.2404295 40.915157,31.2404295" id="Fill-54" fill="#FFFFFF"></path>
                        <path d="M40.6974935,40.7852215 L32.1851065,40.7852215 C31.9229237,40.7852215 31.7391172,40.5842819 31.821472,40.3889799 C32.7082785,38.3054899 33.5950849,36.2240134 34.4822892,34.1405235 C34.5988591,33.8715302 35.080257,33.8654899 35.204386,34.1344832 C35.5998484,34.9974362 35.9976978,35.8583758 36.3935581,36.7209262 C36.5081387,36.9685772 36.6207301,37.2182416 36.7353108,37.4658926 C36.8518806,37.7191812 37.3014505,37.7328725 37.4426871,37.4888456 C37.704472,37.0382416 37.966257,36.5856242 38.2280419,36.1346174 C38.3676871,35.8946174 38.8073108,35.9026711 38.9318376,36.1503221 C39.6388161,37.5564966 40.3457946,38.9646846 41.053171,40.3732752 C41.1526333,40.5705906 40.9672355,40.7852215 40.6974935,40.7852215" id="Fill-56" fill="#6D7C98"></path>
                        <path d="M39.4340032,33.9352752 C39.4340032,34.4092349 39.0556484,34.7942013 38.5853903,34.7942013 C38.1171215,34.7942013 37.7367774,34.4092349 37.7367774,33.9352752 C37.7367774,33.4613154 38.1171215,33.076349 38.5853903,33.076349 C39.0556484,33.076349 39.4340032,33.4613154 39.4340032,33.9352752" id="Fill-58" fill="#6D7C98"></path>
                        <path d="M58.9255237,41.3275168 C58.9255237,42.0563758 58.3402871,42.652349 57.6205774,42.652349 L48.9589968,42.652349 C48.2353086,42.652349 47.6504699,42.0563758 47.6504699,41.3275168 L47.6504699,32.5606711 C47.6504699,31.8322148 48.2353086,31.2402685 48.9589968,31.2402685 L57.6205774,31.2402685 C58.3402871,31.2402685 58.9255237,31.8322148 58.9255237,32.5606711 L58.9255237,41.3275168 Z M57.6205774,30.2697987 L48.9589968,30.2697987 C47.7101473,30.2697987 46.6956312,31.2966443 46.6956312,32.5606711 L46.6956312,41.3275168 C46.6956312,42.5919463 47.7101473,43.6187919 48.9589968,43.6187919 L57.6205774,43.6187919 C58.8658462,43.6187919 59.8803624,42.5919463 59.8803624,41.3275168 L59.8803624,32.5606711 C59.8803624,31.2966443 58.8658462,30.2697987 57.6205774,30.2697987 Z" id="Fill-60" fill="#6D7C98"></path>
                        <path d="M55.2889409,33.0764295 C54.8194785,33.0764295 54.4419194,33.4630067 54.4419194,33.9341477 C54.4419194,34.4097181 54.8194785,34.7962953 55.2889409,34.7962953 C55.7588011,34.7962953 56.1367581,34.4097181 56.1367581,33.9341477 C56.1367581,33.4630067 55.7588011,33.0764295 55.2889409,33.0764295" id="Fill-62" fill="#FFFFFF"></path>
                        <path d="M57.4017204,40.783651 L48.8877419,40.783651 C48.6247634,40.783651 48.4421505,40.5823087 48.5253011,40.3894228 C49.4129032,38.3035168 50.3001075,36.2256644 51.1873118,34.1393557 C51.3026882,33.869557 51.784086,33.8655302 51.9070215,34.1353289 C52.304871,34.9974765 52.7027204,35.8592215 53.0969892,36.7205638 C53.2123656,36.9706309 53.3237634,37.2162685 53.4391398,37.4659329 C53.5545161,37.7196242 54.004086,37.7317047 54.1473118,37.4896913 C54.4098925,37.0390872 54.6684946,36.583651 54.9310753,36.133047 C55.0703226,35.8950604 55.5119355,35.9035168 55.6356667,36.1487517 C56.3434409,37.5581477 57.0516129,38.9635168 57.7558065,40.3729128 C57.8552688,40.5706309 57.6722581,40.783651 57.4017204,40.783651 M55.2887419,33.0762685 C55.7586022,33.0762685 56.1365591,33.4628456 56.1365591,33.9339866 C56.1365591,34.409557 55.7586022,34.7961342 55.2887419,34.7961342 C54.8196774,34.7961342 54.4421183,34.409557 54.4421183,33.9339866 C54.4421183,33.4628456 54.8196774,33.0762685 55.2887419,33.0762685 M57.6205376,31.2404295 L48.958957,31.2404295 C48.2352688,31.2404295 47.6504301,31.8323758 47.6504301,32.5608322 L47.6504301,41.3276779 C47.6504301,42.0561342 48.2352688,42.6525101 48.958957,42.6525101 L57.6205376,42.6525101 C58.3402473,42.6525101 58.9254839,42.0561342 58.9254839,41.3276779 L58.9254839,32.5608322 C58.9254839,31.8323758 58.3402473,31.2404295 57.6205376,31.2404295" id="Fill-64" fill="#FFFFFF"></path>
                        <path d="M57.4013624,40.7852215 L48.8889753,40.7852215 C48.6267925,40.7852215 48.4433839,40.5842819 48.5253409,40.3889799 C49.4125452,38.3054899 50.2989538,36.2240134 51.1861581,34.1405235 C51.302728,33.8715302 51.7845237,33.8654899 51.9086527,34.1344832 C52.3041151,34.9974362 52.7015667,35.8583758 53.0974269,36.7209262 C53.2120075,36.9685772 53.3249968,37.2182416 53.4395774,37.4658926 C53.5561473,37.7191812 54.0053194,37.7328725 54.1465559,37.4888456 C54.4087387,37.0382416 54.6705237,36.5856242 54.9323086,36.1346174 C55.0719538,35.8946174 55.5111796,35.9026711 55.6357065,36.1503221 C56.3426849,37.5564966 57.0496634,38.9646846 57.7570398,40.3732752 C57.8565022,40.5705906 57.6711043,40.7852215 57.4013624,40.7852215" id="Fill-66" fill="#6D7C98"></path>
                        <path d="M56.1382301,33.9352752 C56.1382301,34.4092349 55.7598753,34.7942013 55.2892194,34.7942013 C54.8209505,34.7942013 54.4410043,34.4092349 54.4410043,33.9352752 C54.4410043,33.4613154 54.8209505,33.076349 55.2892194,33.076349 C55.7598753,33.076349 56.1382301,33.4613154 56.1382301,33.9352752" id="Fill-68" fill="#6D7C98"></path>
                    </g>
                    <text id="Upload-an-image" font-family="Lato-Regular, Lato" font-size="11" font-weight="normal" letter-spacing="-0.22" fill="#0E75B8">
                        <tspan x="75" y="118">Upload an image </tspan>
                    </text>
                    <text id="Select-an-image-from" font-family="Lato-Regular, Lato" font-size="11" font-weight="normal" letter-spacing="-0.22" fill="#0E75B8">
                        <tspan x="263" y="118">Select an image from media library</tspan>
                    </text>
                </g>
            </g>
        </g>
    </g>
</svg>