<?xml version="1.0" encoding="UTF-8"?>
<svg width="502px" height="154px" viewBox="0 0 502 154" version="1.1" xmlns="http://www.w3.org/2000/svg" xmlns:xlink="http://www.w3.org/1999/xlink">
    <!-- Generator: Sketch 52.6 (67491) - http://www.bohemiancoding.com/sketch -->
    <title>upload-video modular page</title>
    <desc>Created with Sketch.</desc>
    <defs>
        <polygon id="path-1" points="0 0.253691275 73.9084946 0.253691275 73.9084946 59.5972752 0 59.5972752"></polygon>
        <polygon id="path-3" points="0 0.147739189 49.9937237 0.147739189 49.9937237 41.6630095 0 41.6630095"></polygon>
        <polygon id="path-5" points="0.16248172 0.291142591 9.46165591 0.291142591 9.46165591 11.5797068 0.16248172 11.5797068"></polygon>
    </defs>
    <g id="UI-Updates-2019-Modular-page-" stroke="none" stroke-width="1" fill="none" fill-rule="evenodd">
        <g id="1---Modular-page-empty-items" transform="translate(-211.000000, -871.000000)">
            <g id="upload-video-modular-page" transform="translate(211.000000, 871.000000)">
                <g id="Group-2">
                    <g id="Group-6" transform="translate(473.000000, 0.000000)">
                        <g id="Group-3">
                            <g id="IMAGE-+-CAPTION">
                                <g id="arrow-btn">
                                    <path d="M0.5,4.00187852 L0.5,24.9981215 C0.5,26.9318426 2.06802409,28.5 4.00187852,28.5 L24.9981215,28.5 C26.9318426,28.5 28.5,26.9319759 28.5,24.9981215 L28.5,4.00187852 C28.5,2.06815743 26.9319759,0.5 24.9981215,0.5 L4.00187852,0.5 C2.06815743,0.5 0.5,2.06802409 0.5,4.00187852 Z" id="Rectangle-7" stroke="#D2D9E1" fill="#FFFFFF"></path>
                                    <path d="M19.9805691,16.1669568 L14.6537572,10.0581362 C14.581163,9.97488472 14.454825,9.96624529 14.3715735,10.0388395 C14.3647146,10.0448204 14.3582719,10.0512625 14.3522903,10.0581208 L9.02530902,16.1658721 C8.95270625,16.2491161 8.96133274,16.375455 9.04457681,16.4480577 C9.08100294,16.4798274 9.12770175,16.497331 9.17603575,16.497331 L12.4676435,16.497331 L12.4676435,19.7559341 C12.4676435,19.866391 12.5571866,19.9559341 12.6676435,19.9559341 L16.3382859,19.9559341 C16.4487429,19.9559341 16.5382859,19.866391 16.5382859,19.7559341 L16.5382859,16.497331 L19.8297639,16.4984003 C19.9402209,16.4984362 20.029793,16.4089222 20.0298289,16.2984653 C20.0298446,16.250116 20.0123451,16.2033977 19.9805691,16.1669568 Z" id="Shape" fill="#067BBE" fill-rule="nonzero"></path>
                                </g>
                                <g id="delete-btn" transform="translate(0.000000, 81.000000)">
                                    <path d="M0.5,4.00187852 L0.5,24.9981215 C0.5,26.9318426 2.06802409,28.5 4.00187852,28.5 L24.9981215,28.5 C26.9318426,28.5 28.5,26.9319759 28.5,24.9981215 L28.5,4.00187852 C28.5,2.06815743 26.9319759,0.5 24.9981215,0.5 L4.00187852,0.5 C2.06815743,0.5 0.5,2.06802409 0.5,4.00187852 Z" id="Rectangle-7" stroke="#D2D9E1" fill="#FFFFFF"></path>
                                    <g id="bin-copy-6" transform="translate(8.812500, 8.812500)" fill="#D72B36" fill-rule="nonzero" stroke="#D72B36" stroke-width="0.3">
                                        <path d="M10.787718,1.46208141 L7.80030132,1.46208141 L7.80030132,0.622375106 C7.80030132,0.347855736 7.52578195,0.121780961 7.17052158,0.121780961 L4.07006752,0.121780961 C3.71480716,0.121780961 3.44028779,0.347855736 3.44028779,0.622375106 L3.44028779,1.46208141 L0.452871122,1.46208141 C0.323685536,1.46208141 0.210648148,1.5751188 0.210648148,1.70430439 C0.210648148,1.83348997 0.323685536,1.94652736 0.452871122,1.94652736 L1.26028103,1.94652736 L1.89006076,9.68151431 C1.89006076,10.4404796 2.5036923,11.037963 3.26265761,11.037963 L7.9617833,11.037963 C8.72074861,11.037963 9.33438015,10.4243314 9.33438015,9.68151431 L9.98030808,1.94652736 L10.787718,1.94652736 C10.9169036,1.94652736 11.029941,1.83348997 11.029941,1.70430439 C11.029941,1.5751188 10.9169036,1.46208141 10.787718,1.46208141 Z M3.92473374,0.654671502 C3.94088194,0.638523304 3.98932653,0.622375106 4.07006752,0.622375106 L7.17052158,0.622375106 C7.25126258,0.622375106 7.29970717,0.654671502 7.31585537,0.654671502 L7.31585537,1.47822961 L3.92473374,1.47822961 L3.92473374,0.654671502 L3.92473374,0.654671502 Z M8.8660824,9.66536611 L8.8660824,9.68151431 C8.8660824,10.1659603 8.46237744,10.5696652 7.9779315,10.5696652 L3.26265761,10.5696652 C2.77821167,10.5696652 2.37450671,10.1659603 2.37450671,9.68151431 L1.74472698,1.94652736 L9.47971393,1.94652736 L8.8660824,9.66536611 Z" id="Shape"></path>
                                        <path d="M4.34458689,8.47039944 L4.34458689,8.47039944 C4.48992068,8.47039944 4.58680987,8.35736206 4.58680987,8.21202827 L4.40917969,4.27186791 C4.40917969,4.14268232 4.2961423,4.02964493 4.15080852,4.04579313 C4.02162293,4.04579313 3.90858554,4.15883052 3.92473374,4.3041643 L4.10236392,8.24432467 C4.10236392,8.37351026 4.21540131,8.47039944 4.34458689,8.47039944 Z" id="Shape"></path>
                                        <path d="M6.89600221,8.47039944 L6.89600221,8.47039944 C7.041336,8.47039944 7.13822519,8.37351026 7.15437339,8.24432467 L7.33200357,4.3041643 C7.33200357,4.17497872 7.23511438,4.06194133 7.10592879,4.04579313 C6.97674321,4.04579313 6.86370582,4.14268232 6.84755762,4.27186791 L6.66992744,8.21202827 C6.65377924,8.35736206 6.75066843,8.47039944 6.89600221,8.47039944 Z" id="Shape"></path>
                                    </g>
                                </g>
                                <g id="arrow-btn" transform="translate(14.500000, 47.500000) scale(-1, -1) translate(-14.500000, -47.500000) translate(0.000000, 33.000000)">
                                    <path d="M0.5,4.00187852 L0.5,24.9981215 C0.5,26.9318426 2.06802409,28.5 4.00187852,28.5 L24.9981215,28.5 C26.9318426,28.5 28.5,26.9319759 28.5,24.9981215 L28.5,4.00187852 C28.5,2.06815743 26.9319759,0.5 24.9981215,0.5 L4.00187852,0.5 C2.06815743,0.5 0.5,2.06802409 0.5,4.00187852 Z" id="Rectangle-7" stroke="#D2D9E1" fill="#FFFFFF"></path>
                                    <path d="M19.9805691,15.1669568 L14.6537572,9.05813624 C14.581163,8.97488472 14.454825,8.96624529 14.3715735,9.03883953 C14.3647146,9.04482042 14.3582719,9.05126248 14.3522903,9.05812079 L9.02530902,15.1658721 C8.95270625,15.2491161 8.96133274,15.375455 9.04457681,15.4480577 C9.08100294,15.4798274 9.12770175,15.497331 9.17603575,15.497331 L12.4676435,15.497331 L12.4676435,18.7559341 C12.4676435,18.866391 12.5571866,18.9559341 12.6676435,18.9559341 L16.3382859,18.9559341 C16.4487429,18.9559341 16.5382859,18.866391 16.5382859,18.7559341 L16.5382859,15.497331 L19.8297639,15.4984003 C19.9402209,15.4984362 20.029793,15.4089222 20.0298289,15.2984653 C20.0298446,15.250116 20.0123451,15.2033977 19.9805691,15.1669568 Z" id="Shape" fill="#067BBE" fill-rule="nonzero"></path>
                                </g>
                            </g>
                        </g>
                    </g>
                    <path d="M225.5,2.5 L225.5,153.5 L455.5,153.5 L455.5,2.5 L225.5,2.5 Z" id="Rectangle" stroke="#E4E4E4" fill="#FFFFFF" fill-rule="nonzero"></path>
                    <rect id="Rectangle" stroke="#E4E4E4" fill="#FFFFFF" fill-rule="nonzero" x="0.5" y="2.5" width="226" height="151"></rect>
                    <g id="Group-70" transform="translate(304.000000, 34.000000)">
                        <path d="M65.7208323,12.2135034 L65.7208323,49.5504161 L11.1040581,49.5504161 L11.1040581,10.2363221 C11.1040581,9.18128859 11.8555957,8.30343624 12.8502194,8.12625503 L61.8891441,8.12625503 C64.0021226,8.12625503 65.7208323,9.96249664 65.7208323,12.2135034" id="Fill-1" fill="#EDF0F3"></path>
                        <path d="M71.3424054,10.2362416 L71.3424054,49.5503356 L67.7100398,49.5503356 L67.7100398,12.2134228 C67.7100398,10.6268456 67.1291796,9.17718121 66.1743409,8.08993289 L69.2218677,8.08993289 C70.3915452,8.08993289 71.3424054,9.05275168 71.3424054,10.2362416" id="Fill-3" fill="#EDF0F3"></path>
                        <path d="M71.3424054,51.5637181 L71.3424054,52.6755302 C70.6859538,55.3449262 68.2948785,57.3301611 65.4582118,57.3301611 L11.1040183,57.3301611 L11.1040183,51.5637181 L71.3424054,51.5637181 Z" id="Fill-5" fill="#EDF0F3"></path>
                        <g id="Group-9" transform="translate(0.000000, 0.148993)">
                            <mask id="mask-2" fill="white">
                                <use xlink:href="#path-1"></use>
                            </mask>
                            <g id="Clip-8"></g>
                            <path d="M71.5215172,49.401302 L67.7101194,49.401302 L67.7101194,12.0643893 C67.7101194,10.4778121 67.1292591,9.02814765 66.1744204,7.94089933 C65.1121624,6.72519463 63.5844204,5.96371812 61.8891839,5.96371812 L12.0187538,5.96371812 C8.8081086,5.96371812 6.19861398,8.70237584 6.19861398,12.0643893 L6.19861398,49.401302 L2.38681828,49.401302 L2.38681828,8.80304698 C2.38681828,5.42009396 5.10452796,2.66975839 8.44646344,2.66975839 L65.4582914,2.66975839 C68.8002269,2.66975839 71.5215172,5.42009396 71.5215172,8.80304698 L71.5215172,49.401302 Z M8.18786129,49.401302 L8.18786129,12.0643893 C8.18786129,9.81338255 9.90657097,7.97714094 12.0187538,7.97714094 L61.8891839,7.97714094 C64.0021624,7.97714094 65.720872,9.81338255 65.720872,12.0643893 L65.720872,49.401302 L8.18786129,49.401302 Z M71.3424849,52.5265369 C70.6856355,55.1959329 68.2949581,57.1811678 65.4582914,57.1811678 L8.44646344,57.1811678 C5.22746344,57.1811678 2.58574301,54.627745 2.39915161,51.4147248 L71.5095817,51.4147248 C71.4896892,51.7972752 71.4300118,52.167745 71.3424849,52.5265369 Z M65.4582914,0.253651007 L8.44646344,0.253651007 C3.79162473,0.253651007 -0.000278494624,4.08720805 -0.000278494624,8.80304698 L-0.000278494624,51.0482819 C-0.000278494624,55.7637181 3.79162473,59.5972752 8.44646344,59.5972752 L65.4582914,59.5972752 C67.7419473,59.5972752 69.8223022,58.6751275 71.3424849,57.1771409 C72.925528,55.6227785 73.908614,53.4482819 73.908614,51.0482819 L73.908614,8.80304698 C73.908614,4.08720805 70.1171086,0.253651007 65.4582914,0.253651007 Z" id="Fill-7" fill="#6D7C98" mask="url(#mask-2)"></path>
                        </g>
                        <path d="M25.6612108,23.8107383 C25.6612108,24.5395973 25.076372,25.1355705 24.3562645,25.1355705 L15.6911032,25.1355705 C14.9709957,25.1355705 14.386157,24.5395973 14.386157,23.8107383 L14.386157,15.0438926 C14.386157,14.3154362 14.9709957,13.7234899 15.6911032,13.7234899 L24.3562645,13.7234899 C25.076372,13.7234899 25.6612108,14.3154362 25.6612108,15.0438926 L25.6612108,23.8107383 Z M24.3562645,12.7530201 L15.6911032,12.7530201 C14.4458344,12.7530201 13.4317161,13.7798658 13.4317161,15.0438926 L13.4317161,23.8107383 C13.4317161,25.0751678 14.4458344,26.1020134 15.6911032,26.1020134 L24.3562645,26.1020134 C25.6019312,26.1020134 26.6160495,25.0751678 26.6160495,23.8107383 L26.6160495,15.0438926 C26.6160495,13.7798658 25.6019312,12.7530201 24.3562645,12.7530201 Z" id="Fill-10" fill="#6D7C98"></path>
                        <path d="M22.024986,15.559651 C21.5555237,15.559651 21.1775667,15.9462282 21.1775667,16.4173691 C21.1775667,16.8929396 21.5555237,17.2795168 22.024986,17.2795168 C22.4944484,17.2795168 22.8724054,16.8929396 22.8724054,16.4173691 C22.8724054,15.9462282 22.4944484,15.559651 22.024986,15.559651" id="Fill-12" fill="#FFFFFF"></path>
                        <path d="M24.1374075,23.2668725 L15.6238269,23.2668725 C15.3608484,23.2668725 15.1778376,23.0655302 15.261386,22.8726443 C16.1489882,20.7867383 17.0357946,18.7088859 17.9229989,16.6225772 C18.0387731,16.3527785 18.5197731,16.3487517 18.6431065,16.6185503 C19.0409559,17.480698 19.4388054,18.342443 19.8330742,19.2037852 C19.9480527,19.4538523 20.0594505,19.6994899 20.1748269,19.9491544 C20.2902032,20.2028456 20.7397731,20.2149262 20.8829989,19.9729128 C21.1455796,19.5223087 21.4041817,19.0668725 21.6667624,18.6162685 C21.8060097,18.3782819 22.2476226,18.3867383 22.3713538,18.6319732 C23.0795258,20.0413691 23.7833215,21.4467383 24.4914935,22.8561342 C24.5909559,23.0538523 24.408343,23.2668725 24.1374075,23.2668725 M22.0248269,15.5594899 C22.4942892,15.5594899 22.8722462,15.9460671 22.8722462,16.4172081 C22.8722462,16.8927785 22.4942892,17.2793557 22.0248269,17.2793557 C21.5557624,17.2793557 21.1778054,16.8927785 21.1778054,16.4172081 C21.1778054,15.9460671 21.5557624,15.5594899 22.0248269,15.5594899 M24.3562247,13.723651 L15.6914613,13.723651 C14.9709559,13.723651 14.3861172,14.3155973 14.3861172,15.0440537 L14.3861172,23.8108993 C14.3861172,24.5393557 14.9709559,25.1357315 15.6914613,25.1357315 L24.3562247,25.1357315 C25.0763323,25.1357315 25.661171,24.5393557 25.661171,23.8108993 L25.661171,15.0440537 C25.661171,14.3155973 25.0763323,13.723651 24.3562247,13.723651" id="Fill-14" fill="#FFFFFF"></path>
                        <path d="M24.1370097,23.268443 L15.6246226,23.268443 C15.3624398,23.268443 15.1786333,23.0675034 15.2609882,22.8722013 C16.1477946,20.7887114 17.0346011,18.7072349 17.9218054,16.623745 C18.0383753,16.3547517 18.5197731,16.3487114 18.6439022,16.6177047 C19.0393645,17.4806577 19.437214,18.3415973 19.8330742,19.2041477 C19.9476548,19.4517987 20.0602462,19.7014631 20.1748269,19.9491141 C20.2913968,20.2024027 20.7405688,20.216094 20.8822032,19.9720671 C21.1439882,19.5214631 21.4057731,19.0688456 21.6675581,18.6178389 C21.8072032,18.3778389 22.2468269,18.3858926 22.3713538,18.6335436 C23.0783323,20.0397181 23.7853108,21.447906 24.4926871,22.8564966 C24.5921495,23.0538121 24.4067516,23.268443 24.1370097,23.268443" id="Fill-16" fill="#6D7C98"></path>
                        <path d="M22.8735194,16.4184966 C22.8735194,16.8924564 22.4951645,17.2774228 22.0249065,17.2774228 C21.5566376,17.2774228 21.1762935,16.8924564 21.1762935,16.4184966 C21.1762935,15.9445369 21.5566376,15.5595705 22.0249065,15.5595705 C22.4951645,15.5595705 22.8735194,15.9445369 22.8735194,16.4184966" id="Fill-18" fill="#6D7C98"></path>
                        <path d="M42.3669892,23.8107383 C42.3669892,24.5395973 41.7785699,25.1355705 41.0580645,25.1355705 L32.3968817,25.1355705 C31.6767742,25.1355705 31.0875591,24.5395973 31.0875591,23.8107383 L31.0875591,15.0438926 C31.0875591,14.3154362 31.6767742,13.7234899 32.3968817,13.7234899 L41.0580645,13.7234899 C41.7785699,13.7234899 42.3669892,14.3154362 42.3669892,15.0438926 L42.3669892,23.8107383 Z M41.0580645,12.7530201 L32.3968817,12.7530201 C31.1476344,12.7530201 30.1331183,13.7798658 30.1331183,15.0438926 L30.1331183,23.8107383 C30.1331183,25.0751678 31.1476344,26.1020134 32.3968817,26.1020134 L41.0580645,26.1020134 C42.3077097,26.1020134 43.3214301,25.0751678 43.3214301,23.8107383 L43.3214301,15.0438926 C43.3214301,13.7798658 42.3077097,12.7530201 41.0580645,12.7530201 Z" id="Fill-20" fill="#6D7C98"></path>
                        <path d="M38.7307645,15.559651 C38.2609043,15.559651 37.8789688,15.9462282 37.8789688,16.4173691 C37.8789688,16.8929396 38.2609043,17.2795168 38.7307645,17.2795168 C39.2002269,17.2795168 39.5781839,16.8929396 39.5781839,16.4173691 C39.5781839,15.9462282 39.2002269,15.559651 38.7307645,15.559651" id="Fill-22" fill="#FFFFFF"></path>
                        <path d="M40.8392871,23.2668725 L32.3292871,23.2668725 C32.0667065,23.2668725 31.8832978,23.0655302 31.9632656,22.8726443 C32.8504699,20.7867383 33.7372763,18.7088859 34.6248785,16.6225772 C34.7402548,16.3527785 35.2256312,16.3487517 35.3489645,16.6185503 C35.7428355,17.480698 36.1406849,18.342443 36.5385344,19.2037852 C36.6499323,19.4538523 36.7653086,19.6994899 36.8806849,19.9491544 C36.9960613,20.2028456 37.4456312,20.2149262 37.5844806,19.9729128 C37.8470613,19.5223087 38.1100398,19.0668725 38.3726204,18.6162685 C38.5114699,18.3782819 38.9495022,18.3867383 39.0764161,18.6319732 C39.7810075,20.0413691 40.4891796,21.4467383 41.1969538,22.8561342 C41.2964161,23.0538523 41.1098247,23.2668725 40.8392871,23.2668725 M38.7306849,15.5594899 C39.2001473,15.5594899 39.5781043,15.9460671 39.5781043,16.4172081 C39.5781043,16.8927785 39.2001473,17.2793557 38.7306849,17.2793557 C38.2612226,17.2793557 37.8792871,16.8927785 37.8792871,16.4172081 C37.8792871,15.9460671 38.2612226,15.5594899 38.7306849,15.5594899 M41.0581043,13.723651 L32.3969215,13.723651 C31.676814,13.723651 31.0875989,14.3155973 31.0875989,15.0440537 L31.0875989,23.8108993 C31.0875989,24.5393557 31.676814,25.1357315 32.3969215,25.1357315 L41.0581043,25.1357315 C41.7782118,25.1357315 42.367029,24.5393557 42.367029,23.8108993 L42.367029,15.0440537 C42.367029,14.3155973 41.7782118,13.723651 41.0581043,13.723651" id="Fill-24" fill="#FFFFFF"></path>
                        <path d="M40.8408785,23.268443 L32.3284914,23.268443 C32.0663086,23.268443 31.8829,23.0675034 31.964857,22.8722013 C32.8520613,20.7887114 33.7384699,18.7072349 34.6256742,16.623745 C34.7422441,16.3547517 35.2240398,16.3487114 35.3481688,16.6177047 C35.7436312,17.4806577 36.1410828,18.3415973 36.536943,19.2041477 C36.6515237,19.4517987 36.7645129,19.7014631 36.8790935,19.9491141 C36.9956634,20.2024027 37.4448355,20.216094 37.586072,19.9720671 C37.8482548,19.5214631 38.1100398,19.0688456 38.3718247,18.6178389 C38.5114699,18.3778389 38.9506957,18.3858926 39.0752226,18.6335436 C39.7822011,20.0397181 40.4891796,21.447906 41.1965559,22.8564966 C41.2960183,23.0538121 41.1106204,23.268443 40.8408785,23.268443" id="Fill-26" fill="#6D7C98"></path>
                        <path d="M39.5777462,16.4184966 C39.5777462,16.8924564 39.1993914,17.2774228 38.7287355,17.2774228 C38.2604667,17.2774228 37.8805204,16.8924564 37.8805204,16.4184966 C37.8805204,15.9445369 38.2604667,15.5595705 38.7287355,15.5595705 C39.1993914,15.5595705 39.5777462,15.9445369 39.5777462,16.4184966" id="Fill-28" fill="#6D7C98"></path>
                        <path d="M59.0685108,23.8107383 C59.0685108,24.5395973 58.483672,25.1355705 57.7639624,25.1355705 L49.1023817,25.1355705 C48.382672,25.1355705 47.793457,24.5395973 47.793457,23.8107383 L47.793457,15.0438926 C47.793457,14.3154362 48.382672,13.7234899 49.1023817,13.7234899 L57.7639624,13.7234899 C58.483672,13.7234899 59.0685108,14.3154362 59.0685108,15.0438926 L59.0685108,23.8107383 Z M57.7639624,12.7530201 L49.1023817,12.7530201 C47.8535323,12.7530201 46.8390161,13.7798658 46.8390161,15.0438926 L46.8390161,23.8107383 C46.8390161,25.0751678 47.8535323,26.1020134 49.1023817,26.1020134 L57.7639624,26.1020134 C59.0092312,26.1020134 60.027328,25.0751678 60.027328,23.8107383 L60.027328,15.0438926 C60.027328,13.7798658 59.0092312,12.7530201 57.7639624,12.7530201 Z" id="Fill-30" fill="#6D7C98"></path>
                        <path d="M55.432286,15.559651 C54.9628237,15.559651 54.5848667,15.9462282 54.5848667,16.4173691 C54.5848667,16.8929396 54.9628237,17.2795168 55.432286,17.2795168 C55.9021462,17.2795168 56.2797054,16.8929396 56.2797054,16.4173691 C56.2797054,15.9462282 55.9021462,15.559651 55.432286,15.559651" id="Fill-32" fill="#FFFFFF"></path>
                        <path d="M57.5447075,23.2668725 L49.0311269,23.2668725 C48.7725247,23.2668725 48.5851376,23.0655302 48.668686,22.8726443 C49.5558903,20.7867383 50.4430946,18.7088859 51.3306968,16.6225772 C51.4456753,16.3527785 51.927471,16.3487517 52.0504065,16.6185503 C52.4482559,17.480698 52.8461054,18.342443 53.2403742,19.2037852 C53.3557505,19.4538523 53.4667505,19.6994899 53.5825247,19.9491544 C53.6975032,20.2028456 54.147471,20.2149262 54.2902989,19.9729128 C54.5528796,19.5223087 54.8158581,19.0668725 55.0744602,18.6162685 C55.2137075,18.3782819 55.6549226,18.3867383 55.7786538,18.6319732 C56.4868258,20.0413691 57.1949978,21.4467383 57.8991914,22.8561342 C57.9986538,23.0538523 57.815643,23.2668725 57.5447075,23.2668725 M55.4321269,15.5594899 C55.9019871,15.5594899 56.2795462,15.9460671 56.2795462,16.4172081 C56.2795462,16.8927785 55.9019871,17.2793557 55.4321269,17.2793557 C54.9630624,17.2793557 54.5851054,16.8927785 54.5851054,16.4172081 C54.5851054,15.9460671 54.9630624,15.5594899 55.4321269,15.5594899 M57.7639226,13.723651 L49.1023419,13.723651 C48.3826323,13.723651 47.7934172,14.3155973 47.7934172,15.0440537 L47.7934172,23.8108993 C47.7934172,24.5393557 48.3826323,25.1357315 49.1023419,25.1357315 L57.7639226,25.1357315 C58.4836323,25.1357315 59.068471,24.5393557 59.068471,23.8108993 L59.068471,15.0440537 C59.068471,14.3155973 58.4836323,13.723651 57.7639226,13.723651" id="Fill-34" fill="#FFFFFF"></path>
                        <path d="M57.5451054,23.268443 L49.0323204,23.268443 C48.7701376,23.268443 48.586729,23.0675034 48.6690839,22.8722013 C49.5558903,20.7887114 50.4426968,18.7072349 51.3295032,16.623745 C51.4460731,16.3547517 51.9278688,16.3487114 52.0519978,16.6177047 C52.4474602,17.4806577 52.8453097,18.3415973 53.2411699,19.2041477 C53.3557505,19.4517987 53.4683419,19.7014631 53.5829226,19.9491141 C53.6994925,20.2024027 54.1486645,20.216094 54.2899011,19.9720671 C54.5520839,19.5214631 54.8138688,19.0688456 55.0756538,18.6178389 C55.2152989,18.3778389 55.6545247,18.3858926 55.7790516,18.6335436 C56.4860301,20.0397181 57.1934065,21.447906 57.9007828,22.8564966 C57.9998473,23.0538121 57.8144495,23.268443 57.5451054,23.268443" id="Fill-36" fill="#6D7C98"></path>
                        <path d="M56.2816151,16.4184966 C56.2816151,16.8924564 55.9032602,17.2774228 55.4330022,17.2774228 C54.9647333,17.2774228 54.5843892,16.8924564 54.5843892,16.4184966 C54.5843892,15.9445369 54.9647333,15.5595705 55.4330022,15.5595705 C55.9032602,15.5595705 56.2816151,15.9445369 56.2816151,16.4184966" id="Fill-38" fill="#6D7C98"></path>
                        <path d="M25.5178258,41.3275168 C25.5178258,42.0563758 24.9329871,42.652349 24.2132774,42.652349 L15.5477183,42.652349 C14.8280086,42.652349 14.242772,42.0563758 14.242772,41.3275168 L14.242772,32.5606711 C14.242772,31.8322148 14.8280086,31.2402685 15.5477183,31.2402685 L24.2132774,31.2402685 C24.9329871,31.2402685 25.5178258,31.8322148 25.5178258,32.5606711 L25.5178258,41.3275168 Z M24.2132774,30.2697987 L15.5477183,30.2697987 C14.3028473,30.2697987 13.2883312,31.2966443 13.2883312,32.5606711 L13.2883312,41.3275168 C13.2883312,42.5919463 14.3028473,43.6187919 15.5477183,43.6187919 L24.2132774,43.6187919 C25.4585462,43.6187919 26.4726645,42.5919463 26.4726645,41.3275168 L26.4726645,32.5606711 C26.4726645,31.2966443 25.4585462,30.2697987 24.2132774,30.2697987 Z" id="Fill-40" fill="#6D7C98"></path>
                        <path d="M21.8816409,33.0764295 C21.4121785,33.0764295 21.0342215,33.4630067 21.0342215,33.9341477 C21.0342215,34.4097181 21.4121785,34.7962953 21.8816409,34.7962953 C22.3515011,34.7962953 22.7290602,34.4097181 22.7290602,33.9341477 C22.7290602,33.4630067 22.3515011,33.0764295 21.8816409,33.0764295" id="Fill-42" fill="#FFFFFF"></path>
                        <path d="M23.9940226,40.783651 L15.4804419,40.783651 C15.2174634,40.783651 15.0344527,40.5823087 15.1180011,40.3894228 C16.0056032,38.3035168 16.8924097,36.2256644 17.7800118,34.1393557 C17.8953882,33.869557 18.376786,33.8655302 18.4997215,34.1353289 C18.897571,34.9974765 19.2954204,35.8592215 19.6896892,36.7205638 C19.8050656,36.9706309 19.9160656,37.2162685 20.0318398,37.4659329 C20.1468183,37.7196242 20.596786,37.7317047 20.739614,37.4896913 C21.0021946,37.0390872 21.2611946,36.583651 21.5237753,36.133047 C21.6630226,35.8950604 22.1042376,35.9035168 22.2279688,36.1487517 C22.9361409,37.5581477 23.6399366,38.9635168 24.3485065,40.3729128 C24.4479688,40.5706309 24.2649581,40.783651 23.9940226,40.783651 M21.8814419,33.0762685 C22.3513022,33.0762685 22.7288613,33.4628456 22.7288613,33.9339866 C22.7288613,34.409557 22.3513022,34.7961342 21.8814419,34.7961342 C21.4123774,34.7961342 21.0344204,34.409557 21.0344204,33.9339866 C21.0344204,33.4628456 21.4123774,33.0762685 21.8814419,33.0762685 M24.2132376,31.2404295 L15.5480763,31.2404295 C14.8279688,31.2404295 14.2427323,31.8323758 14.2427323,32.5608322 L14.2427323,41.3276779 C14.2427323,42.0561342 14.8279688,42.6525101 15.5480763,42.6525101 L24.2132376,42.6525101 C24.9329473,42.6525101 25.517786,42.0561342 25.517786,41.3276779 L25.517786,32.5608322 C25.517786,31.8323758 24.9329473,31.2404295 24.2132376,31.2404295" id="Fill-44" fill="#FFFFFF"></path>
                        <path d="M23.9936247,40.7852215 L15.4808398,40.7852215 C15.218657,40.7852215 15.0352484,40.5842819 15.1176032,40.3889799 C16.0044097,38.3054899 16.8912161,36.2240134 17.7780226,34.1405235 C17.8945925,33.8715302 18.3763882,33.8654899 18.5005172,34.1344832 C18.8959796,34.9974362 19.293829,35.8583758 19.6896892,36.7209262 C19.8042699,36.9685772 19.9168613,37.2182416 20.0314419,37.4658926 C20.1480118,37.7191812 20.5971839,37.7328725 20.7384204,37.4888456 C21.0006032,37.0382416 21.2623882,36.5856242 21.5241731,36.1346174 C21.6638183,35.8946174 22.1030441,35.9026711 22.227571,36.1503221 C22.9345495,37.5564966 23.6419258,38.9646846 24.3493022,40.3732752 C24.4483667,40.5705906 24.2629688,40.7852215 23.9936247,40.7852215" id="Fill-46" fill="#6D7C98"></path>
                        <path d="M22.7301742,33.9352752 C22.7301742,34.4092349 22.3518194,34.7942013 21.8815613,34.7942013 C21.4132925,34.7942013 21.0329484,34.4092349 21.0329484,33.9352752 C21.0329484,33.4613154 21.4132925,33.076349 21.8815613,33.076349 C22.3518194,33.076349 22.7301742,33.4613154 22.7301742,33.9352752" id="Fill-48" fill="#6D7C98"></path>
                        <path d="M42.2236043,41.3275168 C42.2236043,42.0563758 41.6351849,42.652349 40.9150774,42.652349 L32.2534968,42.652349 C31.5337871,42.652349 30.944572,42.0563758 30.944572,41.3275168 L30.944572,32.5606711 C30.944572,31.8322148 31.5337871,31.2402685 32.2534968,31.2402685 L40.9150774,31.2402685 C41.6351849,31.2402685 42.2236043,31.8322148 42.2236043,32.5606711 L42.2236043,41.3275168 Z M40.9150774,30.2697987 L32.2534968,30.2697987 C31.0046473,30.2697987 29.9897333,31.2966443 29.9897333,32.5606711 L29.9897333,41.3275168 C29.9897333,42.5919463 31.0046473,43.6187919 32.2534968,43.6187919 L40.9150774,43.6187919 C42.1643247,43.6187919 43.178443,42.5919463 43.178443,41.3275168 L43.178443,32.5606711 C43.178443,31.2966443 42.1643247,30.2697987 40.9150774,30.2697987 Z" id="Fill-50" fill="#6D7C98"></path>
                        <path d="M38.5874194,33.0764295 C38.1175591,33.0764295 37.7360215,33.4630067 37.7360215,33.9341477 C37.7360215,34.4097181 38.1175591,34.7962953 38.5874194,34.7962953 C39.0568817,34.7962953 39.4348387,34.4097181 39.4348387,33.9341477 C39.4348387,33.4630067 39.0568817,33.0764295 38.5874194,33.0764295" id="Fill-52" fill="#FFFFFF"></path>
                        <path d="M40.6959419,40.783651 L32.1859419,40.783651 C31.9233613,40.783651 31.7403505,40.5823087 31.8199204,40.3894228 C32.7071247,38.3035168 33.594329,36.2256644 34.4815333,34.1393557 C34.5969097,33.869557 35.0783075,33.8655302 35.2056194,34.1353289 C35.5994903,34.9974765 35.9973398,35.8592215 36.3951892,36.7205638 C36.5069849,36.9706309 36.6219634,37.2162685 36.7377376,37.4659329 C36.8527161,37.7196242 37.3026839,37.7317047 37.4415333,37.4896913 C37.704114,37.0390872 37.9670925,36.583651 38.2296731,36.133047 C38.3685226,35.8950604 38.806157,35.9035168 38.9334688,36.1487517 C39.6376624,37.5581477 40.3458344,38.9635168 41.0540065,40.3729128 C41.1534688,40.5706309 40.9664796,40.783651 40.6959419,40.783651 M38.5873398,33.0762685 C39.0568022,33.0762685 39.4347591,33.4628456 39.4347591,33.9339866 C39.4347591,34.409557 39.0568022,34.7961342 38.5873398,34.7961342 C38.1178774,34.7961342 37.7363398,34.409557 37.7363398,33.9339866 C37.7363398,33.4628456 38.1178774,33.0762685 38.5873398,33.0762685 M40.915157,31.2404295 L32.2535763,31.2404295 C31.5338667,31.2404295 30.9446516,31.8323758 30.9446516,32.5608322 L30.9446516,41.3276779 C30.9446516,42.0561342 31.5338667,42.6525101 32.2535763,42.6525101 L40.915157,42.6525101 C41.6348667,42.6525101 42.2236839,42.0561342 42.2236839,41.3276779 L42.2236839,32.5608322 C42.2236839,31.8323758 41.6348667,31.2404295 40.915157,31.2404295" id="Fill-54" fill="#FFFFFF"></path>
                        <path d="M40.6974935,40.7852215 L32.1851065,40.7852215 C31.9229237,40.7852215 31.7391172,40.5842819 31.821472,40.3889799 C32.7082785,38.3054899 33.5950849,36.2240134 34.4822892,34.1405235 C34.5988591,33.8715302 35.080257,33.8654899 35.204386,34.1344832 C35.5998484,34.9974362 35.9976978,35.8583758 36.3935581,36.7209262 C36.5081387,36.9685772 36.6207301,37.2182416 36.7353108,37.4658926 C36.8518806,37.7191812 37.3014505,37.7328725 37.4426871,37.4888456 C37.704472,37.0382416 37.966257,36.5856242 38.2280419,36.1346174 C38.3676871,35.8946174 38.8073108,35.9026711 38.9318376,36.1503221 C39.6388161,37.5564966 40.3457946,38.9646846 41.053171,40.3732752 C41.1526333,40.5705906 40.9672355,40.7852215 40.6974935,40.7852215" id="Fill-56" fill="#6D7C98"></path>
                        <path d="M39.4340032,33.9352752 C39.4340032,34.4092349 39.0556484,34.7942013 38.5853903,34.7942013 C38.1171215,34.7942013 37.7367774,34.4092349 37.7367774,33.9352752 C37.7367774,33.4613154 38.1171215,33.076349 38.5853903,33.076349 C39.0556484,33.076349 39.4340032,33.4613154 39.4340032,33.9352752" id="Fill-58" fill="#6D7C98"></path>
                        <path d="M58.9255237,41.3275168 C58.9255237,42.0563758 58.3402871,42.652349 57.6205774,42.652349 L48.9589968,42.652349 C48.2353086,42.652349 47.6504699,42.0563758 47.6504699,41.3275168 L47.6504699,32.5606711 C47.6504699,31.8322148 48.2353086,31.2402685 48.9589968,31.2402685 L57.6205774,31.2402685 C58.3402871,31.2402685 58.9255237,31.8322148 58.9255237,32.5606711 L58.9255237,41.3275168 Z M57.6205774,30.2697987 L48.9589968,30.2697987 C47.7101473,30.2697987 46.6956312,31.2966443 46.6956312,32.5606711 L46.6956312,41.3275168 C46.6956312,42.5919463 47.7101473,43.6187919 48.9589968,43.6187919 L57.6205774,43.6187919 C58.8658462,43.6187919 59.8803624,42.5919463 59.8803624,41.3275168 L59.8803624,32.5606711 C59.8803624,31.2966443 58.8658462,30.2697987 57.6205774,30.2697987 Z" id="Fill-60" fill="#6D7C98"></path>
                        <path d="M55.2889409,33.0764295 C54.8194785,33.0764295 54.4419194,33.4630067 54.4419194,33.9341477 C54.4419194,34.4097181 54.8194785,34.7962953 55.2889409,34.7962953 C55.7588011,34.7962953 56.1367581,34.4097181 56.1367581,33.9341477 C56.1367581,33.4630067 55.7588011,33.0764295 55.2889409,33.0764295" id="Fill-62" fill="#FFFFFF"></path>
                        <path d="M57.4017204,40.783651 L48.8877419,40.783651 C48.6247634,40.783651 48.4421505,40.5823087 48.5253011,40.3894228 C49.4129032,38.3035168 50.3001075,36.2256644 51.1873118,34.1393557 C51.3026882,33.869557 51.784086,33.8655302 51.9070215,34.1353289 C52.304871,34.9974765 52.7027204,35.8592215 53.0969892,36.7205638 C53.2123656,36.9706309 53.3237634,37.2162685 53.4391398,37.4659329 C53.5545161,37.7196242 54.004086,37.7317047 54.1473118,37.4896913 C54.4098925,37.0390872 54.6684946,36.583651 54.9310753,36.133047 C55.0703226,35.8950604 55.5119355,35.9035168 55.6356667,36.1487517 C56.3434409,37.5581477 57.0516129,38.9635168 57.7558065,40.3729128 C57.8552688,40.5706309 57.6722581,40.783651 57.4017204,40.783651 M55.2887419,33.0762685 C55.7586022,33.0762685 56.1365591,33.4628456 56.1365591,33.9339866 C56.1365591,34.409557 55.7586022,34.7961342 55.2887419,34.7961342 C54.8196774,34.7961342 54.4421183,34.409557 54.4421183,33.9339866 C54.4421183,33.4628456 54.8196774,33.0762685 55.2887419,33.0762685 M57.6205376,31.2404295 L48.958957,31.2404295 C48.2352688,31.2404295 47.6504301,31.8323758 47.6504301,32.5608322 L47.6504301,41.3276779 C47.6504301,42.0561342 48.2352688,42.6525101 48.958957,42.6525101 L57.6205376,42.6525101 C58.3402473,42.6525101 58.9254839,42.0561342 58.9254839,41.3276779 L58.9254839,32.5608322 C58.9254839,31.8323758 58.3402473,31.2404295 57.6205376,31.2404295" id="Fill-64" fill="#FFFFFF"></path>
                        <path d="M57.4013624,40.7852215 L48.8889753,40.7852215 C48.6267925,40.7852215 48.4433839,40.5842819 48.5253409,40.3889799 C49.4125452,38.3054899 50.2989538,36.2240134 51.1861581,34.1405235 C51.302728,33.8715302 51.7845237,33.8654899 51.9086527,34.1344832 C52.3041151,34.9974362 52.7015667,35.8583758 53.0974269,36.7209262 C53.2120075,36.9685772 53.3249968,37.2182416 53.4395774,37.4658926 C53.5561473,37.7191812 54.0053194,37.7328725 54.1465559,37.4888456 C54.4087387,37.0382416 54.6705237,36.5856242 54.9323086,36.1346174 C55.0719538,35.8946174 55.5111796,35.9026711 55.6357065,36.1503221 C56.3426849,37.5564966 57.0496634,38.9646846 57.7570398,40.3732752 C57.8565022,40.5705906 57.6711043,40.7852215 57.4013624,40.7852215" id="Fill-66" fill="#6D7C98"></path>
                        <path d="M56.1382301,33.9352752 C56.1382301,34.4092349 55.7598753,34.7942013 55.2892194,34.7942013 C54.8209505,34.7942013 54.4410043,34.4092349 54.4410043,33.9352752 C54.4410043,33.4613154 54.8209505,33.076349 55.2892194,33.076349 C55.7598753,33.076349 56.1382301,33.4613154 56.1382301,33.9352752" id="Fill-68" fill="#6D7C98"></path>
                    </g>
                    <text id="Upload-a-video" font-family="Lato-Regular, Lato" font-size="11" font-weight="normal" letter-spacing="-0.22" fill="#0E75B8">
                        <tspan x="77" y="118">Upload a video </tspan>
                    </text>
                    <text id="Select-a-video-from" font-family="Lato-Regular, Lato" font-size="11" font-weight="normal" letter-spacing="-0.22" fill="#0E75B8">
                        <tspan x="265" y="118">Select a video from media library</tspan>
                    </text>
                    <g id="Group-9" transform="translate(77.000000, 35.000000)">
                        <g id="Group-3" transform="translate(0.000000, 0.251149)">
                            <mask id="mask-4" fill="white">
                                <use xlink:href="#path-3"></use>
                            </mask>
                            <g id="Clip-2"></g>
                            <path d="M49.9937237,0.147739189 L49.9937237,39.8926108 C49.9937237,40.8693 49.2024011,41.6630095 48.227272,41.6630095 L0.0516806452,41.6630095 C0.0361645161,41.6630095 0.0158741935,41.6630095 -3.97849462e-05,41.6586243 L-3.97849462e-05,8.49145541 C-3.97849462e-05,3.89105 3.73536882,0.147739189 8.31501398,0.147739189 L49.9937237,0.147739189 Z" id="Fill-1" fill="#EDF0F3" mask="url(#mask-4)"></path>
                        </g>
                        <path d="M49.1304301,24.8238912 L30.5468817,14.8297696 C29.3099677,14.0643642 27.7221505,14.9493642 27.7221505,16.4004453 L27.7221505,36.3886885 C27.7221505,37.8397696 29.3099677,38.7247696 30.5468817,37.9474047 L49.1304301,27.9532831 C49.6834409,27.6104453 49.973871,27.0403777 49.9937634,26.4663236 L49.9937634,26.3148372 C49.973871,25.7367966 49.6834409,25.1707155 49.1304301,24.8238912 Z M0.0362043011,51.0669318 C0.0119354839,51.150648 -8.32667268e-17,51.2303777 -8.32667268e-17,51.3260534 C-8.32667268e-17,51.5014588 0.0362043011,51.6688912 0.107419355,51.8203777 C0.0596774194,51.5732155 0.0362043011,51.3260534 0.0362043011,51.0669318 Z M49.1304301,24.8238912 L30.5468817,14.8297696 C29.3099677,14.0643642 27.7221505,14.9493642 27.7221505,16.4004453 L27.7221505,36.3886885 C27.7221505,37.8397696 29.3099677,38.7247696 30.5468817,37.9474047 L49.1304301,27.9532831 C49.6834409,27.6104453 49.973871,27.0403777 49.9937634,26.4663236 L49.9937634,26.3148372 C49.973871,25.7367966 49.6834409,25.1707155 49.1304301,24.8238912 Z M49.1662366,49.9347696 C48.5177419,49.9347696 47.9886022,50.4530128 47.9886022,51.1143709 C47.9886022,51.7605804 48.5177419,52.2947696 49.1662366,52.2947696 L61.1773118,52.2947696 C61.1653763,52.2349723 61.1653763,52.1747764 61.1653763,52.1034182 L61.1653763,52.0675399 C61.1653763,51.4336885 61.2449462,50.8197696 61.388172,50.2174115 L61.4001075,50.2058507 C61.412043,50.1340939 61.4363118,50.0499791 61.4597849,49.9822088 C61.4597849,49.970648 61.4721183,49.9467291 61.4721183,49.9347696 L49.1662366,49.9347696 Z M49.1304301,24.8238912 L30.5468817,14.8297696 C29.3099677,14.0643642 27.7221505,14.9493642 27.7221505,16.4004453 L27.7221505,36.3886885 C27.7221505,37.8397696 29.3099677,38.7247696 30.5468817,37.9474047 L49.1304301,27.9532831 C49.6834409,27.6104453 49.973871,27.0403777 49.9937634,26.4663236 L49.9937634,26.3148372 C49.973871,25.7367966 49.6834409,25.1707155 49.1304301,24.8238912 Z M49.1304301,24.8238912 L30.5468817,14.8297696 C29.3099677,14.0643642 27.7221505,14.9493642 27.7221505,16.4004453 L27.7221505,36.3886885 C27.7221505,37.8397696 29.3099677,38.7247696 30.5468817,37.9474047 L49.1304301,27.9532831 C49.6834409,27.6104453 49.973871,27.0403777 49.9937634,26.4663236 L49.9937634,26.3148372 C49.973871,25.7367966 49.6834409,25.1707155 49.1304301,24.8238912 Z M49.1304301,24.8238912 L30.5468817,14.8297696 C29.3099677,14.0643642 27.7221505,14.9493642 27.7221505,16.4004453 L27.7221505,36.3886885 C27.7221505,37.8397696 29.3099677,38.7247696 30.5468817,37.9474047 L49.1304301,27.9532831 C49.6834409,27.6104453 49.973871,27.0403777 49.9937634,26.4663236 L49.9937634,26.3148372 C49.973871,25.7367966 49.6834409,25.1707155 49.1304301,24.8238912 Z M49.1304301,24.8238912 L30.5468817,14.8297696 C29.3099677,14.0643642 27.7221505,14.9493642 27.7221505,16.4004453 L27.7221505,36.3886885 C27.7221505,37.8397696 29.3099677,38.7247696 30.5468817,37.9474047 L49.1304301,27.9532831 C49.6834409,27.6104453 49.973871,27.0403777 49.9937634,26.4663236 L49.9937634,26.3148372 C49.973871,25.7367966 49.6834409,25.1707155 49.1304301,24.8238912 Z M49.1304301,24.8238912 L30.5468817,14.8297696 C29.3099677,14.0643642 27.7221505,14.9493642 27.7221505,16.4004453 L27.7221505,36.3886885 C27.7221505,37.8397696 29.3099677,38.7247696 30.5468817,37.9474047 L49.1304301,27.9532831 C49.6834409,27.6104453 49.973871,27.0403777 49.9937634,26.4663236 L49.9937634,26.3148372 C49.973871,25.7367966 49.6834409,25.1707155 49.1304301,24.8238912 Z M30.5468817,37.9474047 L49.1304301,27.9532831 C49.6834409,27.6104453 49.973871,27.0403777 49.9937634,26.4663236 L49.9937634,26.3148372 C49.973871,25.7367966 49.6834409,25.1707155 49.1304301,24.8238912 L30.5468817,14.8297696 C29.3099677,14.0643642 27.7221505,14.9493642 27.7221505,16.4004453 L27.7221505,36.3886885 C27.7221505,37.8397696 29.3099677,38.7247696 30.5468817,37.9474047 Z M7.77397849,10.9269993 C7.77397849,9.38024257 9.03516129,8.11652635 10.5867742,8.11652635 L62.4345161,8.11652635 C63.978172,8.11652635 65.2393548,9.38024257 65.2393548,10.9269993 L65.2393548,44.6726074 L7.77397849,44.6726074 L7.77397849,10.9269993 Z M64.6982796,0.398688514 L8.31505376,0.398688514 C3.7354086,0.398688514 0,4.14199932 0,8.74240473 L0,50.5247696 C0,50.7117358 0.0119354839,50.8875399 0.0362043011,51.0669318 C0.0362043011,51.3260534 0.0596774194,51.5732155 0.107419355,51.8203777 C0.73244086,55.7984926 4.1817957,58.8521412 8.31505376,58.8521412 L64.7543763,58.8521412 C64.3441935,58.5814588 63.9419677,58.2625399 63.5882796,57.9077426 L63.5524731,57.8758507 C63.5325806,57.8519318 63.5087097,57.8160534 63.4848387,57.8040939 C63.4729032,57.7917358 63.4729032,57.7917358 63.4613656,57.780175 C63.0830108,57.3891007 62.7408602,56.9549723 62.4583871,56.4921412 L8.31505376,56.4921412 C5.72465591,56.4921412 3.50903226,54.830175 2.70935484,52.5056547 L22.4705376,52.5056547 C23.1150538,52.5056547 23.648172,51.975452 23.648172,51.3260534 C23.648172,50.6762561 23.1150538,50.1460534 22.4705376,50.1460534 L2.35566667,50.1460534 L2.35566667,47.0326074 L62.9437634,47.0326074 C63.3058065,46.5462561 63.743043,46.1236885 64.2129032,45.7449723 C64.2248387,45.7210534 64.2367742,45.7210534 64.2487097,45.7210534 C64.765914,45.2825399 65.3427957,44.9197696 65.9554839,44.660648 C66.2737634,44.505175 66.6039785,44.3895669 66.946129,44.2695736 C66.9580645,44.2695736 66.97,44.2580128 66.9819355,44.2580128 C67.0062043,44.2460534 67.0420108,44.2460534 67.0738387,44.2460534 C67.205129,44.210175 67.3439785,44.1623372 67.4752688,44.1380196 C67.5110753,44.1264588 67.5349462,44.1264588 67.5711505,44.1065264 L67.5946237,44.1065264 L67.5946237,10.9269993 C67.5946237,8.08064797 65.2751613,5.75652635 62.4345161,5.75652635 L10.5867742,5.75652635 C7.73817204,5.75652635 5.41870968,8.08064797 5.41870968,10.9269993 L5.41870968,44.6726074 L2.35566667,44.6726074 L2.35566667,8.74240473 C2.35566667,5.43760743 5.02841935,2.75868851 8.31505376,2.75868851 L64.6982796,2.75868851 C67.9805376,2.75868851 70.6544839,5.43760743 70.6544839,8.74240473 L70.6544839,44.0343709 C70.9365591,44.0826074 71.2070968,44.1380196 71.4776344,44.2221345 C71.7167419,44.2819318 71.9510753,44.3536885 72.1858065,44.4453777 C72.4682796,44.5410534 72.7388172,44.660648 73.0097527,44.7997764 L73.0097527,8.74240473 C73.0097527,4.14199932 69.2775269,0.398688514 64.6982796,0.398688514 Z M49.1304301,24.8238912 L30.5468817,14.8297696 C29.3099677,14.0643642 27.7221505,14.9493642 27.7221505,16.4004453 L27.7221505,36.3886885 C27.7221505,37.8397696 29.3099677,38.7247696 30.5468817,37.9474047 L49.1304301,27.9532831 C49.6834409,27.6104453 49.973871,27.0403777 49.9937634,26.4663236 L49.9937634,26.3148372 C49.973871,25.7367966 49.6834409,25.1707155 49.1304301,24.8238912 Z M49.1304301,24.8238912 L30.5468817,14.8297696 C29.3099677,14.0643642 27.7221505,14.9493642 27.7221505,16.4004453 L27.7221505,36.3886885 C27.7221505,37.8397696 29.3099677,38.7247696 30.5468817,37.9474047 L49.1304301,27.9532831 C49.6834409,27.6104453 49.973871,27.0403777 49.9937634,26.4663236 L49.9937634,26.3148372 C49.973871,25.7367966 49.6834409,25.1707155 49.1304301,24.8238912 Z M49.1304301,24.8238912 L30.5468817,14.8297696 C29.3099677,14.0643642 27.7221505,14.9493642 27.7221505,16.4004453 L27.7221505,36.3886885 C27.7221505,37.8397696 29.3099677,38.7247696 30.5468817,37.9474047 L49.1304301,27.9532831 C49.6834409,27.6104453 49.973871,27.0403777 49.9937634,26.4663236 L49.9937634,26.3148372 C49.973871,25.7367966 49.6834409,25.1707155 49.1304301,24.8238912 Z M49.1304301,24.8238912 L30.5468817,14.8297696 C29.3099677,14.0643642 27.7221505,14.9493642 27.7221505,16.4004453 L27.7221505,36.3886885 C27.7221505,37.8397696 29.3099677,38.7247696 30.5468817,37.9474047 L49.1304301,27.9532831 C49.6834409,27.6104453 49.973871,27.0403777 49.9937634,26.4663236 L49.9937634,26.3148372 C49.973871,25.7367966 49.6834409,25.1707155 49.1304301,24.8238912 Z M49.1304301,24.8238912 L30.5468817,14.8297696 C29.3099677,14.0643642 27.7221505,14.9493642 27.7221505,16.4004453 L27.7221505,36.3886885 C27.7221505,37.8397696 29.3099677,38.7247696 30.5468817,37.9474047 L49.1304301,27.9532831 C49.6834409,27.6104453 49.973871,27.0403777 49.9937634,26.4663236 L49.9937634,26.3148372 C49.973871,25.7367966 49.6834409,25.1707155 49.1304301,24.8238912 Z M49.1304301,24.8238912 L30.5468817,14.8297696 C29.3099677,14.0643642 27.7221505,14.9493642 27.7221505,16.4004453 L27.7221505,36.3886885 C27.7221505,37.8397696 29.3099677,38.7247696 30.5468817,37.9474047 L49.1304301,27.9532831 C49.6834409,27.6104453 49.973871,27.0403777 49.9937634,26.4663236 L49.9937634,26.3148372 C49.973871,25.7367966 49.6834409,25.1707155 49.1304301,24.8238912 Z M49.1662366,49.9347696 C48.5177419,49.9347696 47.9886022,50.4530128 47.9886022,51.1143709 C47.9886022,51.7605804 48.5177419,52.2947696 49.1662366,52.2947696 L61.1773118,52.2947696 C61.1653763,52.2349723 61.1653763,52.1747764 61.1653763,52.1034182 L61.1653763,52.0675399 C61.1653763,51.4336885 61.2449462,50.8197696 61.388172,50.2174115 L61.4001075,50.2058507 C61.412043,50.1340939 61.4363118,50.0499791 61.4597849,49.9822088 C61.4597849,49.970648 61.4721183,49.9467291 61.4721183,49.9347696 L49.1662366,49.9347696 Z M49.1304301,24.8238912 L30.5468817,14.8297696 C29.3099677,14.0643642 27.7221505,14.9493642 27.7221505,16.4004453 L27.7221505,36.3886885 C27.7221505,37.8397696 29.3099677,38.7247696 30.5468817,37.9474047 L49.1304301,27.9532831 C49.6834409,27.6104453 49.973871,27.0403777 49.9937634,26.4663236 L49.9937634,26.3148372 C49.973871,25.7367966 49.6834409,25.1707155 49.1304301,24.8238912 Z" id="Fill-4" fill="#7887A2"></path>
                        <g id="Group-8" transform="translate(64.451613, 46.494392)">
                            <mask id="mask-6" fill="white">
                                <use xlink:href="#path-5"></use>
                            </mask>
                            <g id="Clip-7"></g>
                            <path d="M4.79623441,11.5797068 C4.2468043,11.5797068 3.80161075,11.1336189 3.80161075,10.5830851 L3.80161075,3.58919324 L1.83742796,5.43573378 C1.43679355,5.81205811 0.807395699,5.79172703 0.431427957,5.39108514 C0.251202151,5.19813919 0.16248172,4.95297027 0.16248172,4.70859865 C0.16248172,4.44309865 0.267911828,4.17839595 0.476384946,3.98186216 L4.11551398,0.560659459 L4.11670753,0.559463514 C4.28897634,0.398409459 4.5042129,0.309510811 4.72342796,0.293564865 C4.79146022,0.288781081 4.86108387,0.291172973 4.92991183,0.299943243 C5.0978043,0.322666216 5.26132043,0.388443243 5.40215914,0.497274324 C5.42682581,0.516409459 5.45069677,0.536341892 5.47297634,0.55747027 L9.13716989,3.90731486 C9.54337419,4.27845676 9.57201935,4.90872027 9.20162151,5.31494324 C8.83201935,5.72196351 8.20222366,5.75106486 7.79681505,5.37952432 L5.79085806,3.54613919 L5.79085806,10.5830851 C5.79085806,11.1336189 5.34566452,11.5797068 4.79623441,11.5797068" id="Fill-6" fill="#6D7C98" mask="url(#mask-6)"></path>
                        </g>
                    </g>
                </g>
            </g>
        </g>
    </g>
</svg>