<?xml version="1.0" encoding="UTF-8"?>
<svg width="502px" height="154px" viewBox="0 0 502 154" version="1.1" xmlns="http://www.w3.org/2000/svg" xmlns:xlink="http://www.w3.org/1999/xlink">
    <!-- Generator: Sketch 52.6 (67491) - http://www.bohemiancoding.com/sketch -->
    <title>upload-video modular page</title>
    <desc>Created with Sketch.</desc>
    <defs>
        <polygon id="path-1" points="0 0.253691275 73.9084946 0.253691275 73.9084946 59.5972752 0 59.5972752"></polygon>
        <polygon id="path-3" points="0.096669697 0.452073585 1.2027303 0.452073585 1.2027303 1.11320755 0.096669697 1.11320755"></polygon>
        <polygon id="path-5" points="0 0 71.9763409 0 71.9763409 57.8867925 0 57.8867925"></polygon>
    </defs>
    <g id="UI-Updates-2019-Modular-page-" stroke="none" stroke-width="1" fill="none" fill-rule="evenodd">
        <g id="1---Modular-page-empty-items" transform="translate(-211.000000, -871.000000)">
            <g id="upload-video-modular-page" transform="translate(211.000000, 871.000000)">
                <g id="Group-2">
                    <g id="Group-6" transform="translate(473.000000, 0.000000)">
                        <g id="Group-3">
                            <g id="IMAGE-+-CAPTION">
                                <g id="arrow-btn">
                                    <path d="M0.5,4.00187852 L0.5,24.9981215 C0.5,26.9318426 2.06802409,28.5 4.00187852,28.5 L24.9981215,28.5 C26.9318426,28.5 28.5,26.9319759 28.5,24.9981215 L28.5,4.00187852 C28.5,2.06815743 26.9319759,0.5 24.9981215,0.5 L4.00187852,0.5 C2.06815743,0.5 0.5,2.06802409 0.5,4.00187852 Z" id="Rectangle-7" stroke="#D2D9E1" fill="#FFFFFF"></path>
                                    <path d="M19.9805691,16.1669568 L14.6537572,10.0581362 C14.581163,9.97488472 14.454825,9.96624529 14.3715735,10.0388395 C14.3647146,10.0448204 14.3582719,10.0512625 14.3522903,10.0581208 L9.02530902,16.1658721 C8.95270625,16.2491161 8.96133274,16.375455 9.04457681,16.4480577 C9.08100294,16.4798274 9.12770175,16.497331 9.17603575,16.497331 L12.4676435,16.497331 L12.4676435,19.7559341 C12.4676435,19.866391 12.5571866,19.9559341 12.6676435,19.9559341 L16.3382859,19.9559341 C16.4487429,19.9559341 16.5382859,19.866391 16.5382859,19.7559341 L16.5382859,16.497331 L19.8297639,16.4984003 C19.9402209,16.4984362 20.029793,16.4089222 20.0298289,16.2984653 C20.0298446,16.250116 20.0123451,16.2033977 19.9805691,16.1669568 Z" id="Shape" fill="#067BBE" fill-rule="nonzero"></path>
                                </g>
                                <g id="delete-btn" transform="translate(0.000000, 81.000000)">
                                    <path d="M0.5,4.00187852 L0.5,24.9981215 C0.5,26.9318426 2.06802409,28.5 4.00187852,28.5 L24.9981215,28.5 C26.9318426,28.5 28.5,26.9319759 28.5,24.9981215 L28.5,4.00187852 C28.5,2.06815743 26.9319759,0.5 24.9981215,0.5 L4.00187852,0.5 C2.06815743,0.5 0.5,2.06802409 0.5,4.00187852 Z" id="Rectangle-7" stroke="#D2D9E1" fill="#FFFFFF"></path>
                                    <g id="bin-copy-6" transform="translate(8.812500, 8.812500)" fill="#D72B36" fill-rule="nonzero" stroke="#D72B36" stroke-width="0.3">
                                        <path d="M10.787718,1.46208141 L7.80030132,1.46208141 L7.80030132,0.622375106 C7.80030132,0.347855736 7.52578195,0.121780961 7.17052158,0.121780961 L4.07006752,0.121780961 C3.71480716,0.121780961 3.44028779,0.347855736 3.44028779,0.622375106 L3.44028779,1.46208141 L0.452871122,1.46208141 C0.323685536,1.46208141 0.210648148,1.5751188 0.210648148,1.70430439 C0.210648148,1.83348997 0.323685536,1.94652736 0.452871122,1.94652736 L1.26028103,1.94652736 L1.89006076,9.68151431 C1.89006076,10.4404796 2.5036923,11.037963 3.26265761,11.037963 L7.9617833,11.037963 C8.72074861,11.037963 9.33438015,10.4243314 9.33438015,9.68151431 L9.98030808,1.94652736 L10.787718,1.94652736 C10.9169036,1.94652736 11.029941,1.83348997 11.029941,1.70430439 C11.029941,1.5751188 10.9169036,1.46208141 10.787718,1.46208141 Z M3.92473374,0.654671502 C3.94088194,0.638523304 3.98932653,0.622375106 4.07006752,0.622375106 L7.17052158,0.622375106 C7.25126258,0.622375106 7.29970717,0.654671502 7.31585537,0.654671502 L7.31585537,1.47822961 L3.92473374,1.47822961 L3.92473374,0.654671502 L3.92473374,0.654671502 Z M8.8660824,9.66536611 L8.8660824,9.68151431 C8.8660824,10.1659603 8.46237744,10.5696652 7.9779315,10.5696652 L3.26265761,10.5696652 C2.77821167,10.5696652 2.37450671,10.1659603 2.37450671,9.68151431 L1.74472698,1.94652736 L9.47971393,1.94652736 L8.8660824,9.66536611 Z" id="Shape"></path>
                                        <path d="M4.34458689,8.47039944 L4.34458689,8.47039944 C4.48992068,8.47039944 4.58680987,8.35736206 4.58680987,8.21202827 L4.40917969,4.27186791 C4.40917969,4.14268232 4.2961423,4.02964493 4.15080852,4.04579313 C4.02162293,4.04579313 3.90858554,4.15883052 3.92473374,4.3041643 L4.10236392,8.24432467 C4.10236392,8.37351026 4.21540131,8.47039944 4.34458689,8.47039944 Z" id="Shape"></path>
                                        <path d="M6.89600221,8.47039944 L6.89600221,8.47039944 C7.041336,8.47039944 7.13822519,8.37351026 7.15437339,8.24432467 L7.33200357,4.3041643 C7.33200357,4.17497872 7.23511438,4.06194133 7.10592879,4.04579313 C6.97674321,4.04579313 6.86370582,4.14268232 6.84755762,4.27186791 L6.66992744,8.21202827 C6.65377924,8.35736206 6.75066843,8.47039944 6.89600221,8.47039944 Z" id="Shape"></path>
                                    </g>
                                </g>
                                <g id="arrow-btn" transform="translate(14.500000, 47.500000) scale(-1, -1) translate(-14.500000, -47.500000) translate(0.000000, 33.000000)">
                                    <path d="M0.5,4.00187852 L0.5,24.9981215 C0.5,26.9318426 2.06802409,28.5 4.00187852,28.5 L24.9981215,28.5 C26.9318426,28.5 28.5,26.9319759 28.5,24.9981215 L28.5,4.00187852 C28.5,2.06815743 26.9319759,0.5 24.9981215,0.5 L4.00187852,0.5 C2.06815743,0.5 0.5,2.06802409 0.5,4.00187852 Z" id="Rectangle-7" stroke="#D2D9E1" fill="#FFFFFF"></path>
                                    <path d="M19.9805691,15.1669568 L14.6537572,9.05813624 C14.581163,8.97488472 14.454825,8.96624529 14.3715735,9.03883953 C14.3647146,9.04482042 14.3582719,9.05126248 14.3522903,9.05812079 L9.02530902,15.1658721 C8.95270625,15.2491161 8.96133274,15.375455 9.04457681,15.4480577 C9.08100294,15.4798274 9.12770175,15.497331 9.17603575,15.497331 L12.4676435,15.497331 L12.4676435,18.7559341 C12.4676435,18.866391 12.5571866,18.9559341 12.6676435,18.9559341 L16.3382859,18.9559341 C16.4487429,18.9559341 16.5382859,18.866391 16.5382859,18.7559341 L16.5382859,15.497331 L19.8297639,15.4984003 C19.9402209,15.4984362 20.029793,15.4089222 20.0298289,15.2984653 C20.0298446,15.250116 20.0123451,15.2033977 19.9805691,15.1669568 Z" id="Shape" fill="#067BBE" fill-rule="nonzero"></path>
                                </g>
                            </g>
                        </g>
                    </g>
                    <path d="M225.5,2.5 L225.5,153.5 L455.5,153.5 L455.5,2.5 L225.5,2.5 Z" id="Rectangle" stroke="#E4E4E4" fill="#FFFFFF" fill-rule="nonzero"></path>
                    <rect id="Rectangle" stroke="#E4E4E4" fill="#FFFFFF" fill-rule="nonzero" x="0.5" y="2.5" width="226" height="151"></rect>
                    <g id="Group-70" transform="translate(304.000000, 34.000000)">
                        <path d="M65.7208323,12.2135034 L65.7208323,49.5504161 L11.1040581,49.5504161 L11.1040581,10.2363221 C11.1040581,9.18128859 11.8555957,8.30343624 12.8502194,8.12625503 L61.8891441,8.12625503 C64.0021226,8.12625503 65.7208323,9.96249664 65.7208323,12.2135034" id="Fill-1" fill="#EDF0F3"></path>
                        <path d="M71.3424054,10.2362416 L71.3424054,49.5503356 L67.7100398,49.5503356 L67.7100398,12.2134228 C67.7100398,10.6268456 67.1291796,9.17718121 66.1743409,8.08993289 L69.2218677,8.08993289 C70.3915452,8.08993289 71.3424054,9.05275168 71.3424054,10.2362416" id="Fill-3" fill="#EDF0F3"></path>
                        <path d="M71.3424054,51.5637181 L71.3424054,52.6755302 C70.6859538,55.3449262 68.2948785,57.3301611 65.4582118,57.3301611 L11.1040183,57.3301611 L11.1040183,51.5637181 L71.3424054,51.5637181 Z" id="Fill-5" fill="#EDF0F3"></path>
                        <g id="Group-9" transform="translate(0.000000, 0.148993)">
                            <mask id="mask-2" fill="white">
                                <use xlink:href="#path-1"></use>
                            </mask>
                            <g id="Clip-8"></g>
                            <path d="M71.5215172,49.401302 L67.7101194,49.401302 L67.7101194,12.0643893 C67.7101194,10.4778121 67.1292591,9.02814765 66.1744204,7.94089933 C65.1121624,6.72519463 63.5844204,5.96371812 61.8891839,5.96371812 L12.0187538,5.96371812 C8.8081086,5.96371812 6.19861398,8.70237584 6.19861398,12.0643893 L6.19861398,49.401302 L2.38681828,49.401302 L2.38681828,8.80304698 C2.38681828,5.42009396 5.10452796,2.66975839 8.44646344,2.66975839 L65.4582914,2.66975839 C68.8002269,2.66975839 71.5215172,5.42009396 71.5215172,8.80304698 L71.5215172,49.401302 Z M8.18786129,49.401302 L8.18786129,12.0643893 C8.18786129,9.81338255 9.90657097,7.97714094 12.0187538,7.97714094 L61.8891839,7.97714094 C64.0021624,7.97714094 65.720872,9.81338255 65.720872,12.0643893 L65.720872,49.401302 L8.18786129,49.401302 Z M71.3424849,52.5265369 C70.6856355,55.1959329 68.2949581,57.1811678 65.4582914,57.1811678 L8.44646344,57.1811678 C5.22746344,57.1811678 2.58574301,54.627745 2.39915161,51.4147248 L71.5095817,51.4147248 C71.4896892,51.7972752 71.4300118,52.167745 71.3424849,52.5265369 Z M65.4582914,0.253651007 L8.44646344,0.253651007 C3.79162473,0.253651007 -0.000278494624,4.08720805 -0.000278494624,8.80304698 L-0.000278494624,51.0482819 C-0.000278494624,55.7637181 3.79162473,59.5972752 8.44646344,59.5972752 L65.4582914,59.5972752 C67.7419473,59.5972752 69.8223022,58.6751275 71.3424849,57.1771409 C72.925528,55.6227785 73.908614,53.4482819 73.908614,51.0482819 L73.908614,8.80304698 C73.908614,4.08720805 70.1171086,0.253651007 65.4582914,0.253651007 Z" id="Fill-7" fill="#6D7C98" mask="url(#mask-2)"></path>
                        </g>
                        <path d="M25.6612108,23.8107383 C25.6612108,24.5395973 25.076372,25.1355705 24.3562645,25.1355705 L15.6911032,25.1355705 C14.9709957,25.1355705 14.386157,24.5395973 14.386157,23.8107383 L14.386157,15.0438926 C14.386157,14.3154362 14.9709957,13.7234899 15.6911032,13.7234899 L24.3562645,13.7234899 C25.076372,13.7234899 25.6612108,14.3154362 25.6612108,15.0438926 L25.6612108,23.8107383 Z M24.3562645,12.7530201 L15.6911032,12.7530201 C14.4458344,12.7530201 13.4317161,13.7798658 13.4317161,15.0438926 L13.4317161,23.8107383 C13.4317161,25.0751678 14.4458344,26.1020134 15.6911032,26.1020134 L24.3562645,26.1020134 C25.6019312,26.1020134 26.6160495,25.0751678 26.6160495,23.8107383 L26.6160495,15.0438926 C26.6160495,13.7798658 25.6019312,12.7530201 24.3562645,12.7530201 Z" id="Fill-10" fill="#6D7C98"></path>
                        <path d="M22.024986,15.559651 C21.5555237,15.559651 21.1775667,15.9462282 21.1775667,16.4173691 C21.1775667,16.8929396 21.5555237,17.2795168 22.024986,17.2795168 C22.4944484,17.2795168 22.8724054,16.8929396 22.8724054,16.4173691 C22.8724054,15.9462282 22.4944484,15.559651 22.024986,15.559651" id="Fill-12" fill="#FFFFFF"></path>
                        <path d="M24.1374075,23.2668725 L15.6238269,23.2668725 C15.3608484,23.2668725 15.1778376,23.0655302 15.261386,22.8726443 C16.1489882,20.7867383 17.0357946,18.7088859 17.9229989,16.6225772 C18.0387731,16.3527785 18.5197731,16.3487517 18.6431065,16.6185503 C19.0409559,17.480698 19.4388054,18.342443 19.8330742,19.2037852 C19.9480527,19.4538523 20.0594505,19.6994899 20.1748269,19.9491544 C20.2902032,20.2028456 20.7397731,20.2149262 20.8829989,19.9729128 C21.1455796,19.5223087 21.4041817,19.0668725 21.6667624,18.6162685 C21.8060097,18.3782819 22.2476226,18.3867383 22.3713538,18.6319732 C23.0795258,20.0413691 23.7833215,21.4467383 24.4914935,22.8561342 C24.5909559,23.0538523 24.408343,23.2668725 24.1374075,23.2668725 M22.0248269,15.5594899 C22.4942892,15.5594899 22.8722462,15.9460671 22.8722462,16.4172081 C22.8722462,16.8927785 22.4942892,17.2793557 22.0248269,17.2793557 C21.5557624,17.2793557 21.1778054,16.8927785 21.1778054,16.4172081 C21.1778054,15.9460671 21.5557624,15.5594899 22.0248269,15.5594899 M24.3562247,13.723651 L15.6914613,13.723651 C14.9709559,13.723651 14.3861172,14.3155973 14.3861172,15.0440537 L14.3861172,23.8108993 C14.3861172,24.5393557 14.9709559,25.1357315 15.6914613,25.1357315 L24.3562247,25.1357315 C25.0763323,25.1357315 25.661171,24.5393557 25.661171,23.8108993 L25.661171,15.0440537 C25.661171,14.3155973 25.0763323,13.723651 24.3562247,13.723651" id="Fill-14" fill="#FFFFFF"></path>
                        <path d="M24.1370097,23.268443 L15.6246226,23.268443 C15.3624398,23.268443 15.1786333,23.0675034 15.2609882,22.8722013 C16.1477946,20.7887114 17.0346011,18.7072349 17.9218054,16.623745 C18.0383753,16.3547517 18.5197731,16.3487114 18.6439022,16.6177047 C19.0393645,17.4806577 19.437214,18.3415973 19.8330742,19.2041477 C19.9476548,19.4517987 20.0602462,19.7014631 20.1748269,19.9491141 C20.2913968,20.2024027 20.7405688,20.216094 20.8822032,19.9720671 C21.1439882,19.5214631 21.4057731,19.0688456 21.6675581,18.6178389 C21.8072032,18.3778389 22.2468269,18.3858926 22.3713538,18.6335436 C23.0783323,20.0397181 23.7853108,21.447906 24.4926871,22.8564966 C24.5921495,23.0538121 24.4067516,23.268443 24.1370097,23.268443" id="Fill-16" fill="#6D7C98"></path>
                        <path d="M22.8735194,16.4184966 C22.8735194,16.8924564 22.4951645,17.2774228 22.0249065,17.2774228 C21.5566376,17.2774228 21.1762935,16.8924564 21.1762935,16.4184966 C21.1762935,15.9445369 21.5566376,15.5595705 22.0249065,15.5595705 C22.4951645,15.5595705 22.8735194,15.9445369 22.8735194,16.4184966" id="Fill-18" fill="#6D7C98"></path>
                        <path d="M42.3669892,23.8107383 C42.3669892,24.5395973 41.7785699,25.1355705 41.0580645,25.1355705 L32.3968817,25.1355705 C31.6767742,25.1355705 31.0875591,24.5395973 31.0875591,23.8107383 L31.0875591,15.0438926 C31.0875591,14.3154362 31.6767742,13.7234899 32.3968817,13.7234899 L41.0580645,13.7234899 C41.7785699,13.7234899 42.3669892,14.3154362 42.3669892,15.0438926 L42.3669892,23.8107383 Z M41.0580645,12.7530201 L32.3968817,12.7530201 C31.1476344,12.7530201 30.1331183,13.7798658 30.1331183,15.0438926 L30.1331183,23.8107383 C30.1331183,25.0751678 31.1476344,26.1020134 32.3968817,26.1020134 L41.0580645,26.1020134 C42.3077097,26.1020134 43.3214301,25.0751678 43.3214301,23.8107383 L43.3214301,15.0438926 C43.3214301,13.7798658 42.3077097,12.7530201 41.0580645,12.7530201 Z" id="Fill-20" fill="#6D7C98"></path>
                        <path d="M38.7307645,15.559651 C38.2609043,15.559651 37.8789688,15.9462282 37.8789688,16.4173691 C37.8789688,16.8929396 38.2609043,17.2795168 38.7307645,17.2795168 C39.2002269,17.2795168 39.5781839,16.8929396 39.5781839,16.4173691 C39.5781839,15.9462282 39.2002269,15.559651 38.7307645,15.559651" id="Fill-22" fill="#FFFFFF"></path>
                        <path d="M40.8392871,23.2668725 L32.3292871,23.2668725 C32.0667065,23.2668725 31.8832978,23.0655302 31.9632656,22.8726443 C32.8504699,20.7867383 33.7372763,18.7088859 34.6248785,16.6225772 C34.7402548,16.3527785 35.2256312,16.3487517 35.3489645,16.6185503 C35.7428355,17.480698 36.1406849,18.342443 36.5385344,19.2037852 C36.6499323,19.4538523 36.7653086,19.6994899 36.8806849,19.9491544 C36.9960613,20.2028456 37.4456312,20.2149262 37.5844806,19.9729128 C37.8470613,19.5223087 38.1100398,19.0668725 38.3726204,18.6162685 C38.5114699,18.3782819 38.9495022,18.3867383 39.0764161,18.6319732 C39.7810075,20.0413691 40.4891796,21.4467383 41.1969538,22.8561342 C41.2964161,23.0538523 41.1098247,23.2668725 40.8392871,23.2668725 M38.7306849,15.5594899 C39.2001473,15.5594899 39.5781043,15.9460671 39.5781043,16.4172081 C39.5781043,16.8927785 39.2001473,17.2793557 38.7306849,17.2793557 C38.2612226,17.2793557 37.8792871,16.8927785 37.8792871,16.4172081 C37.8792871,15.9460671 38.2612226,15.5594899 38.7306849,15.5594899 M41.0581043,13.723651 L32.3969215,13.723651 C31.676814,13.723651 31.0875989,14.3155973 31.0875989,15.0440537 L31.0875989,23.8108993 C31.0875989,24.5393557 31.676814,25.1357315 32.3969215,25.1357315 L41.0581043,25.1357315 C41.7782118,25.1357315 42.367029,24.5393557 42.367029,23.8108993 L42.367029,15.0440537 C42.367029,14.3155973 41.7782118,13.723651 41.0581043,13.723651" id="Fill-24" fill="#FFFFFF"></path>
                        <path d="M40.8408785,23.268443 L32.3284914,23.268443 C32.0663086,23.268443 31.8829,23.0675034 31.964857,22.8722013 C32.8520613,20.7887114 33.7384699,18.7072349 34.6256742,16.623745 C34.7422441,16.3547517 35.2240398,16.3487114 35.3481688,16.6177047 C35.7436312,17.4806577 36.1410828,18.3415973 36.536943,19.2041477 C36.6515237,19.4517987 36.7645129,19.7014631 36.8790935,19.9491141 C36.9956634,20.2024027 37.4448355,20.216094 37.586072,19.9720671 C37.8482548,19.5214631 38.1100398,19.0688456 38.3718247,18.6178389 C38.5114699,18.3778389 38.9506957,18.3858926 39.0752226,18.6335436 C39.7822011,20.0397181 40.4891796,21.447906 41.1965559,22.8564966 C41.2960183,23.0538121 41.1106204,23.268443 40.8408785,23.268443" id="Fill-26" fill="#6D7C98"></path>
                        <path d="M39.5777462,16.4184966 C39.5777462,16.8924564 39.1993914,17.2774228 38.7287355,17.2774228 C38.2604667,17.2774228 37.8805204,16.8924564 37.8805204,16.4184966 C37.8805204,15.9445369 38.2604667,15.5595705 38.7287355,15.5595705 C39.1993914,15.5595705 39.5777462,15.9445369 39.5777462,16.4184966" id="Fill-28" fill="#6D7C98"></path>
                        <path d="M59.0685108,23.8107383 C59.0685108,24.5395973 58.483672,25.1355705 57.7639624,25.1355705 L49.1023817,25.1355705 C48.382672,25.1355705 47.793457,24.5395973 47.793457,23.8107383 L47.793457,15.0438926 C47.793457,14.3154362 48.382672,13.7234899 49.1023817,13.7234899 L57.7639624,13.7234899 C58.483672,13.7234899 59.0685108,14.3154362 59.0685108,15.0438926 L59.0685108,23.8107383 Z M57.7639624,12.7530201 L49.1023817,12.7530201 C47.8535323,12.7530201 46.8390161,13.7798658 46.8390161,15.0438926 L46.8390161,23.8107383 C46.8390161,25.0751678 47.8535323,26.1020134 49.1023817,26.1020134 L57.7639624,26.1020134 C59.0092312,26.1020134 60.027328,25.0751678 60.027328,23.8107383 L60.027328,15.0438926 C60.027328,13.7798658 59.0092312,12.7530201 57.7639624,12.7530201 Z" id="Fill-30" fill="#6D7C98"></path>
                        <path d="M55.432286,15.559651 C54.9628237,15.559651 54.5848667,15.9462282 54.5848667,16.4173691 C54.5848667,16.8929396 54.9628237,17.2795168 55.432286,17.2795168 C55.9021462,17.2795168 56.2797054,16.8929396 56.2797054,16.4173691 C56.2797054,15.9462282 55.9021462,15.559651 55.432286,15.559651" id="Fill-32" fill="#FFFFFF"></path>
                        <path d="M57.5447075,23.2668725 L49.0311269,23.2668725 C48.7725247,23.2668725 48.5851376,23.0655302 48.668686,22.8726443 C49.5558903,20.7867383 50.4430946,18.7088859 51.3306968,16.6225772 C51.4456753,16.3527785 51.927471,16.3487517 52.0504065,16.6185503 C52.4482559,17.480698 52.8461054,18.342443 53.2403742,19.2037852 C53.3557505,19.4538523 53.4667505,19.6994899 53.5825247,19.9491544 C53.6975032,20.2028456 54.147471,20.2149262 54.2902989,19.9729128 C54.5528796,19.5223087 54.8158581,19.0668725 55.0744602,18.6162685 C55.2137075,18.3782819 55.6549226,18.3867383 55.7786538,18.6319732 C56.4868258,20.0413691 57.1949978,21.4467383 57.8991914,22.8561342 C57.9986538,23.0538523 57.815643,23.2668725 57.5447075,23.2668725 M55.4321269,15.5594899 C55.9019871,15.5594899 56.2795462,15.9460671 56.2795462,16.4172081 C56.2795462,16.8927785 55.9019871,17.2793557 55.4321269,17.2793557 C54.9630624,17.2793557 54.5851054,16.8927785 54.5851054,16.4172081 C54.5851054,15.9460671 54.9630624,15.5594899 55.4321269,15.5594899 M57.7639226,13.723651 L49.1023419,13.723651 C48.3826323,13.723651 47.7934172,14.3155973 47.7934172,15.0440537 L47.7934172,23.8108993 C47.7934172,24.5393557 48.3826323,25.1357315 49.1023419,25.1357315 L57.7639226,25.1357315 C58.4836323,25.1357315 59.068471,24.5393557 59.068471,23.8108993 L59.068471,15.0440537 C59.068471,14.3155973 58.4836323,13.723651 57.7639226,13.723651" id="Fill-34" fill="#FFFFFF"></path>
                        <path d="M57.5451054,23.268443 L49.0323204,23.268443 C48.7701376,23.268443 48.586729,23.0675034 48.6690839,22.8722013 C49.5558903,20.7887114 50.4426968,18.7072349 51.3295032,16.623745 C51.4460731,16.3547517 51.9278688,16.3487114 52.0519978,16.6177047 C52.4474602,17.4806577 52.8453097,18.3415973 53.2411699,19.2041477 C53.3557505,19.4517987 53.4683419,19.7014631 53.5829226,19.9491141 C53.6994925,20.2024027 54.1486645,20.216094 54.2899011,19.9720671 C54.5520839,19.5214631 54.8138688,19.0688456 55.0756538,18.6178389 C55.2152989,18.3778389 55.6545247,18.3858926 55.7790516,18.6335436 C56.4860301,20.0397181 57.1934065,21.447906 57.9007828,22.8564966 C57.9998473,23.0538121 57.8144495,23.268443 57.5451054,23.268443" id="Fill-36" fill="#6D7C98"></path>
                        <path d="M56.2816151,16.4184966 C56.2816151,16.8924564 55.9032602,17.2774228 55.4330022,17.2774228 C54.9647333,17.2774228 54.5843892,16.8924564 54.5843892,16.4184966 C54.5843892,15.9445369 54.9647333,15.5595705 55.4330022,15.5595705 C55.9032602,15.5595705 56.2816151,15.9445369 56.2816151,16.4184966" id="Fill-38" fill="#6D7C98"></path>
                        <path d="M25.5178258,41.3275168 C25.5178258,42.0563758 24.9329871,42.652349 24.2132774,42.652349 L15.5477183,42.652349 C14.8280086,42.652349 14.242772,42.0563758 14.242772,41.3275168 L14.242772,32.5606711 C14.242772,31.8322148 14.8280086,31.2402685 15.5477183,31.2402685 L24.2132774,31.2402685 C24.9329871,31.2402685 25.5178258,31.8322148 25.5178258,32.5606711 L25.5178258,41.3275168 Z M24.2132774,30.2697987 L15.5477183,30.2697987 C14.3028473,30.2697987 13.2883312,31.2966443 13.2883312,32.5606711 L13.2883312,41.3275168 C13.2883312,42.5919463 14.3028473,43.6187919 15.5477183,43.6187919 L24.2132774,43.6187919 C25.4585462,43.6187919 26.4726645,42.5919463 26.4726645,41.3275168 L26.4726645,32.5606711 C26.4726645,31.2966443 25.4585462,30.2697987 24.2132774,30.2697987 Z" id="Fill-40" fill="#6D7C98"></path>
                        <path d="M21.8816409,33.0764295 C21.4121785,33.0764295 21.0342215,33.4630067 21.0342215,33.9341477 C21.0342215,34.4097181 21.4121785,34.7962953 21.8816409,34.7962953 C22.3515011,34.7962953 22.7290602,34.4097181 22.7290602,33.9341477 C22.7290602,33.4630067 22.3515011,33.0764295 21.8816409,33.0764295" id="Fill-42" fill="#FFFFFF"></path>
                        <path d="M23.9940226,40.783651 L15.4804419,40.783651 C15.2174634,40.783651 15.0344527,40.5823087 15.1180011,40.3894228 C16.0056032,38.3035168 16.8924097,36.2256644 17.7800118,34.1393557 C17.8953882,33.869557 18.376786,33.8655302 18.4997215,34.1353289 C18.897571,34.9974765 19.2954204,35.8592215 19.6896892,36.7205638 C19.8050656,36.9706309 19.9160656,37.2162685 20.0318398,37.4659329 C20.1468183,37.7196242 20.596786,37.7317047 20.739614,37.4896913 C21.0021946,37.0390872 21.2611946,36.583651 21.5237753,36.133047 C21.6630226,35.8950604 22.1042376,35.9035168 22.2279688,36.1487517 C22.9361409,37.5581477 23.6399366,38.9635168 24.3485065,40.3729128 C24.4479688,40.5706309 24.2649581,40.783651 23.9940226,40.783651 M21.8814419,33.0762685 C22.3513022,33.0762685 22.7288613,33.4628456 22.7288613,33.9339866 C22.7288613,34.409557 22.3513022,34.7961342 21.8814419,34.7961342 C21.4123774,34.7961342 21.0344204,34.409557 21.0344204,33.9339866 C21.0344204,33.4628456 21.4123774,33.0762685 21.8814419,33.0762685 M24.2132376,31.2404295 L15.5480763,31.2404295 C14.8279688,31.2404295 14.2427323,31.8323758 14.2427323,32.5608322 L14.2427323,41.3276779 C14.2427323,42.0561342 14.8279688,42.6525101 15.5480763,42.6525101 L24.2132376,42.6525101 C24.9329473,42.6525101 25.517786,42.0561342 25.517786,41.3276779 L25.517786,32.5608322 C25.517786,31.8323758 24.9329473,31.2404295 24.2132376,31.2404295" id="Fill-44" fill="#FFFFFF"></path>
                        <path d="M23.9936247,40.7852215 L15.4808398,40.7852215 C15.218657,40.7852215 15.0352484,40.5842819 15.1176032,40.3889799 C16.0044097,38.3054899 16.8912161,36.2240134 17.7780226,34.1405235 C17.8945925,33.8715302 18.3763882,33.8654899 18.5005172,34.1344832 C18.8959796,34.9974362 19.293829,35.8583758 19.6896892,36.7209262 C19.8042699,36.9685772 19.9168613,37.2182416 20.0314419,37.4658926 C20.1480118,37.7191812 20.5971839,37.7328725 20.7384204,37.4888456 C21.0006032,37.0382416 21.2623882,36.5856242 21.5241731,36.1346174 C21.6638183,35.8946174 22.1030441,35.9026711 22.227571,36.1503221 C22.9345495,37.5564966 23.6419258,38.9646846 24.3493022,40.3732752 C24.4483667,40.5705906 24.2629688,40.7852215 23.9936247,40.7852215" id="Fill-46" fill="#6D7C98"></path>
                        <path d="M22.7301742,33.9352752 C22.7301742,34.4092349 22.3518194,34.7942013 21.8815613,34.7942013 C21.4132925,34.7942013 21.0329484,34.4092349 21.0329484,33.9352752 C21.0329484,33.4613154 21.4132925,33.076349 21.8815613,33.076349 C22.3518194,33.076349 22.7301742,33.4613154 22.7301742,33.9352752" id="Fill-48" fill="#6D7C98"></path>
                        <path d="M42.2236043,41.3275168 C42.2236043,42.0563758 41.6351849,42.652349 40.9150774,42.652349 L32.2534968,42.652349 C31.5337871,42.652349 30.944572,42.0563758 30.944572,41.3275168 L30.944572,32.5606711 C30.944572,31.8322148 31.5337871,31.2402685 32.2534968,31.2402685 L40.9150774,31.2402685 C41.6351849,31.2402685 42.2236043,31.8322148 42.2236043,32.5606711 L42.2236043,41.3275168 Z M40.9150774,30.2697987 L32.2534968,30.2697987 C31.0046473,30.2697987 29.9897333,31.2966443 29.9897333,32.5606711 L29.9897333,41.3275168 C29.9897333,42.5919463 31.0046473,43.6187919 32.2534968,43.6187919 L40.9150774,43.6187919 C42.1643247,43.6187919 43.178443,42.5919463 43.178443,41.3275168 L43.178443,32.5606711 C43.178443,31.2966443 42.1643247,30.2697987 40.9150774,30.2697987 Z" id="Fill-50" fill="#6D7C98"></path>
                        <path d="M38.5874194,33.0764295 C38.1175591,33.0764295 37.7360215,33.4630067 37.7360215,33.9341477 C37.7360215,34.4097181 38.1175591,34.7962953 38.5874194,34.7962953 C39.0568817,34.7962953 39.4348387,34.4097181 39.4348387,33.9341477 C39.4348387,33.4630067 39.0568817,33.0764295 38.5874194,33.0764295" id="Fill-52" fill="#FFFFFF"></path>
                        <path d="M40.6959419,40.783651 L32.1859419,40.783651 C31.9233613,40.783651 31.7403505,40.5823087 31.8199204,40.3894228 C32.7071247,38.3035168 33.594329,36.2256644 34.4815333,34.1393557 C34.5969097,33.869557 35.0783075,33.8655302 35.2056194,34.1353289 C35.5994903,34.9974765 35.9973398,35.8592215 36.3951892,36.7205638 C36.5069849,36.9706309 36.6219634,37.2162685 36.7377376,37.4659329 C36.8527161,37.7196242 37.3026839,37.7317047 37.4415333,37.4896913 C37.704114,37.0390872 37.9670925,36.583651 38.2296731,36.133047 C38.3685226,35.8950604 38.806157,35.9035168 38.9334688,36.1487517 C39.6376624,37.5581477 40.3458344,38.9635168 41.0540065,40.3729128 C41.1534688,40.5706309 40.9664796,40.783651 40.6959419,40.783651 M38.5873398,33.0762685 C39.0568022,33.0762685 39.4347591,33.4628456 39.4347591,33.9339866 C39.4347591,34.409557 39.0568022,34.7961342 38.5873398,34.7961342 C38.1178774,34.7961342 37.7363398,34.409557 37.7363398,33.9339866 C37.7363398,33.4628456 38.1178774,33.0762685 38.5873398,33.0762685 M40.915157,31.2404295 L32.2535763,31.2404295 C31.5338667,31.2404295 30.9446516,31.8323758 30.9446516,32.5608322 L30.9446516,41.3276779 C30.9446516,42.0561342 31.5338667,42.6525101 32.2535763,42.6525101 L40.915157,42.6525101 C41.6348667,42.6525101 42.2236839,42.0561342 42.2236839,41.3276779 L42.2236839,32.5608322 C42.2236839,31.8323758 41.6348667,31.2404295 40.915157,31.2404295" id="Fill-54" fill="#FFFFFF"></path>
                        <path d="M40.6974935,40.7852215 L32.1851065,40.7852215 C31.9229237,40.7852215 31.7391172,40.5842819 31.821472,40.3889799 C32.7082785,38.3054899 33.5950849,36.2240134 34.4822892,34.1405235 C34.5988591,33.8715302 35.080257,33.8654899 35.204386,34.1344832 C35.5998484,34.9974362 35.9976978,35.8583758 36.3935581,36.7209262 C36.5081387,36.9685772 36.6207301,37.2182416 36.7353108,37.4658926 C36.8518806,37.7191812 37.3014505,37.7328725 37.4426871,37.4888456 C37.704472,37.0382416 37.966257,36.5856242 38.2280419,36.1346174 C38.3676871,35.8946174 38.8073108,35.9026711 38.9318376,36.1503221 C39.6388161,37.5564966 40.3457946,38.9646846 41.053171,40.3732752 C41.1526333,40.5705906 40.9672355,40.7852215 40.6974935,40.7852215" id="Fill-56" fill="#6D7C98"></path>
                        <path d="M39.4340032,33.9352752 C39.4340032,34.4092349 39.0556484,34.7942013 38.5853903,34.7942013 C38.1171215,34.7942013 37.7367774,34.4092349 37.7367774,33.9352752 C37.7367774,33.4613154 38.1171215,33.076349 38.5853903,33.076349 C39.0556484,33.076349 39.4340032,33.4613154 39.4340032,33.9352752" id="Fill-58" fill="#6D7C98"></path>
                        <path d="M58.9255237,41.3275168 C58.9255237,42.0563758 58.3402871,42.652349 57.6205774,42.652349 L48.9589968,42.652349 C48.2353086,42.652349 47.6504699,42.0563758 47.6504699,41.3275168 L47.6504699,32.5606711 C47.6504699,31.8322148 48.2353086,31.2402685 48.9589968,31.2402685 L57.6205774,31.2402685 C58.3402871,31.2402685 58.9255237,31.8322148 58.9255237,32.5606711 L58.9255237,41.3275168 Z M57.6205774,30.2697987 L48.9589968,30.2697987 C47.7101473,30.2697987 46.6956312,31.2966443 46.6956312,32.5606711 L46.6956312,41.3275168 C46.6956312,42.5919463 47.7101473,43.6187919 48.9589968,43.6187919 L57.6205774,43.6187919 C58.8658462,43.6187919 59.8803624,42.5919463 59.8803624,41.3275168 L59.8803624,32.5606711 C59.8803624,31.2966443 58.8658462,30.2697987 57.6205774,30.2697987 Z" id="Fill-60" fill="#6D7C98"></path>
                        <path d="M55.2889409,33.0764295 C54.8194785,33.0764295 54.4419194,33.4630067 54.4419194,33.9341477 C54.4419194,34.4097181 54.8194785,34.7962953 55.2889409,34.7962953 C55.7588011,34.7962953 56.1367581,34.4097181 56.1367581,33.9341477 C56.1367581,33.4630067 55.7588011,33.0764295 55.2889409,33.0764295" id="Fill-62" fill="#FFFFFF"></path>
                        <path d="M57.4017204,40.783651 L48.8877419,40.783651 C48.6247634,40.783651 48.4421505,40.5823087 48.5253011,40.3894228 C49.4129032,38.3035168 50.3001075,36.2256644 51.1873118,34.1393557 C51.3026882,33.869557 51.784086,33.8655302 51.9070215,34.1353289 C52.304871,34.9974765 52.7027204,35.8592215 53.0969892,36.7205638 C53.2123656,36.9706309 53.3237634,37.2162685 53.4391398,37.4659329 C53.5545161,37.7196242 54.004086,37.7317047 54.1473118,37.4896913 C54.4098925,37.0390872 54.6684946,36.583651 54.9310753,36.133047 C55.0703226,35.8950604 55.5119355,35.9035168 55.6356667,36.1487517 C56.3434409,37.5581477 57.0516129,38.9635168 57.7558065,40.3729128 C57.8552688,40.5706309 57.6722581,40.783651 57.4017204,40.783651 M55.2887419,33.0762685 C55.7586022,33.0762685 56.1365591,33.4628456 56.1365591,33.9339866 C56.1365591,34.409557 55.7586022,34.7961342 55.2887419,34.7961342 C54.8196774,34.7961342 54.4421183,34.409557 54.4421183,33.9339866 C54.4421183,33.4628456 54.8196774,33.0762685 55.2887419,33.0762685 M57.6205376,31.2404295 L48.958957,31.2404295 C48.2352688,31.2404295 47.6504301,31.8323758 47.6504301,32.5608322 L47.6504301,41.3276779 C47.6504301,42.0561342 48.2352688,42.6525101 48.958957,42.6525101 L57.6205376,42.6525101 C58.3402473,42.6525101 58.9254839,42.0561342 58.9254839,41.3276779 L58.9254839,32.5608322 C58.9254839,31.8323758 58.3402473,31.2404295 57.6205376,31.2404295" id="Fill-64" fill="#FFFFFF"></path>
                        <path d="M57.4013624,40.7852215 L48.8889753,40.7852215 C48.6267925,40.7852215 48.4433839,40.5842819 48.5253409,40.3889799 C49.4125452,38.3054899 50.2989538,36.2240134 51.1861581,34.1405235 C51.302728,33.8715302 51.7845237,33.8654899 51.9086527,34.1344832 C52.3041151,34.9974362 52.7015667,35.8583758 53.0974269,36.7209262 C53.2120075,36.9685772 53.3249968,37.2182416 53.4395774,37.4658926 C53.5561473,37.7191812 54.0053194,37.7328725 54.1465559,37.4888456 C54.4087387,37.0382416 54.6705237,36.5856242 54.9323086,36.1346174 C55.0719538,35.8946174 55.5111796,35.9026711 55.6357065,36.1503221 C56.3426849,37.5564966 57.0496634,38.9646846 57.7570398,40.3732752 C57.8565022,40.5705906 57.6711043,40.7852215 57.4013624,40.7852215" id="Fill-66" fill="#6D7C98"></path>
                        <path d="M56.1382301,33.9352752 C56.1382301,34.4092349 55.7598753,34.7942013 55.2892194,34.7942013 C54.8209505,34.7942013 54.4410043,34.4092349 54.4410043,33.9352752 C54.4410043,33.4613154 54.8209505,33.076349 55.2892194,33.076349 C55.7598753,33.076349 56.1382301,33.4613154 56.1382301,33.9352752" id="Fill-68" fill="#6D7C98"></path>
                    </g>
                    <text id="Upload-a-video" font-family="Lato-Regular, Lato" font-size="11" font-weight="normal" letter-spacing="-0.22" fill="#0E75B8">
                        <tspan x="77" y="118">Upload a video </tspan>
                    </text>
                    <text id="Select-a-video-from" font-family="Lato-Regular, Lato" font-size="11" font-weight="normal" letter-spacing="-0.22" fill="#0E75B8">
                        <tspan x="265" y="118">Select a video from media library</tspan>
                    </text>
                </g>
                <g id="Group-27" transform="translate(78.000000, 34.000000)">
                    <path d="M60.5684318,49.0492604 L60.6038258,49.0492604 C60.6038258,49.0615057 60.5916591,49.084883 60.5916591,49.0971283 C60.5684318,49.1672604 60.5452045,49.2518642 60.5341439,49.3175434 L60.5219773,49.3297887 C60.3848258,49.9264679 60.3018712,50.5342792 60.3018712,51.1654679 L60.3018712,51.2022038 C60.3018712,51.2723358 60.3018712,51.3313358 60.3140379,51.3869962 L60.298553,51.3869962 C60.2897045,51.3112981 60.2897045,51.241166 60.2897045,51.1654679 C60.2897045,50.4307509 60.3881439,49.7238642 60.5684318,49.0492604" id="Fill-1" fill="#FFFFFF"></path>
                    <path d="M61.7943894,55.8850226 C61.7125409,55.7781547 61.6373288,55.6646075 61.5709652,55.548834 L61.5753894,55.548834 C61.6450712,55.6646075 61.7202833,55.7748151 61.7943894,55.8850226" id="Fill-3" fill="#FFFFFF"></path>
                    <g id="Group-7" transform="translate(63.045455, 56.773585)">
                        <mask id="mask-4" fill="white">
                            <use xlink:href="#path-3"></use>
                        </mask>
                        <g id="Clip-6"></g>
                        <path d="M0.800124242,1.11276226 L0.784639394,1.11276226 C0.6862,1.04596981 0.588866667,0.979177358 0.499275758,0.904592453 C0.596609091,0.974724528 0.693942424,1.04596981 0.800124242,1.11276226" id="Fill-5" fill="#FFFFFF" mask="url(#mask-4)"></path>
                    </g>
                    <path d="M66.6388242,43.2439943 L66.6388242,43.279617 L66.615597,43.279617 C66.5835212,43.3041075 66.5602939,43.3041075 66.5215818,43.3152396 C66.3954909,43.338617 66.2539152,43.3864849 66.1289303,43.4221075 C66.0935364,43.4221075 66.0581424,43.4221075 66.0349152,43.4343528 C66.0227485,43.4343528 66.0116879,43.4454849 66.0039455,43.4454849 C65.6621727,43.5601453 65.3358848,43.6792585 65.0261879,43.8284283 C64.426703,44.0855792 63.8526576,44.4484849 63.3405515,44.8826358 C63.3328091,44.8826358 63.3162182,44.8826358 63.3040515,44.9060132 C62.8450364,45.2767113 62.4147788,45.6997302 62.0564152,46.1772962 L61.9944758,46.1772962 C63.1359303,44.7089755 64.7640515,43.6469755 66.6388242,43.2439943" id="Fill-8" fill="#FFFFFF"></path>
                    <path d="M71.9768939,43.9278377 L71.9768939,43.9712528 C71.7103333,43.8287623 71.4437727,43.7141019 71.1694697,43.6194792 C70.9338788,43.5248566 70.7027121,43.4569509 70.4715455,43.3979509 C70.2038788,43.3155736 69.9373182,43.2554604 69.6541667,43.2087057 L69.6541667,43.1686302 C70.4826061,43.2999887 71.2601667,43.5604792 71.9768939,43.9278377" id="Fill-10" fill="#FFFFFF"></path>
                    <path d="M5.33884394,10.6315774 L5.33884394,43.8407849 L2.40446515,43.8407849 L2.40446515,12.5340491 C2.40446515,11.4842943 3.25170758,10.6315774 4.29582879,10.6315774 L5.33884394,10.6315774 Z" id="Fill-12" fill="#EDF0F3"></path>
                    <path d="M27.3283242,15.8465094 L27.3283242,35.6404528 C27.3283242,37.0776038 28.8967182,37.9536981 30.1133848,37.1800189 L42.5510364,30.4618113 L42.5510364,43.8403396 L7.66035455,43.8403396 L7.66035455,10.6311321 L40.664097,10.6311321 C41.7071121,10.6311321 42.5510364,11.4838491 42.5510364,12.5336038 L42.5510364,21.0106792 L30.1133848,14.2913585 C28.8967182,13.5332642 27.3283242,14.4093585 27.3283242,15.8465094" id="Fill-14" fill="#EDF0F3"></path>
                    <path d="M42.5507045,46.1770736 L42.5507045,53.9316774 C42.5507045,54.6140736 42.194553,55.2140925 41.6525833,55.5491679 L8.19425,55.5491679 C5.64035606,55.5491679 3.45920455,53.902734 2.66726515,51.601734 L22.154947,51.601734 C22.7898258,51.601734 23.3152045,51.0718472 23.3152045,50.432866 C23.3152045,49.7894321 22.7898258,49.2639981 22.154947,49.2639981 L2.40402273,49.2639981 L2.40402273,46.1770736 L42.5507045,46.1770736 Z" id="Fill-16" fill="#EDF0F3"></path>
                    <path d="M0.0353939394,50.1766057 C0.0121666667,50.2556434 0,50.339134 0,50.4326434 C0,50.607417 0.0353939394,50.7688321 0.105075758,50.9224547 C0.0553030303,50.6775491 0.0353939394,50.4326434 0.0353939394,50.1766057 Z M48.4697879,49.0511528 C47.8349091,49.0511528 47.3084242,49.5687943 47.3084242,50.2200208 C47.3084242,50.8634547 47.8349091,51.3888887 48.4697879,51.3888887 L60.315697,51.3888887 C60.3002121,51.3332283 60.3002121,51.2742283 60.3002121,51.202983 L60.3002121,51.1684736 C60.3002121,50.5361717 60.3853788,49.9272472 60.5203182,49.3316811 L60.5313788,49.3194358 C60.5435455,49.2526434 60.5667727,49.170266 60.5944242,49.0990208 C60.5944242,49.0867755 60.6021667,49.0633981 60.6021667,49.0511528 L48.4697879,49.0511528 Z M69.6541667,43.1689642 L69.6541667,43.2090396 C69.9373182,43.2557943 70.2038788,43.3159075 70.4715455,43.3982849 C70.7027121,43.4572849 70.9338788,43.5240774 71.1694697,43.6187 C71.4437727,43.7133226 71.7103333,43.8290962 71.9768939,43.9715868 L71.9768939,43.9281717 C71.2601667,43.5608132 70.4826061,43.2992094 69.6541667,43.1689642 Z M61.994697,46.1768509 L62.0566364,46.1768509 C62.4138939,45.7003981 62.8452576,45.2773792 63.3042727,44.9066811 C63.3164394,44.8821906 63.3330303,44.8821906 63.3396667,44.8821906 C63.8528788,44.4480396 64.4269242,44.085134 65.0264091,43.8290962 C65.3361061,43.6788132 65.6623939,43.5608132 66.0041667,43.4450396 C66.010803,43.4450396 66.0229697,43.4339075 66.0351364,43.4339075 C66.0572576,43.4227755 66.0937576,43.4227755 66.1291515,43.4227755 C66.2541364,43.3860396 66.3957121,43.3381717 66.520697,43.3159075 C66.5605152,43.3036623 66.5837424,43.3036623 66.6147121,43.2802849 L66.6390455,43.2802849 L66.6390455,43.2435491 C64.7631667,43.6476434 63.1361515,44.7096434 61.994697,46.1768509 Z M63.5442879,57.6773981 C63.6338788,57.7530962 63.7323182,57.8198887 63.8307576,57.8866811 L63.8451364,57.8866811 C63.7400606,57.8198887 63.6427273,57.7486434 63.5442879,57.6773981 Z M61.5755,55.5489453 L61.5710758,55.5489453 C61.6374394,55.6647189 61.7126515,55.778266 61.7945,55.885134 C61.7203939,55.7749264 61.6451818,55.6647189 61.5755,55.5489453 Z M48.4697879,49.0511528 C47.8349091,49.0511528 47.3084242,49.5687943 47.3084242,50.2200208 C47.3084242,50.8634547 47.8349091,51.3888887 48.4697879,51.3888887 L60.315697,51.3888887 C60.3002121,51.3332283 60.3002121,51.2742283 60.3002121,51.202983 L60.3002121,51.1684736 C60.3002121,50.5361717 60.3853788,49.9272472 60.5203182,49.3316811 L60.5313788,49.3194358 C60.5435455,49.2526434 60.5667727,49.170266 60.5944242,49.0990208 C60.5944242,49.0867755 60.6021667,49.0633981 60.6021667,49.0511528 L48.4697879,49.0511528 Z" id="Fill-18" fill="#6D7C98"></path>
                    <g id="Group-22">
                        <mask id="mask-6" fill="white">
                            <use xlink:href="#path-5"></use>
                        </mask>
                        <g id="Clip-21"></g>
                        <path d="M7.66002273,10.4218491 C7.66002273,8.8945283 8.90765909,7.64328302 10.4373409,7.64328302 L61.5583561,7.64328302 C63.0736591,7.64328302 64.3212955,8.8945283 64.3212955,10.4218491 L64.3212955,43.8414528 L7.66002273,43.8414528 L7.66002273,10.4218491 Z M63.7826439,0 L8.19314394,0 C3.67931061,0 -0.000553030303,3.70364151 -0.000553030303,8.26333962 L-0.000553030303,49.6368113 C-0.000553030303,49.8249434 0.0116136364,49.999717 0.0348409091,50.176717 C0.0348409091,50.4327547 0.05475,50.6776604 0.105628788,50.922566 C0.718386364,54.8588679 4.11841667,57.8867925 8.19314394,57.8867925 L63.8302045,57.8867925 C63.7317652,57.82 63.6333258,57.7532075 63.5437348,57.6775094 C63.4607803,57.6173962 63.3833561,57.5595094 63.3048258,57.4960566 C63.2683258,57.4726792 63.2417803,57.4448491 63.2030682,57.4136792 C63.109053,57.3390943 63.0139318,57.2589434 62.9243409,57.1721132 C62.8491288,57.1019811 62.7672803,57.026283 62.6931742,56.9516981 L62.6622045,56.9160755 C62.6456136,56.9004906 62.6257045,56.8793396 62.6102197,56.8682075 C62.6024773,56.8604151 62.5947348,56.8526226 62.5869924,56.8481698 L62.5637652,56.8247925 C62.5162045,56.7780377 62.4730682,56.7301698 62.4299318,56.6789623 C62.3204318,56.5598491 62.21425,56.4385094 62.1158106,56.3116038 C62.0649318,56.2448113 62.0063106,56.173566 61.9554318,56.1023208 C61.9001288,56.0321887 61.8448258,55.9598302 61.793947,55.8852453 C61.7120985,55.7783774 61.6379924,55.6648302 61.5705227,55.5490566 L8.19314394,55.5490566 C5.64035606,55.5490566 3.45920455,53.9037358 2.66726515,51.6016226 L22.1538409,51.6016226 C22.7898258,51.6016226 23.3152045,51.0728491 23.3152045,50.4327547 C23.3152045,49.7893208 22.7898258,49.265 22.1538409,49.265 L2.32217424,49.265 L2.32217424,46.1769623 L61.9941439,46.1769623 C63.1355985,44.7097547 64.7637197,43.6477547 66.6384924,43.2436604 L66.6384924,10.4218491 C66.6384924,7.60766038 64.3522652,5.30554717 61.5583561,5.30554717 L10.4373409,5.30554717 C7.62905303,5.30554717 5.33840152,7.60766038 5.33840152,10.4218491 L5.33840152,43.8414528 L2.32217424,43.8414528 L2.32217424,8.26333962 C2.32217424,4.98939623 4.95459848,2.33662264 8.19314394,2.33662264 L63.7826439,2.33662264 C67.0234015,2.33662264 69.6547197,4.98939623 69.6547197,8.26333962 L69.6547197,43.1690755 C70.4831591,43.2993208 71.2596136,43.5609245 71.9763409,43.928283 L71.9763409,8.26333962 C71.9763409,3.70364151 68.2975833,0 63.7826439,0 Z" id="Fill-20" fill="#6D7C98" mask="url(#mask-6)"></path>
                    </g>
                    <path d="M48.4341727,27.2829358 L42.5510364,30.4611434 L30.1133848,37.1804642 C28.8967182,37.9541434 27.3283242,37.0780491 27.3283242,35.6408981 L27.3283242,15.8469547 C27.3283242,14.4098038 28.8967182,13.5325962 30.1133848,14.2906906 L42.5510364,21.0100113 L48.4341727,24.1882189 C49.571203,24.8984453 49.571203,26.5727094 48.4341727,27.2829358" id="Fill-23" fill="#6D7C98"></path>
                    <path d="M68.295703,56.0176057 C67.8057182,56.0176057 67.4075364,55.6213038 67.4075364,55.1326057 L67.4075364,48.9253604 L65.6555364,50.5640019 C65.2982788,50.8979642 64.7364,50.8801528 64.4012636,50.5239264 C64.2408848,50.3524925 64.1623545,50.135417 64.1623545,49.9183415 C64.1623545,49.6834547 64.2563697,49.4485679 64.4421879,49.2726811 L67.6884758,46.2380774 C67.6884758,46.2369642 67.6884758,46.2369642 67.6895818,46.2369642 C67.8444303,46.0922472 68.0379909,46.0143226 68.2348697,45.9998509 C68.294597,45.9965113 68.3532182,45.9976245 68.4107333,46.0065302 C68.5622636,46.0254547 68.7093697,46.0833415 68.8354606,46.1813038 C68.8586879,46.1991151 68.878597,46.2158132 68.8996121,46.2347377 L72.1680212,49.2081151 C72.5308091,49.5376245 72.5562485,50.0964547 72.2255364,50.457134 C71.8959303,50.8178132 71.3340515,50.8445302 70.9723697,50.5150208 L69.1827636,48.8875113 L69.1827636,55.1326057 C69.1827636,55.6213038 68.7856879,56.0176057 68.295703,56.0176057" id="Fill-25" fill="#6D7C98"></path>
                </g>
            </g>
        </g>
    </g>
</svg>