<?xml version="1.0" encoding="UTF-8"?>
<svg width="652px" height="29px" viewBox="0 0 652 29" version="1.1" xmlns="http://www.w3.org/2000/svg" xmlns:xlink="http://www.w3.org/1999/xlink">
    <!-- Generator: Sketch 50.2 (55047) - http://www.bohemiancoding.com/sketch -->
    <title>action bar</title>
    <desc>Created with Sketch.</desc>
    <defs></defs>
    <g id="Page-1" stroke="none" stroke-width="1" fill="none" fill-rule="evenodd">
        <g id="Webapp-Artboard-1" transform="translate(-101.000000, -965.000000)">
            <g id="action-bar" transform="translate(102.000000, 959.000000)">
                <path d="M12.8548741,34.0369732 C12.7794141,33.9815688 12.6642119,33.8961146 12.5228503,33.7984527 C12.1837835,33.5589931 11.9252074,33.3890237 11.8507536,33.3383146 C11.3582516,33.0021322 10.8486454,32.6542115 10.3506097,32.3001869 C7.66675062,30.3939007 5.63889009,28.6561753 3.96870974,26.8320567 C2.2985294,25.007938 1.2244827,23.3519106 0.607723336,21.6414179 C-0.360679423,18.9552447 -0.171023402,16.4582916 1.17166073,14.2195791 C2.17225974,12.5508745 3.66284539,11.4963132 5.48344258,11.1676432 C8.3715466,10.6511617 10.7309279,11.329161 12.4956847,13.1866162 C12.6189359,13.3162061 12.7421872,13.4439179 12.869463,13.5749164 C13.0566037,13.3871049 13.2402229,13.1992935 13.422836,13.011482 C14.9405872,11.4864531 16.9443006,10.8244178 19.3741111,11.0436876 C22.2979329,11.3117885 24.2895726,12.8973866 25.2952023,15.7610416 C26.0387344,17.8767375 25.88379,20.1116937 24.8348966,22.4034628 C24.0470946,24.1252242 22.8689132,25.7512018 21.1267944,27.5213247 C18.8026278,29.8830536 16.0060818,31.85883 13.2417321,33.77122 C13.0772294,33.8848459 12.9419046,33.9773431 12.8548741,34.0369732 Z M7.29448151,12.0160814 C6.75393838,12.0188676 6.21490539,12.069649 5.68466913,12.1677391 C4.17194856,12.4386571 2.9716322,13.2960164 2.12094697,14.7149318 C0.918115285,16.7212276 0.762667777,18.8805897 1.63850632,21.3165041 C2.20948665,22.9006936 3.21310406,24.4435646 4.79575085,26.1718995 C6.41461843,27.9396747 8.38865086,29.6304472 11.0091236,31.4921281 C11.4991102,31.8400488 12.0041888,32.1851524 12.4926663,32.5185177 L12.8674507,32.7744108 C16.0659467,30.6563672 18.3745183,28.8167541 20.3239004,26.8344043 C21.9799949,25.1520833 23.09479,23.6171943 23.8327884,22.004833 C24.7750317,19.9464196 24.9184056,17.9518621 24.2598917,16.0775039 C23.3926053,13.5979233 21.7581427,12.2832432 19.2719887,12.059278 C17.1666559,11.8714666 15.515089,12.4086073 14.2217054,13.707793 C14.0084053,13.9223675 13.7961113,14.1374116 13.5777804,14.3585596 L12.8629231,15.0825727 L12.4634884,14.6703266 L12.2119553,14.4097382 C12.0298452,14.2219268 11.8598088,14.0458536 11.6837356,13.8627374 C10.5070633,12.6264686 9.06225672,12.0160814 7.29448151,12.0160814 Z" id="Shape" stroke-opacity="0.963230299" stroke="#D12330" stroke-width="0.3" fill-opacity="0.963230299" fill="#D1232F" fill-rule="nonzero"></path>
                <text id="Like-this" font-family="Lato-Regular, Lato" font-size="15" font-weight="normal" line-spacing="20" fill="#637289">
                    <tspan x="35" y="28">Like this</tspan>
                </text>
                <text id="Add-a-Comment" font-family="Lato-Regular, Lato" font-size="15" font-weight="normal" line-spacing="20" fill="#637289">
                    <tspan x="149" y="27">Add a Comment</tspan>
                </text>
                <path d="M135.992916,32.7919557 C135.894793,32.7919557 135.780317,32.7766029 135.682194,32.7458973 L135.682194,32.7458973 L130.481688,31.0570895 C130.138259,30.9496199 129.778475,30.9649727 129.484107,31.1338534 C126.965623,32.4081357 124.120064,32.9301309 121.274504,32.6384277 C114.847464,31.9629046 109.712374,27.0807146 109.074576,21.0624175 C108.649378,17.1628067 110.055804,13.3399598 112.950425,10.576456 C115.845046,7.81295226 119.868078,6.40049478 124.005587,6.72290356 C130.285443,7.21419311 135.551364,11.7893271 136.532591,17.6233906 C136.974143,20.2180136 136.581652,22.858695 135.387826,25.2383788 C135.240642,25.5300819 135.207934,25.8217851 135.289703,26.0827827 L135.289703,26.0981355 L136.974143,31.6404958 C137.055912,31.9782574 136.941436,32.3313717 136.663421,32.5616637 C136.48353,32.6998389 136.238223,32.7919557 135.992916,32.7919557 Z M122.860822,8.04324424 C119.524649,8.04324424 116.352013,9.28682093 113.997067,11.5283295 C111.413168,14.0001301 110.137573,17.4238042 110.51371,20.8935367 C111.086092,26.2823691 115.665154,30.6272111 121.405334,31.241323 C123.956526,31.5023206 126.491363,31.0417367 128.748187,29.9056296 C129.385984,29.567868 130.203674,29.491104 130.939595,29.7367488 L135.306057,31.1492062 L133.883277,26.4512499 C133.687031,25.8678435 133.752447,25.2076732 134.063169,24.6242668 C135.126165,22.5055806 135.469595,20.1412496 135.077104,17.822977 C134.193999,12.6183782 129.500461,8.519181 123.891111,8.08930264 C123.547681,8.05859704 123.204251,8.04324424 122.860822,8.04324424 Z" id="Shape" fill="#6D7C99" fill-rule="nonzero"></path>
                <text id="39-Likes" font-family="Lato-Regular, Lato" font-size="15" font-weight="normal" line-spacing="44" fill="#637289">
                    <tspan x="500" y="15">39 Likes</tspan>
                </text>
                <text id="1-Comment" font-family="Lato-Regular, Lato" font-size="15" font-weight="normal" line-spacing="44" fill="#637289">
                    <tspan x="574" y="15">1 Comment</tspan>
                </text>
                <circle id="Oval-3" fill="#63718A" cx="564" cy="23" r="2"></circle>
            </g>
        </g>
    </g>
</svg>