<svg xmlns="http://www.w3.org/2000/svg" viewBox="0 0 10.39 8.12"><defs><style>.cls-1{fill:#fff;}</style></defs><title>ADDICON</title><g id="Layer_2" data-name="Layer 2"><g id="Layer_1-2" data-name="Layer 1"><path class="cls-1" d="M4.56,4a1.12,1.12,0,1,0-1.1-1.12A1.12,1.12,0,0,0,4.56,4Zm0-1.74a.63.63,0,0,1,0,1.25.63.63,0,0,1,0-1.25Zm.08,1.9a1.32,1.32,0,0,0-1.07.6,2.35,2.35,0,0,0-.42,1.38.24.24,0,0,0,.22.25H5.92a.24.24,0,0,0,.22-.25,2.29,2.29,0,0,0-.43-1.38A1.32,1.32,0,0,0,4.64,4.13Zm-1,1.74c.09-.71.52-1.25,1-1.25s1,.54,1,1.25ZM8.34,2.09l-.16,0V.56A.56.56,0,0,0,7.62,0H1.76A.56.56,0,0,0,1.2.56V.9h-1a.23.23,0,1,0,0,.45h1v1.5h-1a.23.23,0,0,0,0,.46h1v1.5h-1a.23.23,0,1,0,0,.45h1v1.5h-1a.23.23,0,0,0,0,.46h1v.33a.57.57,0,0,0,.56.57H7.62a.57.57,0,0,0,.56-.57V6.22h.16a2.05,2.05,0,0,0,2.05-2.06h0A2.06,2.06,0,0,0,8.34,2.09ZM7.73,7.55a.11.11,0,0,1-.11.11H1.76a.1.1,0,0,1-.1-.11V3.09h0V.56a.09.09,0,0,1,.1-.1H7.62a.1.1,0,0,1,.11.1V2.2a2,2,0,0,0-1.44,2h0a2.07,2.07,0,0,0,1.44,2ZM9.38,4.36H8.55v.88H8.12V4.36H7.3V4h.82V3.08h.43V4h.83Z"/></g></g></svg>