<?xml version="1.0" encoding="UTF-8"?>
<svg width="25px" height="23px" viewBox="0 0 25 23" version="1.1" xmlns="http://www.w3.org/2000/svg" xmlns:xlink="http://www.w3.org/1999/xlink">
    <!-- Generator: Sketch 50.2 (55047) - http://www.bohemiancoding.com/sketch -->
    <title>iconComment</title>
    <desc>Created with Sketch.</desc>
    <defs></defs>
    <g id="Page-1" stroke="none" stroke-width="1" fill="none" fill-rule="evenodd">
        <g id="Webapp-Artboard-1" transform="translate(-335.000000, -2882.000000)" fill="#738BB2" fill-rule="nonzero">
            <g id="Comment-icon1" transform="translate(335.000000, 2882.000000)">
                <path d="M23.8378999,22.6666667 C23.751246,22.6666667 23.6501498,22.6533408 23.563496,22.6266889 L23.563496,22.6266889 L18.9708418,21.1608392 C18.6675533,21.0675578 18.3498225,21.0808837 18.0898609,21.2274687 C15.8657454,22.333519 13.3527836,22.7865998 10.8398219,22.5334076 C5.16399447,21.9470677 0.629109475,17.7094292 0.0658594287,12.4856736 C-0.309640602,9.10089317 0.932397962,5.78274229 3.48868663,3.384079 C6.04497531,0.985415711 9.59778329,-0.240567749 13.2516874,0.0392763019 C18.7975341,0.465705331 23.4479575,4.43682567 24.3144961,9.50067039 C24.7044384,11.7527487 24.357823,14.0448047 23.3035344,16.1103203 C23.1735536,16.3635126 23.144669,16.6167048 23.2168806,16.8432452 L23.2168806,16.8565711 L24.7044384,21.6672236 C24.7766499,21.9603936 24.6755538,22.2668895 24.4300345,22.4667781 C24.2711691,22.5867112 24.0545345,22.6666667 23.8378999,22.6666667 Z" id="iconComment"></path>
            </g>
        </g>
    </g>
</svg>