<?xml version="1.0" encoding="UTF-8"?>
<svg width="28px" height="27px" viewBox="0 0 28 27" version="1.1" xmlns="http://www.w3.org/2000/svg" xmlns:xlink="http://www.w3.org/1999/xlink">
    <!-- Generator: Sketch 50.2 (55047) - http://www.bohemiancoding.com/sketch -->
    <title>Shape</title>
    <desc>Created with Sketch.</desc>
    <defs></defs>
    <g id="Page-1" stroke="none" stroke-width="1" fill="none" fill-rule="evenodd">
        <g id="Webapp-Artboard-1" transform="translate(-211.000000, -965.000000)" fill="#6D7C99" fill-rule="nonzero">
            <g id="action-bar" transform="translate(102.000000, 959.000000)">
                <path d="M135.992916,32.7919557 C135.894793,32.7919557 135.780317,32.7766029 135.682194,32.7458973 L135.682194,32.7458973 L130.481688,31.0570895 C130.138259,30.9496199 129.778475,30.9649727 129.484107,31.1338534 C126.965623,32.4081357 124.120064,32.9301309 121.274504,32.6384277 C114.847464,31.9629046 109.712374,27.0807146 109.074576,21.0624175 C108.649378,17.1628067 110.055804,13.3399598 112.950425,10.576456 C115.845046,7.81295226 119.868078,6.40049478 124.005587,6.72290356 C130.285443,7.21419311 135.551364,11.7893271 136.532591,17.6233906 C136.974143,20.2180136 136.581652,22.858695 135.387826,25.2383788 C135.240642,25.5300819 135.207934,25.8217851 135.289703,26.0827827 L135.289703,26.0981355 L136.974143,31.6404958 C137.055912,31.9782574 136.941436,32.3313717 136.663421,32.5616637 C136.48353,32.6998389 136.238223,32.7919557 135.992916,32.7919557 Z M122.860822,8.04324424 C119.524649,8.04324424 116.352013,9.28682093 113.997067,11.5283295 C111.413168,14.0001301 110.137573,17.4238042 110.51371,20.8935367 C111.086092,26.2823691 115.665154,30.6272111 121.405334,31.241323 C123.956526,31.5023206 126.491363,31.0417367 128.748187,29.9056296 C129.385984,29.567868 130.203674,29.491104 130.939595,29.7367488 L135.306057,31.1492062 L133.883277,26.4512499 C133.687031,25.8678435 133.752447,25.2076732 134.063169,24.6242668 C135.126165,22.5055806 135.469595,20.1412496 135.077104,17.822977 C134.193999,12.6183782 129.500461,8.519181 123.891111,8.08930264 C123.547681,8.05859704 123.204251,8.04324424 122.860822,8.04324424 Z" id="Shape"></path>
            </g>
        </g>
    </g>
</svg>