<?xml version="1.0" encoding="UTF-8"?>
<svg width="18px" height="18px" viewBox="0 0 18 18" version="1.1" xmlns="http://www.w3.org/2000/svg" xmlns:xlink="http://www.w3.org/1999/xlink">
    <!-- Generator: Sketch 50.2 (55047) - http://www.bohemiancoding.com/sketch -->
    <title>commenttest</title>
    <desc>Created with Sketch.</desc>
    <defs></defs>
    <g id="Page-1" stroke="none" stroke-width="1" fill="none" fill-rule="evenodd">
        <g id="Webapp-Artboard-1" transform="translate(-231.000000, -935.000000)" fill="#6D7C99" fill-rule="nonzero">
            <g id="action-bar" transform="translate(102.000000, 935.000000)">
                <g id="commenttest" transform="translate(129.000000, 0.000000)">
                    <path d="M17.3525889,17.2234001 C17.28951,17.2234001 17.2159179,17.2135304 17.152839,17.1937911 L17.152839,17.1937911 L13.8096569,16.1081289 C13.5888807,16.0390413 13.3575914,16.048911 13.1683546,16.1574772 C11.5493293,16.9766587 9.72004101,17.312227 7.89075268,17.1247035 C3.75908421,16.6904387 0.457954692,13.551888 0.04794179,9.68298269 C-0.225400144,7.17608999 0.678730869,4.71854558 2.53955865,2.94200744 C4.40038644,1.16546931 6.98662166,0.257460932 9.64644895,0.464723714 C13.6834991,0.780552716 17.0687338,3.72171029 17.6995229,7.47217968 C17.9833779,9.14015159 17.7310623,10.8377325 16.9636023,12.3675292 C16.8689839,12.5550527 16.8479576,12.7425761 16.9005234,12.9103603 L16.9005234,12.92023 L17.9833779,16.4831759 C18.0359437,16.7003083 17.9623516,16.9273104 17.7836281,17.0753553 C17.6679834,17.1641822 17.5102861,17.2234001 17.3525889,17.2234001 Z M8.91052835,1.31351416 C6.76584548,1.31351416 4.72629413,2.11295631 3.21240034,3.55392613 C1.55132243,5.1429408 0.731296626,7.34387415 0.973099106,9.57441647 C1.3410594,13.0386658 4.28474177,15.8317786 7.97485789,16.2265648 C9.61490949,16.394349 11.2444479,16.0982593 12.6952628,15.3679047 C13.1052757,15.1507723 13.6309333,15.101424 14.1040251,15.2593385 L16.9110365,16.1673469 L15.9963923,13.147232 C15.8702345,12.7721851 15.9122871,12.3477899 16.112037,11.9727429 C16.7953918,10.6107304 17.016168,9.09080331 16.7638524,7.60048521 C16.1961422,4.25467173 13.1788678,1.6194735 9.57285689,1.34312312 C9.35208071,1.32338381 9.13130453,1.31351416 8.91052835,1.31351416 Z" id="Shape"></path>
                </g>
            </g>
        </g>
    </g>
</svg>