<?xml version="1.0" encoding="utf-8"?>
<!-- Generator: Adobe Illustrator 22.0.0, SVG Export Plug-In . SVG Version: 6.00 Build 0)  -->
<svg version="1.1" id="Layer_1" xmlns="http://www.w3.org/2000/svg" xmlns:xlink="http://www.w3.org/1999/xlink" x="0px" y="0px"
	 viewBox="0 0 645.4 677.5" style="enable-background:new 0 0 645.4 677.5;" xml:space="preserve">
<style type="text/css">
	.st0{fill:#FFFFFF;}
</style>
<g>
	<g>
		<g>
			<circle class="st0" cx="51.7" cy="148.6" r="40.2"/>
		</g>
		<g>
			<circle class="st0" cx="51.7" cy="339" r="40.2"/>
		</g>
		<g>
			<circle class="st0" cx="51.7" cy="529.4" r="40.2"/>
		</g>
		<g>
			<path class="st0" d="M622.8,163.6H203.2c-8.3,0-15-6.7-15-15s6.7-15,15-15h419.7c8.3,0,15,6.7,15,15S631.1,163.6,622.8,163.6z"/>
		</g>
	</g>
	<g>
		<g>
			<path class="st0" d="M622.8,354H203.2c-8.3,0-15-6.7-15-15s6.7-15,15-15h419.7c8.3,0,15,6.7,15,15S631.1,354,622.8,354z"/>
		</g>
	</g>
	<g>
		<g>
			<path class="st0" d="M622.8,544.4H203.2c-8.3,0-15-6.7-15-15s6.7-15,15-15h419.7c8.3,0,15,6.7,15,15S631.1,544.4,622.8,544.4z"/>
		</g>
	</g>
</g>
</svg>
