<?xml version="1.0" encoding="utf-8"?>
<!-- Generator: Adobe Illustrator 22.1.0, SVG Export Plug-In . SVG Version: 6.00 Build 0)  -->
<svg version="1.1" id="Layer_1" xmlns="http://www.w3.org/2000/svg" xmlns:xlink="http://www.w3.org/1999/xlink" x="0px" y="0px"
	 viewBox="0 0 30 23" style="enable-background:new 0 0 30 23;" xml:space="preserve">
<style type="text/css">
	.st0{fill:#7F7F7F;}
	.st1{fill:#FFFFFF;}
</style>
<rect x="3.2" y="2.4" class="st0" width="24.7" height="19.2"/>
<title>contact</title>
<desc>Created with Sketch.</desc>
<g id="Clip-2">
</g>
<path class="st1" d="M10.5,8.8c0.6,0,1.1-0.5,1.1-1.1s-0.5-1.1-1.1-1.1c-0.6,0-1.1,0.5-1.1,1.1S9.9,8.8,10.5,8.8z M10.5,7.1
	c0.3,0,0.6,0.3,0.6,0.6s-0.3,0.6-0.6,0.6c-0.3,0-0.6-0.3-0.6-0.6S10.2,7.1,10.5,7.1z M10.6,9c-0.4,0-0.8,0.2-1.1,0.6
	C9.3,10,9.1,10.5,9.1,11c0,0.1,0.1,0.2,0.2,0.2h2.5c0.1,0,0.2-0.1,0.2-0.2c0-0.5-0.2-1-0.4-1.4C11.4,9.2,11,9,10.6,9z M9.6,10.7
	c0.1-0.7,0.5-1.2,1-1.2c0.5,0,1,0.5,1,1.2H9.6z M14.3,7c-0.1,0-0.1,0-0.2,0V5.4c0-0.3-0.3-0.6-0.6-0.6H7.7c-0.3,0-0.6,0.3-0.6,0.6
	v0.3l-1,0h0C6.1,5.8,6,5.9,6,6c0,0.1,0.1,0.2,0.2,0.2l1,0v1.5l-1,0h0C6.1,7.7,6,7.8,6,7.9c0,0.1,0.1,0.2,0.2,0.2l1,0v1.5l-1,0h0
	C6.1,9.7,6,9.8,6,9.9c0,0.1,0.1,0.2,0.2,0.2l1,0v1.5l-1,0h0c-0.1,0-0.2,0.1-0.2,0.2c0,0.1,0.1,0.2,0.2,0.2l1,0v0.3
	c0,0.3,0.3,0.6,0.6,0.6h5.9c0.3,0,0.6-0.3,0.6-0.6v-1.3c0.1,0,0.1,0,0.2,0c1.1,0,2-0.9,2-2.1v0C16.4,7.9,15.4,7,14.3,7z M13.7,12.4
	c0,0.1,0,0.1-0.1,0.1H7.7c-0.1,0-0.1,0-0.1-0.1V8c0,0,0,0,0,0s0,0,0,0V6c0,0,0,0,0,0c0,0,0,0,0,0V5.4c0-0.1,0-0.1,0.1-0.1h5.9
	c0.1,0,0.1,0,0.1,0.1v1.6c-0.8,0.3-1.4,1-1.4,2v0c0,0.9,0.6,1.7,1.4,2V12.4z M15.3,9.2h-0.8v0.9h-0.4V9.2h-0.8V8.8h0.8V7.9h0.4v0.9
	h0.8V9.2z"/>
</svg>
