<?xml version="1.0" encoding="utf-8"?>
<!-- Generator: Adobe Illustrator 22.1.0, SVG Export Plug-In . SVG Version: 6.00 Build 0)  -->
<svg version="1.1" id="Layer_1" xmlns="http://www.w3.org/2000/svg" xmlns:xlink="http://www.w3.org/1999/xlink" x="0px" y="0px"
	 viewBox="0 0 30 23" style="enable-background:new 0 0 30 23;" xml:space="preserve">
<style type="text/css">
	.st0{fill:#7F7F7F;}
	.st1{fill:#FFFFFF;}
</style>
<rect x="3.2" y="2.4" class="st0" width="24.7" height="19.2"/>
<title>contact</title>
<desc>Created with Sketch.</desc>
<g id="Page-1">
	<g id="Webapp-Artboard-1" transform="translate(-124.000000, -1554.000000)">
		<g id="download-contact" transform="translate(102.000000, 1537.000000)">
			<g id="Add-to-contact" transform="translate(22.000000, 0.000000)">
				<g id="Clip-2">
				</g>
				<g>
					<path class="st1" d="M15.1,27.9c0.6,0,1.1-0.5,1.1-1.1c0-0.6-0.5-1.1-1.1-1.1S14,26.1,14,26.7C14,27.4,14.5,27.9,15.1,27.9z
						 M15.1,26.1c0.3,0,0.6,0.3,0.6,0.6c0,0.3-0.3,0.6-0.6,0.6s-0.6-0.3-0.6-0.6C14.5,26.4,14.8,26.1,15.1,26.1z"/>
					<path class="st1" d="M15.2,28c-0.4,0-0.8,0.2-1.1,0.6c-0.3,0.4-0.4,0.9-0.4,1.4c0,0.1,0.1,0.2,0.2,0.2h2.5
						c0.1,0,0.2-0.1,0.2-0.2c0-0.5-0.2-1-0.4-1.4C16,28.2,15.6,28,15.2,28z M14.2,29.8c0.1-0.7,0.5-1.2,1-1.2c0.5,0,1,0.5,1,1.2
						H14.2z"/>
					<path class="st1" d="M18.9,26c-0.1,0-0.1,0-0.2,0v-1.5c0-0.3-0.3-0.6-0.6-0.6h-5.9c-0.3,0-0.6,0.3-0.6,0.6v0.3l-1,0h0
						c-0.1,0-0.2,0.1-0.2,0.2c0,0.1,0.1,0.2,0.2,0.2l1,0v1.5l-1,0h0c-0.1,0-0.2,0.1-0.2,0.2c0,0.1,0.1,0.2,0.2,0.2l1,0v1.5l-1,0h0
						c-0.1,0-0.2,0.1-0.2,0.2c0,0.1,0.1,0.2,0.2,0.2l1,0v1.5l-1,0h0c-0.1,0-0.2,0.1-0.2,0.2c0,0.1,0.1,0.2,0.2,0.2l1,0v0.3
						c0,0.3,0.3,0.6,0.6,0.6h5.9c0.3,0,0.6-0.3,0.6-0.6v-1.3c0.1,0,0.1,0,0.2,0c1.1,0,2-0.9,2-2.1v0C21,26.9,20.1,26,18.9,26z
						 M18.3,31.4c0,0.1,0,0.1-0.1,0.1h-5.9c-0.1,0-0.1,0-0.1-0.1V27c0,0,0,0,0,0c0,0,0,0,0,0V25c0,0,0,0,0,0c0,0,0,0,0,0v-0.5
						c0-0.1,0-0.1,0.1-0.1h5.9c0.1,0,0.1,0,0.1,0.1v1.6c-0.8,0.3-1.4,1-1.4,2v0c0,0.9,0.6,1.7,1.4,2V31.4z M20,28.2h-0.8v0.9h-0.4
						v-0.9h-0.8v-0.4h0.8V27h0.4v0.9H20V28.2z"/>
				</g>
			</g>
		</g>
	</g>
</g>
</svg>
