<svg id="Layer_1" data-name="Layer 1" xmlns="http://www.w3.org/2000/svg" viewBox="0 0 552.67 677.46"><defs><style>.cls-1{fill:#fff;}.cls-2{fill:none;stroke:#fff;stroke-linecap:round;stroke-linejoin:round;stroke-width:30px;}</style></defs><title>content-type-page</title><path class="cls-1" d="M422.6,588H38.17A38.22,38.22,0,0,1,0,549.85V38.17A38.21,38.21,0,0,1,38.17,0H422.6a38.21,38.21,0,0,1,38.17,38.17V549.85A38.22,38.22,0,0,1,422.6,588ZM38.17,30A8.19,8.19,0,0,0,30,38.17V549.85A8.19,8.19,0,0,0,38.17,558H422.6a8.18,8.18,0,0,0,8.17-8.18V38.17A8.18,8.18,0,0,0,422.6,30Z"/><path class="cls-2" d="M356.42,190.75"/><path class="cls-2" d="M150.82,190.75"/><path class="cls-1" d="M356.42,129.69H104.35a15,15,0,0,1,0-30H356.42a15,15,0,0,1,0,30Z"/><path class="cls-1" d="M356.42,249.93H104.35a15,15,0,1,1,0-30H356.42a15,15,0,0,1,0,30Z"/><path class="cls-1" d="M356.42,370.18H104.35a15,15,0,1,1,0-30H356.42a15,15,0,0,1,0,30Z"/><path class="cls-1" d="M356.42,490.42H104.35a15,15,0,1,1,0-30H356.42a15,15,0,0,1,0,30Z"/><path class="cls-1" d="M516.57,677.46H171.36a36.15,36.15,0,0,1-36.1-36.1V629.53h30v11.83a6.11,6.11,0,0,0,6.1,6.1H516.57a6.11,6.11,0,0,0,6.1-6.1V135.42a6.11,6.11,0,0,0-6.1-6.1H495.06v-30h21.51a36.14,36.14,0,0,1,36.1,36.1V641.36A36.14,36.14,0,0,1,516.57,677.46Z"/></svg>