<?xml version="1.0" encoding="UTF-8"?>
<svg width="16px" height="15px" viewBox="0 0 16 15" version="1.1" xmlns="http://www.w3.org/2000/svg" xmlns:xlink="http://www.w3.org/1999/xlink">
    <!-- Generator: Sketch 51.1 (57501) - http://www.bohemiancoding.com/sketch -->
    <title>iconComment</title>
    <desc>Created with Sketch.</desc>
    <defs></defs>
    <g id="Symbols" stroke="none" stroke-width="1" fill="none" fill-rule="evenodd">
        <g id="list-post" transform="translate(-70.000000, -293.000000)" fill="#738BB2" fill-rule="nonzero">
            <g id="POST">
                <g id="Social-stats" transform="translate(14.000000, 285.000000)">
                    <path d="M71.4245234,22.6666667 C71.3684533,22.6666667 71.3030381,22.658044 71.246968,22.6407987 L71.246968,22.6407987 L68.2752506,21.6923077 C68.0790051,21.6319492 67.8734145,21.6405718 67.7052041,21.7354209 C66.2660705,22.4511005 64.6400365,22.7442705 63.0140024,22.5804402 C59.3414082,22.2010438 56.4070708,19.4590424 56.0426149,16.0789653 C55.7996443,13.8888132 56.6033163,11.7417744 58.2573855,10.1896982 C59.9114546,8.63762193 62.2103304,7.84433852 64.5746213,8.02541408 C68.1631103,8.30133874 71.1722078,10.8708872 71.7329092,14.1474926 C71.9852248,15.6047197 71.7609443,17.0878148 71.0787576,18.4243249 C70.9946524,18.5881552 70.9759623,18.7519855 71.0226874,18.8985704 L71.0226874,18.9071931 L71.9852248,22.0199682 C72.03195,22.2096664 71.9665348,22.4079873 71.8076694,22.537327 C71.7048741,22.6149308 71.5646988,22.6666667 71.4245234,22.6666667 Z" id="iconComment"></path>
                </g>
            </g>
        </g>
    </g>
</svg>