<?xml version="1.0" encoding="UTF-8"?>
<svg width="18px" height="16px" viewBox="0 0 18 16" version="1.1" xmlns="http://www.w3.org/2000/svg" xmlns:xlink="http://www.w3.org/1999/xlink">
    <!-- Generator: Sketch 51.1 (57501) - http://www.bohemiancoding.com/sketch -->
    <title>iconLike</title>
    <desc>Created with Sketch.</desc>
    <defs></defs>
    <g id="Symbols" stroke="none" stroke-width="1" fill="none" fill-rule="evenodd" fill-opacity="0.963230299" stroke-opacity="0.963230299">
        <g id="list-post" transform="translate(-13.000000, -293.000000)" fill="#D1232F" fill-rule="nonzero" stroke="#D1232F" stroke-width="0.2">
            <g id="POST">
                <g id="Social-stats" transform="translate(14.000000, 285.000000)">
                    <path d="M7.98532235,23.6666667 C7.93844736,23.631393 7.86688488,23.576988 7.7790724,23.5148107 C7.56844746,23.3623569 7.4078225,23.2541446 7.36157251,23.2218603 C7.05563509,23.0078271 6.73907267,22.7863207 6.42969775,22.5609283 C4.76251068,21.3472765 3.5028235,20.2409402 2.46532377,19.079601 C1.42782404,17.9182618 0.760636708,16.8639392 0.377511807,15.7749408 C-0.224050539,14.0647679 -0.106238069,12.4750634 0.727824216,11.0497699 C1.34938656,9.98737619 2.27532382,9.31598163 3.40626103,9.10673132 C5.20032307,8.77790941 6.66594769,9.2095629 7.76219741,10.3921261 C7.83875989,10.4746305 7.91532237,10.5559392 7.99438485,10.6393404 C8.11063482,10.5197688 8.22469729,10.4001972 8.33813476,10.2806256 C9.28094702,9.30970412 10.5256342,8.88821422 12.0350088,9.02781406 C13.8512583,9.19850253 15.0884455,10.2079858 15.7131329,12.0311538 C16.1750077,13.378128 16.0787578,14.8010301 15.4271954,16.2601026 C14.9378206,17.3562752 14.2059457,18.3914664 13.1237585,19.5184288 C11.6800089,21.0220417 9.94282185,22.279935 8.22563479,23.4974728 C8.12344731,23.5698137 8.03938484,23.6287027 7.98532235,23.6666667 Z" id="iconLike"></path>
                </g>
            </g>
        </g>
    </g>
</svg>