<?xml version="1.0" encoding="UTF-8"?>
<svg width="24px" height="22px" viewBox="0 0 24 22" version="1.1" xmlns="http://www.w3.org/2000/svg" xmlns:xlink="http://www.w3.org/1999/xlink">
    <!-- Generator: Sketch 50.2 (55047) - http://www.bohemiancoding.com/sketch -->
    <title>iconLike</title>
    <desc>Created with Sketch.</desc>
    <defs></defs>
    <g id="Page-1" stroke="none" stroke-width="1" fill="none" fill-rule="evenodd" fill-opacity="0.963230299" stroke-opacity="0.963230299">
        <g id="Webapp-Artboard-1" transform="translate(-105.000000, -2886.000000)" fill="#D1232F" fill-rule="nonzero" stroke="#D1232F" stroke-width="0.2">
            <g id="Like-icon" transform="translate(106.000000, 2887.000000)">
                <path d="M11.2520451,20.6666667 C11.185994,20.6169629 11.085156,20.5403012 10.9614202,20.4526878 C10.6646305,20.2378666 10.4382953,20.0853856 10.3731249,20.0398941 C9.94203126,19.7383019 9.49596603,19.4261792 9.06002865,19.1085807 C6.7108105,17.398435 4.93579675,15.8395066 3.47386531,14.2030741 C2.01193387,12.5666416 1.07180627,11.0810052 0.531948455,9.54650745 C-0.315707577,7.13671841 -0.149699097,4.89668027 1.02557049,2.88831213 C1.90140833,1.39130281 3.20613811,0.445246845 4.79973145,0.150394138 C7.32772796,-0.312945829 9.39292629,0.295293183 10.9376418,1.96163219 C11.0455253,2.0778884 11.1534088,2.19245974 11.264815,2.3099796 C11.4286218,2.14149234 11.5893462,1.97300508 11.7491899,1.80451782 C13.0776981,0.436401263 14.8315755,-0.157516331 16.9584215,0.0391925461 C19.5176822,0.279708111 21.2609914,1.70216181 22.1412327,4.27117132 C22.7920564,6.16918031 22.6564314,8.17417872 21.7383208,10.2301445 C21.0487472,11.7747515 20.017469,13.2334299 18.4925688,14.8214224 C16.4581944,16.9401497 14.0103399,18.7126357 11.5906672,20.4282572 C11.4466758,20.530192 11.3282241,20.613172 11.2520451,20.6666667 Z" id="iconLike"></path>
            </g>
        </g>
    </g>
</svg>