<?xml version="1.0" encoding="UTF-8"?>
<svg width="15px" height="14px" viewBox="0 0 15 14" version="1.1" xmlns="http://www.w3.org/2000/svg" xmlns:xlink="http://www.w3.org/1999/xlink">
    <!-- Generator: Sketch 50.2 (55047) - http://www.bohemiancoding.com/sketch -->
    <title>like-small</title>
    <desc>Created with Sketch.</desc>
    <defs></defs>
    <g id="Page-1" stroke="none" stroke-width="1" fill="none" fill-rule="evenodd" fill-opacity="0.963230299" stroke-opacity="0.963230299">
        <g id="Webapp-Artboard-1" transform="translate(-100.000000, -1065.000000)" fill="#D1232F" fill-rule="nonzero" stroke="#D12330" stroke-width="0.3">
            <g id="Group" transform="translate(101.000000, 1061.000000)">
                <g id="like-small" transform="translate(0.000000, 5.000000)">
                    <path d="M6.86737733,12.3068952 C6.82706484,12.2772968 6.76552111,12.2316452 6.69000238,12.1794719 C6.50886492,12.0515469 6.37072745,11.9607453 6.33095246,11.9336553 C6.06784628,11.7540586 5.79560259,11.5681912 5.52954016,11.3790629 C4.09575925,10.3606798 3.01242826,9.43234586 2.12017848,8.4578586 C1.22792869,7.48337133 0.65414758,6.59868238 0.324660159,5.68489677 C-0.192683466,4.24987961 -0.0913647408,2.91594827 0.625928837,1.71997522 C1.16047246,0.828513769 1.95677852,0.265142238 2.92938453,0.0895589465 C4.47227791,-0.186357654 5.73271511,0.175845592 6.67548988,1.16814202 C6.74133361,1.237372 6.80717735,1.30559865 6.87517108,1.37558114 C6.97514606,1.27524783 7.07323979,1.17491452 7.17079601,1.07458121 C7.98161457,0.259874739 9.05204556,-0.0938001761 10.3501077,0.0233389624 C11.9120824,0.166564761 12.9760634,1.01362872 13.5132945,2.54346086 C13.9105069,3.67371558 13.8277319,4.86768196 13.2673883,6.09199917 C12.8465259,7.01180478 12.2171135,7.88044041 11.2864325,8.82608184 C10.0448078,10.0877732 8.55082693,11.1432796 7.07404603,12.1649235 C6.98616481,12.2256252 6.91387107,12.2750393 6.86737733,12.3068952 Z M3.8968843,0.542814671 C3.6081134,0.544303157 3.32014924,0.57143178 3.03688451,0.623833818 C2.22875345,0.768564616 1.58751611,1.22658617 1.13305996,1.98460432 C0.490478869,3.0564149 0.407435139,4.20999712 0.875328777,5.51132014 C1.18035995,6.3576316 1.71651607,7.18186974 2.56200337,8.10518702 C3.42684066,9.04957429 4.48141541,9.95282491 5.88133382,10.9473788 C6.14309626,11.1332463 6.41292119,11.3176087 6.67387738,11.4957004 L6.87409608,11.6324045 C8.58280817,10.5008956 9.81610163,9.51813084 10.8575076,8.45911277 C11.7422324,7.56037715 12.3377823,6.74040318 12.7320384,5.87904172 C13.2354071,4.77938865 13.3120008,3.71384891 12.9602071,2.71252248 C12.4968822,1.38787197 11.6237137,0.685538803 10.2955515,0.565891332 C9.17083303,0.465558023 8.28852699,0.752511287 7.59757091,1.44656695 C7.48362094,1.56119776 7.37020846,1.6760794 7.25357099,1.79422187 L6.87167733,2.18100678 L6.65828988,1.96077516 L6.52391492,1.8215627 C6.42662744,1.72122939 6.33578996,1.62716691 6.24172749,1.52934193 C5.61312139,0.868897926 4.84127157,0.542814671 3.8968843,0.542814671 Z" id="Shape"></path>
                </g>
            </g>
        </g>
    </g>
</svg>