<?xml version="1.0" encoding="UTF-8"?>
<svg width="27px" height="25px" viewBox="0 0 27 25" version="1.1" xmlns="http://www.w3.org/2000/svg" xmlns:xlink="http://www.w3.org/1999/xlink">
    <!-- Generator: Sketch 50.2 (55047) - http://www.bohemiancoding.com/sketch -->
    <title>like</title>
    <desc>Created with Sketch.</desc>
    <defs></defs>
    <g id="Page-1" stroke="none" stroke-width="1" fill="none" fill-rule="evenodd" fill-opacity="0.963230299" stroke-opacity="0.963230299">
        <g id="Webapp-Artboard-1" transform="translate(-101.000000, -969.000000)" fill="#D1232F" fill-rule="nonzero" stroke="#D12330" stroke-width="0.3">
            <g id="action-bar" transform="translate(102.000000, 959.000000)">
                <g id="like" transform="translate(0.000000, 11.000000)">
                    <path d="M12.8548741,23.0369732 C12.7794141,22.9815688 12.6642119,22.8961146 12.5228503,22.7984527 C12.1837835,22.5589931 11.9252074,22.3890237 11.8507536,22.3383146 C11.3582516,22.0021322 10.8486454,21.6542115 10.3506097,21.3001869 C7.66675062,19.3939007 5.63889009,17.6561753 3.96870974,15.8320567 C2.2985294,14.007938 1.2244827,12.3519106 0.607723336,10.6414179 C-0.360679423,7.95524472 -0.171023402,5.45829156 1.17166073,3.21957915 C2.17225974,1.55087447 3.66284539,0.496313208 5.48344258,0.167643181 C8.3715466,-0.348838291 10.7309279,0.329161023 12.4956847,2.18661621 C12.6189359,2.3162061 12.7421872,2.44391788 12.869463,2.57491637 C13.0566037,2.38710492 13.2402229,2.19929348 13.422836,2.01148203 C14.9405872,0.486453107 16.9443006,-0.175582234 19.3741111,0.0436876275 C22.2979329,0.311788464 24.2895726,1.89738658 25.2952023,4.76104158 C26.0387344,6.8767375 25.88379,9.11169368 24.8348966,11.4034628 C24.0470946,13.1252242 22.8689132,14.7512018 21.1267944,16.5213247 C18.8026278,18.8830536 16.0060818,20.85883 13.2417321,22.77122 C13.0772294,22.8848459 12.9419046,22.9773431 12.8548741,23.0369732 Z M7.29448151,1.01608138 C6.75393838,1.01886764 6.21490539,1.06964904 5.68466913,1.16773912 C4.17194856,1.43865713 2.9716322,2.29601637 2.12094697,3.71493183 C0.918115285,5.72122759 0.762667777,7.88058967 1.63850632,10.3165041 C2.20948665,11.9006936 3.21310406,13.4435646 4.79575085,15.1718995 C6.41461843,16.9396747 8.38865086,18.6304472 11.0091236,20.4921281 C11.4991102,20.8400488 12.0041888,21.1851524 12.4926663,21.5185177 L12.8674507,21.7744108 C16.0659467,19.6563672 18.3745183,17.8167541 20.3239004,15.8344043 C21.9799949,14.1520833 23.09479,12.6171943 23.8327884,11.004833 C24.7750317,8.94641961 24.9184056,6.95186208 24.2598917,5.07750386 C23.3926053,2.59792327 21.7581427,1.28324316 19.2719887,1.05927801 C17.1666559,0.871466568 15.515089,1.4086073 14.2217054,2.70779296 C14.0084053,2.92236754 13.7961113,3.13741164 13.5777804,3.35855962 L12.8629231,4.08257274 L12.4634884,3.67032662 L12.2119553,3.40973824 C12.0298452,3.22192679 11.8598088,3.04585356 11.6837356,2.86273741 C10.5070633,1.62646857 9.06225672,1.01608138 7.29448151,1.01608138 Z"></path>
                </g>
            </g>
        </g>
    </g>
</svg>