<?xml version="1.0" encoding="UTF-8"?>
<svg width="22px" height="28px" viewBox="0 0 22 28" version="1.1" xmlns="http://www.w3.org/2000/svg" xmlns:xlink="http://www.w3.org/1999/xlink">
    <!-- Generator: Sketch 50.2 (55047) - http://www.bohemiancoding.com/sketch -->
    <title>location</title>
    <desc>Created with Sketch.</desc>
    <defs></defs>
    <g id="Page-1" stroke="none" stroke-width="1" fill="none" fill-rule="evenodd">
        <g id="Webapp-Artboard-1" transform="translate(-105.000000, -2820.000000)" fill="#69788E" fill-rule="nonzero">
            <g id="location" transform="translate(105.000000, 2820.000000)">
                <g id="Shape">
                    <path d="M11,0.628571429 C5.34285714,0.628571429 0.680952381,5.18571429 0.680952381,10.7904762 C0.680952381,12.9904762 1.41428571,15.1380952 2.72380952,16.8666667 L10.2142857,26.8714286 C10.3714286,27.1333333 10.6857143,27.2380952 11,27.2380952 C11.3142857,27.2380952 11.5761905,27.0809524 11.7857143,26.8714286 L19.2761905,16.8666667 C20.5857143,15.1380952 21.3190476,12.9904762 21.3190476,10.7904762 C21.3190476,5.18571429 16.6571429,0.628571429 11,0.628571429 Z M18.752381,16.5 L19.0142857,16.7095238 L18.752381,16.5 L11.2619048,26.5047619 C11.2095238,26.6095238 11.1047619,26.6095238 11,26.6095238 C10.8952381,26.6095238 10.7904762,26.5571429 10.7380952,26.5047619 L3.24761905,16.5 L2.98571429,16.6571429 L3.24761905,16.5 C1.99047619,14.8761905 1.30952381,12.8857143 1.30952381,10.7904762 C1.30952381,5.55238095 5.65714286,1.30952381 11,1.30952381 C16.3428571,1.30952381 20.6904762,5.55238095 20.6904762,10.7904762 C20.6904762,12.8333333 20.0095238,14.8761905 18.752381,16.5 Z"></path>
                    <path d="M11,27.5 C11,27.5 11,27.5 11,27.5 C10.5809524,27.5 10.2666667,27.3428571 10.0571429,27.0285714 L2.56666667,17.0238095 C1.2047619,15.2428571 0.471428571,13.0428571 0.471428571,10.7904762 C0.471428571,5.08095238 5.18571429,0.419047619 11,0.419047619 C16.8142857,0.419047619 21.5285714,5.08095238 21.5285714,10.7904762 C21.5285714,13.0428571 20.7952381,15.2428571 19.4333333,17.0238095 L11.9428571,27.0285714 C11.7333333,27.2904762 11.3666667,27.5 11,27.5 Z M11,27.0285714 C11.2619048,27.0285714 11.4190476,26.9238095 11.5761905,26.7666667 L19.0666667,16.7619048 C20.3761905,15.0857143 21.0571429,12.9380952 21.0571429,10.8428571 C21.0571429,5.34285714 16.552381,0.89047619 11,0.89047619 C5.44761905,0.89047619 0.942857143,5.34285714 0.942857143,10.7904762 C0.942857143,12.9380952 1.67619048,15.0333333 2.93333333,16.7095238 L10.4238095,26.7142857 C10.5809524,26.9238095 10.7904762,27.0285714 11,27.0285714 Z M11,26.8714286 C10.8428571,26.8714286 10.6857143,26.7666667 10.5809524,26.6619048 L3.1952381,16.8142857 L3.14285714,16.8666667 L2.88095238,16.447619 L2.93333333,16.447619 C1.72857143,14.8238095 1.1,12.8333333 1.1,10.8428571 C1.1,5.44761905 5.55238095,1.04761905 11,1.04761905 C16.447619,1.04761905 20.9,5.3952381 20.9,10.7904762 C20.9,12.8333333 20.2714286,14.8238095 19.0666667,16.447619 L19.1190476,16.5 L18.8571429,16.8666667 L18.8047619,16.8142857 L11.4714286,26.6095238 C11.3142857,26.7666667 11.1571429,26.8714286 11,26.8714286 Z M3.61428571,16.552381 L10.947619,26.347619 C11,26.4 11.052381,26.4 11.052381,26.347619 L18.3857143,16.5 L18.647619,16.1333333 C19.8,14.6142857 20.3761905,12.6761905 20.3761905,10.7904762 C20.3761905,5.65714286 16.1333333,1.51904762 10.947619,1.51904762 C5.76190476,1.51904762 1.57142857,5.65714286 1.57142857,10.7904762 C1.57142857,12.7285714 2.2,14.6142857 3.35238095,16.1857143 L3.61428571,16.552381 Z"></path>
                </g>
                <g id="Shape_1_" transform="translate(6.285714, 6.285714)">
                    <path d="M4.71428571,0.419047619 C2.46190476,0.419047619 0.628571429,2.25238095 0.628571429,4.5047619 C0.628571429,6.75714286 2.46190476,8.59047619 4.71428571,8.59047619 C6.96666667,8.59047619 8.8,6.75714286 8.8,4.5047619 C8.8,3.4047619 8.38095238,2.35714286 7.5952381,1.62380952 C6.80952381,0.838095238 5.81428571,0.419047619 4.71428571,0.419047619 Z M4.71428571,7.96190476 C2.82857143,7.96190476 1.30952381,6.39047619 1.30952381,4.5047619 C1.30952381,2.61904762 2.82857143,1.04761905 4.71428571,1.04761905 C6.6,1.04761905 8.11904762,2.61904762 8.11904762,4.5047619 C8.11904762,5.3952381 7.75238095,6.28571429 7.12380952,6.96666667 C6.4952381,7.5952381 5.6047619,7.96190476 4.71428571,7.96190476 Z" id="Shape"></path>
                    <path d="M4.71428571,8.85238095 C2.35714286,8.85238095 0.419047619,6.91428571 0.419047619,4.5047619 C0.419047619,2.0952381 2.35714286,0.157142857 4.71428571,0.157142857 C5.86666667,0.157142857 6.96666667,0.628571429 7.75238095,1.41428571 C8.53809524,2.25238095 9.00952381,3.3 9.00952381,4.45238095 C9.00952381,6.91428571 7.07142857,8.85238095 4.71428571,8.85238095 Z M4.71428571,0.628571429 C2.61904762,0.628571429 0.89047619,2.35714286 0.89047619,4.5047619 C0.89047619,6.65238095 2.61904762,8.38095238 4.71428571,8.38095238 C6.80952381,8.38095238 8.53809524,6.65238095 8.53809524,4.5047619 C8.53809524,3.45714286 8.11904762,2.51428571 7.43809524,1.78095238 C6.7047619,1.04761905 5.76190476,0.628571429 4.71428571,0.628571429 Z M4.71428571,8.17142857 C2.67142857,8.17142857 1.04761905,6.4952381 1.04761905,4.5047619 C1.04761905,2.51428571 2.67142857,0.838095238 4.71428571,0.838095238 C6.75714286,0.838095238 8.38095238,2.51428571 8.38095238,4.5047619 C8.38095238,5.5 8.01428571,6.39047619 7.33333333,7.12380952 C6.6,7.8047619 5.70952381,8.17142857 4.71428571,8.17142857 Z M4.71428571,1.30952381 C2.93333333,1.30952381 1.51904762,2.77619048 1.51904762,4.5047619 C1.51904762,6.23333333 2.93333333,7.7 4.71428571,7.7 C5.55238095,7.7 6.39047619,7.38571429 6.96666667,6.75714286 C7.54285714,6.18095238 7.90952381,5.34285714 7.90952381,4.5047619 C7.90952381,2.72380952 6.4952381,1.30952381 4.71428571,1.30952381 Z" id="Shape"></path>
                </g>
            </g>
        </g>
    </g>
</svg>