<?xml version="1.0" encoding="UTF-8"?>
<svg width="22px" height="28px" viewBox="0 0 22 28" version="1.1" xmlns="http://www.w3.org/2000/svg" xmlns:xlink="http://www.w3.org/1999/xlink">
    <!-- Generator: Sketch 50.2 (55047) - http://www.bohemiancoding.com/sketch -->
    <title>location-icon</title>
    <desc>Created with Sketch.</desc>
    <defs></defs>
    <g id="Page-1" stroke="none" stroke-width="1" fill="none" fill-rule="evenodd">
        <g id="Webapp-Artboard-1" transform="translate(-105.000000, -2820.000000)" fill="#69788E" fill-rule="nonzero">
            <g id="location-icon" transform="translate(105.000000, 2820.000000)">
                <path d="M11,6.7047619 C8.74761905,6.7047619 6.91428571,8.53809524 6.91428571,10.7904762 C6.91428571,13.0428571 8.74761905,14.8761905 11,14.8761905 C13.252381,14.8761905 15.0857143,13.0428571 15.0857143,10.7904762 C15.0857143,9.69047619 14.6666667,8.64285714 13.8809524,7.90952381 C13.0952381,7.12380952 12.1,6.7047619 11,6.7047619 Z M11,14.247619 C9.11428571,14.247619 7.5952381,12.6761905 7.5952381,10.7904762 C7.5952381,8.9047619 9.11428571,7.33333333 11,7.33333333 C12.8857143,7.33333333 14.4047619,8.9047619 14.4047619,10.7904762 C14.4047619,11.6809524 14.0380952,12.5714286 13.4095238,13.252381 C12.7809524,13.8809524 11.8904762,14.247619 11,14.247619 Z" id="Shape"></path>
                <path d="M11,15.1380952 C8.64285714,15.1380952 6.7047619,13.2 6.7047619,10.7904762 C6.7047619,8.38095238 8.64285714,6.44285714 11,6.44285714 C12.152381,6.44285714 13.252381,6.91428571 14.0380952,7.7 C14.8238095,8.53809524 15.2952381,9.58571429 15.2952381,10.7380952 C15.2952381,13.2 13.3571429,15.1380952 11,15.1380952 Z M11,6.91428571 C8.9047619,6.91428571 7.17619048,8.64285714 7.17619048,10.7904762 C7.17619048,12.9380952 8.9047619,14.6666667 11,14.6666667 C13.0952381,14.6666667 14.8238095,12.9380952 14.8238095,10.7904762 C14.8238095,9.74285714 14.4047619,8.8 13.7238095,8.06666667 C12.9904762,7.33333333 12.047619,6.91428571 11,6.91428571 Z M11,14.4571429 C8.95714286,14.4571429 7.33333333,12.7809524 7.33333333,10.7904762 C7.33333333,8.8 8.95714286,7.12380952 11,7.12380952 C13.0428571,7.12380952 14.6666667,8.8 14.6666667,10.7904762 C14.6666667,11.7857143 14.3,12.6761905 13.6190476,13.4095238 C12.8857143,14.0904762 11.9952381,14.4571429 11,14.4571429 Z M11,7.5952381 C9.21904762,7.5952381 7.8047619,9.06190476 7.8047619,10.7904762 C7.8047619,12.5190476 9.21904762,13.9857143 11,13.9857143 C11.8380952,13.9857143 12.6761905,13.6714286 13.252381,13.0428571 C13.8285714,12.4666667 14.1952381,11.6285714 14.1952381,10.7904762 C14.1952381,9.00952381 12.7809524,7.5952381 11,7.5952381 Z" id="Shape"></path>
                <path d="M11,0.628571429 C5.34285714,0.628571429 0.680952381,5.18571429 0.680952381,10.7904762 C0.680952381,12.9904762 1.41428571,15.1380952 2.72380952,16.8666667 L10.2142857,26.8714286 C10.3714286,27.1333333 10.6857143,27.2380952 11,27.2380952 C11.3142857,27.2380952 11.5761905,27.0809524 11.7857143,26.8714286 L19.2761905,16.8666667 C20.5857143,15.1380952 21.3190476,12.9904762 21.3190476,10.7904762 C21.3190476,5.18571429 16.6571429,0.628571429 11,0.628571429 Z M18.752381,16.5 L19.0142857,16.7095238 L18.752381,16.5 L11.2619048,26.5047619 C11.2095238,26.6095238 11.1047619,26.6095238 11,26.6095238 C10.8952381,26.6095238 10.7904762,26.5571429 10.7380952,26.5047619 L3.24761905,16.5 L2.98571429,16.6571429 L3.24761905,16.5 C1.99047619,14.8761905 1.30952381,12.8857143 1.30952381,10.7904762 C1.30952381,5.55238095 5.65714286,1.30952381 11,1.30952381 C16.3428571,1.30952381 20.6904762,5.55238095 20.6904762,10.7904762 C20.6904762,12.8333333 20.0095238,14.8761905 18.752381,16.5 Z" id="Shape"></path>
                <path d="M11,27.5 C11,27.5 11,27.5 11,27.5 C10.5809524,27.5 10.2666667,27.3428571 10.0571429,27.0285714 L2.56666667,17.0238095 C1.2047619,15.2428571 0.471428571,13.0428571 0.471428571,10.7904762 C0.471428571,5.08095238 5.18571429,0.419047619 11,0.419047619 C16.8142857,0.419047619 21.5285714,5.08095238 21.5285714,10.7904762 C21.5285714,13.0428571 20.7952381,15.2428571 19.4333333,17.0238095 L11.9428571,27.0285714 C11.7333333,27.2904762 11.3666667,27.5 11,27.5 Z M11,27.0285714 C11.2619048,27.0285714 11.4190476,26.9238095 11.5761905,26.7666667 L19.0666667,16.7619048 C20.3761905,15.0857143 21.0571429,12.9380952 21.0571429,10.8428571 C21.0571429,5.34285714 16.552381,0.89047619 11,0.89047619 C5.44761905,0.89047619 0.942857143,5.34285714 0.942857143,10.7904762 C0.942857143,12.9380952 1.67619048,15.0333333 2.93333333,16.7095238 L10.4238095,26.7142857 C10.5809524,26.9238095 10.7904762,27.0285714 11,27.0285714 Z M11,26.8714286 C10.8428571,26.8714286 10.6857143,26.7666667 10.5809524,26.6619048 L3.1952381,16.8142857 L3.14285714,16.8666667 L2.88095238,16.447619 L2.93333333,16.447619 C1.72857143,14.8238095 1.1,12.8333333 1.1,10.8428571 C1.1,5.44761905 5.55238095,1.04761905 11,1.04761905 C16.447619,1.04761905 20.9,5.3952381 20.9,10.7904762 C20.9,12.8333333 20.2714286,14.8238095 19.0666667,16.447619 L19.1190476,16.5 L18.8571429,16.8666667 L18.8047619,16.8142857 L11.4714286,26.6095238 C11.3142857,26.7666667 11.1571429,26.8714286 11,26.8714286 Z M3.61428571,16.552381 L10.947619,26.347619 C11,26.4 11.052381,26.4 11.052381,26.347619 L18.3857143,16.5 L18.647619,16.1333333 C19.8,14.6142857 20.3761905,12.6761905 20.3761905,10.7904762 C20.3761905,5.65714286 16.1333333,1.51904762 10.947619,1.51904762 C5.76190476,1.51904762 1.57142857,5.65714286 1.57142857,10.7904762 C1.57142857,12.7285714 2.2,14.6142857 3.35238095,16.1857143 L3.61428571,16.552381 Z" id="Shape"></path>
            </g>
        </g>
    </g>
</svg>