<?xml version="1.0" encoding="UTF-8"?>
<svg width="171px" height="276px" viewBox="0 0 171 276" version="1.1" xmlns="http://www.w3.org/2000/svg" xmlns:xlink="http://www.w3.org/1999/xlink">
    <!-- Generator: Sketch 50.2 (55047) - http://www.bohemiancoding.com/sketch -->
    <title>mobile</title>
    <desc>Created with Sketch.</desc>
    <defs></defs>
    <g id="Page-1" stroke="none" stroke-width="1" fill="none" fill-rule="evenodd">
        <g id="Webapp-Artboard-1" transform="translate(-810.000000, -2768.000000)" fill="#637289" fill-rule="nonzero" stroke="#637289" stroke-width="0.3">
            <g id="mobile-icon" transform="translate(811.000000, 2769.000000)">
                <path d="M151.322176,0 L17.6778243,0 C7.91463151,0 0,7.71049519 0,17.221873 L0,256.778127 C0,266.289505 7.91463151,274 17.6778243,274 L151.322176,274 C161.085368,274 169,266.289505 169,256.778127 L169,17.221873 C169,7.71049519 161.085368,0 151.322176,0 Z M161.92887,256.812571 C161.92887,262.519397 157.180091,267.145695 151.322176,267.145695 L17.6778243,267.145695 C11.8199086,267.145695 7.07112971,262.519397 7.07112971,256.812571 L7.07112971,215.170082 L161.92887,215.170082 L161.92887,256.778127 L161.92887,256.812571 Z M161.92887,208.315776 L7.07112971,208.315776 L7.07112971,17.221873 C7.07112971,11.5150463 11.8199086,6.88874921 17.6778243,6.88874921 L151.322176,6.88874921 C157.180091,6.88874921 161.92887,11.5150463 161.92887,17.221873 L161.92887,208.281332 L161.92887,208.315776 Z M103.521339,31.0257905 C103.521339,32.9280661 101.938413,34.4701651 99.9857741,34.4701651 L69.0495816,34.4701651 C67.096943,34.4701651 65.5140167,32.9280661 65.5140167,31.0257905 C65.5140167,29.123515 67.096943,27.5814159 69.0495816,27.5814159 L99.9857741,27.5814159 C101.938413,27.5814159 103.521339,29.123515 103.521339,31.0257905 Z M84.5,256.571464 C92.8377666,256.571464 99.5968619,249.986702 99.5968619,241.863985 C99.5968619,233.741268 92.8377666,227.156505 84.5,227.156505 C76.1622334,227.156505 69.4031381,233.741268 69.4031381,241.863985 C69.4031381,249.986702 76.1622334,256.571464 84.5,256.571464 Z M84.5,234.045255 C88.9324895,234.045255 92.5257322,237.545819 92.5257322,241.863985 C92.5257322,246.18215 88.9324895,249.682715 84.5,249.682715 C80.0675105,249.682715 76.4742678,246.18215 76.4742678,241.863985 C76.4742678,237.545819 80.0675105,234.045255 84.5,234.045255 L84.5,234.045255 Z" id="mobile"></path>
            </g>
        </g>
    </g>
</svg>