<?xml version="1.0" encoding="UTF-8"?>
<svg width="69px" height="110px" viewBox="0 0 69 110" version="1.1" xmlns="http://www.w3.org/2000/svg" xmlns:xlink="http://www.w3.org/1999/xlink">
    <!-- Generator: Sketch 50.2 (55047) - http://www.bohemiancoding.com/sketch -->
    <title>mobile</title>
    <desc>Created with Sketch.</desc>
    <defs></defs>
    <g id="Page-1" stroke="none" stroke-width="1" fill="none" fill-rule="evenodd">
        <g id="Webapp-Artboard-1" transform="translate(-103.000000, -2757.000000)" fill="#637289" fill-rule="nonzero" stroke="#637289" stroke-width="0.3">
            <path d="M163.991632,2758 L111.008368,2758 C107.137753,2758 104,2761.03917 104,2764.78818 L104,2859.21182 C104,2862.96083 107.137753,2866 111.008368,2866 L163.991632,2866 C167.862247,2866 171,2862.96083 171,2859.21182 L171,2764.78818 C171,2761.03917 167.862247,2758 163.991632,2758 Z M168,2859.02386 C168,2861.21982 166.129409,2863 163.821918,2863 L111.178082,2863 C108.870591,2863 107,2861.21982 107,2859.02386 L107,2843 L168,2843 L168,2859.0106 L168,2859.02386 Z M168,2840 L107,2840 L107,2765.05267 C107,2762.81444 108.870591,2761 111.178082,2761 L163.821918,2761 C166.129409,2761 168,2762.81444 168,2765.05267 L168,2839.98649 L168,2840 Z M145,2771.5 C145,2772.32843 144.375281,2773 143.604651,2773 L131.395349,2773 C130.624719,2773 130,2772.32843 130,2771.5 C130,2770.67157 130.624719,2770 131.395349,2770 L143.604651,2770 C144.375281,2770 145,2770.67157 145,2771.5 Z M136,2860 C139.313708,2860 142,2857.31371 142,2854 C142,2850.68629 139.313708,2848 136,2848 C132.686292,2848 130,2850.68629 130,2854 C130,2857.31371 132.686292,2860 136,2860 Z M136,2851 C137.656854,2851 139,2852.34315 139,2854 C139,2855.65685 137.656854,2857 136,2857 C134.343146,2857 133,2855.65685 133,2854 C133,2852.34315 134.343146,2851 136,2851 L136,2851 Z" id="mobile"></path>
        </g>
    </g>
</svg>