<?xml version="1.0" encoding="UTF-8"?>
<svg width="25px" height="39px" viewBox="0 0 25 39" version="1.1" xmlns="http://www.w3.org/2000/svg" xmlns:xlink="http://www.w3.org/1999/xlink">
    <!-- Generator: Sketch 50.2 (55047) - http://www.bohemiancoding.com/sketch -->
    <title>mobile</title>
    <desc>Created with Sketch.</desc>
    <defs></defs>
    <g id="Page-1" stroke="none" stroke-width="1" fill="none" fill-rule="evenodd">
        <g id="Webapp-Artboard-1" transform="translate(-105.000000, -2746.000000)" fill="#637289" fill-rule="nonzero" stroke="#637289" stroke-width="0.3">
            <path d="M126.594142,2747 L108.405858,2747 C107.077139,2747 106,2748.0412 106,2749.32558 L106,2781.67442 C106,2782.9588 107.077139,2784 108.405858,2784 L126.594142,2784 C127.922861,2784 129,2782.9588 129,2781.67442 L129,2749.32558 C129,2748.0412 127.922861,2747 126.594142,2747 Z M128.037657,2781.67907 C128.037657,2782.4497 127.391373,2783.07442 126.594142,2783.07442 L108.405858,2783.07442 C107.608627,2783.07442 106.962343,2782.4497 106.962343,2781.67907 L106.962343,2776.05581 L128.037657,2776.05581 L128.037657,2781.67442 L128.037657,2781.67907 Z M128.037657,2775.13023 L106.962343,2775.13023 L106.962343,2749.32558 C106.962343,2748.55495 107.608627,2747.93023 108.405858,2747.93023 L126.594142,2747.93023 C127.391373,2747.93023 128.037657,2748.55495 128.037657,2749.32558 L128.037657,2775.12558 L128.037657,2775.13023 Z M120.088703,2751.18961 C120.088703,2751.44649 119.873275,2751.65473 119.607531,2751.65473 L115.39728,2751.65473 C115.131537,2751.65473 114.916109,2751.44649 114.916109,2751.18961 C114.916109,2750.93274 115.131537,2750.7245 115.39728,2750.7245 L119.607531,2750.7245 C119.873275,2750.7245 120.088703,2750.93274 120.088703,2751.18961 Z M117.5,2781.64651 C118.634726,2781.64651 119.554603,2780.75733 119.554603,2779.66047 C119.554603,2778.5636 118.634726,2777.67442 117.5,2777.67442 C116.365274,2777.67442 115.445397,2778.5636 115.445397,2779.66047 C115.445397,2780.75733 116.365274,2781.64651 117.5,2781.64651 Z M117.5,2778.60465 C118.103238,2778.60465 118.592259,2779.07736 118.592259,2779.66047 C118.592259,2780.24358 118.103238,2780.71628 117.5,2780.71628 C116.896762,2780.71628 116.407741,2780.24358 116.407741,2779.66047 C116.407741,2779.07736 116.896762,2778.60465 117.5,2778.60465 L117.5,2778.60465 Z" id="mobile"></path>
        </g>
    </g>
</svg>