<?xml version="1.0" encoding="UTF-8"?>
<svg width="14px" height="22px" viewBox="0 0 14 22" version="1.1" xmlns="http://www.w3.org/2000/svg" xmlns:xlink="http://www.w3.org/1999/xlink">
    <!-- Generator: Sketch 50.2 (55047) - http://www.bohemiancoding.com/sketch -->
    <title>mobile-icon</title>
    <desc>Created with Sketch.</desc>
    <defs></defs>
    <g id="Page-1" stroke="none" stroke-width="1" fill="none" fill-rule="evenodd">
        <g id="Webapp-Artboard-1" transform="translate(-106.000000, -2150.000000)" fill="#637289" fill-rule="nonzero" stroke="#637289" stroke-width="0.3">
            <g id="Mobile" transform="translate(102.000000, 2139.000000)">
                <g id="mobile-icon" transform="translate(5.000000, 12.000000)">
                    <path d="M10.7447699,0 L1.25523013,0 C0.56198567,0 -3.55271368e-15,0.562809868 -3.55271368e-15,1.25707102 L-3.55271368e-15,18.742929 C-3.55271368e-15,19.4371901 0.56198567,20 1.25523013,20 L10.7447699,20 C11.4380143,20 12,19.4371901 12,18.742929 L12,1.25707102 C12,0.562809868 11.4380143,0 10.7447699,0 Z M11.4979079,18.7454431 C11.4979079,19.1619998 11.1607165,19.4996857 10.7447699,19.4996857 L1.25523013,19.4996857 C0.839283452,19.4996857 0.50209205,19.1619998 0.50209205,18.7454431 L0.50209205,15.7058454 L11.4979079,15.7058454 L11.4979079,18.742929 L11.4979079,18.7454431 Z M11.4979079,15.2055311 L0.50209205,15.2055311 L0.50209205,1.25707102 C0.50209205,0.840514331 0.839283452,0.50282841 1.25523013,0.50282841 L10.7447699,0.50282841 C11.1607165,0.50282841 11.4979079,0.840514331 11.4979079,1.25707102 L11.4979079,15.203017 L11.4979079,15.2055311 Z M7.35062762,2.26465624 C7.35062762,2.40350847 7.23823048,2.51607045 7.09958159,2.51607045 L4.90292887,2.51607045 C4.76427998,2.51607045 4.65188285,2.40350847 4.65188285,2.26465624 C4.65188285,2.12580401 4.76427998,2.01324204 4.90292887,2.01324204 L7.09958159,2.01324204 C7.23823048,2.01324204 7.35062762,2.12580401 7.35062762,2.26465624 Z M6,18.7278441 C6.59203077,18.7278441 7.07196653,18.2472045 7.07196653,17.6543055 C7.07196653,17.0614064 6.59203077,16.5807668 6,16.5807668 C5.40796923,16.5807668 4.92803347,17.0614064 4.92803347,17.6543055 C4.92803347,18.2472045 5.40796923,18.7278441 6,18.7278441 Z M6,17.0835952 C6.31473298,17.0835952 6.56987448,17.3391109 6.56987448,17.6543055 C6.56987448,17.9695 6.31473298,18.2250157 6,18.2250157 C5.68526702,18.2250157 5.43012552,17.9695 5.43012552,17.6543055 C5.43012552,17.3391109 5.68526702,17.0835952 6,17.0835952 L6,17.0835952 Z" id="mobile"></path>
                </g>
            </g>
        </g>
    </g>
</svg>