<?xml version="1.0" encoding="UTF-8"?>
<svg width="14px" height="21px" viewBox="0 0 14 21" version="1.1" xmlns="http://www.w3.org/2000/svg" xmlns:xlink="http://www.w3.org/1999/xlink">
    <!-- Generator: Sketch 50.2 (55047) - http://www.bohemiancoding.com/sketch -->
    <title>mobile-icon</title>
    <desc>Created with Sketch.</desc>
    <defs></defs>
    <g id="Page-1" stroke="none" stroke-width="1" fill="none" fill-rule="evenodd">
        <g id="mobile-icon" transform="translate(1.000000, 1.000000)" fill="#637289" fill-rule="nonzero" stroke="#637289" stroke-width="0.3">
            <path d="M10.7447699,0 L1.25523013,0 C0.56198567,0 -3.55271368e-15,0.534669375 -3.55271368e-15,1.19421747 L-3.55271368e-15,17.8057825 C-3.55271368e-15,18.4653306 0.56198567,19 1.25523013,19 L10.7447699,19 C11.4380143,19 12,18.4653306 12,17.8057825 L12,1.19421747 C12,0.534669375 11.4380143,0 10.7447699,0 Z M11.4979079,17.808171 C11.4979079,18.2038998 11.1607165,18.5247014 10.7447699,18.5247014 L1.25523013,18.5247014 C0.839283452,18.5247014 0.50209205,18.2038998 0.50209205,17.808171 L0.50209205,14.9205531 L11.4979079,14.9205531 L11.4979079,17.8057825 L11.4979079,17.808171 Z M11.4979079,14.4452546 L0.50209205,14.4452546 L0.50209205,1.19421747 C0.50209205,0.798488614 0.839283452,0.477686989 1.25523013,0.477686989 L10.7447699,0.477686989 C11.1607165,0.477686989 11.4979079,0.798488614 11.4979079,1.19421747 L11.4979079,14.4428661 L11.4979079,14.4452546 Z M7.35062762,2.15142343 C7.35062762,2.28333305 7.23823048,2.39026693 7.09958159,2.39026693 L4.90292887,2.39026693 C4.76427998,2.39026693 4.65188285,2.28333305 4.65188285,2.15142343 C4.65188285,2.01951381 4.76427998,1.91257994 4.90292887,1.91257994 L7.09958159,1.91257994 C7.23823048,1.91257994 7.35062762,2.01951381 7.35062762,2.15142343 Z M6,17.7914519 C6.59203077,17.7914519 7.07196653,17.3348443 7.07196653,16.7715902 C7.07196653,16.2083361 6.59203077,15.7517285 6,15.7517285 C5.40796923,15.7517285 4.92803347,16.2083361 4.92803347,16.7715902 C4.92803347,17.3348443 5.40796923,17.7914519 6,17.7914519 Z M6,16.2294155 C6.31473298,16.2294155 6.56987448,16.4721554 6.56987448,16.7715902 C6.56987448,17.071025 6.31473298,17.3137649 6,17.3137649 C5.68526702,17.3137649 5.43012552,17.071025 5.43012552,16.7715902 C5.43012552,16.4721554 5.68526702,16.2294155 6,16.2294155 L6,16.2294155 Z" id="mobile"></path>
        </g>
    </g>
</svg>