<?xml version="1.0" encoding="UTF-8"?>
<svg width="233px" height="367px" viewBox="0 0 233 367" version="1.1" xmlns="http://www.w3.org/2000/svg" xmlns:xlink="http://www.w3.org/1999/xlink">
    <!-- Generator: Sketch 50.2 (55047) - http://www.bohemiancoding.com/sketch -->
    <title>mobile-icon</title>
    <desc>Created with Sketch.</desc>
    <defs></defs>
    <g id="Page-1" stroke="none" stroke-width="1" fill="none" fill-rule="evenodd">
        <g id="Webapp-Artboard-1" transform="translate(-771.000000, -2599.000000)" fill="#637289" fill-rule="nonzero" stroke="#637289" stroke-width="0.3">
            <g id="mobile-icon" transform="translate(772.000000, 2600.000000)">
                <path d="M206.83682,0 L24.1631799,0 C10.8182241,0 0,10.2712801 0,22.9415462 L0,342.058454 C0,354.72872 10.8182241,365 24.1631799,365 L206.83682,365 C220.181776,365 231,354.72872 231,342.058454 L231,22.9415462 C231,10.2712801 220.181776,0 206.83682,0 Z M221.334728,342.104337 C221.334728,349.706497 214.843794,355.869265 206.83682,355.869265 L24.1631799,355.869265 C16.1562065,355.869265 9.66527197,349.706497 9.66527197,342.104337 L9.66527197,286.631678 L221.334728,286.631678 L221.334728,342.058454 L221.334728,342.104337 Z M221.334728,277.500943 L9.66527197,277.500943 L9.66527197,22.9415462 C9.66527197,15.3393865 16.1562065,9.17661848 24.1631799,9.17661848 L206.83682,9.17661848 C214.843794,9.17661848 221.334728,15.3393865 221.334728,22.9415462 L221.334728,277.45506 L221.334728,277.500943 Z M141.499582,41.3299764 C141.499582,43.8640297 139.335937,45.9182857 136.666946,45.9182857 L94.3813808,45.9182857 C91.7123896,45.9182857 89.5487448,43.8640297 89.5487448,41.3299764 C89.5487448,38.7959232 91.7123896,36.7416672 94.3813808,36.7416672 L136.666946,36.7416672 C139.335937,36.7416672 141.499582,38.7959232 141.499582,41.3299764 Z M115.5,341.783155 C126.896592,341.783155 136.135356,333.011482 136.135356,322.191075 C136.135356,311.370668 126.896592,302.598994 115.5,302.598994 C104.103408,302.598994 94.8646444,311.370668 94.8646444,322.191075 C94.8646444,333.011482 104.103408,341.783155 115.5,341.783155 Z M115.5,311.775613 C121.55861,311.775613 126.470084,316.438774 126.470084,322.191075 C126.470084,327.943376 121.55861,332.606537 115.5,332.606537 C109.44139,332.606537 104.529916,327.943376 104.529916,322.191075 C104.529916,316.438774 109.44139,311.775613 115.5,311.775613 L115.5,311.775613 Z" id="mobile"></path>
            </g>
        </g>
    </g>
</svg>