<?xml version="1.0" encoding="UTF-8"?>
<svg width="342px" height="179px" viewBox="0 0 342 179" version="1.1" xmlns="http://www.w3.org/2000/svg" xmlns:xlink="http://www.w3.org/1999/xlink">
    <!-- Generator: Sketch 50.2 (55047) - http://www.bohemiancoding.com/sketch -->
    <title>name-tag-icon</title>
    <desc>Created with Sketch.</desc>
    <defs></defs>
    <g id="Page-1" stroke="none" stroke-width="1" fill="none" fill-rule="evenodd">
        <g id="Webapp-Artboard-2" transform="translate(-193.000000, -3915.000000)" fill="#D9DFE5" fill-rule="nonzero">
            <g id="name-modal" transform="translate(93.000000, 3863.000000)">
                <g id="Smiley-Name-Tag-V2-" transform="translate(276.359573, 142.649661) rotate(-347.000000) translate(-276.359573, -142.649661) translate(101.359573, 36.649661)">
                    <g id="name-tag-icon">
                        <g id="Group-2" transform="translate(99.143164, 36.364083)" stroke="#D9DFE5" stroke-width="0.5">
                            <path d="M75.4413546,52.9650822 C74.2643077,52.9602789 73.1428657,52.4840954 72.3479003,51.6515481 C71.6381633,50.9146426 71.2914583,50.0064066 71.3702112,49.0990917 L71.3702112,3.90375684 C71.3711716,1.67830226 73.1210238,0 75.4413546,0 L102.93862,0 C105.258951,0 107.008803,1.67830226 107.008803,3.90375684 L107.008803,49.0604042 C107.008803,51.2858588 105.258951,52.964161 102.93862,52.964161 L75.4413546,52.9650822 Z M102.825292,48.9526318 L102.825292,3.82269723 L75.3577997,3.82269723 L75.3577997,48.9517106 L102.825292,48.9526318 Z" id="Shape"></path>
                            <path d="M13.7931151,138.524061 C6.21787686,138.502765 0.0825039366,132.67627 0.0600792049,125.482397 L0.0600792049,53.784177 C0.0825039366,46.5903044 6.21787686,40.763809 13.7931151,40.7425132 L62.4571606,40.7425132 C63.6266574,40.7425132 64.5747218,41.6428485 64.5747218,42.7534685 C64.5741851,43.8637278 63.6262778,44.7635006 62.4571606,44.7635005 L13.7931151,44.7635005 C11.2739433,44.7635005 8.85796454,45.7139199 7.0767323,47.4056515 C5.29550006,49.097383 4.29494375,51.3918297 4.29520163,53.784177 L4.29520163,125.482397 C4.29494375,127.874744 5.29550006,130.169191 7.0767323,131.860923 C8.85796454,133.552654 11.2739433,134.503074 13.7931151,134.503074 L165.593475,134.503074 C168.112647,134.503074 170.528626,133.552654 172.309858,131.860923 C174.09109,130.169191 175.091647,127.874744 175.091389,125.482397 L175.091389,53.784177 C175.091647,51.3918297 174.09109,49.097383 172.309858,47.4056515 C170.528626,45.7139199 168.112647,44.7635005 165.593475,44.7635005 L116.92943,44.7635005 C115.760312,44.7635006 114.812405,43.8637278 114.811868,42.7534685 C114.811868,41.6428485 115.759933,40.7425132 116.92943,40.7425132 L165.593475,40.7425132 C169.223544,40.7263918 172.711572,42.0808569 175.289728,44.5077454 C177.892442,46.9554233 179.326511,50.2497707 179.326511,53.784177 L179.326511,125.482397 C179.304086,132.67627 173.168713,138.502765 165.593475,138.524061 L13.7931151,138.524061 Z" id="Shape"></path>
                            <path d="M26.2853794,75.3733854 C25.5623041,75.3728803 24.9112811,74.9061856 24.6378281,74.1923159 C24.3643751,73.4784461 24.522773,72.6591057 25.0386874,72.1188019 C25.8964439,71.2210914 26.8129983,70.3895976 27.7814098,69.6306173 C28.2942562,69.2288966 28.9691029,69.1494789 29.5517417,69.4222802 C30.1343805,69.6950814 30.5362946,70.2786566 30.6060869,70.9531785 C30.6758792,71.6277005 30.4029466,72.2906933 29.8901002,72.692414 C29.0581423,73.3445039 28.2707388,74.0588904 27.5338524,74.8301635 C27.200535,75.1787405 26.7522105,75.3738106 26.2853794,75.3733854 Z" id="Shape"></path>
                            <path d="M19.1929301,86.5775368 C18.642122,86.5782103 18.1208069,86.3276579 17.7757949,85.8964388 C17.4307829,85.4652198 17.2994028,84.8999901 17.4186533,84.3599269 C17.9620067,81.8972582 18.8609189,79.5275939 20.0868753,77.3261024 C20.5758258,76.4471805 21.6816469,76.1327551 22.5567957,76.6238137 C23.4319445,77.1148724 23.7450201,78.2254611 23.2560695,79.1043831 C22.2024944,80.9956463 21.4301485,83.0315651 20.9635768,85.1474382 C20.7801745,85.9820815 20.0439865,86.5766787 19.1929301,86.5775368 Z" id="Shape"></path>
                            <ellipse id="Oval" transform="translate(58.117958, 88.105377) rotate(-15.650000) translate(-58.117958, -88.105377) " cx="58.1179577" cy="88.105377" rx="4.07423709" ry="3.56495745"></ellipse>
                            <ellipse id="Oval" transform="translate(32.653976, 88.105377) rotate(-74.750000) translate(-32.653976, -88.105377) " cx="32.6539759" cy="88.105377" rx="4.07423709" ry="3.56495745"></ellipse>
                            <path d="M45.391319,99.8187172 C43.6389186,99.8280048 41.9561337,99.1297975 40.7203336,97.8806701 C39.4730449,96.6220735 38.7704469,94.9193113 38.7653315,93.1426783 C38.8188437,92.3123029 39.5059673,91.6672369 40.3336586,91.6703457 C41.16135,91.6734544 41.8436601,92.3236639 41.8909993,93.1544181 C41.8658699,94.4232824 42.5232197,95.6071844 43.6107129,96.2516618 C44.6982061,96.8961392 46.0468578,96.901047 47.1389632,96.2645011 C48.2310687,95.6279552 48.8969263,94.4488683 48.8809343,93.1798544 C48.9344465,92.349479 49.6215701,91.704413 50.4492614,91.7075217 C51.2769528,91.7106305 51.9592629,92.36084 52.0066021,93.1915942 C51.9647578,96.8769163 49.0103596,99.8363269 45.391319,99.8187172 Z" id="Shape"></path>
                            <path d="M44.9242715,116.115757 C30.4562181,116.114415 18.440997,105.61317 17.3807654,92.0428664 C17.3029946,91.033055 18.1103719,90.1551481 19.1840932,90.0820063 C20.2578145,90.0088646 21.1912832,90.7681854 21.269054,91.7779967 C22.212658,103.853202 33.225896,113.015986 46.0845568,112.423976 C58.9432177,111.831967 68.9521993,101.701326 68.6372259,89.5971793 C68.3222524,77.4930323 57.7983307,67.8349846 44.9242715,67.8352496 C43.8478592,67.8352496 42.9752547,67.0145841 42.9752547,66.0022419 C42.9752547,64.9898997 43.8478592,64.1692341 44.9242715,64.1692341 C60.112738,64.2540874 72.3777875,75.8578229 72.3777875,90.1424956 C72.3777875,104.427168 60.112738,116.030904 44.9242715,116.115757 Z" id="Shape"></path>
                            <rect id="Rectangle-path" x="90.7118544" y="96.7631309" width="31.5753374" height="4.07423709" rx="2.03711854"></rect>
                            <rect id="Rectangle-path" x="90.7118544" y="113.060079" width="64.1692341" height="4.07423709" rx="2.03711854"></rect>
                            <rect id="Rectangle-path" x="90.7118544" y="63.1506749" width="64.1692341" height="4.07423709" rx="2.03711854"></rect>
                            <rect id="Rectangle-path" x="90.7118544" y="79.4476232" width="31.5753374" height="4.07423709" rx="2.03711854"></rect>
                        </g>
                        <g id="HEARTS-AND-SPEECH" transform="translate(0.911188, 0.856163)">
                            <path d="M342.864598,123.461976 C342.749069,123.461976 342.614285,123.445817 342.498756,123.413497 L336.375712,121.63592 C335.97136,121.522801 335.547753,121.538961 335.201166,121.716719 C332.235918,123.057982 328.885574,123.607415 325.535229,123.300378 C317.968071,122.589348 311.922047,117.450533 311.171107,111.115894 C310.670481,107.011307 312.326399,102.987519 315.734508,100.078756 C319.142617,97.1699931 323.879312,95.6832921 328.75079,96.0226478 C336.144654,96.5397611 342.344717,101.355379 343.500008,107.496101 C344.019889,110.227106 343.557773,113.00659 342.152169,115.511358 C341.978875,115.818394 341.940365,116.12543 342.036639,116.400147 L344.019889,122.249992 C344.116164,122.605507 343.98138,122.977183 343.654047,123.219579 C343.442244,123.365018 343.153421,123.461976 342.864598,123.461976 Z" id="Shape" transform="translate(327.566817, 109.718498) scale(-1, 1) rotate(-330.000000) translate(-327.566817, -109.718498) "></path>
                            <path d="M91.4331217,206.571942 C91.3175925,206.571942 91.1828086,206.555783 91.0672794,206.523463 L84.9442357,204.745886 C84.5398837,204.632767 84.1162769,204.648927 83.7696895,204.826685 C80.8044419,206.167948 77.4540972,206.717381 74.1037525,206.410344 C66.5365947,205.699314 60.4905703,200.560499 59.739631,194.22586 C59.2390048,190.121273 60.8949223,186.097485 64.3030316,183.188722 C67.7111408,180.279959 72.447835,178.793258 77.3193133,179.132614 C84.7131774,179.649727 90.9132406,184.465345 92.0685319,190.606067 C92.5884129,193.337072 92.1262964,196.116556 90.7206921,198.621324 C90.5473984,198.92836 90.5088887,199.235396 90.6051629,199.510113 L92.5884129,205.359958 C92.6846872,205.715473 92.5499032,206.087149 92.2225707,206.329545 C92.0107673,206.474984 91.7219445,206.571942 91.4331217,206.571942 Z" id="Shape" transform="translate(76.135341, 192.828464) rotate(-14.000000) translate(-76.135341, -192.828464) "></path>
                            <path d="M20.5177656,175.235455 C20.4162627,175.168831 20.2613017,175.066071 20.071153,174.948632 C19.6150669,174.66068 19.2672504,174.45629 19.1671009,174.395312 C18.5046256,173.99105 17.819143,173.572672 17.1492242,173.146955 C13.539106,170.854629 10.811386,168.765 8.56478951,166.571482 C6.31819301,164.377963 4.87346905,162.386576 4.0438524,160.329694 C2.74123244,157.099548 2.99634294,154.096941 4.80241706,151.40487 C6.1483449,149.398239 8.15336461,148.13012 10.6022901,147.734891 C14.4871427,147.113818 17.6607986,147.929118 20.034612,150.162724 C20.2004,150.318557 20.366188,150.472131 20.5373895,150.629658 C20.7891165,150.403813 21.0361068,150.177968 21.2817437,149.952123 C23.3233045,148.118263 26.0185436,147.32216 29.2869355,147.585834 C33.2198327,147.908227 35.8988314,149.814923 37.2515261,153.258492 C38.2516675,155.802634 38.0432483,158.490188 36.6323587,161.24606 C35.5726689,163.316493 33.987871,165.271744 31.6445084,167.400332 C28.5182205,170.240331 24.7565248,172.616219 21.0381369,174.915884 C20.8168607,175.05252 20.6348322,175.163749 20.5177656,175.235455 Z" id="Shape" transform="translate(20.549548, 161.384377) rotate(-345.000000) translate(-20.549548, -161.384377) "></path>
                            <path d="M64.4272035,120.223006 C64.3116743,120.223006 64.1768903,120.206846 64.0613612,120.174526 L57.9383175,118.396949 C57.5339655,118.28383 57.1103587,118.29999 56.7637713,118.477748 C53.7985237,119.819011 50.448179,120.368444 47.0978343,120.061408 C39.5306765,119.350377 33.4846521,114.211563 32.7337128,107.876924 C32.2330866,103.772336 33.8890041,99.7485478 37.2971133,96.839785 C40.7052226,93.9310223 45.4419168,92.4443213 50.313395,92.783677 C57.7072592,93.3007903 63.9073224,98.1164087 65.0626137,104.25713 C65.5824947,106.988135 65.1203782,109.767619 63.7147738,112.272387 C63.5414801,112.579423 63.5029704,112.88646 63.5992447,113.161176 L65.5824947,119.011021 C65.678769,119.366537 65.543985,119.738212 65.2166525,119.980609 C65.0048491,120.126047 64.7160263,120.223006 64.4272035,120.223006 Z" id="Shape"></path>
                            <path d="M307.714836,65.0022314 C307.613333,64.9356071 307.458372,64.8328477 307.268224,64.7154084 C306.812137,64.4274562 306.464321,64.2230666 306.364171,64.1620885 C305.701696,63.7578262 305.016214,63.3394486 304.346295,62.9137311 C300.736177,60.6214058 298.008457,58.5317763 295.76186,56.3382581 C293.515264,54.14474 292.07054,52.153353 291.240923,50.0964709 C289.938303,46.8663249 290.193413,43.8637176 291.999488,41.1716469 C293.345415,39.1650154 295.350435,37.8968965 297.799361,37.501668 C301.684213,36.8805947 304.857869,37.6958946 307.231683,39.9295002 C307.397471,40.0853332 307.563259,40.2389077 307.73446,40.3964344 C307.986187,40.1705896 308.233177,39.9447447 308.478814,39.7188999 C310.520375,37.8850397 313.215614,37.0889365 316.484006,37.3526104 C320.416903,37.6750039 323.095902,39.5816991 324.448597,43.0252686 C325.448738,45.5694108 325.240319,48.2569646 323.829429,51.0128364 C322.769739,53.0832692 321.184942,55.038521 318.841579,57.1671087 C315.715291,60.0071078 311.953595,62.3829957 308.235207,64.6826609 C308.013931,64.819297 307.831903,64.9305256 307.714836,65.0022314 Z" id="Shape" transform="translate(307.746619, 51.151154) rotate(-15.000000) translate(-307.746619, -51.151154) "></path>
                            <path d="M81.0332136,64.507835 C80.9317108,64.4412107 80.7767498,64.3384513 80.5866011,64.221012 C80.1305149,63.9330598 79.7826985,63.7286702 79.682549,63.6676921 C79.0200737,63.2634298 78.3345911,62.8450522 77.6646723,62.4193347 C74.0545541,60.1270094 71.3268341,58.0373799 69.0802376,55.8438617 C66.8336411,53.6503436 65.3889171,51.6589566 64.5593005,49.6020746 C63.2566805,46.3719285 63.511791,43.3693212 65.3178651,40.6772505 C66.663793,38.670619 68.6688127,37.4025001 71.1177382,37.0072716 C75.0025907,36.3861983 78.1762466,37.2014982 80.55006,39.4351038 C80.715848,39.5909368 80.881636,39.7445113 81.0528375,39.9020381 C81.3045646,39.6761932 81.5515549,39.4503484 81.7971918,39.2245035 C83.8387525,37.3906433 86.5339916,36.5945402 89.8023835,36.858214 C93.7352808,37.1806076 96.4142794,39.0873027 97.7669741,42.5308722 C98.7671156,45.0750145 98.5586964,47.7625682 97.1478067,50.5184401 C96.0881169,52.5888728 94.503319,54.5441246 92.1599565,56.6727124 C89.0336686,59.5127114 85.2719728,61.8885993 81.5535849,64.1882645 C81.3323087,64.3249006 81.1502803,64.4361292 81.0332136,64.507835 Z" id="Shape" transform="translate(81.064997, 50.656757) rotate(-30.000000) translate(-81.064997, -50.656757) "></path>
                            <path d="M263.985238,31.8420983 C263.869709,31.8420983 263.734925,31.8259385 263.619396,31.7936189 L257.496352,30.0160417 C257.092,29.9029231 256.668393,29.9190829 256.321806,30.0968406 C253.356558,31.4381035 250.006214,31.9875364 246.655869,31.6805003 C239.088711,30.9694695 233.042687,25.8306553 232.291747,19.4960164 C231.791121,15.3914289 233.447039,11.3676405 236.855148,8.45887771 C240.263257,5.55011496 244.999951,4.063414 249.87143,4.40276965 C257.265294,4.91988303 263.465357,9.73550136 264.620648,15.8762227 C265.140529,18.6072278 264.678413,21.3867122 263.272808,23.8914801 C263.099515,24.1985162 263.061005,24.5055522 263.157279,24.7802687 L265.140529,30.6301138 C265.236804,30.9856292 265.10202,31.3573045 264.774687,31.5997014 C264.562884,31.7451395 264.274061,31.8420983 263.985238,31.8420983 Z" id="Shape" transform="translate(248.687457, 18.098620) rotate(-14.000000) translate(-248.687457, -18.098620) "></path>
                        </g>
                    </g>
                </g>
            </g>
        </g>
    </g>
</svg>