<?xml version="1.0" encoding="UTF-8"?>
<svg width="180px" height="216px" viewBox="0 0 180 216" version="1.1" xmlns="http://www.w3.org/2000/svg" xmlns:xlink="http://www.w3.org/1999/xlink">
    <!-- Generator: Sketch 50.2 (55047) - http://www.bohemiancoding.com/sketch -->
    <title>password-icon</title>
    <desc>Created with Sketch.</desc>
    <defs></defs>
    <g id="Page-1" stroke="none" stroke-width="1" fill="none" fill-rule="evenodd">
        <g id="Webapp-Artboard-1" transform="translate(-821.000000, -2664.000000)" fill="#69788E">
            <g id="password-icon" transform="translate(821.000000, 2664.000000)">
                <path d="M152.307692,81 C159.951961,81 166.478338,83.6366924 171.887019,88.9101562 C177.2957,94.1836201 180,100.546838 180,108 L180,189 C180,196.453162 177.2957,202.81638 171.887019,208.089844 C166.478338,213.363308 159.951961,216 152.307692,216 L27.6923077,216 C20.0480387,216 13.5216617,213.363308 8.11298077,208.089844 C2.70429988,202.81638 0,196.453162 0,189 L0,108 C0,100.546838 2.70429988,94.1836201 8.11298077,88.9101562 C13.5216617,83.6366924 20.0480387,81 27.6923077,81 L34.6153846,81 L34.6153846,55.265625 C34.6153846,47.671837 35.9495059,40.5000337 38.6177885,33.75 C41.286071,26.9999662 45.0360335,21.1289312 49.8677885,16.1367187 C54.6995434,11.1445063 60.5047738,7.20704566 67.2836538,4.32421875 C74.0625339,1.44139184 81.5624589,0 89.7836538,0 C97.8606173,0 105.324485,1.44139184 112.175481,4.32421875 C119.026477,7.20704566 124.903822,11.1093504 129.807692,16.03125 C134.711563,20.9531496 138.53364,26.7890287 141.274038,33.5390625 C144.014437,40.2890962 145.384615,47.5312113 145.384615,55.265625 L145.384615,81 L152.307692,81 Z M48.4615385,55.265625 L48.4615385,81 L131.538462,81 L131.538462,55.265625 C131.538462,43.5936916 127.680327,33.7148842 119.963942,25.6289062 C112.247558,17.5429283 102.187562,13.5 89.7836538,13.5 C77.2355142,13.5 67.211576,17.5780842 59.7115385,25.734375 C52.211501,33.8906658 48.4615385,43.7343173 48.4615385,55.265625 Z M166.153846,189 L166.153846,108 C166.153846,104.343732 164.783668,101.179701 162.043269,98.5078125 C159.302871,95.8359241 156.057711,94.5 152.307692,94.5 L27.6923077,94.5 C23.9422889,94.5 20.6971291,95.8359241 17.9567308,98.5078125 C15.2163325,101.179701 13.8461538,104.343732 13.8461538,108 L13.8461538,189 C13.8461538,192.656268 15.2163325,195.820299 17.9567308,198.492187 C20.6971291,201.164076 23.9422889,202.5 27.6923077,202.5 L152.307692,202.5 C156.057711,202.5 159.302871,201.164076 162.043269,198.492187 C164.783668,195.820299 166.153846,192.656268 166.153846,189 Z M90,121.5 C93.8942502,121.5 97.1754674,122.800768 99.84375,125.402344 C102.512033,128.003919 103.846154,131.203106 103.846154,135 C103.846154,137.531263 103.197122,139.816396 101.899038,141.855469 C100.600955,143.894541 98.9423178,145.476557 96.9230769,146.601562 L96.9230769,168.75 C96.9230769,170.578134 96.2379876,172.16015 94.8677885,173.496094 C93.4975893,174.832038 91.8750094,175.5 90,175.5 C88.1249906,175.5 86.5024107,174.832038 85.1322115,173.496094 C83.7620124,172.16015 83.0769231,170.578134 83.0769231,168.75 L83.0769231,146.601562 C81.0576822,145.476557 79.399045,143.894541 78.1009615,141.855469 C76.8028781,139.816396 76.1538462,137.531263 76.1538462,135 C76.1538462,131.203106 77.4879674,128.003919 80.15625,125.402344 C82.8245326,122.800768 86.1057498,121.5 90,121.5 Z" id=""></path>
            </g>
        </g>
    </g>
</svg>