<?xml version="1.0" encoding="UTF-8"?>
<svg width="17px" height="16px" viewBox="0 0 17 16" version="1.1" xmlns="http://www.w3.org/2000/svg" xmlns:xlink="http://www.w3.org/1999/xlink">
    <!-- Generator: Sketch 50.2 (55047) - http://www.bohemiancoding.com/sketch -->
    <title>reply</title>
    <desc>Created with Sketch.</desc>
    <defs></defs>
    <g id="Page-1" stroke="none" stroke-width="1" fill="none" fill-rule="evenodd">
        <g id="Webapp-Artboard-1" transform="translate(-169.000000, -1065.000000)" fill="#6D7C99" fill-rule="nonzero">
            <g id="Group" transform="translate(101.000000, 1061.000000)">
                <g id="reply" transform="translate(68.000000, 4.000000)">
                    <path d="M16.3885562,16 C16.3289816,16 16.259478,15.9905935 16.1999035,15.9717804 L16.1999035,15.9717804 L13.0424537,14.9370629 C12.8339429,14.8712173 12.615503,14.8806238 12.4367794,14.9840955 C10.9076999,15.7648369 9.18003873,16.0846587 7.45237753,15.9059348 C3.5502462,15.4920478 0.432512764,12.5007736 0.0452783572,8.81341665 C-0.212877914,6.42415989 0.641023599,4.08193573 2.39847206,2.38876165 C4.15592052,0.69558756 6.59847601,-0.169812528 9.11053512,0.0277244484 C12.9233047,0.328733175 16.1204708,3.13187694 16.716216,6.70635557 C16.9843014,8.29605791 16.7460033,9.91397981 16.0211799,11.3719908 C15.9318181,11.5507148 15.91196,11.7294387 15.9616054,11.8893496 L15.9616054,11.8987561 L16.9843014,15.2945108 C17.0339468,15.5014543 16.9644432,15.7178043 16.7956487,15.8589022 C16.6864288,15.9435609 16.5374925,16 16.3885562,16 Z M8.415499,0.836685401 C6.38996518,0.836685401 4.46372223,1.59861374 3.03393365,2.97196605 C1.46513785,4.48641621 0.690669036,6.58407077 0.919038045,8.7099449 C1.2665561,12.0116344 4.04670056,14.6736803 7.53181023,15.0499412 C9.08074785,15.2098521 10.6197564,14.9276564 11.9899705,14.2315737 C12.3772049,14.0246302 12.8736592,13.9775976 13.3204682,14.128102 L15.9715345,14.9935021 L15.1077039,12.1151061 C14.9885548,11.7576583 15.0282712,11.3531778 15.2169238,10.9957299 C15.8623145,9.69762979 16.0708254,8.24902529 15.8325273,6.82864036 C15.2963565,3.63982917 12.4467085,1.1282876 9.04103151,0.864904969 C8.83252067,0.846091924 8.62400984,0.836685401 8.415499,0.836685401 Z" id="Shape"></path>
                </g>
            </g>
        </g>
    </g>
</svg>