<?xml version="1.0" encoding="UTF-8"?>
<svg width="39px" height="39px" viewBox="0 0 39 39" version="1.1" xmlns="http://www.w3.org/2000/svg" xmlns:xlink="http://www.w3.org/1999/xlink">
    <!-- Generator: Sketch 50.2 (55047) - http://www.bohemiancoding.com/sketch -->
    <title>Group 2</title>
    <desc>Created with Sketch.</desc>
    <defs></defs>
    <g id="Page-1" stroke="none" stroke-width="1" fill="none" fill-rule="evenodd">
        <g id="Webapp-Artboard-1" transform="translate(-243.000000, -594.000000)">
            <g id="sharepost-" transform="translate(101.000000, 590.000000)">
                <g id="share-post">
                    <g id="Group-2" transform="translate(142.000000, 4.000000)">
                        <rect id="Rectangle" stroke="#CFCFCF" fill="#FFFFFF" x="0.5" y="0.5" width="38" height="38" rx="10"></rect>
                        <path d="M24.3055556,8 C22.2714208,8 20.6111111,9.64782599 20.6111111,11.6666662 C20.6111111,12.0479131 20.6662903,12.4172066 20.7760417,12.7633923 L15.1189236,16.2418145 C14.4690708,15.6786643 13.6210375,15.3333325 12.6944444,15.3333325 C10.6603097,15.3333325 9,16.9811585 9,19.0000013 C9,21.0188415 10.6603097,22.6666675 12.6944444,22.6666675 C13.6204306,22.6666675 14.4692292,22.3206914 15.1189236,21.7581724 L20.784275,25.2284101 C20.6724653,25.5775291 20.6111111,25.9483862 20.6111111,26.3333338 C20.6111111,28.352174 22.2714208,30 24.3055556,30 C26.3396903,30 28,28.352174 28,26.3333338 C28,24.3144935 26.3396903,22.6666675 24.3055556,22.6666675 C23.0342181,22.6666675 21.9112917,23.3115556 21.2460806,24.2872031 L15.8116319,20.9642868 C16.1772764,20.3957178 16.3888889,19.7217584 16.3888889,19.0000013 C16.3888889,18.2767043 16.1704417,17.6050443 15.8033722,17.0357132 L21.2460806,13.7127969 C21.9112917,14.6884392 23.0342181,15.3333325 24.3055556,15.3333325 C26.3396903,15.3333325 28,13.6855065 28,11.6666662 C28,9.64782599 26.3396903,8 24.3055556,8 Z M24.3055556,9.04761892 C25.7692153,9.04761892 26.9444444,10.2140012 26.9444444,11.6666662 C26.9444444,13.1193313 25.7692153,14.2857135 24.3055556,14.2857135 C22.8418958,14.2857135 21.6666667,13.1193313 21.6666667,11.6666662 C21.6666667,10.2140012 22.8418958,9.04761892 24.3055556,9.04761892 Z M12.6944444,16.3809514 C14.1581042,16.3809514 15.3333333,17.5473336 15.3333333,19.0000013 C15.3333333,20.4526559 14.1581042,21.6190486 12.6944444,21.6190486 C11.2307847,21.6190486 10.0555556,20.4526559 10.0555556,19.0000013 C10.0555556,17.5473336 11.2307847,16.3809514 12.6944444,16.3809514 Z M24.3055556,23.7142865 C25.7692153,23.7142865 26.9444444,24.880653 26.9444444,26.3333338 C26.9444444,27.7859884 25.7692153,28.9523811 24.3055556,28.9523811 C22.8418958,28.9523811 21.6666667,27.7859884 21.6666667,26.3333338 C21.6666667,24.880653 22.8418958,23.7142865 24.3055556,23.7142865 Z" id="shareIcon" stroke="#106DE0" stroke-width="0.5" fill="#106DE0" fill-rule="nonzero"></path>
                    </g>
                </g>
            </g>
        </g>
    </g>
</svg>