<?xml version="1.0" encoding="UTF-8"?>
<svg width="33px" height="33px" viewBox="0 0 33 33" version="1.1" xmlns="http://www.w3.org/2000/svg" xmlns:xlink="http://www.w3.org/1999/xlink">
    <!-- Generator: Sketch 50.2 (55047) - http://www.bohemiancoding.com/sketch -->
    <title>Group 2 Copy</title>
    <desc>Created with Sketch.</desc>
    <defs></defs>
    <g id="Page-1" stroke="none" stroke-width="1" fill="none" fill-rule="evenodd">
        <g id="Webapp-Artboard-1" transform="translate(-406.000000, -605.000000)">
            <g id="sharepost-" transform="translate(101.000000, 590.000000)">
                <g id="share-post">
                    <g id="Group-2-Copy" transform="translate(305.000000, 15.000000)">
                        <rect id="Rectangle" stroke="#CFCFCF" fill="#FFFFFF" x="0.5" y="0.5" width="32" height="32" rx="10"></rect>
                        <path d="M20.8888889,7 C19.1759333,7 17.7777778,8.42312245 17.7777778,10.1666663 C17.7777778,10.4959249 17.8242444,10.8148603 17.9166667,11.1138388 L13.1527778,14.1179307 C12.6055333,13.6315737 11.8914,13.3333326 11.1111111,13.3333326 C9.39815556,13.3333326 8,14.756455 8,16.5000011 C8,18.243545 9.39815556,19.6666674 11.1111111,19.6666674 C11.8908889,19.6666674 12.6056667,19.3678698 13.1527778,18.882058 L17.9236,21.8790814 C17.8294444,22.1805933 17.7777778,22.500879 17.7777778,22.8333337 C17.7777778,24.5768776 19.1759333,26 20.8888889,26 C22.6018444,26 24,24.5768776 24,22.8333337 C24,21.0897899 22.6018444,19.6666674 20.8888889,19.6666674 C19.8182889,19.6666674 18.8726667,20.2236162 18.3124889,21.0662208 L13.7361111,18.1964295 C14.0440222,17.7053927 14.2222222,17.1233368 14.2222222,16.5000011 C14.2222222,15.8753355 14.0382667,15.2952656 13.7291556,14.8035705 L18.3124889,11.9337792 C18.8726667,12.7763793 19.8182889,13.3333326 20.8888889,13.3333326 C22.6018444,13.3333326 24,11.9102101 24,10.1666663 C24,8.42312245 22.6018444,7 20.8888889,7 Z M20.8888889,7.9047618 C22.1214444,7.9047618 23.1111111,8.91209192 23.1111111,10.1666663 C23.1111111,11.4212407 22.1214444,12.4285708 20.8888889,12.4285708 C19.6563333,12.4285708 18.6666667,11.4212407 18.6666667,10.1666663 C18.6666667,8.91209192 19.6563333,7.9047618 20.8888889,7.9047618 Z M11.1111111,14.2380944 C12.3436667,14.2380944 13.3333333,15.2454245 13.3333333,16.5000011 C13.3333333,17.7545665 12.3436667,18.7619056 11.1111111,18.7619056 C9.87855556,18.7619056 8.88888889,17.7545665 8.88888889,16.5000011 C8.88888889,15.2454245 9.87855556,14.2380944 11.1111111,14.2380944 Z M20.8888889,20.5714292 C22.1214444,20.5714292 23.1111111,21.5787458 23.1111111,22.8333337 C23.1111111,24.087899 22.1214444,25.0952382 20.8888889,25.0952382 C19.6563333,25.0952382 18.6666667,24.087899 18.6666667,22.8333337 C18.6666667,21.5787458 19.6563333,20.5714292 20.8888889,20.5714292 Z" id="shareIcon" stroke="#106DE0" stroke-width="0.5" fill="#106DE0" fill-rule="nonzero"></path>
                    </g>
                </g>
            </g>
        </g>
    </g>
</svg>