<?xml version="1.0" encoding="UTF-8"?>
<svg width="26px" height="20px" viewBox="0 0 26 20" version="1.1" xmlns="http://www.w3.org/2000/svg" xmlns:xlink="http://www.w3.org/1999/xlink">
    <!-- Generator: Sketch 50.2 (55047) - http://www.bohemiancoding.com/sketch -->
    <title>Username-icon</title>
    <desc>Created with Sketch.</desc>
    <defs></defs>
    <g id="Page-1" stroke="none" stroke-width="1" fill="none" fill-rule="evenodd">
        <g id="Webapp-Artboard-1" transform="translate(-334.000000, -2697.000000)" fill="#69788E" fill-rule="nonzero" stroke="#69788E" stroke-width="0.4">
            <g id="Username-icon" transform="translate(335.000000, 2697.000000)">
                <path d="M21.5064935,0.746753247 L2.49350649,0.746753247 C1.11638088,0.746753247 0,1.86313413 0,3.24025974 L0,16.6428571 C0,18.0199828 1.11638088,19.1363636 2.49350649,19.1363636 L21.5064935,19.1363636 C22.8836191,19.1363636 24,18.0199828 24,16.6428571 L24,3.24025974 C24,1.86313413 22.8836191,0.746753247 21.5064935,0.746753247 Z M19.7516883,18.512987 L13.1314286,18.512987 L13.1314286,17.4220779 C13.1314286,15.5939437 14.6134242,14.1119481 16.4415584,14.1119481 C18.2696927,14.1119481 19.7516883,15.5939437 19.7516883,17.4220779 L19.7516883,18.512987 Z M16.4415584,13.4885714 C15.5424233,13.4885705 14.7318819,12.9467775 14.3880897,12.1159641 C14.0442974,11.2851507 14.2350032,10.3290396 14.8712337,9.69370136 C15.5074643,9.05836314 16.4638421,8.86899948 17.2941722,9.21395742 C18.1245022,9.55891535 18.6651572,10.3702164 18.6638961,11.2693506 C18.6621764,12.4954965 17.6677055,13.4885726 16.4415584,13.4885714 Z M23.3766234,16.6428571 C23.3766234,17.6757014 22.5393377,18.512987 21.5064935,18.512987 L20.3750649,18.512987 L20.3750649,17.4220779 C20.3725507,15.7869226 19.3587009,14.3238516 17.8285714,13.7472727 C18.9592184,13.1152189 19.5203627,11.7993458 19.1937859,10.5458697 C18.8672092,9.29239366 17.7353203,8.41761819 16.44,8.41761819 C15.1446797,8.41761819 14.0127908,9.29239366 13.6862141,10.5458697 C13.3596373,11.7993458 13.9207816,13.1152189 15.0514286,13.7472727 C13.523102,14.3256062 12.5109686,15.7879901 12.5080519,17.4220779 L12.5080519,18.512987 L2.49350649,18.512987 C1.46066229,18.512987 0.623376623,17.6757014 0.623376623,16.6428571 L0.623376623,3.24025974 C0.623376623,2.20741553 1.46066229,1.37012987 2.49350649,1.37012987 L21.5064935,1.37012987 C22.5393377,1.37012987 23.3766234,2.20741553 23.3766234,3.24025974 L23.3766234,16.6428571 Z M15.6623377,5.30675325 C15.6623377,5.47889395 15.5227901,5.61844156 15.3506494,5.61844156 L8.68987013,5.61844156 C8.51772943,5.61844156 8.37818182,5.47889395 8.37818182,5.30675325 C8.37818182,5.13461255 8.51772943,4.99506494 8.68987013,4.99506494 L15.3506494,4.99506494 C15.5227901,4.99506494 15.6623377,5.13461255 15.6623377,5.30675325 Z M9.27272727,10.3716883 C9.27272727,10.543829 9.13317966,10.6833766 8.96103896,10.6833766 L2.96103896,10.6833766 C2.78889826,10.6833766 2.64935065,10.543829 2.64935065,10.3716883 C2.64935065,10.1995476 2.78889826,10.06 2.96103896,10.06 L8.96103896,10.06 C9.13317966,10.06 9.27272727,10.1995476 9.27272727,10.3716883 Z M9.27272727,13.2548052 C9.27272727,13.4269459 9.13317966,13.5664935 8.96103896,13.5664935 L2.96103896,13.5664935 C2.78889826,13.5664935 2.64935065,13.4269459 2.64935065,13.2548052 C2.64935065,13.0826645 2.78889826,12.9431169 2.96103896,12.9431169 L8.96103896,12.9431169 C9.13317966,12.9431169 9.27272727,13.0826645 9.27272727,13.2548052 Z" id="Shape"></path>
            </g>
        </g>
    </g>
</svg>