<?xml version="1.0" encoding="UTF-8"?>
<svg width="26px" height="20px" viewBox="0 0 26 20" version="1.1" xmlns="http://www.w3.org/2000/svg" xmlns:xlink="http://www.w3.org/1999/xlink">
    <!-- Generator: Sketch 50.2 (55047) - http://www.bohemiancoding.com/sketch -->
    <title>username-icon</title>
    <desc>Created with Sketch.</desc>
    <defs></defs>
    <g id="Page-1" stroke="none" stroke-width="1" fill="none" fill-rule="evenodd">
        <g id="Webapp-Artboard-1" transform="translate(-102.000000, -1844.000000)" fill="#69788E" fill-rule="nonzero" stroke="#69788E" stroke-width="0.4">
            <g id="Form" transform="translate(102.000000, 1836.000000)">
                <g id="Email" transform="translate(1.000000, 0.000000)">
                    <g id="employee-id">
                        <path d="M21.5064935,8.74675325 L2.49350649,8.74675325 C1.11638088,8.74675325 0,9.86313413 0,11.2402597 L0,24.6428571 C0,26.0199828 1.11638088,27.1363636 2.49350649,27.1363636 L21.5064935,27.1363636 C22.8836191,27.1363636 24,26.0199828 24,24.6428571 L24,11.2402597 C24,9.86313413 22.8836191,8.74675325 21.5064935,8.74675325 Z M19.7516883,26.512987 L13.1314286,26.512987 L13.1314286,25.4220779 C13.1314286,23.5939437 14.6134242,22.1119481 16.4415584,22.1119481 C18.2696927,22.1119481 19.7516883,23.5939437 19.7516883,25.4220779 L19.7516883,26.512987 Z M16.4415584,21.4885714 C15.5424233,21.4885705 14.7318819,20.9467775 14.3880897,20.1159641 C14.0442974,19.2851507 14.2350032,18.3290396 14.8712337,17.6937014 C15.5074643,17.0583631 16.4638421,16.8689995 17.2941722,17.2139574 C18.1245022,17.5589153 18.6651572,18.3702164 18.6638961,19.2693506 C18.6621764,20.4954965 17.6677055,21.4885726 16.4415584,21.4885714 Z M23.3766234,24.6428571 C23.3766234,25.6757014 22.5393377,26.512987 21.5064935,26.512987 L20.3750649,26.512987 L20.3750649,25.4220779 C20.3725507,23.7869226 19.3587009,22.3238516 17.8285714,21.7472727 C18.9592184,21.1152189 19.5203627,19.7993458 19.1937859,18.5458697 C18.8672092,17.2923937 17.7353203,16.4176182 16.44,16.4176182 C15.1446797,16.4176182 14.0127908,17.2923937 13.6862141,18.5458697 C13.3596373,19.7993458 13.9207816,21.1152189 15.0514286,21.7472727 C13.523102,22.3256062 12.5109686,23.7879901 12.5080519,25.4220779 L12.5080519,26.512987 L2.49350649,26.512987 C1.46066229,26.512987 0.623376623,25.6757014 0.623376623,24.6428571 L0.623376623,11.2402597 C0.623376623,10.2074155 1.46066229,9.37012987 2.49350649,9.37012987 L21.5064935,9.37012987 C22.5393377,9.37012987 23.3766234,10.2074155 23.3766234,11.2402597 L23.3766234,24.6428571 Z M15.6623377,13.3067532 C15.6623377,13.4788939 15.5227901,13.6184416 15.3506494,13.6184416 L8.68987013,13.6184416 C8.51772943,13.6184416 8.37818182,13.4788939 8.37818182,13.3067532 C8.37818182,13.1346125 8.51772943,12.9950649 8.68987013,12.9950649 L15.3506494,12.9950649 C15.5227901,12.9950649 15.6623377,13.1346125 15.6623377,13.3067532 Z M9.27272727,18.3716883 C9.27272727,18.543829 9.13317966,18.6833766 8.96103896,18.6833766 L2.96103896,18.6833766 C2.78889826,18.6833766 2.64935065,18.543829 2.64935065,18.3716883 C2.64935065,18.1995476 2.78889826,18.06 2.96103896,18.06 L8.96103896,18.06 C9.13317966,18.06 9.27272727,18.1995476 9.27272727,18.3716883 Z M9.27272727,21.2548052 C9.27272727,21.4269459 9.13317966,21.5664935 8.96103896,21.5664935 L2.96103896,21.5664935 C2.78889826,21.5664935 2.64935065,21.4269459 2.64935065,21.2548052 C2.64935065,21.0826645 2.78889826,20.9431169 2.96103896,20.9431169 L8.96103896,20.9431169 C9.13317966,20.9431169 9.27272727,21.0826645 9.27272727,21.2548052 Z" id="username-icon"></path>
                    </g>
                </g>
            </g>
        </g>
    </g>
</svg>