<?xml version="1.0" encoding="UTF-8"?>
<svg width="581px" height="493px" viewBox="0 0 581 493" version="1.1" xmlns="http://www.w3.org/2000/svg" xmlns:xlink="http://www.w3.org/1999/xlink">
    <!-- Generator: Sketch 50.2 (55047) - http://www.bohemiancoding.com/sketch -->
    <title>verify-email-modal</title>
    <desc>Created with Sketch.</desc>
    <defs>
        <rect id="path-1" x="0" y="0" width="553" height="465" rx="8"></rect>
        <filter x="-3.9%" y="-4.4%" width="107.8%" height="109.2%" filterUnits="objectBoundingBox" id="filter-3">
            <feMorphology radius="2" operator="dilate" in="SourceAlpha" result="shadowSpreadOuter1"></feMorphology>
            <feOffset dx="0" dy="1" in="shadowSpreadOuter1" result="shadowOffsetOuter1"></feOffset>
            <feGaussianBlur stdDeviation="5" in="shadowOffsetOuter1" result="shadowBlurOuter1"></feGaussianBlur>
            <feColorMatrix values="0 0 0 0 0   0 0 0 0 0   0 0 0 0 0  0 0 0 0.129925272 0" type="matrix" in="shadowBlurOuter1"></feColorMatrix>
        </filter>
    </defs>
    <g id="Page-1" stroke="none" stroke-width="1" fill="none" fill-rule="evenodd">
        <g id="Webapp-Artboard-2" transform="translate(-78.000000, -4353.000000)">
            <g id="verify-email-modal" transform="translate(92.000000, 4366.000000)">
                <g id="liked-by">
                    <mask id="mask-2" fill="white">
                        <use xlink:href="#path-1"></use>
                    </mask>
                    <g id="Rectangle-14">
                        <use fill="black" fill-opacity="1" filter="url(#filter-3)" xlink:href="#path-1"></use>
                        <use fill="#FFFFFF" fill-rule="evenodd" xlink:href="#path-1"></use>
                    </g>
                    <g id="edit-btn-white-+-text" mask="url(#mask-2)" fill="#76859B" stroke="#76859B" stroke-width="0.2">
                        <g transform="translate(515.000000, 15.000000)" id="Combined-Shape">
                            <path d="M10.7760994,10.9684876 L10.7760994,3.86396103 L10.8760994,3.76396103 L12.1270462,3.76396103 L12.2270462,3.86396103 L12.2270462,10.9684876 L19.3315727,10.9684876 L19.4315727,11.0684876 L19.4315727,12.3194343 L19.3315727,12.4194343 L12.2270462,12.4194343 L12.2270462,19.5239609 L12.1270462,19.6239609 L10.8760994,19.6239609 L10.7760994,19.5239609 L10.7760994,12.4194343 L3.67157288,12.4194343 L3.57157288,12.3194343 L3.57157288,11.0684876 L3.67157288,10.9684876 L10.7760994,10.9684876 Z" transform="translate(11.501573, 11.693961) rotate(-45.000000) translate(-11.501573, -11.693961) "></path>
                        </g>
                    </g>
                </g>
                <text id="To-verify-your-email" font-family="Lato-Regular, Lato" font-size="17" font-weight="normal" line-spacing="23" fill="#1A2D4C">
                    <tspan x="70.97425" y="263">To verify your email address tap the link in the email we </tspan>
                    <tspan x="223.001" y="286">have sent you. </tspan>
                </text>
                <text id="Resend-verification" font-family="Lato-Regular, Lato" font-size="15" font-weight="normal" line-spacing="45" fill="#106DE0">
                    <tspan x="194.54" y="406">Resend verification email</tspan>
                </text>
                <g id="downloads-file-icons_Email" transform="translate(161.000000, 63.000000)" fill-rule="nonzero">
                    <path d="M208.385892,50 L192.614108,50 C191.13278,50 190,48.9166667 190,47.5 C190,46.0833333 191.13278,45 192.614108,45 L208.385892,45 C209.86722,45 211,46.0833333 211,47.5 C211,48.9166667 209.86722,50 208.385892,50 Z" id="Shape" fill="#D9DFE5"></path>
                    <path d="M227.457627,61 L187.542373,61 C186.101695,61 185,59.9166667 185,58.5 C185,57.0833333 186.101695,56 187.542373,56 L227.457627,56 C228.898305,56 230,57.0833333 230,58.5 C230,59.9166667 228.898305,61 227.457627,61 Z" id="Shape" fill="#D9DFE5"></path>
                    <path d="M234.432886,73 L188.567114,73 C187.112416,73 186,71.9166667 186,70.5 C186,69.0833333 187.112416,68 188.567114,68 L234.432886,68 C235.887584,68 237,69.0833333 237,70.5 C237,71.9166667 235.802013,73 234.432886,73 Z" id="Shape" fill="#D9DFE5"></path>
                    <path d="M217.460815,38 L195.539185,38 C194.100313,38 193,36.9166667 193,35.5 C193,34.0833333 194.100313,33 195.539185,33 L217.460815,33 C218.899687,33 220,34.0833333 220,35.5 C220,36.9166667 218.899687,38 217.460815,38 Z" id="Shape" fill="#D9DFE5"></path>
                    <path d="M42.4576271,54 L2.54237288,54 C1.10169492,54 0,52.9166667 0,51.5 C0,50.0833333 1.10169492,49 2.54237288,49 L42.4576271,49 C43.8983051,49 45,50.0833333 45,51.5 C45,52.9166667 43.8983051,54 42.4576271,54 Z" id="Shape" fill="#D9DFE5"></path>
                    <path d="M48.4774775,65 L25.5225225,65 C24.0930931,65 23,63.9166667 23,62.5 C23,61.0833333 24.0930931,60 25.5225225,60 L48.4774775,60 C49.9069069,60 51,61.0833333 51,62.5 C51,63.9166667 49.8228228,65 48.4774775,65 Z" id="Shape" fill="#D9DFE5"></path>
                    <path d="M44.4647887,77 L13.5352113,77 C12.0985915,77 11,75.9166667 11,74.5 C11,73.0833333 12.0985915,72 13.5352113,72 L44.4647887,72 C45.9014085,72 47,73.0833333 47,74.5 C47,75.9166667 45.9014085,77 44.4647887,77 Z" id="Shape" fill="#D9DFE5"></path>
                    <path d="M41.46875,41 L19.53125,41 C18.096875,41 17,39.9166667 17,38.5 C17,37.0833333 18.096875,36 19.53125,36 L41.46875,36 C42.903125,36 44,37.0833333 44,38.5 C44,39.9166667 42.903125,41 41.46875,41 Z" id="Shape" fill="#D9DFE5"></path>
                    <circle id="Oval" fill="#D9DFE5" cx="101" cy="70" r="6"></circle>
                    <circle id="Oval" fill="#D9DFE5" cx="136" cy="70" r="6"></circle>
                    <path d="M117.944237,91 C111.244055,91 105.297643,86.0718708 104.041359,79.0687398 C103.790102,77.6854053 104.711377,76.3020707 106.051414,76.0426955 C107.39145,75.7833203 108.731487,76.7343628 108.982744,78.1176973 C109.904019,83.2187433 114.761651,86.5906212 119.703035,85.6395787 C123.388135,84.9479115 126.235713,82.0083256 126.989483,78.2906141 C127.24074,76.9072796 128.580776,75.9562371 130.004565,76.3020707 C131.344602,76.561446 132.265877,77.9447805 131.930867,79.4145734 C130.758336,85.2072867 126.319465,89.7031239 120.708062,90.8270832 C119.703035,90.9135416 118.78176,91 117.944237,91 Z" id="Shape" fill="#D9DFE5"></path>
                    <path d="M53.7613122,117 C47.8682127,117 43,112.24183 43,106.294118 L43,10.7058824 C43,4.84313725 47.7828054,0 53.7613122,0 L183.238688,0 C189.131787,0 194,4.75816993 194,10.7058824 L194,106.294118 C194,112.156863 189.217195,117 183.238688,117 L53.7613122,117 Z M182.128394,105.27451 L182.128394,17.4183007 L136.606335,56.7581699 C126.101244,65.5947712 110.727941,65.5947712 100.222851,56.7581699 L54.7007919,17.4183007 L54.7007919,105.27451 L182.128394,105.27451 Z M108.251131,48.5163399 C114.144231,53.4444444 122.855769,53.4444444 128.748869,48.5163399 L171.11086,11.7254902 L65.803733,11.7254902 L108.251131,48.5163399 Z" id="Shape" fill="#FFFFFF"></path>
                    <path d="M183.088902,4 L53.8257757,4 C50.071599,4 47,7.07931571 47,10.8429238 L47,107.157076 C47,110.920684 50.071599,114 53.8257757,114 L183.174224,114 C186.928401,114 190,110.920684 190,107.157076 L190,10.9284603 C190,7.16485226 186.928401,4.08553655 183.088902,4 C183.174224,4.08553655 183.174224,4 183.088902,4 Z M181.297136,8.10575428 L131.127685,51.81493 C123.789976,58.059098 113.039379,58.059098 105.616348,51.81493 L55.6175418,8.10575428 L181.297136,8.10575428 Z M185.904535,107.157076 C185.904535,108.696734 184.624702,109.979782 183.088902,109.979782 L53.8257757,109.979782 C52.2899761,109.979782 51.0101432,108.696734 51.0101432,107.157076 L51.0101432,10.9284603 C51.0101432,10.4152411 51.1807876,9.90202177 51.4367542,9.47433904 L102.800716,54.3810264 C111.844869,61.9937792 125.069809,61.9937792 134.02864,54.3810264 L185.477924,9.55987558 C185.73389,9.98755832 185.904535,10.5007776 185.904535,11.0139969 L185.904535,107.157076 Z" id="Shape" fill="#D9DFE5"></path>
                    <path d="M162.100478,95 L191.899522,95 C193.62201,95 195,96.3913043 195,98.1304348 L195,119.869565 C195,121.608696 193.62201,123 191.899522,123 L162.100478,123 C160.37799,123 159,121.608696 159,119.869565 L159,98.1304348 C159.086124,96.3913043 160.464115,95 162.100478,95 Z" id="Shape" fill="#FFFFFF"></path>
                    <path d="M181.151751,109.794872 C180.980545,110.300366 180.894942,110.89011 180.894942,111.395604 C180.894942,111.732601 180.980545,112.069597 181.066148,112.406593 C181.151751,112.659341 181.40856,112.827839 181.579767,112.912088 C181.836576,112.996337 182.093385,113.080586 182.350195,113.080586 C182.77821,113.080586 183.206226,112.912088 183.634241,112.659341 C184.062257,112.406593 184.404669,111.985348 184.661479,111.564103 C185.003891,111.058608 185.175097,110.468864 185.346304,109.879121 C185.51751,109.205128 185.603113,108.446886 185.603113,107.688645 C185.603113,106.509158 185.431907,105.413919 185.003891,104.318681 C184.661479,103.391941 184.062257,102.549451 183.291829,101.875458 C182.521401,101.201465 181.66537,100.695971 180.723735,100.443223 C179.696498,100.106227 178.583658,99.9377289 177.470817,99.9377289 C174.988327,99.9377289 172.677043,100.864469 170.964981,102.6337 C170.108949,103.47619 169.509728,104.487179 168.996109,105.582418 C168.48249,106.761905 168.311284,108.025641 168.311284,109.289377 C168.311284,110.721612 168.568093,112.153846 169.081712,113.501832 C169.509728,114.681319 170.280156,115.692308 171.136187,116.534799 C171.992218,117.377289 173.105058,117.967033 174.217899,118.388278 C175.416342,118.809524 176.785992,119.062271 178.070039,118.978022 C179.354086,118.978022 180.723735,118.809524 182.007782,118.472527 C182.949416,118.21978 183.891051,117.882784 184.832685,117.377289 C185.003891,117.29304 185.2607,117.208791 185.431907,117.29304 C185.603113,117.377289 185.774319,117.461538 185.774319,117.630037 L186.202335,118.809524 C185.089494,119.483516 183.891051,120.07326 182.692607,120.410256 C181.237354,120.831502 179.696498,121 178.155642,121 C176.529183,121 174.902724,120.747253 173.361868,120.241758 C171.906615,119.736264 170.622568,118.978022 169.509728,117.967033 C168.396887,116.956044 167.540856,115.692308 166.941634,114.260073 C166.342412,112.659341 166,111.058608 166,109.373626 C166,108.362637 166.085603,107.351648 166.428016,106.424908 C166.684825,105.498168 167.11284,104.571429 167.540856,103.728938 C168.054475,102.886447 168.653696,102.128205 169.338521,101.369963 C170.708171,99.9377289 172.420233,98.9267399 174.389105,98.4212454 C175.416342,98.1684982 176.44358,98 177.470817,98 C178.326848,98 179.268482,98.0842491 180.124514,98.2527473 C180.980545,98.4212454 181.836576,98.7582418 182.607004,99.0952381 C183.377432,99.5164835 184.062257,99.9377289 184.747082,100.527473 C185.431907,101.117216 185.945525,101.70696 186.459144,102.465201 C186.972763,103.223443 187.315175,103.981685 187.571984,104.824176 C187.828794,105.750916 188,106.677656 188,107.688645 C188,108.699634 187.828794,109.626374 187.571984,110.553114 C187.315175,111.395604 186.88716,112.153846 186.287938,112.827839 C185.774319,113.501832 185.089494,114.007326 184.404669,114.344322 C183.634241,114.681319 182.863813,114.934066 182.007782,114.934066 C181.40856,114.934066 180.723735,114.765568 180.210117,114.428571 C179.696498,114.091575 179.354086,113.501832 179.182879,112.827839 C178.669261,113.501832 178.070039,114.007326 177.385214,114.344322 C176.700389,114.681319 176.015564,114.849817 175.245136,114.849817 C174.731518,114.849817 174.217899,114.765568 173.70428,114.512821 C173.276265,114.344322 172.933852,114.007326 172.59144,113.67033 C172.249027,113.333333 172.077821,112.827839 171.906615,112.406593 C171.735409,111.901099 171.649805,111.311355 171.649805,110.805861 C171.649805,110.216117 171.735409,109.710623 171.821012,109.120879 C172.249027,107.351648 173.361868,105.835165 174.988327,104.908425 C175.587549,104.571429 176.18677,104.318681 176.871595,104.150183 C177.642023,103.981685 178.412451,103.813187 179.182879,103.813187 C179.782101,103.813187 180.381323,103.897436 180.980545,103.981685 C181.494163,104.065934 182.007782,104.234432 182.435798,104.40293 L181.151751,109.794872 Z M179.867704,106.003663 C179.525292,105.919414 179.182879,105.919414 178.754864,105.919414 C178.155642,105.919414 177.470817,106.087912 176.957198,106.340659 C176.44358,106.593407 175.929961,107.014652 175.501946,107.435897 C175.07393,107.941392 174.731518,108.446886 174.560311,109.03663 C174.303502,109.626374 174.217899,110.216117 174.217899,110.89011 C174.217899,111.395604 174.389105,111.985348 174.645914,112.406593 C174.988327,112.74359 175.416342,112.996337 175.929961,112.996337 C176.18677,112.996337 176.529183,112.996337 176.785992,112.912088 C177.042802,112.827839 177.385214,112.659341 177.55642,112.490842 C177.81323,112.238095 178.070039,111.985348 178.241245,111.648352 C178.498054,111.227106 178.669261,110.805861 178.754864,110.300366 L179.867704,106.003663 Z" id="Shape" fill="#D9DFE5"></path>
                </g>
                <text id="Verify-your-email-ad" font-family="Lato-Semibold, Lato" font-size="23" font-weight="500" line-spacing="18" fill="#213444">
                    <tspan x="136.59075" y="227.930084">Verify your email address</tspan>
                </text>
            </g>
        </g>
    </g>
</svg>