<?xml version="1.0" encoding="UTF-8"?>
<svg width="26px" height="26px" viewBox="0 0 26 26" version="1.1" xmlns="http://www.w3.org/2000/svg" xmlns:xlink="http://www.w3.org/1999/xlink">
    <!-- Generator: Sketch 50.2 (55047) - http://www.bohemiancoding.com/sketch -->
    <title>website</title>
    <desc>Created with Sketch.</desc>
    <defs></defs>
    <g id="Page-1" stroke="none" stroke-width="1" fill="none" fill-rule="evenodd">
        <g id="Webapp-Artboard-1" transform="translate(-335.000000, -2824.000000)" fill="#69788E" fill-rule="nonzero">
            <g id="website" transform="translate(335.000000, 2824.000000)">
                <path d="M13,25.4090909 C18.3181818,25.4090909 22.8090909,22.1 24.5818182,17.3727273 C24.6409091,17.3136364 24.6409091,17.2545455 24.6409091,17.1363636 C24.6409091,17.1363636 24.6409091,17.1363636 24.6409091,17.1363636 C25.1136364,15.8363636 25.35,14.4181818 25.35,12.9409091 C25.4090909,6.14545455 19.8545455,0.590909091 13,0.590909091 C6.14545455,0.590909091 0.590909091,6.14545455 0.590909091,13 C0.590909091,19.8545455 6.14545455,25.4090909 13,25.4090909 Z M2.12727273,17.4909091 L7.20909091,17.4909091 C8.50909091,21.2136364 10.9909091,23.6954545 12.2318182,24.7590909 C7.62272727,24.4636364 3.78181818,21.5090909 2.12727273,17.4909091 Z M7.03181818,12.9409091 C7.03181818,11.4636364 7.26818182,10.1636364 7.68181818,8.92272727 L12.7045455,8.92272727 L12.7045455,16.8409091 L7.62272727,16.8409091 C7.26818182,15.6590909 7.03181818,14.3590909 7.03181818,12.9409091 Z M18.9681818,12.9409091 C18.9681818,14.3590909 18.7318182,15.6590909 18.3772727,16.8409091 L13.2954545,16.8409091 L13.2954545,8.98181818 L18.3181818,8.98181818 C18.7318182,10.1636364 18.9681818,11.5227273 18.9681818,12.9409091 Z M13.2954545,17.4909091 L18.1409091,17.4909091 C16.8409091,21.0954545 14.3590909,23.4590909 13.2954545,24.4045455 L13.2954545,17.4909091 Z M13.2954545,8.33181818 L13.2954545,1.65454545 C14.3590909,2.54090909 16.7818182,4.84545455 18.1409091,8.33181818 L13.2954545,8.33181818 Z M12.7045455,8.33181818 L7.85909091,8.33181818 C9.15909091,4.84545455 11.6409091,2.54090909 12.7045455,1.65454545 L12.7045455,8.33181818 Z M12.7045455,17.4909091 L12.7045455,24.4045455 C11.6409091,23.5181818 9.15909091,21.0954545 7.85909091,17.4909091 L12.7045455,17.4909091 Z M13.8272727,24.7590909 C15.0090909,23.6954545 17.55,21.2136364 18.85,17.4909091 L23.9318182,17.4909091 C22.2181818,21.5090909 18.3772727,24.4636364 13.8272727,24.7590909 Z M24.1090909,16.8409091 L19.0272727,16.8409091 C19.3818182,15.6590909 19.6181818,14.3590909 19.6181818,12.9409091 C19.6181818,11.4636364 19.3818182,10.1636364 19.0272727,8.92272727 L24.1090909,8.92272727 C24.5818182,10.1636364 24.8181818,11.5227273 24.8181818,12.9409091 C24.8181818,14.3590909 24.5818182,15.6590909 24.1090909,16.8409091 Z M23.8136364,8.33181818 L18.7909091,8.33181818 C17.4909091,4.66818182 14.8909091,2.18636364 13.7681818,1.24090909 C18.2590909,1.53636364 22.1,4.37272727 23.8136364,8.33181818 Z M12.2318182,1.24090909 C11.1090909,2.18636364 8.50909091,4.66818182 7.20909091,8.33181818 L2.18636364,8.33181818 C3.9,4.37272727 7.74090909,1.53636364 12.2318182,1.24090909 Z M1.95,8.98181818 L7.03181818,8.98181818 C6.67727273,10.2227273 6.44090909,11.5227273 6.44090909,13 C6.44090909,14.4181818 6.67727273,15.7181818 7.03181818,16.9 L1.89090909,16.9 C1.41818182,15.6590909 1.18181818,14.3590909 1.18181818,13 C1.18181818,11.5818182 1.47727273,10.2227273 1.95,8.98181818 Z" id="Shape"></path>
                <path d="M13,25.7045455 C6.02727273,25.7045455 0.295454545,19.9727273 0.295454545,13 C0.295454545,6.02727273 6.02727273,0.295454545 13,0.295454545 C19.9727273,0.295454545 25.7045455,5.96818182 25.7045455,13 C25.7045455,14.4181818 25.4681818,15.8363636 24.9954545,17.1954545 C24.9954545,17.3136364 24.9363636,17.4318182 24.8772727,17.4909091 C22.9863636,22.3954545 18.2,25.7045455 13,25.7045455 Z M13,0.886363636 C6.32272727,0.886363636 0.886363636,6.32272727 0.886363636,13 C0.886363636,19.6772727 6.32272727,25.1136364 13,25.1136364 C18.0227273,25.1136364 22.5727273,21.9818182 24.3454545,17.2545455 L24.4045455,17.0181818 C24.8772727,15.7181818 25.1136364,14.3590909 25.1136364,12.9409091 C25.1136364,6.32272727 19.6772727,0.886363636 13,0.886363636 Z M12.9409091,25.0545455 L12.1727273,24.9954545 C7.68181818,24.7 3.60454545,21.7454545 1.89090909,17.55 L1.71363636,17.1954545 L7.38636364,17.1954545 L7.44545455,17.3727273 C8.74545455,21.0954545 11.2863636,23.5772727 12.35,24.5227273 L12.9409091,25.0545455 Z M2.48181818,17.7272727 C4.13636364,21.2727273 7.50454545,23.8136364 11.3454545,24.4045455 C10.1045455,23.2227273 8.03636364,20.9181818 6.91363636,17.7272727 L2.48181818,17.7272727 Z M13.0590909,25.0545455 L13.65,24.5227273 C14.7136364,23.5772727 17.3136364,21.0954545 18.5545455,17.3727273 L18.6136364,17.1954545 L24.2863636,17.1954545 L24.1090909,17.55 C22.3954545,21.7454545 18.3181818,24.6409091 13.8272727,24.9954545 L13.0590909,25.0545455 Z M19.0272727,17.7272727 C17.9045455,20.8590909 15.8363636,23.1636364 14.5954545,24.4045455 C18.4363636,23.8727273 21.8636364,21.3318182 23.4590909,17.7272727 L19.0272727,17.7272727 Z M13.0590909,24.9363636 L13.0590909,17.1954545 L18.5545455,17.1954545 L18.4363636,17.55 C17.1363636,21.2136364 14.5363636,23.6954545 13.4727273,24.5818182 L13.0590909,24.9363636 Z M13.5909091,17.7272727 L13.5909091,23.7545455 C14.7136364,22.6909091 16.6636364,20.6227273 17.7863636,17.7272727 L13.5909091,17.7272727 Z M12.9409091,24.9363636 L12.5272727,24.5818182 C11.4636364,23.6954545 8.92272727,21.2136364 7.56363636,17.55 L7.44545455,17.1954545 L12.9409091,17.1954545 L12.9409091,24.9363636 Z M8.21363636,17.7272727 C9.33636364,20.6227273 11.2863636,22.75 12.4090909,23.7545455 L12.4090909,17.7272727 L8.21363636,17.7272727 Z M24.3454545,17.1363636 L18.6727273,17.1363636 L18.7909091,16.7818182 C19.1454545,15.5409091 19.3227273,14.2409091 19.3227273,12.9409091 C19.3227273,11.6409091 19.1454545,10.2818182 18.7318182,9.04090909 L18.6136364,8.68636364 L24.2272727,8.68636364 L24.2863636,8.86363636 C24.7590909,10.1636364 24.9954545,11.5818182 24.9954545,13 C24.9954545,14.3590909 24.7590909,15.6590909 24.3454545,16.9590909 L24.3454545,17.1363636 Z M19.3818182,16.6045455 L23.9318182,16.6045455 C24.3454545,15.4227273 24.5227273,14.2409091 24.5227273,13 C24.5227273,11.7 24.2863636,10.4590909 23.8727273,9.21818182 L19.3227273,9.21818182 C19.6772727,10.4590909 19.8545455,11.7 19.8545455,12.9409091 C19.8545455,14.1818182 19.6772727,15.4227273 19.3818182,16.6045455 Z M18.5545455,17.1363636 L13,17.1363636 L13,8.68636364 L18.4954545,8.68636364 L18.5545455,8.86363636 C18.9681818,10.2227273 19.2045455,11.5818182 19.2045455,12.9409091 C19.2045455,14.3 19.0272727,15.6 18.6136364,16.9 L18.5545455,17.1363636 Z M13.5909091,16.6045455 L18.2,16.6045455 C18.5545455,15.4227273 18.7318182,14.1818182 18.7318182,12.9409091 C18.7318182,11.7 18.5545455,10.4 18.1409091,9.21818182 L13.5909091,9.21818182 L13.5909091,16.6045455 Z M12.9409091,17.1363636 L7.38636364,17.1363636 L7.32727273,16.9590909 C6.91363636,15.6590909 6.73636364,14.3 6.73636364,13 C6.73636364,11.6409091 6.97272727,10.2227273 7.38636364,8.92272727 L7.44545455,8.74545455 L12.9409091,8.74545455 L12.9409091,17.1363636 Z M7.8,16.6045455 L12.4090909,16.6045455 L12.4090909,9.21818182 L7.85909091,9.21818182 C7.50454545,10.4590909 7.26818182,11.7 7.26818182,12.9409091 C7.26818182,14.1818182 7.44545455,15.4227273 7.8,16.6045455 Z M7.32727273,17.1363636 L1.65454545,17.1363636 L1.59545455,16.9590909 C1.18181818,15.6590909 0.945454545,14.3590909 0.945454545,13 C0.945454545,11.5818182 1.18181818,10.1636364 1.65454545,8.86363636 L1.71363636,8.68636364 L7.32727273,8.68636364 L7.20909091,9.04090909 C6.79545455,10.3409091 6.61818182,11.6409091 6.61818182,12.9409091 C6.61818182,14.2409091 6.79545455,15.5409091 7.15,16.7818182 L7.32727273,17.1363636 Z M2.06818182,16.6045455 L6.61818182,16.6045455 C6.32272727,15.4227273 6.14545455,14.1818182 6.14545455,12.9409091 C6.14545455,11.7 6.32272727,10.4 6.67727273,9.21818182 L2.12727273,9.21818182 C1.71363636,10.4590909 1.47727273,11.7 1.47727273,13 C1.47727273,14.2409091 1.65454545,15.4227273 2.06818182,16.6045455 Z M24.2272727,8.62727273 L18.6136364,8.62727273 L18.5545455,8.45 C17.2545455,4.78636364 14.6545455,2.30454545 13.5909091,1.41818182 L13,0.945454545 L12.4090909,1.41818182 C11.3454545,2.30454545 8.74545455,4.72727273 7.44545455,8.39090909 L7.38636364,8.56818182 L1.77272727,8.56818182 L1.95,8.21363636 C3.72272727,4.01818182 7.68181818,1.24090909 12.2318182,0.945454545 L13,0.886363636 L13.0590909,0.886363636 L13.1181818,0.886363636 L13.8863636,0.945454545 C18.3181818,1.24090909 22.2772727,4.01818182 24.05,8.21363636 L24.2272727,8.62727273 Z M18.9681818,8.09545455 L23.4,8.09545455 C21.7454545,4.55 18.3772727,2.12727273 14.5363636,1.59545455 C15.7772727,2.77727273 17.8454545,4.96363636 18.9681818,8.09545455 Z M2.6,8.09545455 L7.03181818,8.09545455 C8.15454545,5.02272727 10.2227273,2.77727273 11.4636364,1.59545455 C7.56363636,2.12727273 4.25454545,4.55 2.6,8.09545455 Z M18.4954545,8.62727273 L13,8.62727273 L13,1.12272727 L13.4136364,1.47727273 C14.4181818,2.30454545 16.9590909,4.66818182 18.3181818,8.27272727 L18.4954545,8.62727273 Z M13.5909091,8.09545455 L17.7272727,8.09545455 C16.6045455,5.25909091 14.6545455,3.25 13.5909091,2.30454545 L13.5909091,8.09545455 Z M12.9409091,8.62727273 L7.44545455,8.62727273 L7.56363636,8.27272727 C8.92272727,4.72727273 11.4045455,2.36363636 12.4681818,1.47727273 L12.8818182,1.12272727 L12.8818182,8.62727273 L12.9409091,8.62727273 Z M8.27272727,8.09545455 L12.4090909,8.09545455 L12.4090909,2.24545455 C11.3454545,3.25 9.39545455,5.25909091 8.27272727,8.09545455 Z" id="Shape"></path>
            </g>
        </g>
    </g>
</svg>