<?xml version="1.0" encoding="UTF-8"?>
<svg width="30px" height="24px" viewBox="0 0 30 24" version="1.1" xmlns="http://www.w3.org/2000/svg" xmlns:xlink="http://www.w3.org/1999/xlink">
    <!-- Generator: Sketch 50.2 (55047) - http://www.bohemiancoding.com/sketch -->
    <title>Add to contact</title>
    <desc>Created with Sketch.</desc>
    <defs>
        <polygon id="path-1" points="0 0.0352086134 23.07723 0.0352086134 23.07723 22.696447 0 22.696447"></polygon>
    </defs>
    <g id="Page-1" stroke="none" stroke-width="1" fill="none" fill-rule="evenodd">
        <g id="Webapp-Artboard-1" transform="translate(-126.000000, -1553.000000)">
            <g id="download-btn" transform="translate(102.000000, 1537.000000)">
                <g id="Add-to-contact" transform="translate(24.000000, 0.000000)">
                    <g id="contact" transform="translate(0.000000, 16.718044)">
                        <g id="Group-3">
                            <mask id="mask-2" fill="white">
                                <use xlink:href="#path-1"></use>
                            </mask>
                            <g id="Clip-2"></g>
                            <path d="M21.8008549,21.1216617 C21.8008549,21.2869021 21.6663307,21.4212987 21.5009331,21.4212987 L4.97002942,21.4212987 C4.80463191,21.4212987 4.67010764,21.2869021 4.67010764,21.1216617 L4.67010764,8.66279562 C4.6704353,8.65442994 4.67138189,8.64620974 4.67138189,8.63773494 C4.67138189,8.62911465 4.67047171,8.62074897 4.67010764,8.61220142 L4.67010764,3.24739808 C4.6724741,3.22502897 4.67385757,3.20236888 4.67385757,3.17934506 C4.67385757,3.15621213 4.67251051,3.13340655 4.67010764,3.11089195 L4.67010764,1.61001569 C4.67010764,1.44477527 4.80463191,1.31037875 4.97002942,1.31037875 L21.5009331,1.31037875 C21.6663307,1.31037875 21.8008549,1.44477527 21.8008549,1.61001569 L21.8008549,21.1216617 Z M21.5009331,0.0351940644 L4.97002942,0.0351940644 C4.10084604,0.0351940644 3.39371072,0.741657802 3.39371072,1.61001569 L3.39371072,2.54118895 L0.646066034,2.53991591 L0.645774777,2.53991591 C0.293463161,2.53991591 0.00774015186,2.8251857 0.0075581163,3.17719908 C0.00741248786,3.52932159 0.292989869,3.81491873 0.64548352,3.81506422 L3.39371072,3.81633726 L3.39371072,7.99954245 L0.643517536,7.99826941 L0.643226279,7.99826941 C0.29095107,7.99826941 0.00522806118,8.28357558 0.00504602562,8.63555259 C0.00490039718,8.9876751 0.290477778,9.27327224 0.642971429,9.2734541 L3.39371072,9.27472714 L3.39371072,13.4579323 L0.641005445,13.4566593 L0.640714189,13.4566593 C0.288402573,13.4566593 0.0027159705,13.7419291 0.00253393494,14.0939425 C0.0023883065,14.446065 0.287965687,14.7316257 0.640422932,14.7318076 L3.39371072,14.7330806 L3.39371072,18.9162858 L0.638456948,18.9150492 L0.638202098,18.9150492 C0.285890482,18.9150492 0.000167472712,19.200319 -1.45628445e-05,19.5523324 C-0.00016019129,19.9044549 0.28541719,20.1900156 0.637910841,20.1901975 L3.39371072,20.1914705 L3.39371072,21.1216617 C3.39371072,21.9900196 4.10084604,22.696447 4.97002942,22.696447 L21.5009331,22.696447 C22.3701165,22.696447 23.0772518,21.9900196 23.0772518,21.1216617 L23.0772518,1.61001569 C23.0772518,0.741657802 22.3701165,0.0351940644 21.5009331,0.0351940644 Z" id="Fill-1" fill="#FFFFFF" mask="url(#mask-2)"></path>
                        </g>
                        <path d="M12.8727144,6.24856874 C13.8380726,6.24856874 14.6234829,7.03512447 14.6234829,8.00193822 C14.6234829,8.96879071 13.8380726,9.75534644 12.8727144,9.75534644 C11.9073561,9.75534644 11.1219459,8.96879071 11.1219459,8.00193822 C11.1219459,7.03512447 11.9073561,6.24856874 12.8727144,6.24856874 M12.8727144,11.11383 C14.5859921,11.11383 15.9799213,9.71783789 15.9799213,8.00193822 C15.9799213,6.28607728 14.5859921,4.89008519 12.8727144,4.89008519 C11.1594366,4.89008519 9.76550746,6.28607728 9.76550746,8.00193822 C9.76550746,9.71783789 11.1594366,11.11383 12.8727144,11.11383" id="Fill-4" fill="#FFFFFF"></path>
                        <path d="M10.1654008,16.4105968 C10.3990724,14.4382505 11.6236511,12.9299144 13.0946399,12.9299144 C14.5656288,12.9299144 15.7902075,14.4382505 16.0239146,16.4105968 L10.1654008,16.4105968 Z M13.0946399,11.5583832 C11.9436819,11.5583832 10.8695469,12.1528998 10.0701815,13.2323562 C9.30120378,14.270775 8.87773406,15.6430103 8.87773406,17.0963428 C8.87773406,17.4750699 9.15698709,17.782128 9.50146322,17.782128 L16.6878522,17.782128 C17.0322928,17.782128 17.3115814,17.4750699 17.3115814,17.0963428 C17.3115814,15.6430103 16.8881117,14.270775 16.1190984,13.2323562 C15.319733,12.1528998 14.2456336,11.5583832 13.0946399,11.5583832 Z" id="Fill-6" fill="#FFFFFF"></path>
                    </g>
                    <rect id="Rectangle-3" fill="#FFFFFF" x="17.7554681" y="22.4972356" width="11.5410543" height="11.5583832" rx="5.77052714"></rect>
                    <text id="+" font-family="Lato-Bold, Lato" font-size="12" font-weight="bold" line-spacing="54" letter-spacing="0.03243243">
                        <tspan x="20.029779" y="12" fill="#D34C56">+</tspan>
                        <tspan x="27.0222115" y="12" letter-spacing="0.02779923" fill="#005197"> </tspan>
                    </text>
                </g>
            </g>
        </g>
    </g>
</svg>