<?xml version="1.0" encoding="UTF-8"?>
<svg width="36px" height="36px" viewBox="0 0 36 36" version="1.1" xmlns="http://www.w3.org/2000/svg" xmlns:xlink="http://www.w3.org/1999/xlink">
    <!-- Generator: Sketch 53.2 (72643) - https://sketchapp.com -->
    <title>alert_error</title>
    <desc>Created with Sketch.</desc>
    <g id="Icons" stroke="none" stroke-width="1" fill="none" fill-rule="evenodd">
        <g transform="translate(-423.000000, -1425.000000)" id="alert_error">
            <g transform="translate(424.000000, 1426.000000)">
                <circle id="Oval-5" stroke="#E1E1E1" fill="#FFFFFF" cx="17" cy="17" r="17"></circle>
                <path d="M16.8947368,8 C17.9411711,8 18.7894737,8.84830258 18.7894737,9.89473684 L18.7894737,18.4210526 C18.7894737,19.4674869 17.9411711,20.3157895 16.8947368,20.3157895 C15.8483026,20.3157895 15,19.4674869 15,18.4210526 L15,9.89473684 C15,8.84830258 15.8483026,8 16.8947368,8 Z M16.8947368,26 C15.8483026,26 15,25.1516974 15,24.1052632 C15,23.0588289 15.8483026,22.2105263 16.8947368,22.2105263 C17.9411711,22.2105263 18.7894737,23.0588289 18.7894737,24.1052632 C18.7894737,25.1516974 17.9411711,26 16.8947368,26 Z" id="Combined-Shape" fill="#D22B36"></path>
            </g>
        </g>
    </g>
</svg>