<svg xmlns="http://www.w3.org/2000/svg" viewBox="0 0 228.96 177.36"><defs><style>.cls-1{fill:#edf0f3;}.cls-2,.cls-3{fill:#6d7c98;}.cls-3{fill-rule:evenodd;}.cls-4{fill:none;stroke:#6d7c98;stroke-miterlimit:10;stroke-width:7px;}</style></defs><title>bad_icon</title><g id="Layer_2" data-name="Layer 2"><g id="Layer_1-2" data-name="Layer 1"><path class="cls-1" d="M225,14.16V166.49a10.12,10.12,0,0,1-1.43,5.17H18.29c-7.12,0-12.91-5.35-12.91-11.93V14.16C5.38,8.24,10.58,3.43,17,3.43h196.4C219.8,3.43,225,8.24,225,14.16Z"/><path class="cls-2" d="M211.5,0H25.22C11.31,0,0,10.92,0,24.33V160.5c0,9.3,7.83,16.86,17.47,16.86h194c9.63,0,17.46-7.56,17.46-16.86V16.85C229,7.56,221.13,0,211.5,0Zm10.55,160.5a10.38,10.38,0,0,1-10.55,10.18h-194A10.38,10.38,0,0,1,6.92,160.5V24.33c0-9.73,8.21-17.66,18.3-17.66H211.5a10.38,10.38,0,0,1,10.55,10.18Z"/><path class="cls-3" d="M39.21,152.81H189.75c4.77,0,8-3.74,6.29-7.19q-18.76-36.9-37.52-73.8c-2.19-4.31-10-4.47-12.43-.25L132.2,95.21c-2.51,4.29-10.44,4-12.5-.39L92.61,36.6c-2.18-4.68-10.72-4.6-12.76.12q-23.52,54.59-47,109.16c-1.47,3.41,1.79,6.93,6.41,6.93Z"/><circle class="cls-2" cx="152.42" cy="33.13" r="15.01"/><path class="cls-4" d="M199,12.05H36.71c-12.12,0-22,9.44-22,21V150.74c0,8,6.82,14.56,15.21,14.56H199c8.39,0,15.21-6.53,15.21-14.56V26.62C214.22,18.59,207.4,12.05,199,12.05Z"/></g></g></svg>