<svg xmlns="http://www.w3.org/2000/svg" viewBox="0 0 51 39.5"><defs><style>.cls-1{fill:#edf0f3;}.cls-2{fill:#6d7c98;}</style></defs><title>contact_icon_3</title><g id="Layer_2" data-name="Layer 2"><g id="Layer_1-2" data-name="Layer 1"><path class="cls-1" d="M5.18,4.23A3.52,3.52,0,0,0,3.67,7.11V29.86H1.57V5.55A3.86,3.86,0,0,1,1.8,4.23Z"/><path class="cls-1" d="M25.38,10.07a.78.78,0,0,0,.79.78h14.2v19H5.24V7.11A1.92,1.92,0,0,1,7.16,5.19h33a1.85,1.85,0,0,1,.26,1V9.28H26.17A.79.79,0,0,0,25.38,10.07Z"/><path class="cls-1" d="M40.37,31.43V37.1a1.19,1.19,0,0,1-.33.83H5.55a4,4,0,0,1-4-4V31.43Z"/><path class="cls-2" d="M49.12,29.15l-.18,0,.21.06a1.4,1.4,0,0,1,.29.09v0A1.68,1.68,0,0,0,49.12,29.15Zm-1.43,1.66h0Z"/><path class="cls-2" d="M43.9,0H5.55A5.55,5.55,0,0,0,0,5.55V34A5.55,5.55,0,0,0,5.55,39.5H43.9a5.26,5.26,0,0,0,1.27-.15l.18,0a4.82,4.82,0,0,1-.69-.41,6.34,6.34,0,0,1-.77-.62l0,0s0,0,0,0v0a1.94,1.94,0,0,1-.23-.26h-38a4,4,0,0,1-4-4V31.43h41.6a3.48,3.48,0,0,1,.28-.39,5,5,0,0,1,.86-.86h0a4.36,4.36,0,0,1,1.14-.71l.3-.14V7.11a3.48,3.48,0,0,0-3.48-3.49H7.16A3.48,3.48,0,0,0,3.67,7.11V29.86H1.57V5.55A3.86,3.86,0,0,1,1.8,4.23,4,4,0,0,1,5.55,1.57H43.9a4,4,0,0,1,4,4V29a3.44,3.44,0,0,1,.46,0l.19,0h.08l.14,0,.2,0,.18,0a1.68,1.68,0,0,1,.32.09V5.55A5.55,5.55,0,0,0,43.9,0ZM5.24,7.11A1.92,1.92,0,0,1,7.16,5.19H42.29A1.92,1.92,0,0,1,44.2,7.11V29.86h-39Z"/><path class="cls-2" d="M18.23,10.62H11.29A2.38,2.38,0,0,0,8.91,13v8.46a2.37,2.37,0,0,0,2.38,2.37h6.94a2.38,2.38,0,0,0,2.38-2.37V13A2.39,2.39,0,0,0,18.23,10.62Zm-7,9.92a3.49,3.49,0,0,1,2.48-3.34A1.77,1.77,0,0,1,13,15.72a1.8,1.8,0,1,1,2.79,1.48,3.51,3.51,0,0,1,2.49,3.34Z"/><path class="cls-2" d="M33,22.06a.8.8,0,0,1-.79.79h-6a.79.79,0,0,1-.79-.79.78.78,0,0,1,.79-.78h6A.79.79,0,0,1,33,22.06Z"/><path class="cls-2" d="M38.24,18.84a.79.79,0,0,1-.79.79H26.26a.79.79,0,0,1-.79-.79.78.78,0,0,1,.79-.78H37.45A.78.78,0,0,1,38.24,18.84Z"/><path class="cls-2" d="M38.24,15.62a.79.79,0,0,1-.79.79H26.26a.79.79,0,0,1-.79-.79.78.78,0,0,1,.79-.78H37.45A.78.78,0,0,1,38.24,15.62Z"/><path class="cls-2" d="M41.72,10.07a.78.78,0,0,1-.79.78H26.17a.79.79,0,1,1,0-1.57H40.93A.79.79,0,0,1,41.72,10.07Z"/><path class="cls-2" d="M46.92,33.63h0v0A.1.1,0,0,0,46.92,33.63Zm0,0h0v0A.1.1,0,0,0,46.92,33.63Zm0,0h0v0A.1.1,0,0,0,46.92,33.63Z"/><path class="cls-2" d="M47.69,30.81h0Z"/><path class="cls-2" d="M51,34.41a.81.81,0,0,1-.29.6h0a.71.71,0,0,1-.47.17H48.5v1.86a.54.54,0,0,1,0,.22,1.24,1.24,0,0,1-.2.29.76.76,0,0,1-.28.15.74.74,0,0,1-.25,0,.79.79,0,0,1-.79-.78V35.19H45.32a.77.77,0,0,1-.77-.65v0a.22.22,0,0,1,0-.09h0a.77.77,0,0,1,.78-.78h1.61v-2a.88.88,0,0,1,0-.16.81.81,0,0,1,.6-.6h.17a.79.79,0,0,1,.78.78v2h1.72a.73.73,0,0,1,.49.19.72.72,0,0,1,.27.44A.68.68,0,0,1,51,34.41Z"/><path class="cls-2" d="M47.72,30.81h0Z"/></g></g></svg>