<svg xmlns="http://www.w3.org/2000/svg" viewBox="0 0 228.96 177.36"><defs><style>.cls-1{fill:#edf0f3;}.cls-2,.cls-3{fill:#6d7c98;}.cls-3{fill-rule:evenodd;}</style></defs><title>correct_icon</title><g id="Layer_2" data-name="Layer 2"><g id="Layer_1-2" data-name="Layer 1"><path class="cls-1" d="M187.4,30.37V167a9.58,9.58,0,0,1-1.19,4.64H16.08A10.71,10.71,0,0,1,5.38,161V30.37A9.62,9.62,0,0,1,15,20.75H177.78A9.62,9.62,0,0,1,187.4,30.37Z"/><path class="cls-2" d="M211.5,0H25.22C11.31,0,0,10.92,0,24.33V160.5c0,9.3,7.83,16.86,17.47,16.86h194c9.63,0,17.46-7.56,17.46-16.86V16.85C229,7.56,221.13,0,211.5,0Zm10.55,160.5a10.38,10.38,0,0,1-10.55,10.18h-194A10.38,10.38,0,0,1,6.92,160.5V24.33c0-9.73,8.21-17.66,18.3-17.66H211.5a10.38,10.38,0,0,1,10.55,10.18Z"/><path class="cls-3" d="M55.87,137.9H173.09c3.71,0,6.25-2.91,4.89-5.6L148.77,74.84c-1.71-3.35-7.75-3.48-9.68-.2L128.28,93.06c-2,3.33-8.13,3.13-9.73-.31L97.45,47.42c-1.69-3.65-8.35-3.58-9.93.09l-36.63,85c-1.15,2.66,1.39,5.4,5,5.4Z"/><circle class="cls-2" cx="144.02" cy="44.72" r="11.69"/></g></g></svg>