<?xml version="1.0" encoding="UTF-8"?>
<svg width="12px" height="13px" viewBox="0 0 12 13" version="1.1" xmlns="http://www.w3.org/2000/svg" xmlns:xlink="http://www.w3.org/1999/xlink">
    <!-- Generator: Sketch 52.2 (67145) - http://www.bohemiancoding.com/sketch -->
    <title>bin copy 6</title>
    <desc>Created with Sketch.</desc>
    <g id="CMS-UI-Updates" stroke="none" stroke-width="1" fill="none" fill-rule="evenodd">
        <g id="Plan" transform="translate(-671.000000, -615.000000)" fill="#D72B36" fill-rule="nonzero" stroke="#D72B36" stroke-width="0.3">
            <g id="Group-6" transform="translate(663.000000, 526.000000)">
                <g id="Group-3">
                    <g id="IMAGE-+-CAPTION">
                        <g id="delete-btn" transform="translate(0.000000, 81.000000)">
                            <g id="bin-copy-6" transform="translate(8.812500, 8.812500)">
                                <path d="M10.787718,1.46208141 L7.80030132,1.46208141 L7.80030132,0.622375106 C7.80030132,0.347855736 7.52578195,0.121780961 7.17052158,0.121780961 L4.07006752,0.121780961 C3.71480716,0.121780961 3.44028779,0.347855736 3.44028779,0.622375106 L3.44028779,1.46208141 L0.452871122,1.46208141 C0.323685536,1.46208141 0.210648148,1.5751188 0.210648148,1.70430439 C0.210648148,1.83348997 0.323685536,1.94652736 0.452871122,1.94652736 L1.26028103,1.94652736 L1.89006076,9.68151431 C1.89006076,10.4404796 2.5036923,11.037963 3.26265761,11.037963 L7.9617833,11.037963 C8.72074861,11.037963 9.33438015,10.4243314 9.33438015,9.68151431 L9.98030808,1.94652736 L10.787718,1.94652736 C10.9169036,1.94652736 11.029941,1.83348997 11.029941,1.70430439 C11.029941,1.5751188 10.9169036,1.46208141 10.787718,1.46208141 Z M3.92473374,0.654671502 C3.94088194,0.638523304 3.98932653,0.622375106 4.07006752,0.622375106 L7.17052158,0.622375106 C7.25126258,0.622375106 7.29970717,0.654671502 7.31585537,0.654671502 L7.31585537,1.47822961 L3.92473374,1.47822961 L3.92473374,0.654671502 L3.92473374,0.654671502 Z M8.8660824,9.66536611 L8.8660824,9.68151431 C8.8660824,10.1659603 8.46237744,10.5696652 7.9779315,10.5696652 L3.26265761,10.5696652 C2.77821167,10.5696652 2.37450671,10.1659603 2.37450671,9.68151431 L1.74472698,1.94652736 L9.47971393,1.94652736 L8.8660824,9.66536611 Z" id="Shape"></path>
                                <path d="M4.34458689,8.47039944 L4.34458689,8.47039944 C4.48992068,8.47039944 4.58680987,8.35736206 4.58680987,8.21202827 L4.40917969,4.27186791 C4.40917969,4.14268232 4.2961423,4.02964493 4.15080852,4.04579313 C4.02162293,4.04579313 3.90858554,4.15883052 3.92473374,4.3041643 L4.10236392,8.24432467 C4.10236392,8.37351026 4.21540131,8.47039944 4.34458689,8.47039944 Z" id="Shape"></path>
                                <path d="M6.89600221,8.47039944 L6.89600221,8.47039944 C7.041336,8.47039944 7.13822519,8.37351026 7.15437339,8.24432467 L7.33200357,4.3041643 C7.33200357,4.17497872 7.23511438,4.06194133 7.10592879,4.04579313 C6.97674321,4.04579313 6.86370582,4.14268232 6.84755762,4.27186791 L6.66992744,8.21202827 C6.65377924,8.35736206 6.75066843,8.47039944 6.89600221,8.47039944 Z" id="Shape"></path>
                            </g>
                        </g>
                    </g>
                </g>
            </g>
        </g>
    </g>
</svg>