<?xml version="1.0" encoding="UTF-8"?>
<svg width="11px" height="10px" viewBox="0 0 11 10" version="1.1" xmlns="http://www.w3.org/2000/svg" xmlns:xlink="http://www.w3.org/1999/xlink">
    <!-- Generator: Sketch 53.2 (72643) - https://sketchapp.com -->
    <title>Shape</title>
    <desc>Created with Sketch.</desc>
    <g id="Symbols" stroke="none" stroke-width="1" fill="none" fill-rule="evenodd">
        <g id="Icons/Arrows/Down" fill="#067BBE" fill-rule="nonzero">
            <path d="M10.9805691,6.16695682 L5.65375719,0.0581362389 C5.58116295,-0.025115276 5.45482501,-0.0337547079 5.3715735,0.0388395277 C5.36471457,0.0448204221 5.35827185,0.051262481 5.35229025,0.0581207945 L0.0253090166,6.16587207 C-0.0472937487,6.24911615 -0.0386672617,6.37545498 0.0445768147,6.44805774 C0.0810029418,6.47982742 0.127701754,6.49733101 0.17603575,6.49733101 L3.46764354,6.49733101 L3.46764354,9.75593406 C3.46764354,9.86639101 3.55718659,9.95593406 3.66764354,9.95593406 L7.33828593,9.95593406 C7.44874288,9.95593406 7.53828593,9.86639101 7.53828593,9.75593406 L7.53828593,6.49733101 L10.8297639,6.4984003 C10.9402209,6.49843618 11.029793,6.40892223 11.0298289,6.29846528 C11.0298446,6.25011597 11.0123451,6.20339774 10.9805691,6.16695682 Z" id="Shape" transform="translate(5.502928, 4.977967) rotate(-180.000000) translate(-5.502928, -4.977967) "></path>
        </g>
    </g>
</svg>