<?xml version="1.0" encoding="UTF-8"?>
<svg width="11px" height="10px" viewBox="0 0 11 10" version="1.1" xmlns="http://www.w3.org/2000/svg" xmlns:xlink="http://www.w3.org/1999/xlink">
    <!-- Generator: Sketch 52.2 (67145) - http://www.bohemiancoding.com/sketch -->
    <title>Shape</title>
    <desc>Created with Sketch.</desc>
    <g id="CMS-UI-Updates" stroke="none" stroke-width="1" fill="none" fill-rule="evenodd">
        <g id="Plan" transform="translate(-672.000000, -569.000000)" fill="#067BBE" fill-rule="nonzero">
            <g id="Group-6" transform="translate(663.000000, 526.000000)">
                <g id="Group-3">
                    <g id="IMAGE-+-CAPTION">
                        <g id="arrow-btn" transform="translate(14.500000, 47.500000) scale(-1, -1) translate(-14.500000, -47.500000) translate(0.000000, 33.000000)">
                            <path d="M19.9805691,15.1669568 L14.6537572,9.05813624 C14.581163,8.97488472 14.454825,8.96624529 14.3715735,9.03883953 C14.3647146,9.04482042 14.3582719,9.05126248 14.3522903,9.05812079 L9.02530902,15.1658721 C8.95270625,15.2491161 8.96133274,15.375455 9.04457681,15.4480577 C9.08100294,15.4798274 9.12770175,15.497331 9.17603575,15.497331 L12.4676435,15.497331 L12.4676435,18.7559341 C12.4676435,18.866391 12.5571866,18.9559341 12.6676435,18.9559341 L16.3382859,18.9559341 C16.4487429,18.9559341 16.5382859,18.866391 16.5382859,18.7559341 L16.5382859,15.497331 L19.8297639,15.4984003 C19.9402209,15.4984362 20.029793,15.4089222 20.0298289,15.2984653 C20.0298446,15.250116 20.0123451,15.2033977 19.9805691,15.1669568 Z" id="Shape"></path>
                        </g>
                    </g>
                </g>
            </g>
        </g>
    </g>
</svg>