<?xml version="1.0" encoding="UTF-8"?>
<svg width="159px" height="113px" viewBox="0 0 159 113" version="1.1" xmlns="http://www.w3.org/2000/svg" xmlns:xlink="http://www.w3.org/1999/xlink">
    <!-- Generator: Sketch 52.6 (67491) - http://www.bohemiancoding.com/sketch -->
    <title>drag_drop_1</title>
    <desc>Created with Sketch.</desc>
    <g id="Media-Library-V1.2" stroke="none" stroke-width="1" fill="none" fill-rule="evenodd">
        <g id="8---Media-Library-(drag-and-drop)" transform="translate(-437.000000, -474.000000)">
            <g id="drag_drop_1" transform="translate(437.000000, 474.000000)">
                <path d="M103.642196,35.2787899 C103.6575,37.3576385 102.420017,39.2409528 100.506934,40.0503163 C98.5938503,40.8596798 96.3820387,40.4356502 94.9031333,38.9760038 C93.4242279,37.5163574 92.9695686,35.3086399 93.7512178,33.3825765 C94.532867,31.456513 96.3968422,30.1915321 98.473747,30.1776471 C101.307043,30.1607975 103.619227,32.4428721 103.642196,35.2787899 Z" id="Path" fill="#FFFFFF"></path>
                <path d="M21.1101909,16.3536639 L16.3667542,16.3536639 C15.8952032,16.3536639 15.5129356,16.7362911 15.5129356,17.2082857 C15.5129356,17.6802803 15.8952032,18.0629076 16.3667542,18.0629076 L21.1101909,18.0629076 C21.5817419,18.0629076 21.9640095,17.6802803 21.9640095,17.2082857 C21.9640095,16.7362911 21.5817419,16.3536639 21.1101909,16.3536639 Z M30.5970644,16.3536639 L25.8536277,16.3536639 C25.3820767,16.3536639 24.9998091,16.7362911 24.9998091,17.2082857 C24.9998091,17.6802803 25.3820767,18.0629076 25.8536277,18.0629076 L30.5970644,18.0629076 C31.0686154,18.0629076 31.4508831,17.6802803 31.4508831,17.2082857 C31.4508831,16.7362911 31.0686154,16.3536639 30.5970644,16.3536639 Z M40.0839379,16.3536639 L35.3405012,16.3536639 C34.8689502,16.3536639 34.4866826,16.7362911 34.4866826,17.2082857 C34.4866826,17.6802803 34.8689502,18.0629076 35.3405012,18.0629076 L40.0839379,18.0629076 C40.5554889,18.0629076 40.9377566,17.6802803 40.9377566,17.2082857 C40.9377566,16.7362911 40.5554889,16.3536639 40.0839379,16.3536639 Z M49.5708115,16.3536639 L44.8273747,16.3536639 C44.3558237,16.3536639 43.9735561,16.7362911 43.9735561,17.2082857 C43.9735561,17.6802803 44.3558237,18.0629076 44.8273747,18.0629076 L49.5708115,18.0629076 C50.0423625,18.0629076 50.4246301,17.6802803 50.4246301,17.2082857 C50.4246301,16.7362911 50.0423625,16.3536639 49.5708115,16.3536639 Z M59.057685,16.3536639 L54.3142482,16.3536639 C53.8426972,16.3536639 53.4604296,16.7362911 53.4604296,17.2082857 C53.4604296,17.6802803 53.8426972,18.0629076 54.3142482,18.0629076 L59.057685,18.0629076 C59.529236,18.0629076 59.9115036,17.6802803 59.9115036,17.2082857 C59.9115036,16.7362911 59.529236,16.3536639 59.057685,16.3536639 Z M11.6233174,16.3536639 L8.87212411,16.3536639 C8.1371268,16.3536717 7.40492567,16.4442464 6.69204057,16.6233445 C6.47196318,16.6784647 6.28284947,16.8189862 6.16644394,17.0138905 C6.05003841,17.2087949 6.01591249,17.4420562 6.07159905,17.6621849 C6.07488974,17.6770673 6.0793303,17.6916715 6.08488067,17.7058655 C6.19533425,18.0632237 6.52513752,18.3071537 6.89885442,18.3078992 C6.96985857,18.3073717 7.04055167,18.298447 7.10946301,18.2813109 C7.68498528,18.1352816 8.27650172,18.0619105 8.87022673,18.0629076 L11.62142,18.0629076 C12.092971,18.0629076 12.4752387,17.6802803 12.4752387,17.2082857 C12.4752387,16.7362911 12.092971,16.3536639 11.62142,16.3536639 L11.6233174,16.3536639 Z M3.50634845,19.2707731 C3.49656265,19.2590859 3.48576931,19.2482824 3.47409308,19.2384874 C3.1228096,18.9234567 2.58308915,18.9523368 2.26736277,19.3030588 C1.08793387,20.614726 0.32796178,22.2498724 0.0853818616,23.9977815 C0.0535043394,24.2220311 0.112277383,24.4497472 0.248680592,24.6304821 C0.3850838,24.8112171 0.587856257,24.9300502 0.812076372,24.9606555 L0.857613365,24.9606555 L0.931610979,24.9606555 C1.35719675,24.9599848 1.71730691,24.6457057 1.77594272,24.2237815 C1.9720744,22.8134831 2.58605045,21.4944089 3.53860382,20.4368571 C3.83670003,20.1004487 3.8225847,19.5901564 3.50634845,19.2707731 Z M0.850023866,28.0069076 C0.623088228,28.0074044 0.405729664,28.0985096 0.246154508,28.2600175 C0.0865793524,28.4215255 -0.00202224612,28.6400862 -2.32748391e-15,28.8672269 L-2.32748391e-15,33.6151261 C-2.1751535e-15,34.0871207 0.382267615,34.4697479 0.853818616,34.4697479 C1.32536962,34.4697479 1.70763723,34.0871207 1.70763723,33.6151261 L1.70763723,28.8672269 C1.70966184,28.6392537 1.62060078,28.4199206 1.46025876,28.2580012 C1.29991675,28.0960817 1.08158651,28.0049994 0.853818616,28.0050084 L0.850023866,28.0069076 Z M0.850023866,37.5027059 C0.623088228,37.5032028 0.405729664,37.5943079 0.246154508,37.7558159 C0.0865793524,37.9173238 -0.00202224612,38.1358846 -2.32748391e-15,38.3630252 L-2.32748391e-15,43.1109244 C-2.1751535e-15,43.582919 0.382267615,43.9655462 0.853818616,43.9655462 C1.32536962,43.9655462 1.70763723,43.582919 1.70763723,43.1109244 L1.70763723,38.3630252 C1.70966184,38.135052 1.62060078,37.915719 1.46025876,37.7537995 C1.29991675,37.59188 1.08158651,37.5007977 0.853818616,37.5008067 L0.850023866,37.5027059 Z M1.51789976,47.3156639 C1.28978606,47.0330992 0.908133793,46.9257643 0.566372497,47.0480589 C0.2246112,47.1703535 -0.00255764072,47.4955467 -2.33643535e-15,47.8588235 L-2.33643535e-15,52.6067227 C-2.18389488e-15,53.0787173 0.382267615,53.4613445 0.853818616,53.4613445 C1.32536962,53.4613445 1.70763723,53.0787173 1.70763723,52.6067227 L1.70763723,47.8588235 C1.70917353,47.6612349 1.64210722,47.4692448 1.51789976,47.3156639 Z M1.51789976,56.8114622 C1.28978606,56.5288975 0.908133793,56.4215627 0.566372497,56.5438573 C0.2246112,56.6661519 -0.00255764072,56.991345 -2.17360852e-15,57.3546218 L-2.17360852e-15,62.102521 C-2.21065435e-15,62.5745156 0.382267615,62.9571429 0.853818616,62.9571429 C1.32536962,62.9571429 1.70763723,62.5745156 1.70763723,62.102521 L1.70763723,57.3546218 C1.70917353,57.1570332 1.64210722,56.9650431 1.51789976,56.8114622 Z M1.51789976,66.3072605 C1.28978606,66.0246958 0.908133793,65.917361 0.566372497,66.0396556 C0.2246112,66.1619502 -0.00255764072,66.4871433 -2.21487596e-15,66.8504202 L-2.21487596e-15,71.5983193 C-2.15712864e-15,72.0703139 0.382267615,72.4529412 0.853818616,72.4529412 C1.32536962,72.4529412 1.70763723,72.0703139 1.70763723,71.5983193 L1.70763723,66.8504202 C1.70917353,66.6528315 1.64210722,66.4608414 1.51789976,66.3072605 Z M114.51605,79.3089076 C114.658864,79.4058994 114.827297,79.4581297 114.999881,79.4589412 C115.172553,79.4587108 115.341152,79.4064289 115.483711,79.3089076 L114.51605,79.3089076 Z M1.51789976,75.8030588 C1.28978606,75.5204941 0.908133793,75.4131593 0.566372497,75.5354539 C0.2246112,75.6577485 -0.00255764072,75.9829416 -2.21487596e-15,76.3462185 L-2.21487596e-15,81.0941176 C-2.15712187e-15,81.5661123 0.382267615,81.9487395 0.853818616,81.9487395 C1.32536962,81.9487395 1.70763723,81.5661123 1.70763723,81.0941176 L1.70763723,76.3462185 C1.70917353,76.1486298 1.64210722,75.9566398 1.51789976,75.8030588 Z M114.999881,82.4975966 C114.52833,82.4975966 114.146062,82.8802239 114.146062,83.3522185 L114.146062,88.1001176 C114.146062,88.5721123 114.52833,88.9547395 114.999881,88.9547395 C115.471432,88.9547395 115.853699,88.5721123 115.853699,88.1001176 L115.853699,83.3522185 C115.854205,83.125404 115.764411,82.9077337 115.604179,82.7473512 C115.443948,82.5869688 115.226482,82.4970909 114.999881,82.4975966 Z M1.51789976,85.2988571 C1.28978606,85.0162925 0.908133793,84.9089576 0.566372497,85.0312522 C0.2246112,85.1535468 -0.00255764072,85.47874 -2.21487596e-15,85.8420168 L-2.21487596e-15,90.589916 C-2.15712187e-15,91.0619106 0.382267615,91.4445378 0.853818616,91.4445378 C1.32536962,91.4445378 1.70763723,91.0619106 1.70763723,90.589916 L1.70763723,85.8420168 C1.70917353,85.6444282 1.64210722,85.4524381 1.51789976,85.2988571 Z M114.999881,91.993395 C114.52833,91.993395 114.146062,92.3760222 114.146062,92.8480168 L114.146062,97.595916 C114.146062,98.0679106 114.52833,98.4505378 114.999881,98.4505378 C115.471432,98.4505378 115.853699,98.0679106 115.853699,97.595916 L115.853699,92.8480168 C115.854205,92.6212023 115.764411,92.403532 115.604179,92.2431495 C115.443948,92.0827671 115.226482,91.9928892 114.999881,91.993395 Z M1.51789976,94.7946555 C1.28978606,94.5120908 0.908133793,94.4047559 0.566372497,94.5270505 C0.2246112,94.6493451 -0.00255764072,94.9745383 -2.21487596e-15,95.3378151 L-2.21487596e-15,100.085714 C-2.15712187e-15,100.557709 0.382267615,100.940336 0.853818616,100.940336 C1.32536962,100.940336 1.70763723,100.557709 1.70763723,100.085714 L1.70763723,95.3378151 C1.70917353,95.1402265 1.64210722,94.9482364 1.51789976,94.7946555 Z M114.999881,101.489193 C114.52833,101.489193 114.146062,101.871821 114.146062,102.343815 L114.146062,103.21363 C114.149378,104.373589 113.868597,105.516681 113.328294,106.542857 C113.112169,106.946802 113.252786,107.449478 113.647053,107.682353 L113.686897,107.705143 C113.887309,107.811297 114.12173,107.833103 114.338253,107.765732 C114.554776,107.698362 114.735534,107.547374 114.840501,107.346202 C115.505505,106.073067 115.853114,104.657867 115.853699,103.221227 L115.853699,102.351412 C115.856238,102.123285 115.767343,101.903654 115.60689,101.741622 C115.446436,101.57959 115.227806,101.488671 114.999881,101.489193 Z M3.8402864,108.326168 C2.82339763,107.32587 2.13001125,106.04299 1.84994033,104.643697 C1.76085122,104.198386 1.33870461,103.901102 0.889868735,103.967597 L0.844331742,103.967597 C0.622189935,104.012011 0.426867504,104.143152 0.301540069,104.332033 C0.176212635,104.520914 0.131201343,104.751979 0.176455847,104.974151 C0.524840922,106.706164 1.38402661,108.293845 2.64304296,109.532134 C2.80358628,109.689726 3.01965005,109.777734 3.24451074,109.777126 C3.47295909,109.778007 3.69201399,109.686191 3.85167064,109.522639 L3.88202864,109.488454 C4.17996587,109.14901 4.16165686,108.635876 3.8402864,108.318571 L3.8402864,108.326168 Z M12.1109427,110.392454 L8.87212411,110.392454 C8.42656463,110.39202 7.98198318,110.350698 7.54396181,110.269008 C7.09824908,110.186247 6.66516611,110.464979 6.55542959,110.905227 C6.55542959,110.92042 6.55542959,110.935613 6.55542959,110.950807 C6.46875901,111.414346 6.7735893,111.860548 7.23658711,111.947866 C7.78148268,112.050455 8.33474947,112.101955 8.88920048,112.101697 L12.1109427,112.101697 C12.5824937,112.101697 12.9647613,111.71907 12.9647613,111.247076 C12.9647613,110.775081 12.5824937,110.392454 12.1109427,110.392454 Z M21.5978162,110.392454 L16.8543795,110.392454 C16.3828285,110.392454 16.0005609,110.775081 16.0005609,111.247076 C16.0005609,111.71907 16.3828285,112.101697 16.8543795,112.101697 L21.5978162,112.101697 C22.0693672,112.101697 22.4516348,111.71907 22.4516348,111.247076 C22.4516348,110.775081 22.0693672,110.392454 21.5978162,110.392454 Z M31.0846897,110.392454 L26.341253,110.392454 C25.869702,110.392454 25.4874344,110.775081 25.4874344,111.247076 C25.4874344,111.71907 25.869702,112.101697 26.341253,112.101697 L31.0846897,112.101697 C31.5562407,112.101697 31.9385084,111.71907 31.9385084,111.247076 C31.9385084,110.775081 31.5562407,110.392454 31.0846897,110.392454 Z M40.5715632,110.392454 L35.8281265,110.392454 C35.3565755,110.392454 34.9743079,110.775081 34.9743079,111.247076 C34.9743079,111.71907 35.3565755,112.101697 35.8281265,112.101697 L40.5715632,112.101697 C41.0431142,112.101697 41.4253819,111.71907 41.4253819,111.247076 C41.4253819,110.775081 41.0431142,110.392454 40.5715632,110.392454 Z M50.0584368,110.392454 L45.315,110.392454 C44.843449,110.392454 44.4611814,110.775081 44.4611814,111.247076 C44.4611814,111.71907 44.843449,112.101697 45.315,112.101697 L50.0584368,112.101697 C50.5299878,112.101697 50.9122554,111.71907 50.9122554,111.247076 C50.9122554,110.775081 50.5299878,110.392454 50.0584368,110.392454 Z M59.5453103,110.392454 L54.8018735,110.392454 C54.3303225,110.392454 53.9480549,110.775081 53.9480549,111.247076 C53.9480549,111.71907 54.3303225,112.101697 54.8018735,112.101697 L59.5453103,112.101697 C60.0168613,112.101697 60.3991289,111.71907 60.3991289,111.247076 C60.3991289,110.775081 60.0168613,110.392454 59.5453103,110.392454 Z M69.0321838,110.392454 L64.288747,110.392454 C63.817196,110.392454 63.4349284,110.775081 63.4349284,111.247076 C63.4349284,111.71907 63.817196,112.101697 64.288747,112.101697 L69.0321838,112.101697 C69.5037348,112.101697 69.8860024,111.71907 69.8860024,111.247076 C69.8860024,110.775081 69.5037348,110.392454 69.0321838,110.392454 Z M78.5190573,110.392454 L73.7756205,110.392454 C73.3040695,110.392454 72.9218019,110.775081 72.9218019,111.247076 C72.9218019,111.71907 73.3040695,112.101697 73.7756205,112.101697 L78.5190573,112.101697 C78.9906083,112.101697 79.3728759,111.71907 79.3728759,111.247076 C79.3728759,110.775081 78.9906083,110.392454 78.5190573,110.392454 Z M88.0059308,110.392454 L83.262494,110.392454 C82.790943,110.392454 82.4086754,110.775081 82.4086754,111.247076 C82.4086754,111.71907 82.790943,112.101697 83.262494,112.101697 L88.0059308,112.101697 C88.4774818,112.101697 88.8597494,111.71907 88.8597494,111.247076 C88.8597494,110.775081 88.4774818,110.392454 88.0059308,110.392454 Z M97.4928043,110.392454 L92.7493675,110.392454 C92.2778165,110.392454 91.8955489,110.775081 91.8955489,111.247076 C91.8955489,111.71907 92.2778165,112.101697 92.7493675,112.101697 L97.4928043,112.101697 C97.9643553,112.101697 98.3466229,111.71907 98.3466229,111.247076 C98.3466229,110.775081 97.9643553,110.392454 97.4928043,110.392454 Z M111.552351,109.872084 C111.544831,109.857946 111.535933,109.844587 111.525788,109.832202 C111.289364,109.441407 110.786798,109.307263 110.387363,109.528336 C109.338353,110.09594 108.164561,110.392928 106.972088,110.392454 L102.228652,110.392454 C101.757101,110.392454 101.374833,110.775081 101.374833,111.247076 C101.374833,111.71907 101.757101,112.101697 102.228652,112.101697 L106.972088,112.101697 C108.448841,112.101829 109.902361,111.733701 111.201337,111.030571 C111.404056,110.924211 111.555491,110.740676 111.621521,110.521321 C111.687551,110.301965 111.662622,110.065242 111.552351,109.864487 L111.552351,109.872084 Z" id="Shape" fill="#B9C1CF" fill-rule="nonzero"></path>
                <path d="M88.5504773,81.5290252 L88.5504773,103.160454 C88.5519892,105.000388 87.8224348,106.765397 86.5226275,108.066427 C85.2228202,109.367457 83.4594694,110.097698 81.6212649,110.096185 L9.58933174,110.096185 C7.44850059,110.096689 5.39520777,109.24567 3.8814115,107.73045 C2.36761524,106.215229 1.51739633,104.160005 1.51789976,102.01716 L1.51789976,42.4215294 C1.51588291,40.581441 2.24527515,38.8161375 3.54519201,37.5149978 C4.84510887,36.213858 6.60875323,35.4837796 8.44711217,35.4857983 L61.9530788,35.4857983 L61.9530788,69.9270588 C61.9583081,75.1063412 66.1516953,79.3036733 71.3261098,79.3089076 L86.8750955,79.3089076 C87.8666188,79.5908262 88.5506805,80.4973047 88.5504773,81.5290252 Z" id="Path" fill="#FAFBFC"></path>
                <path d="M127.475119,35.0945714 C127.490417,37.173246 126.253135,39.0564348 124.340285,39.8659037 C122.427435,40.6753727 120.215777,40.251687 118.736728,38.7924343 C117.257679,37.3331817 116.802555,35.1257801 117.583607,33.1996616 C118.364659,31.2735431 120.228048,30.0080806 122.304773,29.9934286 C125.139233,29.974478 127.453193,32.2574665 127.475119,35.0945714 Z" id="Path" fill="#FFFFFF"></path>
                <path d="M98.473747,30.1776471 C95.637232,30.1997579 93.3556737,32.5192652 93.3777069,35.3584491 C93.3997401,38.197633 95.7170215,40.4813843 98.5535374,40.4593873 C101.390053,40.4373903 103.671705,38.1179747 103.649785,35.2787899 C103.640264,33.9149755 103.089328,32.6109249 102.118404,31.6540491 C101.147479,30.6971733 99.8362633,30.1660173 98.473747,30.1776471 Z M98.473747,30.1776471 C95.637232,30.1997579 93.3556737,32.5192652 93.3777069,35.3584491 C93.3997401,38.197633 95.7170215,40.4813843 98.5535374,40.4593873 C101.390053,40.4373903 103.671705,38.1179747 103.649785,35.2787899 C103.640264,33.9149755 103.089328,32.6109249 102.118404,31.6540491 C101.147479,30.6971733 99.8362633,30.1660173 98.473747,30.1776471 Z M98.473747,30.1776471 C95.637232,30.1997579 93.3556737,32.5192652 93.3777069,35.3584491 C93.3997401,38.197633 95.7170215,40.4813843 98.5535374,40.4593873 C101.390053,40.4373903 103.671705,38.1179747 103.649785,35.2787899 C103.640264,33.9149755 103.089328,32.6109249 102.118404,31.6540491 C101.147479,30.6971733 99.8362633,30.1660173 98.473747,30.1776471 Z M98.473747,30.1776471 C95.637232,30.1997579 93.3556737,32.5192652 93.3777069,35.3584491 C93.3997401,38.197633 95.7170215,40.4813843 98.5535374,40.4593873 C101.390053,40.4373903 103.671705,38.1179747 103.649785,35.2787899 C103.640264,33.9149755 103.089328,32.6109249 102.118404,31.6540491 C101.147479,30.6971733 99.8362633,30.1660173 98.473747,30.1776471 Z M98.473747,30.1776471 C95.637232,30.1997579 93.3556737,32.5192652 93.3777069,35.3584491 C93.3997401,38.197633 95.7170215,40.4813843 98.5535374,40.4593873 C101.390053,40.4373903 103.671705,38.1179747 103.649785,35.2787899 C103.640264,33.9149755 103.089328,32.6109249 102.118404,31.6540491 C101.147479,30.6971733 99.8362633,30.1660173 98.473747,30.1776471 Z M98.473747,30.1776471 C95.637232,30.1997579 93.3556737,32.5192652 93.3777069,35.3584491 C93.3997401,38.197633 95.7170215,40.4813843 98.5535374,40.4593873 C101.390053,40.4373903 103.671705,38.1179747 103.649785,35.2787899 C103.640264,33.9149755 103.089328,32.6109249 102.118404,31.6540491 C101.147479,30.6971733 99.8362633,30.1660173 98.473747,30.1776471 Z M98.473747,30.1776471 C95.637232,30.1997579 93.3556737,32.5192652 93.3777069,35.3584491 C93.3997401,38.197633 95.7170215,40.4813843 98.5535374,40.4593873 C101.390053,40.4373903 103.671705,38.1179747 103.649785,35.2787899 C103.640264,33.9149755 103.089328,32.6109249 102.118404,31.6540491 C101.147479,30.6971733 99.8362633,30.1660173 98.473747,30.1776471 Z M98.473747,30.1776471 C95.637232,30.1997579 93.3556737,32.5192652 93.3777069,35.3584491 C93.3997401,38.197633 95.7170215,40.4813843 98.5535374,40.4593873 C101.390053,40.4373903 103.671705,38.1179747 103.649785,35.2787899 C103.640264,33.9149755 103.089328,32.6109249 102.118404,31.6540491 C101.147479,30.6971733 99.8362633,30.1660173 98.473747,30.1776471 Z M98.473747,30.1776471 C95.637232,30.1997579 93.3556737,32.5192652 93.3777069,35.3584491 C93.3997401,38.197633 95.7170215,40.4813843 98.5535374,40.4593873 C101.390053,40.4373903 103.671705,38.1179747 103.649785,35.2787899 C103.640264,33.9149755 103.089328,32.6109249 102.118404,31.6540491 C101.147479,30.6971733 99.8362633,30.1660173 98.473747,30.1776471 Z M98.473747,30.1776471 C95.637232,30.1997579 93.3556737,32.5192652 93.3777069,35.3584491 C93.3997401,38.197633 95.7170215,40.4813843 98.5535374,40.4593873 C101.390053,40.4373903 103.671705,38.1179747 103.649785,35.2787899 C103.640264,33.9149755 103.089328,32.6109249 102.118404,31.6540491 C101.147479,30.6971733 99.8362633,30.1660173 98.473747,30.1776471 Z M98.473747,30.1776471 C95.637232,30.1997579 93.3556737,32.5192652 93.3777069,35.3584491 C93.3997401,38.197633 95.7170215,40.4813843 98.5535374,40.4593873 C101.390053,40.4373903 103.671705,38.1179747 103.649785,35.2787899 C103.640264,33.9149755 103.089328,32.6109249 102.118404,31.6540491 C101.147479,30.6971733 99.8362633,30.1660173 98.473747,30.1776471 Z M98.473747,30.1776471 C95.637232,30.1997579 93.3556737,32.5192652 93.3777069,35.3584491 C93.3997401,38.197633 95.7170215,40.4813843 98.5535374,40.4593873 C101.390053,40.4373903 103.671705,38.1179747 103.649785,35.2787899 C103.640264,33.9149755 103.089328,32.6109249 102.118404,31.6540491 C101.147479,30.6971733 99.8362633,30.1660173 98.473747,30.1776471 Z M98.473747,30.1776471 C95.637232,30.1997579 93.3556737,32.5192652 93.3777069,35.3584491 C93.3997401,38.197633 95.7170215,40.4813843 98.5535374,40.4593873 C101.390053,40.4373903 103.671705,38.1179747 103.649785,35.2787899 C103.640264,33.9149755 103.089328,32.6109249 102.118404,31.6540491 C101.147479,30.6971733 99.8362633,30.1660173 98.473747,30.1776471 Z M98.473747,30.1776471 C95.637232,30.1997579 93.3556737,32.5192652 93.3777069,35.3584491 C93.3997401,38.197633 95.7170215,40.4813843 98.5535374,40.4593873 C101.390053,40.4373903 103.671705,38.1179747 103.649785,35.2787899 C103.640264,33.9149755 103.089328,32.6109249 102.118404,31.6540491 C101.147479,30.6971733 99.8362633,30.1660173 98.473747,30.1776471 Z M98.473747,30.1776471 C95.637232,30.1997579 93.3556737,32.5192652 93.3777069,35.3584491 C93.3997401,38.197633 95.7170215,40.4813843 98.5535374,40.4593873 C101.390053,40.4373903 103.671705,38.1179747 103.649785,35.2787899 C103.640264,33.9149755 103.089328,32.6109249 102.118404,31.6540491 C101.147479,30.6971733 99.8362633,30.1660173 98.473747,30.1776471 Z M98.473747,30.1776471 C95.637232,30.1997579 93.3556737,32.5192652 93.3777069,35.3584491 C93.3997401,38.197633 95.7170215,40.4813843 98.5535374,40.4593873 C101.390053,40.4373903 103.671705,38.1179747 103.649785,35.2787899 C103.640264,33.9149755 103.089328,32.6109249 102.118404,31.6540491 C101.147479,30.6971733 99.8362633,30.1660173 98.473747,30.1776471 Z M98.473747,30.1776471 C95.637232,30.1997579 93.3556737,32.5192652 93.3777069,35.3584491 C93.3997401,38.197633 95.7170215,40.4813843 98.5535374,40.4593873 C101.390053,40.4373903 103.671705,38.1179747 103.649785,35.2787899 C103.640264,33.9149755 103.089328,32.6109249 102.118404,31.6540491 C101.147479,30.6971733 99.8362633,30.1660173 98.473747,30.1776471 Z M98.473747,30.1776471 C95.637232,30.1997579 93.3556737,32.5192652 93.3777069,35.3584491 C93.3997401,38.197633 95.7170215,40.4813843 98.5535374,40.4593873 C101.390053,40.4373903 103.671705,38.1179747 103.649785,35.2787899 C103.640264,33.9149755 103.089328,32.6109249 102.118404,31.6540491 C101.147479,30.6971733 99.8362633,30.1660173 98.473747,30.1776471 Z M98.473747,30.1776471 C95.637232,30.1997579 93.3556737,32.5192652 93.3777069,35.3584491 C93.3997401,38.197633 95.7170215,40.4813843 98.5535374,40.4593873 C101.390053,40.4373903 103.671705,38.1179747 103.649785,35.2787899 C103.640264,33.9149755 103.089328,32.6109249 102.118404,31.6540491 C101.147479,30.6971733 99.8362633,30.1660173 98.473747,30.1776471 Z M98.473747,30.1776471 C95.637232,30.1997579 93.3556737,32.5192652 93.3777069,35.3584491 C93.3997401,38.197633 95.7170215,40.4813843 98.5535374,40.4593873 C101.390053,40.4373903 103.671705,38.1179747 103.649785,35.2787899 C103.640264,33.9149755 103.089328,32.6109249 102.118404,31.6540491 C101.147479,30.6971733 99.8362633,30.1660173 98.473747,30.1776471 Z M98.473747,30.1776471 C95.637232,30.1997579 93.3556737,32.5192652 93.3777069,35.3584491 C93.3997401,38.197633 95.7170215,40.4813843 98.5535374,40.4593873 C101.390053,40.4373903 103.671705,38.1179747 103.649785,35.2787899 C103.640264,33.9149755 103.089328,32.6109249 102.118404,31.6540491 C101.147479,30.6971733 99.8362633,30.1660173 98.473747,30.1776471 Z M98.473747,30.1776471 C95.637232,30.1997579 93.3556737,32.5192652 93.3777069,35.3584491 C93.3997401,38.197633 95.7170215,40.4813843 98.5535374,40.4593873 C101.390053,40.4373903 103.671705,38.1179747 103.649785,35.2787899 C103.640264,33.9149755 103.089328,32.6109249 102.118404,31.6540491 C101.147479,30.6971733 99.8362633,30.1660173 98.473747,30.1776471 Z M98.473747,30.1776471 C95.637232,30.1997579 93.3556737,32.5192652 93.3777069,35.3584491 C93.3997401,38.197633 95.7170215,40.4813843 98.5535374,40.4593873 C101.390053,40.4373903 103.671705,38.1179747 103.649785,35.2787899 C103.640264,33.9149755 103.089328,32.6109249 102.118404,31.6540491 C101.147479,30.6971733 99.8362633,30.1660173 98.473747,30.1776471 Z M98.473747,30.1776471 C95.637232,30.1997579 93.3556737,32.5192652 93.3777069,35.3584491 C93.3997401,38.197633 95.7170215,40.4813843 98.5535374,40.4593873 C101.390053,40.4373903 103.671705,38.1179747 103.649785,35.2787899 C103.640264,33.9149755 103.089328,32.6109249 102.118404,31.6540491 C101.147479,30.6971733 99.8362633,30.1660173 98.473747,30.1776471 Z M98.473747,30.1776471 C95.637232,30.1997579 93.3556737,32.5192652 93.3777069,35.3584491 C93.3997401,38.197633 95.7170215,40.4813843 98.5535374,40.4593873 C101.390053,40.4373903 103.671705,38.1179747 103.649785,35.2787899 C103.640264,33.9149755 103.089328,32.6109249 102.118404,31.6540491 C101.147479,30.6971733 99.8362633,30.1660173 98.473747,30.1776471 Z M98.473747,30.1776471 C95.637232,30.1997579 93.3556737,32.5192652 93.3777069,35.3584491 C93.3997401,38.197633 95.7170215,40.4813843 98.5535374,40.4593873 C101.390053,40.4373903 103.671705,38.1179747 103.649785,35.2787899 C103.640264,33.9149755 103.089328,32.6109249 102.118404,31.6540491 C101.147479,30.6971733 99.8362633,30.1660173 98.473747,30.1776471 Z M98.473747,30.1776471 C95.637232,30.1997579 93.3556737,32.5192652 93.3777069,35.3584491 C93.3997401,38.197633 95.7170215,40.4813843 98.5535374,40.4593873 C101.390053,40.4373903 103.671705,38.1179747 103.649785,35.2787899 C103.640264,33.9149755 103.089328,32.6109249 102.118404,31.6540491 C101.147479,30.6971733 99.8362633,30.1660173 98.473747,30.1776471 Z M98.473747,30.1776471 C95.637232,30.1997579 93.3556737,32.5192652 93.3777069,35.3584491 C93.3997401,38.197633 95.7170215,40.4813843 98.5535374,40.4593873 C101.390053,40.4373903 103.671705,38.1179747 103.649785,35.2787899 C103.640264,33.9149755 103.089328,32.6109249 102.118404,31.6540491 C101.147479,30.6971733 99.8362633,30.1660173 98.473747,30.1776471 Z M98.473747,30.1776471 C95.637232,30.1997579 93.3556737,32.5192652 93.3777069,35.3584491 C93.3997401,38.197633 95.7170215,40.4813843 98.5535374,40.4593873 C101.390053,40.4373903 103.671705,38.1179747 103.649785,35.2787899 C103.640264,33.9149755 103.089328,32.6109249 102.118404,31.6540491 C101.147479,30.6971733 99.8362633,30.1660173 98.473747,30.1776471 Z M98.473747,30.1776471 C95.637232,30.1997579 93.3556737,32.5192652 93.3777069,35.3584491 C93.3997401,38.197633 95.7170215,40.4813843 98.5535374,40.4593873 C101.390053,40.4373903 103.671705,38.1179747 103.649785,35.2787899 C103.640264,33.9149755 103.089328,32.6109249 102.118404,31.6540491 C101.147479,30.6971733 99.8362633,30.1660173 98.473747,30.1776471 Z M98.473747,30.1776471 C95.637232,30.1997579 93.3556737,32.5192652 93.3777069,35.3584491 C93.3997401,38.197633 95.7170215,40.4813843 98.5535374,40.4593873 C101.390053,40.4373903 103.671705,38.1179747 103.649785,35.2787899 C103.640264,33.9149755 103.089328,32.6109249 102.118404,31.6540491 C101.147479,30.6971733 99.8362633,30.1660173 98.473747,30.1776471 Z" id="Shape" fill="#FFFFFF" fill-rule="nonzero"></path>
                <path d="M103.642196,35.2787899 C103.6575,37.3576385 102.420017,39.2409528 100.506934,40.0503163 C98.5938503,40.8596798 96.3820387,40.4356502 94.9031333,38.9760038 C93.4242279,37.5163574 92.9695686,35.3086399 93.7512178,33.3825765 C94.532867,31.456513 96.3968422,30.1915321 98.473747,30.1776471 C101.307043,30.1607975 103.619227,32.4428721 103.642196,35.2787899 Z" id="Path" fill="#B9C1CF"></path>
                <path d="M127.475119,35.0945714 C127.490417,37.173246 126.253135,39.0564348 124.340285,39.8659037 C122.427435,40.6753727 120.215777,40.251687 118.736728,38.7924343 C117.257679,37.3331817 116.802555,35.1257801 117.583607,33.1996616 C118.364659,31.2735431 120.228048,30.0080806 122.304773,29.9934286 C125.139233,29.974478 127.453193,32.2574665 127.475119,35.0945714 Z" id="Path" fill="#B9C1CF"></path>
                <path d="M158.893747,69.9270588 L158.893747,9.38184874 C158.887467,4.20003666 154.690072,0.00209154389 149.513126,0 L71.3299045,0 C66.15549,0.00523424589 61.9621028,4.2025664 61.9568735,9.38184874 L61.9568735,69.9270588 C61.9621028,75.1063412 66.15549,79.3036733 71.3299045,79.3089076 L121.872172,79.3089076 L128.201814,105.739513 C128.331831,106.289406 128.76092,106.718675 129.310364,106.848527 C129.859809,106.978379 130.435408,106.786551 130.797422,106.352941 L138.766396,96.8324538 C138.82358,96.9222479 138.886981,97.00792 138.956134,97.0888403 L151.668544,111.953563 C152.174263,112.546209 152.894771,112.913112 153.67111,112.973325 C154.44745,113.033538 155.215825,112.782114 155.806718,112.274521 L156.040095,112.084605 C156.63198,111.577456 156.998299,110.855695 157.058436,110.078159 C157.118574,109.300623 156.867602,108.531028 156.360752,107.938739 L143.648341,93.0740168 C143.578446,92.991127 143.50301,92.913082 143.422554,92.8404202 L154.772649,86.295916 C155.256626,86.0126483 155.541604,85.4821715 155.510815,84.9218454 C155.480026,84.3615194 155.138645,83.8655247 154.626551,83.6370924 L144.779177,79.3203025 L149.513126,79.3203025 C154.694514,79.3182054 158.893747,75.1133211 158.893747,69.9270588 Z M138.28636,76.4601681 L121.93858,69.2946387 C121.420799,69.0692852 120.82035,69.1551062 120.386275,69.5165066 C119.952199,69.8779071 119.758541,70.4532403 119.885621,71.0038824 L121.191014,76.4525714 L71.3299045,76.4525714 C69.3496417,76.4527867 67.4766243,75.552082 66.2392482,74.0045546 C65.3094562,72.8480289 64.8032522,71.4077435 64.8048329,69.9232605 L64.8048329,9.38184874 C64.809013,5.77618786 67.7276339,2.85397177 71.3299045,2.8487395 L149.513126,2.8487395 C153.116446,2.85292347 156.036765,5.77514035 156.041993,9.38184874 L156.041993,69.9270588 C156.036765,73.5337672 153.116446,76.4559841 149.513126,76.4601681 L138.28636,76.4601681 Z" id="Shape" fill="#B9C1CF" fill-rule="nonzero"></path>
                <path d="M120.445346,42.2221176 C120.080891,45.1978887 118.393589,47.849865 115.853699,49.4389244 C115.577284,49.6103585 115.292307,49.7675601 114.999881,49.909916 C114.726691,50.0439282 114.446772,50.1637347 114.161241,50.2688571 C113.340525,50.5787955 112.48003,50.7706228 111.605477,50.838605 C111.394869,50.8537983 111.18426,50.861395 110.975549,50.8632941 C106.205549,50.897479 102.029427,47.2890756 101.319809,42.3759496 C101.210011,41.5345353 101.79587,40.760906 102.634894,40.6393746 C103.473918,40.5178432 104.254851,41.0934946 104.387864,41.9315462 C104.886874,45.3880168 108.019439,47.9917647 111.3721,47.7429748 C112.707032,47.6332082 113.974519,47.1094052 114.997983,46.2445378 C115.308254,45.9823972 115.59404,45.6925287 115.851802,45.378521 C116.683324,44.3674417 117.209842,43.1401591 117.369702,41.8403866 C117.437488,41.2901195 117.793414,40.8178495 118.303405,40.6014761 C118.813395,40.3851028 119.399971,40.4574983 119.842176,40.7913921 C120.28438,41.1252858 120.51503,41.6699514 120.447243,42.2202185 L120.445346,42.2221176 Z" id="Path" fill="#B9C1CF"></path>
            </g>
        </g>
    </g>
</svg>