<?xml version="1.0" encoding="UTF-8"?>
<svg width="130px" height="104px" viewBox="0 0 130 104" version="1.1" xmlns="http://www.w3.org/2000/svg" xmlns:xlink="http://www.w3.org/1999/xlink">
    <!-- Generator: Sketch 52.6 (67491) - http://www.bohemiancoding.com/sketch -->
    <title>Group 6</title>
    <desc>Created with Sketch.</desc>
    <g id="Media-Library-V1.2" stroke="none" stroke-width="1" fill="none" fill-rule="evenodd">
        <g id="2-Media-Library-Page-Empty" transform="translate(-535.000000, -404.000000)">
            <g id="background-blocks" transform="translate(193.000000, 66.000000)">
                <g id="Group-6" transform="translate(342.000000, 338.000000)">
                    <path d="M15.4603,8 L93.5397,8 C96.0030557,8 98,9.99694433 98,12.4603 L98,105.5397 C98,108.003056 96.0030557,110 93.5397,110 L15.4603,110 C12.9969443,110 11,108.003056 11,105.5397 L11,12.4603 C11,9.99694433 12.9969443,8 15.4603,8 Z" id="Rectangle" fill="#FAFBFC" transform="translate(54.500000, 59.000000) rotate(90.000000) translate(-54.500000, -59.000000) "></path>
                    <path d="M105.276974,86.7750405 C106.101507,85.5363037 106.229634,83.9600932 105.615993,82.6044304 L88.4045025,43.8414582 C87.647988,42.1383675 85.9481845,41.045878 83.9690043,40.9909396 C81.9898241,40.9360012 80.2021269,41.9405893 79.3404536,43.6154259 L72.9681526,56.0346458 C72.7264446,56.5055465 72.1833865,56.6515257 71.7376393,56.6326897 C71.3201437,56.6138536 70.8084762,56.431772 70.6232714,55.9749984 L58.1941453,25.4009886 C57.4548956,23.5833121 55.6389468,22.4186178 53.5546079,22.4186178 L53.4824095,22.4186178 C51.3760971,22.4453022 49.5585788,23.6586562 48.8679846,25.5092958 L27.2837768,82.8367414 C26.7702793,84.1859843 26.9614921,85.7022864 27.7938748,86.881778 C28.7536759,88.2292765 30.3131138,89.0205005 31.9672611,88.9992613 L101.026681,88.9992613 C102.729353,89.0284559 104.330268,88.1906811 105.276974,86.7750405 Z M54.7380353,26.8136906 L67.1671613,57.3877004 C67.8781595,59.1378811 69.5669762,60.2790304 71.5728384,60.3700712 C73.6132304,60.4579726 75.4119144,59.4549542 76.2814352,57.7487242 L82.6537363,45.3185166 C82.8907356,44.8586036 83.4385024,44.7126244 83.8591371,44.7189031 C84.2797717,44.7251818 84.7898697,44.904124 84.9907698,45.3561887 L102.206969,84.1144518 C102.305882,84.318254 102.283511,84.5601203 102.148897,84.7423194 C101.888407,85.0956227 101.468196,85.2948421 101.02982,85.2728674 L31.9704001,85.2728674 C31.5431713,85.2908309 31.1337102,85.1007074 30.8717275,84.7627251 C30.7369099,84.5907063 30.7034533,84.3600748 30.7838337,84.1568329 L52.3617634,26.8215389 C52.6003323,26.1936714 53.3803899,26.1497207 53.534204,26.1465813 L53.5498993,26.1465813 C53.7351042,26.1465813 54.4869101,26.185823 54.7380353,26.8136906 Z M92.4068098,25.901713 C92.4068098,21.5443123 88.7968856,18 84.3613874,18 C79.9258892,18 76.3175345,21.5443123 76.3175345,25.901713 C76.3175345,30.2591137 79.9274587,33.803426 84.3613874,33.803426 C88.795316,33.803426 92.3989621,30.2496957 92.3989621,25.8938646 L92.4068098,25.901713 Z M89.2677453,25.901713 C89.2677453,28.5261993 87.0704001,30.6625186 84.3629569,30.6625186 C81.6555137,30.6625186 79.4581686,28.5261993 79.4581686,25.901713 C79.4581686,23.2772267 81.6555137,21.1409074 84.3629569,21.1409074 C87.0704001,21.1409074 89.2583281,23.2678087 89.2583281,25.8938646 L89.2677453,25.901713 Z" id="Shape" fill="#B9C1CF" fill-rule="nonzero"></path>
                    <path d="M57.0291595,71.9998914 C54.8203286,72.0160007 53.0165639,70.238625 53.0001133,68.0297899 C52.9836627,65.8209548 54.7607543,64.01691 56.9695801,64.000118 C59.1784059,63.9833261 60.9827198,65.7601444 60.999853,67.9689743 C61.0089512,69.0303873 60.5954588,70.0518242 59.8505701,70.8080106 C59.1056815,71.5641969 58.090586,71.9930154 57.0291595,71.9998914 Z" id="Path" fill="#B9C1CF"></path>
                    <path d="M74.9738648,63.0000876 C73.3552095,63.0106888 71.9025057,63.9958093 71.2937595,65.4956736 C70.6850134,66.9955378 71.0402416,68.7144417 72.1936521,69.8501379 C73.3470625,70.9858341 75.0712558,71.3144157 76.561516,70.682527 C78.0517761,70.0506384 79.0142926,68.5828588 78.9998395,66.9642307 C78.9801477,64.758927 77.1792056,62.985644 74.9738648,63.0000876 Z" id="Path" fill="#B9C1CF"></path>
                    <path d="M66.0695169,78.9997758 C62.5826439,79.0287741 59.52953,76.2417147 59.0117683,72.4622688 C58.9223556,71.8087547 59.3521269,71.2025214 59.9716893,71.108209 C60.5912517,71.0138965 61.1659896,71.4672191 61.2554023,72.1207332 C61.6204319,74.7821333 63.9098856,76.7926825 66.3597079,76.5961384 C68.6094512,76.4173155 70.4529272,74.5018163 70.7415908,72.0482374 C70.7915186,71.6243368 71.0520531,71.2607322 71.4250535,71.0943901 C71.7980539,70.928048 72.2268526,70.9842396 72.5499252,71.2417982 C72.8729978,71.4993567 73.0412619,71.9191529 72.9913341,72.3430535 C72.5697936,75.9259553 69.8526902,78.7162368 66.5292404,78.9804436 C66.3749811,78.9917207 66.222249,78.9997758 66.0695169,78.9997758 Z" id="Path" fill="#B9C1CF" transform="translate(66.000000, 75.000000) rotate(-180.000000) translate(-66.000000, -75.000000) "></path>
                    <path d="M120.084812,104 L9.91518769,104 C4.44169245,103.993961 0.00605906569,99.5731624 0,94.1179729 L0,14.269691 C0.00865600397,6.39233448 6.41378488,0.00862705464 14.317575,0 L120.084812,0 C125.558308,0.00603880162 129.993941,4.42683756 130,9.88202712 L130,94.1179729 C129.993941,99.5731624 125.558308,103.993961 120.084812,104 Z M14.317575,3.91336414 C8.58161071,3.9202643 3.93341931,8.55291019 3.92649599,14.269691 L3.92649599,94.1179729 C3.93082223,97.4125868 6.60951824,100.082324 9.91518769,100.086636 L120.084812,100.086636 C123.39084,100.083185 126.070041,97.4129439 126.073504,94.1179729 L126.073504,9.88202712 C126.070041,6.58705615 123.39084,3.91681528 120.084812,3.91336414 L14.317575,3.91336414 Z" id="Shape" fill="#B9C1CF" fill-rule="nonzero"></path>
                </g>
            </g>
        </g>
    </g>
</svg>