<svg xmlns="http://www.w3.org/2000/svg" viewBox="0 0 46.44 50.42"><defs><style>.cls-1{fill:#d2d9e1;opacity:0.45;}.cls-2{fill:#edf0f3;}.cls-3{fill:#7887a2;}.cls-4{fill:#adadad;}.cls-5{fill:#6d7c98;}</style></defs><title>existing_icon</title><g id="Layer_2" data-name="Layer 2"><g id="Layer_1-2" data-name="Layer 1"><path class="cls-1" d="M42.21,44.84v0h0Z"/><polygon class="cls-2" points="38.7 13.46 33.92 13.46 33.92 8.41 38.7 13.46"/><path class="cls-2" d="M39.31,15V41a5.93,5.93,0,0,0-2.4,4.78,2.09,2.09,0,0,0,0,.25H22a1.18,1.18,0,0,1-1.18-1.18V40.72A5.24,5.24,0,0,0,22,36.93a5.65,5.65,0,0,0-1.12-2.75V8.37a1.16,1.16,0,0,1,.54-1h11v6.85a.77.77,0,0,0,.77.75Z"/><polygon class="cls-1" points="44.31 7.6 39.52 7.6 39.52 7.19 43.91 7.19 44.31 7.6"/><path class="cls-2" d="M44.91,9.12V40.17h0a5.86,5.86,0,0,0-4,0h-.05V14.07a1.42,1.42,0,0,0-.38-1L34.84,7.19H38V8.36a.77.77,0,0,0,.77.76Z"/><path class="cls-3" d="M33.46,6A1.53,1.53,0,0,0,33,5.88h.16l.13,0h0Z"/><path class="cls-4" d="M42.19,44.87h0v0Zm0,0h0v0Zm0,0h0v0Z"/><path class="cls-5" d="M5,42.54a5,5,0,0,1-2.73-.8,5.19,5.19,0,0,1,.44-8.86,5.32,5.32,0,0,1,5,.27.74.74,0,0,1,.22,1,.73.73,0,0,1-1,.22h0a3.89,3.89,0,0,0-3.55-.2,3.78,3.78,0,0,0-1.9,2.88,3.68,3.68,0,0,0,1.59,3.44,3.7,3.7,0,0,0,4.17-.17.73.73,0,1,1,.87,1.18A5.28,5.28,0,0,1,5,42.54Z"/><path class="cls-5" d="M20.86,40.72a4.78,4.78,0,0,1-1.13,1,5,5,0,0,1-2.73.8,5.24,5.24,0,0,1-3.11-1,.72.72,0,0,1-.16-1,.74.74,0,0,1,1-.16,3.58,3.58,0,0,0,5.76-3.27,3.8,3.8,0,0,0-1.9-2.88,3.89,3.89,0,0,0-3.55.2.74.74,0,0,1-.79-1.24,5.32,5.32,0,0,1,5-.27,4.48,4.48,0,0,1,1.57,1.3A5.65,5.65,0,0,1,22,36.93,5.24,5.24,0,0,1,20.86,40.72Z"/><path class="cls-5" d="M37.8,48.91h-25a1.11,1.11,0,0,1-1.09-1.09v-.28H37.17a6.19,6.19,0,0,1-.25-1.5H11.73V40H10.21v7.8a2.6,2.6,0,0,0,2.61,2.6h25.4A2.37,2.37,0,0,0,39,50.3,5.62,5.62,0,0,1,37.8,48.91Zm-4.49-43h0l-.08,0H33a1.53,1.53,0,0,1,.47.11Zm-.11,0h-.05l.13,0Z"/><path class="cls-5" d="M46.06,7.25,39.61.44a1.57,1.57,0,0,0-.4-.29l-.06,0a1.79,1.79,0,0,0-.47-.1H17.21a1.39,1.39,0,0,0-1.39,1.39V5.86H11.6a1.4,1.4,0,0,0-1.39,1.39V34.87h1.52V7.38H32.39v6.85a.77.77,0,0,0,.77.75h6.15V41a5.65,5.65,0,0,1,1.57-.84h-.05V14.07a1.42,1.42,0,0,0-.38-1L34.84,7.19,34,6.3A1.33,1.33,0,0,0,33.61,6l-.06,0-.12,0-.12,0,.15.08A1.53,1.53,0,0,0,33,5.88H17.34V1.51H38V8.36a.77.77,0,0,0,.77.76h6.14V40.17h0a1.84,1.84,0,0,1,.25.09,5.71,5.71,0,0,1,1.32.75V8.2A1.39,1.39,0,0,0,46.06,7.25ZM33.92,8.41l4.78,5.05H33.92Zm5.6-.81v-5l4.39,4.64.4.41Z"/><path class="cls-5" d="M33.55,6l-.12,0-.12,0h0l-.13,0h0A.69.69,0,0,1,33.55,6Z"/><path class="cls-5" d="M16.06,37.45a.83.83,0,0,1-.83.83H6.75a.83.83,0,0,1,0-1.66h8.48A.83.83,0,0,1,16.06,37.45Z"/><path class="cls-5" d="M45.55,45.06H43.68V42.85a.86.86,0,0,0-.86-.86h-.11a.85.85,0,0,0-.75.85v2.21H40.19a.85.85,0,0,0-.85.86.28.28,0,0,0,0,.09,0,0,0,0,0,0,0,.84.84,0,0,0,.83.74H42v1.95a.82.82,0,0,0,.38.71h0a.86.86,0,0,0,1.26-.39.88.88,0,0,0,.07-.32V46.78h1.87a.86.86,0,0,0,0-1.72Zm-3.34-.19h0l0,0Z"/><path class="cls-5" d="M42.21,44.84v0h0Z"/></g></g></svg>