<?xml version="1.0" encoding="UTF-8"?>
<svg width="34px" height="39px" viewBox="0 0 34 39" version="1.1" xmlns="http://www.w3.org/2000/svg" xmlns:xlink="http://www.w3.org/1999/xlink">
    <!-- Generator: Sketch 52.2 (67145) - http://www.bohemiancoding.com/sketch -->
    <title>existing_icon</title>
    <desc>Created with Sketch.</desc>
    <g id="Symbols" stroke="none" stroke-width="1" fill="none" fill-rule="evenodd">
        <g id="List-widget-items:HOVER" transform="translate(-204.000000, -12.000000)">
            <g id="List-widget-items-">
                <g id="Group-2">
                    <g id="existing_icon" transform="translate(204.835211, 12.994001)">
                        <path d="M25.8002293,34.5312297 L15.2953162,35.4303841 C14.8356176,35.4303841 14.4630114,35.0277332 14.4630114,34.5312297 L14.4630114,6.27969392 C14.4630114,5.78319047 14.8356176,5.38075239 15.2953162,5.38075239 L30.4535505,5.38075239 C30.9132491,5.38075239 31.2858553,5.78319047 31.2858553,6.27969392 L31.1647888,30.0059992 C28.9629,29.5064826 28.1647888,30.1732516 27.1647888,30.9100574 C26.1647888,31.6468631 25.8002293,33.0059992 25.8002293,34.0059992 C25.8002293,34.1047622 25.8002293,34.279839 25.8002293,34.5312297 Z" id="Fill-1" fill="#EDF0F3"></path>
                        <path d="M27.2058078,37.5167839 C27.1358579,37.4537899 27.0661051,37.3907959 27.0018695,37.3216302 L26.9841357,37.3088611 C26.9725102,37.2901332 26.9608847,37.2775769 26.9492593,37.2714052 C26.9435451,37.2648079 26.9435451,37.2648079 26.9435451,37.2524645 C26.8852207,37.1956422 26.8268963,37.1200919 26.7744831,37.0443289 C26.7043362,36.9562224 26.6402976,36.8742876 26.5817762,36.7797966 C26.5585252,36.7421279 26.5352743,36.7044592 26.5118263,36.6665776 C26.4828612,36.6791339 26.4535019,36.6791339 26.4243397,36.6791339 L8.88741603,36.6791339 C8.47343105,36.6791339 8.1291989,36.3073415 8.1291989,35.8602118 L8.1291989,35.6588863 L26.0276944,35.6588863 C26.0219802,35.6333482 26.0103548,35.602064 26.0044435,35.5769515 C25.8996172,35.2428279 25.8294703,34.8901892 25.8178448,34.5247813 L8.1291989,34.5247813 L8.1291989,30.0651886 L7.07955685,30.0651886 L7.07955685,35.8602118 C7.07955685,36.9436661 7.89018711,37.813026 8.88741603,37.813026 L26.4243397,37.813026 C26.7277842,37.813026 27.0192091,37.7310912 27.2757577,37.5799907 C27.2525067,37.56105 27.2292558,37.5357247 27.2058078,37.5167839 Z M27.3283678,5.70076621 L27.3283678,1.9087823 L30.6294103,5.70076621 L27.3283678,5.70076621 Z M23.4559039,6.305381 L26.7567494,10.0973649 L23.4559039,10.0973649 L23.4559039,6.305381 Z M31.8424001,5.43623394 L27.3866922,0.327760379 C27.3108311,0.239441077 27.2117191,0.16389083 27.1183212,0.11345306 C27.1009815,0.100896822 27.0832478,0.0883405839 27.0716223,0.0821688736 C26.966599,0.0442873416 26.8617727,0.0125775199 26.7451239,0.00640580962 C26.7277842,0.000234099355 26.7102475,0.000234099355 26.6869965,0.000234099355 L11.9143733,0.000234099355 C11.3835425,0.000234099355 10.9518237,0.459920106 10.9518237,1.03942242 L10.9518237,4.3968328 L8.04171231,4.3968328 C7.51088151,4.3968328 7.07955685,4.86290334 7.07955685,5.43623394 L7.07955685,26.4181335 L8.1291989,26.4181335 L8.1291989,5.53689666 L22.4060648,5.53689666 L22.4060648,10.6706955 C22.4060648,10.979281 22.6452737,11.2310442 22.9307873,11.2310442 L27.1823598,11.2310442 L27.1823598,30.9471047 C27.2235416,30.9030515 27.2702405,30.86517 27.3165453,30.8272884 C27.3226536,30.8211167 27.3283678,30.8211167 27.3342791,30.8211167 C27.5851134,30.5816969 27.8708241,30.3863304 28.1797858,30.2541707 C28.2558439,30.2162891 28.1498354,30.2692807 28.2258936,30.231612 C28.2489475,30.2252275 28.2119036,30.2407631 28.2353516,30.2341658 L28.232396,30.1217981 L28.232396,10.5447075 C28.232396,10.2801752 28.1330868,10.0281992 27.9697391,9.83283265 L23.5140313,4.72435908 C23.4383672,4.6362526 23.3392551,4.56687406 23.2458573,4.51005177 C23.2283206,4.50388006 23.2111779,4.491111 23.1991584,4.48493929 C23.0943321,4.44088605 22.9893088,4.40938904 22.872857,4.40300451 C22.8551232,4.3968328 22.8377836,4.3968328 22.8143356,4.3968328 L12.0016628,4.3968328 L12.0016628,1.13391343 L26.2785287,1.13391343 L26.2785287,6.26749947 C26.2785287,6.5762978 26.5177376,6.84083007 26.8034483,6.84083007 L31.0550208,6.84083007 L31.0550208,30.0651886 C31.08438,30.0715732 31.1074339,30.0777449 31.1306849,30.0841294 C31.1775808,30.1030702 31.2242797,30.1156264 31.2648704,30.1407389 C31.3176776,30.1596796 31.3698937,30.1786204 31.4223068,30.2037329 C31.5097934,30.2414016 31.5858516,30.2792831 31.667624,30.3233364 C31.7255543,30.3550462 31.7840757,30.3927149 31.8424001,30.4303836 C31.9237784,30.4808214 31.9939253,30.531472 32.0697864,30.5816969 C32.0816089,30.5878686 32.0930374,30.6006377 32.1050569,30.6068094 L32.1050569,6.15428051 C32.1050569,5.87697918 32.0116591,5.63138768 31.8424001,5.43623394 Z" id="Fill-3" fill="#7887A2"></path>
                        <path d="M23.2005179,4.48413058 C23.0935242,4.43773635 22.9869246,4.40900597 22.8744136,4.4032599 C22.8905711,4.39751382 22.9120486,4.39751382 22.9335262,4.39751382 C23.0292886,4.39751382 23.1203219,4.42645701 23.2005179,4.48413058" id="Fill-5" fill="#7887A2"></path>
                        <path d="M29.2530137,33.6814103 L29.3048547,33.6814103 L29.3048547,33.5738698 C29.3048547,33.5738698 29.2530137,33.6267286 29.2530137,33.6814103 M29.2530137,33.6814103 L29.3048547,33.6814103 L29.3048547,33.5738698 C29.3048547,33.5738698 29.2530137,33.6267286 29.2530137,33.6814103 M29.2530137,33.6814103 L29.3048547,33.6814103 L29.3048547,33.5738698 C29.3048547,33.5738698 29.2530137,33.6267286 29.2530137,33.6814103" id="Fill-7" fill="#ADADAD"></path>
                        <path d="M29.8302873,31.3313469 L29.8302873,31.3375186 C29.8361986,31.3313469 29.8361986,31.3313469 29.847824,31.3313469 L29.8302873,31.3313469 Z" id="Fill-9" fill="#1FB6E8"></path>
                        <path d="M29.8478832,31.3313469 C29.8362577,31.3313469 29.8362577,31.3313469 29.8303464,31.3375186 L29.8303464,31.3313469 L29.8478832,31.3313469 Z" id="Fill-11" fill="#FFFFFF"></path>
                        <path d="M32.0697076,34.7075491 C32.0639934,34.7137208 32.0639934,34.7137208 32.0582792,34.7137208 C31.9938465,34.7643714 31.9238966,34.8084246 31.8425183,34.8271526 C31.7956224,34.8397088 31.7491205,34.8460934 31.7022245,34.8460934 L30.4311074,34.8460934 L30.4311074,36.288571 C30.4311074,36.3011273 30.4311074,36.3262397 30.4251961,36.3390088 C30.4251961,36.4081745 30.4133736,36.4588251 30.3901227,36.5216063 C30.349335,36.6097128 30.3026361,36.6854758 30.2443117,36.7484698 C30.1861843,36.8050793 30.1101262,36.842748 30.0344621,36.8744579 C29.9761377,36.8933986 29.9119021,36.9121266 29.8478634,36.9121266 C29.5387047,36.9121266 29.2821562,36.6539788 29.2646195,36.320068 L29.2646195,36.3011273 L29.2646195,36.288571 L29.2646195,34.8460934 L28.0689694,34.8460934 C27.7834557,34.8460934 27.5383357,34.6381706 27.497351,34.3232005 C27.4918338,34.3232005 27.4918338,34.3108571 27.4918338,34.2919163 C27.4857255,34.2791473 27.4857255,34.2476503 27.4857255,34.2289223 L27.4857255,34.2161533 C27.4857255,33.8760708 27.7483823,33.5989822 28.0689694,33.5989822 L29.252994,33.5989822 C29.252994,33.5862132 29.2646195,33.5738698 29.2646195,33.5738698 L29.2646195,31.961138 C29.2646195,31.9234693 29.2703337,31.8794161 29.276442,31.83515 C29.2994959,31.7155465 29.3578203,31.6021147 29.4395927,31.52018 C29.521168,31.438458 29.6143688,31.375464 29.7255004,31.3565232 L29.8244155,31.3375825 L29.8303267,31.3375825 L29.8303267,31.3314108 L29.8478634,31.3314108 C30.0052999,31.3314108 30.1511109,31.4067482 30.2559372,31.52018 C30.2736709,31.5391207 30.2910106,31.5642332 30.3085473,31.5895585 C30.3844085,31.6968186 30.4311074,31.8289783 30.4311074,31.961138 L30.4311074,33.5989822 L31.7022245,33.5989822 C31.7491205,33.5989822 31.7956224,33.605154 31.8425183,33.617923 C31.9298079,33.6430355 32.005669,33.6870887 32.0697076,33.743911 C32.1690167,33.825633 32.2448778,33.9580055 32.2681288,34.0965498 C32.2797542,34.1344313 32.2854685,34.1784846 32.2854685,34.2161533 C32.2854685,34.411307 32.1979819,34.5879456 32.0697076,34.7075491" id="Fill-13" fill="#FFFFFF"></path>
                        <path d="M32.2855079,34.2162384 C32.2855079,34.4113921 32.1980213,34.5878179 32.069747,34.7076342 C32.0638358,34.7138059 32.0638358,34.7138059 32.0583186,34.7138059 C31.9938859,34.7642437 31.923936,34.8082969 31.8423607,34.8272377 C31.7956618,34.8397939 31.7489628,34.8461785 31.7022639,34.8461785 L30.4311468,34.8461785 L30.4311468,36.2884433 C30.4311468,36.3012124 30.4311468,36.3263249 30.4252355,36.3390939 C30.4252355,36.4082596 30.413413,36.4586974 30.3901621,36.5216914 C30.3493744,36.6097979 30.3026755,36.685561 30.2443511,36.7483421 C30.1862238,36.8051644 30.1101656,36.8428332 30.0345015,36.8743302 C29.9759801,36.8932709 29.9119415,36.9122117 29.8479029,36.9122117 C29.5387442,36.9122117 29.2819986,36.6538511 29.2646589,36.3201531 L29.2646589,36.3012124 L29.2646589,36.2884433 L29.2646589,34.8461785 L28.0690088,34.8461785 C27.7832981,34.8461785 27.5383751,34.6380429 27.4973904,34.3232856 C27.4916761,34.3232856 27.4916761,34.3107294 27.4916761,34.2917886 C27.4857649,34.2792324 27.4857649,34.2475226 27.4857649,34.2290075 L27.4857649,34.2162384 C27.4857649,33.8759431 27.7484217,33.5990674 28.0690088,33.5990674 L29.2646589,33.5990674 L29.2646589,31.9610103 C29.2646589,31.9235544 29.2703731,31.8795012 29.2764814,31.8352351 C29.2995353,31.7156316 29.3578597,31.6021999 29.4396321,31.5202651 C29.5212074,31.4383303 29.6144082,31.3753363 29.7253428,31.3563955 L29.8244549,31.3376676 L29.8303661,31.3376676 C29.8362774,31.3312831 29.8362774,31.3312831 29.8479029,31.3312831 C30.0053393,31.3312831 30.1511503,31.4068333 30.2559766,31.5202651 C30.2737103,31.5392059 30.29105,31.5643183 30.3085868,31.5894308 C30.3844479,31.6966909 30.4311468,31.8288506 30.4311468,31.9610103 L30.4311468,33.5990674 L31.7022639,33.5990674 C31.7489628,33.5990674 31.7956618,33.6052391 31.8423607,33.6177953 C31.9298473,33.6431206 32.0057084,33.6871739 32.069747,33.7437833 C32.1690561,33.8257181 32.2447202,33.9578778 32.2681682,34.0966349 C32.2797936,34.1343036 32.2855079,34.1783569 32.2855079,34.2162384" id="Fill-15" fill="#7887A2"></path>
                        <path d="M3.47122756,31.8509198 C2.80739349,31.8509198 2.14789434,31.6529994 1.57864037,31.253328 C0.499047951,30.496123 -0.113752273,29.0815244 0.017674656,27.6501133 C0.0499895231,27.298113 0.292548068,25.4993787 1.88484344,24.620442 C3.63969836,23.6525476 5.29031812,24.7749476 5.3588887,24.8230443 C5.59573303,24.9875523 5.66371247,25.3278477 5.51159615,25.5832288 C5.35947982,25.8377586 5.04460691,25.9122448 4.80855075,25.7483752 C4.79653119,25.7402882 3.57565975,24.9222173 2.34828592,25.6002542 C1.20307856,26.2321096 1.04544506,27.6043575 1.03106101,27.7586502 C0.937072033,28.7854951 1.36957894,29.7953146 2.13351028,30.3311893 C2.99675073,30.9368682 4.15949482,30.8851535 5.02628201,30.2020091 C5.25347129,30.0232423 5.57189096,30.0770851 5.73740613,30.322251 C5.90351243,30.5678425 5.85326675,30.9117557 5.62607747,31.0909482 C4.98549435,31.5959643 4.22510976,31.850707 3.47122756,31.8509198" id="Fill-17" fill="#7887A2"></path>
                        <path d="M11.7870054,31.8511326 C11.0331232,31.8511326 10.2733297,31.5959643 9.63215549,31.091161 C9.40496621,30.9119686 9.35472053,30.5680553 9.52102387,30.3224638 C9.68594792,30.077298 10.0047617,30.0232423 10.231951,30.2022219 C11.0993293,30.8853664 12.2614822,30.9368682 13.1247227,30.3311893 C13.888654,29.7953146 14.3211609,28.785708 14.227172,27.7586502 C14.2127879,27.6045703 14.0551544,26.2323225 12.909947,25.6002542 C11.6835584,24.9224302 10.4617018,25.7398625 10.4498793,25.7485881 C10.2116556,25.9105423 9.89737385,25.8358433 9.74663682,25.580675 C9.59589979,25.3252939 9.66309106,24.9871267 9.89934427,24.8232572 C9.96791484,24.7747347 11.6193228,23.6521219 13.3733895,24.620442 C14.9656849,25.4995915 15.2084405,27.2983258 15.2407554,27.6499005 C15.3719852,29.0817372 14.759185,30.4963358 13.6795926,31.2535408 C13.1103386,31.6527866 12.4508395,31.8511326 11.7870054,31.8511326" id="Fill-19" fill="#7887A2"></path>
                        <path d="M10.5581932,28.6586559 L4.68063116,28.6586559 C4.36398487,28.6586559 4.10723931,28.3813545 4.10723931,28.0395695 C4.10723931,27.6973588 4.36398487,27.4202703 4.68063116,27.4202703 L10.5581932,27.4202703 C10.8746424,27.4202703 11.131585,27.6973588 11.131585,28.0395695 C11.131585,28.3813545 10.8746424,28.6586559 10.5581932,28.6586559" id="Fill-21" fill="#7887A2"></path>
                    </g>
                </g>
            </g>
        </g>
    </g>
</svg>