<svg xmlns="http://www.w3.org/2000/svg" viewBox="0 0 40 51.39"><defs><style>.cls-1{fill:#edf0f3;}.cls-2{fill:#6d7c98;}.cls-3{fill:#fff;}</style></defs><title>file_icon</title><g id="Layer_2" data-name="Layer 2"><g id="Layer_1-2" data-name="Layer 1"><path class="cls-1" d="M30.48,11.09v.62H27.53a1.92,1.92,0,0,1-1.94-1.94V8.82H28.2A2.28,2.28,0,0,1,30.48,11.09Z"/><path class="cls-1" d="M27.53,13.26h2.95v31.8a2.25,2.25,0,0,1-.88,1.79H3.49a1.92,1.92,0,0,1-1.94-1.94V9.66a2.23,2.23,0,0,1,1.76-.84H24v.95a3.48,3.48,0,0,0,3.49,3.49Z"/><path class="cls-2" d="M35.61,46.62h0v0Zm.66-36.21L26.71,1a3.51,3.51,0,0,0-2.45-1H3.49A3.48,3.48,0,0,0,0,3.49V47.91a3.47,3.47,0,0,0,3.49,3.48h28.8a5.67,5.67,0,0,1-1.07-1.54H3.49a1.92,1.92,0,0,1-1.94-1.94v-.1a3.44,3.44,0,0,0,1.94.59H30.75a6.36,6.36,0,0,1-.1-1.07,3.87,3.87,0,0,1,0-.48H3.49a1.92,1.92,0,0,1-1.94-1.94V3.49A1.92,1.92,0,0,1,3.49,1.55H24V9.77a3.48,3.48,0,0,0,3.49,3.49h8.22V41.51a6.53,6.53,0,0,1,.78,0,6.64,6.64,0,0,1,.77,0V12.92A3.83,3.83,0,0,0,36.27,10.41Zm-8.74,1.3a1.92,1.92,0,0,1-1.94-1.94V2.1l.06,0,9.53,9.36.19.22Z"/><path class="cls-2" d="M15.24,14.55H6.77a.67.67,0,1,1,0-1.32h8.47a.67.67,0,1,1,0,1.32Z"/><path class="cls-2" d="M13.54,16.85H6.77a.67.67,0,1,1,0-1.33h6.77a.67.67,0,1,1,0,1.33Z"/><path class="cls-2" d="M12.31,19.43H6.77a.67.67,0,1,1,0-1.33h5.54a.67.67,0,1,1,0,1.33Z"/><path class="cls-2" d="M15.24,22.21H6.77a.67.67,0,1,1,0-1.33h8.47a.67.67,0,1,1,0,1.33Z"/><path class="cls-2" d="M13.54,24.79H6.77a.67.67,0,1,1,0-1.33h6.77a.67.67,0,1,1,0,1.33Z"/><path class="cls-2" d="M12.31,27.37H6.77a.67.67,0,1,1,0-1.32h5.54a.67.67,0,1,1,0,1.32Z"/><path class="cls-3" d="M35.63,46.6v0h0Z"/><path class="cls-2" d="M35.61,46.62h0v0Zm0,0h0v0Zm0,0h0v0Z"/><path class="cls-2" d="M35.61,46.62h0v0Z"/><path class="cls-2" d="M40,47.46a.9.9,0,0,1-.29.65.86.86,0,0,1-.55.19H37.32v1.93a.81.81,0,0,1-.06.31.85.85,0,0,1-.79.52.84.84,0,0,1-.65-.3.82.82,0,0,1-.19-.53V48.3H33.9a.84.84,0,0,1-.85-.83h0a.81.81,0,0,1,.27-.61.84.84,0,0,1,.58-.23h1.73V44.44a.8.8,0,0,1,.12-.43.82.82,0,0,1,.55-.39l.17,0a.85.85,0,0,1,.83.68.88.88,0,0,1,0,.16v2.18h1.84a.88.88,0,0,1,.55.21A.85.85,0,0,1,40,47.46Z"/></g></g></svg>