<?xml version="1.0" encoding="UTF-8"?>
<svg width="108px" height="86px" viewBox="0 0 108 86" version="1.1" xmlns="http://www.w3.org/2000/svg" xmlns:xlink="http://www.w3.org/1999/xlink">
    <!-- Generator: Sketch 52.6 (67491) - http://www.bohemiancoding.com/sketch -->
    <title>nothing_selected</title>
    <desc>Created with Sketch.</desc>
    <g id="Media-Library-V1.2" stroke="none" stroke-width="1" fill="none" fill-rule="evenodd">
        <g id="1---Media-Library-(nothing-selected)" transform="translate(-786.000000, -390.000000)">
            <g id="nothing_selected" transform="translate(786.000000, 390.000000)">
                <path d="M14.1023507,6.75030762 L77.0389537,6.75030762 C79.5023093,6.75030762 81.4992537,8.74725195 81.4992537,11.2106076 L81.4992537,86.9095728 C81.4992537,89.3729285 79.5023093,91.3698728 77.0389537,91.3698728 L14.1023507,91.3698728 C11.638995,91.3698728 9.64205067,89.3729285 9.64205067,86.9095728 L9.64205067,11.2106076 C9.64205067,8.74725195 11.638995,6.75030762 14.1023507,6.75030762 Z" id="Rectangle" fill="#FAFBFC" transform="translate(45.570652, 49.060090) rotate(90.000000) translate(-45.570652, -49.060090) "></path>
                <path d="M87.2791304,71.6451128 C87.9643521,70.624531 88.0708306,69.3259083 87.5608696,68.2089925 L73.2573913,36.2726015 C72.6286957,34.8694436 71.216087,33.9693534 69.5713043,33.9240902 C67.9265217,33.8788271 66.4408696,34.7064962 65.7247826,36.0863759 L60.4291304,46.3184361 C60.2282609,46.706406 59.7769565,46.8266767 59.4065217,46.8111579 C59.0595652,46.7956391 58.6343478,46.6456241 58.4804348,46.2692932 L48.1513043,21.0796992 C47.5369565,19.5821353 46.0278261,18.6225564 44.2956522,18.6225564 L44.2356522,18.6225564 C42.4852174,18.6445414 40.9747826,19.6442105 40.4008696,21.1689323 L22.4634783,68.400391 C22.0367401,69.5120175 22.195646,70.7612824 22.8873913,71.7330526 C23.6850267,72.843242 24.9809857,73.4951228 26.3556522,73.4776241 L83.7469565,73.4776241 C85.1619488,73.5016772 86.4923771,72.8114436 87.2791304,71.6451128 Z M45.2791304,22.243609 L55.6082609,47.433203 C56.1991304,48.8751579 57.6026087,49.8153383 59.2695652,49.8903459 C60.9652174,49.9627669 62.46,49.136391 63.1826087,47.7306466 L68.4782609,37.4895338 C68.6752174,37.1106165 69.1304348,36.9903459 69.48,36.9955188 C69.8295652,37.0006917 70.2534783,37.1481203 70.4204348,37.5205714 L84.7278261,69.4530827 C84.8100265,69.6209931 84.7914355,69.8202641 84.6795652,69.9703759 C84.463087,70.2614587 84.1138745,70.4255934 83.7495652,70.4074887 L26.3582609,70.4074887 C26.0032156,70.4222886 25.6629361,70.2656479 25.4452174,69.987188 C25.3331782,69.8454636 25.3053744,69.6554488 25.3721739,69.488 L43.3043478,22.2500752 C43.5026087,21.732782 44.1508696,21.6965714 44.2786957,21.693985 L44.2917391,21.693985 C44.4456522,21.693985 45.0704348,21.7263158 45.2791304,22.243609 Z M76.5834783,21.4922406 C76.5834783,17.9022256 73.5834783,14.9821053 69.8973913,14.9821053 C66.2113043,14.9821053 63.2126087,17.9022256 63.2126087,21.4922406 C63.2126087,25.0822556 66.2126087,28.0023759 69.8973913,28.0023759 C73.5821739,28.0023759 76.5769565,25.0744962 76.5769565,21.4857744 L76.5834783,21.4922406 Z M73.9747826,21.4922406 C73.9747826,23.6545263 72.1486957,25.4146165 69.8986957,25.4146165 C67.6486957,25.4146165 65.8226087,23.6545263 65.8226087,21.4922406 C65.8226087,19.3299549 67.6486957,17.5698647 69.8986957,17.5698647 C72.1486957,17.5698647 73.9669565,19.3221955 73.9669565,21.4857744 L73.9747826,21.4922406 Z" id="Shape" fill="#B9C1CF" fill-rule="nonzero"></path>
                <path d="M47.5486957,59.0593684 C45.7782633,59.0721704 44.3325013,57.6597038 44.3193158,55.9043597 C44.3061302,54.1490157 45.730513,52.7153554 47.5009413,52.702011 C49.2713696,52.6886666 50.7175717,54.1006902 50.7313043,55.8560301 C50.7385968,56.6995267 50.4071724,57.5112546 49.8101258,58.11219 C49.2130792,58.7131255 48.3994552,59.0539041 47.5486957,59.0593684 Z" id="Path" fill="#B9C1CF"></path>
                <path d="M62.3817391,52.5880301 C61.0843315,52.5964549 59.9199396,53.379333 59.4320087,54.5712794 C58.9440778,55.7632257 59.2288054,57.1292435 60.1533034,58.0317845 C61.0778014,58.9343255 62.4598013,59.1954502 63.6542959,58.6932865 C64.8487904,58.1911228 65.6202803,57.0246742 65.6086957,55.7383459 C65.5929121,53.9857847 64.1493953,52.5765517 62.3817391,52.5880301 Z" id="Path" fill="#B9C1CF"></path>
                <path d="M55.3043478,65.493203 C52.3265217,65.5164812 49.7191304,63.279188 49.2769565,60.2452632 C49.2005972,59.7206591 49.5676263,59.2340094 50.0967391,59.1583008 C50.6258519,59.0825921 51.1166841,59.4464937 51.1930435,59.9710977 C51.5047826,62.1075188 53.46,63.7214737 55.5521739,63.5636992 C57.4734783,63.4201504 59.0478261,61.8824962 59.2943478,59.9129023 C59.3369867,59.5726189 59.5594859,59.2807378 59.8780322,59.1472077 C60.1965784,59.0136777 60.562777,59.0587852 60.8386843,59.2655386 C61.1145917,59.472292 61.2582911,59.8092805 61.2156522,60.1495639 C60.8556522,63.0257143 58.5352174,65.265594 55.6969565,65.4776842 C55.5652174,65.4867368 55.4347826,65.493203 55.3043478,65.493203 Z" id="Path" fill="#B9C1CF"></path>
                <path d="M99.7278261,85.9211128 L8.23434783,85.9211128 C3.68872902,85.9161237 0.00503192233,82.2638165 -2.84217094e-14,77.7569323 L-2.84217094e-14,11.7891128 C0.00718862312,5.28112012 5.32650891,0.00712736668 11.8904348,7.10542736e-15 L99.7278261,7.10542736e-15 C104.273445,0.0049890438 107.957142,3.65729624 107.962174,8.16418045 L107.962174,77.7569323 C107.957142,82.2638165 104.273445,85.9161237 99.7278261,85.9211128 Z M11.8904348,3.23308271 C7.12684114,3.23878338 3.26661923,7.06611116 3.26086957,11.7891128 L3.26086957,77.7569323 C3.26446241,80.4788255 5.48906121,82.6844678 8.23434783,82.6880301 L99.7278261,82.6880301 C102.47341,82.6851789 104.698429,80.4791205 104.701304,77.7569323 L104.701304,8.16418045 C104.698429,5.44199225 102.47341,3.23593391 99.7278261,3.23308271 L11.8904348,3.23308271 Z" id="Shape" fill="#B9C1CF" fill-rule="nonzero"></path>
            </g>
        </g>
    </g>
</svg>