<svg xmlns="http://www.w3.org/2000/svg" viewBox="0 0 40 56.01"><defs><style>.cls-1{fill:#edf0f3;}.cls-2{fill:#6d7c98;}</style></defs><title>html_icon</title><g id="Layer_2" data-name="Layer 2"><g id="Layer_1-2" data-name="Layer 1"><path class="cls-1" d="M24.78,22.62l3.35,2.6v-14a.91.91,0,0,1-.43-.77V1.81H1.81V50.38H28.13V30.84l-3,2.35a.81.81,0,0,1-.47.16A.76.76,0,0,1,24.17,32l4-3.08V27.16l-4.28-3.33a.76.76,0,1,1,.93-1.21Zm-10.5,1.21L8.88,28,14,32a.76.76,0,0,1,.13,1.07.74.74,0,0,1-.6.3.83.83,0,0,1-.47-.16L7.17,28.63a.75.75,0,0,1,0-1.2l6.17-4.81a.77.77,0,0,1,1.08.14A.76.76,0,0,1,14.28,23.83ZM22.7,22.7,16.78,33.83a.75.75,0,0,1-.67.4.64.64,0,0,1-.36-.09.75.75,0,0,1-.32-1L21.35,22a.77.77,0,0,1,1.35.72Z"/><path class="cls-1" d="M28.13,52.19V53.8a.71.71,0,0,1,0,.2H3.22a1.41,1.41,0,0,1-1.41-1.41v-.4Z"/><path class="cls-2" d="M28.6,0h-.11a1.58,1.58,0,0,1,.57.13A.81.81,0,0,0,28.6,0Z"/><path class="cls-2" d="M37.67,9.08l-8-8.55a1.68,1.68,0,0,0-.48-.36.13.13,0,0,0-.08,0A1.58,1.58,0,0,0,28.49,0H1.68A1.69,1.69,0,0,0,0,1.68V52.59a3.22,3.22,0,0,0,3.22,3.22H31.78a5.6,5.6,0,0,1-1-1.81H3.22a1.41,1.41,0,0,1-1.41-1.41v-.4H30.47v-.08a5.54,5.54,0,0,1,.27-1.73H1.81V1.81H27.7v8.63a.91.91,0,0,0,.43.77.92.92,0,0,0,.47.13h7.72V46.16h.11a5.92,5.92,0,0,1,1.7.25V10.24A1.69,1.69,0,0,0,37.67,9.08Zm-8.16.45V3l6.14,6.49Z"/><path class="cls-2" d="M40,52.35a.86.86,0,0,1-.85.86H37.28v1.95a.88.88,0,0,1-.07.32.84.84,0,0,1-.79.53.82.82,0,0,1-.47-.14h0a.84.84,0,0,1-.39-.71V53.21H33.79a.86.86,0,0,1-.84-.77.28.28,0,0,1,0-.09.85.85,0,0,1,.85-.86h1.76V49.28a.86.86,0,0,1,.76-.85h.11a.87.87,0,0,1,.86.86v2.21h1.87A.85.85,0,0,1,40,52.35Z"/><path class="cls-2" d="M14.28,23.83,8.88,28,14,32a.76.76,0,0,1,.13,1.07.74.74,0,0,1-.6.3.83.83,0,0,1-.47-.16L7.17,28.63a.75.75,0,0,1,0-1.2l6.17-4.81a.77.77,0,0,1,1.08.14A.76.76,0,0,1,14.28,23.83Z"/><path class="cls-2" d="M22.7,22.7,16.78,33.83a.75.75,0,0,1-.67.4.64.64,0,0,1-.36-.09.75.75,0,0,1-.32-1L21.35,22a.77.77,0,0,1,1.35.72Z"/><path class="cls-2" d="M31.26,28a.74.74,0,0,1-.3.6l-2.83,2.21-3,2.35a.81.81,0,0,1-.47.16A.76.76,0,0,1,24.17,32l4-3.08L29.25,28l-1.12-.87-4.28-3.33a.76.76,0,1,1,.93-1.21l3.35,2.6L31,27.43A.74.74,0,0,1,31.26,28Z"/></g></g></svg>