<?xml version="1.0" encoding="UTF-8"?>
<svg width="38px" height="31px" viewBox="0 0 38 31" version="1.1" xmlns="http://www.w3.org/2000/svg" xmlns:xlink="http://www.w3.org/1999/xlink">
    <!-- Generator: Sketch 52.2 (67145) - http://www.bohemiancoding.com/sketch -->
    <title>image_icon</title>
    <desc>Created with Sketch.</desc>
    <defs>
        <polygon id="path-1" points="6.14806387e-05 0.0287788544 37.1401054 0.0287788544 37.1401054 30.0134258 6.14806387e-05 30.0134258"></polygon>
        <polygon id="path-3" points="0.14857821 0.0136026672 8.55564568 0.0136026672 8.55564568 8.48866472 0.14857821 8.48866472"></polygon>
    </defs>
    <g id="UI-Updates-2019-List" stroke="none" stroke-width="1" fill="none" fill-rule="evenodd">
        <g id="2---CMS-List---Content-widget-buttons" transform="translate(-539.000000, -376.000000)">
            <g id="List-widget-items-" transform="translate(242.000000, 269.000000)">
                <g id="Group-2">
                    <g id="image_icon" transform="translate(297.569616, 107.246807)">
                        <path d="M1.09343316,26.6761346 L1.09343316,5.60111042 C1.09343316,4.19695077 2.22016833,3.05863321 3.61024557,3.05863321 L22.2128523,3.05863321 C23.6027246,3.05863321 24.7294598,4.19695077 24.7294598,5.60111042 L24.7294598,26.6761346 C24.7294598,28.0802943 23.6027246,29.2186119 22.2128523,29.2186119 L3.61024557,29.2186119 C2.22016833,29.2186119 1.09343316,28.0802943 1.09343316,26.6761346" id="Fill-1" fill="#EDF0F3"></path>
                        <g id="Group-5" transform="translate(0.000000, 0.178263)">
                            <mask id="mask-2" fill="white">
                                <use xlink:href="#path-1"></use>
                            </mask>
                            <g id="Clip-4"></g>
                            <path d="M22.0623887,9.8831348 C21.1364903,9.8831348 20.3862215,9.11749305 20.3862215,8.17275986 C20.3862215,7.22823372 21.1364903,6.46238492 22.0623887,6.46238492 C22.9882871,6.46238492 23.7387608,7.22823372 23.7387608,8.17275986 C23.7387608,9.11749305 22.9882871,9.8831348 22.0623887,9.8831348 M9.6724005,22.8000785 C9.12645242,22.8000785 8.74158363,22.3789548 8.91516396,21.9723241 C10.7692151,17.6260959 12.6232662,13.2802819 14.4775223,8.93426077 C14.7181165,8.37048508 15.7280385,8.36096115 15.9856423,8.92018191 C17.0533561,11.2380184 18.1210699,13.5558549 19.1887836,15.8736914 C19.432247,16.40227 20.368802,16.4322911 20.6661634,15.920897 C21.2133411,14.9794765 21.7607237,14.037849 22.3081063,13.0966355 C22.6007541,12.5933161 23.5182502,12.612157 23.7770837,13.1266566 C25.2556931,16.0645843 26.7340975,19.002719 28.2127068,21.9408537 C28.4201015,22.3530745 28.0337982,22.8000785 27.4700207,22.8000785 L9.6724005,22.8000785 M31.4627783,2.92113654 L6.01102353,2.92113654 C4.36723618,2.92113654 3.02675332,4.27539903 3.02675332,5.9362909 L3.02675332,24.105686 C3.02675332,25.7725821 4.36723618,27.1208404 6.01102353,27.1208404 L30.2555035,27.1208404 C30.2495604,27.0779827 30.2495604,27.0411292 30.2495604,26.9982715 L30.2495604,26.9798447 C30.2495604,26.6489914 30.291982,26.3301466 30.3647341,26.0179271 L30.3706773,26.0115087 C30.3768253,25.9748623 30.3889165,25.9320046 30.4012126,25.8951511 L6.01102353,25.8951511 C5.03450605,25.8951511 4.23997126,25.0924488 4.23997126,24.105686 L4.23997126,5.9362909 C4.23997126,4.94952817 5.03450605,4.14682588 6.01102353,4.14682588 L31.4627783,4.14682588 C32.4392958,4.14682588 33.2276825,4.94952817 33.2276825,5.9362909 L33.2276825,22.9292727 C33.2340355,22.9292727 33.2397737,22.9230615 33.2459218,22.9230615 C33.258013,22.9168502 33.2762522,22.9168502 33.2944915,22.9168502 C33.3613005,22.8986305 33.4340525,22.8739925 33.5008615,22.861984 C33.5188958,22.8555657 33.530987,22.8555657 33.5492263,22.8435573 C33.6281264,22.8311348 33.7070266,22.8189193 33.7859267,22.8006996 C33.8767131,22.7882771 33.9738526,22.7758545 34.070992,22.7638461 C34.1921088,22.7576348 34.3134306,22.7514236 34.4409005,22.7514236 L34.4409005,5.9362909 C34.4409005,4.27539903 33.1065657,2.92113654 31.4627783,2.92113654 M32.857774,0.0287581502 L4.28218797,0.0287581502 C1.92276599,0.0287581502 6.14806387e-05,1.9712273 6.14806387e-05,4.35511025 L6.14806387e-05,25.6868667 C6.14806387e-05,28.0707497 1.92276599,30.0134258 4.28218797,30.0134258 L31.4990519,30.0134258 L31.4808127,29.9949991 C31.4687215,29.9825766 31.4566303,29.9641498 31.4445391,29.9581456 C31.438391,29.9521414 31.438391,29.9521414 31.4322429,29.9457231 C31.1109041,29.6086585 30.8440782,29.222732 30.6438562,28.7877365 L4.28218797,28.7877365 C2.59003585,28.7877365 1.21307448,27.3966205 1.21307448,25.6868667 L1.21307448,4.35511025 C1.21307448,2.64535644 2.59003585,1.25424045 4.28218797,1.25424045 L32.857774,1.25424045 C34.550336,1.25424045 35.9270924,2.64535644 35.9270924,4.35511025 L35.9270924,23.0211994 C36.2242489,23.1253416 36.5093141,23.2785528 36.7701969,23.456402 C36.8976668,23.5421174 37.0251367,23.6340441 37.1401054,23.7381863 L37.1401054,4.35511025 C37.1401054,1.9712273 35.2233441,0.0287581502 32.857774,0.0287581502" id="Fill-3" fill="#6D7C99" mask="url(#mask-2)"></path>
                        </g>
                        <path d="M33.8650933,26.6763588 L33.9150828,26.6763588 L33.9150828,26.5760712 C33.9150828,26.5760712 33.8650933,26.6253651 33.8650933,26.6763588 M33.8650933,26.6763588 L33.9150828,26.6763588 L33.9150828,26.5760712 C33.9150828,26.5760712 33.8650933,26.6253651 33.8650933,26.6763588 M33.8650933,26.6763588 L33.9150828,26.6763588 L33.9150828,26.5760712 C33.9150828,26.5760712 33.8650933,26.6253651 33.8650933,26.6763588" id="Fill-6" fill="#ADADAD"></path>
                        <path d="M34.4655952,24.394427 L34.4655952,24.4004312 C34.4715383,24.394427 34.4715383,24.394427 34.4838345,24.394427 L34.4655952,24.394427 Z" id="Fill-8" fill="#1FB6E8"></path>
                        <g id="Group-12" transform="translate(30.125513, 22.952896)">
                            <mask id="mask-4" fill="white">
                                <use xlink:href="#path-3"></use>
                            </mask>
                            <g id="Clip-11"></g>
                        </g>
                        <path d="M37.0192755,27.2010071 C37.0192755,27.3910718 36.9282842,27.5625027 36.7946662,27.6790674 C36.7887231,27.6850716 36.7887231,27.6850716 36.78278,27.6850716 C36.715971,27.7341406 36.643014,27.7769983 36.5581707,27.795425 C36.5098059,27.8078476 36.4610313,27.8138518 36.4126665,27.8138518 L35.0904229,27.8138518 L35.0904229,29.2169762 C35.0904229,29.2293988 35.0904229,29.2538297 35.0842749,29.2662522 C35.0842749,29.3335409 35.0721837,29.3826099 35.0477964,29.4438944 C35.0053747,29.5296098 34.9570099,29.6033168 34.896349,29.6643942 C34.8354832,29.7196745 34.756788,29.756528 34.6778878,29.7869632 C34.6172269,29.8053899 34.550418,29.8238167 34.483814,29.8238167 C34.1622702,29.8238167 33.8954442,29.5724675 33.877205,29.2478255 L33.877205,29.2293988 L33.877205,29.2169762 L33.877205,27.8138518 L32.6336566,27.8138518 C32.3365002,27.8138518 32.0817654,27.6115716 32.0393438,27.3051493 C32.0331957,27.3051493 32.0331957,27.2929338 32.0331957,27.2745071 C32.0270476,27.2622916 32.0270476,27.2316494 32.0270476,27.2134296 L32.0270476,27.2010071 C32.0270476,26.8699468 32.3000217,26.600585 32.6336566,26.600585 L33.877205,26.600585 L33.877205,25.0071888 C33.877205,24.9705424 33.8833531,24.9276847 33.8892962,24.8846199 C33.9134786,24.7682622 33.9741395,24.6579088 34.0591877,24.5781976 C34.144031,24.4984864 34.2409654,24.4372019 34.3563441,24.4187751 L34.4594266,24.4005554 L34.4655747,24.4005554 C34.4715178,24.3943442 34.4715178,24.3943442 34.483814,24.3943442 C34.6475574,24.3943442 34.7992096,24.4678441 34.9082353,24.5781976 C34.9264746,24.5966243 34.9447138,24.6210553 34.9629531,24.6454863 C35.0418532,24.7498355 35.0904229,24.8784086 35.0904229,25.0071888 L35.0904229,26.600585 L36.4126665,26.600585 C36.4610313,26.600585 36.5098059,26.6065892 36.5581707,26.6188047 C36.6491621,26.6434427 36.7280622,26.6863004 36.7946662,26.7413736 C36.8979537,26.8210848 36.9766489,26.949658 37.0010362,27.0846495 C37.0131274,27.1212959 37.0192755,27.1641536 37.0192755,27.2010071" id="Fill-13" fill="#7887A2"></path>
                        <path d="M34.483814,24.394427 C34.4715178,24.394427 34.4715178,24.394427 34.4655747,24.4004312 L34.4655747,24.394427 L34.483814,24.394427 Z" id="Fill-15" fill="#FFFFFF"></path>
                    </g>
                </g>
            </g>
        </g>
    </g>
</svg>