<svg xmlns="http://www.w3.org/2000/svg" viewBox="0 0 50.06 40"><defs><style>.cls-1{fill:#edf0f3;}.cls-2{fill:#6d7c98;}</style></defs><title>image_icon</title><g id="Layer_2" data-name="Layer 2"><g id="Layer_1-2" data-name="Layer 1"><path class="cls-1" d="M33.23,36.14a3.4,3.4,0,0,1-1.81,2.22H5.77a4.13,4.13,0,0,1-4.13-4.13V6.16A3.37,3.37,0,0,1,4.86,3.8H29.94a3,3,0,0,1,.6.06H8.1a4,4,0,0,0-4,4V32.12a4,4,0,0,0,4,4Z"/><path class="cls-1" d="M12,29.28c-.23.54.29,1.1,1,1.1H33.33v4.13H8.1a2.39,2.39,0,0,1-2.39-2.39V7.88A2.4,2.4,0,0,1,8.1,5.49H32.87a3.39,3.39,0,0,1,.46,1.71V20l-1.28-2.53a1.23,1.23,0,0,0-2,0c-.73,1.26-1.47,2.51-2.21,3.77a1.22,1.22,0,0,1-2-.06l-4.32-9.28a1.2,1.2,0,0,0-2,0Z"/><path class="cls-2" d="M29.73,8.58A2.29,2.29,0,1,0,32,10.87,2.28,2.28,0,0,0,29.73,8.58ZM42.43,40l0,0v0l0,0h0Z"/><path class="cls-2" d="M50.06,5.77V31.63a6,6,0,0,0-.5-.38,5.32,5.32,0,0,0-1.14-.58V5.77a4.13,4.13,0,0,0-4.14-4.13H5.77A4.13,4.13,0,0,0,1.64,5.77V34.23a4.13,4.13,0,0,0,4.13,4.13H41.3a5.49,5.49,0,0,0,1,1.44l.08.09,0,0v0h0v0l0,0H5.77A5.78,5.78,0,0,1,0,34.23V5.77A5.78,5.78,0,0,1,5.77,0H44.28A5.78,5.78,0,0,1,50.06,5.77Z"/><path class="cls-2" d="M46.42,7.88V30.31l-.5,0-.38.05-.32.06-.07,0-.28.07h-.09V7.88A2.39,2.39,0,0,0,42.4,5.49H8.1A2.4,2.4,0,0,0,5.71,7.88V32.12A2.39,2.39,0,0,0,8.1,34.51H41c0,.05,0,.1,0,.15h0A5.47,5.47,0,0,0,40.77,36v0a.81.81,0,0,0,0,.16H8.1a4,4,0,0,1-4-4V7.88a4,4,0,0,1,4-4H42.4A4,4,0,0,1,46.42,7.88Z"/><path class="cls-2" d="M37,30.38H13c-.74,0-1.26-.56-1-1.1l7.5-17.4a1.2,1.2,0,0,1,2,0l4.32,9.28a1.22,1.22,0,0,0,2,.06c.74-1.26,1.48-2.51,2.21-3.77a1.23,1.23,0,0,1,2,0L33.33,20,38,29.23C38.3,29.78,37.78,30.38,37,30.38Z"/><path class="cls-2" d="M45.64,35.21h0v0A0,0,0,0,0,45.64,35.21Zm0,0h0v0A0,0,0,0,0,45.64,35.21Zm0,0h0v0A0,0,0,0,0,45.64,35.21Z"/><path class="cls-2" d="M46.45,32.27Z"/><path class="cls-2" d="M42.43,40l0,0v0l0,0h0Z"/><path class="cls-2" d="M49.89,36a.83.83,0,0,1-.3.64h0a.83.83,0,0,1-.3.14.63.63,0,0,1-.19,0H47.29v1.94a.59.59,0,0,1,0,.23,1.14,1.14,0,0,1-.21.3,1,1,0,0,1-.29.16.8.8,0,0,1-.26,0,.81.81,0,0,1-.82-.77V36.83H44a.79.79,0,0,1-.8-.68s0,0,0,0a.22.22,0,0,1,0-.08v0a.81.81,0,0,1,.82-.8h1.68V33.08s0-.1,0-.16a.93.93,0,0,1,.23-.41.82.82,0,0,1,.4-.21l.14,0h0a.87.87,0,0,1,.57.24l.07.09a.78.78,0,0,1,.17.48v2.13h1.79a.63.63,0,0,1,.19,0,.74.74,0,0,1,.32.16.82.82,0,0,1,.28.46A.77.77,0,0,1,49.89,36Z"/><path class="cls-2" d="M46.48,32.27h0Z"/></g></g></svg>