<svg xmlns="http://www.w3.org/2000/svg" viewBox="0 0 40 53.45"><defs><style>.cls-1{fill:#edf0f3;}.cls-2{fill:#d2d9e1;opacity:0.45;}.cls-3{fill:#fff;}.cls-4{fill:#6d7c98;}</style></defs><title>list_icon</title><g id="Layer_2" data-name="Layer 2"><g id="Layer_1-2" data-name="Layer 1"><path class="cls-1" d="M26.65,8.27v.26H23.4a.84.84,0,0,0-.6.25.85.85,0,0,0-.26.61v2.23H16.81V9.32A.85.85,0,0,0,16,8.46l-2.8,0V8.27Z"/><path class="cls-2" d="M31.16,8.55h-3V8.27h2.45A.61.61,0,0,1,31.16,8.55Z"/><path class="cls-1" d="M31.25,10.28V44.64h-26V10.1l9.87.07v2.29a.85.85,0,0,0,.86.85H23.4a.81.81,0,0,0,.61-.25.87.87,0,0,0,.26-.6V10.24Z"/><path class="cls-1" d="M31.25,46.2a6,6,0,0,0-.89,3.14,5.94,5.94,0,0,0,.32,1.94A4.45,4.45,0,0,0,31,52l-.06,0-.13-.27s0,0,0,0H1.72V8.27h9.91v.16L5,8.39A1.49,1.49,0,0,0,3.51,9.82v35.1a1.35,1.35,0,0,0,.17.66v1a2.67,2.67,0,0,0,2.66,2.67H30.28a6,6,0,0,1,.15-1.36H6.34a1.31,1.31,0,0,1-1.29-1.3v-.26h26a2.63,2.63,0,0,1,.2-.33Z"/><path class="cls-3" d="M39.7,48.68a.9.9,0,0,0-.56-.21H37.26V46.25a.86.86,0,0,0-.86-.86h-.17a.87.87,0,0,0-.69.85v2.19s0,0,0,0H33.77a.86.86,0,0,0-.86.85h0a.85.85,0,0,0,.86.85h1.77v2a.86.86,0,0,0,1.66.32.87.87,0,0,0,.06-.32v-2h1.88A1,1,0,0,0,39.7,50a.91.91,0,0,0,.3-.67A.83.83,0,0,0,39.7,48.68Zm-.1-4.32v-.17l-.05,0v.06l-.06,0a6,6,0,0,0-1.61-.74v.13a6,6,0,0,1,1.66.76ZM35,43.47l.34-.06a2.7,2.7,0,0,1,.41,0,4.75,4.75,0,0,1,.54,0h0l.05,0V43.2h0a6,6,0,0,0-1.71.25v.11l.29-.07Zm-1,4.67,0,0h0Zm-2.8-2.09-.18.31a6,6,0,0,0-.34,4.92,5.94,5.94,0,0,1-.32-1.94,6,6,0,0,1,.89-3.14V46a5.63,5.63,0,0,1,1.25-1.37s0,0,0,0h-.11A5.83,5.83,0,0,0,31.2,46.05Z"/><path class="cls-3" d="M39.6,44.31v0l-.06,0a6,6,0,0,0-1.66-.76h0A5.79,5.79,0,0,1,39.6,44.31Z"/><path class="cls-4" d="M16.33,18H10a1.67,1.67,0,0,0-1.67,1.67v3.48A1.67,1.67,0,0,0,10,24.86h6.31A1.67,1.67,0,0,0,18,23.19V19.71A1.67,1.67,0,0,0,16.33,18ZM37.88,43.55h0a6,6,0,0,1,1.66.76l.06,0v0A5.79,5.79,0,0,0,37.88,43.55Zm-3.28-35-3.44,0a.57.57,0,0,1,.09.32v1.41l3.34,0V43.56l.29-.07.07,0,.34-.06a2.7,2.7,0,0,1,.41,0,4.75,4.75,0,0,1,.54,0h0l.05,0V10.17A1.66,1.66,0,0,0,34.6,8.57ZM30.37,19.76H22a.52.52,0,0,0,0,1h8.38a.52.52,0,0,0,0-1Zm-3.22,2.66H22a.5.5,0,0,0-.51.5.51.51,0,0,0,.51.52h5.16a.51.51,0,0,0,.51-.52A.5.5,0,0,0,27.15,22.42Zm2.94,8.31H21.7a.52.52,0,0,0,0,1h8.39a.52.52,0,0,0,0-1Zm0,2.57H21.7a.51.51,0,0,0-.51.51.52.52,0,0,0,.51.52h8.39a.52.52,0,0,0,.5-.52A.5.5,0,0,0,30.09,33.3ZM16.33,29.17H10a1.67,1.67,0,0,0-1.67,1.67v3.49A1.67,1.67,0,0,0,10,36h6.31A1.67,1.67,0,0,0,18,34.33V30.84A1.67,1.67,0,0,0,16.33,29.17Z"/><path class="cls-4" d="M32.52,44.64s0,0,0,0A5.63,5.63,0,0,0,31.25,46a2.63,2.63,0,0,0-.2.33h-26v.26a1.31,1.31,0,0,0,1.29,1.3H30.43a6,6,0,0,0-.15,1.36H6.34a2.67,2.67,0,0,1-2.66-2.67v-1a1.35,1.35,0,0,1-.17-.66V9.82A1.49,1.49,0,0,1,5,8.39l6.59,0V8.27h1.54v.17l2.8,0a.85.85,0,0,1,.84.86V11.6h5.73V9.38a.85.85,0,0,1,.26-.61.84.84,0,0,1,.6-.25h3.25V8.27H28.2v.27h3a.57.57,0,0,1,.09.32v1.41l-7,0v2.23a.87.87,0,0,1-.26.6.81.81,0,0,1-.61.25H16a.85.85,0,0,1-.86-.85V10.17L5.23,10.1V44.64Z"/><path class="cls-4" d="M38.75,3.92H28.16a.76.76,0,0,0-.75-.55H24a4.22,4.22,0,0,0-8.27,0H12.4a.75.75,0,0,0-.74.55H.86A.86.86,0,0,0,0,4.78V52.59a.86.86,0,0,0,.86.86H32a6.13,6.13,0,0,1-1-1.43l-.13-.27s0,0,0,0H1.72V5.64h9.91V8.27h1.54V4.92H26.65V8.27H28.2V5.64h9.68V43.55a5.79,5.79,0,0,1,1.72.76V4.78A.85.85,0,0,0,38.75,3.92Zm-21.2-.55a2.5,2.5,0,0,1,4.71,0Z"/><path class="cls-4" d="M34,48.16h0v0Zm0,0h0v0Zm0,0h0v0Z"/><path class="cls-4" d="M39.7,48.68a.9.9,0,0,0-.56-.21H37.26V46.25a.86.86,0,0,0-.86-.86h-.17a.87.87,0,0,0-.69.85v2.19s0,0,0,0H33.77a.86.86,0,0,0-.86.85h0a.85.85,0,0,0,.86.85h1.77v2a.86.86,0,0,0,1.66.32.87.87,0,0,0,.06-.32v-2h1.88A1,1,0,0,0,39.7,50a.91.91,0,0,0,.3-.67A.83.83,0,0,0,39.7,48.68Z"/></g></g></svg>