<?xml version="1.0" encoding="UTF-8"?>
<svg width="31px" height="42px" viewBox="0 0 31 42" version="1.1" xmlns="http://www.w3.org/2000/svg" xmlns:xlink="http://www.w3.org/1999/xlink">
    <!-- Generator: Sketch 52.2 (67145) - http://www.bohemiancoding.com/sketch -->
    <title>list_icon</title>
    <desc>Created with Sketch.</desc>
    <g id="UI-Updates-2019-List" stroke="none" stroke-width="1" fill="none" fill-rule="evenodd">
        <g id="2---CMS-List---Content-widget-buttons" transform="translate(-257.000000, -280.000000)">
            <g id="List-widget-items-" transform="translate(242.000000, 269.000000)">
                <g id="Group-2">
                    <g id="Group-12">
                        <g id="Group-4" transform="translate(0.000000, 0.890000)">
                            <g id="list_icon" transform="translate(15.735201, 10.893601)">
                                <path d="M21.7087218,39.6794556 L0.928213395,39.6794556 C0.692724454,39.6794556 0.50173736,39.4738461 0.50173736,39.2203274 L0.50173736,6.75486258 C0.50173736,6.50134397 0.692724454,6.29573439 0.928213395,6.29573439 L21.7087218,6.29573439 C21.9442107,6.29573439 22.1349918,6.50134397 22.1349918,6.75486258 L22.1349918,39.2203274 C22.1349918,39.4738461 21.9442107,39.6794556 21.7087218,39.6794556" id="Fill-1" fill="#EDF0F3"></path>
                                <path d="M12.0898722,22.2221596 L7.4197508,22.2221596 C6.73710174,22.2221596 6.18205869,22.7932973 6.18205869,23.4957412 L6.18205869,26.1480383 C6.18205869,26.8504823 6.73710174,27.42162 7.4197508,27.42162 L12.0898722,27.42162 C12.7725213,27.42162 13.3275643,26.8504823 13.3275643,26.1480383 L13.3275643,23.4957412 C13.3275643,22.7932973 12.7725213,22.2221596 12.0898722,22.2221596 Z M22.2720561,25.366855 L16.0644115,25.366855 C15.8538185,25.366855 15.68806,25.53742 15.68806,25.7541196 C15.68806,25.9705975 15.8538185,26.1480383 16.0644115,26.1480383 L22.2720561,26.1480383 C22.4763982,26.1480383 22.6486232,25.9705975 22.6486232,25.7541196 C22.6486232,25.53742 22.4763982,25.366855 22.2720561,25.366855 Z M22.2720561,23.4103478 L16.0644115,23.4103478 C15.8538185,23.4103478 15.68806,23.5875669 15.68806,23.8044883 C15.68806,24.0209662 15.8538185,24.1981852 16.0644115,24.1981852 L22.2720561,24.1981852 C22.4763982,24.1981852 22.6486232,24.0209662 22.6486232,23.8044883 C22.6486232,23.5875669 22.4763982,23.4103478 22.2720561,23.4103478 Z M20.0967185,17.0752659 L16.2812556,17.0752659 C16.0708781,17.0752659 15.8986531,17.245831 15.8986531,17.4627524 C15.8986531,17.679452 16.0708781,17.8564493 16.2812556,17.8564493 L20.0967185,17.8564493 C20.3070959,17.8564493 20.4793209,17.679452 20.4793209,17.4627524 C20.4793209,17.245831 20.3070959,17.0752659 20.0967185,17.0752659 Z M22.4824336,15.0533275 L16.2812556,15.0533275 C16.0708781,15.0533275 15.8986531,15.2307683 15.8986531,15.4472462 C15.8986531,15.6639458 16.0708781,15.8345108 16.2812556,15.8345108 L22.4824336,15.8345108 C22.6930266,15.8345108 22.8590007,15.6639458 22.8590007,15.4472462 C22.8590007,15.2307683 22.6930266,15.0533275 22.4824336,15.0533275 Z M19.7266179,6.49912596 L17.3277542,6.49269373 L17.3212877,6.49269373 C17.1555292,6.49269373 16.9960217,6.55834684 16.8811331,6.68299904 C16.7533116,6.80787304 16.6897241,6.97200582 16.6897241,7.14279264 L16.6897241,8.84311957 L12.4470397,8.83624374 L12.4470397,7.09687982 C12.4470397,6.73578769 12.1661772,6.44678091 11.8217272,6.44034868 L9.74834499,6.42704062 L9.74834499,3.74857101 L19.7266179,3.74857101 L19.7266179,6.49912596 Z M14.7374814,1.30654133 C15.54127,1.30654133 16.2239191,1.83154444 16.4791311,2.56703676 L12.9893653,2.56703676 C13.2508283,1.83154444 13.9399439,1.30654133 14.7374814,1.30654133 Z M28.6838272,2.98690616 L20.8494215,2.98690616 C20.779152,2.73760177 20.5558414,2.56703676 20.2943784,2.56703676 L17.7998102,2.56703676 C17.4999792,1.09649572 16.2431031,0.000133080636 14.7374814,0.000133080636 C13.2256089,0.000133080636 11.9685172,1.09649572 11.6751527,2.56703676 L9.18058445,2.56703676 C8.91912145,2.56703676 8.7020619,2.73760177 8.63179237,2.98690616 L0.638094732,2.98690616 C0.287178195,2.98690616 6.46652095e-05,3.27591295 6.46652095e-05,3.63700507 L6.46652095e-05,40.0589573 C6.46652095e-05,40.4264816 0.287178195,40.7154884 0.638094732,40.7154884 L23.6500717,40.7154884 C23.2991552,40.3410882 23.0120417,39.9079107 22.7954132,39.4221664 C22.7954132,39.4157342 22.7887311,39.4157342 22.7887311,39.4090802 L1.27590925,39.4090802 L1.27590925,4.29353621 L8.60635739,4.29353621 L8.60635739,6.42060839 L3.73210945,6.38756003 C3.1132634,6.38756003 2.59658838,6.87995838 2.59658838,7.48414447 L2.59658838,34.2162737 C2.59658838,34.399925 2.64120737,34.5707118 2.72397884,34.7215365 L2.72397884,35.5162497 C2.72397884,36.6385631 3.61096996,37.5446204 4.69540552,37.5446204 L22.4123796,37.5446204 C22.4123796,37.1835283 22.4507476,36.8486087 22.5272681,36.5141327 C22.5272681,36.5072569 22.5272681,36.5072569 22.5337347,36.5008246 L4.69540552,36.5008246 C4.17226398,36.5008246 3.73857597,36.0543391 3.73857597,35.5162497 L3.73857597,35.3126364 L22.9866067,35.3126364 C23.2610027,34.8069299 23.6246367,34.3737525 24.0585403,34.0193144 C24.0647913,34.0126603 24.0712578,34.0062281 24.0775088,34.0062281 L3.87243296,34.0062281 L3.87243296,7.69419008 L11.1774461,7.74653513 L11.1774461,9.49277488 C11.1774461,9.85386701 11.4583087,10.1428738 11.8154762,10.1428738 L17.3212877,10.149306 C17.4999792,10.149306 17.6530202,10.0836529 17.7743752,9.95900071 C17.8955147,9.83412671 17.9657843,9.66999393 17.9657843,9.49942891 L17.9657843,7.79932378 L25.6087809,7.8452366 L25.6087809,33.1855642 C25.6790504,33.1658239 25.7618219,33.1396514 25.8258405,33.1263433 C25.8448089,33.1199111 25.8575264,33.1199111 25.8767104,33.1134788 C25.9596974,33.0937385 26.0424689,33.0804305 26.1256715,33.0673442 C26.2211604,33.0478257 26.3233315,33.0345177 26.4255025,33.0280854 C26.5593595,33.0147774 26.6869655,33.0083451 26.827289,33.0083451 L26.8400065,33.0083451 C26.852724,33.0019129 26.865657,32.9950371 26.8783745,32.9950371 L26.8783745,7.74653513 C26.8783745,7.07713953 26.3103984,6.53217432 25.6152474,6.52552029 L20.8748565,6.50600179 L20.8748565,4.29353621 L28.0457971,4.29353621 L28.0457971,33.1855642 C28.4797007,33.3037842 28.8944202,33.5071757 29.2707717,33.7631341 C29.2837048,33.7764422 29.3026732,33.7828744 29.3156063,33.7961825 L29.3156063,3.63700507 C29.3156063,3.27591295 29.0347437,2.98690616 28.6838272,2.98690616 Z M12.0898722,13.740487 L7.4197508,13.740487 C6.73710174,13.740487 6.18205869,14.3114029 6.18205869,15.0140687 L6.18205869,17.666144 C6.18205869,18.3685879 6.73710174,18.9397257 7.4197508,18.9397257 L12.0898722,18.9397257 C12.7725213,18.9397257 13.3275643,18.3685879 13.3275643,17.666144 L13.3275643,15.0140687 C13.3275643,14.3114029 12.7725213,13.740487 12.0898722,13.740487 Z" id="Fill-5" fill="#6D7C98"></path>
                                <path d="M29.2707933,38.0566704 C29.1561203,38.15515 29.0091147,38.2077169 28.8562893,38.2077169 L27.4653406,38.2077169 L27.4653406,39.7044304 C27.4653406,39.7896021 27.4524076,39.8685632 27.4207216,39.9473026 C27.3250171,40.1901748 27.0952401,40.3543076 26.8273106,40.3543076 C26.4766096,40.3543076 26.1892805,40.0655226 26.1892805,39.7044304 L26.1892805,38.2077169 L24.8815344,38.2077169 C24.5306179,38.2077169 24.2497553,37.9253641 24.2435043,37.5578398 L24.2435043,37.5511857 C24.2435043,37.1900936 24.5306179,36.9013086 24.8815344,36.9013086 L26.176563,36.9013086 C26.182814,36.8948764 26.1892805,36.8880006 26.1892805,36.8815683 L26.1892805,35.2074139 C26.1892805,34.8922346 26.412591,34.6234117 26.6997046,34.5641909 L26.8273106,34.5508828 C27.1782271,34.5508828 27.4653406,34.8463218 27.4653406,35.2074139 L27.4653406,36.9013086 L28.8562893,36.9013086 C29.0091147,36.9013086 29.1561203,36.9605295 29.2707933,37.0587874 C29.4048658,37.1770074 29.4943194,37.3542264 29.4943194,37.5511857 C29.4943194,37.7547991 29.4048658,37.9320182 29.2707933,38.0566704" id="Fill-7" fill="#6D7C99"></path>
                                <path d="M29.4942331,37.5511192 C29.4942331,37.7547326 29.4047796,37.9319516 29.2707071,38.0566038 C29.1560341,38.1553053 29.0092441,38.2076503 28.8562031,38.2076503 L27.4652544,38.2076503 L27.4652544,39.7043639 C27.4652544,39.7897573 27.4525369,39.8684967 27.4206354,39.9474579 C27.3249309,40.1901082 27.0951539,40.3544628 26.8272243,40.3544628 C26.4765234,40.3544628 26.1891943,40.065456 26.1891943,39.7043639 L26.1891943,38.2076503 L24.8816637,38.2076503 C24.5307472,38.2076503 24.2496691,37.9252976 24.2436337,37.5577732 L24.2436337,37.5511192 C24.2436337,37.1900271 24.5307472,36.9012421 24.8816637,36.9012421 L26.1891943,36.9012421 L26.1891943,35.2075692 C26.1891943,34.8923899 26.4127204,34.6233452 26.6998339,34.5641243 L26.8272243,34.5510381 C27.1781409,34.5510381 27.4652544,34.8464771 27.4652544,35.2075692 L27.4652544,36.9012421 L28.8562031,36.9012421 C29.0092441,36.9012421 29.1560341,36.960463 29.2707071,37.0587208 C29.4047796,37.1769408 29.4942331,37.3541599 29.4942331,37.5511192" id="Fill-9" fill="#6D7C98"></path>
                            </g>
                        </g>
                    </g>
                </g>
            </g>
        </g>
    </g>
</svg>