<svg xmlns="http://www.w3.org/2000/svg" viewBox="0 0 65.55 52"><defs><style>.cls-1{fill:#edf0f3;}.cls-2,.cls-4{fill:#6d7c98;}.cls-3{fill:#fff;}.cls-4{fill-rule:evenodd;}</style></defs><title>pattern_library_icon</title><g id="Layer_2" data-name="Layer 2"><g id="Layer_1-2" data-name="Layer 1"><path class="cls-1" d="M58.29,10.35V43.07H9.85V8.62A1.87,1.87,0,0,1,11.4,6.77H54.89A3.5,3.5,0,0,1,58.29,10.35Z"/><path class="cls-1" d="M63.27,8.62V43.07H60.05V10.35a5.39,5.39,0,0,0-1.36-3.61h2.7A1.88,1.88,0,0,1,63.27,8.62Z"/><path class="cls-1" d="M63.27,44.83v1a5.38,5.38,0,0,1-5.21,4.08H9.85V44.83Z"/><path class="cls-2" d="M58.06,0H7.49A7.5,7.5,0,0,0,0,7.49v37A7.5,7.5,0,0,0,7.49,52H58.06a7.51,7.51,0,0,0,7.49-7.49v-37A7.5,7.5,0,0,0,58.06,0Zm5.21,45.8a5.38,5.38,0,0,1-5.21,4.08H7.49a5.37,5.37,0,0,1-5.36-5.05H63.42A5,5,0,0,1,63.27,45.8Zm-56-2.73V10.35a3.5,3.5,0,0,1,3.4-3.58H54.89a3.5,3.5,0,0,1,3.4,3.58V43.07Zm56.17,0H60.05V10.35a5.39,5.39,0,0,0-1.36-3.61A5.05,5.05,0,0,0,54.89,5H10.66A5.26,5.26,0,0,0,5.5,10.35V43.07H2.12V7.49A5.38,5.38,0,0,1,7.49,2.12H58.06a5.38,5.38,0,0,1,5.37,5.37Z"/><path class="cls-2" d="M21.6,10.82H13.92a2,2,0,0,0-2,2v7.68a2,2,0,0,0,2,2H21.6a2,2,0,0,0,2-2V12.83A2,2,0,0,0,21.6,10.82Zm1.16,9.69a1.16,1.16,0,0,1-1.16,1.16H13.92a1.16,1.16,0,0,1-1.16-1.16V12.83a1.16,1.16,0,0,1,1.16-1.16H21.6a1.16,1.16,0,0,1,1.16,1.16Z"/><path class="cls-3" d="M19.53,13.28a.76.76,0,1,0,.76.75A.76.76,0,0,0,19.53,13.28Z"/><path class="cls-3" d="M21.6,11.67H13.92a1.16,1.16,0,0,0-1.16,1.16v7.68a1.16,1.16,0,0,0,1.16,1.16H21.6a1.16,1.16,0,0,0,1.16-1.16V12.83A1.16,1.16,0,0,0,21.6,11.67Zm-2.07,1.61a.76.76,0,1,1-.75.75A.76.76,0,0,1,19.53,13.28ZM21.41,20H13.86c-.24,0-.4-.17-.32-.34.78-1.83,1.57-3.65,2.36-5.48a.37.37,0,0,1,.63,0c.36.75.71,1.51,1.06,2.26l.3.66a.39.39,0,0,0,.63,0c.23-.4.46-.8.7-1.19a.38.38,0,0,1,.62,0l1.88,3.71C21.81,19.85,21.65,20,21.41,20Z"/><path class="cls-4" d="M21.41,20H13.86c-.24,0-.4-.18-.32-.35.78-1.83,1.57-3.65,2.35-5.48a.39.39,0,0,1,.65,0l1.05,2.26.3.66a.39.39,0,0,0,.63,0l.7-1.19a.38.38,0,0,1,.62,0c.63,1.24,1.26,2.47,1.88,3.71C21.81,19.85,21.65,20,21.41,20Z"/><path class="cls-4" d="M20.29,14a.76.76,0,1,1-.76-.75A.76.76,0,0,1,20.29,14Z"/><path class="cls-2" d="M36.41,10.82H28.73a2,2,0,0,0-2,2v7.68a2,2,0,0,0,2,2h7.68a2,2,0,0,0,2-2V12.83A2,2,0,0,0,36.41,10.82Zm1.17,9.69a1.17,1.17,0,0,1-1.17,1.16H28.73a1.16,1.16,0,0,1-1.16-1.16V12.83a1.16,1.16,0,0,1,1.16-1.16h7.68a1.17,1.17,0,0,1,1.17,1.16Z"/><path class="cls-3" d="M34.35,13.28a.76.76,0,1,0,.75.75A.75.75,0,0,0,34.35,13.28Z"/><path class="cls-3" d="M36.41,11.67H28.73a1.16,1.16,0,0,0-1.16,1.16v7.68a1.16,1.16,0,0,0,1.16,1.16h7.68a1.17,1.17,0,0,0,1.17-1.16V12.83A1.17,1.17,0,0,0,36.41,11.67Zm-2.06,1.61a.76.76,0,1,1-.75.75A.75.75,0,0,1,34.35,13.28ZM36.22,20H28.67c-.23,0-.39-.17-.32-.34l2.36-5.48a.38.38,0,0,1,.64,0c.35.75.7,1.51,1.06,2.26.09.22.2.44.3.66a.38.38,0,0,0,.62,0L34,16a.39.39,0,0,1,.63,0c.62,1.24,1.25,2.47,1.88,3.71C36.63,19.85,36.46,20,36.22,20Z"/><path class="cls-4" d="M36.22,20H28.67c-.23,0-.39-.18-.32-.35l2.36-5.48a.38.38,0,0,1,.64,0l1,2.26c.11.22.21.44.31.66a.39.39,0,0,0,.63,0L34,16a.39.39,0,0,1,.63,0c.62,1.24,1.25,2.47,1.88,3.71C36.63,19.85,36.46,20,36.22,20Z"/><path class="cls-4" d="M35.1,14a.75.75,0,1,1-.75-.75A.75.75,0,0,1,35.1,14Z"/><path class="cls-2" d="M51.23,10.82H43.55a2,2,0,0,0-2,2v7.68a2,2,0,0,0,2,2h7.68a2,2,0,0,0,2-2V12.83A2,2,0,0,0,51.23,10.82Zm1.16,9.69a1.16,1.16,0,0,1-1.16,1.16H43.55a1.16,1.16,0,0,1-1.16-1.16V12.83a1.16,1.16,0,0,1,1.16-1.16h7.68a1.16,1.16,0,0,1,1.16,1.16Z"/><path class="cls-3" d="M49.16,13.28a.76.76,0,1,0,.75.75A.76.76,0,0,0,49.16,13.28Z"/><path class="cls-3" d="M51.23,11.67H43.55a1.16,1.16,0,0,0-1.16,1.16v7.68a1.16,1.16,0,0,0,1.16,1.16h7.68a1.16,1.16,0,0,0,1.16-1.16V12.83A1.16,1.16,0,0,0,51.23,11.67Zm-2.07,1.61a.76.76,0,0,1,0,1.51.76.76,0,0,1,0-1.51ZM51,20H43.49c-.23,0-.4-.17-.33-.34l2.37-5.48a.37.37,0,0,1,.63,0c.36.75.71,1.51,1.06,2.26l.3.66a.39.39,0,0,0,.63,0l.7-1.19a.38.38,0,0,1,.62,0c.63,1.24,1.26,2.47,1.88,3.71C51.44,19.85,51.28,20,51,20Z"/><path class="cls-4" d="M51,20H43.49c-.24,0-.4-.18-.33-.35.79-1.83,1.58-3.65,2.36-5.48a.39.39,0,0,1,.65,0l1,2.26.3.66a.39.39,0,0,0,.63,0l.7-1.19a.38.38,0,0,1,.62,0l1.88,3.71C51.44,19.85,51.28,20,51,20Z"/><path class="cls-4" d="M49.92,14a.76.76,0,1,1-.76-.75A.76.76,0,0,1,49.92,14Z"/><path class="cls-2" d="M21.47,26.17H13.79a2,2,0,0,0-2,2v7.68a2,2,0,0,0,2,2h7.68a2,2,0,0,0,2-2V28.18A2,2,0,0,0,21.47,26.17Zm1.16,9.69A1.16,1.16,0,0,1,21.47,37H13.79a1.16,1.16,0,0,1-1.16-1.16V28.18A1.16,1.16,0,0,1,13.79,27h7.68a1.16,1.16,0,0,1,1.16,1.16Z"/><path class="cls-3" d="M19.41,28.63a.76.76,0,0,0,0,1.51.76.76,0,0,0,0-1.51Z"/><path class="cls-3" d="M21.47,27H13.79a1.16,1.16,0,0,0-1.16,1.16v7.68A1.16,1.16,0,0,0,13.79,37h7.68a1.16,1.16,0,0,0,1.16-1.16V28.18A1.16,1.16,0,0,0,21.47,27Zm-2.06,1.61a.76.76,0,1,1-.75.75A.76.76,0,0,1,19.41,28.63Zm1.87,6.75H13.73c-.23,0-.4-.17-.32-.34l2.36-5.48a.38.38,0,0,1,.64,0l1.05,2.26c.11.22.2.44.31.66a.38.38,0,0,0,.62,0l.7-1.19a.38.38,0,0,1,.62,0L21.59,35C21.68,35.2,21.52,35.38,21.28,35.38Z"/><path class="cls-4" d="M21.28,35.39H13.73c-.23,0-.4-.18-.32-.35.78-1.83,1.57-3.65,2.36-5.48a.38.38,0,0,1,.64,0l1.05,2.26c.1.22.2.44.31.66a.38.38,0,0,0,.62,0l.7-1.19a.38.38,0,0,1,.62,0L21.6,35C21.68,35.2,21.52,35.39,21.28,35.39Z"/><path class="cls-4" d="M20.16,29.38a.76.76,0,1,1-.75-.75A.76.76,0,0,1,20.16,29.38Z"/><path class="cls-2" d="M36.29,26.17H28.61a2,2,0,0,0-2,2v7.68a2,2,0,0,0,2,2h7.68a2,2,0,0,0,2-2V28.18A2,2,0,0,0,36.29,26.17Zm1.16,9.69A1.16,1.16,0,0,1,36.29,37H28.61a1.17,1.17,0,0,1-1.17-1.16V28.18A1.17,1.17,0,0,1,28.61,27h7.68a1.16,1.16,0,0,1,1.16,1.16Z"/><path class="cls-3" d="M34.22,28.63a.76.76,0,1,0,.75.75A.76.76,0,0,0,34.22,28.63Z"/><path class="cls-3" d="M36.29,27H28.61a1.17,1.17,0,0,0-1.17,1.16v7.68A1.17,1.17,0,0,0,28.61,37h7.68a1.16,1.16,0,0,0,1.16-1.16V28.18A1.16,1.16,0,0,0,36.29,27Zm-2.07,1.61a.76.76,0,0,1,0,1.51.76.76,0,0,1,0-1.51Zm1.87,6.75H28.55c-.24,0-.4-.17-.33-.34l2.36-5.48a.38.38,0,0,1,.64,0l1.06,2.26.3.66a.39.39,0,0,0,.63,0c.23-.4.46-.8.7-1.19a.38.38,0,0,1,.62,0c.62,1.24,1.25,2.47,1.88,3.7C36.5,35.2,36.33,35.38,36.09,35.38Z"/><path class="cls-4" d="M36.09,35.39H28.54c-.23,0-.39-.18-.32-.35.79-1.83,1.58-3.65,2.36-5.48a.38.38,0,0,1,.64,0l1.06,2.26.3.66a.39.39,0,0,0,.63,0l.69-1.19a.39.39,0,0,1,.63,0L36.41,35C36.5,35.2,36.33,35.39,36.09,35.39Z"/><path class="cls-4" d="M35,29.38a.75.75,0,1,1-.75-.75A.75.75,0,0,1,35,29.38Z"/><path class="cls-2" d="M51.1,26.17H43.42a2,2,0,0,0-2,2v7.68a2,2,0,0,0,2,2H51.1a2,2,0,0,0,2-2V28.18A2,2,0,0,0,51.1,26.17Zm1.16,9.69A1.16,1.16,0,0,1,51.1,37H43.42a1.16,1.16,0,0,1-1.16-1.16V28.18A1.16,1.16,0,0,1,43.42,27H51.1a1.16,1.16,0,0,1,1.16,1.16Z"/><path class="cls-3" d="M49,28.63a.76.76,0,1,0,.75.75A.76.76,0,0,0,49,28.63Z"/><path class="cls-3" d="M51.1,27H43.42a1.16,1.16,0,0,0-1.16,1.16v7.68A1.16,1.16,0,0,0,43.42,37H51.1a1.16,1.16,0,0,0,1.16-1.16V28.18A1.16,1.16,0,0,0,51.1,27ZM49,28.63a.76.76,0,1,1-.76.75A.76.76,0,0,1,49,28.63Zm1.87,6.75H43.36c-.23,0-.4-.17-.32-.34.78-1.83,1.57-3.65,2.36-5.48a.38.38,0,0,1,.64,0l1.05,2.26c.1.22.2.44.31.66a.38.38,0,0,0,.62,0l.7-1.19a.38.38,0,0,1,.62,0L51.22,35C51.31,35.2,51.15,35.38,50.91,35.38Z"/><path class="cls-4" d="M50.91,35.39H43.36c-.23,0-.4-.18-.32-.35.78-1.83,1.57-3.65,2.36-5.48a.38.38,0,0,1,.64,0l1.05,2.26c.1.22.2.44.31.66a.38.38,0,0,0,.62,0l.7-1.19a.38.38,0,0,1,.62,0L51.22,35C51.31,35.2,51.15,35.39,50.91,35.39Z"/><path class="cls-4" d="M49.79,29.38a.76.76,0,1,1-.75-.75A.76.76,0,0,1,49.79,29.38Z"/></g></g></svg>