<?xml version="1.0" encoding="UTF-8"?>
<svg width="76px" height="90px" viewBox="0 0 76 90" version="1.1" xmlns="http://www.w3.org/2000/svg" xmlns:xlink="http://www.w3.org/1999/xlink">
    <!-- Generator: Sketch 52.6 (67491) - http://www.bohemiancoding.com/sketch -->
    <title>Group 4</title>
    <desc>Created with Sketch.</desc>
    <defs>
        <polygon id="path-1" points="0.000112707865 0.120545455 74.0616884 0.120545455 74.0616884 17.8514727 0.000112707865 17.8514727"></polygon>
    </defs>
    <g id="UI-Updates-2019-Modular-page-" stroke="none" stroke-width="1" fill="none" fill-rule="evenodd">
        <g id="1.1---Modular-page-remove-widget-modal" transform="translate(-455.000000, -370.000000)">
            <g id="Group-4" transform="translate(455.000000, 370.000000)">
                <path d="M46.5110548,87.9760636 C46.358499,89.6053364 45.4110898,89.1976091 44.3076208,89.1976091 L11.5822463,89.1976091 C10.4790469,89.1976091 9.53190716,87.9689727 9.37881229,86.3397 L1.30494503,24.9141545 C1.21572954,23.9628818 1.40709812,23.0015182 1.82972619,22.2768818 C2.25262379,21.5525182 2.86419464,21.1366091 3.50837901,21.1366091 L50.2252224,21.1366091 C50.8694068,21.1366091 51.4812471,21.5525182 51.9041447,22.2771545 C52.3267728,23.0017909 52.5178719,23.9631545 52.4286564,24.9141545 L46.5110548,87.9760636 Z" id="Fill-3" fill="#FAFBFC"></path>
                <g id="Group-7" transform="translate(0.000000, 0.152182)">
                    <mask id="mask-2" fill="white">
                        <use xlink:href="#path-1"></use>
                    </mask>
                    <g id="Clip-6"></g>
                    <path d="M48.1371756,2.57547273 C48.1002495,2.57547273 48.063593,2.57683636 48.0261279,2.57901818 L26.461854,3.91510909 C26.0111945,3.9432 25.5980001,4.13601818 25.2985487,4.45810909 C24.9961324,4.7832 24.8500454,5.18247273 24.8761901,5.61256364 L25.0298241,8.14947273 C25.0495,8.47456364 24.940339,8.7942 24.7274078,9.03774545 C24.5144766,9.28156364 24.2142166,9.42992727 23.8932025,9.44956364 L4.00839006,10.6820182 C3.56015634,10.7098364 3.14884866,10.9132909 2.84993633,11.2550182 C2.55129354,11.5970182 2.40170261,12.0350182 2.429195,12.4882909 L2.50816823,13.7954727 C2.53566061,14.2503818 2.73673239,14.6668364 3.07391843,14.9684727 C3.40921774,15.2690182 3.84774827,15.4220182 4.29382573,15.3936545 L70.0534598,11.3188364 C70.5027717,11.2907455 70.9143489,11.0875636 71.2127222,10.7463818 C71.5108259,10.4052 71.6598778,9.96692727 71.6323854,9.51201818 L71.5534121,8.20510909 C71.5259198,7.7502 71.3251175,7.33374545 70.9879315,7.03210909 C70.6504759,6.72992727 70.2170665,6.57992727 69.7685632,6.60692727 L51.2430067,7.75456364 C50.5772597,7.79492727 49.99965,7.28138182 49.958681,6.60474545 L49.8047775,4.06810909 C49.7538358,3.22483636 49.0166624,2.57547273 48.1371756,2.57547273 M4.18682105,17.8514727 C3.18523565,17.8514727 2.21922863,17.4805636 1.46696144,16.8074727 C0.644076555,16.0708364 0.154065182,15.0546545 0.0872209463,13.9452 L0.00797818297,12.6382909 C-0.059135586,11.5304727 0.305003779,10.4616545 1.03301298,9.62874545 C1.76102217,8.79610909 2.76530291,8.29974545 3.8601468,8.23210909 L22.5342161,7.07465455 L22.4547038,5.76283636 C22.3878596,4.65501818 22.7705967,3.59438182 23.532028,2.77565455 C24.2562638,1.99701818 25.244103,1.53174545 26.3136107,1.46547273 L47.8778846,0.129109091 C50.1443894,-0.0168 52.0912277,1.68883636 52.2262639,3.91783636 L52.3055066,5.22965455 L69.6197809,4.15729091 C70.7159725,4.08501818 71.771734,4.45674545 72.595158,5.19338182 C73.4175038,5.92947273 73.9075152,6.94565455 73.974629,8.05510909 L74.0538717,9.36201818 C74.120716,10.4712 73.7571157,11.5402909 73.0296455,12.3726545 C72.3021754,13.2047455 71.2981642,13.7005636 70.2014336,13.7684727 L4.44179946,17.8432909 C4.35635744,17.8487455 4.27172401,17.8514727 4.18682105,17.8514727" id="Fill-5" fill="#B9C1CF" mask="url(#mask-2)"></path>
                </g>
                <path d="M4.45913045,22.3810636 C3.89095445,22.3810636 3.35107943,22.6297909 2.978315,23.0637 C2.60555057,23.4973364 2.43655325,24.0725182 2.51552648,24.6417 L10.96108,85.7143364 C11.0958466,86.6896091 11.9316691,87.4248818 12.904684,87.4248818 L62.6882762,87.4248818 C63.6612911,87.4248818 64.4971136,86.6896091 64.6318802,85.7146091 L73.0774338,24.6417 C73.156407,24.0725182 72.9874097,23.4973364 72.6146452,23.0634273 C72.2418808,22.6297909 71.7022753,22.3810636 71.1338298,22.3810636 L4.45913045,22.3810636 Z M12.904684,89.8794273 C10.7287424,89.8794273 8.86006868,88.2351545 8.55873055,86.0547 L0.112907461,24.9820636 C-0.0628281909,23.7087 0.313979235,22.4222455 1.14791498,21.4527 C1.98185073,20.4826091 3.18882044,19.9265182 4.45913045,19.9265182 L71.1338298,19.9265182 C72.4046789,19.9265182 73.6111095,20.4826091 74.4450453,21.4527 C75.278981,22.4222455 75.6557884,23.7087 75.4800528,24.9820636 L67.0339602,86.0547 C66.7328916,88.2351545 64.8644874,89.8794273 62.6882762,89.8794273 L12.904684,89.8794273 Z" id="Fill-8" fill="#B9C1CF"></path>
                <path d="M29.4601684,54.8875364 C27.4472944,54.9033545 25.8004465,53.2623545 25.7848135,51.2218091 C25.7694501,49.1809909 27.3909619,47.5146273 29.4038359,47.4988091 C31.4204834,47.4832636 33.0676008,49.1239909 33.0829642,51.1648091 C33.0985972,53.2056273 31.4768158,54.8717182 29.4601684,54.8875364" id="Fill-10" fill="#B9C1CF"></path>
                <path d="M46.3491462,47.3667545 C44.3324987,47.3825727 42.7107174,49.0489364 42.7263503,51.0894818 C42.7417137,53.1303 44.3888312,54.7710273 46.4054786,54.7554818 C48.4183526,54.7396636 50.0398644,53.0735727 50.024501,51.0327545 C50.0088681,48.9919364 48.3620202,47.3512091 46.3491462,47.3667545" id="Fill-12" fill="#B9C1CF"></path>
                <path d="M38.2015616,54.9463909 C41.5922893,54.9196636 44.560389,57.5193 45.0638771,61.0451182 C45.1509363,61.6549364 44.7331598,62.2203 44.1307531,62.3083909 C43.5280768,62.3956636 42.969065,61.9740273 42.8822753,61.3642091 C42.5278391,58.8810273 40.3009557,57.0103909 37.9180126,57.1893 C35.7304811,57.3551182 33.9386244,59.1390273 33.6577708,61.4307545 C33.582571,62.0422091 33.0327232,62.4755727 32.4281603,62.4003 C31.8244059,62.3244818 31.395309,61.7675727 31.4699697,61.1563909 C31.8799297,57.8143909 34.5224333,55.2106636 37.7533279,54.9649364 C37.9034579,54.9537545 38.0527792,54.9474818 38.2015616,54.9463909" id="Fill-14" fill="#B9C1CF"></path>
                <path d="M9.80265326,51.1369909 C9.20186374,51.1369909 8.68004745,50.6850818 8.60107422,50.0657182 L5.80035465,28.0116273 C5.71491262,27.3393545 6.18416994,26.7243545 6.8485693,26.6381727 C7.51404679,26.5517182 8.12103557,27.0268091 8.20620807,27.6990818 L11.0074667,49.7531727 C11.0926392,50.4254455 10.6231124,51.0404455 9.95871299,51.1266273 C9.90642355,51.1334455 9.85413411,51.1369909 9.80265326,51.1369909" id="Fill-16" fill="#B9C1CF"></path>
                <path d="M60.3161953,84.9884727 C60.248812,84.9884727 60.1808897,84.9827455 60.1121587,84.9710182 C59.4518023,84.8578364 59.0070725,84.2240182 59.1191983,83.5558364 L63.8295607,55.4352 C63.9416865,54.7664727 64.5683512,54.3167455 65.2284381,54.4302 C65.8885249,54.5433818 66.3332547,55.1769273 66.2211289,55.8453818 L61.5107665,83.9660182 C61.4105002,84.5649273 60.8970394,84.9884727 60.3161953,84.9884727" id="Fill-18" fill="#B9C1CF"></path>
            </g>
        </g>
    </g>
</svg>