<?xml version="1.0" encoding="UTF-8"?>
<svg width="108px" height="118px" viewBox="0 0 108 118" version="1.1" xmlns="http://www.w3.org/2000/svg" xmlns:xlink="http://www.w3.org/1999/xlink">
    <!-- Generator: Sketch 52.6 (67491) - http://www.bohemiancoding.com/sketch -->
    <title>no_existing_content</title>
    <desc>Created with Sketch.</desc>
    <defs>
        <polygon id="path-1" points="0.610068293 0.395530726 84.5534634 0.395530726 84.5534634 117.340716 0.610068293 117.340716"></polygon>
    </defs>
    <g id="Symbols" stroke="none" stroke-width="1" fill="none" fill-rule="evenodd">
        <g id="Existing-modal---no-existing" transform="translate(-333.000000, -286.000000)">
            <g id="no_existing_content" transform="translate(333.000000, 286.000000)">
                <g id="Group-24">
                    <path d="M97.7639049,104.729746 C97.7639049,104.690193 97.8040756,104.65064 97.8040756,104.65064 L97.8040756,104.729746 L97.7639049,104.729746 Z" id="Fill-1" fill="#D2D9E1"></path>
                    <path d="M104.5602,20.0595385 L104.5602,103.200756 C103.677761,103.714287 102.643859,104.005002 101.550688,104.005002 L94.6162976,104.005002 L94.6162976,107.432935 L51.0738585,107.432935 C49.5592244,107.432935 48.3343463,106.20679 48.3343463,104.690589 L48.3343463,20.0595385 C48.3343463,19.0977397 48.8348341,18.2539408 49.5855659,17.7661196 C50.0136146,17.489248 50.5272732,17.3244436 51.0738585,17.3244436 L101.820688,17.3244436 C103.335322,17.3244436 104.5602,18.5505888 104.5602,20.0595385" id="Fill-3" fill="#F7F8FA"></path>
                    <path d="M77.5386659,14.5456425 C77.1810805,14.4025922 76.8248122,14.3129385 76.4487878,14.2951397 C76.5027878,14.2773408 76.5745683,14.2773408 76.6463488,14.2773408 C76.9663976,14.2773408 77.2713,14.3669944 77.5386659,14.5456425" id="Fill-5" fill="#7887A2"></path>
                    <path d="M97.7639049,104.77064 L97.8249049,104.77064 L97.8249049,104.65064 C97.8249049,104.65064 97.7639049,104.71064 97.7639049,104.77064 M97.7639049,104.77064 L97.8249049,104.77064 L97.8249049,104.65064 C97.8249049,104.65064 97.7639049,104.71064 97.7639049,104.77064 M97.7639049,104.77064 L97.8249049,104.77064 L97.8249049,104.65064 C97.8249049,104.65064 97.7639049,104.71064 97.7639049,104.77064" id="Fill-7" fill="#ADADAD"></path>
                    <path d="M99.6935488,97.7094715 L99.6935488,97.7285888 C99.7133049,97.7094715 99.7133049,97.7094715 99.7528171,97.7094715 L99.6935488,97.7094715 Z" id="Fill-9" fill="#1FB6E8"></path>
                    <path d="M99.7553195,97.7069006 C99.7158073,97.7069006 99.7158073,97.7069006 99.6960512,97.7260179 L99.6960512,97.7069006 L99.7553195,97.7069006 Z" id="Fill-11" fill="#FFFFFF"></path>
                    <path d="M11.6011098,99.3163151 C9.3825,99.3163151 7.17903659,98.7032425 5.27586585,97.4652313 C1.6677439,95.1197341 -0.379646341,90.7385721 0.0589390244,86.3040134 C0.166939024,85.213667 0.977597561,79.6419575 6.29923171,76.9193877 C12.1648171,73.9212648 17.6807195,77.3979799 17.9105488,77.5469631 C18.7014512,78.0565385 18.9286463,79.1112872 18.4202561,79.9023486 C17.9118659,80.690114 16.8595244,80.9208402 16.0705976,80.4132425 C16.0304268,80.3881922 11.9501341,77.8541587 7.84876829,79.9544268 C4.02069512,81.9116447 3.49386585,86.1622816 3.44579268,86.6402145 C3.13167073,89.8209408 4.57781707,92.9489296 7.13030488,94.6088402 C10.0160122,96.4849743 13.901378,96.3254436 16.7982805,94.208695 C17.5575732,93.654952 18.6217683,93.8223933 19.174939,94.5811531 C19.7300854,95.3418905 19.5621585,96.4078458 18.8028659,96.9629073 C16.6619634,98.5265721 14.1206707,99.3156559 11.6011098,99.3163151" id="Fill-13" fill="#7887A2" opacity="0.504580543"></path>
                    <path d="M39.3937244,99.3169743 C36.8741634,99.3169743 34.3341878,98.5272313 32.1919683,96.9629073 C31.4326756,96.4078458 31.2647488,95.3425497 31.8198951,94.5818123 C32.3717488,93.8223933 33.437261,93.6556112 34.1965537,94.2093542 C37.0947732,96.3254436 40.9794805,96.4856335 43.8645293,94.6094994 C46.4170171,92.9495888 47.8631634,89.8216 47.5490415,86.6408737 C47.5009683,86.1629408 46.974139,81.9123039 43.1460659,79.955086 C39.0479927,77.8548179 34.9644073,80.387533 34.9242366,80.4139017 C34.1280659,80.9155665 33.0783585,80.684181 32.574578,79.8937788 C32.0707976,79.1027173 32.2953585,78.0558793 33.0842854,77.5476223 C33.3141146,77.3973207 38.8333098,73.9199464 44.6956024,76.9200469 C50.0172366,79.6426168 50.8278951,85.2143263 50.9358951,86.3033542 C51.375139,90.7385721 49.3270902,95.1203933 45.7189683,97.4658905 C43.8157976,98.7025832 41.6123341,99.3169743 39.3937244,99.3169743" id="Fill-15" fill="#7887A2" opacity="0.504580543"></path>
                    <g id="Group-19" opacity="0.503045945" transform="translate(23.048780, 0.263687)">
                        <mask id="mask-2" fill="white">
                            <use xlink:href="#path-1"></use>
                        </mask>
                        <g id="Clip-18"></g>
                        <path d="M81.0239707,93.5561352 L71.5673854,93.5561352 L71.5673854,33.0135654 C71.5673854,32.189543 71.2447024,31.4050737 70.6849463,30.7985933 L57.6854341,17.0604927 L55.7427512,15.003733 C55.4727512,14.7202693 55.1500683,14.5093196 54.8339707,14.3445151 C54.7747024,14.3115542 54.7220195,14.2720011 54.6890927,14.2588168 C54.6034829,14.2258559 54.5112878,14.1922358 54.425678,14.1665263 C54.405922,14.1605933 54.3861659,14.1533419 54.3670683,14.1467497 C54.2024341,14.0940123 54.0378,14.0610514 53.8731659,14.0346827 C53.8395805,14.0274313 53.8000683,14.0274313 53.7605561,14.0214983 C53.7085317,14.0149061 53.6486049,14.008314 53.595922,14.008314 C53.5234829,13.9885374 53.4708,13.9885374 53.398361,13.9885374 L17.1327512,13.9885374 L17.1327512,3.88931955 L65.008361,3.88931955 L65.008361,19.7698782 C65.008361,20.7323363 65.8117756,21.5365821 66.7798244,21.5365821 L81.0239707,21.5365821 L81.0239707,93.5561352 Z M81.0239707,97.6960235 C81.0239707,99.0876324 79.8781171,100.22742 78.5017756,100.22742 L71.5673854,100.22742 L71.5673854,97.0697665 L81.0239707,97.0697665 L81.0239707,97.6960235 Z M55.5451902,31.6160235 L55.5451902,19.8951296 L66.6217756,31.6160235 L55.5451902,31.6160235 Z M68.5381171,6.2954648 L78.705922,17.0604927 L79.6147024,18.0229508 L68.5381171,18.0229508 L68.5381171,6.2954648 Z M68.0376293,111.308873 C68.0376293,112.680046 66.8917756,113.820493 65.5088488,113.820493 L6.66860488,113.820493 C5.28567805,113.820493 4.13982439,112.680046 4.13982439,111.308873 L4.13982439,110.662839 L68.0376293,110.662839 L68.0376293,111.308873 Z M83.6778732,17.1989285 L68.735678,1.41066034 C68.465678,1.12719665 68.1429951,0.889878212 67.8203122,0.731006704 C67.7676293,0.698705028 67.7149463,0.659151955 67.6754341,0.639375419 C67.3198244,0.520716201 66.9642146,0.428425698 66.5822634,0.408649162 C66.5164098,0.395464804 66.4571415,0.395464804 66.385361,0.395464804 L16.8304829,0.395464804 C15.0517756,0.395464804 13.6029951,1.81937542 13.6029951,3.60585587 L13.6029951,13.9885374 L3.83689756,13.9885374 C2.06543415,13.9885374 0.610068293,15.4322246 0.610068293,17.1989285 L0.610068293,81.2749061 L4.13982439,81.2749061 L4.13982439,17.5021687 L52.0154341,17.5021687 L52.0154341,33.3827274 C52.0154341,34.3511184 52.8254341,35.1362469 53.7934829,35.1362469 L68.0376293,35.1362469 L68.0376293,107.168984 L4.13982439,107.168984 L4.13982439,93.2133419 L0.610068293,93.2133419 L0.610068293,111.308873 C0.610068293,114.644515 3.33640976,117.340716 6.66860488,117.340716 L65.5088488,117.340716 C68.8410439,117.340716 71.5673854,114.644515 71.5673854,111.308873 L71.5673854,103.741051 L78.5017756,103.741051 C79.5949463,103.741051 80.6288488,103.450996 81.5112878,102.936806 C83.3288488,101.895241 84.5537268,99.9373642 84.5537268,97.6960235 L84.5537268,19.4139006 C84.5537268,18.5766939 84.2310439,17.8054089 83.6778732,17.1989285 Z" id="Fill-17" fill="#7887A2" mask="url(#mask-2)"></path>
                    </g>
                    <path d="M77.7364244,14.5205922 C77.3781805,14.3775419 77.0199366,14.2885475 76.6425951,14.2707486 C76.6972537,14.2529497 76.7690341,14.2529497 76.8408146,14.2529497 C77.162839,14.2529497 77.4677415,14.3419441 77.7364244,14.5205922" id="Fill-20" fill="#7887A2"></path>
                    <path d="M37.2049463,87.5109095 C37.2049463,88.5722503 36.3422634,89.4292335 35.2886049,89.4292335 L15.6444585,89.4292335 C14.5842146,89.4292335 13.7281171,88.5722503 13.7281171,87.5109095 C13.7281171,86.4502279 14.5842146,85.5925855 15.6444585,85.5925855 L35.2886049,85.5925855 C36.3422634,85.5925855 37.2049463,86.4502279 37.2049463,87.5109095" id="Fill-22" fill="#7887A2" opacity="0.504580543"></path>
                </g>
                <g id="Group-2" opacity="0.498000372" transform="translate(46.000000, 59.000000)" fill="#7887A2">
                    <path d="M4.02915951,7.99989135 C1.82032863,8.01600071 0.0165638891,6.23862496 0.000113296854,4.02978987 C-0.0163372954,1.82095479 1.76075434,0.0169099701 3.96958014,0.000118045556 C6.17840593,-0.0166738789 7.98271982,1.7601444 7.99985298,3.96897429 C8.00895115,5.03038729 7.59545876,6.05182416 6.85057011,6.80801056 C6.10568146,7.56419695 5.090586,7.99301535 4.02915951,7.99989135 Z" id="Path"></path>
                    <path d="M21.9738648,8.76102974e-05 C20.3552095,0.0106887858 18.9025057,0.995809344 18.2937595,2.49567359 C17.6850134,3.99553784 18.0402416,5.71444166 19.1936521,6.85013786 C20.3470625,7.98583407 22.0712558,8.31441569 23.561516,7.68252705 C25.0517761,7.0506384 26.0142926,5.58285882 25.9998395,3.96423071 C25.9801477,1.75892698 24.1792056,-0.0143559865 21.9738648,8.76102974e-05 Z" id="Path"></path>
                    <path d="M13.0695169,14.9997758 C9.58264392,15.0287741 6.52952996,12.2417147 6.01176827,8.46226878 C5.92235558,7.80875466 6.35212686,7.20252144 6.97168929,7.10820899 C7.59125171,7.01389654 8.1659896,7.46721906 8.25540228,8.12073318 C8.62043192,10.7821333 10.9098856,12.7926825 13.3597079,12.5961384 C15.6094512,12.4173155 17.4529272,10.5018163 17.7415908,8.04823741 C17.7915186,7.62433677 18.0520531,7.26073223 18.4250535,7.09439012 C18.7980539,6.928048 19.2268526,6.98423964 19.5499252,7.24179818 C19.8729978,7.49935671 20.0412619,7.91915289 19.9913341,8.34305353 C19.5697936,11.9259553 16.8526902,14.7162368 13.5292404,14.9804436 C13.3749811,14.9917207 13.222249,14.9997758 13.0695169,14.9997758 Z" id="Path" transform="translate(13.000000, 11.000000) rotate(-180.000000) translate(-13.000000, -11.000000) "></path>
                </g>
            </g>
        </g>
    </g>
</svg>