<?xml version="1.0" encoding="UTF-8"?>
<svg width="29px" height="40px" viewBox="0 0 29 40" version="1.1" xmlns="http://www.w3.org/2000/svg" xmlns:xlink="http://www.w3.org/1999/xlink">
    <!-- Generator: Sketch 52.2 (67145) - http://www.bohemiancoding.com/sketch -->
    <title>page_icon</title>
    <desc>Created with Sketch.</desc>
    <g id="Symbols" stroke="none" stroke-width="1" fill="none" fill-rule="evenodd">
        <g id="List-widget-items:HOVER" transform="translate(-113.000000, -12.000000)">
            <g id="List-widget-items-">
                <g id="Group-2">
                    <g id="page_icon" transform="translate(113.000000, 12.000000)">
                        <path d="M28.2505995,37.0000811 C28.2505995,37.2036945 28.1611459,37.3809136 28.0270734,37.5055658 C27.9124004,37.6042672 27.7656104,37.6566123 27.6125694,37.6566123 L26.2216207,37.6566123 L26.2216207,39.1533258 C26.2216207,39.2387193 26.2089032,39.3174586 26.1770017,39.3964198 C26.0812972,39.6390702 25.8515202,39.8034248 25.5835907,39.8034248 C25.2328897,39.8034248 24.9455606,39.514418 24.9455606,39.1533258 L24.9455606,37.6566123 L23.6380301,37.6566123 C23.2871135,37.6566123 23.0060354,37.3742595 23,37.0067352 L23,37.0000811 C23,36.638989 23.2871135,36.350204 23.6380301,36.350204 L24.9455606,36.350204 L24.9455606,34.6565311 C24.9455606,34.3413518 25.1690867,34.0723071 25.4562002,34.0130863 L25.5835907,34 C25.9345072,34 26.2216207,34.295439 26.2216207,34.6565311 L26.2216207,36.350204 L27.6125694,36.350204 C27.7656104,36.350204 27.9124004,36.4094249 28.0270734,36.5076828 C28.1611459,36.6259028 28.2505995,36.8031218 28.2505995,37.0000811" id="Fill-9" fill="#6D7C98"></path>
                        <g id="Group-6" transform="translate(0.155205, 0.890000)">
                            <g id="page_icon" transform="translate(0.156001, 0.104001)">
                                <path d="M19.4393532,37.2711872 L1.80635337,37.2711872 C1.61789861,37.2711872 1.46522114,37.1189622 1.46522114,36.9308587 L1.46522114,1.80173633 C1.46522114,1.61363275 1.61789861,1.46161518 1.80635337,1.46161518 L19.4393532,1.46161518 C19.627808,1.46161518 19.7804854,1.61363275 19.7804854,1.80173633 L19.7804854,36.9308587 C19.7804854,37.1189622 19.627808,37.2711872 19.4393532,37.2711872" id="Fill-1" fill="#EDF0F3"></path>
                                <path d="M10.7361815,26.1443922 L10.7361815,29.0655723 C10.7361815,29.6371168 10.2729866,30.1019079 9.69684826,30.1019079 L4.72628026,30.1019079 C4.15056493,30.1019079 3.6871585,29.6371168 3.6871585,29.0655723 L3.6871585,26.1443922 C3.6871585,25.5664808 4.15056493,25.1016897 4.72628026,25.1016897 L9.69684826,25.1016897 C10.2729866,25.1016897 10.7361815,25.5664808 10.7361815,26.1443922 Z M21.0339142,20.6354506 C21.0339142,20.9809666 20.7524016,21.2636614 20.4080722,21.2636614 L3.6871585,21.2636614 C3.34282912,21.2636614 3.06131659,20.9809666 3.06131659,20.6354506 C3.06131659,20.2899347 3.34282912,20.0072399 3.6871585,20.0072399 L20.4080722,20.0072399 C20.7524016,20.0072399 21.0339142,20.2899347 21.0339142,20.6354506 Z M14.7549791,17.3248223 C14.7549791,17.6703382 14.4734666,17.9530331 14.1291372,17.9530331 L3.6871585,17.9530331 C3.34282912,17.9530331 3.06131659,17.6703382 3.06131659,17.3248223 C3.06131659,16.9793064 3.34282912,16.6966115 3.6871585,16.6966115 L14.1291372,16.6966115 C14.4734666,16.6966115 14.7549791,16.9793064 14.7549791,17.3248223 Z M22.2923661,14.0146184 C22.2923661,14.3662891 22.0106421,14.6428292 21.6663127,14.6428292 L3.6871585,14.6428292 C3.34282912,14.6428292 3.06131659,14.3662891 3.06131659,14.0146184 C3.06131659,13.6691025 3.34282912,13.3864076 3.6871585,13.3864076 L21.6663127,13.3864076 C22.0106421,13.3864076 22.2923661,13.6691025 22.2923661,14.0146184 Z M22.2923661,10.7103571 C22.2923661,11.055873 22.0106421,11.3383556 21.6663127,11.3383556 L3.6871585,11.3383556 C3.34282912,11.3383556 3.06131659,11.055873 3.06131659,10.7103571 C3.06131659,10.3648411 3.34282912,10.0821463 3.6871585,10.0821463 L21.6663127,10.0821463 C22.0106421,10.0821463 22.2923661,10.3648411 22.2923661,10.7103571 Z M15.2247307,5.98009969 C15.2247307,6.33198261 14.9430067,6.60831046 14.5986773,6.60831046 L3.6871585,6.60831046 C3.34282912,6.60831046 3.06131659,6.33198261 3.06131659,5.98009969 C3.06131659,5.63458376 3.34282912,5.35188891 3.6871585,5.35188891 L14.5986773,5.35188891 C14.9430067,5.35188891 15.2247307,5.63458376 15.2247307,5.98009969 Z M20.1011792,0.0942316166 C19.97618,0.0441445411 19.8444127,0.0125217689 19.7069347,0.00636700112 C19.7318923,4.16333634e-16 19.7568498,4.16333634e-16 19.7820188,4.16333634e-16 C19.9008844,4.16333634e-16 20.0074827,0.0314105389 20.1011792,0.0942316166 Z M20.4080722,6.61446523 L20.4080722,2.11066087 L24.6586788,6.61446523 L20.4080722,6.61446523 Z M26.0546087,6.30057207 L20.48929,0.364404697 C20.3892483,0.264018313 20.2765164,0.182308465 20.1515172,0.119275154 C20.1326933,0.106753385 20.1202146,0.0942316166 20.1011792,0.0942316166 C19.97618,0.0441445411 19.8444127,0.0125217689 19.7069347,0.00636700112 C19.6819772,0 19.6631533,0 19.6379842,0 L1.16454395,0 C0.519666634,0 0,0.521457392 0,1.16834471 L0,36.4967116 C0,37.7340321 0.995340325,38.7328024 2.22862325,38.7328024 L21.9793394,38.7328024 C21.6787915,38.3622429 21.447194,37.9415964 21.2970258,37.4768053 L2.22862325,37.4768053 C1.69013271,37.4768053 1.25210683,37.0368455 1.25210683,36.4967116 L1.25210683,36.2265385 L21.0779071,36.2265385 L21.0779071,36.1637174 C21.0779071,35.7492257 21.1403009,35.3470434 21.259378,34.9703292 L1.25210683,34.9703292 L1.25210683,1.25620932 L19.1559654,1.25620932 L19.1559654,7.24267601 C19.1559654,7.58819193 19.4313443,7.87088678 19.7820188,7.87088678 L25.1218737,7.87088678 L25.1218737,32.0368395 C25.1470428,32.0302603 25.1720003,32.0302603 25.1969578,32.0302603 C25.6038926,32.0302603 26.0044822,32.0930814 26.3739806,32.2062018 L26.3739806,7.10472432 C26.3739806,6.8031407 26.255115,6.52044585 26.0546087,6.30057207 Z" id="Fill-3" fill="#6D7C98"></path>
                            </g>
                        </g>
                    </g>
                </g>
            </g>
        </g>
    </g>
</svg>