<svg xmlns="http://www.w3.org/2000/svg" viewBox="0 0 40 52.14"><defs><style>.cls-1{fill:#edf0f3;}.cls-2{fill:#6d7c98;}</style></defs><title>page_icon</title><g id="Layer_2" data-name="Layer 2"><g id="Layer_1-2" data-name="Layer 1"><rect class="cls-1" x="1.64" width="26.92" height="50.77" rx="0.49" ry="0.49"/><path class="cls-2" d="M37.66,8.48l-8-8a1.91,1.91,0,0,0-.49-.33.09.09,0,0,0-.07,0A1.81,1.81,0,0,0,28.48,0H1.68A1.62,1.62,0,0,0,0,1.57V49.13a3.11,3.11,0,0,0,3.22,3H31.77a5.05,5.05,0,0,1-1-1.69H3.22a1.37,1.37,0,0,1-1.41-1.32v-.36H30.46v-.09a4.76,4.76,0,0,1,.27-1.6H1.81V1.69H27.69V9.75a.87.87,0,0,0,.9.85h7.72V43.13h.11a6,6,0,0,1,1.7.24V9.56A1.56,1.56,0,0,0,37.66,8.48ZM29.5,8.9V2.84L35.64,8.9ZM29.05.13A1.81,1.81,0,0,0,28.48,0h.11A.8.8,0,0,1,29.05.13ZM22,8.05a.87.87,0,0,1-.9.85H5.33a.85.85,0,1,1,0-1.7H21.1A.88.88,0,0,1,22,8.05Zm10.22,6.37a.88.88,0,0,1-.91.84h-26a.85.85,0,1,1,0-1.69h26A.88.88,0,0,1,32.22,14.42Zm0,4.45a.87.87,0,0,1-.91.84h-26a.85.85,0,1,1,0-1.69h26A.88.88,0,0,1,32.22,18.87ZM21.33,23.32a.88.88,0,0,1-.91.85H5.33a.85.85,0,1,1,0-1.69H20.42A.88.88,0,0,1,21.33,23.32Zm9.07,4.46a.88.88,0,0,1-.9.84H5.33a.85.85,0,1,1,0-1.69H29.5A.88.88,0,0,1,30.4,27.78ZM15.52,35.2v3.93A1.45,1.45,0,0,1,14,40.52H6.83a1.45,1.45,0,0,1-1.5-1.39V35.2a1.46,1.46,0,0,1,1.5-1.41H14A1.46,1.46,0,0,1,15.52,35.2Z"/><path class="cls-2" d="M40,48.44a.86.86,0,0,1-.85.86H37.28v2a.87.87,0,0,1-.07.31A.84.84,0,0,1,36,52h0a.81.81,0,0,1-.38-.7v-2H33.79a.85.85,0,0,1-.84-.77.28.28,0,0,1,0-.09.85.85,0,0,1,.85-.86h1.77V45.37a.85.85,0,0,1,.75-.85h.11a.86.86,0,0,1,.86.86v2.21h1.87A.85.85,0,0,1,40,48.44Z"/></g></g></svg>