<?xml version="1.0" encoding="UTF-8"?>
<svg width="19px" height="21px" viewBox="0 0 19 21" version="1.1" xmlns="http://www.w3.org/2000/svg" xmlns:xlink="http://www.w3.org/1999/xlink">
    <!-- Generator: Sketch 52.6 (67491) - http://www.bohemiancoding.com/sketch -->
    <title>bin copy 5</title>
    <desc>Created with Sketch.</desc>
    <defs>
        <filter x="-1.0%" y="-1.1%" width="102.0%" height="102.1%" filterUnits="objectBoundingBox" id="filter-1">
            <feOffset dx="0" dy="0" in="SourceAlpha" result="shadowOffsetOuter1"></feOffset>
            <feGaussianBlur stdDeviation="2" in="shadowOffsetOuter1" result="shadowBlurOuter1"></feGaussianBlur>
            <feColorMatrix values="0 0 0 0 0.0858577806   0 0 0 0 0.0858577806   0 0 0 0 0.0858577806  0 0 0 0.5 0" type="matrix" in="shadowBlurOuter1" result="shadowMatrixOuter1"></feColorMatrix>
            <feMerge>
                <feMergeNode in="shadowMatrixOuter1"></feMergeNode>
                <feMergeNode in="SourceGraphic"></feMergeNode>
            </feMerge>
        </filter>
    </defs>
    <g id="Media-Library-V1.2" stroke="none" stroke-width="1" fill="none" fill-rule="evenodd">
        <g id="()---Media-Library-Modal-(adding-featured-image---image-selected)" transform="translate(-854.000000, -770.000000)" fill="#D72B36" fill-rule="nonzero" stroke="#D72B36" stroke-width="0.1">
            <g id="Media-library-modal" filter="url(#filter-1)" transform="translate(122.000000, 150.000000)">
                <g id="Selection-Panel" transform="translate(518.000000, 167.000000)">
                    <g id="DELETE-btn" transform="translate(209.000000, 449.000000)">
                        <g id="bin-copy-5" transform="translate(9.000000, 8.000000)">
                            <path d="M11.3804497,1.68263515 L8.2288893,1.68263515 L8.2288893,0.716259862 C8.2288893,0.400329478 7.93928645,0.140151515 7.56450629,0.140151515 L4.29369761,0.140151515 C3.91891745,0.140151515 3.6293146,0.400329478 3.6293146,0.716259862 L3.6293146,1.68263515 L0.47775415,1.68263515 C0.341470455,1.68263515 0.222222222,1.81272413 0.222222222,1.96139726 C0.222222222,2.11007038 0.341470455,2.24015936 0.47775415,2.24015936 L1.32952724,2.24015936 L1.99391026,11.1419625 C1.99391026,12.0154171 2.64125781,12.7030303 3.44192452,12.7030303 L8.39924392,12.7030303 C9.19991063,12.7030303 9.84725818,11.996833 9.84725818,11.1419625 L10.5286767,2.24015936 L11.3804497,2.24015936 C11.5167334,2.24015936 11.6359817,2.11007038 11.6359817,1.96139726 C11.6359817,1.81272413 11.5167334,1.68263515 11.3804497,1.68263515 Z M4.14037845,0.753428142 C4.15741391,0.734844002 4.2085203,0.716259862 4.29369761,0.716259862 L7.56450629,0.716259862 C7.6496836,0.716259862 7.70078998,0.753428142 7.71782544,0.753428142 L7.71782544,1.70121929 L4.14037845,1.70121929 L4.14037845,0.753428142 L4.14037845,0.753428142 Z M9.35322978,11.1233784 L9.35322978,11.1419625 C9.35322978,11.6994867 8.92734324,12.1640902 8.41627938,12.1640902 L3.44192452,12.1640902 C2.93086066,12.1640902 2.50497411,11.6994867 2.50497411,11.1419625 L1.8405911,2.24015936 L10.0005773,2.24015936 L9.35322978,11.1233784 Z" id="Shape"></path>
                            <path d="M4.58330046,9.74815201 L4.58330046,9.74815201 C4.73661962,9.74815201 4.83883239,9.61806303 4.83883239,9.45080576 L4.65144231,4.91627555 C4.65144231,4.76760243 4.53219407,4.63751345 4.37887492,4.65609759 C4.24259122,4.65609759 4.12334299,4.78618657 4.14037845,4.95344383 L4.32776853,9.48797405 C4.32776853,9.63664717 4.44701677,9.74815201 4.58330046,9.74815201 Z" id="Shape"></path>
                            <path d="M7.27490344,9.74815201 L7.27490344,9.74815201 C7.42822259,9.74815201 7.53043536,9.63664717 7.54747083,9.48797405 L7.73486091,4.95344383 C7.73486091,4.80477071 7.63264813,4.67468173 7.49636444,4.65609759 C7.36008074,4.65609759 7.24083251,4.76760243 7.22379705,4.91627555 L7.03640697,9.45080576 C7.01937151,9.61806303 7.12158428,9.74815201 7.27490344,9.74815201 Z" id="Shape"></path>
                        </g>
                    </g>
                </g>
            </g>
        </g>
    </g>
</svg>