<?xml version="1.0" encoding="UTF-8"?>
<svg width="15px" height="15px" viewBox="0 0 15 15" version="1.1" xmlns="http://www.w3.org/2000/svg" xmlns:xlink="http://www.w3.org/1999/xlink">
    <!-- Generator: Sketch 53.2 (72643) - https://sketchapp.com -->
    <title>bin copy 6</title>
    <desc>Created with Sketch.</desc>
    <g id="Icons" stroke="none" stroke-width="1" fill="none" fill-rule="evenodd">
        <g transform="translate(-380.000000, -289.000000)" fill="#D72B36" fill-rule="nonzero" id="bin-copy-6" stroke="#D72B36" stroke-width="0.5">
            <g transform="translate(380.000000, 289.289623)">
                <path d="M14.0240329,1.90070577 L10.1403913,1.90070577 L10.1403913,0.809087608 C10.1403913,0.45221244 9.78351617,0.158315243 9.32167772,0.158315243 L5.29108759,0.158315243 C4.82924914,0.158315243 4.47237397,0.45221244 4.47237397,0.809087608 L4.47237397,1.90070577 L0.588732436,1.90070577 C0.420791181,1.90070577 0.273842583,2.04765437 0.273842583,2.21559562 C0.273842583,2.38353688 0.420791181,2.53048548 0.588732436,2.53048548 L1.63836528,2.53048548 L2.4570789,12.5859681 C2.4570789,13.572623 3.25479987,14.3493513 4.24145474,14.3493513 L10.3503179,14.3493513 C11.3369728,14.3493513 12.1346937,13.5516304 12.1346937,12.5859681 L12.9744,2.53048548 L14.0240329,2.53048548 C14.1919741,2.53048548 14.3389227,2.38353688 14.3389227,2.21559562 C14.3389227,2.04765437 14.1919741,1.90070577 14.0240329,1.90070577 Z M5.10215368,0.851072922 C5.12314633,0.830080265 5.1861243,0.809087608 5.29108759,0.809087608 L9.32167772,0.809087608 C9.426641,0.809087608 9.48961897,0.851072922 9.51061163,0.851072922 L9.51061163,1.92169842 L5.10215368,1.92169842 L5.10215368,0.851072922 L5.10215368,0.851072922 Z M11.5259067,12.5649755 L11.5259067,12.5859681 C11.5259067,13.2157479 11.0010903,13.7405643 10.3713106,13.7405643 L4.24145474,13.7405643 C3.61167503,13.7405643 3.08685861,13.2157479 3.08685861,12.5859681 L2.26814499,2.53048548 L12.3236277,2.53048548 L11.5259067,12.5649755 Z" id="Shape"></path>
                <path d="M5.64796276,11.0115189 L5.64796276,11.0115189 C5.83689667,11.0115189 5.96285261,10.8645703 5.96285261,10.6756364 L5.73193338,5.55342807 C5.73193338,5.38548682 5.58498479,5.23853822 5.39605087,5.25953088 C5.22810962,5.25953088 5.08116102,5.40647947 5.10215368,5.59541339 L5.3330729,10.7176217 C5.3330729,10.8855629 5.4800215,11.0115189 5.64796276,11.0115189 Z" id="Shape"></path>
                <path d="M8.96480255,11.0115189 L8.96480255,11.0115189 C9.15373646,11.0115189 9.2796924,10.8855629 9.30068506,10.7176217 L9.53160429,5.59541339 C9.53160429,5.42747213 9.40564835,5.28052353 9.23770709,5.25953088 C9.06976583,5.25953088 8.92281724,5.38548682 8.90182458,5.55342807 L8.67090535,10.6756364 C8.6499127,10.8645703 8.77586864,11.0115189 8.96480255,11.0115189 Z" id="Shape"></path>
            </g>
        </g>
    </g>
</svg>