<svg xmlns="http://www.w3.org/2000/svg" viewBox="0 0 51.07 40"><defs><style>.cls-1{fill:#edf0f3;}.cls-2{fill:#6d7c98;}.cls-3{fill:#adadad;}.cls-4{fill:#1fb6e8;}.cls-5{fill:#fff;}</style></defs><title>rss_icon</title><g id="Layer_2" data-name="Layer 2"><g id="Layer_1-2" data-name="Layer 1"><path class="cls-1" d="M48.26,6.05v2h-24V1.59h20a4,4,0,0,1,3.84,2.89H33.57a.79.79,0,1,0,0,1.58H48.26Z"/><path class="cls-1" d="M41.84,36.63a5.66,5.66,0,0,0,.07.72H25.53a1.24,1.24,0,0,1-1.2-.91H41.84v.19Z"/><path class="cls-1" d="M48.26,9.65V30.74a4,4,0,0,0-.49,0h-.7l-.38.05a1.77,1.77,0,0,1-.32.05h0s0,0-.05,0l-.29.08h-.09l-.38.14-.31.14A4.09,4.09,0,0,0,44,32s0,0,0,0a3.62,3.62,0,0,0-.61.56,3.27,3.27,0,0,0-.3.35,2.47,2.47,0,0,0-.3.42,3.21,3.21,0,0,0-.19.31l0,0a5.59,5.59,0,0,0-.32.65q-.1.28-.18.57H24.28v-6.1a.92.92,0,0,0,.79-1,6.32,6.32,0,0,0-.79-2.64V22.34l.2.19a9.27,9.27,0,0,1,2.61,5.29,1.07,1.07,0,0,0,1.08.94.89.89,0,0,0,.86-1,11.11,11.11,0,0,0-1.55-4.41,12.57,12.57,0,0,0-1.67-2.13,11.45,11.45,0,0,0-1.53-1.27V18a12.66,12.66,0,0,1,2.61,2,12.9,12.9,0,0,1,3.67,8,.89.89,0,0,0,.26.58.95.95,0,0,0,1.61-.74,14.88,14.88,0,0,0-4.22-9.11,14.27,14.27,0,0,0-3.93-2.79V9.65Z"/><path class="cls-1" d="M46.77,35.6v0h0A0,0,0,0,1,46.77,35.6Z"/><path class="cls-1" d="M47.6,32.64h0Z"/><path class="cls-1" d="M49,37.28a1.16,1.16,0,0,1-.42.07h-.17v-.07Z"/><path class="cls-2" d="M5.36,3.44A1.39,1.39,0,1,0,6.74,4.82,1.38,1.38,0,0,0,5.36,3.44Zm4.46,0A1.39,1.39,0,1,0,11.2,4.82,1.38,1.38,0,0,0,9.82,3.44Zm4.46,0a1.39,1.39,0,1,0,1.38,1.38A1.38,1.38,0,0,0,14.28,3.44ZM20.7,25.9a1.68,1.68,0,1,0,0,2.38A1.67,1.67,0,0,0,20.7,25.9Zm0,0a1.68,1.68,0,1,0,0,2.38A1.67,1.67,0,0,0,20.7,25.9ZM14.28,3.44a1.39,1.39,0,1,0,1.38,1.38A1.38,1.38,0,0,0,14.28,3.44Zm-4.46,0A1.39,1.39,0,1,0,11.2,4.82,1.38,1.38,0,0,0,9.82,3.44Zm-4.46,0A1.39,1.39,0,1,0,6.74,4.82,1.38,1.38,0,0,0,5.36,3.44Zm0,0A1.39,1.39,0,1,0,6.74,4.82,1.38,1.38,0,0,0,5.36,3.44Zm4.46,0A1.39,1.39,0,1,0,11.2,4.82,1.38,1.38,0,0,0,9.82,3.44Zm4.46,0a1.39,1.39,0,1,0,1.38,1.38A1.38,1.38,0,0,0,14.28,3.44ZM46.75,35.63h0v0A0,0,0,0,0,46.75,35.63ZM14.28,3.44a1.39,1.39,0,1,0,1.38,1.38A1.38,1.38,0,0,0,14.28,3.44Zm-4.46,0A1.39,1.39,0,1,0,11.2,4.82,1.38,1.38,0,0,0,9.82,3.44Zm-4.46,0A1.39,1.39,0,1,0,6.74,4.82,1.38,1.38,0,0,0,5.36,3.44Zm0,0A1.39,1.39,0,1,0,6.74,4.82,1.38,1.38,0,0,0,5.36,3.44Zm4.46,0A1.39,1.39,0,1,0,11.2,4.82,1.38,1.38,0,0,0,9.82,3.44Zm4.46,0a1.39,1.39,0,1,0,1.38,1.38A1.38,1.38,0,0,0,14.28,3.44Zm0,0a1.39,1.39,0,1,0,1.38,1.38A1.38,1.38,0,0,0,14.28,3.44Zm-4.46,0A1.39,1.39,0,1,0,11.2,4.82,1.38,1.38,0,0,0,9.82,3.44Zm-4.46,0A1.39,1.39,0,1,0,6.74,4.82,1.38,1.38,0,0,0,5.36,3.44Zm0,0A1.39,1.39,0,1,0,6.74,4.82,1.38,1.38,0,0,0,5.36,3.44Zm4.46,0A1.39,1.39,0,1,0,11.2,4.82,1.38,1.38,0,0,0,9.82,3.44Zm4.46,0a1.39,1.39,0,1,0,1.38,1.38A1.38,1.38,0,0,0,14.28,3.44Zm0,0a1.39,1.39,0,1,0,1.38,1.38A1.38,1.38,0,0,0,14.28,3.44Zm-4.46,0A1.39,1.39,0,1,0,11.2,4.82,1.38,1.38,0,0,0,9.82,3.44Zm-4.46,0A1.39,1.39,0,1,0,6.74,4.82,1.38,1.38,0,0,0,5.36,3.44Zm0,0A1.39,1.39,0,1,0,6.74,4.82,1.38,1.38,0,0,0,5.36,3.44Zm4.46,0A1.39,1.39,0,1,0,11.2,4.82,1.38,1.38,0,0,0,9.82,3.44Zm4.46,0a1.39,1.39,0,1,0,1.38,1.38A1.38,1.38,0,0,0,14.28,3.44Zm0,0a1.39,1.39,0,1,0,1.38,1.38A1.38,1.38,0,0,0,14.28,3.44Zm-4.46,0A1.39,1.39,0,1,0,11.2,4.82,1.38,1.38,0,0,0,9.82,3.44Zm-4.46,0A1.39,1.39,0,1,0,6.74,4.82,1.38,1.38,0,0,0,5.36,3.44ZM20.7,25.9a1.68,1.68,0,1,0,0,2.38A1.67,1.67,0,0,0,20.7,25.9ZM14.28,3.44a1.39,1.39,0,1,0,1.38,1.38A1.38,1.38,0,0,0,14.28,3.44Zm-4.46,0A1.39,1.39,0,1,0,11.2,4.82,1.38,1.38,0,0,0,9.82,3.44Zm-4.46,0A1.39,1.39,0,1,0,6.74,4.82,1.38,1.38,0,0,0,5.36,3.44Zm0,0A1.39,1.39,0,1,0,6.74,4.82,1.38,1.38,0,0,0,5.36,3.44Zm4.46,0A1.39,1.39,0,1,0,11.2,4.82,1.38,1.38,0,0,0,9.82,3.44Zm4.46,0a1.39,1.39,0,1,0,1.38,1.38A1.38,1.38,0,0,0,14.28,3.44Zm0,0a1.39,1.39,0,1,0,1.38,1.38A1.38,1.38,0,0,0,14.28,3.44Zm-4.46,0A1.39,1.39,0,1,0,11.2,4.82,1.38,1.38,0,0,0,9.82,3.44Zm-4.46,0A1.39,1.39,0,1,0,6.74,4.82,1.38,1.38,0,0,0,5.36,3.44Zm0,0A1.39,1.39,0,1,0,6.74,4.82,1.38,1.38,0,0,0,5.36,3.44Zm4.46,0A1.39,1.39,0,1,0,11.2,4.82,1.38,1.38,0,0,0,9.82,3.44Zm4.46,0a1.39,1.39,0,1,0,1.38,1.38A1.38,1.38,0,0,0,14.28,3.44Zm0,0a1.39,1.39,0,1,0,1.38,1.38A1.38,1.38,0,0,0,14.28,3.44Zm-4.46,0A1.39,1.39,0,1,0,11.2,4.82,1.38,1.38,0,0,0,9.82,3.44Zm-4.46,0A1.39,1.39,0,1,0,6.74,4.82,1.38,1.38,0,0,0,5.36,3.44Zm0,0A1.39,1.39,0,1,0,6.74,4.82,1.38,1.38,0,0,0,5.36,3.44Zm4.46,0A1.39,1.39,0,1,0,11.2,4.82,1.38,1.38,0,0,0,9.82,3.44Zm4.46,0a1.39,1.39,0,1,0,1.38,1.38A1.38,1.38,0,0,0,14.28,3.44Zm0,0a1.39,1.39,0,1,0,1.38,1.38A1.38,1.38,0,0,0,14.28,3.44Zm-4.46,0A1.39,1.39,0,1,0,11.2,4.82,1.38,1.38,0,0,0,9.82,3.44Zm-4.46,0A1.39,1.39,0,1,0,6.74,4.82,1.38,1.38,0,0,0,5.36,3.44Zm0,0A1.39,1.39,0,1,0,6.74,4.82,1.38,1.38,0,0,0,5.36,3.44Zm4.46,0A1.39,1.39,0,1,0,11.2,4.82,1.38,1.38,0,0,0,9.82,3.44Zm4.46,0a1.39,1.39,0,1,0,1.38,1.38A1.38,1.38,0,0,0,14.28,3.44ZM20.7,25.9a1.68,1.68,0,1,0,0,2.38A1.67,1.67,0,0,0,20.7,25.9ZM14.28,3.44a1.39,1.39,0,1,0,1.38,1.38A1.38,1.38,0,0,0,14.28,3.44Zm-4.46,0A1.39,1.39,0,1,0,11.2,4.82,1.38,1.38,0,0,0,9.82,3.44Zm-4.46,0A1.39,1.39,0,1,0,6.74,4.82,1.38,1.38,0,0,0,5.36,3.44ZM20.7,25.9a1.68,1.68,0,1,0,0,2.38A1.67,1.67,0,0,0,20.7,25.9ZM5.36,3.44A1.39,1.39,0,1,0,6.74,4.82,1.38,1.38,0,0,0,5.36,3.44Zm4.46,0A1.39,1.39,0,1,0,11.2,4.82,1.38,1.38,0,0,0,9.82,3.44Zm4.46,0a1.39,1.39,0,1,0,1.38,1.38A1.38,1.38,0,0,0,14.28,3.44Zm-8.92,0A1.39,1.39,0,1,0,6.74,4.82,1.38,1.38,0,0,0,5.36,3.44Zm4.46,0A1.39,1.39,0,1,0,11.2,4.82,1.38,1.38,0,0,0,9.82,3.44Zm4.46,0a1.39,1.39,0,1,0,1.38,1.38A1.38,1.38,0,0,0,14.28,3.44ZM20.7,25.9a1.68,1.68,0,1,0,0,2.38A1.67,1.67,0,0,0,20.7,25.9Z"/><path class="cls-2" d="M32.43,27.76a.95.95,0,0,1-1.61.74.89.89,0,0,1-.26-.58,12.63,12.63,0,0,0-6.28-10,13.18,13.18,0,0,0-2.19-1,12.7,12.7,0,0,0-3.15-.68,1,1,0,0,1-.86-1,.92.92,0,0,1,1-.85,14.72,14.72,0,0,1,3.63.77,11.92,11.92,0,0,1,1.56.65,14.25,14.25,0,0,1,6.18,5.73A14.49,14.49,0,0,1,32.43,27.76Z"/><path class="cls-2" d="M28.17,28.76a1.07,1.07,0,0,1-1.08-.94,9.27,9.27,0,0,0-2.61-5.29l-.2-.19a9.12,9.12,0,0,0-5.09-2.42,1.08,1.08,0,0,1-.63-.31,1,1,0,0,1-.31-.78.88.88,0,0,1,1-.85,11.22,11.22,0,0,1,2.58.65,11,11,0,0,1,2.44,1.3,11.45,11.45,0,0,1,1.53,1.27,12.57,12.57,0,0,1,1.67,2.13A11.11,11.11,0,0,1,29,27.74.89.89,0,0,1,28.17,28.76Z"/><path class="cls-2" d="M25.07,27.76a.92.92,0,0,1-.79,1h-.06a.92.92,0,0,1-.74-.27.91.91,0,0,1-.28-.58,4.79,4.79,0,0,0-4.42-4.43.94.94,0,1,1,.15-1.87A6.17,6.17,0,0,1,20.6,22a6.57,6.57,0,0,1,3.57,2.94,1.28,1.28,0,0,1,.11.2A6.32,6.32,0,0,1,25.07,27.76Z"/><path class="cls-2" d="M44.25,0H5.61A5.62,5.62,0,0,0,0,5.61V34.23a5.17,5.17,0,0,0,.24,1.58.83.83,0,0,0,0,.15,5.6,5.6,0,0,0,5.33,3.87H43l-.19-.29a3,3,0,0,1-.22-.35,1.11,1.11,0,0,1-.15-.31l0-.06s0,0,0,0a4.63,4.63,0,0,1-.21-.56H5.61a4,4,0,0,1-3.35-1.8H41.84a6.16,6.16,0,0,1,.15-1.3h0A.9.9,0,0,1,42,35v0s0,0,0-.07H1.64a3.35,3.35,0,0,1,0-.63V9.65H48.26V30.74l.27,0,.32.08a2.44,2.44,0,0,1,.26.06,3,3,0,0,1,.32.09l.19.07.22.08V5.61A5.6,5.6,0,0,0,44.25,0Zm4,8.07H1.59V5.61a4,4,0,0,1,4-4H44.25a4,4,0,0,1,3.84,2.89H33.57a.79.79,0,1,0,0,1.58H48.26Z"/><path class="cls-3" d="M46.75,35.63h0v0A0,0,0,0,0,46.75,35.63Zm0,0h0v0A0,0,0,0,0,46.75,35.63Zm0,0h0v0A0,0,0,0,0,46.75,35.63Z"/><path class="cls-4" d="M47.57,32.64h0Z"/><path class="cls-5" d="M48.43,37.28v.07h.17a1.16,1.16,0,0,0,.42-.07Z"/><path class="cls-2" d="M51.07,36.44a.83.83,0,0,1-.31.65h0a.91.91,0,0,1-.51.18H48.43v1.9a.2.2,0,0,1,0,.07.74.74,0,0,1-.05.24,1.24,1.24,0,0,1-.2.29.9.9,0,0,1-.3.17,1.28,1.28,0,0,1-.27,0,.82.82,0,0,1-.83-.78v0h0v-1.9h-1.7a.81.81,0,0,1-.82-.69v0a.25.25,0,0,1,0-.09v0a.82.82,0,0,1,.83-.81h1.7V33.47a.88.88,0,0,1,0-.16.76.76,0,0,1,.23-.42.74.74,0,0,1,.41-.21l.14,0h0a.83.83,0,0,1,.58.25.73.73,0,0,1,.08.09.81.81,0,0,1,.17.49v2.16h1.81a.69.69,0,0,1,.2,0,.8.8,0,0,1,.32.16.77.77,0,0,1,.29.47A.41.41,0,0,1,51.07,36.44Z"/><path class="cls-5" d="M47.6,32.64h0Z"/></g></g></svg>