<?xml version="1.0" encoding="UTF-8"?>
<svg width="15px" height="15px" viewBox="0 0 15 15" version="1.1" xmlns="http://www.w3.org/2000/svg" xmlns:xlink="http://www.w3.org/1999/xlink">
    <!-- Generator: Sketch 53.2 (72643) - https://sketchapp.com -->
    <title>clock</title>
    <desc>Created with Sketch.</desc>
    <g id="Icons" stroke="none" stroke-width="1" fill="none" fill-rule="evenodd">
        <g transform="translate(-381.000000, -1715.000000)" fill="#657D98" fill-rule="nonzero" id="clock">
            <g transform="translate(381.508621, 1715.390244)">
                <path d="M7.02075369,0 C3.14529771,0 0,3.14524694 0,7.02064037 C0,10.8960338 3.14529771,14.0412807 7.02075369,14.0412807 C10.8962097,14.0412807 14.0415074,10.8960338 14.0415074,7.02064037 C14.0415074,3.14524694 10.8962097,0 7.02075369,0 Z M7.02075369,2.49533617 C7.26948892,2.49533617 7.47008194,2.69592594 7.47008194,2.94465716 L7.47008194,6.83609774 L9.90126854,9.26724532 C10.0777904,9.44376415 10.0777904,9.72458988 9.90126854,9.90110872 C9.72474686,10.0776278 9.44391659,10.0776278 9.25937098,9.90110872 L6.76399476,7.39774898 C6.6596864,7.2934423 6.58747286,7.1971592 6.56340175,7.02064037 L6.56340175,2.94465716 C6.56340175,2.69592594 6.77201847,2.49533617 7.02075369,2.49533617 Z" id="Shape"></path>
            </g>
        </g>
    </g>
</svg>