<?xml version="1.0" encoding="UTF-8"?>
<svg width="147px" height="152px" viewBox="0 0 147 152" version="1.1" xmlns="http://www.w3.org/2000/svg" xmlns:xlink="http://www.w3.org/1999/xlink">
    <!-- Generator: Sketch 52.6 (67491) - http://www.bohemiancoding.com/sketch -->
    <title>No results found</title>
    <desc>Created with Sketch.</desc>
    <g id="Symbols" stroke="none" stroke-width="1" fill="none" fill-rule="evenodd">
        <g id="Existing-modal---no-results" transform="translate(-309.000000, -280.000000)">
            <g id="No-results-found" transform="translate(309.000000, 280.000000)">
                <g id="no_results">
                    <path d="M130,59.5009234 C130,85.692641 108.27367,106.999991 81.5670969,106.999991 C77.5464782,107.002461 73.5407834,106.512946 69.6400272,105.542444 C65.895019,104.00035 62.3416073,102.03212 59.0505894,99.6769678 C58.1293065,99.021719 57.2304652,98.3382369 56.3540653,97.6265214 C44.5456994,87.9901292 37.0000384,73.3582001 37.0000384,57.0040373 C36.9866276,45.9635717 40.48608,35.2028134 46.9959575,26.2667517 C56.1491498,17.1109166 68.594553,11.9750043 81.5670969,12.0000915 C108.27367,12.0000915 130,33.3092057 130,59.5009234 Z" id="Path" fill="#FAFBFC"></path>
                    <path d="M38.7566019,30.8061298 C35.2112771,37.5673145 33.0689354,44.9720261 32.4576122,52.5777271 C32.3394877,54.0516708 32.2774723,55.5391639 32.2715661,57.0402065 L32.2715661,57.2169384 C32.2715661,59.0761575 32.3601595,60.915347 32.5373463,62.7345069 C32.6861831,64.2979947 32.8988073,65.842042 33.1752186,67.3666488 C35.3722579,79.4811229 41.4305008,90.5648608 50.4491569,98.9698393 L44.2476199,105.155454 L38.8026705,99.7350882 C38.4037128,99.3357707 37.8617764,99.1113197 37.2965829,99.1113197 C36.7313894,99.1113197 36.1894531,99.3357707 35.7904954,99.7350882 L2.94892746,132.499407 C2.89399956,132.554194 2.84261539,132.612515 2.7930031,132.676139 C-0.736557369,137.062624 -0.943865891,143.315397 2.30219574,147.537521 C4.13962255,149.932237 6.89487684,151.478641 10.0558888,151.892194 C10.6063731,151.963998 11.1609573,152.00001 11.7161289,152 C14.5205836,151.997931 17.2446509,151.065297 19.4591907,149.349022 C19.5307326,149.294397 19.5987865,149.235372 19.6629555,149.17229 L52.5133828,116.406204 C52.9137282,116.008271 53.1387569,115.467726 53.1387569,114.903983 C53.1387569,114.340241 52.9137282,113.799696 52.5133828,113.401763 L47.2473919,108.159896 L53.6863592,101.723322 L54.8114952,102.656466 C55.3005307,103.02937 55.7931099,103.396972 56.2945484,103.752203 C66.0101436,110.712315 77.6739514,114.449099 89.6357831,114.433877 C114.310813,114.433877 135.39781,98.8107806 143.477527,76.9667233 C143.950025,75.6706896 144.38118,74.3587502 144.77099,73.0309048 C145.297568,71.2100092 145.731637,69.3637567 146.071541,67.4991977 C146.350315,65.9757691 146.567074,64.4317218 146.721817,62.8670558 C146.900185,61.0537869 146.992913,59.2169539 147,57.3565565 L147,57.2187057 C147,55.7094156 146.940938,54.213675 146.822813,52.7314838 C146.658806,50.6153282 146.375449,48.5100642 145.974089,46.4256912 C145.832339,45.6845956 145.675824,44.9493911 145.504544,44.2200777 C139.588277,18.9103086 116.78434,0 89.6357831,0 C68.6037134,0 50.179833,11.3479525 40.2006741,28.227612 L38.7566019,30.8061298 Z M47.9986639,114.903983 L16.7553206,146.067112 C14.9970917,147.389597 12.7886857,147.970901 10.6051678,147.685975 C8.60118544,147.424412 6.80451158,146.429412 5.67405999,144.957236 C3.62755279,142.290352 3.78702088,138.294445 6.04260847,135.413715 L37.3018985,104.234681 L47.9986639,114.903983 Z M89.6375549,109.801735 C78.6321811,109.813104 67.9020694,106.371096 58.9665249,99.9630723 C58.0451537,99.3068081 57.1462262,98.6222667 56.2697423,97.9094482 C44.460244,88.2581215 36.9138595,73.603516 36.9138595,57.2240076 C36.9004474,46.1664316 40.4002354,35.3889965 46.9107371,26.4390856 C56.4983132,13.2354487 72.0712585,4.63037462 89.6357831,4.63037462 C118.713904,4.63037462 142.357707,28.2205428 142.357707,57.2169384 C142.357707,86.213334 118.713904,109.801735 89.6357831,109.801735 L89.6375549,109.801735 Z" id="Shape" fill="#B9C1CF" fill-rule="nonzero"></path>
                    <path d="M75.5457854,58.9998479 C71.9565534,59.0231888 69.0262024,56.3566442 69.0001745,53.043509 C68.9741467,49.7303738 71.8622952,47.024881 75.4515165,47.0001704 C79.0407377,46.9754598 81.9722827,49.640886 81.9997945,52.9540109 C82.013503,54.5460417 81.3409872,56.0777935 80.1304055,57.2118143 C78.9198237,58.345835 77.270499,58.9890831 75.5457854,58.9998479 Z" id="Path" fill="#B9C1CF"></path>
                    <path d="M104.45209,47.0001672 C101.822898,47.0180935 99.4643551,48.4963763 98.4764578,50.7455617 C97.4885605,52.9947471 98.0659052,55.5717906 99.939225,57.274789 C101.812545,58.9777875 104.612833,59.4712843 107.034068,58.5251184 C109.455303,57.5789524 111.02055,55.3794995 110.999796,52.9525587 C110.97147,49.6401887 108.0405,46.9757006 104.45209,47.0001672 Z" id="Path" fill="#B9C1CF"></path>
                    <path d="M90.3860065,59.0003415 C96.1164262,58.9546451 101.132726,63.5005134 101.983035,69.6658587 C102.119806,70.726353 101.414777,71.7041537 100.403067,71.8571056 C99.3913582,72.0100575 98.4508764,71.2810279 98.2954523,70.2233536 C97.6965693,65.8803769 93.930416,62.6103494 89.9058525,62.9229122 C86.2095397,63.2135407 83.1802045,66.3318564 82.7052885,70.3403362 C82.5546745,71.38583 81.6357166,72.1152837 80.6334436,71.9849328 C79.6311707,71.8545819 78.9106449,70.9119046 79.0089757,69.8596111 C79.7073815,64.0104842 84.1667027,59.462788 89.6282361,59.0332428 C89.8814083,59.0167921 90.1345804,59.0003415 90.3860065,59.0003415 Z" id="Path" fill="#B9C1CF"></path>
                    <path d="M66.9215082,97 C66.6396275,96.9974218 66.3611532,96.9364746 66.1027636,96.8208088 C56.0782318,92.4521106 48.6477304,83.4868678 46.0531225,72.6299916 C45.7983344,71.4860068 46.4841494,70.3435996 47.5942115,70.0628983 C48.7042737,69.782197 49.8285929,70.4668757 50.1206596,71.6014339 C52.398944,81.146173 58.9298274,89.0286719 67.7419985,92.869642 C68.6486789,93.2753127 69.1554056,94.276639 68.9573831,95.2713243 C68.7593606,96.2660096 67.9105493,96.9830057 66.9215082,96.9910404 L66.9215082,97 Z" id="Path" fill="#B9C1CF"></path>
                </g>
            </g>
        </g>
    </g>
</svg>