<svg xmlns="http://www.w3.org/2000/svg" viewBox="0 0 51.08 40"><defs><style>.cls-1{fill:#edf0f3;}.cls-2{fill:#d2d9e1;opacity:0.45;}.cls-3{fill:#6d7c98;}.cls-4{fill:#adadad;}.cls-5{fill:#1fb6e8;}.cls-6{fill:#fff;}.cls-7{fill:#7887a2;}</style></defs><title>text_icon</title><g id="Layer_2" data-name="Layer 2"><g id="Layer_1-2" data-name="Layer 1"><path class="cls-1" d="M42.14,38.29H5.61a4.05,4.05,0,0,1-3.35-1.8H41.83a.28.28,0,0,0,0,.09v0a5.4,5.4,0,0,0,.28,1.62Z"/><path class="cls-2" d="M43,39.88h0a.1.1,0,0,0,0-.05l-.19-.29a3,3,0,0,1-.21-.35,1.82,1.82,0,0,1-.16-.31s0,0,0-.06,0,0,0,0a3.17,3.17,0,0,1-.2-.51h0a3.43,3.43,0,0,0,.22.56v0l0,.06a1.82,1.82,0,0,0,.16.31,3,3,0,0,0,.21.35Z"/><path class="cls-1" d="M42.29,15.86a.77.77,0,0,1,.12.43.85.85,0,0,1-.85.85H17.86a.85.85,0,0,1-.84-.85.77.77,0,0,1,.12-.43H2a1.21,1.21,0,0,0-.38.06V34.27a3.21,3.21,0,0,0,.06.63h40.4l0,0c0-.19.12-.38.18-.56a5.8,5.8,0,0,1,.33-.66s0,0,0,0a3.21,3.21,0,0,1,.19-.31c.09-.14.2-.29.3-.42s.2-.24.31-.35A4,4,0,0,1,44,32h0a4,4,0,0,1,1.2-.75l.32-.14.38-.14H46l.3-.08s0,0,.05,0h0l.32,0,.38-.05.51,0h.19a4,4,0,0,1,.49,0h.06V15.86Zm-24.43,4H35.17a.85.85,0,0,1,0,1.69H17.86a.85.85,0,0,1,0-1.69ZM30.64,30.19H17.86a.85.85,0,0,1,0-1.69H30.64a.85.85,0,0,1,0,1.69Zm6.8-4.3H17.86a.85.85,0,0,1,0-1.69H37.44a.85.85,0,0,1,0,1.69Z"/><path class="cls-2" d="M49.9,31.17v0l-.22-.08L49.49,31,49.17,31a2.44,2.44,0,0,0-.26-.06,3,3,0,0,0-.32-.08l-.27,0v-.05l.21,0a3,3,0,0,1,.32.08,2.44,2.44,0,0,1,.26.06,3,3,0,0,1,.32.09l.19.07.22.08Z"/><path class="cls-2" d="M46.77,35.59v0h0A.07.07,0,0,1,46.77,35.59Z"/><path class="cls-2" d="M47.6,32.63h0Z"/><path class="cls-3" d="M49.9,5.61V31.17l-.06,0-.22-.08L49.43,31a3,3,0,0,0-.32-.09,2.44,2.44,0,0,0-.26-.06,3,3,0,0,0-.32-.08l-.21,0V5.53a4,4,0,0,0-3.73-4h-39a4.23,4.23,0,0,0-4,4.26V34.27a3.21,3.21,0,0,0,.06.63H42.13a.36.36,0,0,0,0,.07v0a.47.47,0,0,0,0,.16h0a6,6,0,0,0-.16,1.29v0H2.26a4.05,4.05,0,0,0,3.35,1.8H42.14a3.17,3.17,0,0,0,.2.51s0,0,0,0,0,0,0,.06a1.82,1.82,0,0,0,.16.31,3,3,0,0,0,.21.35l.19.29a.1.1,0,0,1,0,.05H5.61A5.62,5.62,0,0,1,.28,36s0-.1,0-.15A5.23,5.23,0,0,1,0,34.27V5.61A5.63,5.63,0,0,1,5.61,0H44.29A5.63,5.63,0,0,1,49.9,5.61Z"/><path class="cls-3" d="M43,39.88h0a.1.1,0,0,0,0-.05l-.19-.29a3,3,0,0,1-.21-.35,1.82,1.82,0,0,1-.16-.31s0,0,0-.06,0,0,0,0a3.17,3.17,0,0,1-.2-.51h0a3.43,3.43,0,0,0,.22.56v0l0,.06a1.82,1.82,0,0,0,.16.31,3,3,0,0,0,.21.35Z"/><path class="cls-3" d="M49.9,31.17v0l-.22-.08L49.49,31,49.17,31a2.44,2.44,0,0,0-.26-.06,3,3,0,0,0-.32-.08l-.27,0v-.05l.21,0a3,3,0,0,1,.32.08,2.44,2.44,0,0,1,.26.06,3,3,0,0,1,.32.09l.19.07.22.08Z"/><path class="cls-4" d="M46.75,35.63h0v0A.07.07,0,0,0,46.75,35.63Zm0,0h0v0A.07.07,0,0,0,46.75,35.63Zm0,0h0v0A.07.07,0,0,0,46.75,35.63Z"/><path class="cls-5" d="M47.57,32.63h0Z"/><path class="cls-6" d="M49.84,31.14l-.22-.08L49.43,31a3,3,0,0,0-.32-.09,2.44,2.44,0,0,0-.26-.06,3,3,0,0,0-.32-.08l-.21,0v.05l.27,0a3,3,0,0,1,.32.08,2.44,2.44,0,0,1,.26.06l.32.08.19.08.22.08v0Zm-7,8.45a3,3,0,0,1-.21-.35,1.82,1.82,0,0,1-.16-.31l0-.06v0a3.43,3.43,0,0,1-.22-.56h0a3.17,3.17,0,0,0,.2.51s0,0,0,0,0,0,0,.06a1.82,1.82,0,0,0,.16.31,3,3,0,0,0,.21.35l.19.29a.1.1,0,0,1,0,.05h0Z"/><path class="cls-7" d="M51.08,36.44a.88.88,0,0,1-.31.65h0a.81.81,0,0,1-.31.15l-.2,0H48.43v1.91s0,0,0,.06a.49.49,0,0,1-.05.24.81.81,0,0,1-.21.3.45.45,0,0,1-.13.1h-.87a.85.85,0,0,1-.39-.66v0h0V37.27H45.06a.8.8,0,0,1-.81-.69s0,0,0,0a.22.22,0,0,1,0-.08v0a.82.82,0,0,1,.83-.81h1.71V33.46a1,1,0,0,1,0-.16.76.76,0,0,1,.23-.42.78.78,0,0,1,.41-.22l.14,0h0a.83.83,0,0,1,.58.25l.08.09a.81.81,0,0,1,.17.49v2.17h1.81a.65.65,0,0,1,.2,0,.74.74,0,0,1,.33.17.77.77,0,0,1,.28.46A.45.45,0,0,1,51.08,36.44Z"/><path class="cls-7" d="M48,39.88l-.16.07a1.28,1.28,0,0,1-.27,0,.83.83,0,0,1-.44-.12Z"/><path class="cls-6" d="M47.6,32.63h0Z"/><path class="cls-3" d="M43.08,7.83a.84.84,0,0,1-.84.84H17.86a.84.84,0,0,1,0-1.68H42.24A.84.84,0,0,1,43.08,7.83Z"/><path class="cls-3" d="M41.48,12.13a.84.84,0,0,1-.85.84H17.86a.84.84,0,1,1,0-1.68H40.63A.84.84,0,0,1,41.48,12.13Z"/><path class="cls-3" d="M42.41,16.29a.85.85,0,0,1-.85.85H17.86a.85.85,0,0,1-.84-.85.77.77,0,0,1,.12-.43.84.84,0,0,1,.72-.41h23.7a.84.84,0,0,1,.73.41A.77.77,0,0,1,42.41,16.29Z"/><path class="cls-3" d="M36,20.75a.85.85,0,0,1-.84.84H17.86a.85.85,0,0,1,0-1.69H35.17A.85.85,0,0,1,36,20.75Z"/><path class="cls-3" d="M38.28,25a.85.85,0,0,1-.84.85H17.86a.85.85,0,0,1,0-1.69H37.44A.85.85,0,0,1,38.28,25Z"/><path class="cls-3" d="M31.48,29.34a.85.85,0,0,1-.84.85H17.86a.85.85,0,0,1,0-1.69H30.64A.85.85,0,0,1,31.48,29.34Z"/><path class="cls-3" d="M13.5,7.24v0c0,.56-.3.86-.91.86h-1v3.79a.81.81,0,0,1-.89.91H10.4c-.55,0-.82-.31-.82-.91V8.13H8.51a.8.8,0,0,1-.91-.86v0c0-.54.32-.82.91-.82h4.08C13.2,6.42,13.5,6.7,13.5,7.24Z"/></g></g></svg>