<?xml version="1.0" encoding="UTF-8"?>
<svg width="12px" height="10px" viewBox="0 0 12 10" version="1.1" xmlns="http://www.w3.org/2000/svg" xmlns:xlink="http://www.w3.org/1999/xlink">
    <!-- Generator: Sketch 53.2 (72643) - https://sketchapp.com -->
    <title>Shape</title>
    <desc>Created with Sketch.</desc>
    <g id="Symbols" stroke="none" stroke-width="1" fill="none" fill-rule="evenodd">
        <g id="Icons/Arrows/Up" fill="#067BBE" fill-rule="nonzero">
            <path d="M11.0045362,6.17737997 L5.67772431,0.0685593893 C5.60513008,-0.0146921256 5.47879213,-0.0233315575 5.39554062,0.0492626781 C5.38868169,0.0552435725 5.38223897,0.0616856314 5.37625738,0.0685439449 L0.0492761384,6.17629522 C-0.023326627,6.2595393 -0.01470014,6.38587813 0.0685439364,6.45848089 C0.104970064,6.49025057 0.151668875,6.50775416 0.200002872,6.50775416 L3.49161066,6.50775416 L3.49161066,9.76635721 C3.49161066,9.87681416 3.58115371,9.96635721 3.69161066,9.96635721 L7.36225305,9.96635721 C7.47271,9.96635721 7.56225305,9.87681416 7.56225305,9.76635721 L7.56225305,6.50775416 L10.853731,6.50882345 C10.964188,6.50885933 11.0537601,6.41934538 11.053796,6.30888843 C11.0538117,6.26053913 11.0363122,6.21382089 11.0045362,6.17737997 Z" id="Shape"></path>
        </g>
    </g>
</svg>