<?xml version="1.0" encoding="UTF-8"?>
<svg width="11px" height="10px" viewBox="0 0 11 10" version="1.1" xmlns="http://www.w3.org/2000/svg" xmlns:xlink="http://www.w3.org/1999/xlink">
    <!-- Generator: Sketch 52.2 (67145) - http://www.bohemiancoding.com/sketch -->
    <title>Shape</title>
    <desc>Created with Sketch.</desc>
    <g id="CMS-UI-Updates" stroke="none" stroke-width="1" fill="none" fill-rule="evenodd">
        <g id="Plan" transform="translate(-672.000000, -536.000000)" fill="#067BBE" fill-rule="nonzero">
            <g id="Group-6" transform="translate(663.000000, 526.000000)">
                <g id="Group-3">
                    <g id="IMAGE-+-CAPTION">
                        <g id="arrow-btn">
                            <path d="M19.9805691,16.1669568 L14.6537572,10.0581362 C14.581163,9.97488472 14.454825,9.96624529 14.3715735,10.0388395 C14.3647146,10.0448204 14.3582719,10.0512625 14.3522903,10.0581208 L9.02530902,16.1658721 C8.95270625,16.2491161 8.96133274,16.375455 9.04457681,16.4480577 C9.08100294,16.4798274 9.12770175,16.497331 9.17603575,16.497331 L12.4676435,16.497331 L12.4676435,19.7559341 C12.4676435,19.866391 12.5571866,19.9559341 12.6676435,19.9559341 L16.3382859,19.9559341 C16.4487429,19.9559341 16.5382859,19.866391 16.5382859,19.7559341 L16.5382859,16.497331 L19.8297639,16.4984003 C19.9402209,16.4984362 20.029793,16.4089222 20.0298289,16.2984653 C20.0298446,16.250116 20.0123451,16.2033977 19.9805691,16.1669568 Z" id="Shape"></path>
                        </g>
                    </g>
                </g>
            </g>
        </g>
    </g>
</svg>