<svg xmlns="http://www.w3.org/2000/svg" viewBox="0 0 66.05 52.78"><defs><style>.cls-1{fill:#edf0f3;}.cls-2,.cls-3{fill:#6d7c98;}.cls-3{fill-rule:evenodd;}</style></defs><title>upload_image_icon</title><g id="Layer_2" data-name="Layer 2"><g id="Layer_1-2" data-name="Layer 1"><path class="cls-1" d="M43.85,47.69a4.53,4.53,0,0,1-2.39,2.94H7.61a5.46,5.46,0,0,1-5.45-5.46V8.12A4.47,4.47,0,0,1,6.42,5H39.5a4.11,4.11,0,0,1,.8.07H10.69A5.33,5.33,0,0,0,5.38,10.4v32a5.31,5.31,0,0,0,5.31,5.3Z"/><path class="cls-1" d="M15.85,38.63c-.3.72.38,1.46,1.35,1.46H44v5.44H10.69a3.15,3.15,0,0,1-3.15-3.14v-32a3.15,3.15,0,0,1,3.15-3.15H43.38A4.46,4.46,0,0,1,44,9.49v16.9l-1.69-3.33a1.61,1.61,0,0,0-2.62,0l-2.92,5a1.59,1.59,0,0,1-2.62-.09c-1.9-4.07-3.8-8.16-5.7-12.24a1.58,1.58,0,0,0-2.68,0Z"/><path class="cls-2" d="M39.24,11.33a3,3,0,1,0,3,3A3,3,0,0,0,39.24,11.33ZM56,52.76l0,0a.06.06,0,0,0,0,0l0,0h0Z"/><path class="cls-2" d="M66.05,7.62V41.74a5.11,5.11,0,0,0-.65-.5,6.61,6.61,0,0,0-1.5-.76V7.62a5.47,5.47,0,0,0-5.46-5.46H7.61A5.46,5.46,0,0,0,2.16,7.62V45.17a5.46,5.46,0,0,0,5.45,5.46H54.5a7.89,7.89,0,0,0,1.26,1.89l.12.12,0,.06,0,0h0a.06.06,0,0,0,0,0l0,0H7.61A7.62,7.62,0,0,1,0,45.17V7.62A7.63,7.63,0,0,1,7.61,0H58.44A7.62,7.62,0,0,1,66.05,7.62Z"/><path class="cls-2" d="M61.25,10.4V40l-.65,0-.51.07-.42.07-.09,0-.37.09h-.08l0,0V10.4A3.15,3.15,0,0,0,56,7.25H10.69A3.15,3.15,0,0,0,7.54,10.4v32a3.15,3.15,0,0,0,3.15,3.14H54.07a2.09,2.09,0,0,0,0,.21h0a6.86,6.86,0,0,0-.21,1.69v0a1.48,1.48,0,0,0,0,.21H10.69a5.31,5.31,0,0,1-5.31-5.3v-32a5.33,5.33,0,0,1,5.31-5.31H56A5.31,5.31,0,0,1,61.25,10.4Z"/><path class="cls-2" d="M48.86,40.09H17.2c-1,0-1.65-.74-1.35-1.46l9.9-23a1.58,1.58,0,0,1,2.68,0c1.9,4.08,3.8,8.17,5.7,12.24a1.59,1.59,0,0,0,2.62.09l2.92-5a1.61,1.61,0,0,1,2.62,0L44,26.39l6.2,12.19C50.55,39.3,49.86,40.09,48.86,40.09Z"/><path class="cls-2" d="M60.23,46.46h0v0A.07.07,0,0,0,60.23,46.46Zm0,0h0v0A.07.07,0,0,0,60.23,46.46Zm0,0h0v0A.07.07,0,0,0,60.23,46.46Z"/><path class="cls-2" d="M61.3,42.58h0Z"/><path class="cls-2" d="M56,52.76l0,0a.06.06,0,0,0,0,0l0,0h0Z"/><path class="cls-2" d="M61.33,42.58h0Z"/><path class="cls-3" d="M61.32,52a.76.76,0,0,1-.77-.76V45.9L59,47.31a.77.77,0,0,1-1.29-.55A.76.76,0,0,1,58,46.2l2.81-2.61h0a.74.74,0,0,1,.48-.2h.15a.85.85,0,0,1,.37.15l.05.05,2.83,2.55a.76.76,0,0,1,0,1.08.77.77,0,0,1-1.08.05l-1.55-1.4v5.37a.77.77,0,0,1-.77.76"/></g></g></svg>