<svg xmlns="http://www.w3.org/2000/svg" viewBox="0 0 50.32 66.81"><defs><style>.cls-1{fill:#edf0f3;}.cls-2,.cls-4{fill:#6d7c98;}.cls-3{fill:#fff;}.cls-4{fill-rule:evenodd;}</style></defs><title>upload_file_icon</title><g id="Layer_2" data-name="Layer 2"><g id="Layer_1-2" data-name="Layer 1"><path class="cls-1" d="M39.62,14.42v.81H35.78a2.5,2.5,0,0,1-2.52-2.52V11.46h3.4A3,3,0,0,1,39.62,14.42Z"/><path class="cls-1" d="M35.78,17.24h3.84V58.58a2.94,2.94,0,0,1-1.13,2.32h-34A2.49,2.49,0,0,1,2,58.38V12.55A3,3,0,0,1,4.3,11.46h27v1.25a4.54,4.54,0,0,0,4.53,4.53Z"/><path class="cls-2" d="M46.29,60.61h0v0S46.3,60.6,46.29,60.61Zm.86-47.08L34.73,1.34A4.58,4.58,0,0,0,31.54,0h-27A4.51,4.51,0,0,0,0,4.53V62.28a4.51,4.51,0,0,0,4.53,4.53H42a7.22,7.22,0,0,1-1.39-2H4.53A2.5,2.5,0,0,1,2,62.28v-.12a4.54,4.54,0,0,0,2.52.75H40a7.78,7.78,0,0,1-.13-1.38q0-.31,0-.63H4.53A2.49,2.49,0,0,1,2,58.38V4.53A2.5,2.5,0,0,1,4.53,2H31.25v10.7a4.52,4.52,0,0,0,4.53,4.53h10.7V54a6.54,6.54,0,0,1,1-.07,6.77,6.77,0,0,1,1,.07V16.79A4.94,4.94,0,0,0,47.15,13.53Zm-11.37,1.7a2.5,2.5,0,0,1-2.52-2.52v-10l.08,0,12.4,12.16a2.85,2.85,0,0,1,.24.3Z"/><path class="cls-2" d="M19.81,18.92H8.8a.87.87,0,1,1,0-1.73h11a.87.87,0,1,1,0,1.73Z"/><path class="cls-2" d="M17.61,21.9H8.8a.87.87,0,1,1,0-1.72h8.81a.87.87,0,1,1,0,1.72Z"/><path class="cls-2" d="M16,25.26H8.8a.87.87,0,1,1,0-1.73H16a.87.87,0,1,1,0,1.73Z"/><path class="cls-2" d="M19.81,28.87H8.8a.87.87,0,1,1,0-1.73h11a.87.87,0,1,1,0,1.73Z"/><path class="cls-2" d="M17.61,32.23H8.8a.87.87,0,1,1,0-1.73h8.81a.87.87,0,1,1,0,1.73Z"/><path class="cls-2" d="M16,35.58H8.8a.87.87,0,1,1,0-1.72H16a.87.87,0,1,1,0,1.72Z"/><path class="cls-3" d="M46.31,60.58v0h0S46.31,60.59,46.31,60.58Z"/><path class="cls-4" d="M46.55,65.93a.79.79,0,0,1-.8-.79V59.56L44.17,61A.81.81,0,0,1,43,61a.83.83,0,0,1-.22-.55.8.8,0,0,1,.26-.58L46,57.15h0a.87.87,0,0,1,.5-.22h.16a.8.8,0,0,1,.38.16l.06,0,2.95,2.67a.8.8,0,0,1,.06,1.13A.83.83,0,0,1,49,61l-1.62-1.46v5.61a.79.79,0,0,1-.8.79"/></g></g></svg>