<svg xmlns="http://www.w3.org/2000/svg" viewBox="0 0 65.51 52"><defs><style>.cls-1{fill:#fff;}.cls-2{fill:#edf0f3;}.cls-3,.cls-4{fill:#6d7c98;}.cls-4{fill-rule:evenodd;}</style></defs><title>upload_video_icon</title><g id="Layer_2" data-name="Layer 2"><g id="Layer_1-2" data-name="Layer 1"><path class="cls-1" d="M54.76,44.06h0v0a1.94,1.94,0,0,0-.05.2h0a7,7,0,0,0-.2,1.65v0a.86.86,0,0,0,0,.17h0a1.34,1.34,0,0,1,0-.2A7.44,7.44,0,0,1,54.76,44.06Z"/><path class="cls-1" d="M55.87,50.2a2,2,0,0,1-.2-.3h0C55.73,50,55.8,50.1,55.87,50.2Z"/><path class="cls-1" d="M57.72,52h0a2.48,2.48,0,0,1-.26-.19Z"/><path class="cls-1" d="M60.25,38.85v0h0l-.09,0a2.3,2.3,0,0,0-.35.1h-.12a8.44,8.44,0,0,0-.88.34,6,6,0,0,0-1.52,1,0,0,0,0,0,0,0,6.36,6.36,0,0,0-1.12,1.14h-.06A7.22,7.22,0,0,1,60.25,38.85Z"/><path class="cls-1" d="M65.08,39.46v0a5.91,5.91,0,0,0-.74-.32c-.21-.08-.42-.14-.63-.2s-.48-.12-.73-.17v0A7.18,7.18,0,0,1,65.08,39.46Z"/><path class="cls-2" d="M4.83,9.55V39.38H2.17V11.26A1.72,1.72,0,0,1,3.88,9.55Z"/><path class="cls-2" d="M24.71,14.23V32a1.64,1.64,0,0,0,2.52,1.38l11.24-6v12H6.93V9.55H36.76a1.71,1.71,0,0,1,1.71,1.71v7.61l-11.24-6A1.65,1.65,0,0,0,24.71,14.23Z"/><path class="cls-2" d="M38.47,41.48v7a1.7,1.7,0,0,1-.81,1.45H7.41a5.29,5.29,0,0,1-5-3.55H20a1.05,1.05,0,0,0,0-2.1H2.17V41.48Z"/><path class="cls-3" d="M43.82,44.06a1,1,0,0,0,0,2.1H54.53a.81.81,0,0,1,0-.16v0a7.44,7.44,0,0,1,.2-1.64v0a1.33,1.33,0,0,1,.05-.19v0ZM55.67,49.9h0a2,2,0,0,0,.2.3C55.8,50.1,55.73,50,55.67,49.9Zm1.78,1.91a2.48,2.48,0,0,0,.26.19h0Zm-1.4-10.33h.06a6.36,6.36,0,0,1,1.12-1.14,0,0,0,0,1,0,0,6,6,0,0,1,1.52-1,8.44,8.44,0,0,1,.88-.34h.12a2.3,2.3,0,0,1,.35-.1l.09,0h0v0A7.22,7.22,0,0,0,56.05,41.48ZM63,38.78v0c.25,0,.49.1.73.17s.42.12.63.2a5.91,5.91,0,0,1,.74.32v0A7.18,7.18,0,0,0,63,38.78ZM60.72,45h0v0Zm1-3.77h0ZM43.82,44.06a1,1,0,0,0,0,2.1H54.53a.81.81,0,0,1,0-.16v0a7.44,7.44,0,0,1,.2-1.64v0a1.33,1.33,0,0,1,.05-.19v0ZM0,45.07a.85.85,0,0,0,0,.23.92.92,0,0,0,.1.44A3,3,0,0,1,0,45.07Z"/><path class="cls-3" d="M57.67,0H7.41A7.43,7.43,0,0,0,0,7.42V44.59a3.75,3.75,0,0,0,0,.48,3,3,0,0,0,.07.67A7.41,7.41,0,0,0,7.41,52h50.3a2.48,2.48,0,0,1-.26-.19l-.22-.16-.09-.08a2.32,2.32,0,0,1-.25-.21l-.21-.2,0,0s0,0,0,0l0,0,0,0-.12-.14a3,3,0,0,1-.28-.33L56,50.4l-.14-.2a2,2,0,0,1-.2-.3H7.41a5.29,5.29,0,0,1-5-3.55H20a1.05,1.05,0,0,0,0-2.1H2.1V41.48h54a7.22,7.22,0,0,1,4.2-2.63V9.36a4.6,4.6,0,0,0-4.59-4.59H9.44A4.61,4.61,0,0,0,4.83,9.36v30H2.1v-32A5.32,5.32,0,0,1,7.41,2.1H57.67A5.32,5.32,0,0,1,63,7.42V38.78a7.18,7.18,0,0,1,2.1.68v-32A7.43,7.43,0,0,0,57.67,0ZM6.93,9.36A2.5,2.5,0,0,1,9.44,6.87H55.66a2.5,2.5,0,0,1,2.49,2.49v30H6.93Z"/><path class="cls-3" d="M43.79,24.51l-5.32,2.85-11.24,6A1.64,1.64,0,0,1,24.71,32V14.23a1.65,1.65,0,0,1,2.52-1.39l11.24,6,5.32,2.86A1.64,1.64,0,0,1,43.79,24.51Z"/><path class="cls-4" d="M61.75,50.32a.8.8,0,0,1-.81-.79V44l-1.58,1.47a.8.8,0,0,1-1.13,0,.8.8,0,0,1,0-1.13l2.94-2.72h0a.83.83,0,0,1,.49-.21h.16a.93.93,0,0,1,.39.15l0,.05,3,2.67a.79.79,0,0,1,0,1.13.81.81,0,0,1-1.13.05l-1.62-1.46v5.61a.8.8,0,0,1-.8.79"/></g></g></svg>