<?xml version="1.0" encoding="UTF-8"?>
<svg width="74px" height="59px" viewBox="0 0 74 59" version="1.1" xmlns="http://www.w3.org/2000/svg" xmlns:xlink="http://www.w3.org/1999/xlink">
    <!-- Generator: Sketch 52.2 (67145) - http://www.bohemiancoding.com/sketch -->
    <title>Group 11</title>
    <desc>Created with Sketch.</desc>
    <defs>
        <polygon id="path-1" points="0 0.147739189 49.9937237 0.147739189 49.9937237 41.6630095 0 41.6630095"></polygon>
        <polygon id="path-3" points="0.16248172 0.291142591 9.46165591 0.291142591 9.46165591 11.5797068 0.16248172 11.5797068"></polygon>
    </defs>
    <g id="CMS-UI-Updates" stroke="none" stroke-width="1" fill="none" fill-rule="evenodd">
        <g id="Plan" transform="translate(-812.000000, -240.000000)">
            <g id="Group-11" transform="translate(812.000000, 240.000000)">
                <g id="Group-9">
                    <g id="Group-3" transform="translate(0.000000, 0.251149)">
                        <mask id="mask-2" fill="white">
                            <use xlink:href="#path-1"></use>
                        </mask>
                        <g id="Clip-2"></g>
                        <path d="M49.9937237,0.147739189 L49.9937237,39.8926108 C49.9937237,40.8693 49.2024011,41.6630095 48.227272,41.6630095 L0.0516806452,41.6630095 C0.0361645161,41.6630095 0.0158741935,41.6630095 -3.97849462e-05,41.6586243 L-3.97849462e-05,8.49145541 C-3.97849462e-05,3.89105 3.73536882,0.147739189 8.31501398,0.147739189 L49.9937237,0.147739189 Z" id="Fill-1" fill="#EDF0F3" mask="url(#mask-2)"></path>
                    </g>
                    <path d="M49.1304301,24.8238912 L30.5468817,14.8297696 C29.3099677,14.0643642 27.7221505,14.9493642 27.7221505,16.4004453 L27.7221505,36.3886885 C27.7221505,37.8397696 29.3099677,38.7247696 30.5468817,37.9474047 L49.1304301,27.9532831 C49.6834409,27.6104453 49.973871,27.0403777 49.9937634,26.4663236 L49.9937634,26.3148372 C49.973871,25.7367966 49.6834409,25.1707155 49.1304301,24.8238912 Z M0.0362043011,51.0669318 C0.0119354839,51.150648 1.6348034e-14,51.2303777 1.6348034e-14,51.3260534 C1.6348034e-14,51.5014588 0.0362043011,51.6688912 0.107419355,51.8203777 C0.0596774194,51.5732155 0.0362043011,51.3260534 0.0362043011,51.0669318 Z M49.1304301,24.8238912 L30.5468817,14.8297696 C29.3099677,14.0643642 27.7221505,14.9493642 27.7221505,16.4004453 L27.7221505,36.3886885 C27.7221505,37.8397696 29.3099677,38.7247696 30.5468817,37.9474047 L49.1304301,27.9532831 C49.6834409,27.6104453 49.973871,27.0403777 49.9937634,26.4663236 L49.9937634,26.3148372 C49.973871,25.7367966 49.6834409,25.1707155 49.1304301,24.8238912 Z M49.1304301,24.8238912 L30.5468817,14.8297696 C29.3099677,14.0643642 27.7221505,14.9493642 27.7221505,16.4004453 L27.7221505,36.3886885 C27.7221505,37.8397696 29.3099677,38.7247696 30.5468817,37.9474047 L49.1304301,27.9532831 C49.6834409,27.6104453 49.973871,27.0403777 49.9937634,26.4663236 L49.9937634,26.3148372 C49.973871,25.7367966 49.6834409,25.1707155 49.1304301,24.8238912 Z M49.1304301,24.8238912 L30.5468817,14.8297696 C29.3099677,14.0643642 27.7221505,14.9493642 27.7221505,16.4004453 L27.7221505,36.3886885 C27.7221505,37.8397696 29.3099677,38.7247696 30.5468817,37.9474047 L49.1304301,27.9532831 C49.6834409,27.6104453 49.973871,27.0403777 49.9937634,26.4663236 L49.9937634,26.3148372 C49.973871,25.7367966 49.6834409,25.1707155 49.1304301,24.8238912 Z M49.1304301,24.8238912 L30.5468817,14.8297696 C29.3099677,14.0643642 27.7221505,14.9493642 27.7221505,16.4004453 L27.7221505,36.3886885 C27.7221505,37.8397696 29.3099677,38.7247696 30.5468817,37.9474047 L49.1304301,27.9532831 C49.6834409,27.6104453 49.973871,27.0403777 49.9937634,26.4663236 L49.9937634,26.3148372 C49.973871,25.7367966 49.6834409,25.1707155 49.1304301,24.8238912 Z M49.1304301,24.8238912 L30.5468817,14.8297696 C29.3099677,14.0643642 27.7221505,14.9493642 27.7221505,16.4004453 L27.7221505,36.3886885 C27.7221505,37.8397696 29.3099677,38.7247696 30.5468817,37.9474047 L49.1304301,27.9532831 C49.6834409,27.6104453 49.973871,27.0403777 49.9937634,26.4663236 L49.9937634,26.3148372 C49.973871,25.7367966 49.6834409,25.1707155 49.1304301,24.8238912 Z M49.1304301,24.8238912 L30.5468817,14.8297696 C29.3099677,14.0643642 27.7221505,14.9493642 27.7221505,16.4004453 L27.7221505,36.3886885 C27.7221505,37.8397696 29.3099677,38.7247696 30.5468817,37.9474047 L49.1304301,27.9532831 C49.6834409,27.6104453 49.973871,27.0403777 49.9937634,26.4663236 L49.9937634,26.3148372 C49.973871,25.7367966 49.6834409,25.1707155 49.1304301,24.8238912 Z M30.5468817,37.9474047 L49.1304301,27.9532831 C49.6834409,27.6104453 49.973871,27.0403777 49.9937634,26.4663236 L49.9937634,26.3148372 C49.973871,25.7367966 49.6834409,25.1707155 49.1304301,24.8238912 L30.5468817,14.8297696 C29.3099677,14.0643642 27.7221505,14.9493642 27.7221505,16.4004453 L27.7221505,36.3886885 C27.7221505,37.8397696 29.3099677,38.7247696 30.5468817,37.9474047 Z M7.77397849,10.9269993 C7.77397849,9.38024257 9.03516129,8.11652635 10.5867742,8.11652635 L62.4345161,8.11652635 C63.978172,8.11652635 65.2393548,9.38024257 65.2393548,10.9269993 L65.2393548,44.6726074 L7.77397849,44.6726074 L7.77397849,10.9269993 Z M64.6982796,0.398688514 L8.31505376,0.398688514 C3.7354086,0.398688514 0,4.14199932 0,8.74240473 L0,50.5247696 C0,50.7117358 0.0119354839,50.8875399 0.0362043011,51.0669318 C0.0362043011,51.3260534 0.0596774194,51.5732155 0.107419355,51.8203777 C0.73244086,55.7984926 4.1817957,58.8521412 8.31505376,58.8521412 L64.7543763,58.8521412 C64.3441935,58.5814588 63.9419677,58.2625399 63.5882796,57.9077426 L63.5524731,57.8758507 C63.5325806,57.8519318 63.5087097,57.8160534 63.4848387,57.8040939 C63.4729032,57.7917358 63.4729032,57.7917358 63.4613656,57.780175 C63.0830108,57.3891007 62.7408602,56.9549723 62.4583871,56.4921412 L8.31505376,56.4921412 C5.72465591,56.4921412 3.50903226,54.830175 2.70935484,52.5056547 L22.4705376,52.5056547 C23.1150538,52.5056547 23.648172,51.975452 23.648172,51.3260534 C23.648172,50.6762561 23.1150538,50.1460534 22.4705376,50.1460534 L2.35566667,50.1460534 L2.35566667,47.0326074 L62.9437634,47.0326074 C63.3058065,46.5462561 63.743043,46.1236885 64.2129032,45.7449723 C64.2248387,45.7210534 64.2367742,45.7210534 64.2487097,45.7210534 C64.765914,45.2825399 65.3427957,44.9197696 65.9554839,44.660648 C66.2737634,44.505175 66.6039785,44.3895669 66.946129,44.2695736 C66.9580645,44.2695736 66.97,44.2580128 66.9819355,44.2580128 C67.0062043,44.2460534 67.0420108,44.2460534 67.0738387,44.2460534 C67.205129,44.210175 67.3439785,44.1623372 67.4752688,44.1380196 C67.5110753,44.1264588 67.5349462,44.1264588 67.5711505,44.1065264 L67.5946237,44.1065264 L67.5946237,10.9269993 C67.5946237,8.08064797 65.2751613,5.75652635 62.4345161,5.75652635 L10.5867742,5.75652635 C7.73817204,5.75652635 5.41870968,8.08064797 5.41870968,10.9269993 L5.41870968,44.6726074 L2.35566667,44.6726074 L2.35566667,8.74240473 C2.35566667,5.43760743 5.02841935,2.75868851 8.31505376,2.75868851 L64.6982796,2.75868851 C67.9805376,2.75868851 70.6544839,5.43760743 70.6544839,8.74240473 L70.6544839,44.0343709 C70.9365591,44.0826074 71.2070968,44.1380196 71.4776344,44.2221345 C71.7167419,44.2819318 71.9510753,44.3536885 72.1858065,44.4453777 C72.4682796,44.5410534 72.7388172,44.660648 73.0097527,44.7997764 L73.0097527,8.74240473 C73.0097527,4.14199932 69.2775269,0.398688514 64.6982796,0.398688514 Z M49.1304301,24.8238912 L30.5468817,14.8297696 C29.3099677,14.0643642 27.7221505,14.9493642 27.7221505,16.4004453 L27.7221505,36.3886885 C27.7221505,37.8397696 29.3099677,38.7247696 30.5468817,37.9474047 L49.1304301,27.9532831 C49.6834409,27.6104453 49.973871,27.0403777 49.9937634,26.4663236 L49.9937634,26.3148372 C49.973871,25.7367966 49.6834409,25.1707155 49.1304301,24.8238912 Z M49.1304301,24.8238912 L30.5468817,14.8297696 C29.3099677,14.0643642 27.7221505,14.9493642 27.7221505,16.4004453 L27.7221505,36.3886885 C27.7221505,37.8397696 29.3099677,38.7247696 30.5468817,37.9474047 L49.1304301,27.9532831 C49.6834409,27.6104453 49.973871,27.0403777 49.9937634,26.4663236 L49.9937634,26.3148372 C49.973871,25.7367966 49.6834409,25.1707155 49.1304301,24.8238912 Z M49.1304301,24.8238912 L30.5468817,14.8297696 C29.3099677,14.0643642 27.7221505,14.9493642 27.7221505,16.4004453 L27.7221505,36.3886885 C27.7221505,37.8397696 29.3099677,38.7247696 30.5468817,37.9474047 L49.1304301,27.9532831 C49.6834409,27.6104453 49.973871,27.0403777 49.9937634,26.4663236 L49.9937634,26.3148372 C49.973871,25.7367966 49.6834409,25.1707155 49.1304301,24.8238912 Z" id="Fill-4" fill="#7887A2"></path>
                    <g id="Group-8" transform="translate(64.451613, 46.494392)">
                        <mask id="mask-4" fill="white">
                            <use xlink:href="#path-3"></use>
                        </mask>
                        <g id="Clip-7"></g>
                        <path d="M4.79623441,11.5797068 C4.2468043,11.5797068 3.80161075,11.1336189 3.80161075,10.5830851 L3.80161075,3.58919324 L1.83742796,5.43573378 C1.43679355,5.81205811 0.807395699,5.79172703 0.431427957,5.39108514 C0.251202151,5.19813919 0.16248172,4.95297027 0.16248172,4.70859865 C0.16248172,4.44309865 0.267911828,4.17839595 0.476384946,3.98186216 L4.11551398,0.560659459 L4.11670753,0.559463514 C4.28897634,0.398409459 4.5042129,0.309510811 4.72342796,0.293564865 C4.79146022,0.288781081 4.86108387,0.291172973 4.92991183,0.299943243 C5.0978043,0.322666216 5.26132043,0.388443243 5.40215914,0.497274324 C5.42682581,0.516409459 5.45069677,0.536341892 5.47297634,0.55747027 L9.13716989,3.90731486 C9.54337419,4.27845676 9.57201935,4.90872027 9.20162151,5.31494324 C8.83201935,5.72196351 8.20222366,5.75106486 7.79681505,5.37952432 L5.79085806,3.54613919 L5.79085806,10.5830851 C5.79085806,11.1336189 5.34566452,11.5797068 4.79623441,11.5797068" id="Fill-6" fill="#6D7C98" mask="url(#mask-4)"></path>
                    </g>
                </g>
                <path d="M26,15.0701011 L26,37.4552348 C26,39.078595 27.7885927,40.0683416 29.1674392,39.2079743 L50.0548533,28.0153552 C51.3520859,27.2058192 51.3520859,25.3195167 50.0548533,24.5099808 L29.1674392,13.3174662 C27.7885927,12.4570989 26,13.4467409 26,15.0701011" id="Fill-10" fill="#6D7C98"></path>
            </g>
        </g>
    </g>
</svg>