<svg xmlns="http://www.w3.org/2000/svg" viewBox="0 0 50.91 40"><defs><style>.cls-1{fill:#fff;}.cls-2{fill:#edf0f3;}.cls-3{fill:#6d7c98;}</style></defs><title>video_icon</title><g id="Layer_2" data-name="Layer 2"><g id="Layer_1-2" data-name="Layer 1"><path class="cls-1" d="M42.12,33.89h0v0a.83.83,0,0,0,0,.15h0a5.88,5.88,0,0,0-.15,1.27v0a.53.53,0,0,0,0,.13h0a.76.76,0,0,1,0-.15A5.92,5.92,0,0,1,42.12,33.89Z"/><path class="cls-1" d="M43,38.62l-.16-.23h0Z"/><path class="cls-1" d="M44.4,40h0l-.2-.14Z"/><path class="cls-1" d="M46.35,29.88v0h0l-.07,0L46,30H45.9a5.66,5.66,0,0,0-.68.27,4.62,4.62,0,0,0-1.17.72,0,0,0,0,0,0,0,5.17,5.17,0,0,0-.87.88h0A5.54,5.54,0,0,1,46.35,29.88Z"/><path class="cls-1" d="M50.06,30.35v0c-.19-.09-.37-.17-.56-.24L49,30a3.63,3.63,0,0,0-.57-.13v0A5.49,5.49,0,0,1,50.06,30.35Z"/><path class="cls-1" d="M50.91,35.37a.8.8,0,0,1-.29.62h0a.8.8,0,0,1-.5.18H48.34V38a.8.8,0,0,1-.06.3.72.72,0,0,1-.2.29.82.82,0,0,1-.55.21.8.8,0,0,1-.8-.8V36.18H45.07a.79.79,0,0,1-.79-.67.06.06,0,0,1,0,0,.25.25,0,0,1,0-.09h0a.81.81,0,0,1,.81-.8h1.64l0,0V32.48a.76.76,0,0,1,.25-.57.71.71,0,0,1,.39-.21l.13,0h0a.8.8,0,0,1,.57.24.78.78,0,0,1,.24.57v2.09H50.1a.82.82,0,0,1,.52.2.67.67,0,0,1,.26.45A.4.4,0,0,1,50.91,35.37Z"/><path class="cls-2" d="M3.71,7.35V30.29h-2V8.66A1.32,1.32,0,0,1,3,7.35Z"/><path class="cls-2" d="M19,11V24.63a1.25,1.25,0,0,0,1.93,1.06l8.65-4.64v9.24H5.33V7.35h23a1.31,1.31,0,0,1,1.31,1.31v5.86L20.94,9.88A1.26,1.26,0,0,0,19,11Z"/><path class="cls-2" d="M29.59,31.91v5.36A1.34,1.34,0,0,1,29,38.39H5.7a4.08,4.08,0,0,1-3.85-2.73H15.41a.81.81,0,0,0,0-1.62H1.67V31.91Z"/><path class="cls-3" d="M33.71,33.89a.81.81,0,1,0,0,1.62H42a.53.53,0,0,1,0-.13v0a5.88,5.88,0,0,1,.15-1.27h0a.83.83,0,0,1,0-.15v0Zm9.11,4.5h0l.16.23Zm1.37,1.47.2.14h0Zm-1.07-7.95h0A5.17,5.17,0,0,1,44,31a0,0,0,0,1,0,0,4.62,4.62,0,0,1,1.17-.72A5.66,5.66,0,0,1,45.9,30H46l.27-.07.07,0h0v0A5.54,5.54,0,0,0,43.12,31.91Zm5.32-2.08v0A3.63,3.63,0,0,1,49,30l.49.15c.19.07.37.15.56.24v0A5.49,5.49,0,0,0,48.44,29.83Zm-1.73,4.74h0v0S46.72,34.57,46.71,34.57Zm.8-2.9h0Zm-13.8,2.22a.81.81,0,1,0,0,1.62H42a.53.53,0,0,1,0-.13v0a5.88,5.88,0,0,1,.15-1.27h0a.83.83,0,0,1,0-.15v0ZM0,34.67a1,1,0,0,0,0,.18.8.8,0,0,0,.07.34A3,3,0,0,1,0,34.67Z"/><path class="cls-3" d="M44.36,0H5.7A5.71,5.71,0,0,0,0,5.71V34.3c0,.13,0,.25,0,.37a3,3,0,0,0,.05.52A5.71,5.71,0,0,0,5.7,40H44.39l-.2-.14L44,39.73,44,39.67a1.56,1.56,0,0,1-.2-.16l-.16-.16,0,0,0,0v0h0l-.09-.1-.22-.26a.76.76,0,0,1-.11-.14L43,38.62l-.16-.23H5.7a4.08,4.08,0,0,1-3.85-2.73H15.41a.81.81,0,0,0,0-1.62H1.61V31.91H43.12a5.54,5.54,0,0,1,3.23-2V7.2a3.55,3.55,0,0,0-3.54-3.53H7.26A3.55,3.55,0,0,0,3.71,7.2V30.29H1.61V5.71A4.1,4.1,0,0,1,5.7,1.61H44.36a4.09,4.09,0,0,1,4.08,4.1V29.83a5.49,5.49,0,0,1,1.62.52V5.71A5.71,5.71,0,0,0,44.36,0Zm-39,7.2A1.94,1.94,0,0,1,7.26,5.28H42.81A1.93,1.93,0,0,1,44.73,7.2V30.29H5.33Z"/><path class="cls-3" d="M33.68,18.85l-4.09,2.2-8.65,4.64A1.25,1.25,0,0,1,19,24.63V11a1.26,1.26,0,0,1,1.93-1.07l8.65,4.64,4.09,2.19A1.25,1.25,0,0,1,33.68,18.85Z"/><path class="cls-3" d="M46.71,34.57h0v0Zm0,0h0v0Zm0,0h0v0Z"/><path class="cls-3" d="M47.51,31.67h0Z"/><path class="cls-3" d="M50.88,35.22a.67.67,0,0,0-.26-.45.82.82,0,0,0-.52-.2H48.34V32.48a.78.78,0,0,0-.24-.57.8.8,0,0,0-.57-.24h0l-.13,0a.71.71,0,0,0-.39.21.76.76,0,0,0-.25.57v2.07l0,0H45.07a.81.81,0,0,0-.81.8h0a.25.25,0,0,0,0,.09.06.06,0,0,0,0,0,.79.79,0,0,0,.79.67h1.66V38a.8.8,0,0,0,.8.8.82.82,0,0,0,.55-.21.72.72,0,0,0,.2-.29.8.8,0,0,0,.06-.3V36.18H50.1a.8.8,0,0,0,.5-.18h0a.8.8,0,0,0,.29-.62A.4.4,0,0,0,50.88,35.22Z"/><path class="cls-3" d="M50.91,35.37a.8.8,0,0,1-.29.62h0a.8.8,0,0,1-.5.18H48.34V38a.8.8,0,0,1-.06.3.72.72,0,0,1-.2.29.82.82,0,0,1-.55.21.8.8,0,0,1-.8-.8V36.18H45.07a.79.79,0,0,1-.79-.67.06.06,0,0,1,0,0,.25.25,0,0,1,0-.09h0a.81.81,0,0,1,.81-.8h1.66V32.48a.76.76,0,0,1,.25-.57.71.71,0,0,1,.39-.21l.13,0h0a.8.8,0,0,1,.57.24.78.78,0,0,1,.24.57v2.09H50.1a.82.82,0,0,1,.52.2.67.67,0,0,1,.26.45A.4.4,0,0,1,50.91,35.37Z"/><path class="cls-3" d="M47.53,31.67h0Z"/></g></g></svg>