<svg xmlns="http://www.w3.org/2000/svg" viewBox="0 0 51.08 40"><defs><style>.cls-1{fill:#edf0f3;}.cls-2{fill:#6d7c98;}</style></defs><title>webpage_icon_2</title><g id="Layer_2" data-name="Layer 2"><g id="Layer_1-2" data-name="Layer 1"><path class="cls-1" d="M31.7,22.63v6.74a.44.44,0,0,0,.44.43h7.15v5.06H1.65a3.28,3.28,0,0,1-.06-.63V14.42H6.9a.74.74,0,0,0,.36.09H22.35a.74.74,0,0,0,.36-.09h9v5.37a.44.44,0,0,0,.44.44h7.15v2H32.14A.44.44,0,0,0,31.7,22.63Z"/><path class="cls-1" d="M39.29,36.45v1.79H5.61a4,4,0,0,1-3.35-1.79Z"/><path class="cls-2" d="M20.67,18.75a.72.72,0,0,1-.06.29.82.82,0,0,1-.77.54H8A.82.82,0,0,1,7.22,19a.72.72,0,0,1-.06-.29A.83.83,0,0,1,8,17.92H19.84A.82.82,0,0,1,20.67,18.75Z"/><path class="cls-2" d="M46.76,35.64h0v0A.07.07,0,0,0,46.76,35.64Z"/><path class="cls-2" d="M7.85,5.07A1.23,1.23,0,1,1,6.62,3.85,1.22,1.22,0,0,1,7.85,5.07Z"/><path class="cls-2" d="M11.62,5.07A1.22,1.22,0,1,1,10.4,3.85,1.22,1.22,0,0,1,11.62,5.07Z"/><path class="cls-2" d="M15.35,5.07a1.23,1.23,0,1,1-1.22-1.22A1.22,1.22,0,0,1,15.35,5.07Z"/><path class="cls-2" d="M44.25,0H5.61A5.62,5.62,0,0,0,0,5.61V34.23a5.24,5.24,0,0,0,.25,1.59.42.42,0,0,0,0,.15,5.36,5.36,0,0,0,.57,1.21,5,5,0,0,0,.87,1.08,5.56,5.56,0,0,0,3.88,1.57H43c-.06-.09-.13-.18-.19-.28a.41.41,0,0,0,0-.09,2.26,2.26,0,0,1-.16-.26,1.91,1.91,0,0,1-.16-.32.11.11,0,0,1,0-.06h0a5.59,5.59,0,0,1-.22-.57H5.61a4,4,0,0,1-3.35-1.79H41.84v0A6,6,0,0,1,42,35.14h0a.45.45,0,0,1,0-.16v0l0-.07H1.65a3.28,3.28,0,0,1-.06-.63V9.65H48.26V30.74l.28,0,.31.08.27.07a1.41,1.41,0,0,1,.31.08.54.54,0,0,1,.19.08,1,1,0,0,1,.23.08V5.61A5.61,5.61,0,0,0,44.25,0Zm4,8.07H1.59V5.61a4,4,0,0,1,4-4H44.25A4,4,0,0,1,48.1,4.48H33.58a.8.8,0,0,0,0,1.59H48.26Z"/><path class="cls-2" d="M46.76,35.64h0v0A.07.07,0,0,0,46.76,35.64Zm0,0h0v0A.07.07,0,0,0,46.76,35.64Zm0,0h0v0A.07.07,0,0,0,46.76,35.64Z"/><path class="cls-2" d="M47.58,32.64h0Z"/><path class="cls-2" d="M51.08,36.45a.86.86,0,0,1-.31.64h0a.81.81,0,0,1-.31.15.69.69,0,0,1-.2,0H48.44v1.9a.17.17,0,0,1,0,.07.69.69,0,0,1,0,.24,1.25,1.25,0,0,1-.21.3,1,1,0,0,1-.3.16.75.75,0,0,1-.26,0,.82.82,0,0,1-.83-.78V37.28H45.07a.81.81,0,0,1-.81-.69s0,0,0,0a.22.22,0,0,1,0-.08v0a.82.82,0,0,1,.83-.81h1.71V33.47a.92.92,0,0,1,0-.16.85.85,0,0,1,.24-.42.71.71,0,0,1,.4-.21l.14,0h0a.83.83,0,0,1,.58.25l.07.09a.84.84,0,0,1,.18.49v2.17h1.81a.68.68,0,0,1,.2,0,.76.76,0,0,1,.32.17.74.74,0,0,1,.28.46A.45.45,0,0,1,51.08,36.45Z"/><path class="cls-2" d="M47.61,32.64h0Z"/><path class="cls-2" d="M23.18,13.68a.82.82,0,0,1-.47.74.74.74,0,0,1-.36.09H7.26a.74.74,0,0,1-.36-.09.83.83,0,0,1,.36-1.57H22.35A.83.83,0,0,1,23.18,13.68Z"/><path class="cls-2" d="M43.3,13.05v6.74a.35.35,0,0,1,0,.18.42.42,0,0,1-.39.26H32.14a.44.44,0,0,1-.44-.44V13.05a.44.44,0,0,1,.44-.43H42.86A.44.44,0,0,1,43.3,13.05Z"/><path class="cls-2" d="M43.3,22.63v6.74a.44.44,0,0,1-.44.43H32.14a.44.44,0,0,1-.44-.43V22.63a.44.44,0,0,1,.44-.44H42.86A.44.44,0,0,1,43.3,22.63Z"/><path class="cls-2" d="M19.84,21.32H8A.83.83,0,0,0,8,23H19.84a.83.83,0,0,0,0-1.66Z"/><path class="cls-2" d="M14.32,24.73H8a.83.83,0,1,0,0,1.66h6.33a.83.83,0,1,0,0-1.66Z"/></g></g></svg>