<?xml version="1.0" encoding="UTF-8"?>
<svg width="179px" height="181px" viewBox="0 0 179 181" version="1.1" xmlns="http://www.w3.org/2000/svg" xmlns:xlink="http://www.w3.org/1999/xlink">
    <!-- Generator: Sketch 49.2 (51160) - http://www.bohemiancoding.com/sketch -->
    <title>noun_743448_cc</title>
    <desc>Created with Sketch.</desc>
    <defs></defs>
    <g id="Page-1" stroke="none" stroke-width="1" fill="none" fill-rule="evenodd">
        <g id="Desktop" transform="translate(-766.000000, -2567.000000)" fill="#067BBE" fill-rule="nonzero" stroke="#067BBE" stroke-width="0.3">
            <g id="noun_743448_cc" transform="translate(766.000000, 2568.000000)">
                <g id="bin">
                    <path d="M174.345342,22.0359758 L125.233525,22.0359758 L125.233525,8.23157317 C125.233525,3.71859539 120.720547,0.00202546296 114.880223,0.00202546296 L63.9101211,0.00202546296 C58.0697969,0.00202546296 53.5568191,3.71859539 53.5568191,8.23157317 L53.5568191,22.0359758 L4.44500217,22.0359758 C2.32124793,22.0359758 0.462962963,23.8942607 0.462962963,26.018015 C0.462962963,28.1417692 2.32124793,30.0000542 4.44500217,30.0000542 L17.7184662,30.0000542 L28.0717682,157.15984 C28.0717682,169.636896 38.1596008,179.459259 50.636657,179.459259 L127.888218,179.459259 C140.365274,179.459259 150.453107,169.371427 150.453107,157.15984 L161.071878,30.0000542 L174.345342,30.0000542 C176.469096,30.0000542 178.327381,28.1417692 178.327381,26.018015 C178.327381,23.8942607 176.469096,22.0359758 174.345342,22.0359758 Z M61.5208975,8.76251173 C61.7863668,8.49704245 62.5827747,8.23157317 63.9101211,8.23157317 L114.880223,8.23157317 C116.207569,8.23157317 117.003977,8.76251173 117.269446,8.76251173 L117.269446,22.301445 L61.5208975,22.301445 L61.5208975,8.76251173 L61.5208975,8.76251173 Z M142.754497,156.89437 L142.754497,157.15984 C142.754497,165.123918 136.117765,171.76065 128.153687,171.76065 L50.636657,171.76065 C42.6725786,171.76065 36.0358466,165.123918 36.0358466,157.15984 L25.6825446,30.0000542 L152.84233,30.0000542 L142.754497,156.89437 Z" id="Shape"></path>
                    <path d="M68.4230988,137.249644 C70.8123224,137.249644 72.405138,135.391359 72.405138,133.002135 L69.484976,68.2276306 C69.484976,66.1038764 67.626691,64.2455914 65.2374675,64.5110607 C63.1137132,64.5110607 61.2554283,66.3693457 61.5208975,68.7585692 L64.4410596,133.533074 C64.4410596,135.656828 66.2993446,137.249644 68.4230988,137.249644 Z" id="Shape"></path>
                    <path d="M110.367245,137.249644 L110.367245,137.249644 C112.756469,137.249644 114.349284,135.656828 114.614754,133.533074 L117.534916,68.7585692 C117.534916,66.6348149 115.9421,64.77653 113.818346,64.5110607 C111.694592,64.5110607 109.836307,66.1038764 109.570837,68.2276306 L106.650675,133.002135 C106.385206,135.391359 107.978022,137.249644 110.367245,137.249644 Z" id="Shape"></path>
                </g>
            </g>
        </g>
    </g>
</svg>