<?xml version="1.0" encoding="utf-8"?>
<!-- Generator: Adobe Illustrator 22.1.0, SVG Export Plug-In . SVG Version: 6.00 Build 0)  -->
<svg version="1.1" id="Layer_1" xmlns="http://www.w3.org/2000/svg" xmlns:xlink="http://www.w3.org/1999/xlink" x="0px" y="0px"
	 viewBox="0 0 14 10" style="enable-background:new 0 0 14 10;" xml:space="preserve">
<style type="text/css">
	.st0{enable-background:new    ;}
	.st1{fill:#5D9D17;}
</style>
<title></title>
<desc>Created with Sketch.</desc>
<g id="CMS-User-Groups">
	<g id="CMS---User-Groups---New-Group---01a" transform="translate(-579.000000, -265.000000)">
		<g id="user-active" transform="translate(575.000000, 234.000000)">
			<g class="st0">
				<path class="st1" d="M16.8,34l-5.7,5.7l-1.1,1.1c-0.1,0.1-0.3,0.2-0.5,0.2s-0.4-0.1-0.5-0.2L8,39.6l-2.8-2.8
					c-0.1-0.1-0.2-0.3-0.2-0.5s0.1-0.4,0.2-0.5l1.1-1.1c0.1-0.1,0.3-0.2,0.5-0.2s0.4,0.1,0.5,0.2L9.6,37l5.1-5.1
					c0.1-0.1,0.3-0.2,0.5-0.2s0.4,0.1,0.5,0.2l1.1,1.1c0.1,0.1,0.2,0.3,0.2,0.5S17,33.8,16.8,34z"/>
			</g>
		</g>
	</g>
</g>
</svg>
