<?xml version="1.0" encoding="UTF-8"?>
<svg width="12px" height="16px" viewBox="0 0 12 16" version="1.1" xmlns="http://www.w3.org/2000/svg" xmlns:xlink="http://www.w3.org/1999/xlink">
    <!-- Generator: Sketch 47.1 (45422) - http://www.bohemiancoding.com/sketch -->
    <title>locked</title>
    <desc>Created with Sketch.</desc>
    <defs></defs>
    <g id="App-Editor---User-Groups" stroke="none" stroke-width="1" fill="none" fill-rule="evenodd">
        <g id="App-Editor-Audience-Restricted" transform="translate(-215.000000, -307.000000)" fill-rule="nonzero" fill="#067BBE">
            <g id="top-section-of-content" transform="translate(193.000000, 90.000000)">
                <g id="who-can-see-this-content" transform="translate(19.000000, 184.000000)">
                    <g id="restricted-audience" transform="translate(3.000000, 32.000000)">
                        <g id="locked" transform="translate(0.000000, 1.000000)">
                            <path d="M1.71428571,6.28572143 L1.71428571,4.28527714 C1.71428571,1.91811706 3.63306537,0 6,0 C8.3621184,0 10.2857143,1.91858393 10.2857143,4.28527714 L10.2857143,6.28572143 C11.2337983,6.28842789 12,7.05732423 12,8.00541577 L12,13.7088699 C12,14.6647822 11.2302398,15.4285714 10.2806926,15.4285714 L1.71930742,15.4285714 C0.76890868,15.4285714 0,14.6586349 0,13.7088699 L0,8.00541577 C0,7.05118914 0.767047709,6.28840869 1.71428571,6.28572143 Z M3.42857143,6.28571429 L8.57142857,6.28571429 L8.57142857,4.28620211 C8.57142857,2.8657719 7.41727103,1.71428571 6,1.71428571 C4.5798392,1.71428571 3.42857143,2.86242731 3.42857143,4.28620211 L3.42857143,6.28571429 Z M6.52847059,11.2701039 C7.05152941,11.0826234 7.42658824,10.5863377 7.42658824,10.0007532 C7.42658824,9.25480519 6.81670588,8.64935065 6.06611765,8.64935065 C5.31482353,8.64935065 4.70588235,9.25480519 4.70588235,10.0007532 C4.70588235,10.5856364 5.08023529,11.0819221 5.60329412,11.2701039 L5.60329412,13.0549091 C5.60329412,13.309013 5.81058824,13.5147273 6.06611765,13.5147273 C6.32117647,13.5147273 6.52847059,13.309013 6.52847059,13.0549091 L6.52847059,11.2701039 Z" id="lock"></path>
                        </g>
                    </g>
                </g>
            </g>
        </g>
    </g>
</svg>