<svg xmlns="http://www.w3.org/2000/svg" viewBox="0 0 21.62 26.6"><defs><style>.cls-1{fill:#69788e;}</style></defs><title>lock</title><g id="Layer_2" data-name="Layer 2"><g id="Layer_1-2" data-name="Layer 1"><path class="cls-1" d="M18.29,10a3.33,3.33,0,0,1,3.33,3.32v10a3.33,3.33,0,0,1-3.33,3.32h-15a3.22,3.22,0,0,1-2.36-1,3.19,3.19,0,0,1-1-2.35v-10A3.19,3.19,0,0,1,1,11a3.22,3.22,0,0,1,2.36-1h.83V6.81a7.29,7.29,0,0,1,.48-2.65A6.52,6.52,0,0,1,6,2,6.35,6.35,0,0,1,8.08.53,6.74,6.74,0,0,1,10.78,0a6.8,6.8,0,0,1,2.69.53A6.74,6.74,0,0,1,15.59,2,6.55,6.55,0,0,1,17,4.13a7.38,7.38,0,0,1,.49,2.68V10ZM20,23.28v-10a1.67,1.67,0,0,0-1.66-1.66h-15a1.58,1.58,0,0,0-1.17.49,1.6,1.6,0,0,0-.5,1.17v10a1.6,1.6,0,0,0,.5,1.17,1.58,1.58,0,0,0,1.17.49h15A1.67,1.67,0,0,0,20,23.28ZM5.82,6.81V10h10V6.81a5.18,5.18,0,0,0-1.39-3.65,4.73,4.73,0,0,0-3.63-1.5A4.63,4.63,0,0,0,7.17,3.17,5.26,5.26,0,0,0,5.82,6.81Zm5,8.15a1.67,1.67,0,0,1,1.43,2.51,1.78,1.78,0,0,1-.6.59v2.72a.79.79,0,0,1-.25.59.81.81,0,0,1-.58.25.83.83,0,0,1-.59-.25.82.82,0,0,1-.24-.59V18.06a1.62,1.62,0,0,1-.6-.59,1.52,1.52,0,0,1-.23-.84A1.66,1.66,0,0,1,10.81,15Z"/></g></g></svg>