<?xml version="1.0" encoding="UTF-8"?>
<svg width="14px" height="14px" viewBox="0 0 14 14" version="1.1" xmlns="http://www.w3.org/2000/svg" xmlns:xlink="http://www.w3.org/1999/xlink">
    <!-- Generator: Sketch 46.2 (44496) - http://www.bohemiancoding.com/sketch -->
    <title>REMOVE ICON</title>
    <desc>Created with Sketch.</desc>
    <defs></defs>
    <g id="CMS-User-Groups" stroke="none" stroke-width="1" fill="none" fill-rule="evenodd">
        <g id="CMS---User-Groups---05" transform="translate(-960.000000, -265.000000)">
            <g id="user-table" transform="translate(277.000000, 223.000000)">
                <g id="REMOVE-ICON" transform="translate(683.000000, 42.000000)">
                    <path d="M7,0 C3.14008333,0 0,3.14008333 0,7 C0,10.8599167 3.14008333,14 7,14 C10.8599167,14 14,10.8599167 14,7 C14,3.14008333 10.8599167,0 7,0 Z" id="Shape" fill="#FFE6E6" fill-rule="nonzero"></path>
                    <path d="M9.41488347,4.91767479 C9.30199096,4.80477739 9.1191906,4.80477739 9.00641364,4.91767479 L7.16627729,6.75789088 L5.32614095,4.91767479 C5.21324844,4.80477739 5.03044808,4.80477739 4.91767112,4.91767479 C4.80489416,5.03057219 4.80477861,5.21338047 4.91767112,5.32616231 L6.75780747,7.1663784 L4.91767112,9.00659449 C4.80477861,9.11949189 4.80477861,9.30230017 4.91767112,9.41508202 C4.9740596,9.47147294 5.0480117,9.4996684 5.12196381,9.4996684 C5.19591591,9.4996684 5.26975247,9.47147294 5.3262565,9.41508202 L7.16627729,7.57486593 L9.00641364,9.41508202 C9.06280212,9.47147294 9.13675423,9.4996684 9.21070633,9.4996684 C9.28465844,9.4996684 9.35849499,9.47147294 9.41499902,9.41508202 C9.52789153,9.30218462 9.52789153,9.11937634 9.41499902,9.00659449 L7.57474712,7.1663784 L9.41488347,5.32616231 C9.52777598,5.21338047 9.52777598,5.03057219 9.41488347,4.91767479 Z" id="Path" stroke="#D52521" stroke-width="0.5" fill="#D52521"></path>
                </g>
            </g>
        </g>
    </g>
</svg>