<?xml version="1.0" encoding="utf-8"?>
<!-- Generator: Adobe Illustrator 22.0.0, SVG Export Plug-In . SVG Version: 6.00 Build 0)  -->
<svg version="1.1" id="Layer_1" xmlns="http://www.w3.org/2000/svg" xmlns:xlink="http://www.w3.org/1999/xlink" x="0px" y="0px"
	 viewBox="0 0 219 55" style="enable-background:new 0 0 219 55;" xml:space="preserve">
<style type="text/css">
	.st0{fill:#C1375E;}
	.st1{fill:#FFFFFF;}
	.st2{enable-background:new    ;}
	.st3{fill:#CAC1CA;}
</style>
<title>sidebar</title>
<desc>Created with Sketch.</desc>
<g id="Page-1">
	<g id="pattern-library-1-copy" transform="translate(-66.000000, -42.000000)">
		<g id="sidebar" transform="translate(66.000000, 42.000000)">
			<g id="SVGID_1_-link">
				<g id="SVGID_1_">
					<path class="st0" d="M29,42.4c0.1-0.2,0.1-0.4,0.1-0.6c0-0.4-0.1-0.8-0.3-1.2l6-4.8c0.4,0.2,0.9,0.4,1.4,0.4c0,0,0.1,0,0.1,0
						L47.1,51c-0.5,0.3-0.8,0.7-1,1.2L29,42.4z M5,50.6l10.5-15.1c0.3,0.2,0.7,0.3,1.1,0.3c0.2,0,0.5-0.1,0.7-0.1l7.2,4.8
						c-0.2,0.2-0.3,0.5-0.3,0.8L5.1,50.8C5.1,50.7,5.1,50.7,5,50.6z M48.6,50.8l-10.9-15c0.7-0.4,1.2-1.1,1.4-1.9l9.3,3.7
						c0.2,0.5,0.6,0.9,1.1,1.2L49.1,51C49,50.9,48.8,50.8,48.6,50.8z M18.7,34.9c0.3-0.3,0.5-0.7,0.6-1.2l13.9,0.1
						c0.1,0.3,0.2,0.7,0.4,1l-6,4.8c-0.3-0.1-0.6-0.2-1-0.2c-0.3,0-0.6,0.1-0.9,0.2L18.7,34.9z M3.3,49.3L4,35.2
						c0.9-0.2,1.7-0.8,2-1.7l8.1,0.4c0.1,0.3,0.2,0.6,0.4,0.9L4.1,49.7C3.8,49.5,3.6,49.4,3.3,49.3z M28,21.7l5.8,9.6
						c-0.3,0.3-0.5,0.7-0.6,1.1l-14.1-0.1c-0.1-0.2-0.2-0.5-0.4-0.7l6.5-9.5c0.3,0.1,0.7,0.2,1,0.2C26.9,22.1,27.5,22,28,21.7z
						 M39.1,32.3c-0.2-0.7-0.6-1.3-1.2-1.7l7.8-10.9c-0.8-0.3,0.4,0.1,0.6,0.1c0,0,0,0,0.1,0l3.2,14.6c-0.6,0.3-1.1,0.9-1.2,1.6
						L39.1,32.3z M29.1,20.6c0.2-0.3,0.2-0.6,0.3-1l14.5-1.5c0.1,0.3,0.3,0.6,0.5,0.8l-8,11.2c-0.1,0-0.2,0-0.3,0
						c-0.4,0-0.8,0.1-1.1,0.2L29.1,20.6z M6.1,32.1c-0.1-0.6-0.5-1.2-1-1.6l4.9-12.5c0.1,0,0.2,0,0.3,0L15.2,31
						c-0.5,0.3-0.9,0.9-1.1,1.5L6.1,32.1z M11.7,17.4c0.3-0.3,0.6-0.6,0.8-1l10.6,3.1c0.1,0.7,0.5,1.3,1,1.8l-6.5,9.4
						c-0.3-0.1-0.6-0.2-0.9-0.2c-0.1,0-0.1,0-0.2,0L11.7,17.4z M29,17l5.9-8.8c0.5,0.3,1.1,0.5,1.7,0.5c0.2,0,0.4,0,0.6-0.1l7,7.3
						c-0.2,0.2-0.3,0.5-0.3,0.8l-14.3,1.5C29.4,17.8,29.2,17.4,29,17z M12.7,14.8c-0.1-0.6-0.4-1.2-0.8-1.6L21,4.1
						c0.1,0,0.2,0.1,0.3,0.1l3.2,12c-0.6,0.4-1,1-1.2,1.7c0,0.1,0,0.1-0.1,0.1L12.7,14.8z M22.7,3.8c0.3-0.2,0.5-0.4,0.7-0.7
						l10.3,2.4c0,0.1,0,0.1,0,0.2c0,0.4,0.1,0.9,0.3,1.2l-6.1,9c-0.4-0.2-0.8-0.3-1.2-0.4c-0.2,0-0.3,0-0.5,0c-0.1,0-0.2,0-0.3,0
						L22.7,3.8z M19.5,2c0,0.4,0.1,0.7,0.3,1l-9.3,9.6c-0.1,0-0.3-0.1-0.4-0.1c-1.5,0-2.7,1.2-2.7,2.7c0,1,0.5,1.8,1.3,2.3L3.8,29.9
						c-0.1,0-0.2,0-0.4,0c-1.5,0-2.7,1.2-2.7,2.7c0,1.1,0.7,2.1,1.6,2.5L1.8,49.5C0.7,49.9,0,50.8,0,52c0,1.5,1.2,2.7,2.7,2.7
						c1.4,0,2.4-1,2.6-2.3l19.1-9.4c0.4,0.8,1.2,1.4,2.2,1.4c0.6,0,1.1-0.2,1.5-0.5l18.2,10.1c0.4,0.6,1.1,1.1,1.8,1.1
						c1.2,0,2.1-1,2.1-2.1c0-0.2,0-0.3-0.1-0.4L50.9,39c1.2-0.2,2.1-1.2,2.1-2.4c0-1.2-0.9-2.2-2-2.4l-3.2-14.9c0.6-0.4,1-1.2,1-2
						c0-1.4-1.1-2.5-2.5-2.5c-0.3,0-0.7,0.1-1,0.2l-6.7-7c0.6-0.5,1-1.3,1-2.2c0-1.6-1.3-3-3-3c-1,0-1.9,0.5-2.5,1.3L23.6,1.7
						c-0.2-1-1.1-1.7-2.1-1.7C20.4-0.1,19.5,0.9,19.5,2z"/>
				</g>
			</g>
			<g id="theappbuilder-logo-allwhite" transform="translate(59.000000, 12.000000)">
				<g id="Shape">
					<polygon class="st1" points="7.3,3.3 7.3,16 4.7,16 4.7,3.3 0,3.3 0,1 12,1 12,3.3 					"/>
				</g>
				<g id="Shape_1_">
					<path class="st1" d="M16.5,9.8V16H14V0h2.5v6.6c0.4-0.7,0.9-1.3,1.6-1.7s1.5-0.6,2.3-0.6c1.3,0,2.4,0.4,3.3,1.2S25,7.5,25,9v7
						h-2.5V9.7c0-2.1-0.9-3.2-2.7-3.2c-0.9,0-1.6,0.3-2.3,0.8C16.8,7.9,16.5,8.7,16.5,9.8"/>
				</g>
				<g id="Shape_2_">
					<path class="st1" d="M39,11.1h-9.5c0.1,0.8,0.5,1.5,1.2,2.1c0.7,0.5,1.6,0.8,2.6,0.8c1.5,0,2.7-0.5,3.4-1.4l1.4,1.5
						c-1.3,1.3-3,1.9-5.1,1.9c-1.7,0-3.1-0.5-4.3-1.6C27.6,13.3,27,11.8,27,10s0.6-3.3,1.8-4.4C30,4.5,31.5,4,33.1,4
						c1.6,0,3,0.5,4.2,1.4c1.2,1,1.7,2.3,1.7,3.9V11.1z M29.5,9.1h6.9c0-1-0.3-1.7-1-2.2c-0.6-0.5-1.4-0.8-2.3-0.8s-1.8,0.3-2.5,0.8
						C29.9,7.5,29.5,8.2,29.5,9.1z"/>
				</g>
				<g id="Shape_3_">
					<path class="st1" d="M45.2,13.6L43.7,17H41l6.6-15h2.7L57,17h-2.7l-1.5-3.4H45.2z M51.8,11.2L49,5.1l-2.7,6.2H51.8z"/>
				</g>
				<g id="Shape_4_">
					<path class="st1" d="M64.3,5c1.6,0,2.9,0.5,4,1.6c1.1,1.1,1.7,2.5,1.7,4.3c0,1.8-0.6,3.2-1.7,4.4c-1.1,1.1-2.4,1.7-3.9,1.7
						s-2.8-0.6-4-1.9v6H58V5.2h2.5v2C61.5,5.7,62.7,5,64.3,5 M60.4,11c0,1.1,0.3,2,1,2.7c0.7,0.7,1.5,1.1,2.5,1.1c1,0,1.8-0.4,2.5-1
						c0.7-0.7,1.1-1.6,1.1-2.7s-0.4-2-1.1-2.8C65.8,7.5,65,7.1,64,7.1s-1.8,0.4-2.5,1.1C60.8,9,60.4,9.9,60.4,11"/>
				</g>
				<g id="Shape_5_">
					<path class="st1" d="M78.3,5c1.6,0,2.9,0.5,4,1.6c1.1,1.1,1.7,2.5,1.7,4.3c0,1.8-0.6,3.2-1.7,4.4c-1.1,1.1-2.4,1.7-3.9,1.7
						s-2.8-0.6-4-1.9v6H72V5.2h2.5v2C75.4,5.7,76.7,5,78.3,5 M74.4,11c0,1.1,0.3,2,1,2.7c0.7,0.7,1.5,1.1,2.5,1.1s1.8-0.4,2.5-1
						c0.7-0.7,1.1-1.6,1.1-2.7s-0.4-2-1.1-2.8c-0.7-0.7-1.6-1.1-2.5-1.1s-1.8,0.4-2.5,1.1C74.8,9,74.4,9.9,74.4,11"/>
				</g>
				<g id="Shape_6_">
					<path class="st1" d="M93.6,17H87V2h5.8c1,0,1.9,0.1,2.6,0.4c0.7,0.2,1.3,0.6,1.6,1c0.7,0.8,1,1.6,1,2.6c0,1.2-0.4,2-1.1,2.6
						c-0.3,0.2-0.5,0.3-0.6,0.4c-0.1,0.1-0.3,0.1-0.5,0.2c0.9,0.2,1.7,0.6,2.2,1.2c0.6,0.6,0.8,1.4,0.8,2.4c0,1-0.4,2-1.1,2.8
						C97.1,16.5,95.6,17,93.6,17z M89.5,8.2h3.2c1.8,0,2.7-0.6,2.7-1.9c0-0.7-0.2-1.2-0.7-1.5c-0.5-0.3-1.1-0.5-2.1-0.5h-3.2V8.2z
						 M89.5,14.7h4c0.9,0,1.6-0.1,2.1-0.4s0.7-0.8,0.7-1.7c0-1.3-1.1-2-3.2-2h-3.6L89.5,14.7L89.5,14.7z"/>
				</g>
				<g id="Shape_7_">
					<path class="st1" d="M110.5,11.4V5h2.5v11.8h-2.5v-2.2c-0.4,0.7-1,1.3-1.7,1.7c-0.7,0.4-1.5,0.6-2.3,0.6
						c-1.3,0-2.4-0.4-3.3-1.2c-0.8-0.8-1.3-2-1.3-3.5V5h2.5v6.5c0,2.2,0.9,3.3,2.7,3.3c0.9,0,1.6-0.3,2.3-0.9
						C110.2,13.3,110.5,12.5,110.5,11.4"/>
				</g>
				<g id="Shape_8_">
					<path class="st1" d="M115.4,2.7C115.2,2.4,115,2,115,1.6s0.2-0.8,0.4-1.1c0.3-0.3,0.6-0.5,1.1-0.5s0.8,0.2,1.1,0.5
						s0.4,0.7,0.4,1.1s-0.2,0.8-0.4,1.1s-0.6,0.5-1.1,0.5S115.8,3,115.4,2.7z M117.7,17h-2.4V5.1h2.4V17z"/>
				</g>
				<g id="Rectangle-path">
					<rect x="121" y="1" class="st1" width="2" height="16"/>
				</g>
				<g id="Shape_9_">
					<path class="st1" d="M127.7,15.4c-1.1-1.1-1.7-2.5-1.7-4.3s0.6-3.2,1.7-4.2c1.1-1.1,2.5-1.6,4-1.6s2.8,0.6,3.8,1.9V1h2.5v15.8
						h-2.5v-1.7c-0.9,1.3-2.2,1.9-4,1.9C130.1,17,128.8,16.4,127.7,15.4 M128.5,11.2c0,1.1,0.4,2,1.1,2.7c0.7,0.7,1.6,1,2.5,1
						s1.8-0.3,2.5-1s1-1.6,1-2.7s-0.3-2-1-2.7s-1.5-1.1-2.5-1.1c-1,0-1.8,0.4-2.5,1.1C128.8,9.2,128.5,10.1,128.5,11.2"/>
				</g>
				<g id="Shape_10_">
					<path class="st1" d="M152,12.1h-9.5c0.1,0.8,0.5,1.5,1.2,2.1c0.7,0.5,1.6,0.8,2.6,0.8c1.5,0,2.7-0.5,3.4-1.4l1.4,1.5
						c-1.3,1.3-3,1.9-5.1,1.9c-1.7,0-3.1-0.5-4.3-1.6S140,12.8,140,11s0.6-3.3,1.8-4.4s2.6-1.6,4.3-1.6c1.6,0,3,0.5,4.2,1.4
						c1.2,1,1.7,2.3,1.7,3.9V12.1z M142.5,10.1h6.9c0-1-0.3-1.7-1-2.2c-0.6-0.5-1.4-0.8-2.3-0.8s-1.8,0.3-2.5,0.8
						C142.9,8.5,142.5,9.2,142.5,10.1z"/>
				</g>
				<g id="Shape_11_">
					<path class="st1" d="M159.9,7.5c-1.2,0-2,0.4-2.6,1.2c-0.6,0.8-0.9,1.9-0.9,3.2V17H154V5.2h2.4v2.4c0.4-0.7,0.9-1.3,1.5-1.8
						S159.3,5,160,5l0,2.5H159.9z"/>
				</g>
			</g>
			<g class="st2">
				<path class="st3" d="M71.1,40.8c0.8,0.7,1.2,1.7,1.2,3s-0.4,2.3-1.2,3c-0.8,0.6-2,0.9-3.7,0.9h-2V51h-1.9V39.8h3.8
					C69.1,39.8,70.3,40.1,71.1,40.8z M69.8,45.4c0.4-0.4,0.6-1,0.6-1.8s-0.2-1.3-0.7-1.6c-0.5-0.3-1.2-0.5-2.3-0.5h-1.9V46h2.2
					C68.7,46,69.4,45.8,69.8,45.4z"/>
				<path class="st3" d="M80.8,51h-1.6v-1.1c-0.7,0.8-1.6,1.3-2.8,1.3c-0.9,0-1.6-0.2-2.2-0.8c-0.6-0.5-0.9-1.2-0.9-2
					c0-0.8,0.3-1.5,0.9-1.9s1.5-0.6,2.5-0.6h2.3v-0.3c0-1.1-0.6-1.7-1.9-1.7c-0.8,0-1.6,0.3-2.5,0.9l-0.8-1.1c1-0.8,2.2-1.2,3.5-1.2
					c1,0,1.8,0.3,2.5,0.8c0.6,0.5,1,1.3,1,2.4V51z M79.1,47.8v-0.7h-2c-1.3,0-1.9,0.4-1.9,1.2c0,0.4,0.2,0.7,0.5,1
					c0.3,0.2,0.8,0.3,1.3,0.3c0.6,0,1.1-0.2,1.5-0.5S79.1,48.4,79.1,47.8z"/>
				<path class="st3" d="M85.3,43.9v4.3c0,0.4,0.1,0.7,0.3,1c0.2,0.2,0.5,0.4,0.9,0.4c0.4,0,0.8-0.2,1.1-0.6l0.7,1.3
					c-0.6,0.6-1.3,0.8-2.1,0.8c-0.8,0-1.4-0.3-2-0.8s-0.8-1.2-0.8-2.1v-4.3h-1.1v-1.4h1.1v-2.7h1.8v2.7h2.2v1.4H85.3z"/>
				<path class="st3" d="M91.9,43.9v4.3c0,0.4,0.1,0.7,0.3,1c0.2,0.2,0.5,0.4,0.9,0.4c0.4,0,0.8-0.2,1.1-0.6l0.7,1.3
					c-0.6,0.6-1.3,0.8-2.1,0.8c-0.8,0-1.4-0.3-2-0.8s-0.8-1.2-0.8-2.1v-4.3H89v-1.4h1.1v-2.7h1.8v2.7h2.2v1.4H91.9z"/>
				<path class="st3" d="M104.2,47.5h-6.7c0,0.6,0.3,1.1,0.8,1.5c0.5,0.4,1.1,0.6,1.8,0.6c1.1,0,1.9-0.3,2.4-1l1,1.1
					c-0.9,0.9-2.1,1.4-3.6,1.4c-1.2,0-2.2-0.4-3-1.2c-0.8-0.8-1.3-1.9-1.3-3.2s0.4-2.4,1.3-3.2c0.9-0.8,1.9-1.2,3-1.2s2.1,0.3,3,1
					s1.2,1.7,1.2,2.9V47.5z M97.5,46.1h4.9c0-0.7-0.2-1.3-0.7-1.6c-0.4-0.4-1-0.6-1.7-0.6c-0.7,0-1.2,0.2-1.8,0.6
					C97.7,44.9,97.5,45.4,97.5,46.1z"/>
				<path class="st3" d="M110.5,44.2c-0.9,0-1.6,0.3-2,0.9c-0.4,0.6-0.7,1.3-0.7,2.3V51H106v-8.5h1.8v1.7c0.3-0.5,0.7-1,1.2-1.3
					c0.5-0.3,1-0.5,1.6-0.5L110.5,44.2C110.5,44.2,110.5,44.2,110.5,44.2z"/>
				<path class="st3" d="M114,46.4V51h-1.8v-8.5h1.8V44c0.3-0.5,0.7-0.9,1.2-1.2c0.5-0.3,1.1-0.4,1.6-0.4c1,0,1.7,0.3,2.3,0.9
					s0.9,1.4,0.9,2.5V51h-1.8v-4.7c0-1.6-0.7-2.4-2-2.4c-0.6,0-1.2,0.2-1.6,0.6C114.2,45,114,45.6,114,46.4z"/>
				<path class="st3" d="M126.9,51V39.8h1.9v9.4h5.1V51H126.9z"/>
				<path class="st3" d="M135.7,40.8c-0.2-0.2-0.3-0.5-0.3-0.8s0.1-0.6,0.3-0.8c0.2-0.2,0.5-0.3,0.8-0.3c0.3,0,0.6,0.1,0.8,0.3
					c0.2,0.2,0.3,0.5,0.3,0.8s-0.1,0.6-0.3,0.8s-0.5,0.3-0.8,0.3C136.2,41.1,136,41,135.7,40.8z M137.4,51h-1.8v-8.5h1.8V51z"/>
				<path class="st3" d="M144.4,42.4c1.1,0,2.1,0.4,2.9,1.2c0.8,0.8,1.2,1.8,1.2,3.2c0,1.3-0.4,2.4-1.2,3.2
					c-0.8,0.8-1.7,1.2-2.8,1.2s-2-0.5-2.9-1.4V51h-1.8V39.1h1.8V44C142.4,42.9,143.3,42.4,144.4,42.4z M141.6,46.8
					c0,0.8,0.2,1.5,0.7,2s1.1,0.8,1.8,0.8s1.3-0.3,1.8-0.8c0.5-0.5,0.8-1.2,0.8-2c0-0.8-0.3-1.5-0.8-2c-0.5-0.5-1.1-0.8-1.8-0.8
					c-0.7,0-1.3,0.3-1.8,0.8C141.9,45.3,141.6,45.9,141.6,46.8z"/>
				<path class="st3" d="M155,44.2c-0.9,0-1.6,0.3-2,0.9c-0.4,0.6-0.7,1.3-0.7,2.3V51h-1.8v-8.5h1.8v1.7c0.3-0.5,0.7-1,1.2-1.3
					c0.5-0.3,1-0.5,1.6-0.5L155,44.2C155,44.2,155,44.2,155,44.2z"/>
				<path class="st3" d="M163.5,51h-1.6v-1.1c-0.7,0.8-1.6,1.3-2.8,1.3c-0.9,0-1.6-0.2-2.2-0.8c-0.6-0.5-0.9-1.2-0.9-2
					c0-0.8,0.3-1.5,0.9-1.9s1.5-0.6,2.5-0.6h2.3v-0.3c0-1.1-0.6-1.7-1.9-1.7c-0.8,0-1.6,0.3-2.5,0.9l-0.8-1.1c1-0.8,2.2-1.2,3.5-1.2
					c1,0,1.8,0.3,2.5,0.8c0.6,0.5,1,1.3,1,2.4V51z M161.7,47.8v-0.7h-2c-1.3,0-1.9,0.4-1.9,1.2c0,0.4,0.2,0.7,0.5,1
					c0.3,0.2,0.8,0.3,1.3,0.3c0.6,0,1.1-0.2,1.5-0.5S161.7,48.4,161.7,47.8z"/>
				<path class="st3" d="M170.4,44.2c-0.9,0-1.6,0.3-2,0.9c-0.4,0.6-0.7,1.3-0.7,2.3V51h-1.8v-8.5h1.8v1.7c0.3-0.5,0.7-1,1.2-1.3
					c0.5-0.3,1-0.5,1.6-0.5L170.4,44.2C170.4,44.2,170.4,44.2,170.4,44.2z"/>
			</g>
			<g>
			</g>
			<g class="st2">
				<path class="st3" d="M173,54.4c-0.8,0-1.5-0.3-2.1-0.8l0.8-1.5c0.4,0.4,0.8,0.5,1.2,0.5c0.4,0,0.7-0.1,1-0.4
					c0.2-0.3,0.4-0.6,0.4-0.9c0-0.1-1.1-3.1-3.4-8.8h1.9l2.5,6.3l2.5-6.3h1.9l-4.1,10.1c-0.2,0.6-0.6,1-1.1,1.3S173.6,54.4,173,54.4
					z"/>
			</g>
		</g>
	</g>
</g>
</svg>
