<?xml version="1.0" encoding="utf-8"?>
<!-- Generator: Adobe Illustrator 22.0.1, SVG Export Plug-In . SVG Version: 6.00 Build 0)  -->
<svg version="1.1" id="Layer_1" xmlns="http://www.w3.org/2000/svg" xmlns:xlink="http://www.w3.org/1999/xlink" x="0px" y="0px"
	 viewBox="0 0 14 14" style="enable-background:new 0 0 14 14;" xml:space="preserve">
<style type="text/css">
	.st0{fill:#FFE6E6;}
	.st1{fill:#D52521;}
</style>
<title>Shape</title>
<desc>Created with Sketch.</desc>
<g id="Desktop" transform="translate(-889.000000, -2089.000000)">
	<g id="TABLES" transform="translate(206.000000, 1938.000000)">
		<g id="user-table" transform="translate(0.000000, 109.000000)">
			<g id="REMOVE-ICON" transform="translate(683.000000, 42.000000)">
				<g id="Shape">
					<path class="st0" d="M7,0C3.1,0,0,3.1,0,7s3.1,7,7,7s7-3.1,7-7S10.9,0,7,0z"/>
				</g>
			</g>
		</g>
	</g>
</g>
<path class="st1" d="M9.7,8.9L7.7,7l1.9-1.9c0.2-0.2,0.2-0.5,0-0.8c-0.2-0.2-0.5-0.2-0.8,0L7,6.2L5.1,4.4c-0.2-0.2-0.5-0.2-0.8,0
	c-0.2,0.2-0.2,0.5,0,0.8L6.2,7L4.3,8.9c-0.2,0.2-0.2,0.5,0,0.8c0.1,0.1,0.2,0.2,0.4,0.2S5,9.7,5.1,9.6L7,7.7l1.9,1.9
	C9,9.8,9.2,9.8,9.3,9.8s0.3-0.1,0.4-0.2C9.9,9.5,9.9,9.1,9.7,8.9z"/>
</svg>
