<?xml version="1.0" encoding="UTF-8"?>
<svg width="12px" height="19px" viewBox="0 0 12 19" version="1.1" xmlns="http://www.w3.org/2000/svg" xmlns:xlink="http://www.w3.org/1999/xlink">
    <!-- Generator: Sketch 47.1 (45422) - http://www.bohemiancoding.com/sketch -->
    <title>unlocked</title>
    <desc>Created with Sketch.</desc>
    <defs></defs>
    <g id="App-Editor---User-Groups" stroke="none" stroke-width="1" fill="none" fill-rule="evenodd">
        <g id="App-Editor-Audience-Unrestricted" transform="translate(-215.000000, -305.000000)" fill-rule="nonzero" fill="#828C96">
            <g id="top-section-of-content" transform="translate(193.000000, 90.000000)">
                <g id="unrestricted-audience" transform="translate(22.000000, 215.000000)">
                    <g id="unlocked">
                        <path d="M10.2857143,5.06203474 L10.2857143,6.62469028 C10.2857143,7.23681481 9.90195834,7.74193548 9.42857143,7.74193548 C8.95188411,7.74193548 8.57142857,7.24172778 8.57142857,6.62469028 L8.57142857,5.06203474 L8.57142857,4.46618617 C8.57142857,2.98629187 7.41727103,1.7866005 6,1.7866005 C4.5798392,1.7866005 3.42857143,2.983748 3.42857143,4.46618617 L3.42857143,8.63555083 C3.42857143,8.73609076 3.4338984,8.83533743 3.44427297,8.93300248 L9.41825229,8.93300248 L10.2857143,8.93300248 C11.2337983,8.93583055 12,9.73716173 12,10.7252472 L12,16.6692937 C12,17.6655299 11.2302398,18.4615385 10.2806926,18.4615385 L1.71930742,18.4615385 C0.76890868,18.4615385 0,17.6591232 0,16.6692937 L0,10.7252472 C0,9.73076784 0.767047709,8.93581054 1.71428571,8.93300993 L1.71428571,4.46604566 C1.71428571,1.99903018 3.63306537,0 6,0 C8.3621184,0 10.2857143,1.99951675 10.2857143,4.46604566 L10.2857143,5.06203474 Z M6.52847059,14.1527386 C7.05152941,13.9577497 7.42658824,13.4415884 7.42658824,12.8325522 C7.42658824,12.0567299 6.81670588,11.4270278 6.06611765,11.4270278 C5.31482353,11.4270278 4.70588235,12.0567299 4.70588235,12.8325522 C4.70588235,13.4408591 5.08023529,13.9570203 5.60329412,14.1527386 L5.60329412,16.0090228 C5.60329412,16.2733032 5.81058824,16.487256 6.06611765,16.487256 C6.32117647,16.487256 6.52847059,16.2733032 6.52847059,16.0090228 L6.52847059,14.1527386 Z" id="lock-open"></path>
                    </g>
                </g>
            </g>
        </g>
    </g>
</svg>