<?xml version="1.0" encoding="UTF-8"?>
<svg width="15px" height="12px" viewBox="0 0 15 12" version="1.1" xmlns="http://www.w3.org/2000/svg" xmlns:xlink="http://www.w3.org/1999/xlink">
    <!-- Generator: Sketch 46.2 (44496) - http://www.bohemiancoding.com/sketch -->
    <title>no-connection</title>
    <desc>Created with Sketch.</desc>
    <defs></defs>
    <g id="App-Editor---User-Groups" stroke="none" stroke-width="1" fill="none" fill-rule="evenodd" fill-opacity="0.963230299">
        <g id="06a-Santos-App-Editor-Manage-Groups" transform="translate(-217.000000, -452.000000)" fill-rule="nonzero" fill="#D52521">
            <g id="top-section-of-content" transform="translate(193.000000, 90.000000)">
                <path d="M38.2297974,372.794475 L31.9655395,362.582641 C31.5486228,361.902107 30.8666558,361.911659 30.4497391,362.592193 L24.1854812,372.790177 C23.7685644,373.471189 24.0799387,373.996991 24.877477,373.996991 L37.537324,373.996991 C38.3353399,373.996991 38.6467142,373.474532 38.2297974,372.794475 Z M31.2023861,364.84297 C31.6035431,364.84297 31.9139622,365.286153 31.8934268,365.827715 L31.7663937,369.091414 C31.7458583,369.632499 31.4913146,370.075682 31.2009534,370.075682 C30.9105921,370.075682 30.6555708,369.632499 30.6350354,369.091414 L30.5094351,365.827715 C30.4888996,365.286153 30.8002739,364.84297 31.2023861,364.84297 Z M31.2023861,372.534201 C30.6961641,372.534201 30.3489723,372.164086 30.3594788,371.658341 C30.3594788,371.141613 30.7076257,370.782482 31.2023861,370.782482 C31.7181594,370.782482 32.0443382,371.141613 32.0553223,371.658341 C32.0553223,372.164086 31.7181594,372.534201 31.2023861,372.534201 Z" id="no-connection"></path>
            </g>
        </g>
    </g>
</svg>