<?xml version="1.0" encoding="UTF-8"?>
<svg width="13px" height="9px" viewBox="0 0 13 9" version="1.1" xmlns="http://www.w3.org/2000/svg" xmlns:xlink="http://www.w3.org/1999/xlink">
    <!-- Generator: Sketch 48.1 (47250) - http://www.bohemiancoding.com/sketch -->
    <title>eye icon</title>
    <desc>Created with Sketch.</desc>
    <defs></defs>
    <g id="Desktop" stroke="none" stroke-width="1" fill="none" fill-rule="evenodd" transform="translate(-210.000000, -989.000000)">
        <g id="eye-icon" transform="translate(210.000000, 989.000000)" fill="#067BBE" fill-rule="nonzero">
            <g id="Group">
                <path d="M6.5,0 C2.12105263,0 0,4.5 0,4.5 C0,4.5 2.10736842,9 6.5,9 C10.8926316,9 13,4.5 13,4.5 C13,4.5 10.8789474,0 6.5,0 Z M6.5,7.97981366 C4.61157895,7.97981366 3.09263158,6.41459627 3.09263158,4.5 C3.09263158,2.57142857 4.62526316,1.02018634 6.5,1.02018634 C8.37473684,1.02018634 9.90736842,2.58540373 9.90736842,4.5 C9.90736842,6.42857143 8.38842105,7.97981366 6.5,7.97981366 Z" id="Shape"></path>
                <path d="M7.45510836,3.42414861 C6.97213622,3.42414861 6.57585139,3.02786378 6.57585139,2.54489164 C6.57585139,2.39628483 6.6130031,2.24767802 6.6873065,2.12383901 C6.47678019,2.0495356 6.24148607,2 6.00619195,2 C4.90402477,2 4,2.89164087 4,3.99380805 C4,5.09597523 4.89164087,6 6.00619195,6 C7.10835913,6 8,5.10835913 8,3.99380805 C8,3.75851393 7.9628483,3.52321981 7.87616099,3.3126935 C7.76470588,3.3869969 7.61609907,3.42414861 7.45510836,3.42414861 Z" id="Shape"></path>
            </g>
        </g>
    </g>
</svg>