<?xml version="1.0" encoding="UTF-8"?>
<svg width="14px" height="12px" viewBox="0 0 14 12" version="1.1" xmlns="http://www.w3.org/2000/svg" xmlns:xlink="http://www.w3.org/1999/xlink">
    <!-- Generator: Sketch 48 (47235) - http://www.bohemiancoding.com/sketch -->
    <title>no-connection</title>
    <desc>Created with Sketch.</desc>
    <defs></defs>
    <g id="pattern-library-2" stroke="none" stroke-width="1" fill="none" fill-rule="evenodd" transform="translate(-439.000000, -1076.000000)">
        <g id="type-block" transform="translate(331.000000, 520.000000)" fill="#D62D29" fill-rule="nonzero">
            <path d="M121.82021,566.789414 L115.73611,556.509044 C115.331183,555.823942 114.668829,555.833558 114.263903,556.518659 L108.179803,566.785087 C107.774877,567.470669 108.077296,568 108.851897,568 L121.147651,568 C121.922717,568 122.225136,567.474034 121.82021,566.789414 Z M114.500688,559 C114.790141,559 115.014122,559.423474 114.999305,559.940951 L114.907645,563.059505 C114.892828,563.576526 114.709163,564 114.499654,564 C114.290146,564 114.106136,563.576526 114.091319,563.059505 L114.000693,559.940951 C113.985876,559.423474 114.210546,559 114.500688,559 Z M114.994224,567 C114.397291,567 113.987884,566.577426 114.000274,566 C114.000274,565.410033 114.410806,565 114.994224,565 C115.60242,565 115.987048,565.410033 116,566 C116,566.577426 115.60242,567 114.994224,567 Z" id="no-connection"></path>
        </g>
    </g>
</svg>