<?xml version="1.0" encoding="UTF-8"?>
<svg width="160px" height="57px" viewBox="0 0 160 57" version="1.1" xmlns="http://www.w3.org/2000/svg" xmlns:xlink="http://www.w3.org/1999/xlink">
    <!-- Generator: Sketch 48 (47235) - http://www.bohemiancoding.com/sketch -->
    <title>tab_logo</title>
    <desc>Created with Sketch.</desc>
    <defs></defs>
    <g id="pattern-library-2" stroke="none" stroke-width="1" fill="none" fill-rule="evenodd" transform="translate(-25.000000, -34.000000)">
        <g id="sidebar" transform="translate(-3.000000, -1.000000)">
            <g id="tab_logo" transform="translate(28.000000, 35.000000)">
                <g id="SVGID_1_-link" fill="#D6BD89" fill-rule="nonzero">
                    <path d="M27.3410115,43.9780074 C27.3910866,43.7861043 27.4161242,43.5667865 27.4161242,43.3474688 C27.4161242,42.9088332 27.2909364,42.4701977 27.1156735,42.1138063 L32.7491237,37.0969123 C33.1497246,37.3436448 33.6254382,37.4807184 34.1011517,37.4807184 C34.1261893,37.4807184 34.1762644,37.4807184 34.201302,37.4807184 L44.4166249,52.8055476 C43.9659489,53.0796948 43.6154231,53.5457451 43.4651978,54.0940395 L27.3410115,43.9780074 Z M4.7571357,52.476571 L14.672008,36.8775945 C14.9974962,37.0420829 15.348022,37.1517418 15.7486229,37.1517418 C15.9739609,37.1517418 16.1992989,37.0969123 16.3995994,37.0420829 L23.2098147,42.0315622 C23.0595894,42.2782946 22.9594392,42.5798566 22.8843265,42.8814185 L4.83224837,52.6410593 C4.80721082,52.5862299 4.78217326,52.5314004 4.7571357,52.476571 Z M45.8437656,52.6136446 L35.6034051,37.0694976 C36.2543816,36.6308621 36.7300951,35.945494 36.905358,35.0956377 L45.6434652,38.9062839 C45.8437656,39.4271636 46.219329,39.8383844 46.6449675,40.1125317 L46.3445168,52.8329624 C46.1942914,52.7233035 46.0190285,52.6410593 45.8437656,52.6136446 Z M17.6014021,36.1922265 C17.8768152,35.8358351 18.1021532,35.4246143 18.1772659,34.9311493 L31.2969454,35.0408082 C31.3720581,35.3971996 31.4972459,35.753591 31.6725088,36.0551529 L26.0390586,41.0720469 C25.7636455,40.9349733 25.4381572,40.8527291 25.112669,40.8527291 C24.8122183,40.8527291 24.5368052,40.9075586 24.2864296,41.0172175 L17.6014021,36.1922265 Z M3.12969454,51.1332496 L3.78067101,36.438959 C4.65698548,36.247056 5.38307461,35.5616879 5.68352529,34.6570021 L13.2949424,35.0682229 C13.3700551,35.3971996 13.4952429,35.6987615 13.6705058,35.9729087 L3.85578368,51.4622263 C3.63044567,51.3251527 3.38007011,51.2154938 3.12969454,51.1332496 Z M26.4146219,22.4574511 L31.8978468,32.3815802 C31.6474712,32.7105569 31.4722083,33.0669483 31.3720581,33.4781691 L18.0520781,33.3685102 C17.9519279,33.1217777 17.8267401,32.8750452 17.6765148,32.6831422 L23.8357536,22.7864278 C24.1362043,22.8960867 24.4867301,22.9783308 24.8122183,22.9783308 C25.4131197,22.9509161 25.9389084,22.7590131 26.4146219,22.4574511 Z M36.8552829,33.5055838 C36.68002,32.7928011 36.2794191,32.1896772 35.7285929,31.7784564 L43.0645969,20.4561765 C42.3134702,20.1546145 43.4401602,20.5384206 43.6404607,20.5384206 C43.6654982,20.5384206 43.6654982,20.5384206 43.6905358,20.5384206 L46.670005,35.6713468 C46.0941412,36.0003235 45.6434652,36.6034473 45.4932399,37.3162301 L36.8552829,33.5055838 Z M27.4161242,21.3060328 C27.5913871,21.0044709 27.6414622,20.6754942 27.7165749,20.3191029 L41.4121182,18.7838785 C41.5122684,19.1128551 41.6624937,19.3870023 41.8627942,19.6337348 L34.3515273,31.2575767 C34.2764146,31.2575767 34.1762644,31.2301619 34.1011517,31.2301619 C33.7255884,31.2301619 33.3750626,31.3124061 33.0495744,31.4494797 L27.4161242,21.3060328 Z M5.78367551,33.2314366 C5.65848773,32.5734833 5.3329995,31.9703594 4.85728593,31.5865533 L9.48923385,18.5919754 C9.61442163,18.5919754 9.71457186,18.5645607 9.81472208,18.5645607 L14.3214822,32.1348478 C13.8457687,32.4912391 13.4952429,33.0395336 13.31998,33.6426574 L5.78367551,33.2314366 Z M10.9914872,17.9888515 C11.3169755,17.7147043 11.5923886,17.358313 11.7426139,16.9196774 L21.7576365,20.1546145 C21.8828242,20.894812 22.2083125,21.5527653 22.684026,22.0462303 L16.5748623,31.8332858 C16.2994492,31.7236269 15.9989985,31.6413828 15.6985478,31.6413828 C15.6234352,31.6413828 15.57336,31.6687975 15.5232849,31.6687975 L10.9914872,17.9888515 Z M27.315974,17.6324602 L32.9243866,8.50335797 C33.3750626,8.85974934 33.9258888,9.05165239 34.5267902,9.05165239 C34.7270906,9.05165239 34.9023535,9.02423767 35.102654,8.99682295 L41.6624937,16.563286 C41.5122684,16.8100185 41.4121182,17.0841657 41.3620431,17.358313 L27.8417626,18.8935373 C27.7416124,18.4274871 27.5663495,17.9888515 27.315974,17.6324602 Z M11.9429144,15.384453 C11.8427641,14.7539144 11.5423135,14.1782053 11.1417126,13.7669845 L19.7796695,4.22666144 C19.8798197,4.25407616 19.9549324,4.28149088 20.0550826,4.3089056 L23.0345518,16.7551891 C22.4837256,17.1664099 22.1081622,17.7695338 21.9078618,18.4823165 C21.8828242,18.537146 21.8828242,18.5919754 21.8577867,18.6193901 L11.9429144,15.384453 Z M21.4571858,3.95251422 C21.7075613,3.76061118 21.9078618,3.51387868 22.0831247,3.23973147 L31.772659,5.76188583 C31.772659,5.84413 31.7476214,5.89895944 31.7476214,5.9812036 C31.7476214,6.44725387 31.8477717,6.88588941 32.0230346,7.26969551 L26.2643966,16.5907008 C25.9138708,16.371383 25.5132699,16.2617241 25.0876314,16.2068947 C24.9374061,16.1794799 24.8122183,16.1794799 24.661993,16.1794799 C24.5618428,16.1794799 24.4867301,16.2068947 24.3865799,16.2068947 L21.4571858,3.95251422 Z M18.3525288,2.1157279 C18.3525288,2.49953399 18.452679,2.85592537 18.6029044,3.18490203 L9.83975964,13.1090311 C9.71457186,13.0816164 9.58938408,13.0542017 9.46419629,13.0542017 C8.06209314,13.0542017 6.9354031,14.2878642 6.9354031,15.8230886 C6.9354031,16.8374332 7.43615423,17.7147043 8.18728092,18.2081693 L3.63044567,31.0382589 C3.50525789,31.0108442 3.40510766,31.0108442 3.27991988,31.0108442 C1.90285428,31.0108442 0.75112669,32.2445066 0.75112669,33.779731 C0.75112669,34.9311493 1.40210315,35.9180793 2.30345518,36.3293001 L1.65247872,51.297738 C0.701051577,51.6815441 0,52.6958888 0,53.8747218 C0,55.4099462 1.12669004,56.6436086 2.52879319,56.6436086 C3.80570856,56.6436086 4.83224837,55.6018492 5.00751127,54.2585279 L23.0095143,44.4988871 C23.3850776,45.3487434 24.1612419,45.9518673 25.0876314,45.9518673 C25.6134201,45.9518673 26.0891337,45.7599643 26.4897346,45.4035729 L43.6154231,55.8759964 C43.9659489,56.5339497 44.6169254,57 45.3430145,57 C46.444667,57 47.346019,56.01307 47.346019,54.8068223 C47.346019,54.642334 47.3209815,54.5052604 47.2959439,54.3681868 L48.0470706,40.468923 C49.1487231,40.27702 50,39.2626753 50,37.9741834 C50,36.7131062 49.1737606,35.6987615 48.0721082,35.5068585 L45.0425638,20.0997851 C45.6184276,19.6337348 45.993991,18.8661226 45.993991,18.0162663 C45.993991,16.563286 44.9173761,15.4118677 43.6154231,15.4118677 C43.2899349,15.4118677 42.9894842,15.4941119 42.7140711,15.6037708 L36.3545318,8.33886964 C36.9303956,7.79057521 37.3059589,6.96813357 37.3059589,6.06344777 C37.3059589,4.36373504 36.0540811,2.99299898 34.5017526,2.99299898 C33.5252879,2.99299898 32.674011,3.5412934 32.1732599,4.33632032 L22.2834251,1.75933652 C22.1081622,0.744991829 21.2819229,0.00479435269 20.3054582,0.00479435269 C19.2288433,-0.0774498113 18.3525288,0.909480157 18.3525288,2.1157279 Z" id="SVGID_1_"></path>
                </g>
                <g id="theappbuilder-logo-allwhite" transform="translate(61.000000, 5.000000)" fill="#FFFFFF" fill-rule="nonzero">
                    <polygon id="Shape" points="4.92399404 2.42622951 4.92399404 12.0131148 3.18330849 12.0131148 3.18330849 2.42622951 0.0476900149 2.42622951 0.0476900149 0.668852459 8.04769001 0.668852459 8.04769001 2.42622951"></polygon>
                    <path d="M10.9090909,7.3442623 L10.9090909,12.0131148 L9.25186289,12.0131148 L9.25186289,0 L10.9090909,0 L10.9090909,4.95737705 C11.147541,4.43278689 11.5052161,4.01311475 11.9821162,3.71147541 C12.4590164,3.40983607 12.9716841,3.25245902 13.5201192,3.25245902 C14.4023845,3.25245902 15.1177347,3.55409836 15.6661699,4.1442623 C16.2146051,4.73442623 16.4888227,5.6 16.4888227,6.72786885 L16.4888227,12.0131148 L14.8315946,12.0131148 L14.8315946,7.27868852 C14.8315946,5.69180328 14.2354694,4.89180328 13.0312966,4.89180328 C12.4590164,4.89180328 11.9701937,5.10163934 11.5409836,5.52131148 C11.123696,5.92786885 10.9090909,6.5442623 10.9090909,7.3442623" id="Shape"></path>
                    <path d="M25.7168405,8.49836066 L19.5648286,8.49836066 C19.6005961,9.12786885 19.8628912,9.62622951 20.3517139,10.0196721 C20.828614,10.4 21.3889717,10.5967213 22.0089419,10.5967213 C22.9865872,10.5967213 23.7377049,10.2557377 24.2503726,9.57377049 L25.1922504,10.7147541 C24.3457526,11.6721311 23.2488823,12.157377 21.8897168,12.157377 C20.7928465,12.157377 19.8509687,11.7508197 19.076006,10.9508197 C18.3010432,10.1508197 17.9195231,9.06229508 17.9195231,7.71147541 C17.9195231,6.36065574 18.3129657,5.27213115 19.099851,4.47213115 C19.8867362,3.67213115 20.8166915,3.26557377 21.8777943,3.26557377 C22.9388972,3.26557377 23.85693,3.61967213 24.5961252,4.32786885 C25.3472429,5.03606557 25.7168405,6.00655738 25.7168405,7.25245902 L25.7168405,8.49836066 Z M19.5648286,7.06885246 L24.0596125,7.06885246 C24.0596125,6.34754098 23.85693,5.78360656 23.4396423,5.40327869 C23.0223547,5.00983607 22.5216095,4.81311475 21.9135618,4.81311475 C21.3055142,4.81311475 20.7690015,5.00983607 20.2801788,5.41639344 C19.8032787,5.82295082 19.5648286,6.37377049 19.5648286,7.06885246 Z" id="Shape"></path>
                    <path d="M2.99254844,26.4491803 L1.95529061,29.0327869 L0.0953800298,29.0327869 L4.63785395,17.6885246 L6.49776453,17.6885246 L11.0402385,29.0327869 L9.18032787,29.0327869 L8.14307004,26.4491803 L2.99254844,26.4491803 Z M7.45156483,24.6786885 L5.57973174,20.0098361 L3.70789866,24.6786885 L7.45156483,24.6786885 Z" id="Shape"></path>
                    <path d="M16.071535,20.2721311 C17.1207154,20.2721311 18.0268256,20.6786885 18.7660209,21.4786885 C19.5171386,22.2786885 19.8867362,23.3409836 19.8867362,24.6786885 C19.8867362,26.0032787 19.5171386,27.0918033 18.7779434,27.9180328 C18.0387481,28.757377 17.1684054,29.1639344 16.1788376,29.1639344 C15.1892697,29.1639344 14.3070045,28.6918033 13.5201192,27.7344262 L13.5201192,32.1803279 L11.8628912,32.1803279 L11.8628912,20.4032787 L13.5201192,20.4032787 L13.5201192,21.9114754 C14.1758569,20.8229508 15.0223547,20.2721311 16.071535,20.2721311 M13.4962742,24.7311475 C13.4962742,25.557377 13.7228018,26.2262295 14.1758569,26.7508197 C14.6289121,27.2754098 15.1773472,27.5377049 15.8330849,27.5377049 C16.4769001,27.5377049 17.0491803,27.2754098 17.5260805,26.7639344 C18.0029806,26.2393443 18.2533532,25.5704918 18.2533532,24.7442623 C18.2533532,23.9180328 18.0149031,23.2360656 17.5499255,22.6852459 C17.0730253,22.1344262 16.5126677,21.8721311 15.85693,21.8721311 C15.2011923,21.8721311 14.6408346,22.147541 14.1877794,22.6852459 C13.7228018,23.2229508 13.4962742,23.904918 13.4962742,24.7311475" id="Shape"></path>
                    <path d="M25.6214605,20.2721311 C26.6706408,20.2721311 27.5767511,20.6786885 28.3159463,21.4786885 C29.0670641,22.2786885 29.4366617,23.3409836 29.4366617,24.6786885 C29.4366617,26.0032787 29.0670641,27.0918033 28.3278689,27.9180328 C27.5886736,28.757377 26.7183308,29.1639344 25.728763,29.1639344 C24.7391952,29.1639344 23.85693,28.6918033 23.0700447,27.7344262 L23.0700447,32.1803279 L21.4128167,32.1803279 L21.4128167,20.4032787 L23.0700447,20.4032787 L23.0700447,21.9114754 C23.7138599,20.8229508 24.5603577,20.2721311 25.6214605,20.2721311 M23.0342772,24.7311475 C23.0342772,25.557377 23.2608048,26.2262295 23.7138599,26.7508197 C24.1669151,27.2754098 24.7153502,27.5377049 25.3710879,27.5377049 C26.0268256,27.5377049 26.5871833,27.2754098 27.0640835,26.7639344 C27.5409836,26.2393443 27.7913562,25.5704918 27.7913562,24.7442623 C27.7913562,23.9180328 27.5529061,23.2360656 27.0879285,22.6852459 C26.6110283,22.1344262 26.0506706,21.8721311 25.3949329,21.8721311 C24.7391952,21.8721311 24.1788376,22.147541 23.7257824,22.6852459 C23.2608048,23.2229508 23.0342772,23.904918 23.0342772,24.7311475" id="Shape"></path>
                    <path d="M35.7078987,29.0327869 L31.2011923,29.0327869 L31.2011923,17.6885246 L35.2071535,17.6885246 C35.9105812,17.6885246 36.5067064,17.7803279 37.0193741,17.9639344 C37.5201192,18.147541 37.9016393,18.3967213 38.1520119,18.7114754 C38.6289121,19.3016393 38.8554396,19.957377 38.8554396,20.6918033 C38.8554396,21.5836066 38.6050671,22.2393443 38.0923994,22.6721311 C37.9016393,22.8295082 37.7824143,22.9213115 37.7108793,22.9606557 C37.6393443,23 37.5201192,23.0655738 37.3412817,23.1442623 C37.9850969,23.3016393 38.485842,23.6163934 38.8673621,24.0885246 C39.2488823,24.5737705 39.4396423,25.1639344 39.4396423,25.8852459 C39.4396423,26.6721311 39.1892697,27.3672131 38.7004471,27.9836066 C38.1043219,28.6786885 37.1147541,29.0327869 35.7078987,29.0327869 Z M32.9299553,22.3967213 L35.147541,22.3967213 C36.4113264,22.3967213 37.0312966,21.9245902 37.0312966,20.9803279 C37.0312966,20.442623 36.876304,20.0491803 36.5782414,19.8131148 C36.2682563,19.5770492 35.8032787,19.4590164 35.1594635,19.4590164 L32.9299553,19.4590164 L32.9299553,22.3967213 Z M32.9299553,27.2622951 L35.6602086,27.2622951 C36.3040238,27.2622951 36.7928465,27.157377 37.1266766,26.9344262 C37.4605067,26.7114754 37.6393443,26.2918033 37.6393443,25.6754098 C37.6393443,24.6655738 36.9120715,24.1672131 35.4456036,24.1672131 L32.9418778,24.1672131 L32.9418778,27.2622951 L32.9299553,27.2622951 Z" id="Shape"></path>
                    <path d="M46.485842,25.0721311 L46.485842,20.4032787 L48.14307,20.4032787 L48.14307,29.0327869 L46.485842,29.0327869 L46.485842,27.4590164 C46.2235469,27.9836066 45.8539493,28.4032787 45.3889717,28.704918 C44.923994,29.0065574 44.4232489,29.1639344 43.8748137,29.1639344 C42.9925484,29.1639344 42.2771982,28.8622951 41.728763,28.2721311 C41.1803279,27.6819672 40.9061103,26.8163934 40.9061103,25.6885246 L40.9061103,20.4032787 L42.5633383,20.4032787 L42.5633383,25.1377049 C42.5633383,26.7245902 43.1594635,27.5245902 44.3636364,27.5245902 C44.9359165,27.5245902 45.4247392,27.3147541 45.8539493,26.895082 C46.271237,26.4885246 46.485842,25.8721311 46.485842,25.0721311" id="Shape"></path>
                    <path d="M50.2533532,18.6852459 C50.0506706,18.4622951 49.9433681,18.1868852 49.9433681,17.8721311 C49.9433681,17.557377 50.0506706,17.295082 50.2533532,17.0590164 C50.4560358,16.8360656 50.7064083,16.7180328 50.9925484,16.7180328 C51.2786885,16.7180328 51.5290611,16.8360656 51.7317437,17.0590164 C51.9344262,17.2819672 52.0417288,17.557377 52.0417288,17.8721311 C52.0417288,18.1868852 51.9344262,18.4622951 51.7317437,18.6852459 C51.5290611,18.9081967 51.2786885,19.0262295 50.9925484,19.0262295 C50.7064083,19.0262295 50.4679583,18.9081967 50.2533532,18.6852459 Z M51.8032787,29.0327869 L50.1460507,29.0327869 L50.1460507,20.4032787 L51.8032787,20.4032787 L51.8032787,29.0327869 Z" id="Shape"></path>
                    <rect id="Rectangle-path" x="53.8301043" y="16.9934426" width="1.65722802" height="12.0393443"></rect>
                    <path d="M58.0983607,27.9311475 C57.3591654,27.104918 56.9895678,26.0295082 56.9895678,24.6918033 C56.9895678,23.3540984 57.3710879,22.2786885 58.1222057,21.4786885 C58.8733234,20.6786885 59.7794337,20.2721311 60.828614,20.2721311 C61.8777943,20.2721311 62.7123696,20.757377 63.3561848,21.7278689 L63.3561848,16.9934426 L65.0134128,16.9934426 L65.0134128,29.0327869 L63.3561848,29.0327869 L63.3561848,27.7344262 C62.7481371,28.6918033 61.8539493,29.1639344 60.685544,29.1639344 C59.7078987,29.1639344 58.8375559,28.7442623 58.0983607,27.9311475 M58.6467958,24.757377 C58.6467958,25.5836066 58.8852459,26.252459 59.3740686,26.7770492 C59.8509687,27.3016393 60.4232489,27.5508197 61.0670641,27.5508197 C61.7108793,27.5508197 62.271237,27.2885246 62.7242921,26.7639344 C63.1773472,26.2393443 63.4038748,25.5704918 63.4038748,24.7442623 C63.4038748,23.9180328 63.1773472,23.2360656 62.7242921,22.6852459 C62.271237,22.1344262 61.7108793,21.8590164 61.0551416,21.8590164 C60.3994039,21.8590164 59.8271237,22.1344262 59.3621461,22.6852459 C58.8852459,23.2360656 58.6467958,23.9311475 58.6467958,24.757377" id="Shape"></path>
                    <path d="M74.3368107,25.5180328 L68.1847988,25.5180328 C68.2205663,26.147541 68.4828614,26.6459016 68.9716841,27.0393443 C69.4485842,27.4196721 70.0089419,27.6163934 70.6289121,27.6163934 C71.6065574,27.6163934 72.3576751,27.2754098 72.8703428,26.5934426 L73.8122206,27.7344262 C72.9657228,28.6918033 71.8688525,29.1770492 70.509687,29.1770492 C69.4128167,29.1770492 68.4709389,28.7704918 67.6959762,27.9704918 C66.9210134,27.1704918 66.5394933,26.0819672 66.5394933,24.7311475 C66.5394933,23.3803279 66.9329359,22.2918033 67.7198212,21.4918033 C68.5067064,20.6918033 69.4366617,20.2852459 70.4977645,20.2852459 C71.5588674,20.2852459 72.4769001,20.6393443 73.2160954,21.347541 C73.9672131,22.0557377 74.3368107,23.0262295 74.3368107,24.2721311 L74.3368107,25.5180328 Z M68.1847988,24.0885246 L72.6795827,24.0885246 C72.6795827,23.3672131 72.4769001,22.8032787 72.0596125,22.4229508 C71.6423249,22.0295082 71.1415797,21.8327869 70.533532,21.8327869 C69.9254844,21.8327869 69.3889717,22.0295082 68.900149,22.4360656 C68.4351714,22.842623 68.1847988,23.3934426 68.1847988,24.0885246 Z" id="Shape"></path>
                    <path d="M79.8926975,22.1081967 C79.0819672,22.1081967 78.461997,22.3967213 78.0447094,22.9868852 C77.6274218,23.5770492 77.4247392,24.3508197 77.4247392,25.3344262 L77.4247392,29.0327869 L75.7675112,29.0327869 L75.7675112,20.4032787 L77.4247392,20.4032787 L77.4247392,22.1344262 C77.6870343,21.5967213 78.0566319,21.1508197 78.509687,20.8098361 C78.9627422,20.4688525 79.4515648,20.2852459 79.9642325,20.2721311 L79.976155,22.1081967 L79.8926975,22.1081967 Z" id="Shape"></path>
                </g>
                <text id="Pattern-Library" font-family="Montserrat-Regular, Montserrat" font-size="14" font-weight="normal" letter-spacing="-0.400000006" fill="#D6BD89">
                    <tspan x="61" y="53">Pattern Librar</tspan>
                    <tspan x="152.196" y="53">y</tspan>
                </text>
            </g>
        </g>
    </g>
</svg>