<?xml version="1.0" encoding="utf-8"?>
<!-- Generator: Adobe Illustrator 22.0.0, SVG Export Plug-In . SVG Version: 6.00 Build 0)  -->
<svg version="1.1" id="Layer_1" xmlns="http://www.w3.org/2000/svg" xmlns:xlink="http://www.w3.org/1999/xlink" x="0px" y="0px"
	 viewBox="0 0 85.8 57.4" style="enable-background:new 0 0 85.8 57.4;" xml:space="preserve">
<style type="text/css">
	.st0{fill:#FFFFFF;}
</style>
<path class="st0" d="M81,33.5H4.8c-2.6,0-4.8-2.1-4.8-4.8c0-2.6,2.1-4.8,4.8-4.8H81c2.6,0,4.8,2.1,4.8,4.8
	C85.8,31.3,83.6,33.5,81,33.5z M81,9.6H4.8C2.2,9.6,0,7.5,0,4.8S2.1,0,4.8,0H81c2.6,0,4.8,2.1,4.8,4.8S83.6,9.6,81,9.6z M4.8,47.8
	H81c2.6,0,4.8,2.1,4.8,4.8s-2.1,4.8-4.8,4.8H4.8c-2.6,0-4.8-2.1-4.8-4.8S2.2,47.8,4.8,47.8z"/>
</svg>
