<svg xmlns="http://www.w3.org/2000/svg" viewBox="0 0 147.37 203.06"><defs><style>.cls-1{fill:#edf0f3;}.cls-2{fill:#6d7c98;}</style></defs><title>article-1</title><g id="Layer_2" data-name="Layer 2"><g id="Layer_1-2" data-name="Layer 1"><path class="cls-1" d="M120.42,43.83v2.45H108.76a7.58,7.58,0,0,1-7.66-7.67V34.84h10.33A9,9,0,0,1,120.42,43.83Z"/><path class="cls-1" d="M108.76,52.38A13.69,13.69,0,0,1,95,38.61V34.84H13.07a8.94,8.94,0,0,0-7,3.31V177.44a7.58,7.58,0,0,0,7.66,7.66H117a9,9,0,0,0,3.45-7.07V52.38ZM17.08,49.87a5.34,5.34,0,0,1,5.34-5.34h32a5.34,5.34,0,0,1,5.34,5.34V74.45a5.34,5.34,0,0,1-5.34,5.34h-32a5.34,5.34,0,0,1-5.34-5.34ZM19.26,92h65a2.5,2.5,0,1,1,0,5h-65a2.5,2.5,0,0,1,0-5Zm0,11.1h44.5a2.5,2.5,0,1,1,0,5H19.26a2.5,2.5,0,0,1,0-5Zm0,22.2h57.5a2.5,2.5,0,1,1,0,5H19.26a2.5,2.5,0,1,1,0-5Zm61.5,27.2H19.26a2.5,2.5,0,1,1,0-5h61.5a2.5,2.5,0,1,1,0,5Zm7-11.1H19.26a2.5,2.5,0,1,1,0-5h68.5a2.5,2.5,0,0,1,0,5Z"/><path class="cls-2" d="M143.31,41.12l-37.77-37A13.83,13.83,0,0,0,95.85,0H13.77A13.73,13.73,0,0,0,0,13.77V189.29a13.73,13.73,0,0,0,13.77,13.77H133.6a13.71,13.71,0,0,0,13.77-13.77V51A15.06,15.06,0,0,0,143.31,41.12ZM101.1,8.28l.22.15,37.69,37a8.3,8.3,0,0,1,.73.9h-31a7.58,7.58,0,0,1-7.66-7.67Zm40.16,181A7.58,7.58,0,0,1,133.6,197H13.77a7.59,7.59,0,0,1-7.66-7.66v-.38a13.69,13.69,0,0,0,7.66,2.3H133.6a13.69,13.69,0,0,0,7.66-2.3Zm0-11.85a7.57,7.57,0,0,1-7.66,7.66H13.77a7.58,7.58,0,0,1-7.66-7.66V13.77a7.58,7.58,0,0,1,7.66-7.66H95v32.5a13.69,13.69,0,0,0,13.77,13.77h32.5Z"/><rect class="cls-2" x="17.08" y="44.53" width="42.68" height="35.26" rx="5.34" ry="5.34"/><path class="cls-2" d="M86.76,94.53a2.5,2.5,0,0,1-2.5,2.5h-65a2.5,2.5,0,0,1,0-5h65A2.5,2.5,0,0,1,86.76,94.53Z"/><path class="cls-2" d="M66.26,105.63a2.5,2.5,0,0,1-2.5,2.5H19.26a2.5,2.5,0,0,1,0-5h44.5A2.5,2.5,0,0,1,66.26,105.63Z"/><path class="cls-2" d="M84.26,119.23h-65a2.5,2.5,0,0,1,0-5h65a2.5,2.5,0,0,1,0,5Z"/><path class="cls-2" d="M79.26,127.83a2.5,2.5,0,0,1-2.5,2.5H19.26a2.5,2.5,0,1,1,0-5h57.5A2.5,2.5,0,0,1,79.26,127.83Z"/><path class="cls-2" d="M90.26,138.93a2.5,2.5,0,0,1-2.5,2.5H19.26a2.5,2.5,0,1,1,0-5h68.5A2.5,2.5,0,0,1,90.26,138.93Z"/><path class="cls-2" d="M83.26,150a2.5,2.5,0,0,1-2.5,2.5H19.26a2.5,2.5,0,1,1,0-5h61.5A2.5,2.5,0,0,1,83.26,150Z"/></g></g></svg>