<svg xmlns="http://www.w3.org/2000/svg" viewBox="0 0 198.79 154"><defs><style>.cls-1{fill:#edf0f3;}.cls-2{fill:#fff;}.cls-3{fill:#6d7c98;}</style></defs><title>contact-1</title><g id="Layer_2" data-name="Layer 2"><g id="Layer_1-2" data-name="Layer 1"><path class="cls-1" d="M17.21,118.17H6.32V40.42a4.13,4.13,0,0,1,4.13-4.12h6.6v81A2.58,2.58,0,0,0,17.21,118.17Z"/><path class="cls-1" d="M60,71a6.69,6.69,0,1,0-10.42-5.53,6.62,6.62,0,0,0,3,5.53,13,13,0,0,0-9.25,12.45h26A13,13,0,0,0,60,71Zm0,0a6.69,6.69,0,1,0-10.42-5.53,6.62,6.62,0,0,0,3,5.53,13,13,0,0,0-9.25,12.45h26A13,13,0,0,0,60,71Zm0,0a6.69,6.69,0,1,0-10.42-5.53,6.62,6.62,0,0,0,3,5.53,13,13,0,0,0-9.25,12.45h26A13,13,0,0,0,60,71Zm0,0a6.69,6.69,0,1,0-10.42-5.53,6.62,6.62,0,0,0,3,5.53,13,13,0,0,0-9.25,12.45h26A13,13,0,0,0,60,71Zm0,0a6.69,6.69,0,1,0-10.42-5.53,6.62,6.62,0,0,0,3,5.53,13,13,0,0,0-9.25,12.45h26A13,13,0,0,0,60,71Zm0,0a6.69,6.69,0,1,0-10.42-5.53,6.62,6.62,0,0,0,3,5.53,13,13,0,0,0-9.25,12.45h26A13,13,0,0,0,60,71Zm38.78-29.5h48.67V40.42a4.14,4.14,0,0,0-4.13-4.12H22.63v81a2.59,2.59,0,0,1-.17.92h125V47.33H98.74a2.93,2.93,0,1,1,0-5.85Zm.33,20.7H140.8a2.9,2.9,0,0,1,2.92,2.92A2.94,2.94,0,0,1,140.8,68H99.07a3,3,0,0,1-2.93-2.93A2.91,2.91,0,0,1,99.07,62.18Zm0,12H140.8a2.93,2.93,0,0,1,0,5.85H99.07a2.93,2.93,0,1,1,0-5.85Zm0,12h22.27a2.93,2.93,0,0,1,0,5.86H99.07a2.93,2.93,0,1,1,0-5.86Zm-21,.68a8.88,8.88,0,0,1-8.87,8.86H43.28a8.88,8.88,0,0,1-8.87-8.86V55.32a8.89,8.89,0,0,1,8.87-8.87H69.15A8.89,8.89,0,0,1,78,55.32ZM60,71a6.69,6.69,0,1,0-10.42-5.53,6.62,6.62,0,0,0,3,5.53,13,13,0,0,0-9.25,12.45h26A13,13,0,0,0,60,71Zm0,0a6.69,6.69,0,1,0-10.42-5.53,6.62,6.62,0,0,0,3,5.53,13,13,0,0,0-9.25,12.45h26A13,13,0,0,0,60,71Zm0,0a6.69,6.69,0,1,0-10.42-5.53,6.62,6.62,0,0,0,3,5.53,13,13,0,0,0-9.25,12.45h26A13,13,0,0,0,60,71Zm0,0a6.69,6.69,0,1,0-10.42-5.53,6.62,6.62,0,0,0,3,5.53,13,13,0,0,0-9.25,12.45h26A13,13,0,0,0,60,71Zm0,0a6.69,6.69,0,1,0-10.42-5.53,6.62,6.62,0,0,0,3,5.53,13,13,0,0,0-9.25,12.45h26A13,13,0,0,0,60,71Z"/><path class="cls-1" d="M147.41,123.75v20.52a4.15,4.15,0,0,1-2.88,3.94H15.16a9.15,9.15,0,0,1-8.78-6.32,7,7,0,0,1-.06-.92V123.75Z"/><path class="cls-1" d="M179,121.7v0s0,0,.08,0Z"/><path class="cls-2" d="M69.21,83.43h-26A13,13,0,0,1,52.5,71a6.62,6.62,0,0,1-3-5.53A6.69,6.69,0,1,1,60,71,13,13,0,0,1,69.21,83.43Z"/><path class="cls-3" d="M193.5,125.07c-.06,0-.06,0-.09,0v0Z"/><path class="cls-3" d="M183.64,0H21.89C9.82,0,0,9.48,0,21.13V139.36A14.92,14.92,0,0,0,15.16,154H183.64a14.92,14.92,0,0,0,15.15-14.64V14.64A14.92,14.92,0,0,0,183.64,0Zm9.16,139.36a9,9,0,0,1-9.16,8.85H15.16a9.15,9.15,0,0,1-8.78-6.32A8.47,8.47,0,0,1,6,139.36V123.75H192.8Zm-16.2-21.19H22.46a2.59,2.59,0,0,0,.17-.92V25a2.76,2.76,0,0,1,2.86-2.66H173.67A2.76,2.76,0,0,1,176.53,25v92.52A2.48,2.48,0,0,0,176.6,118.17Zm2.37,3.56v0h.08C179,121.7,179,121.7,179,121.73Zm13.83-3.56H182.05a3.08,3.08,0,0,0,.06-.61V25a8.36,8.36,0,0,0-8.44-8.24H25.49A8.36,8.36,0,0,0,17.05,25v92.21a2.58,2.58,0,0,0,.16.92H6v-97C6,12.68,13.13,5.79,21.89,5.79H183.64a9,9,0,0,1,9.16,8.85Z"/><path class="cls-3" d="M69.15,46.45H43.28a8.89,8.89,0,0,0-8.87,8.87V86.85a8.88,8.88,0,0,0,8.87,8.86H69.15A8.88,8.88,0,0,0,78,86.85V55.32A8.89,8.89,0,0,0,69.15,46.45Zm-25.9,37A13,13,0,0,1,52.5,71a6.62,6.62,0,0,1-3-5.53A6.69,6.69,0,1,1,60,71a13,13,0,0,1,9.25,12.45Z"/><path class="cls-3" d="M124.26,89.1A2.93,2.93,0,0,1,121.34,92H99.07a2.93,2.93,0,1,1,0-5.86h22.27A2.93,2.93,0,0,1,124.26,89.1Z"/><path class="cls-3" d="M143.72,77.1A2.92,2.92,0,0,1,140.8,80H99.07a2.93,2.93,0,1,1,0-5.85H140.8A2.93,2.93,0,0,1,143.72,77.1Z"/><path class="cls-3" d="M143.72,65.1A2.94,2.94,0,0,1,140.8,68H99.07a3,3,0,0,1-2.93-2.93,2.91,2.91,0,0,1,2.93-2.92H140.8A2.9,2.9,0,0,1,143.72,65.1Z"/><path class="cls-3" d="M156.7,44.4a3,3,0,0,1-2.93,2.93h-55a2.93,2.93,0,1,1,0-5.85h55A2.93,2.93,0,0,1,156.7,44.4Z"/></g></g></svg>