<svg xmlns="http://www.w3.org/2000/svg" viewBox="0 0 280.2 328.56"><defs><style>.cls-1{fill:#edf0f3;}.cls-2{fill:#6d7c98;}</style></defs><title>delete_bin</title><g id="Layer_2" data-name="Layer 2"><g id="Layer_1-2" data-name="Layer 1"><path class="cls-1" d="M194.52,90.35l-9,94.61-.48,5h0l-12.3,129.54H47.88a7.32,7.32,0,0,1-7.21-6.28L9.34,89.35a7.28,7.28,0,0,1,7.21-8.29H192.78A16.57,16.57,0,0,1,194.52,90.35Z"/><path class="cls-2" d="M15.53,65A15.24,15.24,0,0,1,.32,50.69L0,45.9A15.26,15.26,0,0,1,14.32,29.74L83.6,25.5l-.29-4.81a14.52,14.52,0,0,1,4-11A15.35,15.35,0,0,1,97.63,4.93l80-4.9a15.07,15.07,0,0,1,16.14,13.89l.29,4.81L258.3,14.8a15.24,15.24,0,0,1,16.15,14.29l.3,4.8A15.26,15.26,0,0,1,260.46,50L16.48,65C16.16,65,15.85,65,15.53,65ZM178.6,9h-.42l-80,4.9a6.48,6.48,0,0,0-4.32,2,5.62,5.62,0,0,0-1.57,4.24l.57,9.3a4.5,4.5,0,0,1-4.21,4.77L14.87,38.73A6.26,6.26,0,0,0,9,45.35H9l.3,4.79a6.18,6.18,0,0,0,2.09,4.3A6.24,6.24,0,0,0,15.93,56l244-14.94a6.26,6.26,0,0,0,5.86-6.62l-.3-4.8a6.26,6.26,0,0,0-6.62-5.86L190.12,28a4.5,4.5,0,0,1-4.77-4.21l-.57-9.31A6,6,0,0,0,178.6,9Z"/><path class="cls-2" d="M276.2,77.66a16.26,16.26,0,0,0-12.28-5.6H16.55A16.29,16.29,0,0,0,.42,90.6L31.76,314.53a16.35,16.35,0,0,0,16.12,14h184.7a16.35,16.35,0,0,0,16.13-14L280,90.6A16.22,16.22,0,0,0,276.2,77.66Zm-5.07,11.69L239.79,313.29a7.32,7.32,0,0,1-7.21,6.27H47.88a7.32,7.32,0,0,1-7.21-6.28L9.34,89.35a7.28,7.28,0,0,1,7.21-8.29H263.92a7.28,7.28,0,0,1,7.21,8.29Z"/><path class="cls-2" d="M109.3,200.25a13.55,13.55,0,1,1,13.44-13.65A13.52,13.52,0,0,1,109.3,200.25Z"/><path class="cls-2" d="M172,172.68a13.55,13.55,0,1,0,13.64,13.44A13.55,13.55,0,0,0,172,172.68Z"/><path class="cls-2" d="M141.73,200.47c12.58-.1,23.59,9.43,25.46,22.36A4.09,4.09,0,0,1,159.1,224c-1.32-9.1-9.58-16-18.42-15.31a17.56,17.56,0,0,0-15.81,15.56,4.09,4.09,0,1,1-8.11-1,25.75,25.75,0,0,1,23.31-22.7C140.63,200.5,141.18,200.47,141.73,200.47Z"/><path class="cls-2" d="M36.37,186.5a4.5,4.5,0,0,1-4.46-3.93L21.52,101.71a4.5,4.5,0,0,1,8.93-1.15l10.39,80.87a4.49,4.49,0,0,1-3.89,5A3.86,3.86,0,0,1,36.37,186.5Z"/><path class="cls-2" d="M223.78,310.62a5,5,0,0,1-.76-.06,4.49,4.49,0,0,1-3.68-5.19l17.48-103.11a4.5,4.5,0,0,1,8.87,1.51L228.21,306.88A4.49,4.49,0,0,1,223.78,310.62Z"/></g></g></svg>