<svg xmlns="http://www.w3.org/2000/svg" viewBox="0 0 385 261.78"><defs><style>.cls-1{fill:#fff;}.cls-2{fill:#6d7c99;}.cls-3{fill:#d2d9e1;opacity:0.45;}.cls-4{fill:#7887a2;}</style></defs><title>drag_drop</title><g id="Layer_2" data-name="Layer 2"><g id="Layer_1-2" data-name="Layer 1"><path class="cls-1" d="M247.33,81.32A14.25,14.25,0,1,1,233,67.16,14.25,14.25,0,0,1,247.33,81.32Z"/><path class="cls-2" d="M64.42,48.92a2.58,2.58,0,0,1-2.58,2.59H48.92a2.59,2.59,0,0,1,0-5.17H61.84A2.57,2.57,0,0,1,64.42,48.92Z"/><path class="cls-2" d="M5.17,103.46v12.92a2.59,2.59,0,0,1-5.17,0V103.46a2.59,2.59,0,0,1,5.17,0Z"/><path class="cls-2" d="M5.17,77.62V90.54a2.59,2.59,0,0,1-5.17,0V77.62a2.59,2.59,0,0,1,5.17,0Z"/><path class="cls-2" d="M5.17,129.3v12.92a2.59,2.59,0,0,1-5.17,0V129.3a2.59,2.59,0,1,1,5.17,0Z"/><path class="cls-2" d="M5.17,155.14v12.92a2.59,2.59,0,0,1-5.17,0V155.14a2.59,2.59,0,1,1,5.17,0Z"/><path class="cls-2" d="M5.17,181V193.9a2.59,2.59,0,0,1-5.17,0V181a2.59,2.59,0,1,1,5.17,0Z"/><path class="cls-2" d="M5.17,206.81v12.92a2.59,2.59,0,1,1-5.17,0V206.81a2.59,2.59,0,0,1,5.17,0Z"/><path class="cls-2" d="M241.12,259.65a26.93,26.93,0,0,1-8.37,1.32H219.83a2.58,2.58,0,1,1,0-5.16h12.92a22.09,22.09,0,0,0,6.77-1.07,2.55,2.55,0,0,1,3.19,1.51.53.53,0,0,1,.06.14A2.59,2.59,0,0,1,241.12,259.65Z"/><path class="cls-2" d="M259.18,239.23a26.88,26.88,0,0,1-6.26,12.66,2.6,2.6,0,0,1-1.94.87,2.54,2.54,0,0,1-1.7-.65l-.11-.09a2.58,2.58,0,0,1-.12-3.55,21.81,21.81,0,0,0,5.06-10.23,2.58,2.58,0,0,1,2.88-2.06l.15,0A2.58,2.58,0,0,1,259.18,239.23Z"/><path class="cls-2" d="M259.68,212.93v12.92a2.59,2.59,0,0,1-5.17,0V212.93a2.59,2.59,0,0,1,5.17,0Z"/><path class="cls-2" d="M259.68,191.21V200a2.59,2.59,0,0,1-5.17,0v-8.8Z"/><path class="cls-1" d="M199.48,193.59v45.78A15.43,15.43,0,0,1,184,254.82H28.41a23,23,0,0,1-23-23V104.07A15.43,15.43,0,0,1,20.87,88.62H139.74a7.54,7.54,0,0,1,7.54,7.54v63.28c0,.55,0,1.11.05,1.65v3.68a26.47,26.47,0,0,0,26.44,26.44H199.1A7.8,7.8,0,0,1,199.48,193.59Z"/><path class="cls-2" d="M209.49,258.39a2.57,2.57,0,0,1-2.58,2.58H194a2.58,2.58,0,1,1,0-5.16h12.92A2.57,2.57,0,0,1,209.49,258.39Z"/><path class="cls-2" d="M183.65,258.39a2.57,2.57,0,0,1-2.58,2.58H168.15a2.58,2.58,0,1,1,0-5.16h12.92A2.57,2.57,0,0,1,183.65,258.39Z"/><path class="cls-2" d="M157.82,258.39a2.58,2.58,0,0,1-2.59,2.58H142.31a2.58,2.58,0,1,1,0-5.16h12.92A2.58,2.58,0,0,1,157.82,258.39Z"/><path class="cls-2" d="M132,258.39a2.58,2.58,0,0,1-2.59,2.58H116.47a2.58,2.58,0,1,1,0-5.16h12.92A2.58,2.58,0,0,1,132,258.39Z"/><path class="cls-2" d="M106.14,258.39a2.58,2.58,0,0,1-2.59,2.58H90.63a2.58,2.58,0,1,1,0-5.16h12.92A2.58,2.58,0,0,1,106.14,258.39Z"/><path class="cls-2" d="M80.3,258.39A2.58,2.58,0,0,1,77.71,261H64.8a2.58,2.58,0,1,1,0-5.16H77.71A2.58,2.58,0,0,1,80.3,258.39Z"/><path class="cls-2" d="M54.46,258.39A2.57,2.57,0,0,1,51.88,261H39a2.58,2.58,0,1,1,0-5.16H51.88A2.57,2.57,0,0,1,54.46,258.39Z"/><path class="cls-2" d="M28.62,258.39v.08A2.59,2.59,0,0,1,26,261h-.1a26.87,26.87,0,0,1-13.48-4.2,2.59,2.59,0,0,1-.79-3.57.48.48,0,0,1,.09-.11,2.58,2.58,0,0,1,3.49-.68,21.61,21.61,0,0,0,10.88,3.39A2.57,2.57,0,0,1,28.62,258.39Z"/><path class="cls-2" d="M6.56,247.36l-.13.08A2.57,2.57,0,0,1,3,246.32,27.08,27.08,0,0,1,0,234v-1.39a2.59,2.59,0,0,1,5.17,0V234A21.53,21.53,0,0,0,7.55,244,2.56,2.56,0,0,1,6.56,247.36Z"/><path class="cls-2" d="M13.11,56.46a21.86,21.86,0,0,0-6.62,9.31,2.57,2.57,0,0,1-2.42,1.69,2.45,2.45,0,0,1-.75-.12.29.29,0,0,1-.14,0A2.57,2.57,0,0,1,1.65,64,26.92,26.92,0,0,1,9.82,52.47a2.58,2.58,0,0,1,3.63.35.94.94,0,0,1,.09.12A2.56,2.56,0,0,1,13.11,56.46Z"/><path class="cls-2" d="M141.94,48.92a2.58,2.58,0,0,1-2.58,2.59H126.44a2.59,2.59,0,1,1,0-5.17h12.92A2.57,2.57,0,0,1,141.94,48.92Z"/><path class="cls-2" d="M116.1,48.92a2.58,2.58,0,0,1-2.58,2.59H100.6a2.59,2.59,0,0,1,0-5.17h12.92A2.57,2.57,0,0,1,116.1,48.92Z"/><path class="cls-2" d="M90.26,48.92a2.58,2.58,0,0,1-2.58,2.59H74.76a2.59,2.59,0,0,1,0-5.17H87.68A2.57,2.57,0,0,1,90.26,48.92Z"/><path class="cls-2" d="M38.59,48.92A2.59,2.59,0,0,1,36,51.51H26.93a23.2,23.2,0,0,0-3.43.26,1.81,1.81,0,0,1-.4,0,2.58,2.58,0,0,1-2.52-2l0-.14a2.59,2.59,0,0,1,2.15-3,27.11,27.11,0,0,1,4.23-.33H36A2.58,2.58,0,0,1,38.59,48.92Z"/><path class="cls-3" d="M199.48,193.59v45.78A15.43,15.43,0,0,1,184,254.82H28.41a23,23,0,0,1-23-23V104.07A15.43,15.43,0,0,1,20.87,88.62H139.74a7.54,7.54,0,0,1,7.54,7.54v63.28c0,.55,0,1.11.05,1.65v3.68a26.47,26.47,0,0,0,26.44,26.44H199.1A7.8,7.8,0,0,1,199.48,193.59Z"/><path class="cls-1" d="M247.33,81.32A14.25,14.25,0,1,1,233,67.16,14.25,14.25,0,0,1,247.33,81.32Z"/><path class="cls-1" d="M313.51,80.81a14.26,14.26,0,1,1-14.36-14.15A14.26,14.26,0,0,1,313.51,80.81Z"/><path class="cls-2" d="M358.57,0H173.77a26.47,26.47,0,0,0-26.44,26.43V164.77a26.47,26.47,0,0,0,26.44,26.44H281.23l13,54.43a3.33,3.33,0,0,0,5.79,1.37l17.77-21.21a4.73,4.73,0,0,0,.43.57l28.33,33.11a6.54,6.54,0,0,0,9.23.72l.52-.44a6.54,6.54,0,0,0,.72-9.23l-28.34-33.11a5,5,0,0,0-.5-.53l25.31-14.58a3.33,3.33,0,0,0-.33-5.93l-11.8-5.17h17.16A26.47,26.47,0,0,0,385,164.77V26.43A26.46,26.46,0,0,0,358.57,0Zm17.82,164.77a17.85,17.85,0,0,1-17.82,17.83H321.74l-41.43-18.14a3.32,3.32,0,0,0-4.57,3.82l3.42,14.32H173.77A17.84,17.84,0,0,1,156,164.77V26.43A17.84,17.84,0,0,1,173.77,8.61h184.8a17.85,17.85,0,0,1,17.82,17.82Z"/><path class="cls-4" d="M247.33,81.32A14.25,14.25,0,1,1,233,67.16,14.25,14.25,0,0,1,247.33,81.32Z"/><path class="cls-4" d="M313.51,80.81a14.26,14.26,0,1,1-14.36-14.15A14.26,14.26,0,0,1,313.51,80.81Z"/><path class="cls-2" d="M294,100.58c-1.6,12.9-11.92,23-24.54,23.9-.59,0-1.17.06-1.75.07a25.33,25.33,0,0,1-8.16-1.26,21.72,21.72,0,0,1-2.44-.91c-.89-.39-1.75-.82-2.59-1.29A27.66,27.66,0,0,1,240.89,101a4.3,4.3,0,0,1,8.52-1.23,19.08,19.08,0,0,0,5.1,10.4,19.78,19.78,0,0,0,2.59,2.26,19,19,0,0,0,2.58,1.59,17.33,17.33,0,0,0,9.12,1.88,18.48,18.48,0,0,0,16.64-16.38,4.31,4.31,0,0,1,8.55,1.06Z"/></g></g></svg>