<svg xmlns="http://www.w3.org/2000/svg" viewBox="0 0 186.68 149.11"><defs><style>.cls-1{fill:#edf0f3;}.cls-2{fill:#6d7c98;}</style></defs><title>facebook-1</title><g id="Layer_2" data-name="Layer 2"><g id="Layer_1-2" data-name="Layer 1"><path class="cls-1" d="M180.07,129.94a16.67,16.67,0,0,1-16.28,13.17h0l-83.37-.19a9.92,9.92,0,0,1-1.52-5.42v-7.79Z"/><path class="cls-1" d="M178.31,29.54H84.41a4.63,4.63,0,0,0-3.18,1.35l99.43.22v-.87A4.37,4.37,0,0,0,178.31,29.54ZM78.86,36.88v86.83l101.59.23.2-86.83ZM150.42,60A1.47,1.47,0,0,1,149,61.51h-6.3c-4.35,0-5.14,1.69-5.14,5v6.93h11A1.47,1.47,0,0,1,150,74.94V86.8a1.47,1.47,0,0,1-1.48,1.47h-11v29.92a1.47,1.47,0,0,1-1.47,1.47H123.77a1.47,1.47,0,0,1-1.47-1.47V88.27h-9.4a1.47,1.47,0,0,1-1.48-1.47V74.94a1.47,1.47,0,0,1,1.48-1.47h9.4V65.29c0-10.78,6.79-17.75,17.3-17.75l9.35,0A1.47,1.47,0,0,1,150.42,49Z"/><path class="cls-2" d="M150.42,49V60A1.47,1.47,0,0,1,149,61.51h-6.3c-4.35,0-5.14,1.69-5.14,5v6.93h11A1.47,1.47,0,0,1,150,74.94V86.8a1.47,1.47,0,0,1-1.48,1.47h-11v29.92a1.47,1.47,0,0,1-1.47,1.47H123.77a1.47,1.47,0,0,1-1.47-1.47V88.27h-9.4a1.47,1.47,0,0,1-1.48-1.47V74.94a1.47,1.47,0,0,1,1.48-1.47h9.4V65.29c0-10.78,6.79-17.75,17.3-17.75l9.35,0A1.47,1.47,0,0,1,150.42,49Z"/><path class="cls-2" d="M186.34,19.13a2.51,2.51,0,0,0,0-.27.5.5,0,0,0,0-.12A22.7,22.7,0,0,0,164.08.32L23,0h-.06A22.64,22.64,0,0,0,.24,22.6L0,126.08c0,.11,0,.22,0,.33a2.43,2.43,0,0,0,0,.27s0,.09,0,.14a0,0,0,0,0,0,0,22.64,22.64,0,0,0,22.59,21.94l141.13.33h0a22.68,22.68,0,0,0,22.63-21.85h0c0-.14,0-.28,0-.42s0-.21,0-.32L186.68,23A21.84,21.84,0,0,0,186.34,19.13Zm-22.55,124h0l-83.37-.19-57.76-.14A16.69,16.69,0,0,1,6.35,129.54l72.51.17,101.21.23A16.67,16.67,0,0,1,163.79,143.11Zm16.66-19.17-101.59-.23L6,123.54l.2-86.82,72.65.16,101.79.23Zm.21-93.7v.87l-99.43-.22-75-.17,0-8.11A16.66,16.66,0,0,1,22.89,6h0l141.14.32a16.63,16.63,0,0,1,15.24,10.06l-58.19-.13h0a3,3,0,0,0,0,6l59.57.13c0,.21,0,.42,0,.63Z"/><path class="cls-2" d="M0,126.41a2.43,2.43,0,0,0,0,.27.76.76,0,0,1,0-.15A.49.49,0,0,1,0,126.41Z"/><path class="cls-2" d="M186.44,127a1.37,1.37,0,0,1,0,.29c0-.14,0-.28,0-.42A.57.57,0,0,1,186.44,127Z"/><path class="cls-2" d="M55.93,12.69a5.16,5.16,0,1,0,5.14,5.17A5.18,5.18,0,0,0,55.93,12.69Z"/><circle class="cls-2" cx="39.34" cy="17.81" r="5.16" transform="translate(21.44 57.11) rotate(-89.87)"/><circle class="cls-2" cx="22.76" cy="17.77" r="5.16" transform="translate(4.94 40.49) rotate(-89.87)"/></g></g></svg>