<svg xmlns="http://www.w3.org/2000/svg" viewBox="0 0 186.68 149.11"><defs><style>.cls-1{fill:#edf0f3;}.cls-2{fill:#6d7c98;}</style></defs><title>feedback-1</title><g id="Layer_2" data-name="Layer 2"><g id="Layer_1-2" data-name="Layer 1"><path class="cls-1" d="M155.92,41.54h24.72l-.2,85a16.67,16.67,0,0,1-16.65,16.61h0l-141.13-.33a16,16,0,0,1-4.41-.61,5.43,5.43,0,0,1-.35-1.94v-78A20.64,20.64,0,0,1,38.51,41.54h66.55v20.9a3.37,3.37,0,0,1-.45,1.67l-4.35,6.12a.75.75,0,0,0,1,1l14-5.67a3.42,3.42,0,0,1,1.53-.37h35.78a3.35,3.35,0,0,0,3.35-3.36Z"/><path class="cls-1" d="M186.63,46v73.77a25.12,25.12,0,0,1-.18,3Z"/><path class="cls-2" d="M164.08.32,23,0h-.06A22.64,22.64,0,0,0,.24,22.6L0,126.08a22.65,22.65,0,0,0,22.61,22.7l141.13.33h0a22.68,22.68,0,0,0,22.65-22.6v-3.74L186.63,46v-.07L186.68,23A22.68,22.68,0,0,0,164.08.32ZM6,126.09,6.24,22.61A16.66,16.66,0,0,1,22.89,6h0l141.14.32A16.67,16.67,0,0,1,180.68,23l0,18.53-.2,85a16.67,16.67,0,0,1-16.65,16.61h0l-141.13-.33a16,16,0,0,1-4.41-.61A16.67,16.67,0,0,1,6,126.09Z"/><path class="cls-2" d="M39.67,119.41a32.21,32.21,0,0,1,22.9-30.83,16.42,16.42,0,0,1-7.33-13.7,16.58,16.58,0,1,1,25.82,13.7A32.29,32.29,0,0,1,104,119.41Z"/><path class="cls-2" d="M155.92,30.9v31a3.35,3.35,0,0,1-3.35,3.36H116.79a3.42,3.42,0,0,0-1.53.37l-14,5.67a.75.75,0,0,1-1-1l4.35-6.12a3.37,3.37,0,0,0,.45-1.67V30.9a3.35,3.35,0,0,1,3.35-3.36h44.16A3.35,3.35,0,0,1,155.92,30.9Z"/></g></g></svg>