<svg xmlns="http://www.w3.org/2000/svg" viewBox="0 0 147.37 203.06"><defs><style>.cls-1{fill:#edf0f3;}.cls-2{fill:#6d7c98;}.cls-3{fill:none;}</style></defs><title>file-1</title><g id="Layer_2" data-name="Layer 2"><g id="Layer_1-2" data-name="Layer 1"><path class="cls-1" d="M120.42,43.83v2.45H108.76a7.58,7.58,0,0,1-7.66-7.67V34.84h10.33A9,9,0,0,1,120.42,43.83Z"/><path class="cls-1" d="M108.76,52.38A13.69,13.69,0,0,1,95,38.61V34.84H13.07a8.94,8.94,0,0,0-7,3.31V177.44a7.58,7.58,0,0,0,7.66,7.66H117a9,9,0,0,0,3.45-7.07V52.38Zm-82,19.15H48.63a2.65,2.65,0,1,1,0,5.23H26.75a2.64,2.64,0,1,1,0-5.23Zm21.88,36.62H26.75a2.65,2.65,0,1,1,0-5.24H48.63a2.65,2.65,0,1,1,0,5.24Zm4.88-10.21H26.75a2.65,2.65,0,1,1,0-5.24H53.51a2.65,2.65,0,1,1,0,5.24Zm6.7-10.2H26.75a2.65,2.65,0,1,1,0-5.24H60.21a2.65,2.65,0,1,1,0,5.24Zm0-31.39H26.75a2.64,2.64,0,1,1,0-5.23H60.21a2.65,2.65,0,1,1,0,5.23Z"/><path class="cls-2" d="M143.31,41.12l-37.77-37A13.83,13.83,0,0,0,95.85,0H13.77A13.73,13.73,0,0,0,0,13.77V189.29a13.73,13.73,0,0,0,13.77,13.77H133.6a13.71,13.71,0,0,0,13.77-13.77V51A15.06,15.06,0,0,0,143.31,41.12ZM101.1,8.28l.22.15,37.69,37a8.3,8.3,0,0,1,.73.9h-31a7.58,7.58,0,0,1-7.66-7.67Zm40.16,181A7.58,7.58,0,0,1,133.6,197H13.77a7.59,7.59,0,0,1-7.66-7.66v-.38a13.69,13.69,0,0,0,7.66,2.3H133.6a13.69,13.69,0,0,0,7.66-2.3Zm0-11.85a7.57,7.57,0,0,1-7.66,7.66H13.77a7.58,7.58,0,0,1-7.66-7.66V13.77a7.58,7.58,0,0,1,7.66-7.66H95v32.5a13.69,13.69,0,0,0,13.77,13.77h32.5Z"/><line class="cls-3" x1="26.75" y1="53.74" x2="60.21" y2="53.74"/><path class="cls-2" d="M63.26,53.74a2.85,2.85,0,0,1-3,2.61H26.75a2.64,2.64,0,1,1,0-5.23H60.21A2.85,2.85,0,0,1,63.26,53.74Z"/><line class="cls-3" x1="26.75" y1="63.94" x2="53.51" y2="63.94"/><path class="cls-2" d="M51.68,74.14a2.85,2.85,0,0,1-3,2.62H26.75a2.64,2.64,0,1,1,0-5.23H48.63A2.85,2.85,0,0,1,51.68,74.14Z"/><path class="cls-2" d="M53.51,66.56H26.75a2.65,2.65,0,1,1,0-5.24H53.51a2.65,2.65,0,1,1,0,5.24Z"/><line class="cls-3" x1="26.75" y1="74.14" x2="48.63" y2="74.14"/><line class="cls-3" x1="26.75" y1="85.12" x2="60.21" y2="85.12"/><path class="cls-2" d="M63.26,85.12a2.86,2.86,0,0,1-3,2.62H26.75a2.65,2.65,0,1,1,0-5.24H60.21A2.85,2.85,0,0,1,63.26,85.12Z"/><line class="cls-3" x1="26.75" y1="95.32" x2="53.51" y2="95.32"/><path class="cls-2" d="M56.56,95.32a2.86,2.86,0,0,1-3.05,2.62H26.75a2.65,2.65,0,1,1,0-5.24H53.51A2.87,2.87,0,0,1,56.56,95.32Z"/><line class="cls-3" x1="26.75" y1="105.53" x2="48.63" y2="105.53"/><path class="cls-2" d="M51.68,105.53a2.86,2.86,0,0,1-3,2.62H26.75a2.65,2.65,0,1,1,0-5.24H48.63A2.85,2.85,0,0,1,51.68,105.53Z"/></g></g></svg>