<svg xmlns="http://www.w3.org/2000/svg" viewBox="0 0 186.68 149.11"><defs><style>.cls-1{fill:#edf0f3;}.cls-2,.cls-4{fill:#6d7c98;}.cls-3{fill:#fff;}.cls-4{fill-rule:evenodd;}</style></defs><title>gallery-1</title><g id="Layer_2" data-name="Layer 2"><g id="Layer_1-2" data-name="Layer 1"><rect class="cls-1" x="23.36" y="47.04" width="59" height="59" rx="6.84" ry="6.84"/><path class="cls-1" d="M112.2,42h21.66V6.25L22.93,6h0A16.66,16.66,0,0,0,6.24,22.61L6,126.09a16.64,16.64,0,0,0,.81,5.16,5.53,5.53,0,0,0,1.78.29H119a14.9,14.9,0,0,0,14.9-14.9V111H112.2A11.85,11.85,0,0,1,100.36,99.2V53.88A11.85,11.85,0,0,1,112.2,42ZM87.36,99.2A11.85,11.85,0,0,1,75.52,111H30.2A11.85,11.85,0,0,1,18.36,99.2V53.88A11.85,11.85,0,0,1,30.2,42H75.52A11.85,11.85,0,0,1,87.36,53.88Z"/><path class="cls-2" d="M164.08.32,23,0h-.06A22.64,22.64,0,0,0,.24,22.6L0,126.08a22.65,22.65,0,0,0,22.61,22.7l141.13.33h0a22.68,22.68,0,0,0,22.65-22.6L186.68,23A22.68,22.68,0,0,0,164.08.32ZM180.44,126.5a16.67,16.67,0,0,1-16.65,16.61h0l-141.13-.33A16.66,16.66,0,0,1,6,126.09L6.24,22.61A16.66,16.66,0,0,1,22.89,6h0l110.93.25,30.21.07A16.67,16.67,0,0,1,180.68,23Z"/><path class="cls-2" d="M75.52,42H30.2A11.85,11.85,0,0,0,18.36,53.88V99.2A11.85,11.85,0,0,0,30.2,111H75.52A11.85,11.85,0,0,0,87.36,99.2V53.88A11.85,11.85,0,0,0,75.52,42ZM82.36,99.2A6.85,6.85,0,0,1,75.52,106H30.2a6.85,6.85,0,0,1-6.84-6.84V53.88A6.85,6.85,0,0,1,30.2,47H75.52a6.85,6.85,0,0,1,6.84,6.84Z"/><rect class="cls-3" x="23.36" y="47.04" width="59" height="59" rx="6.84" ry="6.84"/><path class="cls-4" d="M29.84,96.39H74.38c1.41,0,2.37-1.11,1.86-2.13L65.14,72.43a2.26,2.26,0,0,0-3.68-.08l-4.11,7a2.26,2.26,0,0,1-3.7-.12L45.64,62a2.23,2.23,0,0,0-3.78,0L27.94,94.34c-.43,1,.53,2,1.9,2Z"/><circle class="cls-2" cx="63.33" cy="60.98" r="4.44"/><path class="cls-2" d="M157.52,42H112.2a11.85,11.85,0,0,0-11.84,11.84V99.2A11.85,11.85,0,0,0,112.2,111h45.32A11.85,11.85,0,0,0,169.36,99.2V53.88A11.85,11.85,0,0,0,157.52,42Zm6.84,57.16a6.85,6.85,0,0,1-6.84,6.84H112.2a6.85,6.85,0,0,1-6.84-6.84V53.88A6.85,6.85,0,0,1,112.2,47h45.32a6.85,6.85,0,0,1,6.84,6.84Z"/><path class="cls-3" d="M145.33,56.54A4.44,4.44,0,1,0,149.77,61,4.44,4.44,0,0,0,145.33,56.54Z"/><path class="cls-3" d="M157.52,47H112.2a6.85,6.85,0,0,0-6.84,6.84V99.2A6.85,6.85,0,0,0,112.2,106h45.32a6.85,6.85,0,0,0,6.84-6.84V53.88A6.85,6.85,0,0,0,157.52,47Zm-12.19,9.5A4.44,4.44,0,1,1,140.89,61,4.44,4.44,0,0,1,145.33,56.54Zm11,39.85H111.84c-1.37,0-2.33-1-1.9-2L123.86,62a2.23,2.23,0,0,1,3.78,0q3.11,6.69,6.22,13.37c.6,1.28,1.19,2.57,1.79,3.85a2.26,2.26,0,0,0,3.7.12l4.11-7a2.26,2.26,0,0,1,3.68.08l11.1,21.83C158.76,95.28,157.79,96.39,156.38,96.39Z"/><path class="cls-4" d="M156.38,96.39H111.84c-1.37,0-2.33-1-1.9-2L123.86,62a2.23,2.23,0,0,1,3.78,0q3.11,6.69,6.22,13.37c.6,1.28,1.19,2.57,1.79,3.85a2.26,2.26,0,0,0,3.7.12l4.11-7a2.26,2.26,0,0,1,3.68.08l11.1,21.83C158.76,95.28,157.79,96.39,156.38,96.39Z"/><path class="cls-4" d="M149.77,61a4.44,4.44,0,1,1-4.44-4.44A4.44,4.44,0,0,1,149.77,61Z"/></g></g></svg>