<svg xmlns="http://www.w3.org/2000/svg" viewBox="0 0 199.89 154.84"><defs><style>.cls-1{fill:#edf0f3;}.cls-2,.cls-3{fill:#6d7c98;}.cls-3{fill-rule:evenodd;}</style></defs><title>image-1</title><g id="Layer_2" data-name="Layer 2"><g id="Layer_1-2" data-name="Layer 1"><path class="cls-1" d="M163.61,26.52v119.3a8.37,8.37,0,0,1-1,4H14a9.35,9.35,0,0,1-9.34-9.34v-114a8.4,8.4,0,0,1,8.4-8.4H155.21A8.41,8.41,0,0,1,163.61,26.52Z"/><path class="cls-2" d="M184.65,0H22C9.87,0,0,9.53,0,21.25V140.12a15,15,0,0,0,15.25,14.72h169.4a15,15,0,0,0,15.24-14.72V14.71C199.89,6.6,193.05,0,184.65,0Zm9.2,140.12a9.06,9.06,0,0,1-9.2,8.89H15.25A9.06,9.06,0,0,1,6,140.12V21.25C6,12.74,13.21,5.83,22,5.83H184.65a9.05,9.05,0,0,1,9.2,8.88Z"/><path class="cls-3" d="M48.78,120.39H151.11c3.24,0,5.46-2.54,4.27-4.89l-25.5-50.16c-1.49-2.93-6.77-3-8.45-.17q-4.73,8-9.44,16.07c-1.71,2.91-7.09,2.74-8.49-.27L85.08,41.4c-1.48-3.18-7.29-3.13-8.67.08l-32,74.2c-1,2.32,1.21,4.71,4.35,4.71Z"/><circle class="cls-2" cx="125.73" cy="39.04" r="10.2"/></g></g></svg>