<svg xmlns="http://www.w3.org/2000/svg" viewBox="0 0 133.48 181.2"><defs><style>.cls-1{fill:#d2d9e1;opacity:0.45;}.cls-2{fill:#edf0f3;}.cls-3{fill:#6d7c99;}</style></defs><title>list-1</title><g id="Layer_2" data-name="Layer 2"><g id="Layer_1-2" data-name="Layer 1"><polygon class="cls-1" points="76.07 38.28 76.07 39.49 56.59 39.47 56.59 38.28 76.07 38.28"/><path class="cls-2" d="M72.44,69a1.74,1.74,0,0,0,1.73,1.74H93.45v33.85H73.2a1.74,1.74,0,1,0,0,3.47H93.45v5.24H73.2a1.74,1.74,0,1,0,0,3.47H93.45v35.1H17.17V38.28H50.75v4.11a2.92,2.92,0,0,0,2.92,2.92l25.32,0h0a2.94,2.94,0,0,0,2.92-2.93V38.28h9.46a2.07,2.07,0,0,1,2.07,2.07V67.23H74.17A1.74,1.74,0,0,0,72.44,69Z"/><path class="cls-2" d="M93.45,157.69V163H21a4.44,4.44,0,0,1-4.43-4.43v-.89Z"/><path class="cls-2" d="M93.45,167.64v8.07a2,2,0,0,1-.19.86H4.63V38.28h6.7V152.8a4.52,4.52,0,0,0,.6,2.26v3.52A9.08,9.08,0,0,0,21,167.64Z"/><path class="cls-3" d="M55.54,61.37H32.87a5.07,5.07,0,0,0-5.07,5.07V79.5a5.07,5.07,0,0,0,5.07,5.07H55.54a5.07,5.07,0,0,0,5.07-5.07V66.44A5.07,5.07,0,0,0,55.54,61.37Zm0,39.51H32.83a5,5,0,0,0-5,5v13.14a5,5,0,0,0,5,5H55.58a5,5,0,0,0,5-5V105.91A5,5,0,0,0,55.58,100.88ZM67.09,0A14.36,14.36,0,0,0,53,11.46h6a8.52,8.52,0,0,1,16,0h6.08A14.42,14.42,0,0,0,67.09,0ZM55.54,61.37H32.87a5.07,5.07,0,0,0-5.07,5.07V79.5a5.07,5.07,0,0,0,5.07,5.07H55.54a5.07,5.07,0,0,0,5.07-5.07V66.44A5.07,5.07,0,0,0,55.54,61.37Zm0,39.51H32.83a5,5,0,0,0-5,5v13.14a5,5,0,0,0,5,5H55.58a5,5,0,0,0,5-5V105.91A5,5,0,0,0,55.58,100.88ZM91.71,76.25H74.17a1.74,1.74,0,0,0,0,3.47H91.71a1.74,1.74,0,1,0,0-3.47ZM55.54,61.37H32.87a5.07,5.07,0,0,0-5.07,5.07V79.5a5.07,5.07,0,0,0,5.07,5.07H55.54a5.07,5.07,0,0,0,5.07-5.07V66.44A5.07,5.07,0,0,0,55.54,61.37Zm0,39.51H32.83a5,5,0,0,0-5,5v13.14a5,5,0,0,0,5,5H55.58a5,5,0,0,0,5-5V105.91A5,5,0,0,0,55.58,100.88ZM91.71,76.25H74.17a1.74,1.74,0,0,0,0,3.47H91.71a1.74,1.74,0,1,0,0-3.47Zm0,0H74.17a1.74,1.74,0,0,0,0,3.47H91.71a1.74,1.74,0,1,0,0-3.47Z"/><path class="cls-3" d="M131.17,13.94H95.29a2.63,2.63,0,0,0-2.64-2.48H41.56a2.63,2.63,0,0,0-2.64,2.48H2.31A2.3,2.3,0,0,0,0,16.25V178.89a2.31,2.31,0,0,0,2.31,2.31H131.17a2.32,2.32,0,0,0,2.31-2.31V16.25A2.31,2.31,0,0,0,131.17,13.94Zm-87,2.8H90V29L79,29a2.94,2.94,0,0,0-2.93,2.92v7.58l-19.48,0V31.69a2.92,2.92,0,0,0-2.9-2.92l-9.49-.06ZM50.75,34.6v7.79a2.92,2.92,0,0,0,2.92,2.92l25.32,0h0a2.94,2.94,0,0,0,2.92-2.93V34.84L117,35V151.84H17.17V34.39Zm66.9,123.09v.89a4.44,4.44,0,0,1-4.43,4.43H21a4.44,4.44,0,0,1-4.43-4.43v-.89Zm11.2,18.88H4.63v-158H38.91v10.1l-22.38-.13a5.05,5.05,0,0,0-5.2,4.87V152.8a4.52,4.52,0,0,0,.6,2.26v3.52A9.08,9.08,0,0,0,21,167.64h92.23a9.08,9.08,0,0,0,9.06-9.06v-3.52a4.52,4.52,0,0,0,.6-2.26V34.58a5.64,5.64,0,0,0-5.79-5.43L95.3,29.06V18.57h33.55Z"/><path class="cls-3" d="M103.43,115a1.72,1.72,0,0,1-1.73,1.73H73.2a1.74,1.74,0,1,1,0-3.47h28.5A1.73,1.73,0,0,1,103.43,115Z"/><path class="cls-3" d="M103.43,106.29A1.73,1.73,0,0,1,101.7,108H73.2a1.74,1.74,0,1,1,0-3.47h28.5A1.72,1.72,0,0,1,103.43,106.29Z"/><path class="cls-3" d="M104.41,69a1.74,1.74,0,0,1-1.74,1.74H74.17a1.74,1.74,0,0,1,0-3.48h28.5A1.74,1.74,0,0,1,104.41,69Z"/></g></g></svg>