<svg xmlns="http://www.w3.org/2000/svg" viewBox="0 0 186.68 149.11"><defs><style>.cls-1{fill:#6d7c98;}.cls-2{fill:#edf0f3;}.cls-3{fill:#fff;}</style></defs><title>map-1</title><g id="Layer_2" data-name="Layer 2"><g id="Layer_1-2" data-name="Layer 1"><path class="cls-1" d="M144.5,47a2.8,2.8,0,0,0-1.64-.37,2.83,2.83,0,0,0-1.09.34l-20.6,11.43L99.37,47a2.7,2.7,0,0,0-1.47-.29c1.35-2.72,2.44-4.89,3.23-6.66a15.6,15.6,0,0,0,1.11-7.93c-.75-6.65-7.4-15.67-17.5-15.53s-16.18,9.18-17,15.53a21.19,21.19,0,0,0,1.11,9.42c.88,2.29,2.1,5.16,3.62,8.86,1.14,2.77,1.57,3.86,2.47,6.12l-.35.13L53,46.91a2.76,2.76,0,0,0-2.63.2,2.72,2.72,0,0,0-1.26,2.31v65.42a2.75,2.75,0,0,0,1.32,2.35l22.76,13.92a2.79,2.79,0,0,0,2.86,0l22.8-13.73,21.52,10.36a2.8,2.8,0,0,0,2.35,0l20-9.14,1.53-.7a2.76,2.76,0,0,0,1.61-2.51v-66A2.77,2.77,0,0,0,144.5,47Zm-72.63,76.8L54.61,113.29V53.69l17.26,7.78ZM85.46,26.42a8,8,0,1,1-8,8A8,8,0,0,1,85.46,26.42ZM96.1,112.6,77.38,123.88V62.57c1.38,3.36,3.23,7.7,5.57,12.9a.89.89,0,0,0,1.62,0c2.58-6.14,4.84-11.12,6.53-14.74,1-2.22,1.86-3.94,2.53-5.34l2.47-.92Zm22,7.24-16.52-7.53V54.39l16.52,8.69Zm22.21-6.19-16.7,7.63V63.37l16.7-9.27Z"/><polygon class="cls-2" points="54.61 113.29 54.61 53.69 71.87 61.47 71.87 123.84 54.61 113.29"/><path class="cls-2" d="M85.46,42.48a8,8,0,1,1,8-8A8,8,0,0,1,85.46,42.48Z"/><path class="cls-2" d="M77.38,62.57c1.38,3.36,3.23,7.7,5.57,12.9a.89.89,0,0,0,1.62,0c2.58-6.14,4.84-11.12,6.53-14.74,1-2.22,1.86-3.94,2.53-5.34l2.47-.92V112.6L77.38,123.88Z"/><polygon class="cls-2" points="101.62 112.31 101.62 54.39 118.14 63.08 118.14 119.84 101.62 112.31"/><polygon class="cls-2" points="123.65 121.28 123.65 63.37 140.35 54.1 140.35 113.65 123.65 121.28"/><path class="cls-2" d="M141.77,47l-20.6,11.43L99.37,47a2.7,2.7,0,0,0-1.47-.29c1.35-2.72,2.44-4.89,3.23-6.66a15.6,15.6,0,0,0,1.11-7.93c-.75-6.65-7.4-15.67-17.5-15.53s-16.18,9.18-17,15.53a21.19,21.19,0,0,0,1.11,9.42c.88,2.29,2.1,5.16,3.62,8.86,1.14,2.77,1.57,3.86,2.47,6.12l-.35.13L53,46.91a2.76,2.76,0,0,0-2.63.2,2.72,2.72,0,0,0-1.26,2.31v65.42a2.75,2.75,0,0,0,1.32,2.35l22.76,13.92a2.79,2.79,0,0,0,2.86,0l22.8-13.73,21.52,10.36a2.8,2.8,0,0,0,2.35,0l20-9.14A14.88,14.88,0,0,1,128,131.54H8.59a5.53,5.53,0,0,1-1.78-.29A16.64,16.64,0,0,1,6,126.09L6.24,22.61A16.66,16.66,0,0,1,22.89,6h0l119.93.27v40.4A2.83,2.83,0,0,0,141.77,47Z"/><path class="cls-1" d="M164.08.32,23,0h-.06A22.64,22.64,0,0,0,.24,22.6L0,126.08a22.65,22.65,0,0,0,22.61,22.7l141.13.33h0a22.68,22.68,0,0,0,22.65-22.6L186.68,23A22.68,22.68,0,0,0,164.08.32ZM180.44,126.5a16.67,16.67,0,0,1-16.65,16.61h0l-141.13-.33A16.66,16.66,0,0,1,6,126.09L6.24,22.61A16.66,16.66,0,0,1,22.89,6h0l119.93.27,21.21.05A16.67,16.67,0,0,1,180.68,23Z"/><path class="cls-1" d="M85.46,26.42a8,8,0,1,0,8,8A8,8,0,0,0,85.46,26.42Z"/><path class="cls-3" d="M93.49,34.45a8,8,0,1,1-8-8A8,8,0,0,1,93.49,34.45Z"/></g></g></svg>