<svg xmlns="http://www.w3.org/2000/svg" viewBox="0 0 311.07 322.48"><defs><style>.cls-1{fill:#6d7c98;}.cls-2{fill:#d2d9e1;opacity:0.45;}</style></defs><title>no_search_results</title><g id="Layer_2" data-name="Layer 2"><g id="Layer_1-2" data-name="Layer 1"><path class="cls-1" d="M310.7,111.87a120.25,120.25,0,0,0-1.8-13.38q-.45-2.35-1-4.68A121.37,121.37,0,0,0,85.06,59.89q-1.61,2.69-3,5.46a120.22,120.22,0,0,0-13.34,46.2c-.25,3.13-.38,6.28-.39,9.47v.37q0,5.92.56,11.71c.31,3.32.77,6.59,1.35,9.82a121.21,121.21,0,0,0,36.56,67L93.61,223.1l-11.5-11.5a4.49,4.49,0,0,0-6.36,0L6.23,281.11c-.11.12-.22.24-.32.37-7.47,9.31-7.91,22.58-1,31.54a24.38,24.38,0,0,0,16.41,9.23,25.86,25.86,0,0,0,3.51.23,26.72,26.72,0,0,0,16.38-5.62,5.46,5.46,0,0,0,.44-.38L111.11,247a4.49,4.49,0,0,0,0-6.36L100,229.46l13.64-13.64,2.39,2c1,.79,2.08,1.57,3.14,2.32a121.31,121.31,0,0,0,184.47-56.83c1-2.74,1.93-5.52,2.74-8.35a117.81,117.81,0,0,0,2.75-11.74c.59-3.23,1-6.51,1.38-9.82q.57-5.77.59-11.69v-.3C311.07,118.19,310.94,115,310.7,111.87ZM101.57,243.78,35.45,309.9a17.73,17.73,0,0,1-13,3.43A15.65,15.65,0,0,1,12,307.54c-4.33-5.65-4-14.14.78-20.25l66.15-66.15ZM189.68,233a110.91,110.91,0,0,1-64.9-20.88q-2.94-2.09-5.71-4.37A111.51,111.51,0,1,1,189.68,233Z"/><path class="cls-2" d="M274.93,126.71c0,55.66-46,100.93-102.5,100.93a103.84,103.84,0,0,1-25.29-3.11,111.69,111.69,0,0,1-22.36-12.45q-2.94-2.09-5.71-4.37A111.38,111.38,0,0,1,99.26,56.12a102.87,102.87,0,0,1,73.17-30.34C229,25.78,274.93,71.06,274.93,126.71Z"/><path class="cls-1" d="M159.32,126.53a13.25,13.25,0,1,1,13.15-13.35A13.25,13.25,0,0,1,159.32,126.53Z"/><path class="cls-1" d="M220.62,99.56A13.25,13.25,0,1,0,234,112.71,13.24,13.24,0,0,0,220.62,99.56Z"/><path class="cls-1" d="M191,126.74A25.31,25.31,0,0,1,216,148.62a4,4,0,0,1-7.92,1.14c-1.28-8.9-9.37-15.61-18-15A17.17,17.17,0,0,0,174.55,150a4,4,0,0,1-7.94-1,25.2,25.2,0,0,1,22.81-22.21C190,126.77,190.51,126.75,191,126.74Z"/><path class="cls-1" d="M142.66,205.05a4.37,4.37,0,0,1-1.76-.36,74.21,74.21,0,0,1-43.06-50.61,4.5,4.5,0,1,1,8.73-2.15,65.21,65.21,0,0,0,37.85,44.48,4.5,4.5,0,0,1-1.76,8.64Z"/></g></g></svg>