<svg xmlns="http://www.w3.org/2000/svg" viewBox="0 0 827.71 664.39"><defs><style>.cls-1{fill:#edf0f3;}.cls-2{fill:#7886a1;}.cls-3{fill:#6d7c98;}</style></defs><title>nothing_selected_1</title><g id="Layer_2" data-name="Layer 2"><g id="Layer_1-2" data-name="Layer 1"><rect class="cls-1" x="71.56" y="54.98" width="555.64" height="648.75" rx="34.31" ry="34.31" transform="translate(728.73 29.98) rotate(90)"/><path class="cls-2" d="M669.14,554a27.49,27.49,0,0,0,2.16-26.57L561.64,280.48c-4.82-10.85-15.65-17.81-28.26-18.16s-24,6.05-29.49,16.72l-40.6,79.12c-1.54,3-5,3.93-7.84,3.81-2.66-.12-5.92-1.28-7.1-4.19L369.16,163c-4.71-11.58-16.28-19-29.56-19h-.46c-13.42.17-25,7.9-29.4,19.69L172.22,528.91a27.64,27.64,0,0,0,3.25,25.77,32.14,32.14,0,0,0,26.59,13.49h440A31.92,31.92,0,0,0,669.14,554Zm-322-382,79.19,194.78c4.53,11.15,15.29,18.42,28.07,19,13,.56,24.46-5.83,30-16.7L525,289.89c1.51-2.93,5-3.86,7.68-3.82s5.93,1.18,7.21,4.06L649.58,537.05a3.88,3.88,0,0,1-.37,4,8.34,8.34,0,0,1-7.13,3.38h-440a8.41,8.41,0,0,1-7-3.25,3.92,3.92,0,0,1-.56-3.86L332,172.05c1.52-4,6.49-4.28,7.47-4.3h.1C340.75,167.75,345.54,168,347.14,172Zm240-5.81c0-27.76-23-50.34-51.26-50.34s-51.25,22.58-51.25,50.34,23,50.34,51.25,50.34S587.09,193.89,587.09,166.14Zm-20,0c0,16.72-14,30.33-31.25,30.33s-31.25-13.61-31.25-30.33,14-30.33,31.25-30.33S567.08,149.41,567.08,166.14Z"/><path class="cls-2" d="M364.54,456.68a24.58,24.58,0,1,1,24.4-24.77A24.56,24.56,0,0,1,364.54,456.68Z"/><path class="cls-2" d="M478.26,406.64A24.58,24.58,0,1,0,503,431,24.58,24.58,0,0,0,478.26,406.64Z"/><path class="cls-2" d="M424,506.43c-22.83.18-42.82-17.12-46.21-40.58a7.42,7.42,0,1,1,14.69-2.12c2.39,16.52,17.38,29,33.42,27.78,14.73-1.11,26.8-13,28.69-28.23a7.42,7.42,0,1,1,14.73,1.83c-2.76,22.24-20.55,39.56-42.31,41.2C426,506.38,425,506.43,424,506.43Z"/><path class="cls-3" d="M764.58,664.39H63.13A63.2,63.2,0,0,1,0,601.26V91.16A91.26,91.26,0,0,1,91.16,0H764.58a63.2,63.2,0,0,1,63.13,63.13V601.26A63.2,63.2,0,0,1,764.58,664.39ZM91.16,25A66.24,66.24,0,0,0,25,91.16v510.1a38.18,38.18,0,0,0,38.13,38.13H764.58a38.17,38.17,0,0,0,38.13-38.13V63.13A38.17,38.17,0,0,0,764.58,25Z"/></g></g></svg>