<svg xmlns="http://www.w3.org/2000/svg" viewBox="0 0 147.37 203.06"><defs><style>.cls-1{fill:#edf0f3;}.cls-2{fill:#6d7c98;}</style></defs><title>page-1</title><g id="Layer_2" data-name="Layer 2"><g id="Layer_1-2" data-name="Layer 1"><path class="cls-1" d="M120.42,43.83v2.45H108.76a7.58,7.58,0,0,1-7.66-7.67V34.84h10.33A9,9,0,0,1,120.42,43.83Z"/><path class="cls-1" d="M108.76,52.39h11.66V178a9,9,0,0,1-3.45,7.08H13.77a7.59,7.59,0,0,1-7.66-7.67V38.15a8.94,8.94,0,0,1,7-3.31H95v3.77a13.73,13.73,0,0,0,13.77,13.78Z"/><path class="cls-2" d="M143.31,41.12l-37.77-37A13.83,13.83,0,0,0,95.85,0H13.77A13.73,13.73,0,0,0,0,13.77V189.29a13.73,13.73,0,0,0,13.77,13.77H133.6a13.71,13.71,0,0,0,13.77-13.77V51A15.06,15.06,0,0,0,143.31,41.12ZM101.1,8.28l.22.15,37.69,37a7.26,7.26,0,0,1,.73.89h-31a7.58,7.58,0,0,1-7.66-7.67Zm40.16,181A7.58,7.58,0,0,1,133.6,197H13.77a7.59,7.59,0,0,1-7.66-7.66v-.38a13.69,13.69,0,0,0,7.66,2.3H133.6a13.69,13.69,0,0,0,7.66-2.3Zm0-11.85a7.58,7.58,0,0,1-7.66,7.67H13.77a7.59,7.59,0,0,1-7.66-7.67V13.77a7.59,7.59,0,0,1,7.66-7.66H95v32.5a13.73,13.73,0,0,0,13.77,13.78h32.5Z"/><path class="cls-2" d="M50.15,90.79H22.38A5.34,5.34,0,0,1,17,85.45V62.84a5.34,5.34,0,0,1,5.34-5.34H50.15a5.34,5.34,0,0,1,5.34,5.34V85.45A5.34,5.34,0,0,1,50.15,90.79Zm5.53,50.09V120.14a6.44,6.44,0,0,0-6.44-6.44H23.29a6.44,6.44,0,0,0-6.44,6.44v20.74a6.44,6.44,0,0,0,6.44,6.44h26A6.44,6.44,0,0,0,55.68,140.88Z"/><path class="cls-2" d="M96.74,69.18H68a2.62,2.62,0,0,1,0-5.24H96.74a2.62,2.62,0,1,1,0,5.24Z"/><path class="cls-2" d="M91,79.38H68a2.62,2.62,0,1,1,0-5.23H91a2.62,2.62,0,1,1,0,5.23Z"/><path class="cls-2" d="M96,122.69H67.19a2.62,2.62,0,1,1,0-5.24H96a2.62,2.62,0,1,1,0,5.24Z"/><path class="cls-2" d="M90.19,132.9h-23a2.62,2.62,0,0,1,0-5.24h23a2.62,2.62,0,0,1,0,5.24Z"/><path class="cls-2" d="M86,143.1H67.19a2.62,2.62,0,1,1,0-5.24H86a2.62,2.62,0,1,1,0,5.24Z"/></g></g></svg>