<svg xmlns="http://www.w3.org/2000/svg" viewBox="0 0 186.68 149.11"><defs><style>.cls-1{fill:#edf0f3;}.cls-2{fill:#6d7c98;}</style></defs><title>rss-1</title><g id="Layer_2" data-name="Layer 2"><g id="Layer_1-2" data-name="Layer 1"><path class="cls-1" d="M180.68,23l0,8.1-91.29-.2.06-24.76,74.64.17a16.63,16.63,0,0,1,15.24,10.06l-58.19-.13h0a3,3,0,0,0,0,6l59.57.13C180.68,22.59,180.68,22.8,180.68,23Z"/><path class="cls-1" d="M180.65,37.11l-.2,86.83-91.3-.21,0-18.82a3.4,3.4,0,0,0,.72,1,3.37,3.37,0,0,0,2.74,1,3.47,3.47,0,0,0,3.19-3.76,24.38,24.38,0,0,0-3.34-10.56,24.71,24.71,0,0,0-3.27-4.44l0-8.19a33.07,33.07,0,0,1,4.41,3.74,34.48,34.48,0,0,1,9.68,19.72,3.94,3.94,0,0,0,4,3.47,3.29,3.29,0,0,0,3.19-3.76,40.79,40.79,0,0,0-5.74-16.41,44,44,0,0,0-6.18-7.92,41.58,41.58,0,0,0-9.36-7.08l0-6.86a46.32,46.32,0,0,1,13.36,9.35,48.29,48.29,0,0,1,13.58,29.58,3.41,3.41,0,0,0,1,2.16,3.45,3.45,0,0,0,2.74,1,3.5,3.5,0,0,0,3.22-3.76,54.71,54.71,0,0,0-15.6-33.9,53.34,53.34,0,0,0-18.26-12l0-20.4Z"/><path class="cls-1" d="M180.07,129.94a16.58,16.58,0,0,1-4.7,8.46l-81.81-.18a4.44,4.44,0,0,1-4.43-4.45v-4Z"/><path class="cls-2" d="M186.34,19.13a2.51,2.51,0,0,0,0-.27.5.5,0,0,0,0-.12A22.7,22.7,0,0,0,164.08.32L23,0h-.06A22.64,22.64,0,0,0,.24,22.6L0,126.08c0,.11,0,.22,0,.33a2.43,2.43,0,0,0,0,.27.34.34,0,0,0,0,.14,0,0,0,0,0,0,0,22.64,22.64,0,0,0,22.59,21.94l141.13.33h0a22.66,22.66,0,0,0,22.63-21.85h0c0-.14,0-.28,0-.42s0-.21,0-.32L186.68,23A21.84,21.84,0,0,0,186.34,19.13Zm-11,119.27a16.52,16.52,0,0,1-11.58,4.71h0l-141.13-.33A16.69,16.69,0,0,1,6.35,129.54l82.79.19,90.93.21A16.58,16.58,0,0,1,175.37,138.4Zm5.08-14.46-91.3-.21L6,123.54l.2-86.82,83.15.19,91.29.2Zm.21-92.83-91.29-.2L6.22,30.72l0-8.11A16.66,16.66,0,0,1,22.89,6h0l66.5.15,74.64.17a16.63,16.63,0,0,1,15.24,10.06l-58.19-.13h0a3,3,0,0,0,0,6l59.57.13c0,.21,0,.42,0,.63Z"/><path class="cls-2" d="M0,126.41a2.43,2.43,0,0,0,0,.27.76.76,0,0,1,0-.15A.49.49,0,0,1,0,126.41Z"/><path class="cls-2" d="M186.44,127a1.37,1.37,0,0,1,0,.29c0-.14,0-.28,0-.42A.57.57,0,0,1,186.44,127Z"/><path class="cls-2" d="M123.17,103.24A3.5,3.5,0,0,1,120,107a3.45,3.45,0,0,1-2.74-1,3.41,3.41,0,0,1-1-2.16,48.29,48.29,0,0,0-13.58-29.58,46.32,46.32,0,0,0-13.36-9.35,49.25,49.25,0,0,0-16.12-4.36,3.47,3.47,0,1,1,.57-6.91,55.38,55.38,0,0,1,13.45,2.9c.72.25,1.42.52,2.12.8a53.34,53.34,0,0,1,18.26,12,54.71,54.71,0,0,1,15.6,33.9Z"/><path class="cls-2" d="M107.36,106.91a3.94,3.94,0,0,1-4-3.47,34.48,34.48,0,0,0-9.68-19.72A33.07,33.07,0,0,0,89.26,80,34,34,0,0,0,74,74a3.9,3.9,0,0,1-2.31-1.15,3.8,3.8,0,0,1-1.17-2.9,3.29,3.29,0,0,1,3.78-3.14,41,41,0,0,1,9.56,2.43,42.57,42.57,0,0,1,5.38,2.52,41.58,41.58,0,0,1,9.36,7.08,44,44,0,0,1,6.18,7.92,40.79,40.79,0,0,1,5.74,16.41A3.29,3.29,0,0,1,107.36,106.91Z"/><path class="cls-2" d="M95.85,103.17a3.47,3.47,0,0,1-3.19,3.76,3.37,3.37,0,0,1-2.74-1,3.4,3.4,0,0,1-.72-1h0a3.26,3.26,0,0,1-.3-1.15,17.91,17.91,0,0,0-16.41-16.5,3.48,3.48,0,0,1,.57-6.94,25.15,25.15,0,0,1,15.6,7.26c.19.19.39.39.58.6a24.71,24.71,0,0,1,3.27,4.44A24.38,24.38,0,0,1,95.85,103.17Z"/><path class="cls-2" d="M79.61,105.08a6.25,6.25,0,1,1,0-8.86A6.23,6.23,0,0,1,79.61,105.08Z"/><path class="cls-2" d="M55.93,12.69a5.16,5.16,0,1,0,5.14,5.17A5.18,5.18,0,0,0,55.93,12.69Z"/><circle class="cls-2" cx="39.34" cy="17.81" r="5.16" transform="translate(21.44 57.11) rotate(-89.87)"/><circle class="cls-2" cx="22.76" cy="17.77" r="5.16" transform="translate(4.94 40.49) rotate(-89.87)"/></g></g></svg>