<svg xmlns="http://www.w3.org/2000/svg" viewBox="0 0 186.68 149.11"><defs><style>.cls-1{fill:#edf0f3;}.cls-2{fill:#6d7c98;}</style></defs><title>setting-1</title><g id="Layer_2" data-name="Layer 2"><g id="Layer_1-2" data-name="Layer 1"><ellipse class="cls-1" cx="93.43" cy="74.55" rx="20.19" ry="20.89"/><path class="cls-1" d="M180.64,41.54l-.2,85a16.67,16.67,0,0,1-16.65,16.61h0l-141.13-.33a16,16,0,0,1-4.41-.61,5.43,5.43,0,0,1-.35-1.94v-78A20.64,20.64,0,0,1,38.51,41.54H69.74l-.12,3.38a38.33,38.33,0,0,0-5.88,5.86l-3.89.13c-2.3.07-5.9-.38-6.78,1.76l-3.66,8.81c-.88,2.12,2,4.36,3.53,6l2.64,2.85a37.33,37.33,0,0,0,0,8.32l-2.64,2.84c-1.57,1.68-4.41,3.91-3.53,6L53,96.36c.88,2.13,4.49,1.69,6.79,1.77l3.89.13a38,38,0,0,0,5.87,5.89l.11,3.88c.07,2.3-.38,5.91,1.77,6.79l8.81,3.66c2.12.88,4.35-2,6-3.53l2.85-2.64a37.24,37.24,0,0,0,8.31,0L100.3,115c1.68,1.58,3.9,4.41,6,3.53l8.81-3.62c2.12-.88,1.68-4.48,1.76-6.79l.14-3.9a37.89,37.89,0,0,0,5.88-5.86l3.9-.12c2.29-.07,5.91.38,6.79-1.76l3.66-8.82c.91-2.08-2-4.32-3.52-6l-2.65-2.86a37.24,37.24,0,0,0,0-8.31l2.65-2.84c1.58-1.68,4.41-3.91,3.52-6l-3.62-8.82c-.88-2.12-4.48-1.68-6.78-1.76l-3.9-.14A37.39,37.39,0,0,0,117.11,45L117,41.54Z"/><path class="cls-1" d="M186.63,46v73.77a25.12,25.12,0,0,1-.18,3Z"/><path class="cls-2" d="M164.08.32,23,0h-.06A22.64,22.64,0,0,0,.24,22.6L0,126.08a22.65,22.65,0,0,0,22.61,22.7l141.13.33h0a22.68,22.68,0,0,0,22.65-22.6v-3.74L186.63,46v-.07L186.68,23A22.68,22.68,0,0,0,164.08.32Zm16.56,41.22-.2,85a16.67,16.67,0,0,1-16.65,16.61h0l-141.13-.33a16,16,0,0,1-4.41-.61A16.67,16.67,0,0,1,6,126.09L6.24,22.61A16.66,16.66,0,0,1,22.89,6h0l141.14.32A16.67,16.67,0,0,1,180.68,23Z"/><path class="cls-2" d="M133.75,81.6l-2.65-2.86a37.24,37.24,0,0,0,0-8.31l2.65-2.84c1.58-1.68,4.41-3.91,3.52-6l-3.62-8.82c-.88-2.12-4.48-1.68-6.78-1.76l-3.9-.14A37.39,37.39,0,0,0,117.11,45L117,41.54v-.48c-.07-2.29.38-5.9-1.76-6.78l-8.82-3.66c-2.11-.88-4.36,2-6,3.53L97.53,36.8a37.33,37.33,0,0,0-8.32,0l-2.83-2.65c-1.68-1.57-3.92-4.41-6-3.53l-8.81,3.63c-2.13.88-1.68,4.48-1.77,6.78l0,.51-.12,3.38a38.33,38.33,0,0,0-5.88,5.86l-3.89.13c-2.3.07-5.9-.38-6.78,1.76l-3.66,8.81c-.88,2.12,2,4.36,3.53,6l2.64,2.85a37.33,37.33,0,0,0,0,8.32l-2.64,2.84c-1.57,1.68-4.41,3.91-3.53,6L53,96.36c.88,2.13,4.49,1.69,6.79,1.77l3.89.13a38,38,0,0,0,5.87,5.89l.11,3.88c.07,2.3-.38,5.91,1.77,6.79l8.81,3.66c2.12.88,4.35-2,6-3.53l2.85-2.64a37.24,37.24,0,0,0,8.31,0L100.3,115c1.68,1.58,3.9,4.41,6,3.53l8.81-3.62c2.12-.88,1.68-4.48,1.76-6.79l.14-3.9a37.89,37.89,0,0,0,5.88-5.86l3.9-.12c2.29-.07,5.91.38,6.79-1.76l3.66-8.82C138.18,85.53,135.31,83.29,133.75,81.6ZM93.43,95.44c-11.16,0-20.19-9.35-20.19-20.89s9-20.89,20.19-20.89S113.62,63,113.62,74.55,104.59,95.44,93.43,95.44Z"/></g></g></svg>