<svg xmlns="http://www.w3.org/2000/svg" viewBox="0 0 189.81 151.45"><defs><style>.cls-1{fill:#edf0f3;}.cls-2{fill:#6d7c98;}</style></defs><title>video-1</title><g id="Layer_2" data-name="Layer 2"><g id="Layer_1-2" data-name="Layer 1"><path class="cls-1" d="M156.85,14H27.15a13,13,0,0,0-13,13v88.52h-9V18.15a13,13,0,0,1,13-13H151A21.48,21.48,0,0,1,156.85,14Z"/><path class="cls-1" d="M158,21.05v92.47c0,.66,0,1.3-.08,1.94H19.31V26.94a7.84,7.84,0,0,1,7.84-7.83H158C158,19.74,158,20.39,158,21.05Z"/><path class="cls-1" d="M156.85,120.6a21.44,21.44,0,0,1-5.61,8.59H128a2.57,2.57,0,1,0,0,5.14H141.8a21.22,21.22,0,0,1-5.2.63H21.44c-.6,0-1.2,0-1.79-.07H58.2a2.57,2.57,0,1,0,0-5.14H7.43a21.62,21.62,0,0,1-2.29-2.3V120.6Z"/><path class="cls-2" d="M171.66,0H18.15L17.2,0A18.18,18.18,0,0,0,0,18.15V133.31a18.17,18.17,0,0,0,18.15,18.14H171.66a18.17,18.17,0,0,0,18.15-18.14V18.15A18.17,18.17,0,0,0,171.66,0Zm13,129.28a2.46,2.46,0,0,0-.67-.09H128a2.57,2.57,0,1,0,0,5.14h56a2.67,2.67,0,0,0,.64-.08,13,13,0,0,1-13,12.06H18.15A13,13,0,0,1,5.24,134.89h53a2.57,2.57,0,1,0,0-5.14H5.14V120.6H184.67ZM19.31,115.46V26.94a7.84,7.84,0,0,1,7.84-7.83H162.67a7.84,7.84,0,0,1,7.84,7.83v88.52Zm165.36,0h-9V26.94a13,13,0,0,0-13-13H27.15a13,13,0,0,0-13,13v88.52h-9V18.15a13,13,0,0,1,13-13H171.66a13,13,0,0,1,13,13Z"/><path class="cls-2" d="M72,41.21V93.35a4.82,4.82,0,0,0,7.37,4.09l48.57-26.07a4.82,4.82,0,0,0,0-8.17L79.32,37.13A4.82,4.82,0,0,0,72,41.21Z"/></g></g></svg>