<svg xmlns="http://www.w3.org/2000/svg" viewBox="0 0 186.68 149.11"><defs><style>.cls-1{fill:#edf0f3;}.cls-2{fill:#6d7c98;}.cls-3{fill:#7887a2;}</style></defs><title>web-1</title><g id="Layer_2" data-name="Layer 2"><g id="Layer_1-2" data-name="Layer 1"><path class="cls-1" d="M157.63,129.89v12.34a4.94,4.94,0,0,1-.07.87l-134.94-.32A16.69,16.69,0,0,1,6.35,129.54Z"/><path class="cls-1" d="M117.33,85.67v24a1.54,1.54,0,0,0,1.55,1.55h38.21a1.4,1.4,0,0,0,.54-.1v12.75L6,123.54l.11-49.3a4.32,4.32,0,0,1,1.69-.34H28.72a2.93,2.93,0,0,0,2.12.9H73.05a3,3,0,0,0,2.12-.9h42.16v1.66a1.54,1.54,0,0,0,1.55,1.55h38.21a1.34,1.34,0,0,0,.35,0,4.11,4.11,0,0,1,.19,1.27v5.88a1.4,1.4,0,0,0-.54-.1H118.88A1.54,1.54,0,0,0,117.33,85.67Z"/><path class="cls-2" d="M186.34,19.13a2.51,2.51,0,0,0,0-.27.5.5,0,0,0,0-.12A22.7,22.7,0,0,0,164.08.32L23,0h-.06A22.64,22.64,0,0,0,.24,22.6L0,126.08c0,.1,0,.2,0,.3H0s0,0,0,0a2.43,2.43,0,0,0,0,.27.34.34,0,0,0,0,.14,0,0,0,0,0,0,0,22.64,22.64,0,0,0,22.59,21.94l141.13.33h0a22.66,22.66,0,0,0,22.63-21.85h0c0-.14,0-.28,0-.42s0,0,0,0,0-.2,0-.3L186.68,23A21.84,21.84,0,0,0,186.34,19.13Zm-22.55,124h-6.23l-134.94-.32A16.69,16.69,0,0,1,6.35,129.54l151.28.35,22.44.05A16.67,16.67,0,0,1,163.79,143.11Zm16.66-19.17-22.82,0L6,123.54l.11-49.3.09-37.52,174.44.39Zm.21-92.83L6.22,30.72l0-8.11A16.66,16.66,0,0,1,22.89,6h0l141.14.32a16.63,16.63,0,0,1,15.24,10.06l-58.19-.13h0a3,3,0,0,0,0,6l59.57.13c0,.21,0,.42,0,.63Z"/><path class="cls-2" d="M0,126.41a2.43,2.43,0,0,0,0,.27.76.76,0,0,1,0-.15A.49.49,0,0,1,0,126.41Z"/><path class="cls-2" d="M186.44,127a1.37,1.37,0,0,1,0,.29c0-.14,0-.28,0-.42A.57.57,0,0,1,186.44,127Z"/><path class="cls-2" d="M61.07,17.86a5.16,5.16,0,1,1-5.14-5.17A5.15,5.15,0,0,1,61.07,17.86Z"/><path class="cls-2" d="M44.49,17.82a5.16,5.16,0,1,1-5.14-5.17A5.16,5.16,0,0,1,44.49,17.82Z"/><path class="cls-2" d="M27.92,17.78a5.16,5.16,0,1,1-5.15-5.16A5.18,5.18,0,0,1,27.92,17.78Z"/><path class="cls-3" d="M84.61,56.73H30.84a3,3,0,0,1,0-5.92H84.61a3,3,0,0,1,0,5.92Z"/><path class="cls-2" d="M158.63,51.54v24a1.55,1.55,0,0,1-1.19,1.51,1.34,1.34,0,0,1-.35,0H118.88a1.54,1.54,0,0,1-1.55-1.55v-24A1.54,1.54,0,0,1,118.88,50h38.21A1.54,1.54,0,0,1,158.63,51.54Z"/><path class="cls-2" d="M158.63,85.67v24a1.55,1.55,0,0,1-1,1.45,1.4,1.4,0,0,1-.54.1H118.88a1.54,1.54,0,0,1-1.55-1.55v-24a1.54,1.54,0,0,1,1.55-1.55h38.21a1.4,1.4,0,0,1,.54.1A1.55,1.55,0,0,1,158.63,85.67Z"/><path class="cls-2" d="M76,71.84a3,3,0,0,1-3,3H30.84a3,3,0,1,1,0-5.92H73.05A3,3,0,0,1,76,71.84Z"/><path class="cls-3" d="M73.05,81H30.84a3,3,0,0,0,0,5.92H73.05a3,3,0,0,0,0-5.92Z"/><path class="cls-3" d="M53.36,93.15H30.84a3,3,0,0,0,0,5.92H53.36a3,3,0,1,0,0-5.92Z"/></g></g></svg>