<svg xmlns="http://www.w3.org/2000/svg" viewBox="0 0 186.68 149.11"><defs><style>.cls-1{fill:#6d7c98;}.cls-2{fill:#edf0f3;}</style></defs><title>youtube-1</title><g id="Layer_2" data-name="Layer 2"><g id="Layer_1-2" data-name="Layer 1"><path class="cls-1" d="M186.3,18.86a.5.5,0,0,0,0-.12A22.7,22.7,0,0,0,164.08.32L23,0h-.06A22.64,22.64,0,0,0,.24,22.6L0,126.08c0,.11,0,.22,0,.33a2.43,2.43,0,0,0,0,.27.34.34,0,0,0,0,.14,0,0,0,0,0,0,0,22.64,22.64,0,0,0,22.59,21.94l141.13.33h0a22.66,22.66,0,0,0,22.63-21.85h0c0-.14,0-.28,0-.42s0-.21,0-.32L186.68,23A22.94,22.94,0,0,0,186.3,18.86ZM163.79,143.11h0l-112.26-.26-28.87-.07A16.69,16.69,0,0,1,6.35,129.54l44.51.1,129.21.3A16.67,16.67,0,0,1,163.79,143.11Zm16.66-19.17-129.59-.3L6,123.54l.2-86.82L67,36.85l113.65.26Zm.21-92.83L6.22,30.72l0-8.11A16.66,16.66,0,0,1,22.89,6h0l141.14.32a16.63,16.63,0,0,1,15.24,10.06l-58.19-.13h0a3,3,0,0,0,0,6l59.57.13c0,.21,0,.42,0,.63Z"/><path class="cls-2" d="M180.07,129.94a16.67,16.67,0,0,1-16.28,13.17h0l-112.26-.26a5.72,5.72,0,0,1-.63-2.62V129.64Z"/><path class="cls-2" d="M180.65,37.11l-.2,86.83-129.59-.3V56.14A19.6,19.6,0,0,1,67,36.85Z"/><path class="cls-1" d="M0,126.41a2.43,2.43,0,0,0,0,.27.76.76,0,0,1,0-.15A.49.49,0,0,1,0,126.41Z"/><path class="cls-1" d="M186.44,127a1.37,1.37,0,0,1,0,.29c0-.14,0-.28,0-.42A.57.57,0,0,1,186.44,127Z"/><path class="cls-1" d="M55.93,12.69a5.16,5.16,0,1,0,5.14,5.17A5.18,5.18,0,0,0,55.93,12.69Z"/><circle class="cls-1" cx="39.34" cy="17.81" r="5.16" transform="translate(21.44 57.11) rotate(-89.87)"/><circle class="cls-1" cx="22.76" cy="17.77" r="5.16" transform="translate(4.94 40.49) rotate(-89.87)"/><path class="cls-1" d="M68.86,54.17v52.14a4.82,4.82,0,0,0,7.37,4.08l48.56-26.07a4.82,4.82,0,0,0,0-8.17L76.23,50.08A4.82,4.82,0,0,0,68.86,54.17Z"/></g></g></svg>